<svg xmlns="http://www.w3.org/2000/svg" xmlns:xlink="http://www.w3.org/1999/xlink" width="1464" zoomAndPan="magnify" viewBox="0 0 1098 352.49999" height="470" preserveAspectRatio="xMidYMid meet" version="1.0"><defs><g/><clipPath id="11b7c57b6f"><path d="M 0.777344 147.480469 L 1096.84375 147.480469 L 1096.84375 351.546875 L 0.777344 351.546875 Z M 0.777344 147.480469 " clip-rule="nonzero"/></clipPath><clipPath id="074acdcba9"><path d="M 23.246094 147.480469 L 1074.117188 147.480469 C 1086.527344 147.480469 1096.585938 157.539062 1096.585938 169.949219 L 1096.585938 329.082031 C 1096.585938 341.488281 1086.527344 351.546875 1074.117188 351.546875 L 23.246094 351.546875 C 10.835938 351.546875 0.777344 341.488281 0.777344 329.082031 L 0.777344 169.949219 C 0.777344 157.539062 10.835938 147.480469 23.246094 147.480469 Z M 23.246094 147.480469 " clip-rule="nonzero"/></clipPath><clipPath id="54a0bcd310"><path d="M 0.777344 0.480469 L 1096.742188 0.480469 L 1096.742188 204.546875 L 0.777344 204.546875 Z M 0.777344 0.480469 " clip-rule="nonzero"/></clipPath><clipPath id="e140b8bb89"><path d="M 23.246094 0.480469 L 1074.117188 0.480469 C 1086.527344 0.480469 1096.585938 10.539062 1096.585938 22.949219 L 1096.585938 182.082031 C 1096.585938 194.488281 1086.527344 204.546875 1074.117188 204.546875 L 23.246094 204.546875 C 10.835938 204.546875 0.777344 194.488281 0.777344 182.082031 L 0.777344 22.949219 C 0.777344 10.539062 10.835938 0.480469 23.246094 0.480469 Z M 23.246094 0.480469 " clip-rule="nonzero"/></clipPath><clipPath id="797797c0d4"><rect x="0" width="1097" y="0" height="205"/></clipPath><clipPath id="c05f7b4fc8"><rect x="0" width="1036" y="0" height="79"/></clipPath></defs><g clip-path="url(#11b7c57b6f)"><g clip-path="url(#074acdcba9)"><g transform="matrix(1, 0, 0, 1, 0.000000000000000222, 147)"><g clip-path="url(#797797c0d4)"><g clip-path="url(#54a0bcd310)"><g clip-path="url(#e140b8bb89)"><path fill="#e6e6e6" d="M 0.777344 0.480469 L 1096.84375 0.480469 L 1096.84375 204.546875 L 0.777344 204.546875 Z M 0.777344 0.480469 " fill-opacity="1" fill-rule="nonzero"/></g></g></g></g></g></g><g transform="matrix(1, 0, 0, 1, 31, 209)"><g clip-path="url(#c05f7b4fc8)"><g fill="#61888d" fill-opacity="1"><g transform="translate(1.123376, 26.20482)"><g><path d="M 12.78125 -19.453125 C 13.988281 -19.453125 14.84375 -19.195312 15.34375 -18.6875 C 15.851562 -18.175781 16.109375 -17.304688 16.109375 -16.078125 L 16.109375 0 L 11.09375 0 L 11.09375 -14.359375 C 11.09375 -14.796875 11.015625 -15.109375 10.859375 -15.296875 C 10.710938 -15.492188 10.429688 -15.59375 10.015625 -15.59375 L 9.140625 -15.59375 C 8.410156 -15.59375 7.90625 -15.363281 7.625 -14.90625 C 7.34375 -14.457031 7.332031 -13.507812 7.59375 -12.0625 L 8.75 -5.25 C 9.070312 -3.476562 8.972656 -2.160156 8.453125 -1.296875 C 7.941406 -0.429688 6.894531 0 5.3125 0 L 1 0 L 1 -3.984375 L 2.921875 -3.984375 C 3.222656 -3.984375 3.453125 -4.066406 3.609375 -4.234375 C 3.773438 -4.410156 3.828125 -4.738281 3.765625 -5.21875 L 2.6875 -11.40625 C 2.46875 -12.625 2.4375 -13.539062 2.59375 -14.15625 C 2.75 -14.769531 2.941406 -15.207031 3.171875 -15.46875 L 1.0625 -15.46875 L 1.0625 -19.453125 Z M 12.78125 -19.453125 "/></g></g></g><g fill="#61888d" fill-opacity="1"><g transform="translate(19.052087, 26.20482)"><g><path d="M 0.578125 0 L 0.578125 -3.984375 L 5.578125 -3.984375 C 5.960938 -3.984375 6.222656 -4.046875 6.359375 -4.171875 C 6.503906 -4.304688 6.578125 -4.554688 6.578125 -4.921875 L 6.578125 -14.5 C 6.578125 -14.882812 6.503906 -15.140625 6.359375 -15.265625 C 6.222656 -15.398438 5.960938 -15.46875 5.578125 -15.46875 L 0.9375 -15.46875 L 0.9375 -19.453125 L 8.53125 -19.453125 C 9.65625 -19.453125 10.445312 -19.21875 10.90625 -18.75 C 11.375 -18.289062 11.609375 -17.5 11.609375 -16.375 L 11.609375 -3.046875 C 11.609375 -1.941406 11.375 -1.15625 10.90625 -0.6875 C 10.445312 -0.226562 9.65625 0 8.53125 0 Z M 0.578125 0 "/></g></g></g><g fill="#61888d" fill-opacity="1"><g transform="translate(32.279789, 26.20482)"><g><path d="M 14.65625 -19.453125 L 19.515625 -19.453125 L 18.578125 -6.90625 C 18.398438 -4.414062 17.753906 -2.640625 16.640625 -1.578125 C 15.535156 -0.523438 13.789062 0 11.40625 0 L 4.921875 0 C 4.078125 0 3.46875 -0.210938 3.09375 -0.640625 C 2.71875 -1.078125 2.472656 -1.6875 2.359375 -2.46875 L 1.8125 -6.609375 C 1.644531 -7.671875 1.9375 -8.484375 2.6875 -9.046875 L 1.109375 -19.453125 L 6 -19.453125 L 7.328125 -10.671875 L 7.359375 -10.671875 C 7.660156 -10.773438 7.847656 -10.890625 7.921875 -11.015625 C 8.003906 -11.148438 8.046875 -11.390625 8.046875 -11.734375 L 8.046875 -19.453125 L 12.875 -19.453125 L 12.875 -10.765625 C 12.875 -9.816406 12.722656 -9.128906 12.421875 -8.703125 C 12.117188 -8.285156 11.628906 -7.957031 10.953125 -7.71875 L 7.453125 -6.515625 C 7.085938 -6.367188 6.863281 -6.234375 6.78125 -6.109375 C 6.707031 -5.992188 6.695312 -5.765625 6.75 -5.421875 L 6.875 -4.578125 C 6.914062 -4.296875 7.015625 -4.113281 7.171875 -4.03125 C 7.335938 -3.957031 7.582031 -3.921875 7.90625 -3.921875 L 10.078125 -3.921875 C 10.984375 -3.921875 11.691406 -4 12.203125 -4.15625 C 12.710938 -4.320312 13.082031 -4.640625 13.3125 -5.109375 C 13.539062 -5.585938 13.6875 -6.285156 13.75 -7.203125 Z M 14.65625 -19.453125 "/></g></g></g><g fill="#61888d" fill-opacity="1"><g transform="translate(52.931854, 26.20482)"><g><path d="M 2.890625 0 L 2.890625 -14.75 C 2.890625 -15.050781 2.835938 -15.242188 2.734375 -15.328125 C 2.640625 -15.421875 2.441406 -15.46875 2.140625 -15.46875 L 0.96875 -15.46875 L 0.96875 -19.453125 L 5.734375 -19.453125 C 6.535156 -19.453125 7.097656 -19.289062 7.421875 -18.96875 C 7.742188 -18.644531 7.90625 -18.09375 7.90625 -17.3125 L 7.90625 0 Z M 2.890625 0 "/></g></g></g><g fill="#61888d" fill-opacity="1"><g transform="translate(62.625686, 26.20482)"><g><path d="M 15.59375 -2.75 C 15.632812 -1.800781 15.429688 -1.101562 14.984375 -0.65625 C 14.546875 -0.21875 13.820312 0 12.8125 0 L 8.046875 0 L 8.046875 -3.984375 L 9.65625 -3.984375 C 10.007812 -3.984375 10.226562 -4.050781 10.3125 -4.1875 C 10.394531 -4.332031 10.425781 -4.566406 10.40625 -4.890625 L 9.921875 -13.875 C 9.898438 -14.5 9.816406 -14.941406 9.671875 -15.203125 C 9.535156 -15.460938 9.285156 -15.59375 8.921875 -15.59375 L 8.78125 -15.59375 C 8.5 -15.59375 8.300781 -15.507812 8.1875 -15.34375 C 8.070312 -15.1875 7.976562 -14.859375 7.90625 -14.359375 L 6 0 L 0.875 0 L 2.6875 -12.484375 C 2.882812 -13.847656 3.265625 -14.84375 3.828125 -15.46875 L 1.421875 -15.46875 L 1.421875 -19.453125 L 10.671875 -19.453125 C 11.898438 -19.453125 12.890625 -19.113281 13.640625 -18.4375 C 14.398438 -17.769531 14.820312 -16.507812 14.90625 -14.65625 Z M 15.59375 -2.75 "/></g></g></g><g fill="#61888d" fill-opacity="1"><g transform="translate(79.257558, 26.20482)"><g><path d="M 15.59375 -2.75 C 15.632812 -1.800781 15.429688 -1.101562 14.984375 -0.65625 C 14.546875 -0.21875 13.820312 0 12.8125 0 L 8.046875 0 L 8.046875 -3.984375 L 9.65625 -3.984375 C 10.007812 -3.984375 10.226562 -4.050781 10.3125 -4.1875 C 10.394531 -4.332031 10.425781 -4.566406 10.40625 -4.890625 L 9.921875 -13.875 C 9.898438 -14.5 9.816406 -14.941406 9.671875 -15.203125 C 9.535156 -15.460938 9.285156 -15.59375 8.921875 -15.59375 L 8.78125 -15.59375 C 8.5 -15.59375 8.300781 -15.507812 8.1875 -15.34375 C 8.070312 -15.1875 7.976562 -14.859375 7.90625 -14.359375 L 6 0 L 0.875 0 L 2.6875 -12.484375 C 2.882812 -13.847656 3.265625 -14.84375 3.828125 -15.46875 L 1.421875 -15.46875 L 1.421875 -19.453125 L 10.671875 -19.453125 C 11.898438 -19.453125 12.890625 -19.113281 13.640625 -18.4375 C 14.398438 -17.769531 14.820312 -16.507812 14.90625 -14.65625 Z M 15.59375 -2.75 "/></g></g></g><g fill="#61888d" fill-opacity="1"><g transform="translate(96.019116, 26.20482)"><g/></g></g><g fill="#61888d" fill-opacity="1"><g transform="translate(102.665386, 26.20482)"><g><path d="M 10.1875 0 L 10.1875 -14.5 C 10.1875 -14.882812 10.113281 -15.140625 9.96875 -15.265625 C 9.832031 -15.398438 9.566406 -15.46875 9.171875 -15.46875 L 1.6875 -15.46875 L 1.6875 -19.453125 L 12.25 -19.453125 C 13.332031 -19.453125 14.09375 -19.195312 14.53125 -18.6875 C 14.976562 -18.175781 15.203125 -17.304688 15.203125 -16.078125 L 15.203125 0 Z M 3.34375 0 C 2.238281 0 1.6875 -0.5625 1.6875 -1.6875 L 1.6875 -12.125 L 6.71875 -12.125 L 6.71875 -4.609375 C 6.71875 -4.191406 6.878906 -3.984375 7.203125 -3.984375 L 7.625 -3.984375 L 7.625 0 Z M 3.34375 0 "/></g></g></g><g fill="#61888d" fill-opacity="1"><g transform="translate(119.524206, 26.20482)"><g><path d="M 2.859375 -8.234375 L 2.859375 -14.75 C 2.859375 -15.050781 2.804688 -15.242188 2.703125 -15.328125 C 2.609375 -15.421875 2.410156 -15.46875 2.109375 -15.46875 L 0.875 -15.46875 L 0.875 -19.453125 L 5.3125 -19.453125 C 6.25 -19.453125 6.90625 -19.257812 7.28125 -18.875 C 7.65625 -18.5 7.84375 -17.847656 7.84375 -16.921875 L 7.84375 -8.234375 Z M 2.859375 -8.234375 "/></g></g></g><g fill="#61888d" fill-opacity="1"><g transform="translate(128.861403, 26.20482)"><g><path d="M 2.859375 -8.234375 L 2.859375 -14.75 C 2.859375 -15.050781 2.804688 -15.242188 2.703125 -15.328125 C 2.609375 -15.421875 2.410156 -15.46875 2.109375 -15.46875 L 0.875 -15.46875 L 0.875 -19.453125 L 5.3125 -19.453125 C 6.25 -19.453125 6.90625 -19.257812 7.28125 -18.875 C 7.65625 -18.5 7.84375 -17.847656 7.84375 -16.921875 L 7.84375 -8.234375 Z M 2.859375 -8.234375 "/></g></g></g><g fill="#61888d" fill-opacity="1"><g transform="translate(138.295861, 26.20482)"><g><path d="M 10.1875 0 L 10.1875 -14.5 C 10.1875 -14.882812 10.113281 -15.140625 9.96875 -15.265625 C 9.832031 -15.398438 9.566406 -15.46875 9.171875 -15.46875 L 1.6875 -15.46875 L 1.6875 -19.453125 L 12.25 -19.453125 C 13.332031 -19.453125 14.09375 -19.195312 14.53125 -18.6875 C 14.976562 -18.175781 15.203125 -17.304688 15.203125 -16.078125 L 15.203125 0 Z M 3.34375 0 C 2.238281 0 1.6875 -0.5625 1.6875 -1.6875 L 1.6875 -12.125 L 6.71875 -12.125 L 6.71875 -4.609375 C 6.71875 -4.191406 6.878906 -3.984375 7.203125 -3.984375 L 7.625 -3.984375 L 7.625 0 Z M 3.34375 0 "/></g></g></g><g fill="#61888d" fill-opacity="1"><g transform="translate(155.12227, 26.20482)"><g><path d="M 14.65625 -19.453125 L 19.515625 -19.453125 L 18.578125 -6.90625 C 18.398438 -4.414062 17.753906 -2.640625 16.640625 -1.578125 C 15.535156 -0.523438 13.789062 0 11.40625 0 L 4.921875 0 C 4.078125 0 3.46875 -0.210938 3.09375 -0.640625 C 2.71875 -1.078125 2.472656 -1.6875 2.359375 -2.46875 L 1.8125 -6.609375 C 1.644531 -7.671875 1.9375 -8.484375 2.6875 -9.046875 L 1.109375 -19.453125 L 6 -19.453125 L 7.328125 -10.671875 L 7.359375 -10.671875 C 7.660156 -10.773438 7.847656 -10.890625 7.921875 -11.015625 C 8.003906 -11.148438 8.046875 -11.390625 8.046875 -11.734375 L 8.046875 -19.453125 L 12.875 -19.453125 L 12.875 -10.765625 C 12.875 -9.816406 12.722656 -9.128906 12.421875 -8.703125 C 12.117188 -8.285156 11.628906 -7.957031 10.953125 -7.71875 L 7.453125 -6.515625 C 7.085938 -6.367188 6.863281 -6.234375 6.78125 -6.109375 C 6.707031 -5.992188 6.695312 -5.765625 6.75 -5.421875 L 6.875 -4.578125 C 6.914062 -4.296875 7.015625 -4.113281 7.171875 -4.03125 C 7.335938 -3.957031 7.582031 -3.921875 7.90625 -3.921875 L 10.078125 -3.921875 C 10.984375 -3.921875 11.691406 -4 12.203125 -4.15625 C 12.710938 -4.320312 13.082031 -4.640625 13.3125 -5.109375 C 13.539062 -5.585938 13.6875 -6.285156 13.75 -7.203125 Z M 14.65625 -19.453125 "/></g></g></g><g fill="#61888d" fill-opacity="1"><g transform="translate(175.774335, 26.20482)"><g/></g></g><g fill="#61888d" fill-opacity="1"><g transform="translate(182.420604, 26.20482)"><g><path d="M 18.125 -19.453125 L 18.125 -15.46875 L 16.28125 -15.46875 C 16.507812 -15.050781 16.625 -14.269531 16.625 -13.125 L 16.625 0 L 11.609375 0 L 11.609375 -14 C 11.609375 -14.632812 11.554688 -15.035156 11.453125 -15.203125 C 11.359375 -15.378906 11.160156 -15.46875 10.859375 -15.46875 L 8.390625 -15.46875 C 8.109375 -15.46875 7.921875 -15.378906 7.828125 -15.203125 C 7.734375 -15.035156 7.6875 -14.632812 7.6875 -14 L 7.6875 0 L 2.65625 0 L 2.65625 -13.125 C 2.65625 -14.269531 2.773438 -15.050781 3.015625 -15.46875 L 1.171875 -15.46875 L 1.171875 -19.453125 Z M 18.125 -19.453125 "/></g></g></g><g fill="#61888d" fill-opacity="1"><g transform="translate(201.710992, 26.20482)"><g><path d="M 2.859375 -8.234375 L 2.859375 -14.75 C 2.859375 -15.050781 2.804688 -15.242188 2.703125 -15.328125 C 2.609375 -15.421875 2.410156 -15.46875 2.109375 -15.46875 L 0.875 -15.46875 L 0.875 -19.453125 L 5.3125 -19.453125 C 6.25 -19.453125 6.90625 -19.257812 7.28125 -18.875 C 7.65625 -18.5 7.84375 -17.847656 7.84375 -16.921875 L 7.84375 -8.234375 Z M 2.859375 -8.234375 "/></g></g></g><g fill="#61888d" fill-opacity="1"><g transform="translate(211.145451, 26.20482)"><g><path d="M 9.40625 -0.1875 C 8.6875 0.0390625 7.96875 0.195312 7.25 0.28125 C 6.539062 0.375 5.882812 0.34375 5.28125 0.1875 C 4.675781 0.0390625 4.171875 -0.253906 3.765625 -0.703125 C 3.367188 -1.160156 3.140625 -1.820312 3.078125 -2.6875 L 2.234375 -14.75 C 2.210938 -15.050781 2.171875 -15.242188 2.109375 -15.328125 C 2.046875 -15.421875 1.875 -15.46875 1.59375 -15.46875 L 0.71875 -15.46875 L 0.71875 -19.453125 L 4.859375 -19.453125 C 5.578125 -19.453125 6.09375 -19.296875 6.40625 -18.984375 C 6.71875 -18.671875 6.894531 -18.164062 6.9375 -17.46875 L 7.75 -5.125 C 7.789062 -4.6875 7.941406 -4.414062 8.203125 -4.3125 C 8.460938 -4.207031 8.785156 -4.21875 9.171875 -4.34375 L 10.828125 -4.890625 C 11.390625 -5.085938 11.710938 -5.476562 11.796875 -6.0625 C 11.890625 -6.644531 12 -7.398438 12.125 -8.328125 L 12.9375 -14.75 C 12.976562 -15.113281 12.9375 -15.378906 12.8125 -15.546875 C 12.695312 -15.710938 12.53125 -15.804688 12.3125 -15.828125 C 12.007812 -15.867188 11.800781 -15.804688 11.6875 -15.640625 C 11.570312 -15.484375 11.503906 -15.238281 11.484375 -14.90625 L 11.21875 -11.4375 L 8.140625 -11.515625 L 8.296875 -16.140625 C 8.335938 -17.328125 8.738281 -18.234375 9.5 -18.859375 C 10.257812 -19.492188 11.363281 -19.8125 12.8125 -19.8125 C 13.71875 -19.8125 14.554688 -19.640625 15.328125 -19.296875 C 16.109375 -18.960938 16.71875 -18.453125 17.15625 -17.765625 C 17.601562 -17.078125 17.765625 -16.171875 17.640625 -15.046875 L 16.59375 -5.796875 C 16.488281 -4.679688 16.164062 -3.769531 15.625 -3.0625 C 15.082031 -2.363281 14.21875 -1.804688 13.03125 -1.390625 Z M 9.40625 -0.1875 "/></g></g></g><g fill="#61888d" fill-opacity="1"><g transform="translate(229.787419, 26.20482)"><g><path d="M 12.421875 -3.984375 L 13.390625 -3.984375 L 13.390625 0 L 0.578125 0 L 0.578125 -3.984375 L 6.90625 -3.984375 C 6.84375 -4.117188 6.785156 -4.273438 6.734375 -4.453125 C 6.691406 -4.640625 6.671875 -4.84375 6.671875 -5.0625 L 6.671875 -14.5 C 6.671875 -14.882812 6.609375 -15.140625 6.484375 -15.265625 C 6.359375 -15.398438 6.097656 -15.46875 5.703125 -15.46875 L 0.9375 -15.46875 L 0.9375 -19.453125 L 8.59375 -19.453125 C 9.738281 -19.453125 10.539062 -19.195312 11 -18.6875 C 11.46875 -18.175781 11.703125 -17.304688 11.703125 -16.078125 L 11.703125 -4.796875 C 11.703125 -4.253906 11.941406 -3.984375 12.421875 -3.984375 Z M 12.421875 -3.984375 "/></g></g></g><g fill="#61888d" fill-opacity="1"><g transform="translate(243.469018, 26.20482)"><g><path d="M 10.1875 0 L 10.1875 -14.5 C 10.1875 -14.882812 10.113281 -15.140625 9.96875 -15.265625 C 9.832031 -15.398438 9.566406 -15.46875 9.171875 -15.46875 L 1.6875 -15.46875 L 1.6875 -19.453125 L 12.25 -19.453125 C 13.332031 -19.453125 14.09375 -19.195312 14.53125 -18.6875 C 14.976562 -18.175781 15.203125 -17.304688 15.203125 -16.078125 L 15.203125 0 Z M 3.34375 0 C 2.238281 0 1.6875 -0.5625 1.6875 -1.6875 L 1.6875 -12.125 L 6.71875 -12.125 L 6.71875 -4.609375 C 6.71875 -4.191406 6.878906 -3.984375 7.203125 -3.984375 L 7.625 -3.984375 L 7.625 0 Z M 3.34375 0 "/></g></g></g><g fill="#61888d" fill-opacity="1"><g transform="translate(260.295426, 26.20482)"><g><path d="M 5.1875 0 C 3.9375 0 3.09375 -0.390625 2.65625 -1.171875 C 2.226562 -1.960938 2.25 -3.097656 2.71875 -4.578125 L 5.90625 -14.421875 C 6.113281 -15.117188 5.875 -15.46875 5.1875 -15.46875 L 1.390625 -15.46875 C 1.046875 -15.46875 0.800781 -15.535156 0.65625 -15.671875 C 0.519531 -15.816406 0.453125 -16.070312 0.453125 -16.4375 L 0.453125 -22.046875 L 5.1875 -22.046875 L 5.1875 -19.453125 L 8.65625 -19.453125 C 9.882812 -19.453125 10.742188 -19.046875 11.234375 -18.234375 C 11.722656 -17.421875 11.75 -16.347656 11.3125 -15.015625 L 7.875 -4.828125 C 7.789062 -4.585938 7.773438 -4.382812 7.828125 -4.21875 C 7.878906 -4.0625 8.046875 -3.984375 8.328125 -3.984375 L 9.765625 -3.984375 L 9.765625 0 Z M 5.1875 0 "/></g></g></g><g fill="#61888d" fill-opacity="1"><g transform="translate(272.809845, 26.20482)"><g/></g></g><g fill="#61888d" fill-opacity="1"><g transform="translate(279.456114, 26.20482)"><g><path d="M 12.78125 -19.453125 C 13.988281 -19.453125 14.84375 -19.195312 15.34375 -18.6875 C 15.851562 -18.175781 16.109375 -17.304688 16.109375 -16.078125 L 16.109375 0 L 11.09375 0 L 11.09375 -14.359375 C 11.09375 -14.796875 11.015625 -15.109375 10.859375 -15.296875 C 10.710938 -15.492188 10.429688 -15.59375 10.015625 -15.59375 L 9.140625 -15.59375 C 8.410156 -15.59375 7.90625 -15.363281 7.625 -14.90625 C 7.34375 -14.457031 7.332031 -13.507812 7.59375 -12.0625 L 8.75 -5.25 C 9.070312 -3.476562 8.972656 -2.160156 8.453125 -1.296875 C 7.941406 -0.429688 6.894531 0 5.3125 0 L 1 0 L 1 -3.984375 L 2.921875 -3.984375 C 3.222656 -3.984375 3.453125 -4.066406 3.609375 -4.234375 C 3.773438 -4.410156 3.828125 -4.738281 3.765625 -5.21875 L 2.6875 -11.40625 C 2.46875 -12.625 2.4375 -13.539062 2.59375 -14.15625 C 2.75 -14.769531 2.941406 -15.207031 3.171875 -15.46875 L 1.0625 -15.46875 L 1.0625 -19.453125 Z M 12.78125 -19.453125 "/></g></g></g><g fill="#61888d" fill-opacity="1"><g transform="translate(297.222742, 26.20482)"><g><path d="M 0.453125 -19.453125 L 12.390625 -19.453125 L 12.390625 -15.46875 L 11.734375 -15.46875 C 11.066406 -15.46875 10.734375 -15.023438 10.734375 -14.140625 L 10.734375 0 L 6 0 L 6 -13.390625 C 6 -14.296875 6.140625 -14.988281 6.421875 -15.46875 L 0.453125 -15.46875 Z M 0.453125 -19.453125 "/></g></g></g><g fill="#61888d" fill-opacity="1"><g transform="translate(310.482828, 26.20482)"><g><path d="M 9.953125 -19.453125 L 14.984375 -19.453125 L 14.984375 -9.765625 C 14.984375 -8.335938 14.816406 -7.160156 14.484375 -6.234375 C 14.160156 -5.316406 13.691406 -4.5625 13.078125 -3.96875 C 12.460938 -3.375 11.71875 -2.863281 10.84375 -2.4375 C 9.96875 -2.019531 8.988281 -1.597656 7.90625 -1.171875 L 2.171875 1.109375 L 0.78125 -2.6875 L 4.078125 -3.953125 C 3.265625 -4.734375 2.789062 -5.78125 2.65625 -7.09375 L 1.328125 -19.453125 L 6.359375 -19.453125 L 7.8125 -6.515625 C 7.851562 -6.128906 7.9375 -5.875 8.0625 -5.75 C 8.195312 -5.632812 8.375 -5.609375 8.59375 -5.671875 L 8.75 -5.734375 C 9.125 -5.910156 9.414062 -6.160156 9.625 -6.484375 C 9.84375 -6.804688 9.953125 -7.289062 9.953125 -7.9375 Z M 9.953125 -19.453125 "/></g></g></g><g fill="#61888d" fill-opacity="1"><g transform="translate(327.049864, 26.20482)"><g><path d="M 2.890625 0 L 2.890625 -14.75 C 2.890625 -15.050781 2.835938 -15.242188 2.734375 -15.328125 C 2.640625 -15.421875 2.441406 -15.46875 2.140625 -15.46875 L 0.96875 -15.46875 L 0.96875 -19.453125 L 5.734375 -19.453125 C 6.535156 -19.453125 7.097656 -19.289062 7.421875 -18.96875 C 7.742188 -18.644531 7.90625 -18.09375 7.90625 -17.3125 L 7.90625 0 Z M 2.890625 0 "/></g></g></g><g fill="#61888d" fill-opacity="1"><g transform="translate(336.74371, 26.20482)"><g><path d="M 2.859375 -8.234375 L 2.859375 -14.75 C 2.859375 -15.050781 2.804688 -15.242188 2.703125 -15.328125 C 2.609375 -15.421875 2.410156 -15.46875 2.109375 -15.46875 L 0.875 -15.46875 L 0.875 -19.453125 L 5.3125 -19.453125 C 6.25 -19.453125 6.90625 -19.257812 7.28125 -18.875 C 7.65625 -18.5 7.84375 -17.847656 7.84375 -16.921875 L 7.84375 -8.234375 Z M 2.859375 -8.234375 "/></g></g></g><g fill="#61888d" fill-opacity="1"><g transform="translate(345.789108, 26.20482)"><g><path d="M 15.59375 -2.75 C 15.632812 -1.800781 15.429688 -1.101562 14.984375 -0.65625 C 14.546875 -0.21875 13.820312 0 12.8125 0 L 8.046875 0 L 8.046875 -3.984375 L 9.65625 -3.984375 C 10.007812 -3.984375 10.226562 -4.050781 10.3125 -4.1875 C 10.394531 -4.332031 10.425781 -4.566406 10.40625 -4.890625 L 9.921875 -13.875 C 9.898438 -14.5 9.816406 -14.941406 9.671875 -15.203125 C 9.535156 -15.460938 9.285156 -15.59375 8.921875 -15.59375 L 8.78125 -15.59375 C 8.5 -15.59375 8.300781 -15.507812 8.1875 -15.34375 C 8.070312 -15.1875 7.976562 -14.859375 7.90625 -14.359375 L 6 0 L 0.875 0 L 2.6875 -12.484375 C 2.882812 -13.847656 3.265625 -14.84375 3.828125 -15.46875 L 1.421875 -15.46875 L 1.421875 -19.453125 L 10.671875 -19.453125 C 11.898438 -19.453125 12.890625 -19.113281 13.640625 -18.4375 C 14.398438 -17.769531 14.820312 -16.507812 14.90625 -14.65625 Z M 15.59375 -2.75 "/></g></g></g><g fill="#61888d" fill-opacity="1"><g transform="translate(362.550694, 26.20482)"><g><path d="M 10.1875 0 L 10.1875 -14.5 C 10.1875 -14.882812 10.113281 -15.140625 9.96875 -15.265625 C 9.832031 -15.398438 9.566406 -15.46875 9.171875 -15.46875 L 1.6875 -15.46875 L 1.6875 -19.453125 L 12.25 -19.453125 C 13.332031 -19.453125 14.09375 -19.195312 14.53125 -18.6875 C 14.976562 -18.175781 15.203125 -17.304688 15.203125 -16.078125 L 15.203125 0 Z M 3.34375 0 C 2.238281 0 1.6875 -0.5625 1.6875 -1.6875 L 1.6875 -12.125 L 6.71875 -12.125 L 6.71875 -4.609375 C 6.71875 -4.191406 6.878906 -3.984375 7.203125 -3.984375 L 7.625 -3.984375 L 7.625 0 Z M 3.34375 0 "/></g></g></g><g fill="#61888d" fill-opacity="1"><g transform="translate(379.539201, 26.20482)"><g/></g></g><g fill="#61888d" fill-opacity="1"><g transform="translate(386.185471, 26.20482)"><g><path d="M 12.78125 -19.453125 C 13.988281 -19.453125 14.84375 -19.195312 15.34375 -18.6875 C 15.851562 -18.175781 16.109375 -17.304688 16.109375 -16.078125 L 16.109375 0 L 11.09375 0 L 11.09375 -14.359375 C 11.09375 -14.796875 11.015625 -15.109375 10.859375 -15.296875 C 10.710938 -15.492188 10.429688 -15.59375 10.015625 -15.59375 L 9.140625 -15.59375 C 8.410156 -15.59375 7.90625 -15.363281 7.625 -14.90625 C 7.34375 -14.457031 7.332031 -13.507812 7.59375 -12.0625 L 8.75 -5.25 C 9.070312 -3.476562 8.972656 -2.160156 8.453125 -1.296875 C 7.941406 -0.429688 6.894531 0 5.3125 0 L 1 0 L 1 -3.984375 L 2.921875 -3.984375 C 3.222656 -3.984375 3.453125 -4.066406 3.609375 -4.234375 C 3.773438 -4.410156 3.828125 -4.738281 3.765625 -5.21875 L 2.6875 -11.40625 C 2.46875 -12.625 2.4375 -13.539062 2.59375 -14.15625 C 2.75 -14.769531 2.941406 -15.207031 3.171875 -15.46875 L 1.0625 -15.46875 L 1.0625 -19.453125 Z M 12.78125 -19.453125 "/></g></g></g><g fill="#61888d" fill-opacity="1"><g transform="translate(403.984496, 26.20482)"><g><path d="M 2.859375 -8.234375 L 2.859375 -14.75 C 2.859375 -15.050781 2.804688 -15.242188 2.703125 -15.328125 C 2.609375 -15.421875 2.410156 -15.46875 2.109375 -15.46875 L 0.875 -15.46875 L 0.875 -19.453125 L 5.3125 -19.453125 C 6.25 -19.453125 6.90625 -19.257812 7.28125 -18.875 C 7.65625 -18.5 7.84375 -17.847656 7.84375 -16.921875 L 7.84375 -8.234375 Z M 2.859375 -8.234375 "/></g></g></g><g fill="#61888d" fill-opacity="1"><g transform="translate(413.516216, 26.20482)"><g><path d="M 0.453125 -19.453125 L 12.390625 -19.453125 L 12.390625 -15.46875 L 11.734375 -15.46875 C 11.066406 -15.46875 10.734375 -15.023438 10.734375 -14.140625 L 10.734375 0 L 6 0 L 6 -13.390625 C 6 -14.296875 6.140625 -14.988281 6.421875 -15.46875 L 0.453125 -15.46875 Z M 0.453125 -19.453125 "/></g></g></g><g fill="#61888d" fill-opacity="1"><g transform="translate(427.035675, 26.20482)"><g><path d="M 2.890625 0 L 2.890625 -14.75 C 2.890625 -15.050781 2.835938 -15.242188 2.734375 -15.328125 C 2.640625 -15.421875 2.441406 -15.46875 2.140625 -15.46875 L 0.96875 -15.46875 L 0.96875 -19.453125 L 5.734375 -19.453125 C 6.535156 -19.453125 7.097656 -19.289062 7.421875 -18.96875 C 7.742188 -18.644531 7.90625 -18.09375 7.90625 -17.3125 L 7.90625 0 Z M 2.890625 0 "/></g></g></g><g fill="#61888d" fill-opacity="1"><g transform="translate(436.729521, 26.20482)"><g><path d="M 18.125 -19.453125 L 18.125 -15.46875 L 16.28125 -15.46875 C 16.507812 -15.050781 16.625 -14.269531 16.625 -13.125 L 16.625 0 L 11.609375 0 L 11.609375 -14 C 11.609375 -14.632812 11.554688 -15.035156 11.453125 -15.203125 C 11.359375 -15.378906 11.160156 -15.46875 10.859375 -15.46875 L 8.390625 -15.46875 C 8.109375 -15.46875 7.921875 -15.378906 7.828125 -15.203125 C 7.734375 -15.035156 7.6875 -14.632812 7.6875 -14 L 7.6875 0 L 2.65625 0 L 2.65625 -13.125 C 2.65625 -14.269531 2.773438 -15.050781 3.015625 -15.46875 L 1.171875 -15.46875 L 1.171875 -19.453125 Z M 18.125 -19.453125 "/></g></g></g><g fill="#61888d" fill-opacity="1"><g transform="translate(456.019882, 26.20482)"><g><path d="M 2.859375 -8.234375 L 2.859375 -14.75 C 2.859375 -15.050781 2.804688 -15.242188 2.703125 -15.328125 C 2.609375 -15.421875 2.410156 -15.46875 2.109375 -15.46875 L 0.875 -15.46875 L 0.875 -19.453125 L 5.3125 -19.453125 C 6.25 -19.453125 6.90625 -19.257812 7.28125 -18.875 C 7.65625 -18.5 7.84375 -17.847656 7.84375 -16.921875 L 7.84375 -8.234375 Z M 2.859375 -8.234375 "/></g></g></g><g fill="#61888d" fill-opacity="1"><g transform="translate(465.357051, 26.20482)"><g><path d="M 2.859375 -8.234375 L 2.859375 -14.75 C 2.859375 -15.050781 2.804688 -15.242188 2.703125 -15.328125 C 2.609375 -15.421875 2.410156 -15.46875 2.109375 -15.46875 L 0.875 -15.46875 L 0.875 -19.453125 L 5.3125 -19.453125 C 6.25 -19.453125 6.90625 -19.257812 7.28125 -18.875 C 7.65625 -18.5 7.84375 -17.847656 7.84375 -16.921875 L 7.84375 -8.234375 Z M 2.859375 -8.234375 "/></g></g></g><g fill="#61888d" fill-opacity="1"><g transform="translate(474.791551, 26.20482)"><g/></g></g><g fill="#61888d" fill-opacity="1"><g transform="translate(481.43782, 26.20482)"><g><path d="M 12.78125 -19.453125 C 13.988281 -19.453125 14.84375 -19.195312 15.34375 -18.6875 C 15.851562 -18.175781 16.109375 -17.304688 16.109375 -16.078125 L 16.109375 0 L 11.09375 0 L 11.09375 -14.359375 C 11.09375 -14.796875 11.015625 -15.109375 10.859375 -15.296875 C 10.710938 -15.492188 10.429688 -15.59375 10.015625 -15.59375 L 9.140625 -15.59375 C 8.410156 -15.59375 7.90625 -15.363281 7.625 -14.90625 C 7.34375 -14.457031 7.332031 -13.507812 7.59375 -12.0625 L 8.75 -5.25 C 9.070312 -3.476562 8.972656 -2.160156 8.453125 -1.296875 C 7.941406 -0.429688 6.894531 0 5.3125 0 L 1 0 L 1 -3.984375 L 2.921875 -3.984375 C 3.222656 -3.984375 3.453125 -4.066406 3.609375 -4.234375 C 3.773438 -4.410156 3.828125 -4.738281 3.765625 -5.21875 L 2.6875 -11.40625 C 2.46875 -12.625 2.4375 -13.539062 2.59375 -14.15625 C 2.75 -14.769531 2.941406 -15.207031 3.171875 -15.46875 L 1.0625 -15.46875 L 1.0625 -19.453125 Z M 12.78125 -19.453125 "/></g></g></g><g fill="#61888d" fill-opacity="1"><g transform="translate(499.366546, 26.20482)"><g><path d="M 0.578125 0 L 0.578125 -3.984375 L 5.578125 -3.984375 C 5.960938 -3.984375 6.222656 -4.046875 6.359375 -4.171875 C 6.503906 -4.304688 6.578125 -4.554688 6.578125 -4.921875 L 6.578125 -14.5 C 6.578125 -14.882812 6.503906 -15.140625 6.359375 -15.265625 C 6.222656 -15.398438 5.960938 -15.46875 5.578125 -15.46875 L 0.9375 -15.46875 L 0.9375 -19.453125 L 8.53125 -19.453125 C 9.65625 -19.453125 10.445312 -19.21875 10.90625 -18.75 C 11.375 -18.289062 11.609375 -17.5 11.609375 -16.375 L 11.609375 -3.046875 C 11.609375 -1.941406 11.375 -1.15625 10.90625 -0.6875 C 10.445312 -0.226562 9.65625 0 8.53125 0 Z M 0.578125 0 "/></g></g></g><g fill="#61888d" fill-opacity="1"><g transform="translate(512.302463, 26.20482)"><g><path d="M 6.1875 0 L 6.1875 -14.296875 C 6.1875 -15.078125 5.800781 -15.46875 5.03125 -15.46875 L 0.453125 -15.46875 L 0.453125 -19.453125 L 7.9375 -19.453125 C 9.15625 -19.453125 10.003906 -19.203125 10.484375 -18.703125 C 10.972656 -18.210938 11.21875 -17.367188 11.21875 -16.171875 L 11.21875 0 Z M 6.1875 0 "/></g></g></g><g fill="#61888d" fill-opacity="1"><g transform="translate(525.303176, 26.20482)"><g><path d="M 9.953125 -19.453125 L 14.984375 -19.453125 L 14.984375 -9.765625 C 14.984375 -8.335938 14.816406 -7.160156 14.484375 -6.234375 C 14.160156 -5.316406 13.691406 -4.5625 13.078125 -3.96875 C 12.460938 -3.375 11.71875 -2.863281 10.84375 -2.4375 C 9.96875 -2.019531 8.988281 -1.597656 7.90625 -1.171875 L 2.171875 1.109375 L 0.78125 -2.6875 L 4.078125 -3.953125 C 3.265625 -4.734375 2.789062 -5.78125 2.65625 -7.09375 L 1.328125 -19.453125 L 6.359375 -19.453125 L 7.8125 -6.515625 C 7.851562 -6.128906 7.9375 -5.875 8.0625 -5.75 C 8.195312 -5.632812 8.375 -5.609375 8.59375 -5.671875 L 8.75 -5.734375 C 9.125 -5.910156 9.414062 -6.160156 9.625 -6.484375 C 9.84375 -6.804688 9.953125 -7.289062 9.953125 -7.9375 Z M 9.953125 -19.453125 "/></g></g></g><g fill="#61888d" fill-opacity="1"><g transform="translate(541.675661, 26.20482)"><g><path d="M 15.59375 -2.75 C 15.632812 -1.800781 15.429688 -1.101562 14.984375 -0.65625 C 14.546875 -0.21875 13.820312 0 12.8125 0 L 8.046875 0 L 8.046875 -3.984375 L 9.65625 -3.984375 C 10.007812 -3.984375 10.226562 -4.050781 10.3125 -4.1875 C 10.394531 -4.332031 10.425781 -4.566406 10.40625 -4.890625 L 9.921875 -13.875 C 9.898438 -14.5 9.816406 -14.941406 9.671875 -15.203125 C 9.535156 -15.460938 9.285156 -15.59375 8.921875 -15.59375 L 8.78125 -15.59375 C 8.5 -15.59375 8.300781 -15.507812 8.1875 -15.34375 C 8.070312 -15.1875 7.976562 -14.859375 7.90625 -14.359375 L 6 0 L 0.875 0 L 2.6875 -12.484375 C 2.882812 -13.847656 3.265625 -14.84375 3.828125 -15.46875 L 1.421875 -15.46875 L 1.421875 -19.453125 L 10.671875 -19.453125 C 11.898438 -19.453125 12.890625 -19.113281 13.640625 -18.4375 C 14.398438 -17.769531 14.820312 -16.507812 14.90625 -14.65625 Z M 15.59375 -2.75 "/></g></g></g><g fill="#61888d" fill-opacity="1"><g transform="translate(558.437247, 26.20482)"><g/></g></g><g fill="#61888d" fill-opacity="1"><g transform="translate(565.083517, 26.20482)"><g><path d="M 0.9375 2.828125 L 1.84375 -5.96875 L 6.71875 -5.96875 L 4.640625 2.828125 Z M 0.9375 2.828125 "/></g></g></g><g fill="#61888d" fill-opacity="1"><g transform="translate(571.859486, 26.20482)"><g><path d="M 2.890625 4.953125 L 2.890625 -14.75 C 2.890625 -15.050781 2.835938 -15.242188 2.734375 -15.328125 C 2.640625 -15.421875 2.441406 -15.46875 2.140625 -15.46875 L 0.96875 -15.46875 L 0.96875 -19.453125 L 5.734375 -19.453125 C 6.535156 -19.453125 7.097656 -19.289062 7.421875 -18.96875 C 7.742188 -18.644531 7.90625 -18.09375 7.90625 -17.3125 L 7.90625 4.953125 Z M 2.890625 4.953125 "/></g></g></g><g fill="#61888d" fill-opacity="1"><g transform="translate(581.553332, 26.20482)"><g><path d="M 2.890625 0 L 2.890625 -14.75 C 2.890625 -15.050781 2.835938 -15.242188 2.734375 -15.328125 C 2.640625 -15.421875 2.441406 -15.46875 2.140625 -15.46875 L 0.96875 -15.46875 L 0.96875 -19.453125 L 5.734375 -19.453125 C 6.535156 -19.453125 7.097656 -19.289062 7.421875 -18.96875 C 7.742188 -18.644531 7.90625 -18.09375 7.90625 -17.3125 L 7.90625 0 Z M 2.890625 0 "/></g></g></g><g fill="#61888d" fill-opacity="1"><g transform="translate(591.247177, 26.20482)"><g><path d="M 0.09375 0 L 0.09375 -3.984375 L 2.78125 -3.984375 C 3.238281 -3.984375 3.539062 -4.054688 3.6875 -4.203125 C 3.84375 -4.359375 3.921875 -4.675781 3.921875 -5.15625 L 3.921875 -14.5 C 3.921875 -14.882812 3.851562 -15.140625 3.71875 -15.265625 C 3.59375 -15.398438 3.347656 -15.46875 2.984375 -15.46875 L 1.84375 -15.46875 L 1.84375 -19.453125 L 5.96875 -19.453125 C 7.050781 -19.453125 7.816406 -19.207031 8.265625 -18.71875 C 8.722656 -18.238281 8.953125 -17.425781 8.953125 -16.28125 L 8.953125 -3.234375 C 8.953125 -2.046875 8.71875 -1.207031 8.25 -0.71875 C 7.78125 -0.238281 7 0 5.90625 0 Z M 0.09375 0 "/></g></g></g><g fill="#61888d" fill-opacity="1"><g transform="translate(601.58936, 26.20482)"><g><path d="M 2.859375 -8.234375 L 2.859375 -14.75 C 2.859375 -15.050781 2.804688 -15.242188 2.703125 -15.328125 C 2.609375 -15.421875 2.410156 -15.46875 2.109375 -15.46875 L 0.875 -15.46875 L 0.875 -19.453125 L 5.3125 -19.453125 C 6.25 -19.453125 6.90625 -19.257812 7.28125 -18.875 C 7.65625 -18.5 7.84375 -17.847656 7.84375 -16.921875 L 7.84375 -8.234375 Z M 2.859375 -8.234375 "/></g></g></g><g fill="#61888d" fill-opacity="1"><g transform="translate(611.02386, 26.20482)"><g><path d="M 12.9375 -19.453125 C 14.082031 -19.453125 14.976562 -19.296875 15.625 -18.984375 C 16.269531 -18.671875 16.71875 -18.113281 16.96875 -17.3125 C 17.21875 -16.507812 17.289062 -15.375 17.1875 -13.90625 L 16.59375 -5.1875 C 16.550781 -4.445312 16.4375 -3.773438 16.25 -3.171875 C 16.070312 -2.566406 15.75 -2.050781 15.28125 -1.625 C 14.820312 -1.207031 14.140625 -0.925781 13.234375 -0.78125 L 7.359375 0.1875 C 6.015625 0.425781 5.082031 0.335938 4.5625 -0.078125 C 4.050781 -0.503906 3.75 -1.222656 3.65625 -2.234375 L 2.828125 -13.265625 C 2.773438 -13.753906 2.804688 -14.1875 2.921875 -14.5625 C 3.046875 -14.945312 3.21875 -15.269531 3.4375 -15.53125 C 2.832031 -15.613281 2.242188 -15.8125 1.671875 -16.125 C 1.097656 -16.4375 0.628906 -16.910156 0.265625 -17.546875 L 2.890625 -20.5625 C 3.191406 -20.082031 3.5 -19.773438 3.8125 -19.640625 C 4.125 -19.515625 4.53125 -19.453125 5.03125 -19.453125 Z M 12.359375 -12.546875 C 12.398438 -13.410156 12.398438 -14.0625 12.359375 -14.5 C 12.328125 -14.945312 12.195312 -15.242188 11.96875 -15.390625 C 11.75 -15.546875 11.359375 -15.613281 10.796875 -15.59375 L 8.265625 -15.53125 C 7.742188 -15.394531 7.519531 -14.960938 7.59375 -14.234375 L 8.328125 -5.03125 C 8.367188 -4.613281 8.484375 -4.335938 8.671875 -4.203125 C 8.859375 -4.078125 9.125 -4.035156 9.46875 -4.078125 L 10.890625 -4.375 C 11.285156 -4.4375 11.5625 -4.597656 11.71875 -4.859375 C 11.882812 -5.117188 11.976562 -5.53125 12 -6.09375 Z M 12.359375 -12.546875 "/></g></g></g><g fill="#61888d" fill-opacity="1"><g transform="translate(629.601032, 26.20482)"><g><path d="M 10.1875 0 L 10.1875 -14.5 C 10.1875 -14.882812 10.113281 -15.140625 9.96875 -15.265625 C 9.832031 -15.398438 9.566406 -15.46875 9.171875 -15.46875 L 1.6875 -15.46875 L 1.6875 -19.453125 L 12.25 -19.453125 C 13.332031 -19.453125 14.09375 -19.195312 14.53125 -18.6875 C 14.976562 -18.175781 15.203125 -17.304688 15.203125 -16.078125 L 15.203125 0 Z M 3.34375 0 C 2.238281 0 1.6875 -0.5625 1.6875 -1.6875 L 1.6875 -12.125 L 6.71875 -12.125 L 6.71875 -4.609375 C 6.71875 -4.191406 6.878906 -3.984375 7.203125 -3.984375 L 7.625 -3.984375 L 7.625 0 Z M 3.34375 0 "/></g></g></g><g fill="#61888d" fill-opacity="1"><g transform="translate(646.589485, 26.20482)"><g><path d="M 2.890625 0 L 2.890625 -14.75 C 2.890625 -15.050781 2.835938 -15.242188 2.734375 -15.328125 C 2.640625 -15.421875 2.441406 -15.46875 2.140625 -15.46875 L 0.96875 -15.46875 L 0.96875 -19.453125 L 5.734375 -19.453125 C 6.535156 -19.453125 7.097656 -19.289062 7.421875 -18.96875 C 7.742188 -18.644531 7.90625 -18.09375 7.90625 -17.3125 L 7.90625 0 Z M 2.890625 0 "/></g></g></g><g fill="#61888d" fill-opacity="1"><g transform="translate(656.28333, 26.20482)"><g/></g></g><g fill="#61888d" fill-opacity="1"><g transform="translate(662.929599, 26.20482)"><g><path d="M 6.1875 0 L 6.1875 -14.296875 C 6.1875 -15.078125 5.800781 -15.46875 5.03125 -15.46875 L 0.453125 -15.46875 L 0.453125 -19.453125 L 7.9375 -19.453125 C 9.15625 -19.453125 10.003906 -19.203125 10.484375 -18.703125 C 10.972656 -18.210938 11.21875 -17.367188 11.21875 -16.171875 L 11.21875 0 Z M 6.1875 0 "/></g></g></g><g fill="#61888d" fill-opacity="1"><g transform="translate(675.930367, 26.20482)"><g><path d="M 2.890625 0 L 2.890625 -14.75 C 2.890625 -15.050781 2.835938 -15.242188 2.734375 -15.328125 C 2.640625 -15.421875 2.441406 -15.46875 2.140625 -15.46875 L 0.96875 -15.46875 L 0.96875 -19.453125 L 5.734375 -19.453125 C 6.535156 -19.453125 7.097656 -19.289062 7.421875 -18.96875 C 7.742188 -18.644531 7.90625 -18.09375 7.90625 -17.3125 L 7.90625 0 Z M 2.890625 0 "/></g></g></g><g fill="#61888d" fill-opacity="1"><g transform="translate(685.494457, 26.20482)"><g><path d="M 6.1875 0 L 6.1875 -14.296875 C 6.1875 -15.078125 5.800781 -15.46875 5.03125 -15.46875 L 0.453125 -15.46875 L 0.453125 -19.453125 L 7.9375 -19.453125 C 9.15625 -19.453125 10.003906 -19.203125 10.484375 -18.703125 C 10.972656 -18.210938 11.21875 -17.367188 11.21875 -16.171875 L 11.21875 0 Z M 6.1875 0 "/></g></g></g><g fill="#61888d" fill-opacity="1"><g transform="translate(698.495279, 26.20482)"><g><path d="M 2.890625 0 L 2.890625 -14.75 C 2.890625 -15.050781 2.835938 -15.242188 2.734375 -15.328125 C 2.640625 -15.421875 2.441406 -15.46875 2.140625 -15.46875 L 0.96875 -15.46875 L 0.96875 -19.453125 L 5.734375 -19.453125 C 6.535156 -19.453125 7.097656 -19.289062 7.421875 -18.96875 C 7.742188 -18.644531 7.90625 -18.09375 7.90625 -17.3125 L 7.90625 0 Z M 2.890625 0 "/></g></g></g><g fill="#61888d" fill-opacity="1"><g transform="translate(708.18907, 26.20482)"><g><path d="M 2.890625 0 L 2.890625 -14.75 C 2.890625 -15.050781 2.835938 -15.242188 2.734375 -15.328125 C 2.640625 -15.421875 2.441406 -15.46875 2.140625 -15.46875 L 0.96875 -15.46875 L 0.96875 -19.453125 L 5.734375 -19.453125 C 6.535156 -19.453125 7.097656 -19.289062 7.421875 -18.96875 C 7.742188 -18.644531 7.90625 -18.09375 7.90625 -17.3125 L 7.90625 0 Z M 2.890625 0 "/></g></g></g><g fill="#61888d" fill-opacity="1"><g transform="translate(717.78564, 26.20482)"><g><path d="M 6.484375 -10.1875 C 6.203125 -10.070312 6.039062 -9.914062 6 -9.71875 C 5.957031 -9.53125 5.988281 -9.21875 6.09375 -8.78125 L 7.546875 -4.078125 C 7.921875 -2.910156 8 -1.9375 7.78125 -1.15625 C 7.5625 -0.382812 6.898438 0 5.796875 0 L 1.109375 0 L 1.109375 -3.984375 L 2.140625 -3.984375 C 2.421875 -3.984375 2.539062 -4.101562 2.5 -4.34375 L 1.65625 -8.390625 C 1.4375 -9.410156 1.414062 -10.242188 1.59375 -10.890625 C 1.78125 -11.535156 2.09375 -12.070312 2.53125 -12.5 C 2.976562 -12.9375 3.460938 -13.296875 3.984375 -13.578125 L 4.46875 -13.84375 L 1.140625 -19.453125 L 6.25 -19.453125 L 10.796875 -11.28125 C 10.972656 -11.382812 11.09375 -11.519531 11.15625 -11.6875 C 11.21875 -11.851562 11.25 -12.117188 11.25 -12.484375 L 11.25 -19.453125 L 16.046875 -19.453125 L 16.046875 -12.09375 C 16.046875 -11.101562 15.84375 -10.265625 15.4375 -9.578125 C 15.039062 -8.898438 14.347656 -8.257812 13.359375 -7.65625 L 12.90625 -7.359375 L 16.703125 0 L 11.640625 0 L 6.515625 -10.1875 Z M 6.484375 -10.1875 "/></g></g></g><g fill="#61888d" fill-opacity="1"><g transform="translate(735.163249, 26.20482)"><g><path d="M 10.1875 0 L 10.1875 -14.5 C 10.1875 -14.882812 10.113281 -15.140625 9.96875 -15.265625 C 9.832031 -15.398438 9.566406 -15.46875 9.171875 -15.46875 L 1.6875 -15.46875 L 1.6875 -19.453125 L 12.25 -19.453125 C 13.332031 -19.453125 14.09375 -19.195312 14.53125 -18.6875 C 14.976562 -18.175781 15.203125 -17.304688 15.203125 -16.078125 L 15.203125 0 Z M 3.34375 0 C 2.238281 0 1.6875 -0.5625 1.6875 -1.6875 L 1.6875 -12.125 L 6.71875 -12.125 L 6.71875 -4.609375 C 6.71875 -4.191406 6.878906 -3.984375 7.203125 -3.984375 L 7.625 -3.984375 L 7.625 0 Z M 3.34375 0 "/></g></g></g><g fill="#61888d" fill-opacity="1"><g transform="translate(752.152139, 26.20482)"><g/></g></g><g fill="#61888d" fill-opacity="1"><g transform="translate(758.798409, 26.20482)"><g><path d="M 12.78125 -19.453125 C 13.988281 -19.453125 14.84375 -19.195312 15.34375 -18.6875 C 15.851562 -18.175781 16.109375 -17.304688 16.109375 -16.078125 L 16.109375 0 L 11.09375 0 L 11.09375 -14.359375 C 11.09375 -14.796875 11.015625 -15.109375 10.859375 -15.296875 C 10.710938 -15.492188 10.429688 -15.59375 10.015625 -15.59375 L 9.140625 -15.59375 C 8.410156 -15.59375 7.90625 -15.363281 7.625 -14.90625 C 7.34375 -14.457031 7.332031 -13.507812 7.59375 -12.0625 L 8.75 -5.25 C 9.070312 -3.476562 8.972656 -2.160156 8.453125 -1.296875 C 7.941406 -0.429688 6.894531 0 5.3125 0 L 1 0 L 1 -3.984375 L 2.921875 -3.984375 C 3.222656 -3.984375 3.453125 -4.066406 3.609375 -4.234375 C 3.773438 -4.410156 3.828125 -4.738281 3.765625 -5.21875 L 2.6875 -11.40625 C 2.46875 -12.625 2.4375 -13.539062 2.59375 -14.15625 C 2.75 -14.769531 2.941406 -15.207031 3.171875 -15.46875 L 1.0625 -15.46875 L 1.0625 -19.453125 Z M 12.78125 -19.453125 "/></g></g></g><g fill="#61888d" fill-opacity="1"><g transform="translate(776.72712, 26.20482)"><g><path d="M 0.578125 0 L 0.578125 -3.984375 L 5.578125 -3.984375 C 5.960938 -3.984375 6.222656 -4.046875 6.359375 -4.171875 C 6.503906 -4.304688 6.578125 -4.554688 6.578125 -4.921875 L 6.578125 -14.5 C 6.578125 -14.882812 6.503906 -15.140625 6.359375 -15.265625 C 6.222656 -15.398438 5.960938 -15.46875 5.578125 -15.46875 L 0.9375 -15.46875 L 0.9375 -19.453125 L 8.53125 -19.453125 C 9.65625 -19.453125 10.445312 -19.21875 10.90625 -18.75 C 11.375 -18.289062 11.609375 -17.5 11.609375 -16.375 L 11.609375 -3.046875 C 11.609375 -1.941406 11.375 -1.15625 10.90625 -0.6875 C 10.445312 -0.226562 9.65625 0 8.53125 0 Z M 0.578125 0 "/></g></g></g><g fill="#61888d" fill-opacity="1"><g transform="translate(789.663038, 26.20482)"><g><path d="M 6.1875 0 L 6.1875 -14.296875 C 6.1875 -15.078125 5.800781 -15.46875 5.03125 -15.46875 L 0.453125 -15.46875 L 0.453125 -19.453125 L 7.9375 -19.453125 C 9.15625 -19.453125 10.003906 -19.203125 10.484375 -18.703125 C 10.972656 -18.210938 11.21875 -17.367188 11.21875 -16.171875 L 11.21875 0 Z M 6.1875 0 "/></g></g></g><g fill="#61888d" fill-opacity="1"><g transform="translate(802.663792, 26.20482)"><g><path d="M 9.953125 -19.453125 L 14.984375 -19.453125 L 14.984375 -9.765625 C 14.984375 -8.335938 14.816406 -7.160156 14.484375 -6.234375 C 14.160156 -5.316406 13.691406 -4.5625 13.078125 -3.96875 C 12.460938 -3.375 11.71875 -2.863281 10.84375 -2.4375 C 9.96875 -2.019531 8.988281 -1.597656 7.90625 -1.171875 L 2.171875 1.109375 L 0.78125 -2.6875 L 4.078125 -3.953125 C 3.265625 -4.734375 2.789062 -5.78125 2.65625 -7.09375 L 1.328125 -19.453125 L 6.359375 -19.453125 L 7.8125 -6.515625 C 7.851562 -6.128906 7.9375 -5.875 8.0625 -5.75 C 8.195312 -5.632812 8.375 -5.609375 8.59375 -5.671875 L 8.75 -5.734375 C 9.125 -5.910156 9.414062 -6.160156 9.625 -6.484375 C 9.84375 -6.804688 9.953125 -7.289062 9.953125 -7.9375 Z M 9.953125 -19.453125 "/></g></g></g><g fill="#61888d" fill-opacity="1"><g transform="translate(819.036304, 26.20482)"><g><path d="M 15.59375 -2.75 C 15.632812 -1.800781 15.429688 -1.101562 14.984375 -0.65625 C 14.546875 -0.21875 13.820312 0 12.8125 0 L 8.046875 0 L 8.046875 -3.984375 L 9.65625 -3.984375 C 10.007812 -3.984375 10.226562 -4.050781 10.3125 -4.1875 C 10.394531 -4.332031 10.425781 -4.566406 10.40625 -4.890625 L 9.921875 -13.875 C 9.898438 -14.5 9.816406 -14.941406 9.671875 -15.203125 C 9.535156 -15.460938 9.285156 -15.59375 8.921875 -15.59375 L 8.78125 -15.59375 C 8.5 -15.59375 8.300781 -15.507812 8.1875 -15.34375 C 8.070312 -15.1875 7.976562 -14.859375 7.90625 -14.359375 L 6 0 L 0.875 0 L 2.6875 -12.484375 C 2.882812 -13.847656 3.265625 -14.84375 3.828125 -15.46875 L 1.421875 -15.46875 L 1.421875 -19.453125 L 10.671875 -19.453125 C 11.898438 -19.453125 12.890625 -19.113281 13.640625 -18.4375 C 14.398438 -17.769531 14.820312 -16.507812 14.90625 -14.65625 Z M 15.59375 -2.75 "/></g></g></g><g fill="#61888d" fill-opacity="1"><g transform="translate(835.635765, 26.20482)"><g><path d="M 12.421875 -3.984375 L 13.390625 -3.984375 L 13.390625 0 L 0.578125 0 L 0.578125 -3.984375 L 6.90625 -3.984375 C 6.84375 -4.117188 6.785156 -4.273438 6.734375 -4.453125 C 6.691406 -4.640625 6.671875 -4.84375 6.671875 -5.0625 L 6.671875 -14.5 C 6.671875 -14.882812 6.609375 -15.140625 6.484375 -15.265625 C 6.359375 -15.398438 6.097656 -15.46875 5.703125 -15.46875 L 0.9375 -15.46875 L 0.9375 -19.453125 L 8.59375 -19.453125 C 9.738281 -19.453125 10.539062 -19.195312 11 -18.6875 C 11.46875 -18.175781 11.703125 -17.304688 11.703125 -16.078125 L 11.703125 -4.796875 C 11.703125 -4.253906 11.941406 -3.984375 12.421875 -3.984375 Z M 12.421875 -3.984375 "/></g></g></g><g fill="#61888d" fill-opacity="1"><g transform="translate(849.31735, 26.20482)"><g/></g></g><g fill="#61888d" fill-opacity="1"><g transform="translate(855.96362, 26.20482)"><g><path d="M 15.171875 -19.453125 C 16.117188 -19.453125 16.753906 -19.125 17.078125 -18.46875 C 17.410156 -17.820312 17.46875 -17.023438 17.25 -16.078125 L 13.9375 0 L 8.84375 0 L 11.703125 -14.6875 C 11.765625 -15.050781 11.773438 -15.289062 11.734375 -15.40625 C 11.691406 -15.53125 11.488281 -15.59375 11.125 -15.59375 L 8.5625 -15.59375 C 8.300781 -15.59375 8.09375 -15.5625 7.9375 -15.5 C 7.789062 -15.4375 7.71875 -15.1875 7.71875 -14.75 L 7.71875 0.78125 C 7.71875 1.039062 7.847656 1.171875 8.109375 1.171875 L 8.890625 1.171875 L 8.890625 4.953125 L 4.46875 4.953125 C 3.28125 4.953125 2.6875 4.359375 2.6875 3.171875 L 2.6875 -14.140625 C 2.6875 -14.785156 2.804688 -15.226562 3.046875 -15.46875 L 1.171875 -15.46875 L 1.171875 -19.453125 Z M 15.171875 -19.453125 "/></g></g></g><g fill="#61888d" fill-opacity="1"><g transform="translate(874.605588, 26.20482)"><g><path d="M 2.890625 0 L 2.890625 -14.75 C 2.890625 -15.050781 2.835938 -15.242188 2.734375 -15.328125 C 2.640625 -15.421875 2.441406 -15.46875 2.140625 -15.46875 L 0.96875 -15.46875 L 0.96875 -19.453125 L 5.734375 -19.453125 C 6.535156 -19.453125 7.097656 -19.289062 7.421875 -18.96875 C 7.742188 -18.644531 7.90625 -18.09375 7.90625 -17.3125 L 7.90625 0 Z M 2.890625 0 "/></g></g></g><g fill="#61888d" fill-opacity="1"><g transform="translate(884.137322, 26.20482)"><g><path d="M 12.9375 -19.453125 C 14.082031 -19.453125 14.976562 -19.296875 15.625 -18.984375 C 16.269531 -18.671875 16.71875 -18.113281 16.96875 -17.3125 C 17.21875 -16.507812 17.289062 -15.375 17.1875 -13.90625 L 16.59375 -5.1875 C 16.550781 -4.445312 16.4375 -3.773438 16.25 -3.171875 C 16.070312 -2.566406 15.75 -2.050781 15.28125 -1.625 C 14.820312 -1.207031 14.140625 -0.925781 13.234375 -0.78125 L 7.359375 0.1875 C 6.015625 0.425781 5.082031 0.335938 4.5625 -0.078125 C 4.050781 -0.503906 3.75 -1.222656 3.65625 -2.234375 L 2.828125 -13.265625 C 2.773438 -13.753906 2.804688 -14.1875 2.921875 -14.5625 C 3.046875 -14.945312 3.21875 -15.269531 3.4375 -15.53125 C 2.832031 -15.613281 2.242188 -15.8125 1.671875 -16.125 C 1.097656 -16.4375 0.628906 -16.910156 0.265625 -17.546875 L 2.890625 -20.5625 C 3.191406 -20.082031 3.5 -19.773438 3.8125 -19.640625 C 4.125 -19.515625 4.53125 -19.453125 5.03125 -19.453125 Z M 12.359375 -12.546875 C 12.398438 -13.410156 12.398438 -14.0625 12.359375 -14.5 C 12.328125 -14.945312 12.195312 -15.242188 11.96875 -15.390625 C 11.75 -15.546875 11.359375 -15.613281 10.796875 -15.59375 L 8.265625 -15.53125 C 7.742188 -15.394531 7.519531 -14.960938 7.59375 -14.234375 L 8.328125 -5.03125 C 8.367188 -4.613281 8.484375 -4.335938 8.671875 -4.203125 C 8.859375 -4.078125 9.125 -4.035156 9.46875 -4.078125 L 10.890625 -4.375 C 11.285156 -4.4375 11.5625 -4.597656 11.71875 -4.859375 C 11.882812 -5.117188 11.976562 -5.53125 12 -6.09375 Z M 12.359375 -12.546875 "/></g></g></g><g fill="#61888d" fill-opacity="1"><g transform="translate(902.584767, 26.20482)"><g><path d="M 9.953125 -19.453125 L 14.984375 -19.453125 L 14.984375 -9.765625 C 14.984375 -8.335938 14.816406 -7.160156 14.484375 -6.234375 C 14.160156 -5.316406 13.691406 -4.5625 13.078125 -3.96875 C 12.460938 -3.375 11.71875 -2.863281 10.84375 -2.4375 C 9.96875 -2.019531 8.988281 -1.597656 7.90625 -1.171875 L 2.171875 1.109375 L 0.78125 -2.6875 L 4.078125 -3.953125 C 3.265625 -4.734375 2.789062 -5.78125 2.65625 -7.09375 L 1.328125 -19.453125 L 6.359375 -19.453125 L 7.8125 -6.515625 C 7.851562 -6.128906 7.9375 -5.875 8.0625 -5.75 C 8.195312 -5.632812 8.375 -5.609375 8.59375 -5.671875 L 8.75 -5.734375 C 9.125 -5.910156 9.414062 -6.160156 9.625 -6.484375 C 9.84375 -6.804688 9.953125 -7.289062 9.953125 -7.9375 Z M 9.953125 -19.453125 "/></g></g></g><g fill="#61888d" fill-opacity="1"><g transform="translate(919.151803, 26.20482)"><g><path d="M 0.09375 0 L 0.09375 -3.984375 L 2.78125 -3.984375 C 3.238281 -3.984375 3.539062 -4.054688 3.6875 -4.203125 C 3.84375 -4.359375 3.921875 -4.675781 3.921875 -5.15625 L 3.921875 -14.5 C 3.921875 -14.882812 3.851562 -15.140625 3.71875 -15.265625 C 3.59375 -15.398438 3.347656 -15.46875 2.984375 -15.46875 L 1.84375 -15.46875 L 1.84375 -19.453125 L 5.96875 -19.453125 C 7.050781 -19.453125 7.816406 -19.207031 8.265625 -18.71875 C 8.722656 -18.238281 8.953125 -17.425781 8.953125 -16.28125 L 8.953125 -3.234375 C 8.953125 -2.046875 8.71875 -1.207031 8.25 -0.71875 C 7.78125 -0.238281 7 0 5.90625 0 Z M 0.09375 0 "/></g></g></g><g fill="#61888d" fill-opacity="1"><g transform="translate(929.720989, 26.20482)"><g/></g></g><g fill="#61888d" fill-opacity="1"><g transform="translate(936.367258, 26.20482)"><g><path d="M 10.1875 0 L 10.1875 -14.5 C 10.1875 -14.882812 10.113281 -15.140625 9.96875 -15.265625 C 9.832031 -15.398438 9.566406 -15.46875 9.171875 -15.46875 L 1.6875 -15.46875 L 1.6875 -19.453125 L 12.25 -19.453125 C 13.332031 -19.453125 14.09375 -19.195312 14.53125 -18.6875 C 14.976562 -18.175781 15.203125 -17.304688 15.203125 -16.078125 L 15.203125 0 Z M 3.34375 0 C 2.238281 0 1.6875 -0.5625 1.6875 -1.6875 L 1.6875 -12.125 L 6.71875 -12.125 L 6.71875 -4.609375 C 6.71875 -4.191406 6.878906 -3.984375 7.203125 -3.984375 L 7.625 -3.984375 L 7.625 0 Z M 3.34375 0 "/></g></g></g><g fill="#61888d" fill-opacity="1"><g transform="translate(953.096406, 26.20482)"><g><path d="M 5.0625 -19.453125 L 11.484375 -19.453125 L 11.484375 -15.46875 L 10.34375 -15.46875 C 9.738281 -15.46875 9.3125 -15.296875 9.0625 -14.953125 C 8.8125 -14.617188 8.71875 -14.046875 8.78125 -13.234375 L 9.859375 0 L 4.828125 0 L 3.796875 -12.96875 C 3.703125 -14.09375 3.960938 -14.925781 4.578125 -15.46875 L 4.375 -15.46875 C 3.507812 -15.46875 2.710938 -15.628906 1.984375 -15.953125 C 1.265625 -16.273438 0.691406 -16.804688 0.265625 -17.546875 L 2.890625 -20.5625 C 3.191406 -20.144531 3.484375 -19.851562 3.765625 -19.6875 C 4.046875 -19.53125 4.476562 -19.453125 5.0625 -19.453125 Z M 5.0625 -19.453125 "/></g></g></g><g fill="#61888d" fill-opacity="1"><g transform="translate(965.44874, 26.20482)"><g/></g></g><g fill="#61888d" fill-opacity="1"><g transform="translate(972.095982, 26.20482)"><g><path d="M 15.171875 -19.453125 C 16.117188 -19.453125 16.753906 -19.125 17.078125 -18.46875 C 17.410156 -17.820312 17.46875 -17.023438 17.25 -16.078125 L 13.9375 0 L 8.84375 0 L 11.703125 -14.6875 C 11.765625 -15.050781 11.773438 -15.289062 11.734375 -15.40625 C 11.691406 -15.53125 11.488281 -15.59375 11.125 -15.59375 L 8.5625 -15.59375 C 8.300781 -15.59375 8.09375 -15.5625 7.9375 -15.5 C 7.789062 -15.4375 7.71875 -15.1875 7.71875 -14.75 L 7.71875 0.78125 C 7.71875 1.039062 7.847656 1.171875 8.109375 1.171875 L 8.890625 1.171875 L 8.890625 4.953125 L 4.46875 4.953125 C 3.28125 4.953125 2.6875 4.359375 2.6875 3.171875 L 2.6875 -14.140625 C 2.6875 -14.785156 2.804688 -15.226562 3.046875 -15.46875 L 1.171875 -15.46875 L 1.171875 -19.453125 Z M 15.171875 -19.453125 "/></g></g></g><g fill="#61888d" fill-opacity="1"><g transform="translate(990.575852, 26.20482)"><g><path d="M 6.1875 0 L 6.1875 -14.296875 C 6.1875 -15.078125 5.800781 -15.46875 5.03125 -15.46875 L 0.453125 -15.46875 L 0.453125 -19.453125 L 7.9375 -19.453125 C 9.15625 -19.453125 10.003906 -19.203125 10.484375 -18.703125 C 10.972656 -18.210938 11.21875 -17.367188 11.21875 -16.171875 L 11.21875 0 Z M 6.1875 0 "/></g></g></g><g fill="#61888d" fill-opacity="1"><g transform="translate(1003.576606, 26.20482)"><g><path d="M 1.484375 0 L 1.484375 -3.984375 L 9.109375 -3.984375 C 9.890625 -3.984375 10.28125 -4.363281 10.28125 -5.125 L 10.28125 -14.5625 C 10.28125 -14.96875 10.238281 -15.238281 10.15625 -15.375 C 10.082031 -15.519531 9.820312 -15.59375 9.375 -15.59375 L 7.84375 -15.59375 C 7.414062 -15.59375 7.128906 -15.519531 6.984375 -15.375 C 6.847656 -15.238281 6.757812 -14.96875 6.71875 -14.5625 L 6.359375 -11.703125 C 6.335938 -11.398438 6.367188 -11.1875 6.453125 -11.0625 C 6.535156 -10.945312 6.726562 -10.890625 7.03125 -10.890625 L 8.234375 -10.890625 L 8.234375 -7 L 3.65625 -7 C 2.6875 -7 2 -7.21875 1.59375 -7.65625 C 1.195312 -8.101562 1.054688 -8.804688 1.171875 -9.765625 L 1.984375 -16.671875 C 2.085938 -17.640625 2.378906 -18.34375 2.859375 -18.78125 C 3.347656 -19.226562 4.070312 -19.453125 5.03125 -19.453125 L 12.0625 -19.453125 C 13.25 -19.453125 14.082031 -19.207031 14.5625 -18.71875 C 15.050781 -18.238281 15.296875 -17.390625 15.296875 -16.171875 L 15.296875 -3.234375 C 15.296875 -2.046875 15.050781 -1.207031 14.5625 -0.71875 C 14.082031 -0.238281 13.25 0 12.0625 0 Z M 1.484375 0 "/></g></g></g><g fill="#61888d" fill-opacity="1"><g transform="translate(1020.532702, 26.20482)"><g><path d="M 12.421875 -3.984375 L 13.390625 -3.984375 L 13.390625 0 L 0.578125 0 L 0.578125 -3.984375 L 6.90625 -3.984375 C 6.84375 -4.117188 6.785156 -4.273438 6.734375 -4.453125 C 6.691406 -4.640625 6.671875 -4.84375 6.671875 -5.0625 L 6.671875 -14.5 C 6.671875 -14.882812 6.609375 -15.140625 6.484375 -15.265625 C 6.359375 -15.398438 6.097656 -15.46875 5.703125 -15.46875 L 0.9375 -15.46875 L 0.9375 -19.453125 L 8.59375 -19.453125 C 9.738281 -19.453125 10.539062 -19.195312 11 -18.6875 C 11.46875 -18.175781 11.703125 -17.304688 11.703125 -16.078125 L 11.703125 -4.796875 C 11.703125 -4.253906 11.941406 -3.984375 12.421875 -3.984375 Z M 12.421875 -3.984375 "/></g></g></g><g fill="#61888d" fill-opacity="1"><g transform="translate(216.735135, 70.923054)"><g><path d="M 1.84375 0 L 1.84375 -5.484375 L 7.328125 -5.484375 L 7.328125 0 Z M 1.84375 0 "/></g></g></g><g fill="#61888d" fill-opacity="1"><g transform="translate(225.910234, 70.923054)"><g><path d="M 12.78125 -19.453125 C 13.988281 -19.453125 14.84375 -19.195312 15.34375 -18.6875 C 15.851562 -18.175781 16.109375 -17.304688 16.109375 -16.078125 L 16.109375 0 L 11.09375 0 L 11.09375 -14.359375 C 11.09375 -14.796875 11.015625 -15.109375 10.859375 -15.296875 C 10.710938 -15.492188 10.429688 -15.59375 10.015625 -15.59375 L 9.140625 -15.59375 C 8.410156 -15.59375 7.90625 -15.363281 7.625 -14.90625 C 7.34375 -14.457031 7.332031 -13.507812 7.59375 -12.0625 L 8.75 -5.25 C 9.070312 -3.476562 8.972656 -2.160156 8.453125 -1.296875 C 7.941406 -0.429688 6.894531 0 5.3125 0 L 1 0 L 1 -3.984375 L 2.921875 -3.984375 C 3.222656 -3.984375 3.453125 -4.066406 3.609375 -4.234375 C 3.773438 -4.410156 3.828125 -4.738281 3.765625 -5.21875 L 2.6875 -11.40625 C 2.46875 -12.625 2.4375 -13.539062 2.59375 -14.15625 C 2.75 -14.769531 2.941406 -15.207031 3.171875 -15.46875 L 1.0625 -15.46875 L 1.0625 -19.453125 Z M 12.78125 -19.453125 "/></g></g></g><g fill="#61888d" fill-opacity="1"><g transform="translate(243.838945, 70.923054)"><g><path d="M 2.890625 0 L 2.890625 -14.75 C 2.890625 -15.050781 2.835938 -15.242188 2.734375 -15.328125 C 2.640625 -15.421875 2.441406 -15.46875 2.140625 -15.46875 L 0.96875 -15.46875 L 0.96875 -19.453125 L 5.734375 -19.453125 C 6.535156 -19.453125 7.097656 -19.289062 7.421875 -18.96875 C 7.742188 -18.644531 7.90625 -18.09375 7.90625 -17.3125 L 7.90625 0 Z M 2.890625 0 "/></g></g></g><g fill="#61888d" fill-opacity="1"><g transform="translate(253.532777, 70.923054)"><g><path d="M 2.859375 -8.234375 L 2.859375 -14.75 C 2.859375 -15.050781 2.804688 -15.242188 2.703125 -15.328125 C 2.609375 -15.421875 2.410156 -15.46875 2.109375 -15.46875 L 0.875 -15.46875 L 0.875 -19.453125 L 5.3125 -19.453125 C 6.25 -19.453125 6.90625 -19.257812 7.28125 -18.875 C 7.65625 -18.5 7.84375 -17.847656 7.84375 -16.921875 L 7.84375 -8.234375 Z M 2.859375 -8.234375 "/></g></g></g><g fill="#61888d" fill-opacity="1"><g transform="translate(262.091881, 70.923054)"><g><path d="M 12.21875 0 L 7.6875 0 L 5.765625 -6.8125 C 5.578125 -6.71875 5.445312 -6.617188 5.375 -6.515625 C 5.3125 -6.410156 5.269531 -6.269531 5.25 -6.09375 L 4.796875 0 L 0.03125 0 L 0.9375 -7.421875 C 1.019531 -8.117188 1.203125 -8.648438 1.484375 -9.015625 C 1.765625 -9.378906 2.195312 -9.679688 2.78125 -9.921875 L 4.828125 -10.765625 C 5.171875 -10.910156 5.429688 -11.109375 5.609375 -11.359375 C 5.785156 -11.609375 5.875 -11.972656 5.875 -12.453125 L 5.875 -14.59375 C 5.875 -14.957031 5.816406 -15.191406 5.703125 -15.296875 C 5.597656 -15.410156 5.363281 -15.46875 5 -15.46875 L 2.65625 -15.46875 L 2.65625 -19.453125 L 7.84375 -19.453125 C 8.789062 -19.453125 9.488281 -19.207031 9.9375 -18.71875 C 10.382812 -18.238281 10.609375 -17.457031 10.609375 -16.375 L 10.609375 -10.28125 C 10.609375 -9.78125 10.539062 -9.378906 10.40625 -9.078125 C 10.28125 -8.773438 10.097656 -8.535156 9.859375 -8.359375 Z M 12.21875 0 "/></g></g></g><g fill="#61888d" fill-opacity="1"><g transform="translate(274.346953, 70.923054)"><g><path d="M 2.890625 0 L 2.890625 -14.75 C 2.890625 -15.050781 2.835938 -15.242188 2.734375 -15.328125 C 2.640625 -15.421875 2.441406 -15.46875 2.140625 -15.46875 L 0.96875 -15.46875 L 0.96875 -19.453125 L 5.734375 -19.453125 C 6.535156 -19.453125 7.097656 -19.289062 7.421875 -18.96875 C 7.742188 -18.644531 7.90625 -18.09375 7.90625 -17.3125 L 7.90625 0 Z M 2.890625 0 "/></g></g></g><g fill="#61888d" fill-opacity="1"><g transform="translate(283.911098, 70.923054)"><g><path d="M 5.1875 0 C 3.9375 0 3.09375 -0.390625 2.65625 -1.171875 C 2.226562 -1.960938 2.25 -3.097656 2.71875 -4.578125 L 5.90625 -14.421875 C 6.113281 -15.117188 5.875 -15.46875 5.1875 -15.46875 L 1.390625 -15.46875 C 1.046875 -15.46875 0.800781 -15.535156 0.65625 -15.671875 C 0.519531 -15.816406 0.453125 -16.070312 0.453125 -16.4375 L 0.453125 -22.046875 L 5.1875 -22.046875 L 5.1875 -19.453125 L 8.65625 -19.453125 C 9.882812 -19.453125 10.742188 -19.046875 11.234375 -18.234375 C 11.722656 -17.421875 11.75 -16.347656 11.3125 -15.015625 L 7.875 -4.828125 C 7.789062 -4.585938 7.773438 -4.382812 7.828125 -4.21875 C 7.878906 -4.0625 8.046875 -3.984375 8.328125 -3.984375 L 9.765625 -3.984375 L 9.765625 0 Z M 5.1875 0 "/></g></g></g><g fill="#61888d" fill-opacity="1"><g transform="translate(296.782152, 70.923054)"><g><path d="M 2.890625 0 L 2.890625 -14.75 C 2.890625 -15.050781 2.835938 -15.242188 2.734375 -15.328125 C 2.640625 -15.421875 2.441406 -15.46875 2.140625 -15.46875 L 0.96875 -15.46875 L 0.96875 -19.453125 L 5.734375 -19.453125 C 6.535156 -19.453125 7.097656 -19.289062 7.421875 -18.96875 C 7.742188 -18.644531 7.90625 -18.09375 7.90625 -17.3125 L 7.90625 0 Z M 2.890625 0 "/></g></g></g><g fill="#61888d" fill-opacity="1"><g transform="translate(306.475984, 70.923054)"><g><path d="M 2.859375 -8.234375 L 2.859375 -14.75 C 2.859375 -15.050781 2.804688 -15.242188 2.703125 -15.328125 C 2.609375 -15.421875 2.410156 -15.46875 2.109375 -15.46875 L 0.875 -15.46875 L 0.875 -19.453125 L 5.3125 -19.453125 C 6.25 -19.453125 6.90625 -19.257812 7.28125 -18.875 C 7.65625 -18.5 7.84375 -17.847656 7.84375 -16.921875 L 7.84375 -8.234375 Z M 2.859375 -8.234375 "/></g></g></g><g fill="#61888d" fill-opacity="1"><g transform="translate(315.910442, 70.923054)"><g><path d="M 12.421875 -3.984375 L 13.390625 -3.984375 L 13.390625 0 L 0.578125 0 L 0.578125 -3.984375 L 6.90625 -3.984375 C 6.84375 -4.117188 6.785156 -4.273438 6.734375 -4.453125 C 6.691406 -4.640625 6.671875 -4.84375 6.671875 -5.0625 L 6.671875 -14.5 C 6.671875 -14.882812 6.609375 -15.140625 6.484375 -15.265625 C 6.359375 -15.398438 6.097656 -15.46875 5.703125 -15.46875 L 0.9375 -15.46875 L 0.9375 -19.453125 L 8.59375 -19.453125 C 9.738281 -19.453125 10.539062 -19.195312 11 -18.6875 C 11.46875 -18.175781 11.703125 -17.304688 11.703125 -16.078125 L 11.703125 -4.796875 C 11.703125 -4.253906 11.941406 -3.984375 12.421875 -3.984375 Z M 12.421875 -3.984375 "/></g></g></g><g fill="#61888d" fill-opacity="1"><g transform="translate(329.592027, 70.923054)"><g/></g></g><g fill="#61888d" fill-opacity="1"><g transform="translate(336.238296, 70.923054)"><g><path d="M 2.890625 0 L 2.890625 -14.75 C 2.890625 -15.050781 2.835938 -15.242188 2.734375 -15.328125 C 2.640625 -15.421875 2.441406 -15.46875 2.140625 -15.46875 L 0.96875 -15.46875 L 0.96875 -19.453125 L 5.734375 -19.453125 C 6.535156 -19.453125 7.097656 -19.289062 7.421875 -18.96875 C 7.742188 -18.644531 7.90625 -18.09375 7.90625 -17.3125 L 7.90625 0 Z M 2.890625 0 "/></g></g></g><g fill="#61888d" fill-opacity="1"><g transform="translate(345.834867, 70.923054)"><g><path d="M 6.484375 -10.1875 C 6.203125 -10.070312 6.039062 -9.914062 6 -9.71875 C 5.957031 -9.53125 5.988281 -9.21875 6.09375 -8.78125 L 7.546875 -4.078125 C 7.921875 -2.910156 8 -1.9375 7.78125 -1.15625 C 7.5625 -0.382812 6.898438 0 5.796875 0 L 1.109375 0 L 1.109375 -3.984375 L 2.140625 -3.984375 C 2.421875 -3.984375 2.539062 -4.101562 2.5 -4.34375 L 1.65625 -8.390625 C 1.4375 -9.410156 1.414062 -10.242188 1.59375 -10.890625 C 1.78125 -11.535156 2.09375 -12.070312 2.53125 -12.5 C 2.976562 -12.9375 3.460938 -13.296875 3.984375 -13.578125 L 4.46875 -13.84375 L 1.140625 -19.453125 L 6.25 -19.453125 L 10.796875 -11.28125 C 10.972656 -11.382812 11.09375 -11.519531 11.15625 -11.6875 C 11.21875 -11.851562 11.25 -12.117188 11.25 -12.484375 L 11.25 -19.453125 L 16.046875 -19.453125 L 16.046875 -12.09375 C 16.046875 -11.101562 15.84375 -10.265625 15.4375 -9.578125 C 15.039062 -8.898438 14.347656 -8.257812 13.359375 -7.65625 L 12.90625 -7.359375 L 16.703125 0 L 11.640625 0 L 6.515625 -10.1875 Z M 6.484375 -10.1875 "/></g></g></g><g fill="#61888d" fill-opacity="1"><g transform="translate(363.212434, 70.923054)"><g/></g></g><g fill="#61888d" fill-opacity="1"><g transform="translate(369.858703, 70.923054)"><g><path d="M 12.78125 -19.453125 C 13.988281 -19.453125 14.84375 -19.195312 15.34375 -18.6875 C 15.851562 -18.175781 16.109375 -17.304688 16.109375 -16.078125 L 16.109375 0 L 11.09375 0 L 11.09375 -14.359375 C 11.09375 -14.796875 11.015625 -15.109375 10.859375 -15.296875 C 10.710938 -15.492188 10.429688 -15.59375 10.015625 -15.59375 L 9.140625 -15.59375 C 8.410156 -15.59375 7.90625 -15.363281 7.625 -14.90625 C 7.34375 -14.457031 7.332031 -13.507812 7.59375 -12.0625 L 8.75 -5.25 C 9.070312 -3.476562 8.972656 -2.160156 8.453125 -1.296875 C 7.941406 -0.429688 6.894531 0 5.3125 0 L 1 0 L 1 -3.984375 L 2.921875 -3.984375 C 3.222656 -3.984375 3.453125 -4.066406 3.609375 -4.234375 C 3.773438 -4.410156 3.828125 -4.738281 3.765625 -5.21875 L 2.6875 -11.40625 C 2.46875 -12.625 2.4375 -13.539062 2.59375 -14.15625 C 2.75 -14.769531 2.941406 -15.207031 3.171875 -15.46875 L 1.0625 -15.46875 L 1.0625 -19.453125 Z M 12.78125 -19.453125 "/></g></g></g><g fill="#61888d" fill-opacity="1"><g transform="translate(387.787415, 70.923054)"><g><path d="M 2.890625 0 L 2.890625 -14.75 C 2.890625 -15.050781 2.835938 -15.242188 2.734375 -15.328125 C 2.640625 -15.421875 2.441406 -15.46875 2.140625 -15.46875 L 0.96875 -15.46875 L 0.96875 -19.453125 L 5.734375 -19.453125 C 6.535156 -19.453125 7.097656 -19.289062 7.421875 -18.96875 C 7.742188 -18.644531 7.90625 -18.09375 7.90625 -17.3125 L 7.90625 0 Z M 2.890625 0 "/></g></g></g><g fill="#61888d" fill-opacity="1"><g transform="translate(397.481247, 70.923054)"><g><path d="M 2.859375 -8.234375 L 2.859375 -14.75 C 2.859375 -15.050781 2.804688 -15.242188 2.703125 -15.328125 C 2.609375 -15.421875 2.410156 -15.46875 2.109375 -15.46875 L 0.875 -15.46875 L 0.875 -19.453125 L 5.3125 -19.453125 C 6.25 -19.453125 6.90625 -19.257812 7.28125 -18.875 C 7.65625 -18.5 7.84375 -17.847656 7.84375 -16.921875 L 7.84375 -8.234375 Z M 2.859375 -8.234375 "/></g></g></g><g fill="#61888d" fill-opacity="1"><g transform="translate(406.526658, 70.923054)"><g><path d="M 15.59375 -2.75 C 15.632812 -1.800781 15.429688 -1.101562 14.984375 -0.65625 C 14.546875 -0.21875 13.820312 0 12.8125 0 L 8.046875 0 L 8.046875 -3.984375 L 9.65625 -3.984375 C 10.007812 -3.984375 10.226562 -4.050781 10.3125 -4.1875 C 10.394531 -4.332031 10.425781 -4.566406 10.40625 -4.890625 L 9.921875 -13.875 C 9.898438 -14.5 9.816406 -14.941406 9.671875 -15.203125 C 9.535156 -15.460938 9.285156 -15.59375 8.921875 -15.59375 L 8.78125 -15.59375 C 8.5 -15.59375 8.300781 -15.507812 8.1875 -15.34375 C 8.070312 -15.1875 7.976562 -14.859375 7.90625 -14.359375 L 6 0 L 0.875 0 L 2.6875 -12.484375 C 2.882812 -13.847656 3.265625 -14.84375 3.828125 -15.46875 L 1.421875 -15.46875 L 1.421875 -19.453125 L 10.671875 -19.453125 C 11.898438 -19.453125 12.890625 -19.113281 13.640625 -18.4375 C 14.398438 -17.769531 14.820312 -16.507812 14.90625 -14.65625 Z M 15.59375 -2.75 "/></g></g></g><g fill="#61888d" fill-opacity="1"><g transform="translate(422.639797, 70.923054)"><g><path d="M 2.859375 -8.234375 L 2.859375 -14.75 C 2.859375 -15.050781 2.804688 -15.242188 2.703125 -15.328125 C 2.609375 -15.421875 2.410156 -15.46875 2.109375 -15.46875 L 0.875 -15.46875 L 0.875 -19.453125 L 5.3125 -19.453125 C 6.25 -19.453125 6.90625 -19.257812 7.28125 -18.875 C 7.65625 -18.5 7.84375 -17.847656 7.84375 -16.921875 L 7.84375 -8.234375 Z M 2.859375 -8.234375 "/></g></g></g><g fill="#61888d" fill-opacity="1"><g transform="translate(432.074255, 70.923054)"><g><path d="M 0.578125 0 L 0.578125 -3.984375 L 5.578125 -3.984375 C 5.960938 -3.984375 6.222656 -4.046875 6.359375 -4.171875 C 6.503906 -4.304688 6.578125 -4.554688 6.578125 -4.921875 L 6.578125 -14.5 C 6.578125 -14.882812 6.503906 -15.140625 6.359375 -15.265625 C 6.222656 -15.398438 5.960938 -15.46875 5.578125 -15.46875 L 0.9375 -15.46875 L 0.9375 -19.453125 L 8.53125 -19.453125 C 9.65625 -19.453125 10.445312 -19.21875 10.90625 -18.75 C 11.375 -18.289062 11.609375 -17.5 11.609375 -16.375 L 11.609375 -3.046875 C 11.609375 -1.941406 11.375 -1.15625 10.90625 -0.6875 C 10.445312 -0.226562 9.65625 0 8.53125 0 Z M 0.578125 0 "/></g></g></g><g fill="#61888d" fill-opacity="1"><g transform="translate(445.301958, 70.923054)"><g/></g></g><g fill="#61888d" fill-opacity="1"><g transform="translate(451.948241, 70.923054)"><g><path d="M 12.78125 -19.453125 C 13.988281 -19.453125 14.84375 -19.195312 15.34375 -18.6875 C 15.851562 -18.175781 16.109375 -17.304688 16.109375 -16.078125 L 16.109375 0 L 11.09375 0 L 11.09375 -14.359375 C 11.09375 -14.796875 11.015625 -15.109375 10.859375 -15.296875 C 10.710938 -15.492188 10.429688 -15.59375 10.015625 -15.59375 L 9.140625 -15.59375 C 8.410156 -15.59375 7.90625 -15.363281 7.625 -14.90625 C 7.34375 -14.457031 7.332031 -13.507812 7.59375 -12.0625 L 8.75 -5.25 C 9.070312 -3.476562 8.972656 -2.160156 8.453125 -1.296875 C 7.941406 -0.429688 6.894531 0 5.3125 0 L 1 0 L 1 -3.984375 L 2.921875 -3.984375 C 3.222656 -3.984375 3.453125 -4.066406 3.609375 -4.234375 C 3.773438 -4.410156 3.828125 -4.738281 3.765625 -5.21875 L 2.6875 -11.40625 C 2.46875 -12.625 2.4375 -13.539062 2.59375 -14.15625 C 2.75 -14.769531 2.941406 -15.207031 3.171875 -15.46875 L 1.0625 -15.46875 L 1.0625 -19.453125 Z M 12.78125 -19.453125 "/></g></g></g><g fill="#61888d" fill-opacity="1"><g transform="translate(469.876939, 70.923054)"><g><path d="M 2.890625 0 L 2.890625 -14.75 C 2.890625 -15.050781 2.835938 -15.242188 2.734375 -15.328125 C 2.640625 -15.421875 2.441406 -15.46875 2.140625 -15.46875 L 0.96875 -15.46875 L 0.96875 -19.453125 L 5.734375 -19.453125 C 6.535156 -19.453125 7.097656 -19.289062 7.421875 -18.96875 C 7.742188 -18.644531 7.90625 -18.09375 7.90625 -17.3125 L 7.90625 0 Z M 2.890625 0 "/></g></g></g><g fill="#61888d" fill-opacity="1"><g transform="translate(479.570757, 70.923054)"><g><path d="M 1.484375 0 L 1.484375 -3.984375 L 9.109375 -3.984375 C 9.890625 -3.984375 10.28125 -4.363281 10.28125 -5.125 L 10.28125 -14.5625 C 10.28125 -14.96875 10.238281 -15.238281 10.15625 -15.375 C 10.082031 -15.519531 9.820312 -15.59375 9.375 -15.59375 L 7.84375 -15.59375 C 7.414062 -15.59375 7.128906 -15.519531 6.984375 -15.375 C 6.847656 -15.238281 6.757812 -14.96875 6.71875 -14.5625 L 6.359375 -11.703125 C 6.335938 -11.398438 6.367188 -11.1875 6.453125 -11.0625 C 6.535156 -10.945312 6.726562 -10.890625 7.03125 -10.890625 L 8.234375 -10.890625 L 8.234375 -7 L 3.65625 -7 C 2.6875 -7 2 -7.21875 1.59375 -7.65625 C 1.195312 -8.101562 1.054688 -8.804688 1.171875 -9.765625 L 1.984375 -16.671875 C 2.085938 -17.640625 2.378906 -18.34375 2.859375 -18.78125 C 3.347656 -19.226562 4.070312 -19.453125 5.03125 -19.453125 L 12.0625 -19.453125 C 13.25 -19.453125 14.082031 -19.207031 14.5625 -18.71875 C 15.050781 -18.238281 15.296875 -17.390625 15.296875 -16.171875 L 15.296875 -3.234375 C 15.296875 -2.046875 15.050781 -1.207031 14.5625 -0.71875 C 14.082031 -0.238281 13.25 0 12.0625 0 Z M 1.484375 0 "/></g></g></g><g fill="#61888d" fill-opacity="1"><g transform="translate(496.526867, 70.923054)"><g><path d="M 15.171875 -19.453125 C 16.117188 -19.453125 16.753906 -19.125 17.078125 -18.46875 C 17.410156 -17.820312 17.46875 -17.023438 17.25 -16.078125 L 13.9375 0 L 8.84375 0 L 11.703125 -14.6875 C 11.765625 -15.050781 11.773438 -15.289062 11.734375 -15.40625 C 11.691406 -15.53125 11.488281 -15.59375 11.125 -15.59375 L 8.5625 -15.59375 C 8.300781 -15.59375 8.09375 -15.5625 7.9375 -15.5 C 7.789062 -15.4375 7.71875 -15.1875 7.71875 -14.75 L 7.71875 0.78125 C 7.71875 1.039062 7.847656 1.171875 8.109375 1.171875 L 8.890625 1.171875 L 8.890625 4.953125 L 4.46875 4.953125 C 3.28125 4.953125 2.6875 4.359375 2.6875 3.171875 L 2.6875 -14.140625 C 2.6875 -14.785156 2.804688 -15.226562 3.046875 -15.46875 L 1.171875 -15.46875 L 1.171875 -19.453125 Z M 15.171875 -19.453125 "/></g></g></g><g fill="#61888d" fill-opacity="1"><g transform="translate(514.812213, 70.923054)"><g><path d="M 12.78125 -19.453125 C 13.988281 -19.453125 14.84375 -19.195312 15.34375 -18.6875 C 15.851562 -18.175781 16.109375 -17.304688 16.109375 -16.078125 L 16.109375 0 L 11.09375 0 L 11.09375 -14.359375 C 11.09375 -14.796875 11.015625 -15.109375 10.859375 -15.296875 C 10.710938 -15.492188 10.429688 -15.59375 10.015625 -15.59375 L 9.140625 -15.59375 C 8.410156 -15.59375 7.90625 -15.363281 7.625 -14.90625 C 7.34375 -14.457031 7.332031 -13.507812 7.59375 -12.0625 L 8.75 -5.25 C 9.070312 -3.476562 8.972656 -2.160156 8.453125 -1.296875 C 7.941406 -0.429688 6.894531 0 5.3125 0 L 1 0 L 1 -3.984375 L 2.921875 -3.984375 C 3.222656 -3.984375 3.453125 -4.066406 3.609375 -4.234375 C 3.773438 -4.410156 3.828125 -4.738281 3.765625 -5.21875 L 2.6875 -11.40625 C 2.46875 -12.625 2.4375 -13.539062 2.59375 -14.15625 C 2.75 -14.769531 2.941406 -15.207031 3.171875 -15.46875 L 1.0625 -15.46875 L 1.0625 -19.453125 Z M 12.78125 -19.453125 "/></g></g></g><g fill="#61888d" fill-opacity="1"><g transform="translate(532.740911, 70.923054)"><g><path d="M 10.1875 0 L 10.1875 -14.5 C 10.1875 -14.882812 10.113281 -15.140625 9.96875 -15.265625 C 9.832031 -15.398438 9.566406 -15.46875 9.171875 -15.46875 L 1.6875 -15.46875 L 1.6875 -19.453125 L 12.25 -19.453125 C 13.332031 -19.453125 14.09375 -19.195312 14.53125 -18.6875 C 14.976562 -18.175781 15.203125 -17.304688 15.203125 -16.078125 L 15.203125 0 Z M 3.34375 0 C 2.238281 0 1.6875 -0.5625 1.6875 -1.6875 L 1.6875 -12.125 L 6.71875 -12.125 L 6.71875 -4.609375 C 6.71875 -4.191406 6.878906 -3.984375 7.203125 -3.984375 L 7.625 -3.984375 L 7.625 0 Z M 3.34375 0 "/></g></g></g><g fill="#61888d" fill-opacity="1"><g transform="translate(549.729418, 70.923054)"><g/></g></g><g fill="#61888d" fill-opacity="1"><g transform="translate(556.375688, 70.923054)"><g><path d="M 2.890625 4.953125 L 2.890625 -14.75 C 2.890625 -15.050781 2.835938 -15.242188 2.734375 -15.328125 C 2.640625 -15.421875 2.441406 -15.46875 2.140625 -15.46875 L 0.96875 -15.46875 L 0.96875 -19.453125 L 5.734375 -19.453125 C 6.535156 -19.453125 7.097656 -19.289062 7.421875 -18.96875 C 7.742188 -18.644531 7.90625 -18.09375 7.90625 -17.3125 L 7.90625 4.953125 Z M 2.890625 4.953125 "/></g></g></g><g fill="#61888d" fill-opacity="1"><g transform="translate(566.069533, 70.923054)"><g><path d="M 15.59375 -2.75 C 15.632812 -1.800781 15.429688 -1.101562 14.984375 -0.65625 C 14.546875 -0.21875 13.820312 0 12.8125 0 L 8.046875 0 L 8.046875 -3.984375 L 9.65625 -3.984375 C 10.007812 -3.984375 10.226562 -4.050781 10.3125 -4.1875 C 10.394531 -4.332031 10.425781 -4.566406 10.40625 -4.890625 L 9.921875 -13.875 C 9.898438 -14.5 9.816406 -14.941406 9.671875 -15.203125 C 9.535156 -15.460938 9.285156 -15.59375 8.921875 -15.59375 L 8.78125 -15.59375 C 8.5 -15.59375 8.300781 -15.507812 8.1875 -15.34375 C 8.070312 -15.1875 7.976562 -14.859375 7.90625 -14.359375 L 6 0 L 0.875 0 L 2.6875 -12.484375 C 2.882812 -13.847656 3.265625 -14.84375 3.828125 -15.46875 L 1.421875 -15.46875 L 1.421875 -19.453125 L 10.671875 -19.453125 C 11.898438 -19.453125 12.890625 -19.113281 13.640625 -18.4375 C 14.398438 -17.769531 14.820312 -16.507812 14.90625 -14.65625 Z M 15.59375 -2.75 "/></g></g></g><g fill="#61888d" fill-opacity="1"><g transform="translate(582.247522, 70.923054)"><g><path d="M 5.0625 -19.453125 L 11.484375 -19.453125 L 11.484375 -15.46875 L 10.34375 -15.46875 C 9.738281 -15.46875 9.3125 -15.296875 9.0625 -14.953125 C 8.8125 -14.617188 8.71875 -14.046875 8.78125 -13.234375 L 9.859375 0 L 4.828125 0 L 3.796875 -12.96875 C 3.703125 -14.09375 3.960938 -14.925781 4.578125 -15.46875 L 4.375 -15.46875 C 3.507812 -15.46875 2.710938 -15.628906 1.984375 -15.953125 C 1.265625 -16.273438 0.691406 -16.804688 0.265625 -17.546875 L 2.890625 -20.5625 C 3.191406 -20.144531 3.484375 -19.851562 3.765625 -19.6875 C 4.046875 -19.53125 4.476562 -19.453125 5.0625 -19.453125 Z M 5.0625 -19.453125 "/></g></g></g><g fill="#61888d" fill-opacity="1"><g transform="translate(594.761941, 70.923054)"><g><path d="M 12.421875 -3.984375 L 13.390625 -3.984375 L 13.390625 0 L 0.578125 0 L 0.578125 -3.984375 L 6.90625 -3.984375 C 6.84375 -4.117188 6.785156 -4.273438 6.734375 -4.453125 C 6.691406 -4.640625 6.671875 -4.84375 6.671875 -5.0625 L 6.671875 -14.5 C 6.671875 -14.882812 6.609375 -15.140625 6.484375 -15.265625 C 6.359375 -15.398438 6.097656 -15.46875 5.703125 -15.46875 L 0.9375 -15.46875 L 0.9375 -19.453125 L 8.59375 -19.453125 C 9.738281 -19.453125 10.539062 -19.195312 11 -18.6875 C 11.46875 -18.175781 11.703125 -17.304688 11.703125 -16.078125 L 11.703125 -4.796875 C 11.703125 -4.253906 11.941406 -3.984375 12.421875 -3.984375 Z M 12.421875 -3.984375 "/></g></g></g><g fill="#61888d" fill-opacity="1"><g transform="translate(608.443553, 70.923054)"><g/></g></g><g fill="#61888d" fill-opacity="1"><g transform="translate(615.089823, 70.923054)"><g><path d="M 13.484375 -19.453125 C 14.429688 -19.453125 15.109375 -19.242188 15.515625 -18.828125 C 15.929688 -18.421875 16.140625 -17.734375 16.140625 -16.765625 L 16.140625 -1.203125 C 16.140625 -0.765625 16.046875 -0.453125 15.859375 -0.265625 C 15.679688 -0.0859375 15.378906 0 14.953125 0 L 3.703125 0 C 3.265625 0 2.953125 -0.0859375 2.765625 -0.265625 C 2.585938 -0.453125 2.5 -0.765625 2.5 -1.203125 L 2.5 -13.390625 C 2.5 -14.359375 2.660156 -15.050781 2.984375 -15.46875 L 1.171875 -15.46875 L 1.171875 -19.453125 Z M 11.25 -4.25 L 11.25 -14.5 C 11.25 -14.925781 11.179688 -15.210938 11.046875 -15.359375 C 10.921875 -15.515625 10.664062 -15.59375 10.28125 -15.59375 L 8.328125 -15.59375 C 7.941406 -15.59375 7.6875 -15.492188 7.5625 -15.296875 C 7.445312 -15.109375 7.390625 -14.785156 7.390625 -14.328125 L 7.390625 -4.25 C 7.390625 -4.09375 7.414062 -3.988281 7.46875 -3.9375 C 7.519531 -3.882812 7.625 -3.859375 7.78125 -3.859375 L 10.859375 -3.859375 C 11.035156 -3.859375 11.144531 -3.882812 11.1875 -3.9375 C 11.226562 -3.988281 11.25 -4.09375 11.25 -4.25 Z M 11.25 -4.25 "/></g></g></g><g fill="#61888d" fill-opacity="1"><g transform="translate(633.018521, 70.923054)"><g><path d="M 12.21875 0 L 7.6875 0 L 5.765625 -6.8125 C 5.578125 -6.71875 5.445312 -6.617188 5.375 -6.515625 C 5.3125 -6.410156 5.269531 -6.269531 5.25 -6.09375 L 4.796875 0 L 0.03125 0 L 0.9375 -7.421875 C 1.019531 -8.117188 1.203125 -8.648438 1.484375 -9.015625 C 1.765625 -9.378906 2.195312 -9.679688 2.78125 -9.921875 L 4.828125 -10.765625 C 5.171875 -10.910156 5.429688 -11.109375 5.609375 -11.359375 C 5.785156 -11.609375 5.875 -11.972656 5.875 -12.453125 L 5.875 -14.59375 C 5.875 -14.957031 5.816406 -15.191406 5.703125 -15.296875 C 5.597656 -15.410156 5.363281 -15.46875 5 -15.46875 L 2.65625 -15.46875 L 2.65625 -19.453125 L 7.84375 -19.453125 C 8.789062 -19.453125 9.488281 -19.207031 9.9375 -18.71875 C 10.382812 -18.238281 10.609375 -17.457031 10.609375 -16.375 L 10.609375 -10.28125 C 10.609375 -9.78125 10.539062 -9.378906 10.40625 -9.078125 C 10.28125 -8.773438 10.097656 -8.535156 9.859375 -8.359375 Z M 12.21875 0 "/></g></g></g><g fill="#61888d" fill-opacity="1"><g transform="translate(645.66264, 70.923054)"><g/></g></g><g fill="#61888d" fill-opacity="1"><g transform="translate(652.308909, 70.923054)"><g><path d="M 0.453125 -19.453125 L 12.390625 -19.453125 L 12.390625 -15.46875 L 11.734375 -15.46875 C 11.066406 -15.46875 10.734375 -15.023438 10.734375 -14.140625 L 10.734375 0 L 6 0 L 6 -13.390625 C 6 -14.296875 6.140625 -14.988281 6.421875 -15.46875 L 0.453125 -15.46875 Z M 0.453125 -19.453125 "/></g></g></g><g fill="#61888d" fill-opacity="1"><g transform="translate(665.893219, 70.923054)"><g><path d="M 1.234375 -15.046875 L 1.78125 -22.046875 L 5.671875 -22.046875 L 4.3125 -15.046875 Z M 6.1875 -15.046875 L 6.75 -22.046875 L 10.640625 -22.046875 L 9.265625 -15.046875 Z M 6.1875 -15.046875 "/></g></g></g><g fill="#61888d" fill-opacity="1"><g transform="translate(677.046029, 70.923054)"><g><path d="M 15.59375 -2.75 C 15.632812 -1.800781 15.429688 -1.101562 14.984375 -0.65625 C 14.546875 -0.21875 13.820312 0 12.8125 0 L 8.046875 0 L 8.046875 -3.984375 L 9.65625 -3.984375 C 10.007812 -3.984375 10.226562 -4.050781 10.3125 -4.1875 C 10.394531 -4.332031 10.425781 -4.566406 10.40625 -4.890625 L 9.921875 -13.875 C 9.898438 -14.5 9.816406 -14.941406 9.671875 -15.203125 C 9.535156 -15.460938 9.285156 -15.59375 8.921875 -15.59375 L 8.78125 -15.59375 C 8.5 -15.59375 8.300781 -15.507812 8.1875 -15.34375 C 8.070312 -15.1875 7.976562 -14.859375 7.90625 -14.359375 L 6 0 L 0.875 0 L 2.6875 -12.484375 C 2.882812 -13.847656 3.265625 -14.84375 3.828125 -15.46875 L 1.421875 -15.46875 L 1.421875 -19.453125 L 10.671875 -19.453125 C 11.898438 -19.453125 12.890625 -19.113281 13.640625 -18.4375 C 14.398438 -17.769531 14.820312 -16.507812 14.90625 -14.65625 Z M 15.59375 -2.75 "/></g></g></g><g fill="#61888d" fill-opacity="1"><g transform="translate(693.67786, 70.923054)"><g><path d="M 15.59375 -2.75 C 15.632812 -1.800781 15.429688 -1.101562 14.984375 -0.65625 C 14.546875 -0.21875 13.820312 0 12.8125 0 L 8.046875 0 L 8.046875 -3.984375 L 9.65625 -3.984375 C 10.007812 -3.984375 10.226562 -4.050781 10.3125 -4.1875 C 10.394531 -4.332031 10.425781 -4.566406 10.40625 -4.890625 L 9.921875 -13.875 C 9.898438 -14.5 9.816406 -14.941406 9.671875 -15.203125 C 9.535156 -15.460938 9.285156 -15.59375 8.921875 -15.59375 L 8.78125 -15.59375 C 8.5 -15.59375 8.300781 -15.507812 8.1875 -15.34375 C 8.070312 -15.1875 7.976562 -14.859375 7.90625 -14.359375 L 6 0 L 0.875 0 L 2.6875 -12.484375 C 2.882812 -13.847656 3.265625 -14.84375 3.828125 -15.46875 L 1.421875 -15.46875 L 1.421875 -19.453125 L 10.671875 -19.453125 C 11.898438 -19.453125 12.890625 -19.113281 13.640625 -18.4375 C 14.398438 -17.769531 14.820312 -16.507812 14.90625 -14.65625 Z M 15.59375 -2.75 "/></g></g></g><g fill="#61888d" fill-opacity="1"><g transform="translate(710.277376, 70.923054)"><g><path d="M 12.421875 -3.984375 L 13.390625 -3.984375 L 13.390625 0 L 0.578125 0 L 0.578125 -3.984375 L 6.90625 -3.984375 C 6.84375 -4.117188 6.785156 -4.273438 6.734375 -4.453125 C 6.691406 -4.640625 6.671875 -4.84375 6.671875 -5.0625 L 6.671875 -14.5 C 6.671875 -14.882812 6.609375 -15.140625 6.484375 -15.265625 C 6.359375 -15.398438 6.097656 -15.46875 5.703125 -15.46875 L 0.9375 -15.46875 L 0.9375 -19.453125 L 8.59375 -19.453125 C 9.738281 -19.453125 10.539062 -19.195312 11 -18.6875 C 11.46875 -18.175781 11.703125 -17.304688 11.703125 -16.078125 L 11.703125 -4.796875 C 11.703125 -4.253906 11.941406 -3.984375 12.421875 -3.984375 Z M 12.421875 -3.984375 "/></g></g></g><g fill="#61888d" fill-opacity="1"><g transform="translate(723.958907, 70.923054)"><g/></g></g><g fill="#61888d" fill-opacity="1"><g transform="translate(730.605176, 70.923054)"><g><path d="M 10.1875 0 L 10.1875 -14.5 C 10.1875 -14.882812 10.113281 -15.140625 9.96875 -15.265625 C 9.832031 -15.398438 9.566406 -15.46875 9.171875 -15.46875 L 1.6875 -15.46875 L 1.6875 -19.453125 L 12.25 -19.453125 C 13.332031 -19.453125 14.09375 -19.195312 14.53125 -18.6875 C 14.976562 -18.175781 15.203125 -17.304688 15.203125 -16.078125 L 15.203125 0 Z M 3.34375 0 C 2.238281 0 1.6875 -0.5625 1.6875 -1.6875 L 1.6875 -12.125 L 6.71875 -12.125 L 6.71875 -4.609375 C 6.71875 -4.191406 6.878906 -3.984375 7.203125 -3.984375 L 7.625 -3.984375 L 7.625 0 Z M 3.34375 0 "/></g></g></g><g fill="#61888d" fill-opacity="1"><g transform="translate(747.593683, 70.923054)"><g><path d="M 18.125 -19.453125 L 18.125 -15.46875 L 16.28125 -15.46875 C 16.507812 -15.050781 16.625 -14.269531 16.625 -13.125 L 16.625 0 L 11.609375 0 L 11.609375 -14 C 11.609375 -14.632812 11.554688 -15.035156 11.453125 -15.203125 C 11.359375 -15.378906 11.160156 -15.46875 10.859375 -15.46875 L 8.390625 -15.46875 C 8.109375 -15.46875 7.921875 -15.378906 7.828125 -15.203125 C 7.734375 -15.035156 7.6875 -14.632812 7.6875 -14 L 7.6875 0 L 2.65625 0 L 2.65625 -13.125 C 2.65625 -14.269531 2.773438 -15.050781 3.015625 -15.46875 L 1.171875 -15.46875 L 1.171875 -19.453125 Z M 18.125 -19.453125 "/></g></g></g><g fill="#61888d" fill-opacity="1"><g transform="translate(767.046169, 70.923054)"><g><path d="M 2.890625 0 L 2.890625 -14.75 C 2.890625 -15.050781 2.835938 -15.242188 2.734375 -15.328125 C 2.640625 -15.421875 2.441406 -15.46875 2.140625 -15.46875 L 0.96875 -15.46875 L 0.96875 -19.453125 L 5.734375 -19.453125 C 6.535156 -19.453125 7.097656 -19.289062 7.421875 -18.96875 C 7.742188 -18.644531 7.90625 -18.09375 7.90625 -17.3125 L 7.90625 0 Z M 2.890625 0 "/></g></g></g><g fill="#61888d" fill-opacity="1"><g transform="translate(776.740015, 70.923054)"><g><path d="M 9.40625 -0.1875 C 8.6875 0.0390625 7.96875 0.195312 7.25 0.28125 C 6.539062 0.375 5.882812 0.34375 5.28125 0.1875 C 4.675781 0.0390625 4.171875 -0.253906 3.765625 -0.703125 C 3.367188 -1.160156 3.140625 -1.820312 3.078125 -2.6875 L 2.234375 -14.75 C 2.210938 -15.050781 2.171875 -15.242188 2.109375 -15.328125 C 2.046875 -15.421875 1.875 -15.46875 1.59375 -15.46875 L 0.71875 -15.46875 L 0.71875 -19.453125 L 4.859375 -19.453125 C 5.578125 -19.453125 6.09375 -19.296875 6.40625 -18.984375 C 6.71875 -18.671875 6.894531 -18.164062 6.9375 -17.46875 L 7.75 -5.125 C 7.789062 -4.6875 7.941406 -4.414062 8.203125 -4.3125 C 8.460938 -4.207031 8.785156 -4.21875 9.171875 -4.34375 L 10.828125 -4.890625 C 11.390625 -5.085938 11.710938 -5.476562 11.796875 -6.0625 C 11.890625 -6.644531 12 -7.398438 12.125 -8.328125 L 12.9375 -14.75 C 12.976562 -15.113281 12.9375 -15.378906 12.8125 -15.546875 C 12.695312 -15.710938 12.53125 -15.804688 12.3125 -15.828125 C 12.007812 -15.867188 11.800781 -15.804688 11.6875 -15.640625 C 11.570312 -15.484375 11.503906 -15.238281 11.484375 -14.90625 L 11.21875 -11.4375 L 8.140625 -11.515625 L 8.296875 -16.140625 C 8.335938 -17.328125 8.738281 -18.234375 9.5 -18.859375 C 10.257812 -19.492188 11.363281 -19.8125 12.8125 -19.8125 C 13.71875 -19.8125 14.554688 -19.640625 15.328125 -19.296875 C 16.109375 -18.960938 16.71875 -18.453125 17.15625 -17.765625 C 17.601562 -17.078125 17.765625 -16.171875 17.640625 -15.046875 L 16.59375 -5.796875 C 16.488281 -4.679688 16.164062 -3.769531 15.625 -3.0625 C 15.082031 -2.363281 14.21875 -1.804688 13.03125 -1.390625 Z M 9.40625 -0.1875 "/></g></g></g><g fill="#61888d" fill-opacity="1"><g transform="translate(795.381983, 70.923054)"><g><path d="M 12.421875 -3.984375 L 13.390625 -3.984375 L 13.390625 0 L 0.578125 0 L 0.578125 -3.984375 L 6.90625 -3.984375 C 6.84375 -4.117188 6.785156 -4.273438 6.734375 -4.453125 C 6.691406 -4.640625 6.671875 -4.84375 6.671875 -5.0625 L 6.671875 -14.5 C 6.671875 -14.882812 6.609375 -15.140625 6.484375 -15.265625 C 6.359375 -15.398438 6.097656 -15.46875 5.703125 -15.46875 L 0.9375 -15.46875 L 0.9375 -19.453125 L 8.59375 -19.453125 C 9.738281 -19.453125 10.539062 -19.195312 11 -18.6875 C 11.46875 -18.175781 11.703125 -17.304688 11.703125 -16.078125 L 11.703125 -4.796875 C 11.703125 -4.253906 11.941406 -3.984375 12.421875 -3.984375 Z M 12.421875 -3.984375 "/></g></g></g><g fill="#61888d" fill-opacity="1"><g transform="translate(808.933868, 70.923054)"><g><path d="M 2.890625 0 L 2.890625 -14.75 C 2.890625 -15.050781 2.835938 -15.242188 2.734375 -15.328125 C 2.640625 -15.421875 2.441406 -15.46875 2.140625 -15.46875 L 0.96875 -15.46875 L 0.96875 -19.453125 L 5.734375 -19.453125 C 6.535156 -19.453125 7.097656 -19.289062 7.421875 -18.96875 C 7.742188 -18.644531 7.90625 -18.09375 7.90625 -17.3125 L 7.90625 0 Z M 2.890625 0 "/></g></g></g></g></g><g fill="#61888d" fill-opacity="1"><g transform="translate(451.132928, 85.45726)"><g><path d="M 24.296875 0 L 24.296875 -34.578125 C 24.296875 -35.503906 24.125 -36.125 23.78125 -36.4375 C 23.445312 -36.75 22.816406 -36.90625 21.890625 -36.90625 L 4.015625 -36.90625 L 4.015625 -46.421875 L 29.234375 -46.421875 C 31.816406 -46.421875 33.632812 -45.8125 34.6875 -44.59375 C 35.75 -43.382812 36.28125 -41.3125 36.28125 -38.375 L 36.28125 0 Z M 7.96875 0 C 5.332031 0 4.015625 -1.335938 4.015625 -4.015625 L 4.015625 -28.9375 L 16.015625 -28.9375 L 16.015625 -10.984375 C 16.015625 -10.003906 16.398438 -9.515625 17.171875 -9.515625 L 18.171875 -9.515625 L 18.171875 0 Z M 7.96875 0 "/></g></g></g><g fill="#61888d" fill-opacity="1"><g transform="translate(491.664972, 85.45726)"><g><path d="M 37.203125 -6.578125 C 37.304688 -4.304688 36.828125 -2.640625 35.765625 -1.578125 C 34.710938 -0.523438 32.976562 0 30.5625 0 L 19.1875 0 L 19.1875 -9.515625 L 23.046875 -9.515625 C 23.878906 -9.515625 24.394531 -9.679688 24.59375 -10.015625 C 24.800781 -10.347656 24.878906 -10.90625 24.828125 -11.6875 L 23.671875 -33.109375 C 23.617188 -34.609375 23.425781 -35.664062 23.09375 -36.28125 C 22.757812 -36.894531 22.15625 -37.203125 21.28125 -37.203125 L 20.96875 -37.203125 C 20.289062 -37.203125 19.8125 -37.007812 19.53125 -36.625 C 19.25 -36.238281 19.03125 -35.453125 18.875 -34.265625 L 14.3125 0 L 2.09375 0 L 6.421875 -29.78125 C 6.878906 -33.03125 7.78125 -35.40625 9.125 -36.90625 L 3.40625 -36.90625 L 3.40625 -46.421875 L 25.453125 -46.421875 C 28.390625 -46.421875 30.757812 -45.617188 32.5625 -44.015625 C 34.375 -42.421875 35.378906 -39.40625 35.578125 -34.96875 Z M 37.203125 -6.578125 "/></g></g></g><g fill="#61888d" fill-opacity="1"><g transform="translate(530.649898, 85.45726)"><g><path d="M 1.078125 -46.421875 L 29.546875 -46.421875 L 29.546875 -36.90625 L 28 -36.90625 C 26.40625 -36.90625 25.609375 -35.847656 25.609375 -33.734375 L 25.609375 0 L 14.3125 0 L 14.3125 -31.953125 C 14.3125 -34.117188 14.644531 -35.769531 15.3125 -36.90625 L 1.078125 -36.90625 Z M 1.078125 -46.421875 "/></g></g></g><g fill="#61888d" fill-opacity="1"><g transform="translate(562.905412, 85.45726)"><g><path d="M 36.203125 -46.421875 C 38.472656 -46.421875 39.992188 -45.644531 40.765625 -44.09375 C 41.535156 -42.550781 41.664062 -40.644531 41.15625 -38.375 L 33.265625 0 L 21.125 0 L 27.921875 -35.046875 C 28.078125 -35.921875 28.101562 -36.5 28 -36.78125 C 27.894531 -37.0625 27.40625 -37.203125 26.53125 -37.203125 L 20.421875 -37.203125 C 19.804688 -37.203125 19.316406 -37.125 18.953125 -36.96875 C 18.585938 -36.820312 18.40625 -36.234375 18.40625 -35.203125 L 18.40625 1.859375 C 18.40625 2.472656 18.71875 2.78125 19.34375 2.78125 L 21.203125 2.78125 L 21.203125 11.84375 L 10.671875 11.84375 C 7.835938 11.84375 6.421875 10.421875 6.421875 7.578125 L 6.421875 -33.734375 C 6.421875 -35.273438 6.703125 -36.332031 7.265625 -36.90625 L 2.78125 -36.90625 L 2.78125 -46.421875 Z M 36.203125 -46.421875 "/></g></g></g><g fill="#61888d" fill-opacity="1"><g transform="translate(605.680566, 85.45726)"><g><path d="M 24.296875 0 L 24.296875 -34.578125 C 24.296875 -35.503906 24.125 -36.125 23.78125 -36.4375 C 23.445312 -36.75 22.816406 -36.90625 21.890625 -36.90625 L 4.015625 -36.90625 L 4.015625 -46.421875 L 29.234375 -46.421875 C 31.816406 -46.421875 33.632812 -45.8125 34.6875 -44.59375 C 35.75 -43.382812 36.28125 -41.3125 36.28125 -38.375 L 36.28125 0 Z M 7.96875 0 C 5.332031 0 4.015625 -1.335938 4.015625 -4.015625 L 4.015625 -28.9375 L 16.015625 -28.9375 L 16.015625 -10.984375 C 16.015625 -10.003906 16.398438 -9.515625 17.171875 -9.515625 L 18.171875 -9.515625 L 18.171875 0 Z M 7.96875 0 "/></g></g></g></svg>