<svg xmlns="http://www.w3.org/2000/svg" xmlns:xlink="http://www.w3.org/1999/xlink" width="731" zoomAndPan="magnify" viewBox="0 0 548.25 179.999997" height="240" preserveAspectRatio="xMidYMid meet" version="1.0"><defs><g/><clipPath id="d97f20fc79"><path d="M 259.570312 61.152344 L 267.441406 61.152344 L 267.441406 69.027344 L 259.570312 69.027344 Z M 259.570312 61.152344 " clip-rule="nonzero"/></clipPath><clipPath id="4d99d9d641"><path d="M 263.503906 61.152344 C 261.332031 61.152344 259.570312 62.914062 259.570312 65.089844 C 259.570312 67.261719 261.332031 69.027344 263.503906 69.027344 C 265.679688 69.027344 267.441406 67.261719 267.441406 65.089844 C 267.441406 62.914062 265.679688 61.152344 263.503906 61.152344 Z M 263.503906 61.152344 " clip-rule="nonzero"/></clipPath><clipPath id="38977248d1"><path d="M 0.570312 0.152344 L 8.441406 0.152344 L 8.441406 8.027344 L 0.570312 8.027344 Z M 0.570312 0.152344 " clip-rule="nonzero"/></clipPath><clipPath id="2a621d86b3"><path d="M 4.503906 0.152344 C 2.332031 0.152344 0.570312 1.914062 0.570312 4.089844 C 0.570312 6.261719 2.332031 8.027344 4.503906 8.027344 C 6.679688 8.027344 8.441406 6.261719 8.441406 4.089844 C 8.441406 1.914062 6.679688 0.152344 4.503906 0.152344 Z M 4.503906 0.152344 " clip-rule="nonzero"/></clipPath><clipPath id="bb7ca1f166"><rect x="0" width="9" y="0" height="9"/></clipPath></defs><g clip-path="url(#d97f20fc79)"><g clip-path="url(#4d99d9d641)"><g transform="matrix(1, 0, 0, 1, 259, 61)"><g clip-path="url(#bb7ca1f166)"><g clip-path="url(#38977248d1)"><g clip-path="url(#2a621d86b3)"><path fill="#61888d" d="M 0.570312 0.152344 L 8.441406 0.152344 L 8.441406 8.027344 L 0.570312 8.027344 Z M 0.570312 0.152344 " fill-opacity="1" fill-rule="nonzero"/></g></g></g></g></g></g><g fill="#61888d" fill-opacity="1"><g transform="translate(111.300279, 121.323933)"><g><path d="M 34.609375 0 L 34.609375 -49.28125 C 34.609375 -50.601562 34.367188 -51.484375 33.890625 -51.921875 C 33.421875 -52.359375 32.523438 -52.578125 31.203125 -52.578125 L 5.734375 -52.578125 L 5.734375 -66.140625 L 41.671875 -66.140625 C 45.347656 -66.140625 47.9375 -65.273438 49.4375 -63.546875 C 50.945312 -61.816406 51.703125 -58.859375 51.703125 -54.671875 L 51.703125 0 Z M 11.359375 0 C 7.609375 0 5.734375 -1.910156 5.734375 -5.734375 L 5.734375 -41.234375 L 22.8125 -41.234375 L 22.8125 -15.65625 C 22.8125 -14.257812 23.363281 -13.5625 24.46875 -13.5625 L 25.90625 -13.5625 L 25.90625 0 Z M 11.359375 0 "/></g></g></g><g fill="#61888d" fill-opacity="1"><g transform="translate(169.059851, 121.323933)"><g><path d="M 61.625 -66.140625 L 61.625 -52.578125 L 55.34375 -52.578125 C 56.144531 -51.179688 56.546875 -48.535156 56.546875 -44.640625 L 56.546875 0 L 39.46875 0 L 39.46875 -47.625 C 39.46875 -49.75 39.300781 -51.101562 38.96875 -51.6875 C 38.632812 -52.28125 37.953125 -52.578125 36.921875 -52.578125 L 28.546875 -52.578125 C 27.597656 -52.578125 26.957031 -52.28125 26.625 -51.6875 C 26.289062 -51.101562 26.125 -49.75 26.125 -47.625 L 26.125 0 L 9.046875 0 L 9.046875 -44.640625 C 9.046875 -48.535156 9.445312 -51.179688 10.25 -52.578125 L 3.96875 -52.578125 L 3.96875 -66.140625 Z M 61.625 -66.140625 "/></g></g></g><g fill="#61888d" fill-opacity="1"><g transform="translate(235.307029, 121.323933)"><g><path d="M 17.640625 0 C 13.378906 0 10.507812 -1.335938 9.03125 -4.015625 C 7.5625 -6.703125 7.640625 -10.546875 9.265625 -15.546875 L 20.0625 -49.046875 C 20.800781 -51.398438 19.992188 -52.578125 17.640625 -52.578125 L 4.734375 -52.578125 C 3.554688 -52.578125 2.726562 -52.816406 2.25 -53.296875 C 1.78125 -53.773438 1.546875 -54.640625 1.546875 -55.890625 L 1.546875 -74.953125 L 17.640625 -74.953125 L 17.640625 -66.140625 L 29.4375 -66.140625 C 33.625 -66.140625 36.539062 -64.757812 38.1875 -62 C 39.84375 -59.25 39.9375 -55.59375 38.46875 -51.03125 L 26.78125 -16.421875 C 26.488281 -15.617188 26.429688 -14.941406 26.609375 -14.390625 C 26.796875 -13.835938 27.367188 -13.5625 28.328125 -13.5625 L 33.1875 -13.5625 L 33.1875 0 Z M 17.640625 0 "/></g></g></g><g fill="#61888d" fill-opacity="1"><g transform="translate(277.524403, 121.323933)"><g><path d="M 45.75 -25.6875 L 48.71875 -11.578125 C 49.457031 -8.191406 49.09375 -5.414062 47.625 -3.25 C 46.15625 -1.082031 43.582031 0 39.90625 0 L 2.53125 0 L 2.53125 -13.5625 L 28.109375 -13.5625 C 29.140625 -13.5625 29.851562 -13.835938 30.25 -14.390625 C 30.65625 -14.941406 30.675781 -16.132812 30.3125 -17.96875 L 29.546875 -21.28125 C 29.328125 -22.53125 28.90625 -23.503906 28.28125 -24.203125 C 27.65625 -24.898438 26.789062 -25.503906 25.6875 -26.015625 L 14.21875 -31.53125 C 12.894531 -32.113281 11.882812 -32.789062 11.1875 -33.5625 C 10.488281 -34.332031 9.957031 -35.488281 9.59375 -37.03125 L 2.421875 -66.140625 L 19.734375 -66.140625 L 25.6875 -42 L 31.640625 -66.140625 L 49.171875 -66.140625 L 40.34375 -32.1875 C 41.738281 -31.53125 42.914062 -30.703125 43.875 -29.703125 C 44.832031 -28.710938 45.457031 -27.375 45.75 -25.6875 Z M 45.75 -25.6875 "/></g></g></g><g fill="#61888d" fill-opacity="1"><g transform="translate(331.315774, 121.323933)"><g><path d="M 34.609375 0 L 34.609375 -49.28125 C 34.609375 -50.601562 34.367188 -51.484375 33.890625 -51.921875 C 33.421875 -52.359375 32.523438 -52.578125 31.203125 -52.578125 L 5.734375 -52.578125 L 5.734375 -66.140625 L 41.671875 -66.140625 C 45.347656 -66.140625 47.9375 -65.273438 49.4375 -63.546875 C 50.945312 -61.816406 51.703125 -58.859375 51.703125 -54.671875 L 51.703125 0 Z M 11.359375 0 C 7.609375 0 5.734375 -1.910156 5.734375 -5.734375 L 5.734375 -41.234375 L 22.8125 -41.234375 L 22.8125 -15.65625 C 22.8125 -14.257812 23.363281 -13.5625 24.46875 -13.5625 L 25.90625 -13.5625 L 25.90625 0 Z M 11.359375 0 "/></g></g></g><g fill="#61888d" fill-opacity="1"><g transform="translate(389.075334, 121.323933)"><g><path d="M 42.21875 -13.5625 L 45.53125 -13.5625 L 45.53125 0 L 1.984375 0 L 1.984375 -13.5625 L 23.484375 -13.5625 C 23.265625 -14 23.078125 -14.53125 22.921875 -15.15625 C 22.773438 -15.78125 22.703125 -16.460938 22.703125 -17.203125 L 22.703125 -49.28125 C 22.703125 -50.601562 22.484375 -51.484375 22.046875 -51.921875 C 21.609375 -52.359375 20.726562 -52.578125 19.40625 -52.578125 L 3.203125 -52.578125 L 3.203125 -66.140625 L 29.21875 -66.140625 C 33.101562 -66.140625 35.835938 -65.273438 37.421875 -63.546875 C 39.003906 -61.816406 39.796875 -58.859375 39.796875 -54.671875 L 39.796875 -16.3125 C 39.796875 -14.476562 40.601562 -13.5625 42.21875 -13.5625 Z M 42.21875 -13.5625 "/></g></g></g></svg>