<svg xmlns="http://www.w3.org/2000/svg" xmlns:xlink="http://www.w3.org/1999/xlink" width="1663" zoomAndPan="magnify" viewBox="0 0 1247.25 214.499994" height="286" preserveAspectRatio="xMidYMid meet" version="1.0"><defs><g/></defs><g fill="#61888d" fill-opacity="1"><g transform="translate(214.534912, 78.807512)"><g><path d="M 6.390625 10.984375 L 6.390625 -32.6875 C 6.390625 -33.351562 6.28125 -33.78125 6.0625 -33.96875 C 5.851562 -34.164062 5.410156 -34.265625 4.734375 -34.265625 L 2.15625 -34.265625 L 2.15625 -43.109375 L 12.71875 -43.109375 C 14.488281 -43.109375 15.734375 -42.75 16.453125 -42.03125 C 17.171875 -41.3125 17.53125 -40.085938 17.53125 -38.359375 L 17.53125 10.984375 Z M 6.390625 10.984375 "/></g></g></g><g fill="#61888d" fill-opacity="1"><g transform="translate(236.012829, 78.807512)"><g><path d="M 27.078125 0 L 17.03125 0 L 12.78125 -15.09375 C 12.351562 -14.894531 12.066406 -14.675781 11.921875 -14.4375 C 11.773438 -14.195312 11.679688 -13.882812 11.640625 -13.5 L 10.640625 0 L 0.078125 0 L 2.078125 -16.453125 C 2.273438 -17.984375 2.679688 -19.15625 3.296875 -19.96875 C 3.921875 -20.78125 4.878906 -21.453125 6.171875 -21.984375 L 10.703125 -23.859375 C 11.472656 -24.191406 12.046875 -24.628906 12.421875 -25.171875 C 12.804688 -25.722656 13 -26.53125 13 -27.59375 L 13 -32.328125 C 13 -33.140625 12.878906 -33.664062 12.640625 -33.90625 C 12.398438 -34.144531 11.875 -34.265625 11.0625 -34.265625 L 5.890625 -34.265625 L 5.890625 -43.109375 L 17.390625 -43.109375 C 19.492188 -43.109375 21.035156 -42.566406 22.015625 -41.484375 C 23.003906 -40.410156 23.5 -38.675781 23.5 -36.28125 L 23.5 -22.78125 C 23.5 -21.675781 23.351562 -20.785156 23.0625 -20.109375 C 22.769531 -19.441406 22.363281 -18.914062 21.84375 -18.53125 Z M 27.078125 0 "/></g></g></g><g fill="#61888d" fill-opacity="1"><g transform="translate(263.165439, 78.807512)"><g><path d="M 6.390625 0 L 6.390625 -32.6875 C 6.390625 -33.351562 6.28125 -33.78125 6.0625 -33.96875 C 5.851562 -34.164062 5.410156 -34.265625 4.734375 -34.265625 L 2.15625 -34.265625 L 2.15625 -43.109375 L 12.71875 -43.109375 C 14.488281 -43.109375 15.734375 -42.75 16.453125 -42.03125 C 17.171875 -41.3125 17.53125 -40.085938 17.53125 -38.359375 L 17.53125 0 Z M 6.390625 0 "/></g></g></g><g fill="#61888d" fill-opacity="1"><g transform="translate(284.643356, 78.807512)"><g><path d="M 34.5625 -6.109375 C 34.65625 -4.003906 34.207031 -2.457031 33.21875 -1.46875 C 32.238281 -0.488281 30.625 0 28.375 0 L 17.8125 0 L 17.8125 -8.84375 L 21.40625 -8.84375 C 22.175781 -8.84375 22.65625 -8.992188 22.84375 -9.296875 C 23.039062 -9.609375 23.113281 -10.125 23.0625 -10.84375 L 21.984375 -30.75 C 21.929688 -32.132812 21.75 -33.113281 21.4375 -33.6875 C 21.132812 -34.269531 20.570312 -34.5625 19.75 -34.5625 L 19.46875 -34.5625 C 18.84375 -34.5625 18.398438 -34.378906 18.140625 -34.015625 C 17.878906 -33.660156 17.675781 -32.929688 17.53125 -31.828125 L 13.296875 0 L 1.9375 0 L 5.96875 -27.65625 C 6.394531 -30.675781 7.234375 -32.878906 8.484375 -34.265625 L 3.15625 -34.265625 L 3.15625 -43.109375 L 23.640625 -43.109375 C 26.367188 -43.109375 28.570312 -42.363281 30.25 -40.875 C 31.925781 -39.394531 32.859375 -36.59375 33.046875 -32.46875 Z M 34.5625 -6.109375 "/></g></g></g><g fill="#61888d" fill-opacity="1"><g transform="translate(321.780766, 78.807512)"><g><path d="M 22.5625 0 L 22.5625 -32.109375 C 22.5625 -32.972656 22.40625 -33.546875 22.09375 -33.828125 C 21.78125 -34.117188 21.191406 -34.265625 20.328125 -34.265625 L 3.734375 -34.265625 L 3.734375 -43.109375 L 27.15625 -43.109375 C 29.550781 -43.109375 31.238281 -42.546875 32.21875 -41.421875 C 33.195312 -40.296875 33.6875 -38.367188 33.6875 -35.640625 L 33.6875 0 Z M 7.40625 0 C 4.957031 0 3.734375 -1.242188 3.734375 -3.734375 L 3.734375 -26.875 L 14.875 -26.875 L 14.875 -10.203125 C 14.875 -9.296875 15.234375 -8.84375 15.953125 -8.84375 L 16.890625 -8.84375 L 16.890625 0 Z M 7.40625 0 "/></g></g></g><g fill="#61888d" fill-opacity="1"><g transform="translate(359.421002, 78.807512)"><g/></g></g><g fill="#61888d" fill-opacity="1"><g transform="translate(374.14667, 78.807512)"><g><path d="M 27.515625 -8.84375 L 29.671875 -8.84375 L 29.671875 0 L 1.296875 0 L 1.296875 -8.84375 L 15.296875 -8.84375 C 15.160156 -9.125 15.039062 -9.46875 14.9375 -9.875 C 14.84375 -10.28125 14.796875 -10.722656 14.796875 -11.203125 L 14.796875 -32.109375 C 14.796875 -32.972656 14.648438 -33.546875 14.359375 -33.828125 C 14.078125 -34.117188 13.503906 -34.265625 12.640625 -34.265625 L 2.078125 -34.265625 L 2.078125 -43.109375 L 19.03125 -43.109375 C 21.570312 -43.109375 23.359375 -42.546875 24.390625 -41.421875 C 25.421875 -40.296875 25.9375 -38.367188 25.9375 -35.640625 L 25.9375 -10.640625 C 25.9375 -9.441406 26.460938 -8.84375 27.515625 -8.84375 Z M 27.515625 -8.84375 "/></g></g></g><g fill="#61888d" fill-opacity="1"><g transform="translate(403.81343, 78.807512)"><g><path d="M 40.15625 -43.109375 L 40.15625 -34.265625 L 36.0625 -34.265625 C 36.59375 -33.359375 36.859375 -31.632812 36.859375 -29.09375 L 36.859375 0 L 25.71875 0 L 25.71875 -31.03125 C 25.71875 -32.425781 25.609375 -33.3125 25.390625 -33.6875 C 25.179688 -34.070312 24.738281 -34.265625 24.0625 -34.265625 L 18.609375 -34.265625 C 17.984375 -34.265625 17.5625 -34.070312 17.34375 -33.6875 C 17.132812 -33.3125 17.03125 -32.425781 17.03125 -31.03125 L 17.03125 0 L 5.890625 0 L 5.890625 -29.09375 C 5.890625 -31.632812 6.15625 -33.359375 6.6875 -34.265625 L 2.59375 -34.265625 L 2.59375 -43.109375 Z M 40.15625 -43.109375 "/></g></g></g><g fill="#61888d" fill-opacity="1"><g transform="translate(446.984829, 78.807512)"><g><path d="M 13.71875 0 L 13.71875 -31.6875 C 13.71875 -33.40625 12.859375 -34.265625 11.140625 -34.265625 L 1 -34.265625 L 1 -43.109375 L 17.609375 -43.109375 C 20.285156 -43.109375 22.160156 -42.554688 23.234375 -41.453125 C 24.316406 -40.347656 24.859375 -38.476562 24.859375 -35.84375 L 24.859375 0 Z M 13.71875 0 "/></g></g></g><g fill="#61888d" fill-opacity="1"><g transform="translate(475.789661, 78.807512)"><g><path d="M 34.5625 -6.109375 C 34.65625 -4.003906 34.207031 -2.457031 33.21875 -1.46875 C 32.238281 -0.488281 30.625 0 28.375 0 L 17.8125 0 L 17.8125 -8.84375 L 21.40625 -8.84375 C 22.175781 -8.84375 22.65625 -8.992188 22.84375 -9.296875 C 23.039062 -9.609375 23.113281 -10.125 23.0625 -10.84375 L 21.984375 -30.75 C 21.929688 -32.132812 21.75 -33.113281 21.4375 -33.6875 C 21.132812 -34.269531 20.570312 -34.5625 19.75 -34.5625 L 19.46875 -34.5625 C 18.84375 -34.5625 18.398438 -34.378906 18.140625 -34.015625 C 17.878906 -33.660156 17.675781 -32.929688 17.53125 -31.828125 L 13.296875 0 L 1.9375 0 L 5.96875 -27.65625 C 6.394531 -30.675781 7.234375 -32.878906 8.484375 -34.265625 L 3.15625 -34.265625 L 3.15625 -43.109375 L 23.640625 -43.109375 C 26.367188 -43.109375 28.570312 -42.363281 30.25 -40.875 C 31.925781 -39.394531 32.859375 -36.59375 33.046875 -32.46875 Z M 34.5625 -6.109375 "/></g></g></g><g fill="#61888d" fill-opacity="1"><g transform="translate(511.993156, 78.807512)"><g><path d="M 11.5 0 C 8.71875 0 6.847656 -0.875 5.890625 -2.625 C 4.929688 -4.375 4.976562 -6.875 6.03125 -10.125 L 13.078125 -31.96875 C 13.554688 -33.5 13.03125 -34.265625 11.5 -34.265625 L 3.09375 -34.265625 C 2.320312 -34.265625 1.78125 -34.421875 1.46875 -34.734375 C 1.15625 -35.046875 1 -35.609375 1 -36.421875 L 1 -48.859375 L 11.5 -48.859375 L 11.5 -43.109375 L 19.1875 -43.109375 C 21.914062 -43.109375 23.816406 -42.207031 24.890625 -40.40625 C 25.972656 -38.613281 26.035156 -36.234375 25.078125 -33.265625 L 17.453125 -10.703125 C 17.265625 -10.179688 17.226562 -9.738281 17.34375 -9.375 C 17.46875 -9.019531 17.84375 -8.84375 18.46875 -8.84375 L 21.625 -8.84375 L 21.625 0 Z M 11.5 0 "/></g></g></g><g fill="#61888d" fill-opacity="1"><g transform="translate(539.720521, 78.807512)"><g/></g></g><g fill="#61888d" fill-opacity="1"><g transform="translate(554.44619, 78.807512)"><g><path d="M 1 -43.109375 L 27.4375 -43.109375 L 27.4375 -34.265625 L 26 -34.265625 C 24.519531 -34.265625 23.78125 -33.285156 23.78125 -31.328125 L 23.78125 0 L 13.296875 0 L 13.296875 -29.671875 C 13.296875 -31.679688 13.601562 -33.210938 14.21875 -34.265625 L 1 -34.265625 Z M 1 -43.109375 "/></g></g></g><g fill="#61888d" fill-opacity="1"><g transform="translate(584.40042, 78.807512)"><g><path d="M 6.390625 0 L 6.390625 -32.6875 C 6.390625 -33.351562 6.28125 -33.78125 6.0625 -33.96875 C 5.851562 -34.164062 5.410156 -34.265625 4.734375 -34.265625 L 2.15625 -34.265625 L 2.15625 -43.109375 L 12.71875 -43.109375 C 14.488281 -43.109375 15.734375 -42.75 16.453125 -42.03125 C 17.171875 -41.3125 17.53125 -40.085938 17.53125 -38.359375 L 17.53125 0 Z M 6.390625 0 "/></g></g></g><g fill="#61888d" fill-opacity="1"><g transform="translate(605.519144, 78.807512)"><g><path d="M 28.671875 -43.109375 C 31.203125 -43.109375 33.1875 -42.757812 34.625 -42.0625 C 36.0625 -41.363281 37.054688 -40.128906 37.609375 -38.359375 C 38.160156 -36.585938 38.316406 -34.078125 38.078125 -30.828125 L 36.78125 -11.5 C 36.6875 -9.863281 36.4375 -8.375 36.03125 -7.03125 C 35.625 -5.695312 34.90625 -4.5625 33.875 -3.625 C 32.84375 -2.695312 31.320312 -2.0625 29.3125 -1.71875 L 16.3125 0.4375 C 13.34375 0.957031 11.28125 0.753906 10.125 -0.171875 C 8.976562 -1.109375 8.3125 -2.703125 8.125 -4.953125 L 6.25 -29.390625 C 6.15625 -30.484375 6.238281 -31.445312 6.5 -32.28125 C 6.757812 -33.125 7.128906 -33.832031 7.609375 -34.40625 C 6.273438 -34.601562 4.972656 -35.046875 3.703125 -35.734375 C 2.429688 -36.429688 1.390625 -37.476562 0.578125 -38.875 L 6.390625 -45.546875 C 7.066406 -44.492188 7.75 -43.820312 8.4375 -43.53125 C 9.132812 -43.25 10.035156 -43.109375 11.140625 -43.109375 Z M 27.375 -27.796875 C 27.46875 -29.710938 27.476562 -31.160156 27.40625 -32.140625 C 27.332031 -33.128906 27.046875 -33.789062 26.546875 -34.125 C 26.046875 -34.457031 25.171875 -34.601562 23.921875 -34.5625 L 18.3125 -34.40625 C 17.164062 -34.125 16.664062 -33.171875 16.8125 -31.546875 L 18.46875 -11.140625 C 18.5625 -10.222656 18.8125 -9.617188 19.21875 -9.328125 C 19.625 -9.046875 20.210938 -8.953125 20.984375 -9.046875 L 24.140625 -9.703125 C 25.003906 -9.847656 25.613281 -10.207031 25.96875 -10.78125 C 26.332031 -11.351562 26.535156 -12.257812 26.578125 -13.5 Z M 27.375 -27.796875 "/></g></g></g><g fill="#61888d" fill-opacity="1"><g transform="translate(646.391838, 78.807512)"><g><path d="M 6.328125 -18.25 L 6.328125 -32.6875 C 6.328125 -33.351562 6.21875 -33.78125 6 -33.96875 C 5.78125 -34.164062 5.335938 -34.265625 4.671875 -34.265625 L 1.9375 -34.265625 L 1.9375 -43.109375 L 11.78125 -43.109375 C 13.84375 -43.109375 15.289062 -42.6875 16.125 -41.84375 C 16.96875 -41.007812 17.390625 -39.5625 17.390625 -37.5 L 17.390625 -18.25 Z M 6.328125 -18.25 "/></g></g></g><g fill="#61888d" fill-opacity="1"><g transform="translate(667.295092, 78.807512)"><g/></g></g><g fill="#61888d" fill-opacity="1"><g transform="translate(682.02076, 78.807512)"><g><path d="M 6.328125 -18.25 L 6.328125 -32.6875 C 6.328125 -33.351562 6.21875 -33.78125 6 -33.96875 C 5.78125 -34.164062 5.335938 -34.265625 4.671875 -34.265625 L 1.9375 -34.265625 L 1.9375 -43.109375 L 11.78125 -43.109375 C 13.84375 -43.109375 15.289062 -42.6875 16.125 -41.84375 C 16.96875 -41.007812 17.390625 -39.5625 17.390625 -37.5 L 17.390625 -18.25 Z M 6.328125 -18.25 "/></g></g></g><g fill="#61888d" fill-opacity="1"><g transform="translate(700.984321, 78.807512)"><g><path d="M 27.078125 0 L 17.03125 0 L 12.78125 -15.09375 C 12.351562 -14.894531 12.066406 -14.675781 11.921875 -14.4375 C 11.773438 -14.195312 11.679688 -13.882812 11.640625 -13.5 L 10.640625 0 L 0.078125 0 L 2.078125 -16.453125 C 2.273438 -17.984375 2.679688 -19.15625 3.296875 -19.96875 C 3.921875 -20.78125 4.878906 -21.453125 6.171875 -21.984375 L 10.703125 -23.859375 C 11.472656 -24.191406 12.046875 -24.628906 12.421875 -25.171875 C 12.804688 -25.722656 13 -26.53125 13 -27.59375 L 13 -32.328125 C 13 -33.140625 12.878906 -33.664062 12.640625 -33.90625 C 12.398438 -34.144531 11.875 -34.265625 11.0625 -34.265625 L 5.890625 -34.265625 L 5.890625 -43.109375 L 17.390625 -43.109375 C 19.492188 -43.109375 21.035156 -42.566406 22.015625 -41.484375 C 23.003906 -40.410156 23.5 -38.675781 23.5 -36.28125 L 23.5 -22.78125 C 23.5 -21.675781 23.351562 -20.785156 23.0625 -20.109375 C 22.769531 -19.441406 22.363281 -18.914062 21.84375 -18.53125 Z M 27.078125 0 "/></g></g></g><g fill="#61888d" fill-opacity="1"><g transform="translate(728.999018, 78.807512)"><g><path d="M 32.46875 -43.109375 L 43.25 -43.109375 L 41.171875 -15.296875 C 40.785156 -9.796875 39.359375 -5.867188 36.890625 -3.515625 C 34.421875 -1.171875 30.550781 0 25.28125 0 L 10.921875 0 C 9.054688 0 7.703125 -0.476562 6.859375 -1.4375 C 6.023438 -2.394531 5.488281 -3.734375 5.25 -5.453125 L 4.015625 -14.65625 C 3.640625 -17 4.289062 -18.796875 5.96875 -20.046875 L 2.4375 -43.109375 L 13.296875 -43.109375 L 16.234375 -23.640625 L 16.3125 -23.640625 C 16.976562 -23.878906 17.394531 -24.140625 17.5625 -24.421875 C 17.726562 -24.710938 17.8125 -25.238281 17.8125 -26 L 17.8125 -43.109375 L 28.515625 -43.109375 L 28.515625 -23.859375 C 28.515625 -21.742188 28.179688 -20.21875 27.515625 -19.28125 C 26.847656 -18.351562 25.769531 -17.625 24.28125 -17.09375 L 16.53125 -14.4375 C 15.707031 -14.101562 15.210938 -13.800781 15.046875 -13.53125 C 14.878906 -13.269531 14.84375 -12.757812 14.9375 -12 L 15.234375 -10.125 C 15.328125 -9.507812 15.550781 -9.113281 15.90625 -8.9375 C 16.269531 -8.769531 16.8125 -8.6875 17.53125 -8.6875 L 22.34375 -8.6875 C 24.351562 -8.6875 25.921875 -8.863281 27.046875 -9.21875 C 28.171875 -9.582031 28.984375 -10.289062 29.484375 -11.34375 C 29.992188 -12.40625 30.320312 -13.941406 30.46875 -15.953125 Z M 32.46875 -43.109375 "/></g></g></g><g fill="#61888d" fill-opacity="1"><g transform="translate(774.756338, 78.807512)"><g><path d="M 6.390625 0 L 6.390625 -32.6875 C 6.390625 -33.351562 6.28125 -33.78125 6.0625 -33.96875 C 5.851562 -34.164062 5.410156 -34.265625 4.734375 -34.265625 L 2.15625 -34.265625 L 2.15625 -43.109375 L 12.71875 -43.109375 C 14.488281 -43.109375 15.734375 -42.75 16.453125 -42.03125 C 17.171875 -41.3125 17.53125 -40.085938 17.53125 -38.359375 L 17.53125 0 Z M 6.390625 0 "/></g></g></g><g fill="#61888d" fill-opacity="1"><g transform="translate(796.234256, 78.807512)"><g><path d="M 34.5625 -6.109375 C 34.65625 -4.003906 34.207031 -2.457031 33.21875 -1.46875 C 32.238281 -0.488281 30.625 0 28.375 0 L 17.8125 0 L 17.8125 -8.84375 L 21.40625 -8.84375 C 22.175781 -8.84375 22.65625 -8.992188 22.84375 -9.296875 C 23.039062 -9.609375 23.113281 -10.125 23.0625 -10.84375 L 21.984375 -30.75 C 21.929688 -32.132812 21.75 -33.113281 21.4375 -33.6875 C 21.132812 -34.269531 20.570312 -34.5625 19.75 -34.5625 L 19.46875 -34.5625 C 18.84375 -34.5625 18.398438 -34.378906 18.140625 -34.015625 C 17.878906 -33.660156 17.675781 -32.929688 17.53125 -31.828125 L 13.296875 0 L 1.9375 0 L 5.96875 -27.65625 C 6.394531 -30.675781 7.234375 -32.878906 8.484375 -34.265625 L 3.15625 -34.265625 L 3.15625 -43.109375 L 23.640625 -43.109375 C 26.367188 -43.109375 28.570312 -42.363281 30.25 -40.875 C 31.925781 -39.394531 32.859375 -36.59375 33.046875 -32.46875 Z M 34.5625 -6.109375 "/></g></g></g><g fill="#61888d" fill-opacity="1"><g transform="translate(831.934879, 78.807512)"><g><path d="M 6.390625 0 L 6.390625 -32.6875 C 6.390625 -33.351562 6.28125 -33.78125 6.0625 -33.96875 C 5.851562 -34.164062 5.410156 -34.265625 4.734375 -34.265625 L 2.15625 -34.265625 L 2.15625 -43.109375 L 12.71875 -43.109375 C 14.488281 -43.109375 15.734375 -42.75 16.453125 -42.03125 C 17.171875 -41.3125 17.53125 -40.085938 17.53125 -38.359375 L 17.53125 0 Z M 6.390625 0 "/></g></g></g><g fill="#61888d" fill-opacity="1"><g transform="translate(853.412797, 78.807512)"><g/></g></g><g fill="#61888d" fill-opacity="1"><g transform="translate(868.138465, 78.807512)"><g><path d="M 28.3125 -43.109375 C 30.988281 -43.109375 32.890625 -42.546875 34.015625 -41.421875 C 35.140625 -40.296875 35.703125 -38.367188 35.703125 -35.640625 L 35.703125 0 L 24.578125 0 L 24.578125 -31.828125 C 24.578125 -32.785156 24.40625 -33.476562 24.0625 -33.90625 C 23.726562 -34.34375 23.109375 -34.5625 22.203125 -34.5625 L 20.265625 -34.5625 C 18.628906 -34.5625 17.5 -34.054688 16.875 -33.046875 C 16.257812 -32.046875 16.238281 -29.9375 16.8125 -26.71875 L 19.390625 -11.640625 C 20.109375 -7.710938 19.894531 -4.789062 18.75 -2.875 C 17.601562 -0.957031 15.28125 0 11.78125 0 L 2.234375 0 L 2.234375 -8.84375 L 6.46875 -8.84375 C 7.132812 -8.84375 7.644531 -9.03125 8 -9.40625 C 8.363281 -9.789062 8.472656 -10.507812 8.328125 -11.5625 L 5.96875 -25.28125 C 5.488281 -27.96875 5.414062 -29.992188 5.75 -31.359375 C 6.082031 -32.722656 6.515625 -33.691406 7.046875 -34.265625 L 2.375 -34.265625 L 2.375 -43.109375 Z M 28.3125 -43.109375 "/></g></g></g><g fill="#61888d" fill-opacity="1"><g transform="translate(907.861831, 78.807512)"><g><path d="M 6.390625 0 L 6.390625 -32.6875 C 6.390625 -33.351562 6.28125 -33.78125 6.0625 -33.96875 C 5.851562 -34.164062 5.410156 -34.265625 4.734375 -34.265625 L 2.15625 -34.265625 L 2.15625 -43.109375 L 12.71875 -43.109375 C 14.488281 -43.109375 15.734375 -42.75 16.453125 -42.03125 C 17.171875 -41.3125 17.53125 -40.085938 17.53125 -38.359375 L 17.53125 0 Z M 6.390625 0 "/></g></g></g><g fill="#61888d" fill-opacity="1"><g transform="translate(929.339749, 78.807512)"><g><path d="M 40.15625 -43.109375 L 40.15625 -34.265625 L 36.0625 -34.265625 C 36.59375 -33.359375 36.859375 -31.632812 36.859375 -29.09375 L 36.859375 0 L 25.71875 0 L 25.71875 -31.03125 C 25.71875 -32.425781 25.609375 -33.3125 25.390625 -33.6875 C 25.179688 -34.070312 24.738281 -34.265625 24.0625 -34.265625 L 18.609375 -34.265625 C 17.984375 -34.265625 17.5625 -34.070312 17.34375 -33.6875 C 17.132812 -33.3125 17.03125 -32.425781 17.03125 -31.03125 L 17.03125 0 L 5.890625 0 L 5.890625 -29.09375 C 5.890625 -31.632812 6.15625 -33.359375 6.6875 -34.265625 L 2.59375 -34.265625 L 2.59375 -43.109375 Z M 40.15625 -43.109375 "/></g></g></g><g fill="#61888d" fill-opacity="1"><g transform="translate(970.643339, 78.807512)"><g><path d="M 0.21875 0 L 0.21875 -8.84375 L 6.171875 -8.84375 C 7.179688 -8.84375 7.851562 -9.007812 8.1875 -9.34375 C 8.519531 -9.675781 8.6875 -10.367188 8.6875 -11.421875 L 8.6875 -32.109375 C 8.6875 -32.972656 8.539062 -33.546875 8.25 -33.828125 C 7.96875 -34.117188 7.421875 -34.265625 6.609375 -34.265625 L 4.09375 -34.265625 L 4.09375 -43.109375 L 13.21875 -43.109375 C 15.613281 -43.109375 17.3125 -42.566406 18.3125 -41.484375 C 19.320312 -40.410156 19.828125 -38.601562 19.828125 -36.0625 L 19.828125 -7.1875 C 19.828125 -4.550781 19.3125 -2.691406 18.28125 -1.609375 C 17.25 -0.535156 15.515625 0 13.078125 0 Z M 0.21875 0 "/></g></g></g><g fill="#61888d" fill-opacity="1"><g transform="translate(994.060767, 78.807512)"><g><path d="M 22.5625 0 L 22.5625 -32.109375 C 22.5625 -32.972656 22.40625 -33.546875 22.09375 -33.828125 C 21.78125 -34.117188 21.191406 -34.265625 20.328125 -34.265625 L 3.734375 -34.265625 L 3.734375 -43.109375 L 27.15625 -43.109375 C 29.550781 -43.109375 31.238281 -42.546875 32.21875 -41.421875 C 33.195312 -40.296875 33.6875 -38.367188 33.6875 -35.640625 L 33.6875 0 Z M 7.40625 0 C 4.957031 0 3.734375 -1.242188 3.734375 -3.734375 L 3.734375 -26.875 L 14.875 -26.875 L 14.875 -10.203125 C 14.875 -9.296875 15.234375 -8.84375 15.953125 -8.84375 L 16.890625 -8.84375 L 16.890625 0 Z M 7.40625 0 "/></g></g></g><g fill="#61888d" fill-opacity="1"><g transform="translate(107.445643, 148.294434)"><g><path d="M 1.9375 -11.96875 L 1.9375 -17.703125 L 7.671875 -17.703125 L 7.671875 -11.96875 Z M 1.9375 0 L 1.9375 -5.734375 L 7.671875 -5.734375 L 7.671875 0 Z M 1.9375 0 "/></g></g></g><g fill="#61888d" fill-opacity="1"><g transform="translate(117.044167, 148.294434)"><g/></g></g><g fill="#61888d" fill-opacity="1"><g transform="translate(123.997159, 148.294434)"><g><path d="M 5.90625 4.578125 C 4.925781 3.035156 4.144531 1.285156 3.5625 -0.671875 C 2.976562 -2.640625 2.585938 -4.710938 2.390625 -6.890625 C 2.203125 -9.078125 2.203125 -11.257812 2.390625 -13.4375 C 2.585938 -15.625 2.976562 -17.703125 3.5625 -19.671875 C 4.144531 -21.640625 4.925781 -23.394531 5.90625 -24.9375 L 10.34375 -24.9375 C 9.507812 -23.394531 8.84375 -21.640625 8.34375 -19.671875 C 7.84375 -17.703125 7.507812 -15.625 7.34375 -13.4375 C 7.175781 -11.257812 7.175781 -9.078125 7.34375 -6.890625 C 7.507812 -4.710938 7.84375 -2.640625 8.34375 -0.671875 C 8.84375 1.285156 9.507812 3.035156 10.34375 4.578125 Z M 5.90625 4.578125 "/></g></g></g><g fill="#61888d" fill-opacity="1"><g transform="translate(134.986287, 148.294434)"><g><path d="M 0.46875 -20.359375 L 12.953125 -20.359375 L 12.953125 -16.1875 L 12.28125 -16.1875 C 11.582031 -16.1875 11.234375 -15.722656 11.234375 -14.796875 L 11.234375 0 L 6.28125 0 L 6.28125 -14.015625 C 6.28125 -14.960938 6.425781 -15.6875 6.71875 -16.1875 L 0.46875 -16.1875 Z M 0.46875 -20.359375 "/></g></g></g><g fill="#61888d" fill-opacity="1"><g transform="translate(149.19754, 148.294434)"><g><path d="M 1.28125 -15.734375 L 1.859375 -23.0625 L 5.9375 -23.0625 L 4.515625 -15.734375 Z M 6.484375 -15.734375 L 7.0625 -23.0625 L 11.125 -23.0625 L 9.703125 -15.734375 Z M 6.484375 -15.734375 "/></g></g></g><g fill="#61888d" fill-opacity="1"><g transform="translate(160.865003, 148.294434)"><g><path d="M 16.3125 -2.890625 C 16.363281 -1.890625 16.15625 -1.15625 15.6875 -0.6875 C 15.226562 -0.226562 14.46875 0 13.40625 0 L 8.40625 0 L 8.40625 -4.171875 L 10.109375 -4.171875 C 10.472656 -4.171875 10.695312 -4.242188 10.78125 -4.390625 C 10.875 -4.535156 10.910156 -4.78125 10.890625 -5.125 L 10.375 -14.515625 C 10.351562 -15.171875 10.269531 -15.632812 10.125 -15.90625 C 9.976562 -16.175781 9.710938 -16.3125 9.328125 -16.3125 L 9.1875 -16.3125 C 8.894531 -16.3125 8.6875 -16.226562 8.5625 -16.0625 C 8.4375 -15.894531 8.34375 -15.550781 8.28125 -15.03125 L 6.28125 0 L 0.921875 0 L 2.8125 -13.0625 C 3.019531 -14.488281 3.414062 -15.53125 4 -16.1875 L 1.5 -16.1875 L 1.5 -20.359375 L 11.15625 -20.359375 C 12.445312 -20.359375 13.488281 -20.003906 14.28125 -19.296875 C 15.070312 -18.597656 15.515625 -17.273438 15.609375 -15.328125 Z M 16.3125 -2.890625 "/></g></g></g><g fill="#61888d" fill-opacity="1"><g transform="translate(178.264438, 148.294434)"><g><path d="M 16.3125 -2.890625 C 16.363281 -1.890625 16.15625 -1.15625 15.6875 -0.6875 C 15.226562 -0.226562 14.46875 0 13.40625 0 L 8.40625 0 L 8.40625 -4.171875 L 10.109375 -4.171875 C 10.472656 -4.171875 10.695312 -4.242188 10.78125 -4.390625 C 10.875 -4.535156 10.910156 -4.78125 10.890625 -5.125 L 10.375 -14.515625 C 10.351562 -15.171875 10.269531 -15.632812 10.125 -15.90625 C 9.976562 -16.175781 9.710938 -16.3125 9.328125 -16.3125 L 9.1875 -16.3125 C 8.894531 -16.3125 8.6875 -16.226562 8.5625 -16.0625 C 8.4375 -15.894531 8.34375 -15.550781 8.28125 -15.03125 L 6.28125 0 L 0.921875 0 L 2.8125 -13.0625 C 3.019531 -14.488281 3.414062 -15.53125 4 -16.1875 L 1.5 -16.1875 L 1.5 -20.359375 L 11.15625 -20.359375 C 12.445312 -20.359375 13.488281 -20.003906 14.28125 -19.296875 C 15.070312 -18.597656 15.515625 -17.273438 15.609375 -15.328125 Z M 16.3125 -2.890625 "/></g></g></g><g fill="#61888d" fill-opacity="1"><g transform="translate(195.799547, 148.294434)"><g><path d="M 5.09375 4.578125 L 0.640625 4.578125 C 1.484375 3.035156 2.148438 1.285156 2.640625 -0.671875 C 3.140625 -2.640625 3.472656 -4.710938 3.640625 -6.890625 C 3.816406 -9.078125 3.816406 -11.257812 3.640625 -13.4375 C 3.472656 -15.625 3.140625 -17.703125 2.640625 -19.671875 C 2.148438 -21.640625 1.484375 -23.394531 0.640625 -24.9375 L 5.09375 -24.9375 C 6.0625 -23.394531 6.835938 -21.640625 7.421875 -19.671875 C 8.015625 -17.703125 8.40625 -15.625 8.59375 -13.4375 C 8.789062 -11.257812 8.789062 -9.078125 8.59375 -6.890625 C 8.40625 -4.710938 8.015625 -2.640625 7.421875 -0.671875 C 6.835938 1.285156 6.0625 3.035156 5.09375 4.578125 Z M 5.09375 4.578125 "/></g></g></g><g fill="#61888d" fill-opacity="1"><g transform="translate(206.788675, 148.294434)"><g/></g></g><g fill="#61888d" fill-opacity="1"><g transform="translate(213.741667, 148.294434)"><g><path d="M 2.984375 -8.609375 L 2.984375 -15.4375 C 2.984375 -15.75 2.929688 -15.953125 2.828125 -16.046875 C 2.734375 -16.140625 2.523438 -16.1875 2.203125 -16.1875 L 0.921875 -16.1875 L 0.921875 -20.359375 L 5.5625 -20.359375 C 6.53125 -20.359375 7.210938 -20.160156 7.609375 -19.765625 C 8.003906 -19.367188 8.203125 -18.679688 8.203125 -17.703125 L 8.203125 -8.609375 Z M 2.984375 -8.609375 "/></g></g></g><g fill="#61888d" fill-opacity="1"><g transform="translate(223.441932, 148.294434)"><g><path d="M 13.359375 -20.359375 C 14.628906 -20.359375 15.53125 -20.09375 16.0625 -19.5625 C 16.59375 -19.03125 16.859375 -18.117188 16.859375 -16.828125 L 16.859375 0 L 11.59375 0 L 11.59375 -15.03125 C 11.59375 -15.476562 11.515625 -15.800781 11.359375 -16 C 11.203125 -16.207031 10.910156 -16.3125 10.484375 -16.3125 L 9.5625 -16.3125 C 8.789062 -16.3125 8.257812 -16.070312 7.96875 -15.59375 C 7.675781 -15.125 7.664062 -14.132812 7.9375 -12.625 L 9.15625 -5.5 C 9.5 -3.644531 9.398438 -2.265625 8.859375 -1.359375 C 8.316406 -0.453125 7.21875 0 5.5625 0 L 1.046875 0 L 1.046875 -4.171875 L 3.046875 -4.171875 C 3.367188 -4.171875 3.613281 -4.257812 3.78125 -4.4375 C 3.945312 -4.625 4 -4.96875 3.9375 -5.46875 L 2.8125 -11.9375 C 2.582031 -13.207031 2.546875 -14.164062 2.703125 -14.8125 C 2.867188 -15.457031 3.078125 -15.914062 3.328125 -16.1875 L 1.125 -16.1875 L 1.125 -20.359375 Z M 13.359375 -20.359375 "/></g></g></g><g fill="#61888d" fill-opacity="1"><g transform="translate(242.028466, 148.294434)"><g><path d="M 6.484375 0 L 6.484375 -14.953125 C 6.484375 -15.773438 6.078125 -16.1875 5.265625 -16.1875 L 0.46875 -16.1875 L 0.46875 -20.359375 L 8.3125 -20.359375 C 9.570312 -20.359375 10.457031 -20.097656 10.96875 -19.578125 C 11.476562 -19.054688 11.734375 -18.171875 11.734375 -16.921875 L 11.734375 0 Z M 6.484375 0 "/></g></g></g><g fill="#61888d" fill-opacity="1"><g transform="translate(255.629204, 148.294434)"><g><path d="M 2.984375 -8.609375 L 2.984375 -15.4375 C 2.984375 -15.75 2.929688 -15.953125 2.828125 -16.046875 C 2.734375 -16.140625 2.523438 -16.1875 2.203125 -16.1875 L 0.921875 -16.1875 L 0.921875 -20.359375 L 5.5625 -20.359375 C 6.53125 -20.359375 7.210938 -20.160156 7.609375 -19.765625 C 8.003906 -19.367188 8.203125 -18.679688 8.203125 -17.703125 L 8.203125 -8.609375 Z M 2.984375 -8.609375 "/></g></g></g><g fill="#61888d" fill-opacity="1"><g transform="translate(265.600817, 148.294434)"><g><path d="M 0.46875 -20.359375 L 12.953125 -20.359375 L 12.953125 -16.1875 L 12.28125 -16.1875 C 11.582031 -16.1875 11.234375 -15.722656 11.234375 -14.796875 L 11.234375 0 L 6.28125 0 L 6.28125 -14.015625 C 6.28125 -14.960938 6.425781 -15.6875 6.71875 -16.1875 L 0.46875 -16.1875 Z M 0.46875 -20.359375 "/></g></g></g><g fill="#61888d" fill-opacity="1"><g transform="translate(279.472892, 148.294434)"><g/></g></g><g fill="#61888d" fill-opacity="1"><g transform="translate(286.425884, 148.294434)"><g><path d="M 3.015625 5.1875 L 3.015625 -15.4375 C 3.015625 -15.75 2.960938 -15.953125 2.859375 -16.046875 C 2.765625 -16.140625 2.554688 -16.1875 2.234375 -16.1875 L 1.015625 -16.1875 L 1.015625 -20.359375 L 6 -20.359375 C 6.84375 -20.359375 7.429688 -20.1875 7.765625 -19.84375 C 8.109375 -19.5 8.28125 -18.921875 8.28125 -18.109375 L 8.28125 5.1875 Z M 3.015625 5.1875 "/></g></g></g><g fill="#61888d" fill-opacity="1"><g transform="translate(296.567081, 148.294434)"><g><path d="M 12.78125 0 L 8.046875 0 L 6.03125 -7.125 C 5.832031 -7.03125 5.695312 -6.925781 5.625 -6.8125 C 5.5625 -6.707031 5.519531 -6.5625 5.5 -6.375 L 5.015625 0 L 0.03125 0 L 0.984375 -7.765625 C 1.078125 -8.492188 1.269531 -9.046875 1.5625 -9.421875 C 1.851562 -9.804688 2.304688 -10.125 2.921875 -10.375 L 5.046875 -11.265625 C 5.410156 -11.421875 5.679688 -11.628906 5.859375 -11.890625 C 6.046875 -12.148438 6.140625 -12.53125 6.140625 -13.03125 L 6.140625 -15.265625 C 6.140625 -15.648438 6.082031 -15.898438 5.96875 -16.015625 C 5.851562 -16.128906 5.601562 -16.1875 5.21875 -16.1875 L 2.78125 -16.1875 L 2.78125 -20.359375 L 8.203125 -20.359375 C 9.203125 -20.359375 9.929688 -20.101562 10.390625 -19.59375 C 10.859375 -19.082031 11.09375 -18.257812 11.09375 -17.125 L 11.09375 -10.75 C 11.09375 -10.226562 11.023438 -9.804688 10.890625 -9.484375 C 10.753906 -9.171875 10.5625 -8.925781 10.3125 -8.75 Z M 12.78125 0 "/></g></g></g><g fill="#61888d" fill-opacity="1"><g transform="translate(309.387697, 148.294434)"><g><path d="M 3.015625 0 L 3.015625 -15.4375 C 3.015625 -15.75 2.960938 -15.953125 2.859375 -16.046875 C 2.765625 -16.140625 2.554688 -16.1875 2.234375 -16.1875 L 1.015625 -16.1875 L 1.015625 -20.359375 L 6 -20.359375 C 6.84375 -20.359375 7.429688 -20.1875 7.765625 -19.84375 C 8.109375 -19.5 8.28125 -18.921875 8.28125 -18.109375 L 8.28125 0 Z M 3.015625 0 "/></g></g></g><g fill="#61888d" fill-opacity="1"><g transform="translate(319.528906, 148.294434)"><g><path d="M 16.3125 -2.890625 C 16.363281 -1.890625 16.15625 -1.15625 15.6875 -0.6875 C 15.226562 -0.226562 14.46875 0 13.40625 0 L 8.40625 0 L 8.40625 -4.171875 L 10.109375 -4.171875 C 10.472656 -4.171875 10.695312 -4.242188 10.78125 -4.390625 C 10.875 -4.535156 10.910156 -4.78125 10.890625 -5.125 L 10.375 -14.515625 C 10.351562 -15.171875 10.269531 -15.632812 10.125 -15.90625 C 9.976562 -16.175781 9.710938 -16.3125 9.328125 -16.3125 L 9.1875 -16.3125 C 8.894531 -16.3125 8.6875 -16.226562 8.5625 -16.0625 C 8.4375 -15.894531 8.34375 -15.550781 8.28125 -15.03125 L 6.28125 0 L 0.921875 0 L 2.8125 -13.0625 C 3.019531 -14.488281 3.414062 -15.53125 4 -16.1875 L 1.5 -16.1875 L 1.5 -20.359375 L 11.15625 -20.359375 C 12.445312 -20.359375 13.488281 -20.003906 14.28125 -19.296875 C 15.070312 -18.597656 15.515625 -17.273438 15.609375 -15.328125 Z M 16.3125 -2.890625 "/></g></g></g><g fill="#61888d" fill-opacity="1"><g transform="translate(337.064026, 148.294434)"><g/></g></g><g fill="#61888d" fill-opacity="1"><g transform="translate(344.016996, 148.294434)"><g><path d="M 12.984375 -4.171875 L 14.015625 -4.171875 L 14.015625 0 L 0.609375 0 L 0.609375 -4.171875 L 7.21875 -4.171875 C 7.15625 -4.304688 7.097656 -4.46875 7.046875 -4.65625 C 7.003906 -4.851562 6.984375 -5.066406 6.984375 -5.296875 L 6.984375 -15.15625 C 6.984375 -15.570312 6.914062 -15.847656 6.78125 -15.984375 C 6.644531 -16.117188 6.375 -16.1875 5.96875 -16.1875 L 0.984375 -16.1875 L 0.984375 -20.359375 L 8.984375 -20.359375 C 10.179688 -20.359375 11.023438 -20.09375 11.515625 -19.5625 C 12.003906 -19.03125 12.25 -18.117188 12.25 -16.828125 L 12.25 -5.015625 C 12.25 -4.453125 12.492188 -4.171875 12.984375 -4.171875 Z M 12.984375 -4.171875 "/></g></g></g><g fill="#61888d" fill-opacity="1"><g transform="translate(358.024733, 148.294434)"><g><path d="M 18.96875 -20.359375 L 18.96875 -16.1875 L 17.03125 -16.1875 C 17.28125 -15.75 17.40625 -14.929688 17.40625 -13.734375 L 17.40625 0 L 12.140625 0 L 12.140625 -14.65625 C 12.140625 -15.3125 12.085938 -15.726562 11.984375 -15.90625 C 11.890625 -16.09375 11.679688 -16.1875 11.359375 -16.1875 L 8.78125 -16.1875 C 8.488281 -16.1875 8.289062 -16.09375 8.1875 -15.90625 C 8.09375 -15.726562 8.046875 -15.3125 8.046875 -14.65625 L 8.046875 0 L 2.78125 0 L 2.78125 -13.734375 C 2.78125 -14.929688 2.90625 -15.75 3.15625 -16.1875 L 1.21875 -16.1875 L 1.21875 -20.359375 Z M 18.96875 -20.359375 "/></g></g></g><g fill="#61888d" fill-opacity="1"><g transform="translate(378.408879, 148.294434)"><g><path d="M 6.484375 0 L 6.484375 -14.953125 C 6.484375 -15.773438 6.078125 -16.1875 5.265625 -16.1875 L 0.46875 -16.1875 L 0.46875 -20.359375 L 8.3125 -20.359375 C 9.570312 -20.359375 10.457031 -20.097656 10.96875 -19.578125 C 11.476562 -19.054688 11.734375 -18.171875 11.734375 -16.921875 L 11.734375 0 Z M 6.484375 0 "/></g></g></g><g fill="#61888d" fill-opacity="1"><g transform="translate(392.009629, 148.294434)"><g><path d="M 16.3125 -2.890625 C 16.363281 -1.890625 16.15625 -1.15625 15.6875 -0.6875 C 15.226562 -0.226562 14.46875 0 13.40625 0 L 8.40625 0 L 8.40625 -4.171875 L 10.109375 -4.171875 C 10.472656 -4.171875 10.695312 -4.242188 10.78125 -4.390625 C 10.875 -4.535156 10.910156 -4.78125 10.890625 -5.125 L 10.375 -14.515625 C 10.351562 -15.171875 10.269531 -15.632812 10.125 -15.90625 C 9.976562 -16.175781 9.710938 -16.3125 9.328125 -16.3125 L 9.1875 -16.3125 C 8.894531 -16.3125 8.6875 -16.226562 8.5625 -16.0625 C 8.4375 -15.894531 8.34375 -15.550781 8.28125 -15.03125 L 6.28125 0 L 0.921875 0 L 2.8125 -13.0625 C 3.019531 -14.488281 3.414062 -15.53125 4 -16.1875 L 1.5 -16.1875 L 1.5 -20.359375 L 11.15625 -20.359375 C 12.445312 -20.359375 13.488281 -20.003906 14.28125 -19.296875 C 15.070312 -18.597656 15.515625 -17.273438 15.609375 -15.328125 Z M 16.3125 -2.890625 "/></g></g></g><g fill="#61888d" fill-opacity="1"><g transform="translate(409.544726, 148.294434)"><g/></g></g><g fill="#61888d" fill-opacity="1"><g transform="translate(416.497719, 148.294434)"><g><path d="M 3.015625 5.1875 L 3.015625 -15.4375 C 3.015625 -15.75 2.960938 -15.953125 2.859375 -16.046875 C 2.765625 -16.140625 2.554688 -16.1875 2.234375 -16.1875 L 1.015625 -16.1875 L 1.015625 -20.359375 L 6 -20.359375 C 6.84375 -20.359375 7.429688 -20.1875 7.765625 -19.84375 C 8.109375 -19.5 8.28125 -18.921875 8.28125 -18.109375 L 8.28125 5.1875 Z M 3.015625 5.1875 "/></g></g></g><g fill="#61888d" fill-opacity="1"><g transform="translate(426.638927, 148.294434)"><g><path d="M 3.015625 0 L 3.015625 -15.4375 C 3.015625 -15.75 2.960938 -15.953125 2.859375 -16.046875 C 2.765625 -16.140625 2.554688 -16.1875 2.234375 -16.1875 L 1.015625 -16.1875 L 1.015625 -20.359375 L 6 -20.359375 C 6.84375 -20.359375 7.429688 -20.1875 7.765625 -19.84375 C 8.109375 -19.5 8.28125 -18.921875 8.28125 -18.109375 L 8.28125 0 Z M 3.015625 0 "/></g></g></g><g fill="#61888d" fill-opacity="1"><g transform="translate(436.780113, 148.294434)"><g><path d="M 0.109375 0 L 0.109375 -4.171875 L 2.921875 -4.171875 C 3.390625 -4.171875 3.703125 -4.25 3.859375 -4.40625 C 4.023438 -4.5625 4.109375 -4.890625 4.109375 -5.390625 L 4.109375 -15.15625 C 4.109375 -15.570312 4.039062 -15.847656 3.90625 -15.984375 C 3.769531 -16.117188 3.507812 -16.1875 3.125 -16.1875 L 1.9375 -16.1875 L 1.9375 -20.359375 L 6.234375 -20.359375 C 7.367188 -20.359375 8.171875 -20.101562 8.640625 -19.59375 C 9.117188 -19.082031 9.359375 -18.226562 9.359375 -17.03125 L 9.359375 -3.390625 C 9.359375 -2.148438 9.113281 -1.273438 8.625 -0.765625 C 8.144531 -0.253906 7.328125 0 6.171875 0 Z M 0.109375 0 "/></g></g></g><g fill="#61888d" fill-opacity="1"><g transform="translate(447.599633, 148.294434)"><g><path d="M 0.609375 0 L 0.609375 -4.171875 L 5.828125 -4.171875 C 6.234375 -4.171875 6.507812 -4.238281 6.65625 -4.375 C 6.8125 -4.507812 6.890625 -4.769531 6.890625 -5.15625 L 6.890625 -15.15625 C 6.890625 -15.570312 6.8125 -15.847656 6.65625 -15.984375 C 6.507812 -16.117188 6.234375 -16.1875 5.828125 -16.1875 L 0.984375 -16.1875 L 0.984375 -20.359375 L 8.921875 -20.359375 C 10.097656 -20.359375 10.925781 -20.113281 11.40625 -19.625 C 11.894531 -19.132812 12.140625 -18.300781 12.140625 -17.125 L 12.140625 -3.1875 C 12.140625 -2.03125 11.894531 -1.207031 11.40625 -0.71875 C 10.925781 -0.238281 10.097656 0 8.921875 0 Z M 0.609375 0 "/></g></g></g><g fill="#61888d" fill-opacity="1"><g transform="translate(461.437798, 148.294434)"><g><path d="M 13.359375 -20.359375 C 14.628906 -20.359375 15.53125 -20.09375 16.0625 -19.5625 C 16.59375 -19.03125 16.859375 -18.117188 16.859375 -16.828125 L 16.859375 0 L 11.59375 0 L 11.59375 -15.03125 C 11.59375 -15.476562 11.515625 -15.800781 11.359375 -16 C 11.203125 -16.207031 10.910156 -16.3125 10.484375 -16.3125 L 9.5625 -16.3125 C 8.789062 -16.3125 8.257812 -16.070312 7.96875 -15.59375 C 7.675781 -15.125 7.664062 -14.132812 7.9375 -12.625 L 9.15625 -5.5 C 9.5 -3.644531 9.398438 -2.265625 8.859375 -1.359375 C 8.316406 -0.453125 7.21875 0 5.5625 0 L 1.046875 0 L 1.046875 -4.171875 L 3.046875 -4.171875 C 3.367188 -4.171875 3.613281 -4.257812 3.78125 -4.4375 C 3.945312 -4.625 4 -4.96875 3.9375 -5.46875 L 2.8125 -11.9375 C 2.582031 -13.207031 2.546875 -14.164062 2.703125 -14.8125 C 2.867188 -15.457031 3.078125 -15.914062 3.328125 -16.1875 L 1.125 -16.1875 L 1.125 -20.359375 Z M 13.359375 -20.359375 "/></g></g></g><g fill="#61888d" fill-opacity="1"><g transform="translate(480.193926, 148.294434)"><g><path d="M 12.984375 -4.171875 L 14.015625 -4.171875 L 14.015625 0 L 0.609375 0 L 0.609375 -4.171875 L 7.21875 -4.171875 C 7.15625 -4.304688 7.097656 -4.46875 7.046875 -4.65625 C 7.003906 -4.851562 6.984375 -5.066406 6.984375 -5.296875 L 6.984375 -15.15625 C 6.984375 -15.570312 6.914062 -15.847656 6.78125 -15.984375 C 6.644531 -16.117188 6.375 -16.1875 5.96875 -16.1875 L 0.984375 -16.1875 L 0.984375 -20.359375 L 8.984375 -20.359375 C 10.179688 -20.359375 11.023438 -20.09375 11.515625 -19.5625 C 12.003906 -19.03125 12.25 -18.117188 12.25 -16.828125 L 12.25 -5.015625 C 12.25 -4.453125 12.492188 -4.171875 12.984375 -4.171875 Z M 12.984375 -4.171875 "/></g></g></g><g fill="#61888d" fill-opacity="1"><g transform="translate(494.506921, 148.294434)"><g/></g></g><g fill="#61888d" fill-opacity="1"><g transform="translate(501.459936, 148.294434)"><g><path d="M 13.53125 -20.359375 C 14.726562 -20.359375 15.664062 -20.191406 16.34375 -19.859375 C 17.03125 -19.535156 17.5 -18.953125 17.75 -18.109375 C 18.007812 -17.273438 18.085938 -16.085938 17.984375 -14.546875 L 17.375 -5.421875 C 17.320312 -4.660156 17.195312 -3.960938 17 -3.328125 C 16.8125 -2.691406 16.472656 -2.148438 15.984375 -1.703125 C 15.503906 -1.265625 14.789062 -0.96875 13.84375 -0.8125 L 7.703125 0.203125 C 6.296875 0.453125 5.320312 0.359375 4.78125 -0.078125 C 4.238281 -0.523438 3.921875 -1.28125 3.828125 -2.34375 L 2.953125 -13.875 C 2.910156 -14.394531 2.945312 -14.851562 3.0625 -15.25 C 3.1875 -15.644531 3.363281 -15.976562 3.59375 -16.25 C 2.957031 -16.34375 2.335938 -16.550781 1.734375 -16.875 C 1.140625 -17.207031 0.648438 -17.703125 0.265625 -18.359375 L 3.015625 -21.5 C 3.335938 -21.007812 3.660156 -20.695312 3.984375 -20.5625 C 4.316406 -20.425781 4.742188 -20.359375 5.265625 -20.359375 Z M 12.921875 -13.125 C 12.960938 -14.03125 12.96875 -14.710938 12.9375 -15.171875 C 12.90625 -15.640625 12.769531 -15.953125 12.53125 -16.109375 C 12.289062 -16.265625 11.878906 -16.332031 11.296875 -16.3125 L 8.65625 -16.25 C 8.113281 -16.113281 7.875 -15.660156 7.9375 -14.890625 L 8.71875 -5.265625 C 8.757812 -4.828125 8.875 -4.539062 9.0625 -4.40625 C 9.257812 -4.269531 9.539062 -4.226562 9.90625 -4.28125 L 11.390625 -4.578125 C 11.804688 -4.648438 12.097656 -4.820312 12.265625 -5.09375 C 12.429688 -5.363281 12.523438 -5.789062 12.546875 -6.375 Z M 12.921875 -13.125 "/></g></g></g><g fill="#61888d" fill-opacity="1"><g transform="translate(520.758714, 148.294434)"><g><path d="M 2.984375 -8.609375 L 2.984375 -15.4375 C 2.984375 -15.75 2.929688 -15.953125 2.828125 -16.046875 C 2.734375 -16.140625 2.523438 -16.1875 2.203125 -16.1875 L 0.921875 -16.1875 L 0.921875 -20.359375 L 5.5625 -20.359375 C 6.53125 -20.359375 7.210938 -20.160156 7.609375 -19.765625 C 8.003906 -19.367188 8.203125 -18.679688 8.203125 -17.703125 L 8.203125 -8.609375 Z M 2.984375 -8.609375 "/></g></g></g><g fill="#61888d" fill-opacity="1"><g transform="translate(530.628575, 148.294434)"><g><path d="M 13.53125 -20.359375 C 14.726562 -20.359375 15.664062 -20.191406 16.34375 -19.859375 C 17.03125 -19.535156 17.5 -18.953125 17.75 -18.109375 C 18.007812 -17.273438 18.085938 -16.085938 17.984375 -14.546875 L 17.375 -5.421875 C 17.320312 -4.660156 17.195312 -3.960938 17 -3.328125 C 16.8125 -2.691406 16.472656 -2.148438 15.984375 -1.703125 C 15.503906 -1.265625 14.789062 -0.96875 13.84375 -0.8125 L 7.703125 0.203125 C 6.296875 0.453125 5.320312 0.359375 4.78125 -0.078125 C 4.238281 -0.523438 3.921875 -1.28125 3.828125 -2.34375 L 2.953125 -13.875 C 2.910156 -14.394531 2.945312 -14.851562 3.0625 -15.25 C 3.1875 -15.644531 3.363281 -15.976562 3.59375 -16.25 C 2.957031 -16.34375 2.335938 -16.550781 1.734375 -16.875 C 1.140625 -17.207031 0.648438 -17.703125 0.265625 -18.359375 L 3.015625 -21.5 C 3.335938 -21.007812 3.660156 -20.695312 3.984375 -20.5625 C 4.316406 -20.425781 4.742188 -20.359375 5.265625 -20.359375 Z M 12.921875 -13.125 C 12.960938 -14.03125 12.96875 -14.710938 12.9375 -15.171875 C 12.90625 -15.640625 12.769531 -15.953125 12.53125 -16.109375 C 12.289062 -16.265625 11.878906 -16.332031 11.296875 -16.3125 L 8.65625 -16.25 C 8.113281 -16.113281 7.875 -15.660156 7.9375 -14.890625 L 8.71875 -5.265625 C 8.757812 -4.828125 8.875 -4.539062 9.0625 -4.40625 C 9.257812 -4.269531 9.539062 -4.226562 9.90625 -4.28125 L 11.390625 -4.578125 C 11.804688 -4.648438 12.097656 -4.820312 12.265625 -5.09375 C 12.429688 -5.363281 12.523438 -5.789062 12.546875 -6.375 Z M 12.921875 -13.125 "/></g></g></g><g fill="#61888d" fill-opacity="1"><g transform="translate(549.791714, 148.294434)"><g><path d="M 12.984375 -4.171875 L 14.015625 -4.171875 L 14.015625 0 L 0.609375 0 L 0.609375 -4.171875 L 7.21875 -4.171875 C 7.15625 -4.304688 7.097656 -4.46875 7.046875 -4.65625 C 7.003906 -4.851562 6.984375 -5.066406 6.984375 -5.296875 L 6.984375 -15.15625 C 6.984375 -15.570312 6.914062 -15.847656 6.78125 -15.984375 C 6.644531 -16.117188 6.375 -16.1875 5.96875 -16.1875 L 0.984375 -16.1875 L 0.984375 -20.359375 L 8.984375 -20.359375 C 10.179688 -20.359375 11.023438 -20.09375 11.515625 -19.5625 C 12.003906 -19.03125 12.25 -18.117188 12.25 -16.828125 L 12.25 -5.015625 C 12.25 -4.453125 12.492188 -4.171875 12.984375 -4.171875 Z M 12.984375 -4.171875 "/></g></g></g><g fill="#61888d" fill-opacity="1"><g transform="translate(564.104709, 148.294434)"><g><path d="M 10.65625 0 L 10.65625 -15.15625 C 10.65625 -15.570312 10.578125 -15.847656 10.421875 -15.984375 C 10.273438 -16.117188 10 -16.1875 9.59375 -16.1875 L 1.765625 -16.1875 L 1.765625 -20.359375 L 12.828125 -20.359375 C 13.953125 -20.359375 14.742188 -20.09375 15.203125 -19.5625 C 15.671875 -19.03125 15.90625 -18.117188 15.90625 -16.828125 L 15.90625 0 Z M 3.5 0 C 2.34375 0 1.765625 -0.585938 1.765625 -1.765625 L 1.765625 -12.6875 L 7.015625 -12.6875 L 7.015625 -4.8125 C 7.015625 -4.382812 7.1875 -4.171875 7.53125 -4.171875 L 7.96875 -4.171875 L 7.96875 0 Z M 3.5 0 "/></g></g></g><g fill="#61888d" fill-opacity="1"><g transform="translate(581.877244, 148.294434)"><g/></g></g><g fill="#61888d" fill-opacity="1"><g transform="translate(588.830214, 148.294434)"><g><path d="M 13.359375 -20.359375 C 14.628906 -20.359375 15.53125 -20.09375 16.0625 -19.5625 C 16.59375 -19.03125 16.859375 -18.117188 16.859375 -16.828125 L 16.859375 0 L 11.59375 0 L 11.59375 -15.03125 C 11.59375 -15.476562 11.515625 -15.800781 11.359375 -16 C 11.203125 -16.207031 10.910156 -16.3125 10.484375 -16.3125 L 9.5625 -16.3125 C 8.789062 -16.3125 8.257812 -16.070312 7.96875 -15.59375 C 7.675781 -15.125 7.664062 -14.132812 7.9375 -12.625 L 9.15625 -5.5 C 9.5 -3.644531 9.398438 -2.265625 8.859375 -1.359375 C 8.316406 -0.453125 7.21875 0 5.5625 0 L 1.046875 0 L 1.046875 -4.171875 L 3.046875 -4.171875 C 3.367188 -4.171875 3.613281 -4.257812 3.78125 -4.4375 C 3.945312 -4.625 4 -4.96875 3.9375 -5.46875 L 2.8125 -11.9375 C 2.582031 -13.207031 2.546875 -14.164062 2.703125 -14.8125 C 2.867188 -15.457031 3.078125 -15.914062 3.328125 -16.1875 L 1.125 -16.1875 L 1.125 -20.359375 Z M 13.359375 -20.359375 "/></g></g></g><g fill="#61888d" fill-opacity="1"><g transform="translate(607.586342, 148.294434)"><g><path d="M 3.015625 0 L 3.015625 -15.4375 C 3.015625 -15.75 2.960938 -15.953125 2.859375 -16.046875 C 2.765625 -16.140625 2.554688 -16.1875 2.234375 -16.1875 L 1.015625 -16.1875 L 1.015625 -20.359375 L 6 -20.359375 C 6.84375 -20.359375 7.429688 -20.1875 7.765625 -19.84375 C 8.109375 -19.5 8.28125 -18.921875 8.28125 -18.109375 L 8.28125 0 Z M 3.015625 0 "/></g></g></g><g fill="#61888d" fill-opacity="1"><g transform="translate(617.727573, 148.294434)"><g><path d="M 0.109375 0 L 0.109375 -4.171875 L 2.921875 -4.171875 C 3.390625 -4.171875 3.703125 -4.25 3.859375 -4.40625 C 4.023438 -4.5625 4.109375 -4.890625 4.109375 -5.390625 L 4.109375 -15.15625 C 4.109375 -15.570312 4.039062 -15.847656 3.90625 -15.984375 C 3.769531 -16.117188 3.507812 -16.1875 3.125 -16.1875 L 1.9375 -16.1875 L 1.9375 -20.359375 L 6.234375 -20.359375 C 7.367188 -20.359375 8.171875 -20.101562 8.640625 -19.59375 C 9.117188 -19.082031 9.359375 -18.226562 9.359375 -17.03125 L 9.359375 -3.390625 C 9.359375 -2.148438 9.113281 -1.273438 8.625 -0.765625 C 8.144531 -0.253906 7.328125 0 6.171875 0 Z M 0.109375 0 "/></g></g></g><g fill="#61888d" fill-opacity="1"><g transform="translate(628.784532, 148.294434)"><g><path d="M 3.015625 0 L 3.015625 -15.4375 C 3.015625 -15.75 2.960938 -15.953125 2.859375 -16.046875 C 2.765625 -16.140625 2.554688 -16.1875 2.234375 -16.1875 L 1.015625 -16.1875 L 1.015625 -20.359375 L 6 -20.359375 C 6.84375 -20.359375 7.429688 -20.1875 7.765625 -19.84375 C 8.109375 -19.5 8.28125 -18.921875 8.28125 -18.109375 L 8.28125 0 Z M 3.015625 0 "/></g></g></g><g fill="#61888d" fill-opacity="1"><g transform="translate(638.790032, 148.294434)"><g><path d="M 6.484375 0 L 6.484375 -14.953125 C 6.484375 -15.773438 6.078125 -16.1875 5.265625 -16.1875 L 0.46875 -16.1875 L 0.46875 -20.359375 L 8.3125 -20.359375 C 9.570312 -20.359375 10.457031 -20.097656 10.96875 -19.578125 C 11.476562 -19.054688 11.734375 -18.171875 11.734375 -16.921875 L 11.734375 0 Z M 6.484375 0 "/></g></g></g><g fill="#61888d" fill-opacity="1"><g transform="translate(652.390759, 148.294434)"><g><path d="M 15.875 -20.359375 C 16.875 -20.359375 17.539062 -20.015625 17.875 -19.328125 C 18.21875 -18.648438 18.273438 -17.816406 18.046875 -16.828125 L 14.59375 0 L 9.265625 0 L 12.25 -15.359375 C 12.3125 -15.742188 12.320312 -16 12.28125 -16.125 C 12.238281 -16.25 12.023438 -16.3125 11.640625 -16.3125 L 8.953125 -16.3125 C 8.679688 -16.3125 8.46875 -16.273438 8.3125 -16.203125 C 8.15625 -16.140625 8.078125 -15.882812 8.078125 -15.4375 L 8.078125 0.8125 C 8.078125 1.082031 8.210938 1.21875 8.484375 1.21875 L 9.296875 1.21875 L 9.296875 5.1875 L 4.6875 5.1875 C 3.4375 5.1875 2.8125 4.566406 2.8125 3.328125 L 2.8125 -14.796875 C 2.8125 -15.472656 2.9375 -15.9375 3.1875 -16.1875 L 1.21875 -16.1875 L 1.21875 -20.359375 Z M 15.875 -20.359375 "/></g></g></g><g fill="#61888d" fill-opacity="1"><g transform="translate(671.519965, 148.294434)"><g><path d="M 10.40625 -20.359375 L 15.671875 -20.359375 L 15.671875 -10.203125 C 15.671875 -8.710938 15.5 -7.488281 15.15625 -6.53125 C 14.820312 -5.570312 14.332031 -4.78125 13.6875 -4.15625 C 13.039062 -3.53125 12.257812 -3 11.34375 -2.5625 C 10.425781 -2.125 9.40625 -1.675781 8.28125 -1.21875 L 2.265625 1.15625 L 0.8125 -2.8125 L 4.28125 -4.140625 C 3.414062 -4.953125 2.914062 -6.046875 2.78125 -7.421875 L 1.390625 -20.359375 L 6.65625 -20.359375 L 8.171875 -6.8125 C 8.222656 -6.40625 8.316406 -6.140625 8.453125 -6.015625 C 8.585938 -5.890625 8.765625 -5.863281 8.984375 -5.9375 L 9.15625 -6 C 9.539062 -6.1875 9.84375 -6.445312 10.0625 -6.78125 C 10.289062 -7.125 10.40625 -7.632812 10.40625 -8.3125 Z M 10.40625 -20.359375 "/></g></g></g><g fill="#61888d" fill-opacity="1"><g transform="translate(688.851603, 148.294434)"><g/></g></g><g fill="#61888d" fill-opacity="1"><g transform="translate(695.804573, 148.294434)"><g><path d="M 13.359375 -20.359375 C 14.628906 -20.359375 15.53125 -20.09375 16.0625 -19.5625 C 16.59375 -19.03125 16.859375 -18.117188 16.859375 -16.828125 L 16.859375 0 L 11.59375 0 L 11.59375 -15.03125 C 11.59375 -15.476562 11.515625 -15.800781 11.359375 -16 C 11.203125 -16.207031 10.910156 -16.3125 10.484375 -16.3125 L 9.5625 -16.3125 C 8.789062 -16.3125 8.257812 -16.070312 7.96875 -15.59375 C 7.675781 -15.125 7.664062 -14.132812 7.9375 -12.625 L 9.15625 -5.5 C 9.5 -3.644531 9.398438 -2.265625 8.859375 -1.359375 C 8.316406 -0.453125 7.21875 0 5.5625 0 L 1.046875 0 L 1.046875 -4.171875 L 3.046875 -4.171875 C 3.367188 -4.171875 3.613281 -4.257812 3.78125 -4.4375 C 3.945312 -4.625 4 -4.96875 3.9375 -5.46875 L 2.8125 -11.9375 C 2.582031 -13.207031 2.546875 -14.164062 2.703125 -14.8125 C 2.867188 -15.457031 3.078125 -15.914062 3.328125 -16.1875 L 1.125 -16.1875 L 1.125 -20.359375 Z M 13.359375 -20.359375 "/></g></g></g><g fill="#61888d" fill-opacity="1"><g transform="translate(714.560701, 148.294434)"><g><path d="M 6.78125 -10.65625 C 6.488281 -10.539062 6.316406 -10.378906 6.265625 -10.171875 C 6.222656 -9.972656 6.257812 -9.644531 6.375 -9.1875 L 7.90625 -4.28125 C 8.289062 -3.050781 8.367188 -2.03125 8.140625 -1.21875 C 7.910156 -0.40625 7.222656 0 6.078125 0 L 1.15625 0 L 1.15625 -4.171875 L 2.234375 -4.171875 C 2.535156 -4.171875 2.660156 -4.296875 2.609375 -4.546875 L 1.734375 -8.78125 C 1.503906 -9.84375 1.484375 -10.710938 1.671875 -11.390625 C 1.867188 -12.078125 2.195312 -12.644531 2.65625 -13.09375 C 3.125 -13.539062 3.628906 -13.914062 4.171875 -14.21875 L 4.6875 -14.484375 L 1.1875 -20.359375 L 6.546875 -20.359375 L 11.296875 -11.8125 C 11.472656 -11.914062 11.59375 -12.050781 11.65625 -12.21875 C 11.726562 -12.394531 11.765625 -12.675781 11.765625 -13.0625 L 11.765625 -20.359375 L 16.796875 -20.359375 L 16.796875 -12.65625 C 16.796875 -11.613281 16.582031 -10.734375 16.15625 -10.015625 C 15.738281 -9.304688 15.007812 -8.632812 13.96875 -8 L 13.5 -7.703125 L 17.46875 0 L 12.171875 0 L 6.8125 -10.65625 Z M 6.78125 -10.65625 "/></g></g></g><g fill="#61888d" fill-opacity="1"><g transform="translate(732.740247, 148.294434)"><g/></g></g><g fill="#61888d" fill-opacity="1"><g transform="translate(739.693262, 148.294434)"><g><path d="M 6.484375 0 L 6.484375 -14.953125 C 6.484375 -15.773438 6.078125 -16.1875 5.265625 -16.1875 L 0.46875 -16.1875 L 0.46875 -20.359375 L 8.3125 -20.359375 C 9.570312 -20.359375 10.457031 -20.097656 10.96875 -19.578125 C 11.476562 -19.054688 11.734375 -18.171875 11.734375 -16.921875 L 11.734375 0 Z M 6.484375 0 "/></g></g></g><g fill="#61888d" fill-opacity="1"><g transform="translate(753.293989, 148.294434)"><g><path d="M 2.984375 -8.609375 L 2.984375 -15.4375 C 2.984375 -15.75 2.929688 -15.953125 2.828125 -16.046875 C 2.734375 -16.140625 2.523438 -16.1875 2.203125 -16.1875 L 0.921875 -16.1875 L 0.921875 -20.359375 L 5.5625 -20.359375 C 6.53125 -20.359375 7.210938 -20.160156 7.609375 -19.765625 C 8.003906 -19.367188 8.203125 -18.679688 8.203125 -17.703125 L 8.203125 -8.609375 Z M 2.984375 -8.609375 "/></g></g></g><g fill="#61888d" fill-opacity="1"><g transform="translate(763.16385, 148.294434)"><g><path d="M 0.609375 0 L 0.609375 -4.171875 L 5.828125 -4.171875 C 6.234375 -4.171875 6.507812 -4.238281 6.65625 -4.375 C 6.8125 -4.507812 6.890625 -4.769531 6.890625 -5.15625 L 6.890625 -15.15625 C 6.890625 -15.570312 6.8125 -15.847656 6.65625 -15.984375 C 6.507812 -16.117188 6.234375 -16.1875 5.828125 -16.1875 L 0.984375 -16.1875 L 0.984375 -20.359375 L 8.921875 -20.359375 C 10.097656 -20.359375 10.925781 -20.113281 11.40625 -19.625 C 11.894531 -19.132812 12.140625 -18.300781 12.140625 -17.125 L 12.140625 -3.1875 C 12.140625 -2.03125 11.894531 -1.207031 11.40625 -0.71875 C 10.925781 -0.238281 10.097656 0 8.921875 0 Z M 0.609375 0 "/></g></g></g><g fill="#61888d" fill-opacity="1"><g transform="translate(777.002014, 148.294434)"><g><path d="M 10.65625 0 L 10.65625 -15.15625 C 10.65625 -15.570312 10.578125 -15.847656 10.421875 -15.984375 C 10.273438 -16.117188 10 -16.1875 9.59375 -16.1875 L 1.765625 -16.1875 L 1.765625 -20.359375 L 12.828125 -20.359375 C 13.953125 -20.359375 14.742188 -20.09375 15.203125 -19.5625 C 15.671875 -19.03125 15.90625 -18.117188 15.90625 -16.828125 L 15.90625 0 Z M 3.5 0 C 2.34375 0 1.765625 -0.585938 1.765625 -1.765625 L 1.765625 -12.6875 L 7.015625 -12.6875 L 7.015625 -4.8125 C 7.015625 -4.382812 7.1875 -4.171875 7.53125 -4.171875 L 7.96875 -4.171875 L 7.96875 0 Z M 3.5 0 "/></g></g></g><g fill="#61888d" fill-opacity="1"><g transform="translate(794.604932, 148.294434)"><g><path d="M 5.421875 0 C 4.109375 0 3.226562 -0.410156 2.78125 -1.234375 C 2.332031 -2.054688 2.351562 -3.238281 2.84375 -4.78125 L 6.171875 -15.09375 C 6.398438 -15.820312 6.148438 -16.1875 5.421875 -16.1875 L 1.453125 -16.1875 C 1.097656 -16.1875 0.84375 -16.257812 0.6875 -16.40625 C 0.539062 -16.550781 0.46875 -16.816406 0.46875 -17.203125 L 0.46875 -23.0625 L 5.421875 -23.0625 L 5.421875 -20.359375 L 9.0625 -20.359375 C 10.34375 -20.359375 11.238281 -19.929688 11.75 -19.078125 C 12.257812 -18.234375 12.289062 -17.109375 11.84375 -15.703125 L 8.25 -5.046875 C 8.15625 -4.804688 8.132812 -4.597656 8.1875 -4.421875 C 8.25 -4.253906 8.425781 -4.171875 8.71875 -4.171875 L 10.203125 -4.171875 L 10.203125 0 Z M 5.421875 0 "/></g></g></g><g fill="#61888d" fill-opacity="1"><g transform="translate(807.696896, 148.294434)"><g/></g></g><g fill="#61888d" fill-opacity="1"><g transform="translate(814.649911, 148.294434)"><g><path d="M 12.984375 -4.171875 L 14.015625 -4.171875 L 14.015625 0 L 0.609375 0 L 0.609375 -4.171875 L 7.21875 -4.171875 C 7.15625 -4.304688 7.097656 -4.46875 7.046875 -4.65625 C 7.003906 -4.851562 6.984375 -5.066406 6.984375 -5.296875 L 6.984375 -15.15625 C 6.984375 -15.570312 6.914062 -15.847656 6.78125 -15.984375 C 6.644531 -16.117188 6.375 -16.1875 5.96875 -16.1875 L 0.984375 -16.1875 L 0.984375 -20.359375 L 8.984375 -20.359375 C 10.179688 -20.359375 11.023438 -20.09375 11.515625 -19.5625 C 12.003906 -19.03125 12.25 -18.117188 12.25 -16.828125 L 12.25 -5.015625 C 12.25 -4.453125 12.492188 -4.171875 12.984375 -4.171875 Z M 12.984375 -4.171875 "/></g></g></g><g fill="#61888d" fill-opacity="1"><g transform="translate(828.827221, 148.294434)"><g><path d="M 3.015625 0 L 3.015625 -15.4375 C 3.015625 -15.75 2.960938 -15.953125 2.859375 -16.046875 C 2.765625 -16.140625 2.554688 -16.1875 2.234375 -16.1875 L 1.015625 -16.1875 L 1.015625 -20.359375 L 6 -20.359375 C 6.84375 -20.359375 7.429688 -20.1875 7.765625 -19.84375 C 8.109375 -19.5 8.28125 -18.921875 8.28125 -18.109375 L 8.28125 0 Z M 3.015625 0 "/></g></g></g><g fill="#61888d" fill-opacity="1"><g transform="translate(838.968406, 148.294434)"><g><path d="M 15.328125 -20.359375 L 20.421875 -20.359375 L 19.4375 -7.21875 C 19.257812 -4.625 18.585938 -2.769531 17.421875 -1.65625 C 16.253906 -0.550781 14.425781 0 11.9375 0 L 5.15625 0 C 4.269531 0 3.628906 -0.222656 3.234375 -0.671875 C 2.835938 -1.128906 2.582031 -1.765625 2.46875 -2.578125 L 1.90625 -6.921875 C 1.71875 -8.023438 2.019531 -8.875 2.8125 -9.46875 L 1.15625 -20.359375 L 6.28125 -20.359375 L 7.671875 -11.15625 L 7.703125 -11.15625 C 8.015625 -11.269531 8.207031 -11.394531 8.28125 -11.53125 C 8.363281 -11.664062 8.40625 -11.914062 8.40625 -12.28125 L 8.40625 -20.359375 L 13.46875 -20.359375 L 13.46875 -11.265625 C 13.46875 -10.265625 13.304688 -9.546875 12.984375 -9.109375 C 12.671875 -8.671875 12.164062 -8.328125 11.46875 -8.078125 L 7.796875 -6.8125 C 7.410156 -6.65625 7.175781 -6.515625 7.09375 -6.390625 C 7.019531 -6.265625 7.007812 -6.023438 7.0625 -5.671875 L 7.1875 -4.78125 C 7.238281 -4.488281 7.347656 -4.300781 7.515625 -4.21875 C 7.679688 -4.144531 7.9375 -4.109375 8.28125 -4.109375 L 10.546875 -4.109375 C 11.492188 -4.109375 12.234375 -4.191406 12.765625 -4.359375 C 13.296875 -4.523438 13.679688 -4.859375 13.921875 -5.359375 C 14.160156 -5.859375 14.316406 -6.582031 14.390625 -7.53125 Z M 15.328125 -20.359375 "/></g></g></g><g fill="#61888d" fill-opacity="1"><g transform="translate(860.57356, 148.294434)"><g><path d="M 18.96875 -20.359375 L 18.96875 -16.1875 L 17.03125 -16.1875 C 17.28125 -15.75 17.40625 -14.929688 17.40625 -13.734375 L 17.40625 0 L 12.140625 0 L 12.140625 -14.65625 C 12.140625 -15.3125 12.085938 -15.726562 11.984375 -15.90625 C 11.890625 -16.09375 11.679688 -16.1875 11.359375 -16.1875 L 8.78125 -16.1875 C 8.488281 -16.1875 8.289062 -16.09375 8.1875 -15.90625 C 8.09375 -15.726562 8.046875 -15.3125 8.046875 -14.65625 L 8.046875 0 L 2.78125 0 L 2.78125 -13.734375 C 2.78125 -14.929688 2.90625 -15.75 3.15625 -16.1875 L 1.21875 -16.1875 L 1.21875 -20.359375 Z M 18.96875 -20.359375 "/></g></g></g><g fill="#61888d" fill-opacity="1"><g transform="translate(880.754179, 148.294434)"><g/></g></g><g fill="#61888d" fill-opacity="1"><g transform="translate(887.70724, 148.294434)"><g><path d="M 0.984375 2.953125 L 1.9375 -6.234375 L 7.015625 -6.234375 L 4.84375 2.953125 Z M 0.984375 2.953125 "/></g></g></g><g fill="#61888d" fill-opacity="1"><g transform="translate(894.795849, 148.294434)"><g><path d="M 14.109375 -20.359375 C 15.109375 -20.359375 15.820312 -20.140625 16.25 -19.703125 C 16.675781 -19.273438 16.890625 -18.550781 16.890625 -17.53125 L 16.890625 -1.25 C 16.890625 -0.800781 16.789062 -0.476562 16.59375 -0.28125 C 16.40625 -0.09375 16.085938 0 15.640625 0 L 3.859375 0 C 3.410156 0 3.085938 -0.09375 2.890625 -0.28125 C 2.703125 -0.476562 2.609375 -0.800781 2.609375 -1.25 L 2.609375 -14.015625 C 2.609375 -15.023438 2.78125 -15.75 3.125 -16.1875 L 1.21875 -16.1875 L 1.21875 -20.359375 Z M 11.765625 -4.4375 L 11.765625 -15.15625 C 11.765625 -15.613281 11.695312 -15.921875 11.5625 -16.078125 C 11.425781 -16.234375 11.15625 -16.3125 10.75 -16.3125 L 8.71875 -16.3125 C 8.3125 -16.3125 8.046875 -16.207031 7.921875 -16 C 7.796875 -15.800781 7.734375 -15.46875 7.734375 -15 L 7.734375 -4.4375 C 7.734375 -4.28125 7.757812 -4.171875 7.8125 -4.109375 C 7.875 -4.054688 7.984375 -4.03125 8.140625 -4.03125 L 11.359375 -4.03125 C 11.546875 -4.03125 11.660156 -4.054688 11.703125 -4.109375 C 11.742188 -4.171875 11.765625 -4.28125 11.765625 -4.4375 Z M 11.765625 -4.4375 "/></g></g></g><g fill="#61888d" fill-opacity="1"><g transform="translate(913.416292, 148.294434)"><g><path d="M 2.984375 -8.609375 L 2.984375 -15.4375 C 2.984375 -15.75 2.929688 -15.953125 2.828125 -16.046875 C 2.734375 -16.140625 2.523438 -16.1875 2.203125 -16.1875 L 0.921875 -16.1875 L 0.921875 -20.359375 L 5.5625 -20.359375 C 6.53125 -20.359375 7.210938 -20.160156 7.609375 -19.765625 C 8.003906 -19.367188 8.203125 -18.679688 8.203125 -17.703125 L 8.203125 -8.609375 Z M 2.984375 -8.609375 "/></g></g></g><g fill="#61888d" fill-opacity="1"><g transform="translate(923.184355, 148.294434)"><g><path d="M 2.984375 -8.609375 L 2.984375 -15.4375 C 2.984375 -15.75 2.929688 -15.953125 2.828125 -16.046875 C 2.734375 -16.140625 2.523438 -16.1875 2.203125 -16.1875 L 0.921875 -16.1875 L 0.921875 -20.359375 L 5.5625 -20.359375 C 6.53125 -20.359375 7.210938 -20.160156 7.609375 -19.765625 C 8.003906 -19.367188 8.203125 -18.679688 8.203125 -17.703125 L 8.203125 -8.609375 Z M 2.984375 -8.609375 "/></g></g></g><g fill="#61888d" fill-opacity="1"><g transform="translate(932.24024, 148.294434)"><g><path d="M 0.109375 0 L 0.109375 -4.171875 L 2.921875 -4.171875 C 3.390625 -4.171875 3.703125 -4.25 3.859375 -4.40625 C 4.023438 -4.5625 4.109375 -4.890625 4.109375 -5.390625 L 4.109375 -15.15625 C 4.109375 -15.570312 4.039062 -15.847656 3.90625 -15.984375 C 3.769531 -16.117188 3.507812 -16.1875 3.125 -16.1875 L 1.9375 -16.1875 L 1.9375 -20.359375 L 6.234375 -20.359375 C 7.367188 -20.359375 8.171875 -20.101562 8.640625 -19.59375 C 9.117188 -19.082031 9.359375 -18.226562 9.359375 -17.03125 L 9.359375 -3.390625 C 9.359375 -2.148438 9.113281 -1.273438 8.625 -0.765625 C 8.144531 -0.253906 7.328125 0 6.171875 0 Z M 0.109375 0 "/></g></g></g><g fill="#61888d" fill-opacity="1"><g transform="translate(943.059807, 148.294434)"><g><path d="M 0.609375 0 L 0.609375 -4.171875 L 5.828125 -4.171875 C 6.234375 -4.171875 6.507812 -4.238281 6.65625 -4.375 C 6.8125 -4.507812 6.890625 -4.769531 6.890625 -5.15625 L 6.890625 -15.15625 C 6.890625 -15.570312 6.8125 -15.847656 6.65625 -15.984375 C 6.507812 -16.117188 6.234375 -16.1875 5.828125 -16.1875 L 0.984375 -16.1875 L 0.984375 -20.359375 L 8.921875 -20.359375 C 10.097656 -20.359375 10.925781 -20.113281 11.40625 -19.625 C 11.894531 -19.132812 12.140625 -18.300781 12.140625 -17.125 L 12.140625 -3.1875 C 12.140625 -2.03125 11.894531 -1.207031 11.40625 -0.71875 C 10.925781 -0.238281 10.097656 0 8.921875 0 Z M 0.609375 0 "/></g></g></g><g fill="#61888d" fill-opacity="1"><g transform="translate(956.89788, 148.294434)"><g><path d="M 9.84375 -0.203125 C 9.09375 0.046875 8.34375 0.210938 7.59375 0.296875 C 6.851562 0.390625 6.164062 0.359375 5.53125 0.203125 C 4.894531 0.046875 4.367188 -0.265625 3.953125 -0.734375 C 3.535156 -1.210938 3.289062 -1.90625 3.21875 -2.8125 L 2.34375 -15.4375 C 2.320312 -15.75 2.273438 -15.953125 2.203125 -16.046875 C 2.140625 -16.140625 1.957031 -16.1875 1.65625 -16.1875 L 0.75 -16.1875 L 0.75 -20.359375 L 5.09375 -20.359375 C 5.832031 -20.359375 6.363281 -20.191406 6.6875 -19.859375 C 7.019531 -19.535156 7.210938 -19.007812 7.265625 -18.28125 L 8.109375 -5.359375 C 8.148438 -4.910156 8.304688 -4.628906 8.578125 -4.515625 C 8.847656 -4.398438 9.1875 -4.410156 9.59375 -4.546875 L 11.328125 -5.125 C 11.921875 -5.320312 12.257812 -5.726562 12.34375 -6.34375 C 12.4375 -6.957031 12.550781 -7.75 12.6875 -8.71875 L 13.53125 -15.4375 C 13.582031 -15.820312 13.546875 -16.097656 13.421875 -16.265625 C 13.296875 -16.429688 13.117188 -16.523438 12.890625 -16.546875 C 12.578125 -16.597656 12.359375 -16.535156 12.234375 -16.359375 C 12.109375 -16.191406 12.035156 -15.941406 12.015625 -15.609375 L 11.734375 -11.96875 L 8.515625 -12.046875 L 8.6875 -16.890625 C 8.726562 -18.140625 9.144531 -19.085938 9.9375 -19.734375 C 10.726562 -20.390625 11.882812 -20.71875 13.40625 -20.71875 C 14.351562 -20.71875 15.234375 -20.539062 16.046875 -20.1875 C 16.859375 -19.84375 17.492188 -19.304688 17.953125 -18.578125 C 18.421875 -17.859375 18.585938 -16.910156 18.453125 -15.734375 L 17.375 -6.078125 C 17.257812 -4.898438 16.914062 -3.941406 16.34375 -3.203125 C 15.78125 -2.472656 14.878906 -1.890625 13.640625 -1.453125 Z M 9.84375 -0.203125 "/></g></g></g><g fill="#61888d" fill-opacity="1"><g transform="translate(976.671489, 148.294434)"><g><path d="M 10.65625 0 L 10.65625 -15.15625 C 10.65625 -15.570312 10.578125 -15.847656 10.421875 -15.984375 C 10.273438 -16.117188 10 -16.1875 9.59375 -16.1875 L 1.765625 -16.1875 L 1.765625 -20.359375 L 12.828125 -20.359375 C 13.953125 -20.359375 14.742188 -20.09375 15.203125 -19.5625 C 15.671875 -19.03125 15.90625 -18.117188 15.90625 -16.828125 L 15.90625 0 Z M 3.5 0 C 2.34375 0 1.765625 -0.585938 1.765625 -1.765625 L 1.765625 -12.6875 L 7.015625 -12.6875 L 7.015625 -4.8125 C 7.015625 -4.382812 7.1875 -4.171875 7.53125 -4.171875 L 7.96875 -4.171875 L 7.96875 0 Z M 3.5 0 "/></g></g></g><g fill="#61888d" fill-opacity="1"><g transform="translate(994.444024, 148.294434)"><g/></g></g><g fill="#61888d" fill-opacity="1"><g transform="translate(1001.397085, 148.294434)"><g><path d="M 14.109375 -20.359375 C 15.109375 -20.359375 15.820312 -20.140625 16.25 -19.703125 C 16.675781 -19.273438 16.890625 -18.550781 16.890625 -17.53125 L 16.890625 -1.25 C 16.890625 -0.800781 16.789062 -0.476562 16.59375 -0.28125 C 16.40625 -0.09375 16.085938 0 15.640625 0 L 3.859375 0 C 3.410156 0 3.085938 -0.09375 2.890625 -0.28125 C 2.703125 -0.476562 2.609375 -0.800781 2.609375 -1.25 L 2.609375 -14.015625 C 2.609375 -15.023438 2.78125 -15.75 3.125 -16.1875 L 1.21875 -16.1875 L 1.21875 -20.359375 Z M 11.765625 -4.4375 L 11.765625 -15.15625 C 11.765625 -15.613281 11.695312 -15.921875 11.5625 -16.078125 C 11.425781 -16.234375 11.15625 -16.3125 10.75 -16.3125 L 8.71875 -16.3125 C 8.3125 -16.3125 8.046875 -16.207031 7.921875 -16 C 7.796875 -15.800781 7.734375 -15.46875 7.734375 -15 L 7.734375 -4.4375 C 7.734375 -4.28125 7.757812 -4.171875 7.8125 -4.109375 C 7.875 -4.054688 7.984375 -4.03125 8.140625 -4.03125 L 11.359375 -4.03125 C 11.546875 -4.03125 11.660156 -4.054688 11.703125 -4.109375 C 11.742188 -4.171875 11.765625 -4.28125 11.765625 -4.4375 Z M 11.765625 -4.4375 "/></g></g></g><g fill="#61888d" fill-opacity="1"><g transform="translate(1020.017528, 148.294434)"><g><path d="M 2.984375 -8.609375 L 2.984375 -15.4375 C 2.984375 -15.75 2.929688 -15.953125 2.828125 -16.046875 C 2.734375 -16.140625 2.523438 -16.1875 2.203125 -16.1875 L 0.921875 -16.1875 L 0.921875 -20.359375 L 5.5625 -20.359375 C 6.53125 -20.359375 7.210938 -20.160156 7.609375 -19.765625 C 8.003906 -19.367188 8.203125 -18.679688 8.203125 -17.703125 L 8.203125 -8.609375 Z M 2.984375 -8.609375 "/></g></g></g><g fill="#61888d" fill-opacity="1"><g transform="translate(1029.887343, 148.294434)"><g><path d="M 9.84375 -0.203125 C 9.09375 0.046875 8.34375 0.210938 7.59375 0.296875 C 6.851562 0.390625 6.164062 0.359375 5.53125 0.203125 C 4.894531 0.046875 4.367188 -0.265625 3.953125 -0.734375 C 3.535156 -1.210938 3.289062 -1.90625 3.21875 -2.8125 L 2.34375 -15.4375 C 2.320312 -15.75 2.273438 -15.953125 2.203125 -16.046875 C 2.140625 -16.140625 1.957031 -16.1875 1.65625 -16.1875 L 0.75 -16.1875 L 0.75 -20.359375 L 5.09375 -20.359375 C 5.832031 -20.359375 6.363281 -20.191406 6.6875 -19.859375 C 7.019531 -19.535156 7.210938 -19.007812 7.265625 -18.28125 L 8.109375 -5.359375 C 8.148438 -4.910156 8.304688 -4.628906 8.578125 -4.515625 C 8.847656 -4.398438 9.1875 -4.410156 9.59375 -4.546875 L 11.328125 -5.125 C 11.921875 -5.320312 12.257812 -5.726562 12.34375 -6.34375 C 12.4375 -6.957031 12.550781 -7.75 12.6875 -8.71875 L 13.53125 -15.4375 C 13.582031 -15.820312 13.546875 -16.097656 13.421875 -16.265625 C 13.296875 -16.429688 13.117188 -16.523438 12.890625 -16.546875 C 12.578125 -16.597656 12.359375 -16.535156 12.234375 -16.359375 C 12.109375 -16.191406 12.035156 -15.941406 12.015625 -15.609375 L 11.734375 -11.96875 L 8.515625 -12.046875 L 8.6875 -16.890625 C 8.726562 -18.140625 9.144531 -19.085938 9.9375 -19.734375 C 10.726562 -20.390625 11.882812 -20.71875 13.40625 -20.71875 C 14.351562 -20.71875 15.234375 -20.539062 16.046875 -20.1875 C 16.859375 -19.84375 17.492188 -19.304688 17.953125 -18.578125 C 18.421875 -17.859375 18.585938 -16.910156 18.453125 -15.734375 L 17.375 -6.078125 C 17.257812 -4.898438 16.914062 -3.941406 16.34375 -3.203125 C 15.78125 -2.472656 14.878906 -1.890625 13.640625 -1.453125 Z M 9.84375 -0.203125 "/></g></g></g><g fill="#61888d" fill-opacity="1"><g transform="translate(1049.728818, 148.294434)"><g><path d="M 6.484375 0 L 6.484375 -14.953125 C 6.484375 -15.773438 6.078125 -16.1875 5.265625 -16.1875 L 0.46875 -16.1875 L 0.46875 -20.359375 L 8.3125 -20.359375 C 9.570312 -20.359375 10.457031 -20.097656 10.96875 -19.578125 C 11.476562 -19.054688 11.734375 -18.171875 11.734375 -16.921875 L 11.734375 0 Z M 6.484375 0 "/></g></g></g><g fill="#61888d" fill-opacity="1"><g transform="translate(1063.32959, 148.294434)"><g><path d="M 1.5625 0 L 1.5625 -4.171875 L 9.53125 -4.171875 C 10.34375 -4.171875 10.75 -4.566406 10.75 -5.359375 L 10.75 -15.234375 C 10.75 -15.660156 10.707031 -15.945312 10.625 -16.09375 C 10.550781 -16.238281 10.273438 -16.3125 9.796875 -16.3125 L 8.203125 -16.3125 C 7.753906 -16.3125 7.457031 -16.238281 7.3125 -16.09375 C 7.164062 -15.945312 7.066406 -15.660156 7.015625 -15.234375 L 6.65625 -12.25 C 6.625 -11.925781 6.65625 -11.703125 6.75 -11.578125 C 6.84375 -11.453125 7.046875 -11.390625 7.359375 -11.390625 L 8.609375 -11.390625 L 8.609375 -7.328125 L 3.828125 -7.328125 C 2.816406 -7.328125 2.097656 -7.554688 1.671875 -8.015625 C 1.253906 -8.484375 1.101562 -9.210938 1.21875 -10.203125 L 2.0625 -17.4375 C 2.175781 -18.457031 2.488281 -19.195312 3 -19.65625 C 3.507812 -20.125 4.265625 -20.359375 5.265625 -20.359375 L 12.625 -20.359375 C 13.863281 -20.359375 14.738281 -20.101562 15.25 -19.59375 C 15.757812 -19.082031 16.015625 -18.191406 16.015625 -16.921875 L 16.015625 -3.390625 C 16.015625 -2.148438 15.757812 -1.273438 15.25 -0.765625 C 14.738281 -0.253906 13.863281 0 12.625 0 Z M 1.5625 0 "/></g></g></g><g fill="#61888d" fill-opacity="1"><g transform="translate(1081.068148, 148.294434)"><g><path d="M 5.421875 0 C 4.109375 0 3.226562 -0.410156 2.78125 -1.234375 C 2.332031 -2.054688 2.351562 -3.238281 2.84375 -4.78125 L 6.171875 -15.09375 C 6.398438 -15.820312 6.148438 -16.1875 5.421875 -16.1875 L 1.453125 -16.1875 C 1.097656 -16.1875 0.84375 -16.257812 0.6875 -16.40625 C 0.539062 -16.550781 0.46875 -16.816406 0.46875 -17.203125 L 0.46875 -23.0625 L 5.421875 -23.0625 L 5.421875 -20.359375 L 9.0625 -20.359375 C 10.34375 -20.359375 11.238281 -19.929688 11.75 -19.078125 C 12.257812 -18.234375 12.289062 -17.109375 11.84375 -15.703125 L 8.25 -5.046875 C 8.15625 -4.804688 8.132812 -4.597656 8.1875 -4.421875 C 8.25 -4.253906 8.425781 -4.171875 8.71875 -4.171875 L 10.203125 -4.171875 L 10.203125 0 Z M 5.421875 0 "/></g></g></g><g fill="#61888d" fill-opacity="1"><g transform="translate(1094.160157, 148.294434)"><g/></g></g><g fill="#61888d" fill-opacity="1"><g transform="translate(1101.113126, 148.294434)"><g><path d="M 5.421875 0 C 4.109375 0 3.226562 -0.410156 2.78125 -1.234375 C 2.332031 -2.054688 2.351562 -3.238281 2.84375 -4.78125 L 6.171875 -15.09375 C 6.398438 -15.820312 6.148438 -16.1875 5.421875 -16.1875 L 1.453125 -16.1875 C 1.097656 -16.1875 0.84375 -16.257812 0.6875 -16.40625 C 0.539062 -16.550781 0.46875 -16.816406 0.46875 -17.203125 L 0.46875 -23.0625 L 5.421875 -23.0625 L 5.421875 -20.359375 L 9.0625 -20.359375 C 10.34375 -20.359375 11.238281 -19.929688 11.75 -19.078125 C 12.257812 -18.234375 12.289062 -17.109375 11.84375 -15.703125 L 8.25 -5.046875 C 8.15625 -4.804688 8.132812 -4.597656 8.1875 -4.421875 C 8.25 -4.253906 8.425781 -4.171875 8.71875 -4.171875 L 10.203125 -4.171875 L 10.203125 0 Z M 5.421875 0 "/></g></g></g><g fill="#61888d" fill-opacity="1"><g transform="translate(1114.578259, 148.294434)"><g><path d="M 3.015625 0 L 3.015625 -15.4375 C 3.015625 -15.75 2.960938 -15.953125 2.859375 -16.046875 C 2.765625 -16.140625 2.554688 -16.1875 2.234375 -16.1875 L 1.015625 -16.1875 L 1.015625 -20.359375 L 6 -20.359375 C 6.84375 -20.359375 7.429688 -20.1875 7.765625 -19.84375 C 8.109375 -19.5 8.28125 -18.921875 8.28125 -18.109375 L 8.28125 0 Z M 3.015625 0 "/></g></g></g><g fill="#61888d" fill-opacity="1"><g transform="translate(1124.583805, 148.294434)"><g><path d="M 5.421875 0 C 4.109375 0 3.226562 -0.410156 2.78125 -1.234375 C 2.332031 -2.054688 2.351562 -3.238281 2.84375 -4.78125 L 6.171875 -15.09375 C 6.398438 -15.820312 6.148438 -16.1875 5.421875 -16.1875 L 1.453125 -16.1875 C 1.097656 -16.1875 0.84375 -16.257812 0.6875 -16.40625 C 0.539062 -16.550781 0.46875 -16.816406 0.46875 -17.203125 L 0.46875 -23.0625 L 5.421875 -23.0625 L 5.421875 -20.359375 L 9.0625 -20.359375 C 10.34375 -20.359375 11.238281 -19.929688 11.75 -19.078125 C 12.257812 -18.234375 12.289062 -17.109375 11.84375 -15.703125 L 8.25 -5.046875 C 8.15625 -4.804688 8.132812 -4.597656 8.1875 -4.421875 C 8.25 -4.253906 8.425781 -4.171875 8.71875 -4.171875 L 10.203125 -4.171875 L 10.203125 0 Z M 5.421875 0 "/></g></g></g><g fill="#61888d" fill-opacity="1"><g transform="translate(1137.573971, 148.294434)"><g><path d="M 14.078125 -7.90625 L 15 -3.5625 C 15.21875 -2.519531 15.097656 -1.664062 14.640625 -1 C 14.191406 -0.332031 13.40625 0 12.28125 0 L 0.78125 0 L 0.78125 -4.171875 L 8.65625 -4.171875 C 8.96875 -4.171875 9.1875 -4.253906 9.3125 -4.421875 C 9.4375 -4.597656 9.441406 -4.96875 9.328125 -5.53125 L 9.09375 -6.546875 C 9.019531 -6.929688 8.882812 -7.226562 8.6875 -7.4375 C 8.5 -7.65625 8.238281 -7.84375 7.90625 -8 L 4.375 -9.703125 C 3.96875 -9.878906 3.65625 -10.085938 3.4375 -10.328125 C 3.226562 -10.566406 3.066406 -10.921875 2.953125 -11.390625 L 0.75 -20.359375 L 6.078125 -20.359375 L 7.90625 -12.921875 L 9.734375 -20.359375 L 15.125 -20.359375 L 12.421875 -9.90625 C 12.847656 -9.695312 13.207031 -9.441406 13.5 -9.140625 C 13.789062 -8.835938 13.984375 -8.425781 14.078125 -7.90625 Z M 14.078125 -7.90625 "/></g></g></g><g fill="#61888d" fill-opacity="1"><g transform="translate(1154.125476, 148.294434)"><g><path d="M 0.109375 0 L 0.109375 -4.171875 L 2.921875 -4.171875 C 3.390625 -4.171875 3.703125 -4.25 3.859375 -4.40625 C 4.023438 -4.5625 4.109375 -4.890625 4.109375 -5.390625 L 4.109375 -15.15625 C 4.109375 -15.570312 4.039062 -15.847656 3.90625 -15.984375 C 3.769531 -16.117188 3.507812 -16.1875 3.125 -16.1875 L 1.9375 -16.1875 L 1.9375 -20.359375 L 6.234375 -20.359375 C 7.367188 -20.359375 8.171875 -20.101562 8.640625 -19.59375 C 9.117188 -19.082031 9.359375 -18.226562 9.359375 -17.03125 L 9.359375 -3.390625 C 9.359375 -2.148438 9.113281 -1.273438 8.625 -0.765625 C 8.144531 -0.253906 7.328125 0 6.171875 0 Z M 0.109375 0 "/></g></g></g><g fill="#61888d" fill-opacity="1"><g transform="translate(1165.182435, 148.294434)"><g/></g></g><g fill="#61888d" fill-opacity="1"><g transform="translate(1172.135404, 148.294434)"><g><path d="M 14.109375 -20.359375 C 15.109375 -20.359375 15.820312 -20.140625 16.25 -19.703125 C 16.675781 -19.273438 16.890625 -18.550781 16.890625 -17.53125 L 16.890625 -1.25 C 16.890625 -0.800781 16.789062 -0.476562 16.59375 -0.28125 C 16.40625 -0.09375 16.085938 0 15.640625 0 L 3.859375 0 C 3.410156 0 3.085938 -0.09375 2.890625 -0.28125 C 2.703125 -0.476562 2.609375 -0.800781 2.609375 -1.25 L 2.609375 -14.015625 C 2.609375 -15.023438 2.78125 -15.75 3.125 -16.1875 L 1.21875 -16.1875 L 1.21875 -20.359375 Z M 11.765625 -4.4375 L 11.765625 -15.15625 C 11.765625 -15.613281 11.695312 -15.921875 11.5625 -16.078125 C 11.425781 -16.234375 11.15625 -16.3125 10.75 -16.3125 L 8.71875 -16.3125 C 8.3125 -16.3125 8.046875 -16.207031 7.921875 -16 C 7.796875 -15.800781 7.734375 -15.46875 7.734375 -15 L 7.734375 -4.4375 C 7.734375 -4.28125 7.757812 -4.171875 7.8125 -4.109375 C 7.875 -4.054688 7.984375 -4.03125 8.140625 -4.03125 L 11.359375 -4.03125 C 11.546875 -4.03125 11.660156 -4.054688 11.703125 -4.109375 C 11.742188 -4.171875 11.765625 -4.28125 11.765625 -4.4375 Z M 11.765625 -4.4375 "/></g></g></g><g fill="#61888d" fill-opacity="1"><g transform="translate(1190.72196, 148.294434)"><g><path d="M 6.484375 0 L 6.484375 -14.953125 C 6.484375 -15.773438 6.078125 -16.1875 5.265625 -16.1875 L 0.46875 -16.1875 L 0.46875 -20.359375 L 8.3125 -20.359375 C 9.570312 -20.359375 10.457031 -20.097656 10.96875 -19.578125 C 11.476562 -19.054688 11.734375 -18.171875 11.734375 -16.921875 L 11.734375 0 Z M 6.484375 0 "/></g></g></g><g fill="#61888d" fill-opacity="1"><g transform="translate(1204.322733, 148.294434)"><g><path d="M 9.84375 -0.203125 C 9.09375 0.046875 8.34375 0.210938 7.59375 0.296875 C 6.851562 0.390625 6.164062 0.359375 5.53125 0.203125 C 4.894531 0.046875 4.367188 -0.265625 3.953125 -0.734375 C 3.535156 -1.210938 3.289062 -1.90625 3.21875 -2.8125 L 2.34375 -15.4375 C 2.320312 -15.75 2.273438 -15.953125 2.203125 -16.046875 C 2.140625 -16.140625 1.957031 -16.1875 1.65625 -16.1875 L 0.75 -16.1875 L 0.75 -20.359375 L 5.09375 -20.359375 C 5.832031 -20.359375 6.363281 -20.191406 6.6875 -19.859375 C 7.019531 -19.535156 7.210938 -19.007812 7.265625 -18.28125 L 8.109375 -5.359375 C 8.148438 -4.910156 8.304688 -4.628906 8.578125 -4.515625 C 8.847656 -4.398438 9.1875 -4.410156 9.59375 -4.546875 L 11.328125 -5.125 C 11.921875 -5.320312 12.257812 -5.726562 12.34375 -6.34375 C 12.4375 -6.957031 12.550781 -7.75 12.6875 -8.71875 L 13.53125 -15.4375 C 13.582031 -15.820312 13.546875 -16.097656 13.421875 -16.265625 C 13.296875 -16.429688 13.117188 -16.523438 12.890625 -16.546875 C 12.578125 -16.597656 12.359375 -16.535156 12.234375 -16.359375 C 12.109375 -16.191406 12.035156 -15.941406 12.015625 -15.609375 L 11.734375 -11.96875 L 8.515625 -12.046875 L 8.6875 -16.890625 C 8.726562 -18.140625 9.144531 -19.085938 9.9375 -19.734375 C 10.726562 -20.390625 11.882812 -20.71875 13.40625 -20.71875 C 14.351562 -20.71875 15.234375 -20.539062 16.046875 -20.1875 C 16.859375 -19.84375 17.492188 -19.304688 17.953125 -18.578125 C 18.421875 -17.859375 18.585938 -16.910156 18.453125 -15.734375 L 17.375 -6.078125 C 17.257812 -4.898438 16.914062 -3.941406 16.34375 -3.203125 C 15.78125 -2.472656 14.878906 -1.890625 13.640625 -1.453125 Z M 9.84375 -0.203125 "/></g></g></g><g fill="#61888d" fill-opacity="1"><g transform="translate(1223.825062, 148.294434)"><g><path d="M 12.984375 -4.171875 L 14.015625 -4.171875 L 14.015625 0 L 0.609375 0 L 0.609375 -4.171875 L 7.21875 -4.171875 C 7.15625 -4.304688 7.097656 -4.46875 7.046875 -4.65625 C 7.003906 -4.851562 6.984375 -5.066406 6.984375 -5.296875 L 6.984375 -15.15625 C 6.984375 -15.570312 6.914062 -15.847656 6.78125 -15.984375 C 6.644531 -16.117188 6.375 -16.1875 5.96875 -16.1875 L 0.984375 -16.1875 L 0.984375 -20.359375 L 8.984375 -20.359375 C 10.179688 -20.359375 11.023438 -20.09375 11.515625 -19.5625 C 12.003906 -19.03125 12.25 -18.117188 12.25 -16.828125 L 12.25 -5.015625 C 12.25 -4.453125 12.492188 -4.171875 12.984375 -4.171875 Z M 12.984375 -4.171875 "/></g></g></g></svg>