<svg xmlns="http://www.w3.org/2000/svg" xmlns:xlink="http://www.w3.org/1999/xlink" width="46" zoomAndPan="magnify" viewBox="0 0 34.5 30.75" height="41" preserveAspectRatio="xMidYMid meet" version="1.0"><defs><clipPath id="1c73f28d4e"><path d="M 0 0.0976562 L 33.269531 0.0976562 L 33.269531 29.667969 L 0 29.667969 Z M 0 0.0976562 " clip-rule="nonzero"/></clipPath><clipPath id="d37b4b63dd"><path d="M 10.699219 11.960938 L 15.9375 11.960938 L 15.9375 17.238281 L 10.699219 17.238281 Z M 10.699219 11.960938 " clip-rule="nonzero"/></clipPath><clipPath id="42236e7285"><path d="M 0.699219 0.960938 L 5.9375 0.960938 L 5.9375 6.238281 L 0.699219 6.238281 Z M 0.699219 0.960938 " clip-rule="nonzero"/></clipPath><clipPath id="d7066c89f2"><rect x="0" width="6" y="0" height="7"/></clipPath></defs><g clip-path="url(#1c73f28d4e)"><path fill="#8f0000" d="M 7.601562 0.425781 L 8.046875 0.160156 L 8.226562 0.339844 C 8.347656 0.457031 8.644531 1.410156 9.121094 3.195312 C 9.597656 4.976562 10.285156 6.671875 11.179688 8.28125 C 12.074219 9.886719 12.640625 10.6875 12.878906 10.6875 L 13.234375 10.6875 L 13.949219 9.796875 C 14.429688 9.203125 14.875 8.636719 15.292969 8.101562 C 15.710938 7.566406 16.097656 7.058594 16.453125 6.585938 C 16.8125 6.109375 17.082031 5.78125 17.261719 5.601562 L 17.527344 5.335938 L 18.421875 5.15625 C 19.019531 5.039062 20.152344 5.125 21.820312 5.425781 L 24.324219 5.871094 L 24.054688 6.941406 C 23.878906 7.65625 23.488281 8.367188 22.894531 9.082031 C 22.296875 9.796875 21.820312 10.390625 21.464844 10.867188 C 21.105469 11.34375 20.570312 11.996094 19.851562 12.828125 C 19.136719 13.664062 18.601562 14.316406 18.242188 14.792969 C 17.886719 15.269531 17.707031 15.683594 17.707031 16.042969 L 17.707031 16.578125 L 18.871094 17.558594 C 19.644531 18.214844 20.808594 18.898438 22.359375 19.609375 C 23.90625 20.324219 26.113281 21.039062 28.976562 21.753906 L 33.269531 22.824219 L 31.300781 23.894531 C 29.988281 24.609375 28.976562 25.082031 28.261719 25.320312 C 27.542969 25.558594 26.53125 25.617188 25.21875 25.5 C 23.90625 25.382812 22.359375 25.082031 20.570312 24.609375 C 18.78125 24.132812 17.527344 23.714844 16.8125 23.359375 C 16.097656 23 15.382812 22.585938 14.667969 22.109375 C 13.949219 21.632812 13.414062 21.394531 13.058594 21.394531 L 12.519531 21.394531 L 10.375 23.359375 C 8.941406 24.667969 7.871094 25.558594 7.15625 26.035156 C 6.4375 26.511719 5.78125 26.988281 5.1875 27.464844 C 4.589844 27.9375 3.757812 28.414062 2.683594 28.890625 C 1.609375 29.367188 0.894531 29.605469 0.535156 29.605469 L 0 29.605469 L 0.269531 29.160156 C 0.445312 28.859375 0.773438 28.355469 1.253906 27.640625 C 1.730469 26.925781 2.207031 26.273438 2.683594 25.679688 C 3.160156 25.082031 3.695312 24.308594 4.292969 23.359375 C 4.890625 22.40625 5.484375 21.574219 6.082031 20.859375 C 6.675781 20.144531 7.214844 19.433594 7.691406 18.71875 L 8.40625 17.648438 L 8.226562 16.933594 C 8.109375 16.457031 7.871094 15.984375 7.511719 15.507812 C 7.15625 15.03125 6.5 13.902344 5.542969 12.117188 C 4.589844 10.332031 3.875 8.84375 3.398438 7.65625 C 2.921875 6.464844 2.683594 5.691406 2.683594 5.335938 L 2.683594 4.800781 L 4.917969 2.746094 C 6.410156 1.378906 7.304688 0.605469 7.601562 0.425781 Z M 7.601562 0.425781 " fill-opacity="1" fill-rule="evenodd"/></g><g clip-path="url(#d37b4b63dd)"><g transform="matrix(1, 0, 0, 1, 10, 11)"><g clip-path="url(#d7066c89f2)"><g clip-path="url(#42236e7285)"><path fill="#8f0000" d="M 0.699219 0.960938 L 5.9375 0.960938 L 5.9375 6.238281 L 0.699219 6.238281 Z M 0.699219 0.960938 " fill-opacity="1" fill-rule="nonzero"/></g></g></g></g></svg>