<svg xmlns="http://www.w3.org/2000/svg" xmlns:xlink="http://www.w3.org/1999/xlink" width="1668" zoomAndPan="magnify" viewBox="0 0 1251 313.499995" height="418" preserveAspectRatio="xMidYMid meet" version="1.0"><defs><g/></defs><g fill="#61888d" fill-opacity="1"><g transform="translate(221.413269, 196.383184)"><g><path d="M 0.703125 -20.96875 L 13.03125 -20.96875 L 13.03125 -17.96875 L 11.984375 -17.96875 C 11.265625 -17.96875 10.90625 -17.488281 10.90625 -16.53125 L 10.90625 0 L 7.40625 0 L 7.40625 -16.046875 C 7.40625 -16.878906 7.535156 -17.519531 7.796875 -17.96875 L 0.703125 -17.96875 Z M 0.703125 -20.96875 "/></g></g></g><g fill="#61888d" fill-opacity="1"><g transform="translate(235.742039, 196.383184)"><g><path d="M 3.703125 0 L 3.703125 -17.203125 C 3.703125 -17.710938 3.4375 -17.96875 2.90625 -17.96875 L 1.328125 -17.96875 L 1.328125 -20.96875 L 5.03125 -20.96875 C 5.875 -20.96875 6.472656 -20.789062 6.828125 -20.4375 C 7.191406 -20.09375 7.375 -19.503906 7.375 -18.671875 L 7.375 0 Z M 3.703125 0 "/></g></g></g><g fill="#61888d" fill-opacity="1"><g transform="translate(245.247939, 196.383184)"><g><path d="M 15.203125 -2.96875 C 15.253906 -1.945312 15.039062 -1.195312 14.5625 -0.71875 C 14.082031 -0.238281 13.296875 0 12.203125 0 L 7.484375 0 L 7.484375 -3 L 10.453125 -3 C 10.847656 -3 11.117188 -3.09375 11.265625 -3.28125 C 11.421875 -3.46875 11.488281 -3.75 11.46875 -4.125 L 10.9375 -15.375 C 10.894531 -16.40625 10.710938 -17.097656 10.390625 -17.453125 C 10.078125 -17.816406 9.617188 -18 9.015625 -18 L 8.3125 -18 C 7.875 -18 7.566406 -17.878906 7.390625 -17.640625 C 7.210938 -17.410156 7.09375 -16.992188 7.03125 -16.390625 L 4.921875 0 L 1.21875 0 L 3.21875 -15.34375 C 3.375 -16.53125 3.6875 -17.40625 4.15625 -17.96875 L 1.8125 -17.96875 L 1.8125 -20.96875 L 10 -20.96875 C 11.320312 -20.96875 12.394531 -20.609375 13.21875 -19.890625 C 14.050781 -19.171875 14.515625 -17.804688 14.609375 -15.796875 Z M 15.203125 -2.96875 "/></g></g></g><g fill="#61888d" fill-opacity="1"><g transform="translate(261.988104, 196.383184)"><g><path d="M 11.046875 -20.96875 L 14.71875 -20.96875 L 14.71875 -9.578125 C 14.71875 -7.878906 14.472656 -6.515625 13.984375 -5.484375 C 13.492188 -4.460938 12.773438 -3.632812 11.828125 -3 C 10.890625 -2.375 9.734375 -1.78125 8.359375 -1.21875 L 2.09375 1.265625 L 1.015625 -1.609375 L 4.96875 -3.140625 C 4.664062 -3.421875 4.40625 -3.773438 4.1875 -4.203125 C 3.976562 -4.640625 3.84375 -5.160156 3.78125 -5.765625 L 1.640625 -20.96875 L 5.3125 -20.96875 L 7.484375 -5.515625 C 7.546875 -5.023438 7.675781 -4.71875 7.875 -4.59375 C 8.070312 -4.46875 8.289062 -4.453125 8.53125 -4.546875 L 8.671875 -4.578125 C 9.441406 -4.929688 10.03125 -5.390625 10.4375 -5.953125 C 10.84375 -6.523438 11.046875 -7.394531 11.046875 -8.5625 Z M 11.046875 -20.96875 "/></g></g></g><g fill="#61888d" fill-opacity="1"><g transform="translate(278.693328, 196.383184)"><g><path d="M 11.25 0 L 11.25 -16.78125 C 11.25 -17.570312 10.863281 -17.96875 10.09375 -17.96875 L 2.03125 -17.96875 L 2.03125 -20.96875 L 11.921875 -20.96875 C 12.992188 -20.96875 13.757812 -20.707031 14.21875 -20.1875 C 14.6875 -19.664062 14.921875 -18.820312 14.921875 -17.65625 L 14.921875 0 Z M 3.8125 0 C 2.625 0 2.03125 -0.601562 2.03125 -1.8125 L 2.03125 -13.078125 L 5.703125 -13.078125 L 5.703125 -3.671875 C 5.703125 -3.222656 5.875 -3 6.21875 -3 L 6.671875 -3 L 6.671875 0 Z M 3.8125 0 "/></g></g></g><g fill="#61888d" fill-opacity="1"><g transform="translate(295.817928, 196.383184)"><g/></g></g><g fill="#61888d" fill-opacity="1"><g transform="translate(303.366736, 196.383184)"><g><path d="M 3.640625 -9.1875 L 3.640625 -17.203125 C 3.640625 -17.710938 3.367188 -17.96875 2.828125 -17.96875 L 1.1875 -17.96875 L 1.1875 -20.96875 L 4.6875 -20.96875 C 5.632812 -20.96875 6.300781 -20.773438 6.6875 -20.390625 C 7.070312 -20.003906 7.265625 -19.335938 7.265625 -18.390625 L 7.265625 -9.1875 Z M 3.640625 -9.1875 "/></g></g></g><g fill="#61888d" fill-opacity="1"><g transform="translate(312.593056, 196.383184)"><g><path d="M 0.703125 -20.96875 L 13.03125 -20.96875 L 13.03125 -17.96875 L 11.984375 -17.96875 C 11.265625 -17.96875 10.90625 -17.488281 10.90625 -16.53125 L 10.90625 0 L 7.40625 0 L 7.40625 -16.046875 C 7.40625 -16.878906 7.535156 -17.519531 7.796875 -17.96875 L 0.703125 -17.96875 Z M 0.703125 -20.96875 "/></g></g></g><g fill="#61888d" fill-opacity="1"><g transform="translate(326.956778, 196.383184)"><g><path d="M 3.640625 -9.1875 L 3.640625 -17.203125 C 3.640625 -17.710938 3.367188 -17.96875 2.828125 -17.96875 L 1.1875 -17.96875 L 1.1875 -20.96875 L 4.6875 -20.96875 C 5.632812 -20.96875 6.300781 -20.773438 6.6875 -20.390625 C 7.070312 -20.003906 7.265625 -19.335938 7.265625 -18.390625 L 7.265625 -9.1875 Z M 3.640625 -9.1875 "/></g></g></g><g fill="#61888d" fill-opacity="1"><g transform="translate(336.008328, 196.383184)"><g><path d="M 12.96875 -8.171875 L 14.015625 -3.671875 C 14.273438 -2.597656 14.164062 -1.71875 13.6875 -1.03125 C 13.207031 -0.34375 12.382812 0 11.21875 0 L 1.125 0 L 1.125 -3 L 9.1875 -3 C 9.519531 -3 9.796875 -3.101562 10.015625 -3.3125 C 10.234375 -3.53125 10.273438 -3.929688 10.140625 -4.515625 L 9.46875 -7.203125 C 9.3125 -7.847656 8.914062 -8.335938 8.28125 -8.671875 L 4.75 -10.3125 C 4.332031 -10.5 4.007812 -10.710938 3.78125 -10.953125 C 3.5625 -11.203125 3.394531 -11.570312 3.28125 -12.0625 L 1.078125 -20.96875 L 4.828125 -20.96875 L 6.8125 -12.859375 C 6.882812 -12.515625 7.109375 -12.257812 7.484375 -12.09375 L 8.078125 -11.8125 L 10.34375 -20.96875 L 14.15625 -20.96875 L 11.390625 -10.234375 C 11.785156 -10.003906 12.113281 -9.738281 12.375 -9.4375 C 12.632812 -9.132812 12.832031 -8.710938 12.96875 -8.171875 Z M 12.96875 -8.171875 "/></g></g></g><g fill="#61888d" fill-opacity="1"><g transform="translate(351.804888, 196.383184)"><g><path d="M 12.375 -3 L 13.59375 -3 L 13.59375 0 L 0.796875 0 L 0.796875 -3 L 8.171875 -3 C 8.109375 -3.144531 8.050781 -3.316406 8 -3.515625 C 7.957031 -3.710938 7.9375 -3.925781 7.9375 -4.15625 L 7.9375 -16.78125 C 7.9375 -17.21875 7.847656 -17.523438 7.671875 -17.703125 C 7.492188 -17.878906 7.1875 -17.96875 6.75 -17.96875 L 1.1875 -17.96875 L 1.1875 -20.96875 L 8.453125 -20.96875 C 9.578125 -20.96875 10.382812 -20.710938 10.875 -20.203125 C 11.363281 -19.691406 11.609375 -18.84375 11.609375 -17.65625 L 11.609375 -3.875 C 11.609375 -3.289062 11.863281 -3 12.375 -3 Z M 12.375 -3 "/></g></g></g><g fill="#61888d" fill-opacity="1"><g transform="translate(365.854044, 196.383184)"><g><path d="M 15.375 -20.96875 L 18.984375 -20.96875 L 17.96875 -7.3125 C 17.78125 -4.695312 17.109375 -2.820312 15.953125 -1.6875 C 14.796875 -0.5625 13.007812 0 10.59375 0 L 5.515625 0 C 4.609375 0 3.953125 -0.226562 3.546875 -0.6875 C 3.140625 -1.15625 2.878906 -1.8125 2.765625 -2.65625 L 2.171875 -7.125 C 1.984375 -8.289062 2.296875 -9.15625 3.109375 -9.71875 L 1.390625 -20.96875 L 5 -20.96875 L 6.5 -11.046875 L 7.6875 -11.421875 C 8.082031 -11.566406 8.335938 -11.734375 8.453125 -11.921875 C 8.578125 -12.109375 8.640625 -12.421875 8.640625 -12.859375 L 8.640625 -20.96875 L 12.203125 -20.96875 L 12.203125 -12.234375 C 12.203125 -11.273438 12.035156 -10.570312 11.703125 -10.125 C 11.378906 -9.6875 10.867188 -9.34375 10.171875 -9.09375 L 6.578125 -7.796875 C 6.179688 -7.648438 5.9375 -7.484375 5.84375 -7.296875 C 5.75 -7.117188 5.722656 -6.84375 5.765625 -6.46875 L 6.15625 -3.875 C 6.21875 -3.507812 6.34375 -3.265625 6.53125 -3.140625 C 6.71875 -3.023438 6.988281 -2.96875 7.34375 -2.96875 L 9.75 -2.96875 C 11.332031 -2.96875 12.472656 -3.285156 13.171875 -3.921875 C 13.867188 -4.566406 14.28125 -5.738281 14.40625 -7.4375 Z M 15.375 -20.96875 "/></g></g></g><g fill="#61888d" fill-opacity="1"><g transform="translate(386.438511, 196.383184)"><g/></g></g><g fill="#61888d" fill-opacity="1"><g transform="translate(393.987319, 196.383184)"><g><path d="M 13.078125 -20.96875 C 14.097656 -20.96875 14.828125 -20.742188 15.265625 -20.296875 C 15.710938 -19.859375 15.9375 -19.117188 15.9375 -18.078125 L 15.9375 -1.296875 C 15.9375 -0.429688 15.503906 0 14.640625 0 L 4.1875 0 C 3.332031 0 2.90625 -0.429688 2.90625 -1.296875 L 2.90625 -15.9375 C 2.90625 -16.84375 3.078125 -17.519531 3.421875 -17.96875 L 1.46875 -17.96875 L 1.46875 -20.96875 Z M 12.34375 -3.390625 L 12.34375 -16.75 C 12.34375 -17.207031 12.253906 -17.53125 12.078125 -17.71875 C 11.898438 -17.90625 11.601562 -18 11.1875 -18 L 7.625 -18 C 7.195312 -18 6.898438 -17.894531 6.734375 -17.6875 C 6.578125 -17.476562 6.5 -17.128906 6.5 -16.640625 L 6.5 -3.390625 C 6.5 -3.109375 6.640625 -2.96875 6.921875 -2.96875 L 11.921875 -2.96875 C 12.203125 -2.96875 12.34375 -3.109375 12.34375 -3.390625 Z M 12.34375 -3.390625 "/></g></g></g><g fill="#61888d" fill-opacity="1"><g transform="translate(411.915695, 196.383184)"><g><path d="M 3.640625 -9.1875 L 3.640625 -17.203125 C 3.640625 -17.710938 3.367188 -17.96875 2.828125 -17.96875 L 1.1875 -17.96875 L 1.1875 -20.96875 L 4.6875 -20.96875 C 5.632812 -20.96875 6.300781 -20.773438 6.6875 -20.390625 C 7.070312 -20.003906 7.265625 -19.335938 7.265625 -18.390625 L 7.265625 -9.1875 Z M 3.640625 -9.1875 "/></g></g></g><g fill="#61888d" fill-opacity="1"><g transform="translate(420.967244, 196.383184)"><g><path d="M 12.96875 -8.171875 L 14.015625 -3.671875 C 14.273438 -2.597656 14.164062 -1.71875 13.6875 -1.03125 C 13.207031 -0.34375 12.382812 0 11.21875 0 L 1.125 0 L 1.125 -3 L 9.1875 -3 C 9.519531 -3 9.796875 -3.101562 10.015625 -3.3125 C 10.234375 -3.53125 10.273438 -3.929688 10.140625 -4.515625 L 9.46875 -7.203125 C 9.3125 -7.847656 8.914062 -8.335938 8.28125 -8.671875 L 4.75 -10.3125 C 4.332031 -10.5 4.007812 -10.710938 3.78125 -10.953125 C 3.5625 -11.203125 3.394531 -11.570312 3.28125 -12.0625 L 1.078125 -20.96875 L 4.828125 -20.96875 L 6.8125 -12.859375 C 6.882812 -12.515625 7.109375 -12.257812 7.484375 -12.09375 L 8.078125 -11.8125 L 10.34375 -20.96875 L 14.15625 -20.96875 L 11.390625 -10.234375 C 11.785156 -10.003906 12.113281 -9.738281 12.375 -9.4375 C 12.632812 -9.132812 12.832031 -8.710938 12.96875 -8.171875 Z M 12.96875 -8.171875 "/></g></g></g><g fill="#61888d" fill-opacity="1"><g transform="translate(436.519107, 196.383184)"><g><path d="M 3.640625 -9.1875 L 3.640625 -17.203125 C 3.640625 -17.710938 3.367188 -17.96875 2.828125 -17.96875 L 1.1875 -17.96875 L 1.1875 -20.96875 L 4.6875 -20.96875 C 5.632812 -20.96875 6.300781 -20.773438 6.6875 -20.390625 C 7.070312 -20.003906 7.265625 -19.335938 7.265625 -18.390625 L 7.265625 -9.1875 Z M 3.640625 -9.1875 "/></g></g></g><g fill="#61888d" fill-opacity="1"><g transform="translate(445.535717, 196.383184)"><g><path d="M 18 -20.96875 L 18 -17.96875 L 16.046875 -17.96875 C 16.273438 -17.519531 16.390625 -16.832031 16.390625 -15.90625 L 16.390625 0 L 12.71875 0 L 12.71875 -16.421875 C 12.71875 -17.035156 12.644531 -17.445312 12.5 -17.65625 C 12.363281 -17.863281 12.125 -17.96875 11.78125 -17.96875 L 7.6875 -17.96875 C 7.34375 -17.96875 7.097656 -17.863281 6.953125 -17.65625 C 6.816406 -17.445312 6.75 -17.035156 6.75 -16.421875 L 6.75 0 L 3.078125 0 L 3.078125 -15.90625 C 3.078125 -16.832031 3.191406 -17.519531 3.421875 -17.96875 L 1.46875 -17.96875 L 1.46875 -20.96875 Z M 18 -20.96875 "/></g></g></g><g fill="#61888d" fill-opacity="1"><g transform="translate(465.001854, 196.383184)"><g><path d="M 11.25 0 L 11.25 -16.78125 C 11.25 -17.570312 10.863281 -17.96875 10.09375 -17.96875 L 2.03125 -17.96875 L 2.03125 -20.96875 L 11.921875 -20.96875 C 12.992188 -20.96875 13.757812 -20.707031 14.21875 -20.1875 C 14.6875 -19.664062 14.921875 -18.820312 14.921875 -17.65625 L 14.921875 0 Z M 3.8125 0 C 2.625 0 2.03125 -0.601562 2.03125 -1.8125 L 2.03125 -13.078125 L 5.703125 -13.078125 L 5.703125 -3.671875 C 5.703125 -3.222656 5.875 -3 6.21875 -3 L 6.671875 -3 L 6.671875 0 Z M 3.8125 0 "/></g></g></g><g fill="#61888d" fill-opacity="1"><g transform="translate(482.126442, 196.383184)"><g/></g></g><g fill="#61888d" fill-opacity="1"><g transform="translate(489.675239, 196.383184)"><g><path d="M 12.40625 -20.96875 C 13.570312 -20.96875 14.410156 -20.710938 14.921875 -20.203125 C 15.429688 -19.691406 15.6875 -18.84375 15.6875 -17.65625 L 15.6875 0 L 12.03125 0 L 12.03125 -16.75 C 12.03125 -17.582031 11.617188 -18 10.796875 -18 L 8.359375 -18 C 7.566406 -18 7.015625 -17.757812 6.703125 -17.28125 C 6.398438 -16.800781 6.34375 -15.804688 6.53125 -14.296875 L 7.796875 -4.125 C 8.003906 -2.769531 7.875 -1.742188 7.40625 -1.046875 C 6.945312 -0.347656 6.0625 0 4.75 0 L 1.15625 0 L 1.15625 -3 L 3.25 -3 C 3.570312 -3 3.816406 -3.09375 3.984375 -3.28125 C 4.148438 -3.46875 4.195312 -3.796875 4.125 -4.265625 L 3 -13.59375 C 2.84375 -14.925781 2.835938 -15.914062 2.984375 -16.5625 C 3.140625 -17.21875 3.332031 -17.6875 3.5625 -17.96875 L 1.21875 -17.96875 L 1.21875 -20.96875 Z M 12.40625 -20.96875 "/></g></g></g><g fill="#61888d" fill-opacity="1"><g transform="translate(507.533757, 196.383184)"><g><path d="M 3.703125 0 L 3.703125 -17.203125 C 3.703125 -17.710938 3.4375 -17.96875 2.90625 -17.96875 L 1.328125 -17.96875 L 1.328125 -20.96875 L 5.03125 -20.96875 C 5.875 -20.96875 6.472656 -20.789062 6.828125 -20.4375 C 7.191406 -20.09375 7.375 -19.503906 7.375 -18.671875 L 7.375 0 Z M 3.703125 0 "/></g></g></g><g fill="#61888d" fill-opacity="1"><g transform="translate(517.039645, 196.383184)"><g><path d="M 11.046875 -20.96875 L 14.71875 -20.96875 L 14.71875 -9.578125 C 14.71875 -7.878906 14.472656 -6.515625 13.984375 -5.484375 C 13.492188 -4.460938 12.773438 -3.632812 11.828125 -3 C 10.890625 -2.375 9.734375 -1.78125 8.359375 -1.21875 L 2.09375 1.265625 L 1.015625 -1.609375 L 4.96875 -3.140625 C 4.664062 -3.421875 4.40625 -3.773438 4.1875 -4.203125 C 3.976562 -4.640625 3.84375 -5.160156 3.78125 -5.765625 L 1.640625 -20.96875 L 5.3125 -20.96875 L 7.484375 -5.515625 C 7.546875 -5.023438 7.675781 -4.71875 7.875 -4.59375 C 8.070312 -4.46875 8.289062 -4.453125 8.53125 -4.546875 L 8.671875 -4.578125 C 9.441406 -4.929688 10.03125 -5.390625 10.4375 -5.953125 C 10.84375 -6.523438 11.046875 -7.394531 11.046875 -8.5625 Z M 11.046875 -20.96875 "/></g></g></g><g fill="#61888d" fill-opacity="1"><g transform="translate(533.674978, 196.383184)"><g><path d="M 12.96875 -8.171875 L 14.015625 -3.671875 C 14.273438 -2.597656 14.164062 -1.71875 13.6875 -1.03125 C 13.207031 -0.34375 12.382812 0 11.21875 0 L 1.125 0 L 1.125 -3 L 9.1875 -3 C 9.519531 -3 9.796875 -3.101562 10.015625 -3.3125 C 10.234375 -3.53125 10.273438 -3.929688 10.140625 -4.515625 L 9.46875 -7.203125 C 9.3125 -7.847656 8.914062 -8.335938 8.28125 -8.671875 L 4.75 -10.3125 C 4.332031 -10.5 4.007812 -10.710938 3.78125 -10.953125 C 3.5625 -11.203125 3.394531 -11.570312 3.28125 -12.0625 L 1.078125 -20.96875 L 4.828125 -20.96875 L 6.8125 -12.859375 C 6.882812 -12.515625 7.109375 -12.257812 7.484375 -12.09375 L 8.078125 -11.8125 L 10.34375 -20.96875 L 14.15625 -20.96875 L 11.390625 -10.234375 C 11.785156 -10.003906 12.113281 -9.738281 12.375 -9.4375 C 12.632812 -9.132812 12.832031 -8.710938 12.96875 -8.171875 Z M 12.96875 -8.171875 "/></g></g></g><g fill="#61888d" fill-opacity="1"><g transform="translate(549.436574, 196.383184)"><g><path d="M 15.203125 -2.96875 C 15.253906 -1.945312 15.039062 -1.195312 14.5625 -0.71875 C 14.082031 -0.238281 13.296875 0 12.203125 0 L 7.484375 0 L 7.484375 -3 L 10.453125 -3 C 10.847656 -3 11.117188 -3.09375 11.265625 -3.28125 C 11.421875 -3.46875 11.488281 -3.75 11.46875 -4.125 L 10.9375 -15.375 C 10.894531 -16.40625 10.710938 -17.097656 10.390625 -17.453125 C 10.078125 -17.816406 9.617188 -18 9.015625 -18 L 8.3125 -18 C 7.875 -18 7.566406 -17.878906 7.390625 -17.640625 C 7.210938 -17.410156 7.09375 -16.992188 7.03125 -16.390625 L 4.921875 0 L 1.21875 0 L 3.21875 -15.34375 C 3.375 -16.53125 3.6875 -17.40625 4.15625 -17.96875 L 1.8125 -17.96875 L 1.8125 -20.96875 L 10 -20.96875 C 11.320312 -20.96875 12.394531 -20.609375 13.21875 -19.890625 C 14.050781 -19.171875 14.515625 -17.804688 14.609375 -15.796875 Z M 15.203125 -2.96875 "/></g></g></g><g fill="#61888d" fill-opacity="1"><g transform="translate(566.106847, 196.383184)"><g><path d="M 6.015625 -12.15625 C 5.566406 -11.945312 5.285156 -11.679688 5.171875 -11.359375 C 5.054688 -11.035156 5.082031 -10.5 5.25 -9.75 L 6.78125 -3.140625 C 7.039062 -2.210938 7.039062 -1.457031 6.78125 -0.875 C 6.519531 -0.289062 5.960938 0 5.109375 0 L 1.4375 0 L 1.4375 -3 L 2.59375 -3 C 2.957031 -3 3.109375 -3.1875 3.046875 -3.5625 L 1.859375 -9.5 C 1.546875 -10.96875 1.648438 -12.082031 2.171875 -12.84375 C 2.703125 -13.601562 3.4375 -14.226562 4.375 -14.71875 L 4.890625 -15 L 1.609375 -20.96875 L 5.3125 -20.96875 L 10.5625 -11.015625 L 10.875 -11.21875 C 11.269531 -11.476562 11.535156 -11.726562 11.671875 -11.96875 C 11.816406 -12.21875 11.890625 -12.664062 11.890625 -13.3125 L 11.890625 -20.96875 L 15.453125 -20.96875 L 15.453125 -13.03125 C 15.453125 -11.957031 15.253906 -11.097656 14.859375 -10.453125 C 14.460938 -9.816406 13.832031 -9.222656 12.96875 -8.671875 L 12.09375 -8.078125 L 16.1875 0 L 12.484375 0 L 6.328125 -12.296875 Z M 6.015625 -12.15625 "/></g></g></g><g fill="#61888d" fill-opacity="1"><g transform="translate(583.266399, 196.383184)"><g><path d="M 12.375 -3 L 13.59375 -3 L 13.59375 0 L 0.796875 0 L 0.796875 -3 L 8.171875 -3 C 8.109375 -3.144531 8.050781 -3.316406 8 -3.515625 C 7.957031 -3.710938 7.9375 -3.925781 7.9375 -4.15625 L 7.9375 -16.78125 C 7.9375 -17.21875 7.847656 -17.523438 7.671875 -17.703125 C 7.492188 -17.878906 7.1875 -17.96875 6.75 -17.96875 L 1.1875 -17.96875 L 1.1875 -20.96875 L 8.453125 -20.96875 C 9.578125 -20.96875 10.382812 -20.710938 10.875 -20.203125 C 11.363281 -19.691406 11.609375 -18.84375 11.609375 -17.65625 L 11.609375 -3.875 C 11.609375 -3.289062 11.863281 -3 12.375 -3 Z M 12.375 -3 "/></g></g></g><g fill="#61888d" fill-opacity="1"><g transform="translate(597.315555, 196.383184)"><g/></g></g><g fill="#61888d" fill-opacity="1"><g transform="translate(604.864352, 196.383184)"><g><path d="M 11.25 0 L 11.25 -16.78125 C 11.25 -17.570312 10.863281 -17.96875 10.09375 -17.96875 L 2.03125 -17.96875 L 2.03125 -20.96875 L 11.921875 -20.96875 C 12.992188 -20.96875 13.757812 -20.707031 14.21875 -20.1875 C 14.6875 -19.664062 14.921875 -18.820312 14.921875 -17.65625 L 14.921875 0 Z M 3.8125 0 C 2.625 0 2.03125 -0.601562 2.03125 -1.8125 L 2.03125 -13.078125 L 5.703125 -13.078125 L 5.703125 -3.671875 C 5.703125 -3.222656 5.875 -3 6.21875 -3 L 6.671875 -3 L 6.671875 0 Z M 3.8125 0 "/></g></g></g><g fill="#61888d" fill-opacity="1"><g transform="translate(621.81417, 196.383184)"><g><path d="M 15.375 -20.96875 L 18.984375 -20.96875 L 17.96875 -7.3125 C 17.78125 -4.695312 17.109375 -2.820312 15.953125 -1.6875 C 14.796875 -0.5625 13.007812 0 10.59375 0 L 5.515625 0 C 4.609375 0 3.953125 -0.226562 3.546875 -0.6875 C 3.140625 -1.15625 2.878906 -1.8125 2.765625 -2.65625 L 2.171875 -7.125 C 1.984375 -8.289062 2.296875 -9.15625 3.109375 -9.71875 L 1.390625 -20.96875 L 5 -20.96875 L 6.5 -11.046875 L 7.6875 -11.421875 C 8.082031 -11.566406 8.335938 -11.734375 8.453125 -11.921875 C 8.578125 -12.109375 8.640625 -12.421875 8.640625 -12.859375 L 8.640625 -20.96875 L 12.203125 -20.96875 L 12.203125 -12.234375 C 12.203125 -11.273438 12.035156 -10.570312 11.703125 -10.125 C 11.378906 -9.6875 10.867188 -9.34375 10.171875 -9.09375 L 6.578125 -7.796875 C 6.179688 -7.648438 5.9375 -7.484375 5.84375 -7.296875 C 5.75 -7.117188 5.722656 -6.84375 5.765625 -6.46875 L 6.15625 -3.875 C 6.21875 -3.507812 6.34375 -3.265625 6.53125 -3.140625 C 6.71875 -3.023438 6.988281 -2.96875 7.34375 -2.96875 L 9.75 -2.96875 C 11.332031 -2.96875 12.472656 -3.285156 13.171875 -3.921875 C 13.867188 -4.566406 14.28125 -5.738281 14.40625 -7.4375 Z M 15.375 -20.96875 "/></g></g></g><g fill="#61888d" fill-opacity="1"><g transform="translate(642.398648, 196.383184)"><g><path d="M 11.046875 -20.96875 L 14.71875 -20.96875 L 14.71875 -9.578125 C 14.71875 -7.878906 14.472656 -6.515625 13.984375 -5.484375 C 13.492188 -4.460938 12.773438 -3.632812 11.828125 -3 C 10.890625 -2.375 9.734375 -1.78125 8.359375 -1.21875 L 2.09375 1.265625 L 1.015625 -1.609375 L 4.96875 -3.140625 C 4.664062 -3.421875 4.40625 -3.773438 4.1875 -4.203125 C 3.976562 -4.640625 3.84375 -5.160156 3.78125 -5.765625 L 1.640625 -20.96875 L 5.3125 -20.96875 L 7.484375 -5.515625 C 7.546875 -5.023438 7.675781 -4.71875 7.875 -4.59375 C 8.070312 -4.46875 8.289062 -4.453125 8.53125 -4.546875 L 8.671875 -4.578125 C 9.441406 -4.929688 10.03125 -5.390625 10.4375 -5.953125 C 10.84375 -6.523438 11.046875 -7.394531 11.046875 -8.5625 Z M 11.046875 -20.96875 "/></g></g></g><g fill="#61888d" fill-opacity="1"><g transform="translate(659.103907, 196.383184)"><g><path d="M 3.640625 -9.1875 L 3.640625 -17.203125 C 3.640625 -17.710938 3.367188 -17.96875 2.828125 -17.96875 L 1.1875 -17.96875 L 1.1875 -20.96875 L 4.6875 -20.96875 C 5.632812 -20.96875 6.300781 -20.773438 6.6875 -20.390625 C 7.070312 -20.003906 7.265625 -19.335938 7.265625 -18.390625 L 7.265625 -9.1875 Z M 3.640625 -9.1875 "/></g></g></g><g fill="#61888d" fill-opacity="1"><g transform="translate(668.295241, 196.383184)"><g/></g></g><g fill="#61888d" fill-opacity="1"><g transform="translate(675.844084, 196.383184)"><g><path d="M 11.25 0 L 11.25 -16.78125 C 11.25 -17.570312 10.863281 -17.96875 10.09375 -17.96875 L 2.03125 -17.96875 L 2.03125 -20.96875 L 11.921875 -20.96875 C 12.992188 -20.96875 13.757812 -20.707031 14.21875 -20.1875 C 14.6875 -19.664062 14.921875 -18.820312 14.921875 -17.65625 L 14.921875 0 Z M 3.8125 0 C 2.625 0 2.03125 -0.601562 2.03125 -1.8125 L 2.03125 -13.078125 L 5.703125 -13.078125 L 5.703125 -3.671875 C 5.703125 -3.222656 5.875 -3 6.21875 -3 L 6.671875 -3 L 6.671875 0 Z M 3.8125 0 "/></g></g></g><g fill="#61888d" fill-opacity="1"><g transform="translate(692.689013, 196.383184)"><g><path d="M 0.703125 -20.96875 L 13.03125 -20.96875 L 13.03125 -17.96875 L 11.984375 -17.96875 C 11.265625 -17.96875 10.90625 -17.488281 10.90625 -16.53125 L 10.90625 0 L 7.40625 0 L 7.40625 -16.046875 C 7.40625 -16.878906 7.535156 -17.519531 7.796875 -17.96875 L 0.703125 -17.96875 Z M 0.703125 -20.96875 "/></g></g></g><g fill="#61888d" fill-opacity="1"><g transform="translate(706.877976, 196.383184)"><g><path d="M 15.203125 -2.96875 C 15.253906 -1.945312 15.039062 -1.195312 14.5625 -0.71875 C 14.082031 -0.238281 13.296875 0 12.203125 0 L 7.484375 0 L 7.484375 -3 L 10.453125 -3 C 10.847656 -3 11.117188 -3.09375 11.265625 -3.28125 C 11.421875 -3.46875 11.488281 -3.75 11.46875 -4.125 L 10.9375 -15.375 C 10.894531 -16.40625 10.710938 -17.097656 10.390625 -17.453125 C 10.078125 -17.816406 9.617188 -18 9.015625 -18 L 8.3125 -18 C 7.875 -18 7.566406 -17.878906 7.390625 -17.640625 C 7.210938 -17.410156 7.09375 -16.992188 7.03125 -16.390625 L 4.921875 0 L 1.21875 0 L 3.21875 -15.34375 C 3.375 -16.53125 3.6875 -17.40625 4.15625 -17.96875 L 1.8125 -17.96875 L 1.8125 -20.96875 L 10 -20.96875 C 11.320312 -20.96875 12.394531 -20.609375 13.21875 -19.890625 C 14.050781 -19.171875 14.515625 -17.804688 14.609375 -15.796875 Z M 15.203125 -2.96875 "/></g></g></g><g fill="#61888d" fill-opacity="1"><g transform="translate(722.919072, 196.383184)"><g><path d="M 3.703125 0 L 3.703125 -17.203125 C 3.703125 -17.710938 3.4375 -17.96875 2.90625 -17.96875 L 1.328125 -17.96875 L 1.328125 -20.96875 L 5.03125 -20.96875 C 5.875 -20.96875 6.472656 -20.789062 6.828125 -20.4375 C 7.191406 -20.09375 7.375 -19.503906 7.375 -18.671875 L 7.375 0 Z M 3.703125 0 "/></g></g></g><g fill="#61888d" fill-opacity="1"><g transform="translate(732.285176, 196.383184)"><g><path d="M 5.796875 0 C 4.679688 0 3.925781 -0.347656 3.53125 -1.046875 C 3.132812 -1.742188 3.144531 -2.710938 3.5625 -3.953125 L 8.140625 -16.703125 C 8.285156 -17.097656 8.285156 -17.40625 8.140625 -17.625 C 8.003906 -17.851562 7.738281 -17.96875 7.34375 -17.96875 L 1.75 -17.96875 C 1.375 -17.96875 1.101562 -18.046875 0.9375 -18.203125 C 0.78125 -18.367188 0.703125 -18.648438 0.703125 -19.046875 L 0.703125 -23.765625 L 4.1875 -23.765625 L 4.1875 -20.96875 L 9.546875 -20.96875 C 10.710938 -20.96875 11.515625 -20.570312 11.953125 -19.78125 C 12.398438 -18.988281 12.398438 -17.988281 11.953125 -16.78125 L 7.3125 -3.921875 C 7.21875 -3.660156 7.195312 -3.441406 7.25 -3.265625 C 7.3125 -3.085938 7.492188 -3 7.796875 -3 L 9.1875 -3 L 9.1875 0 Z M 5.796875 0 "/></g></g></g><g fill="#61888d" fill-opacity="1"><g transform="translate(745.810068, 196.383184)"><g><path d="M 12.375 -3 L 13.59375 -3 L 13.59375 0 L 0.796875 0 L 0.796875 -3 L 8.171875 -3 C 8.109375 -3.144531 8.050781 -3.316406 8 -3.515625 C 7.957031 -3.710938 7.9375 -3.925781 7.9375 -4.15625 L 7.9375 -16.78125 C 7.9375 -17.21875 7.847656 -17.523438 7.671875 -17.703125 C 7.492188 -17.878906 7.1875 -17.96875 6.75 -17.96875 L 1.1875 -17.96875 L 1.1875 -20.96875 L 8.453125 -20.96875 C 9.578125 -20.96875 10.382812 -20.710938 10.875 -20.203125 C 11.363281 -19.691406 11.609375 -18.84375 11.609375 -17.65625 L 11.609375 -3.875 C 11.609375 -3.289062 11.863281 -3 12.375 -3 Z M 12.375 -3 "/></g></g></g><g fill="#61888d" fill-opacity="1"><g transform="translate(759.859224, 196.383184)"><g/></g></g><g fill="#61888d" fill-opacity="1"><g transform="translate(767.408066, 196.383184)"><g><path d="M 0.703125 -20.96875 L 13.03125 -20.96875 L 13.03125 -17.96875 L 11.984375 -17.96875 C 11.265625 -17.96875 10.90625 -17.488281 10.90625 -16.53125 L 10.90625 0 L 7.40625 0 L 7.40625 -16.046875 C 7.40625 -16.878906 7.535156 -17.519531 7.796875 -17.96875 L 0.703125 -17.96875 Z M 0.703125 -20.96875 "/></g></g></g><g fill="#61888d" fill-opacity="1"><g transform="translate(781.73679, 196.383184)"><g><path d="M 3.703125 0 L 3.703125 -17.203125 C 3.703125 -17.710938 3.4375 -17.96875 2.90625 -17.96875 L 1.328125 -17.96875 L 1.328125 -20.96875 L 5.03125 -20.96875 C 5.875 -20.96875 6.472656 -20.789062 6.828125 -20.4375 C 7.191406 -20.09375 7.375 -19.503906 7.375 -18.671875 L 7.375 0 Z M 3.703125 0 "/></g></g></g><g fill="#61888d" fill-opacity="1"><g transform="translate(791.242701, 196.383184)"><g><path d="M 15.203125 -2.96875 C 15.253906 -1.945312 15.039062 -1.195312 14.5625 -0.71875 C 14.082031 -0.238281 13.296875 0 12.203125 0 L 7.484375 0 L 7.484375 -3 L 10.453125 -3 C 10.847656 -3 11.117188 -3.09375 11.265625 -3.28125 C 11.421875 -3.46875 11.488281 -3.75 11.46875 -4.125 L 10.9375 -15.375 C 10.894531 -16.40625 10.710938 -17.097656 10.390625 -17.453125 C 10.078125 -17.816406 9.617188 -18 9.015625 -18 L 8.3125 -18 C 7.875 -18 7.566406 -17.878906 7.390625 -17.640625 C 7.210938 -17.410156 7.09375 -16.992188 7.03125 -16.390625 L 4.921875 0 L 1.21875 0 L 3.21875 -15.34375 C 3.375 -16.53125 3.6875 -17.40625 4.15625 -17.96875 L 1.8125 -17.96875 L 1.8125 -20.96875 L 10 -20.96875 C 11.320312 -20.96875 12.394531 -20.609375 13.21875 -19.890625 C 14.050781 -19.171875 14.515625 -17.804688 14.609375 -15.796875 Z M 15.203125 -2.96875 "/></g></g></g><g fill="#61888d" fill-opacity="1"><g transform="translate(807.982878, 196.383184)"><g><path d="M 11.046875 -20.96875 L 14.71875 -20.96875 L 14.71875 -9.578125 C 14.71875 -7.878906 14.472656 -6.515625 13.984375 -5.484375 C 13.492188 -4.460938 12.773438 -3.632812 11.828125 -3 C 10.890625 -2.375 9.734375 -1.78125 8.359375 -1.21875 L 2.09375 1.265625 L 1.015625 -1.609375 L 4.96875 -3.140625 C 4.664062 -3.421875 4.40625 -3.773438 4.1875 -4.203125 C 3.976562 -4.640625 3.84375 -5.160156 3.78125 -5.765625 L 1.640625 -20.96875 L 5.3125 -20.96875 L 7.484375 -5.515625 C 7.546875 -5.023438 7.675781 -4.71875 7.875 -4.59375 C 8.070312 -4.46875 8.289062 -4.453125 8.53125 -4.546875 L 8.671875 -4.578125 C 9.441406 -4.929688 10.03125 -5.390625 10.4375 -5.953125 C 10.84375 -6.523438 11.046875 -7.394531 11.046875 -8.5625 Z M 11.046875 -20.96875 "/></g></g></g><g fill="#61888d" fill-opacity="1"><g transform="translate(824.688091, 196.383184)"><g><path d="M 5.796875 0 C 4.679688 0 3.925781 -0.347656 3.53125 -1.046875 C 3.132812 -1.742188 3.144531 -2.710938 3.5625 -3.953125 L 8.140625 -16.703125 C 8.285156 -17.097656 8.285156 -17.40625 8.140625 -17.625 C 8.003906 -17.851562 7.738281 -17.96875 7.34375 -17.96875 L 1.75 -17.96875 C 1.375 -17.96875 1.101562 -18.046875 0.9375 -18.203125 C 0.78125 -18.367188 0.703125 -18.648438 0.703125 -19.046875 L 0.703125 -23.765625 L 4.1875 -23.765625 L 4.1875 -20.96875 L 9.546875 -20.96875 C 10.710938 -20.96875 11.515625 -20.570312 11.953125 -19.78125 C 12.398438 -18.988281 12.398438 -17.988281 11.953125 -16.78125 L 7.3125 -3.921875 C 7.21875 -3.660156 7.195312 -3.441406 7.25 -3.265625 C 7.3125 -3.085938 7.492188 -3 7.796875 -3 L 9.1875 -3 L 9.1875 0 Z M 5.796875 0 "/></g></g></g><g fill="#61888d" fill-opacity="1"><g transform="translate(838.213028, 196.383184)"><g/></g></g><g fill="#61888d" fill-opacity="1"><g transform="translate(845.761825, 196.383184)"><g><path d="M 0.703125 -20.96875 L 13.03125 -20.96875 L 13.03125 -17.96875 L 11.984375 -17.96875 C 11.265625 -17.96875 10.90625 -17.488281 10.90625 -16.53125 L 10.90625 0 L 7.40625 0 L 7.40625 -16.046875 C 7.40625 -16.878906 7.535156 -17.519531 7.796875 -17.96875 L 0.703125 -17.96875 Z M 0.703125 -20.96875 "/></g></g></g><g fill="#61888d" fill-opacity="1"><g transform="translate(860.09714, 196.383184)"><g><path d="M 3.703125 0 L 3.703125 -17.203125 C 3.703125 -17.710938 3.4375 -17.96875 2.90625 -17.96875 L 1.328125 -17.96875 L 1.328125 -20.96875 L 5.03125 -20.96875 C 5.875 -20.96875 6.472656 -20.789062 6.828125 -20.4375 C 7.191406 -20.09375 7.375 -19.503906 7.375 -18.671875 L 7.375 0 Z M 3.703125 0 "/></g></g></g><g fill="#61888d" fill-opacity="1"><g transform="translate(869.603039, 196.383184)"><g><path d="M 15.203125 -2.96875 C 15.253906 -1.945312 15.039062 -1.195312 14.5625 -0.71875 C 14.082031 -0.238281 13.296875 0 12.203125 0 L 7.484375 0 L 7.484375 -3 L 10.453125 -3 C 10.847656 -3 11.117188 -3.09375 11.265625 -3.28125 C 11.421875 -3.46875 11.488281 -3.75 11.46875 -4.125 L 10.9375 -15.375 C 10.894531 -16.40625 10.710938 -17.097656 10.390625 -17.453125 C 10.078125 -17.816406 9.617188 -18 9.015625 -18 L 8.3125 -18 C 7.875 -18 7.566406 -17.878906 7.390625 -17.640625 C 7.210938 -17.410156 7.09375 -16.992188 7.03125 -16.390625 L 4.921875 0 L 1.21875 0 L 3.21875 -15.34375 C 3.375 -16.53125 3.6875 -17.40625 4.15625 -17.96875 L 1.8125 -17.96875 L 1.8125 -20.96875 L 10 -20.96875 C 11.320312 -20.96875 12.394531 -20.609375 13.21875 -19.890625 C 14.050781 -19.171875 14.515625 -17.804688 14.609375 -15.796875 Z M 15.203125 -2.96875 "/></g></g></g><g fill="#61888d" fill-opacity="1"><g transform="translate(886.343205, 196.383184)"><g><path d="M 11.046875 -20.96875 L 14.71875 -20.96875 L 14.71875 -9.578125 C 14.71875 -7.878906 14.472656 -6.515625 13.984375 -5.484375 C 13.492188 -4.460938 12.773438 -3.632812 11.828125 -3 C 10.890625 -2.375 9.734375 -1.78125 8.359375 -1.21875 L 2.09375 1.265625 L 1.015625 -1.609375 L 4.96875 -3.140625 C 4.664062 -3.421875 4.40625 -3.773438 4.1875 -4.203125 C 3.976562 -4.640625 3.84375 -5.160156 3.78125 -5.765625 L 1.640625 -20.96875 L 5.3125 -20.96875 L 7.484375 -5.515625 C 7.546875 -5.023438 7.675781 -4.71875 7.875 -4.59375 C 8.070312 -4.46875 8.289062 -4.453125 8.53125 -4.546875 L 8.671875 -4.578125 C 9.441406 -4.929688 10.03125 -5.390625 10.4375 -5.953125 C 10.84375 -6.523438 11.046875 -7.394531 11.046875 -8.5625 Z M 11.046875 -20.96875 "/></g></g></g><g fill="#61888d" fill-opacity="1"><g transform="translate(903.048429, 196.383184)"><g/></g></g><g fill="#61888d" fill-opacity="1"><g transform="translate(910.597237, 196.383184)"><g><path d="M 3.703125 5.03125 L 3.703125 -17.203125 C 3.703125 -17.710938 3.4375 -17.96875 2.90625 -17.96875 L 1.328125 -17.96875 L 1.328125 -20.96875 L 5.03125 -20.96875 C 5.875 -20.96875 6.472656 -20.789062 6.828125 -20.4375 C 7.191406 -20.09375 7.375 -19.503906 7.375 -18.671875 L 7.375 5.03125 Z M 3.703125 5.03125 "/></g></g></g><g fill="#61888d" fill-opacity="1"><g transform="translate(920.103137, 196.383184)"><g><path d="M 3.640625 -9.1875 L 3.640625 -17.203125 C 3.640625 -17.710938 3.367188 -17.96875 2.828125 -17.96875 L 1.1875 -17.96875 L 1.1875 -20.96875 L 4.6875 -20.96875 C 5.632812 -20.96875 6.300781 -20.773438 6.6875 -20.390625 C 7.070312 -20.003906 7.265625 -19.335938 7.265625 -18.390625 L 7.265625 -9.1875 Z M 3.640625 -9.1875 "/></g></g></g><g fill="#61888d" fill-opacity="1"><g transform="translate(929.294505, 196.383184)"><g><path d="M 12.375 -3 L 13.59375 -3 L 13.59375 0 L 0.796875 0 L 0.796875 -3 L 8.171875 -3 C 8.109375 -3.144531 8.050781 -3.316406 8 -3.515625 C 7.957031 -3.710938 7.9375 -3.925781 7.9375 -4.15625 L 7.9375 -16.78125 C 7.9375 -17.21875 7.847656 -17.523438 7.671875 -17.703125 C 7.492188 -17.878906 7.1875 -17.96875 6.75 -17.96875 L 1.1875 -17.96875 L 1.1875 -20.96875 L 8.453125 -20.96875 C 9.578125 -20.96875 10.382812 -20.710938 10.875 -20.203125 C 11.363281 -19.691406 11.609375 -18.84375 11.609375 -17.65625 L 11.609375 -3.875 C 11.609375 -3.289062 11.863281 -3 12.375 -3 Z M 12.375 -3 "/></g></g></g><g fill="#61888d" fill-opacity="1"><g transform="translate(943.343661, 196.383184)"><g/></g></g><g fill="#61888d" fill-opacity="1"><g transform="translate(950.892469, 196.383184)"><g><path d="M 7.65625 0 L 7.65625 -16.703125 C 7.65625 -17.546875 7.234375 -17.96875 6.390625 -17.96875 L 0.703125 -17.96875 L 0.703125 -20.96875 L 8.140625 -20.96875 C 9.265625 -20.96875 10.078125 -20.71875 10.578125 -20.21875 C 11.078125 -19.71875 11.328125 -18.894531 11.328125 -17.75 L 11.328125 0 Z M 7.65625 0 "/></g></g></g><g fill="#61888d" fill-opacity="1"><g transform="translate(964.382455, 196.383184)"><g><path d="M 12.375 -3 L 13.59375 -3 L 13.59375 0 L 0.796875 0 L 0.796875 -3 L 8.171875 -3 C 8.109375 -3.144531 8.050781 -3.316406 8 -3.515625 C 7.957031 -3.710938 7.9375 -3.925781 7.9375 -4.15625 L 7.9375 -16.78125 C 7.9375 -17.21875 7.847656 -17.523438 7.671875 -17.703125 C 7.492188 -17.878906 7.1875 -17.96875 6.75 -17.96875 L 1.1875 -17.96875 L 1.1875 -20.96875 L 8.453125 -20.96875 C 9.578125 -20.96875 10.382812 -20.710938 10.875 -20.203125 C 11.363281 -19.691406 11.609375 -18.84375 11.609375 -17.65625 L 11.609375 -3.875 C 11.609375 -3.289062 11.863281 -3 12.375 -3 Z M 12.375 -3 "/></g></g></g><g fill="#61888d" fill-opacity="1"><g transform="translate(978.431611, 196.383184)"><g><path d="M 11.046875 -20.96875 L 14.71875 -20.96875 L 14.71875 -9.578125 C 14.71875 -7.878906 14.472656 -6.515625 13.984375 -5.484375 C 13.492188 -4.460938 12.773438 -3.632812 11.828125 -3 C 10.890625 -2.375 9.734375 -1.78125 8.359375 -1.21875 L 2.09375 1.265625 L 1.015625 -1.609375 L 4.96875 -3.140625 C 4.664062 -3.421875 4.40625 -3.773438 4.1875 -4.203125 C 3.976562 -4.640625 3.84375 -5.160156 3.78125 -5.765625 L 1.640625 -20.96875 L 5.3125 -20.96875 L 7.484375 -5.515625 C 7.546875 -5.023438 7.675781 -4.71875 7.875 -4.59375 C 8.070312 -4.46875 8.289062 -4.453125 8.53125 -4.546875 L 8.671875 -4.578125 C 9.441406 -4.929688 10.03125 -5.390625 10.4375 -5.953125 C 10.84375 -6.523438 11.046875 -7.394531 11.046875 -8.5625 Z M 11.046875 -20.96875 "/></g></g></g><g fill="#61888d" fill-opacity="1"><g transform="translate(995.031969, 196.383184)"><g><path d="M 15.203125 -2.96875 C 15.253906 -1.945312 15.039062 -1.195312 14.5625 -0.71875 C 14.082031 -0.238281 13.296875 0 12.203125 0 L 7.484375 0 L 7.484375 -3 L 10.453125 -3 C 10.847656 -3 11.117188 -3.09375 11.265625 -3.28125 C 11.421875 -3.46875 11.488281 -3.75 11.46875 -4.125 L 10.9375 -15.375 C 10.894531 -16.40625 10.710938 -17.097656 10.390625 -17.453125 C 10.078125 -17.816406 9.617188 -18 9.015625 -18 L 8.3125 -18 C 7.875 -18 7.566406 -17.878906 7.390625 -17.640625 C 7.210938 -17.410156 7.09375 -16.992188 7.03125 -16.390625 L 4.921875 0 L 1.21875 0 L 3.21875 -15.34375 C 3.375 -16.53125 3.6875 -17.40625 4.15625 -17.96875 L 1.8125 -17.96875 L 1.8125 -20.96875 L 10 -20.96875 C 11.320312 -20.96875 12.394531 -20.609375 13.21875 -19.890625 C 14.050781 -19.171875 14.515625 -17.804688 14.609375 -15.796875 Z M 15.203125 -2.96875 "/></g></g></g><g fill="#61888d" fill-opacity="1"><g transform="translate(1011.772134, 196.383184)"><g><path d="M 11.25 0 L 11.25 -16.78125 C 11.25 -17.570312 10.863281 -17.96875 10.09375 -17.96875 L 2.03125 -17.96875 L 2.03125 -20.96875 L 11.921875 -20.96875 C 12.992188 -20.96875 13.757812 -20.707031 14.21875 -20.1875 C 14.6875 -19.664062 14.921875 -18.820312 14.921875 -17.65625 L 14.921875 0 Z M 3.8125 0 C 2.625 0 2.03125 -0.601562 2.03125 -1.8125 L 2.03125 -13.078125 L 5.703125 -13.078125 L 5.703125 -3.671875 C 5.703125 -3.222656 5.875 -3 6.21875 -3 L 6.671875 -3 L 6.671875 0 Z M 3.8125 0 "/></g></g></g><g fill="#61888d" fill-opacity="1"><g transform="translate(91.951782, 293.727924)"><g><path d="M 11.25 0 L 11.25 -16.78125 C 11.25 -17.570312 10.863281 -17.96875 10.09375 -17.96875 L 2.03125 -17.96875 L 2.03125 -20.96875 L 11.921875 -20.96875 C 12.992188 -20.96875 13.757812 -20.707031 14.21875 -20.1875 C 14.6875 -19.664062 14.921875 -18.820312 14.921875 -17.65625 L 14.921875 0 Z M 3.8125 0 C 2.625 0 2.03125 -0.601562 2.03125 -1.8125 L 2.03125 -13.078125 L 5.703125 -13.078125 L 5.703125 -3.671875 C 5.703125 -3.222656 5.875 -3 6.21875 -3 L 6.671875 -3 L 6.671875 0 Z M 3.8125 0 "/></g></g></g><g fill="#61888d" fill-opacity="1"><g transform="translate(109.076382, 293.727924)"><g><path d="M 8.90625 -0.203125 C 8.050781 0.0976562 7.226562 0.234375 6.4375 0.203125 C 5.644531 0.179688 4.984375 -0.0664062 4.453125 -0.546875 C 3.929688 -1.023438 3.632812 -1.773438 3.5625 -2.796875 L 2.6875 -17.015625 C 2.664062 -17.390625 2.601562 -17.640625 2.5 -17.765625 C 2.394531 -17.898438 2.179688 -17.96875 1.859375 -17.96875 L 0.875 -17.96875 L 0.875 -20.96875 L 3.921875 -20.96875 C 4.679688 -20.96875 5.226562 -20.796875 5.5625 -20.453125 C 5.90625 -20.117188 6.101562 -19.582031 6.15625 -18.84375 L 7.0625 -4.1875 C 7.101562 -3.695312 7.265625 -3.390625 7.546875 -3.265625 C 7.828125 -3.140625 8.175781 -3.160156 8.59375 -3.328125 L 11.21875 -4.296875 C 11.820312 -4.535156 12.242188 -4.914062 12.484375 -5.4375 C 12.734375 -5.957031 12.90625 -6.71875 13 -7.71875 L 13.84375 -16.46875 C 13.914062 -17.09375 13.84375 -17.550781 13.625 -17.84375 C 13.414062 -18.132812 13.113281 -18.28125 12.71875 -18.28125 C 11.832031 -18.300781 11.359375 -17.753906 11.296875 -16.640625 L 11.015625 -12.34375 L 8.5 -12.40625 L 8.703125 -17.40625 C 8.742188 -18.6875 9.140625 -19.648438 9.890625 -20.296875 C 10.640625 -20.953125 11.675781 -21.28125 13 -21.28125 C 13.863281 -21.28125 14.644531 -21.109375 15.34375 -20.765625 C 16.039062 -20.429688 16.582031 -19.925781 16.96875 -19.25 C 17.351562 -18.582031 17.488281 -17.722656 17.375 -16.671875 L 16.390625 -6.25 C 16.296875 -5.039062 15.953125 -4.066406 15.359375 -3.328125 C 14.765625 -2.597656 13.828125 -2 12.546875 -1.53125 Z M 8.90625 -0.203125 "/></g></g></g><g fill="#61888d" fill-opacity="1"><g transform="translate(127.703734, 293.727924)"><g><path d="M 15.203125 -2.96875 C 15.253906 -1.945312 15.039062 -1.195312 14.5625 -0.71875 C 14.082031 -0.238281 13.296875 0 12.203125 0 L 7.484375 0 L 7.484375 -3 L 10.453125 -3 C 10.847656 -3 11.117188 -3.09375 11.265625 -3.28125 C 11.421875 -3.46875 11.488281 -3.75 11.46875 -4.125 L 10.9375 -15.375 C 10.894531 -16.40625 10.710938 -17.097656 10.390625 -17.453125 C 10.078125 -17.816406 9.617188 -18 9.015625 -18 L 8.3125 -18 C 7.875 -18 7.566406 -17.878906 7.390625 -17.640625 C 7.210938 -17.410156 7.09375 -16.992188 7.03125 -16.390625 L 4.921875 0 L 1.21875 0 L 3.21875 -15.34375 C 3.375 -16.53125 3.6875 -17.40625 4.15625 -17.96875 L 1.8125 -17.96875 L 1.8125 -20.96875 L 10 -20.96875 C 11.320312 -20.96875 12.394531 -20.609375 13.21875 -19.890625 C 14.050781 -19.171875 14.515625 -17.804688 14.609375 -15.796875 Z M 15.203125 -2.96875 "/></g></g></g><g fill="#61888d" fill-opacity="1"><g transform="translate(143.814722, 293.727924)"><g><path d="M 5.796875 0 C 4.679688 0 3.925781 -0.347656 3.53125 -1.046875 C 3.132812 -1.742188 3.144531 -2.710938 3.5625 -3.953125 L 8.140625 -16.703125 C 8.285156 -17.097656 8.285156 -17.40625 8.140625 -17.625 C 8.003906 -17.851562 7.738281 -17.96875 7.34375 -17.96875 L 1.75 -17.96875 C 1.375 -17.96875 1.101562 -18.046875 0.9375 -18.203125 C 0.78125 -18.367188 0.703125 -18.648438 0.703125 -19.046875 L 0.703125 -23.765625 L 4.1875 -23.765625 L 4.1875 -20.96875 L 9.546875 -20.96875 C 10.710938 -20.96875 11.515625 -20.570312 11.953125 -19.78125 C 12.398438 -18.988281 12.398438 -17.988281 11.953125 -16.78125 L 7.3125 -3.921875 C 7.21875 -3.660156 7.195312 -3.441406 7.25 -3.265625 C 7.3125 -3.085938 7.492188 -3 7.796875 -3 L 9.1875 -3 L 9.1875 0 Z M 5.796875 0 "/></g></g></g><g fill="#61888d" fill-opacity="1"><g transform="translate(157.33966, 293.727924)"><g/></g></g><g fill="#61888d" fill-opacity="1"><g transform="translate(164.888468, 293.727924)"><g><path d="M 5.796875 0 C 4.679688 0 3.925781 -0.347656 3.53125 -1.046875 C 3.132812 -1.742188 3.144531 -2.710938 3.5625 -3.953125 L 8.140625 -16.703125 C 8.285156 -17.097656 8.285156 -17.40625 8.140625 -17.625 C 8.003906 -17.851562 7.738281 -17.96875 7.34375 -17.96875 L 1.75 -17.96875 C 1.375 -17.96875 1.101562 -18.046875 0.9375 -18.203125 C 0.78125 -18.367188 0.703125 -18.648438 0.703125 -19.046875 L 0.703125 -23.765625 L 4.1875 -23.765625 L 4.1875 -20.96875 L 9.546875 -20.96875 C 10.710938 -20.96875 11.515625 -20.570312 11.953125 -19.78125 C 12.398438 -18.988281 12.398438 -17.988281 11.953125 -16.78125 L 7.3125 -3.921875 C 7.21875 -3.660156 7.195312 -3.441406 7.25 -3.265625 C 7.3125 -3.085938 7.492188 -3 7.796875 -3 L 9.1875 -3 L 9.1875 0 Z M 5.796875 0 "/></g></g></g><g fill="#61888d" fill-opacity="1"><g transform="translate(177.714325, 293.727924)"><g><path d="M 12.03125 0 L 8.5625 0 L 6.296875 -7.625 L 5.25 -7.234375 C 4.820312 -7.066406 4.597656 -6.800781 4.578125 -6.4375 L 3.703125 0 L 0.171875 0 L 1.296875 -7.375 C 1.390625 -7.976562 1.582031 -8.453125 1.875 -8.796875 C 2.164062 -9.148438 2.585938 -9.445312 3.140625 -9.6875 L 5.625 -10.65625 C 6.019531 -10.800781 6.304688 -11.007812 6.484375 -11.28125 C 6.660156 -11.5625 6.75 -11.960938 6.75 -12.484375 L 6.75 -16.84375 C 6.75 -17.257812 6.664062 -17.550781 6.5 -17.71875 C 6.332031 -17.882812 6.039062 -17.96875 5.625 -17.96875 L 2.796875 -17.96875 L 2.796875 -20.96875 L 7.3125 -20.96875 C 8.332031 -20.96875 9.082031 -20.71875 9.5625 -20.21875 C 10.039062 -19.71875 10.28125 -18.910156 10.28125 -17.796875 L 10.28125 -10.96875 C 10.28125 -10.4375 10.203125 -10 10.046875 -9.65625 C 9.898438 -9.320312 9.675781 -9.0625 9.375 -8.875 Z M 12.03125 0 "/></g></g></g><g fill="#61888d" fill-opacity="1"><g transform="translate(190.085889, 293.727924)"><g><path d="M 7.65625 0 L 7.65625 -16.703125 C 7.65625 -17.546875 7.234375 -17.96875 6.390625 -17.96875 L 0.703125 -17.96875 L 0.703125 -20.96875 L 8.140625 -20.96875 C 9.265625 -20.96875 10.078125 -20.71875 10.578125 -20.21875 C 11.078125 -19.71875 11.328125 -18.894531 11.328125 -17.75 L 11.328125 0 Z M 7.65625 0 "/></g></g></g><g fill="#61888d" fill-opacity="1"><g transform="translate(203.575874, 293.727924)"><g><path d="M 12.515625 -20.96875 C 13.679688 -20.96875 14.585938 -20.804688 15.234375 -20.484375 C 15.890625 -20.160156 16.335938 -19.59375 16.578125 -18.78125 C 16.828125 -17.976562 16.90625 -16.867188 16.8125 -15.453125 L 16.1875 -5.703125 C 16.113281 -4.535156 15.847656 -3.546875 15.390625 -2.734375 C 14.941406 -1.929688 13.992188 -1.332031 12.546875 -0.9375 L 7.90625 0.109375 C 6.476562 0.484375 5.476562 0.414062 4.90625 -0.09375 C 4.332031 -0.613281 4.003906 -1.421875 3.921875 -2.515625 L 3 -15.90625 C 2.976562 -16.34375 3.019531 -16.742188 3.125 -17.109375 C 3.226562 -17.472656 3.375 -17.769531 3.5625 -18 C 2.9375 -18.09375 2.347656 -18.304688 1.796875 -18.640625 C 1.253906 -18.984375 0.804688 -19.515625 0.453125 -20.234375 L 2.65625 -22.296875 C 2.976562 -21.765625 3.296875 -21.410156 3.609375 -21.234375 C 3.929688 -21.054688 4.382812 -20.96875 4.96875 -20.96875 Z M 13.25 -14.71875 C 13.320312 -15.644531 13.328125 -16.347656 13.265625 -16.828125 C 13.203125 -17.304688 13.023438 -17.625 12.734375 -17.78125 C 12.441406 -17.945312 11.972656 -18.019531 11.328125 -18 L 7.4375 -17.96875 C 6.769531 -17.851562 6.46875 -17.375 6.53125 -16.53125 L 7.4375 -3.921875 C 7.507812 -3.117188 7.941406 -2.828125 8.734375 -3.046875 L 11.15625 -3.78125 C 11.757812 -3.9375 12.164062 -4.179688 12.375 -4.515625 C 12.582031 -4.859375 12.710938 -5.453125 12.765625 -6.296875 Z M 13.25 -14.71875 "/></g></g></g><g fill="#61888d" fill-opacity="1"><g transform="translate(222.063477, 293.727924)"><g><path d="M 11.25 0 L 11.25 -16.78125 C 11.25 -17.570312 10.863281 -17.96875 10.09375 -17.96875 L 2.03125 -17.96875 L 2.03125 -20.96875 L 11.921875 -20.96875 C 12.992188 -20.96875 13.757812 -20.707031 14.21875 -20.1875 C 14.6875 -19.664062 14.921875 -18.820312 14.921875 -17.65625 L 14.921875 0 Z M 3.8125 0 C 2.625 0 2.03125 -0.601562 2.03125 -1.8125 L 2.03125 -13.078125 L 5.703125 -13.078125 L 5.703125 -3.671875 C 5.703125 -3.222656 5.875 -3 6.21875 -3 L 6.671875 -3 L 6.671875 0 Z M 3.8125 0 "/></g></g></g><g fill="#61888d" fill-opacity="1"><g transform="translate(239.188077, 293.727924)"><g/></g></g><g fill="#61888d" fill-opacity="1"><g transform="translate(246.736885, 293.727924)"><g><path d="M 5.796875 0 C 4.679688 0 3.925781 -0.347656 3.53125 -1.046875 C 3.132812 -1.742188 3.144531 -2.710938 3.5625 -3.953125 L 8.140625 -16.703125 C 8.285156 -17.097656 8.285156 -17.40625 8.140625 -17.625 C 8.003906 -17.851562 7.738281 -17.96875 7.34375 -17.96875 L 1.75 -17.96875 C 1.375 -17.96875 1.101562 -18.046875 0.9375 -18.203125 C 0.78125 -18.367188 0.703125 -18.648438 0.703125 -19.046875 L 0.703125 -23.765625 L 4.1875 -23.765625 L 4.1875 -20.96875 L 9.546875 -20.96875 C 10.710938 -20.96875 11.515625 -20.570312 11.953125 -19.78125 C 12.398438 -18.988281 12.398438 -17.988281 11.953125 -16.78125 L 7.3125 -3.921875 C 7.21875 -3.660156 7.195312 -3.441406 7.25 -3.265625 C 7.3125 -3.085938 7.492188 -3 7.796875 -3 L 9.1875 -3 L 9.1875 0 Z M 5.796875 0 "/></g></g></g><g fill="#61888d" fill-opacity="1"><g transform="translate(260.261823, 293.727924)"><g><path d="M 11.046875 -20.96875 L 14.71875 -20.96875 L 14.71875 -9.578125 C 14.71875 -7.878906 14.472656 -6.515625 13.984375 -5.484375 C 13.492188 -4.460938 12.773438 -3.632812 11.828125 -3 C 10.890625 -2.375 9.734375 -1.78125 8.359375 -1.21875 L 2.09375 1.265625 L 1.015625 -1.609375 L 4.96875 -3.140625 C 4.664062 -3.421875 4.40625 -3.773438 4.1875 -4.203125 C 3.976562 -4.640625 3.84375 -5.160156 3.78125 -5.765625 L 1.640625 -20.96875 L 5.3125 -20.96875 L 7.484375 -5.515625 C 7.546875 -5.023438 7.675781 -4.71875 7.875 -4.59375 C 8.070312 -4.46875 8.289062 -4.453125 8.53125 -4.546875 L 8.671875 -4.578125 C 9.441406 -4.929688 10.03125 -5.390625 10.4375 -5.953125 C 10.84375 -6.523438 11.046875 -7.394531 11.046875 -8.5625 Z M 11.046875 -20.96875 "/></g></g></g><g fill="#61888d" fill-opacity="1"><g transform="translate(276.967047, 293.727924)"><g/></g></g><g fill="#61888d" fill-opacity="1"><g transform="translate(284.515867, 293.727924)"><g><path d="M 11.25 0 L 11.25 -16.78125 C 11.25 -17.570312 10.863281 -17.96875 10.09375 -17.96875 L 2.03125 -17.96875 L 2.03125 -20.96875 L 11.921875 -20.96875 C 12.992188 -20.96875 13.757812 -20.707031 14.21875 -20.1875 C 14.6875 -19.664062 14.921875 -18.820312 14.921875 -17.65625 L 14.921875 0 Z M 3.8125 0 C 2.625 0 2.03125 -0.601562 2.03125 -1.8125 L 2.03125 -13.078125 L 5.703125 -13.078125 L 5.703125 -3.671875 C 5.703125 -3.222656 5.875 -3 6.21875 -3 L 6.671875 -3 L 6.671875 0 Z M 3.8125 0 "/></g></g></g><g fill="#61888d" fill-opacity="1"><g transform="translate(301.640455, 293.727924)"><g><path d="M 12.96875 -8.171875 L 14.015625 -3.671875 C 14.273438 -2.597656 14.164062 -1.71875 13.6875 -1.03125 C 13.207031 -0.34375 12.382812 0 11.21875 0 L 1.125 0 L 1.125 -3 L 9.1875 -3 C 9.519531 -3 9.796875 -3.101562 10.015625 -3.3125 C 10.234375 -3.53125 10.273438 -3.929688 10.140625 -4.515625 L 9.46875 -7.203125 C 9.3125 -7.847656 8.914062 -8.335938 8.28125 -8.671875 L 4.75 -10.3125 C 4.332031 -10.5 4.007812 -10.710938 3.78125 -10.953125 C 3.5625 -11.203125 3.394531 -11.570312 3.28125 -12.0625 L 1.078125 -20.96875 L 4.828125 -20.96875 L 6.8125 -12.859375 C 6.882812 -12.515625 7.109375 -12.257812 7.484375 -12.09375 L 8.078125 -11.8125 L 10.34375 -20.96875 L 14.15625 -20.96875 L 11.390625 -10.234375 C 11.785156 -10.003906 12.113281 -9.738281 12.375 -9.4375 C 12.632812 -9.132812 12.832031 -8.710938 12.96875 -8.171875 Z M 12.96875 -8.171875 "/></g></g></g><g fill="#61888d" fill-opacity="1"><g transform="translate(317.192318, 293.727924)"><g><path d="M 3.640625 -9.1875 L 3.640625 -17.203125 C 3.640625 -17.710938 3.367188 -17.96875 2.828125 -17.96875 L 1.1875 -17.96875 L 1.1875 -20.96875 L 4.6875 -20.96875 C 5.632812 -20.96875 6.300781 -20.773438 6.6875 -20.390625 C 7.070312 -20.003906 7.265625 -19.335938 7.265625 -18.390625 L 7.265625 -9.1875 Z M 3.640625 -9.1875 "/></g></g></g><g fill="#61888d" fill-opacity="1"><g transform="translate(326.208928, 293.727924)"><g><path d="M 18 -20.96875 L 18 -17.96875 L 16.046875 -17.96875 C 16.273438 -17.519531 16.390625 -16.832031 16.390625 -15.90625 L 16.390625 0 L 12.71875 0 L 12.71875 -16.421875 C 12.71875 -17.035156 12.644531 -17.445312 12.5 -17.65625 C 12.363281 -17.863281 12.125 -17.96875 11.78125 -17.96875 L 7.6875 -17.96875 C 7.34375 -17.96875 7.097656 -17.863281 6.953125 -17.65625 C 6.816406 -17.445312 6.75 -17.035156 6.75 -16.421875 L 6.75 0 L 3.078125 0 L 3.078125 -15.90625 C 3.078125 -16.832031 3.191406 -17.519531 3.421875 -17.96875 L 1.46875 -17.96875 L 1.46875 -20.96875 Z M 18 -20.96875 "/></g></g></g><g fill="#61888d" fill-opacity="1"><g transform="translate(345.779932, 293.727924)"><g><path d="M 5.796875 0 C 4.679688 0 3.925781 -0.347656 3.53125 -1.046875 C 3.132812 -1.742188 3.144531 -2.710938 3.5625 -3.953125 L 8.140625 -16.703125 C 8.285156 -17.097656 8.285156 -17.40625 8.140625 -17.625 C 8.003906 -17.851562 7.738281 -17.96875 7.34375 -17.96875 L 1.75 -17.96875 C 1.375 -17.96875 1.101562 -18.046875 0.9375 -18.203125 C 0.78125 -18.367188 0.703125 -18.648438 0.703125 -19.046875 L 0.703125 -23.765625 L 4.1875 -23.765625 L 4.1875 -20.96875 L 9.546875 -20.96875 C 10.710938 -20.96875 11.515625 -20.570312 11.953125 -19.78125 C 12.398438 -18.988281 12.398438 -17.988281 11.953125 -16.78125 L 7.3125 -3.921875 C 7.21875 -3.660156 7.195312 -3.441406 7.25 -3.265625 C 7.3125 -3.085938 7.492188 -3 7.796875 -3 L 9.1875 -3 L 9.1875 0 Z M 5.796875 0 "/></g></g></g><g fill="#61888d" fill-opacity="1"><g transform="translate(359.304846, 293.727924)"><g/></g></g><g fill="#61888d" fill-opacity="1"><g transform="translate(366.853666, 293.727924)"><g><path d="M 12.40625 -20.96875 C 13.570312 -20.96875 14.410156 -20.710938 14.921875 -20.203125 C 15.429688 -19.691406 15.6875 -18.84375 15.6875 -17.65625 L 15.6875 0 L 12.03125 0 L 12.03125 -16.75 C 12.03125 -17.582031 11.617188 -18 10.796875 -18 L 8.359375 -18 C 7.566406 -18 7.015625 -17.757812 6.703125 -17.28125 C 6.398438 -16.800781 6.34375 -15.804688 6.53125 -14.296875 L 7.796875 -4.125 C 8.003906 -2.769531 7.875 -1.742188 7.40625 -1.046875 C 6.945312 -0.347656 6.0625 0 4.75 0 L 1.15625 0 L 1.15625 -3 L 3.25 -3 C 3.570312 -3 3.816406 -3.09375 3.984375 -3.28125 C 4.148438 -3.46875 4.195312 -3.796875 4.125 -4.265625 L 3 -13.59375 C 2.84375 -14.925781 2.835938 -15.914062 2.984375 -16.5625 C 3.140625 -17.21875 3.332031 -17.6875 3.5625 -17.96875 L 1.21875 -17.96875 L 1.21875 -20.96875 Z M 12.40625 -20.96875 "/></g></g></g><g fill="#61888d" fill-opacity="1"><g transform="translate(384.712184, 293.727924)"><g><path d="M 3.703125 0 L 3.703125 -17.203125 C 3.703125 -17.710938 3.4375 -17.96875 2.90625 -17.96875 L 1.328125 -17.96875 L 1.328125 -20.96875 L 5.03125 -20.96875 C 5.875 -20.96875 6.472656 -20.789062 6.828125 -20.4375 C 7.191406 -20.09375 7.375 -19.503906 7.375 -18.671875 L 7.375 0 Z M 3.703125 0 "/></g></g></g><g fill="#61888d" fill-opacity="1"><g transform="translate(394.218072, 293.727924)"><g><path d="M 11.046875 -20.96875 L 14.71875 -20.96875 L 14.71875 -9.578125 C 14.71875 -7.878906 14.472656 -6.515625 13.984375 -5.484375 C 13.492188 -4.460938 12.773438 -3.632812 11.828125 -3 C 10.890625 -2.375 9.734375 -1.78125 8.359375 -1.21875 L 2.09375 1.265625 L 1.015625 -1.609375 L 4.96875 -3.140625 C 4.664062 -3.421875 4.40625 -3.773438 4.1875 -4.203125 C 3.976562 -4.640625 3.84375 -5.160156 3.78125 -5.765625 L 1.640625 -20.96875 L 5.3125 -20.96875 L 7.484375 -5.515625 C 7.546875 -5.023438 7.675781 -4.71875 7.875 -4.59375 C 8.070312 -4.46875 8.289062 -4.453125 8.53125 -4.546875 L 8.671875 -4.578125 C 9.441406 -4.929688 10.03125 -5.390625 10.4375 -5.953125 C 10.84375 -6.523438 11.046875 -7.394531 11.046875 -8.5625 Z M 11.046875 -20.96875 "/></g></g></g><g fill="#61888d" fill-opacity="1"><g transform="translate(410.853404, 293.727924)"><g><path d="M 12.96875 -8.171875 L 14.015625 -3.671875 C 14.273438 -2.597656 14.164062 -1.71875 13.6875 -1.03125 C 13.207031 -0.34375 12.382812 0 11.21875 0 L 1.125 0 L 1.125 -3 L 9.1875 -3 C 9.519531 -3 9.796875 -3.101562 10.015625 -3.3125 C 10.234375 -3.53125 10.273438 -3.929688 10.140625 -4.515625 L 9.46875 -7.203125 C 9.3125 -7.847656 8.914062 -8.335938 8.28125 -8.671875 L 4.75 -10.3125 C 4.332031 -10.5 4.007812 -10.710938 3.78125 -10.953125 C 3.5625 -11.203125 3.394531 -11.570312 3.28125 -12.0625 L 1.078125 -20.96875 L 4.828125 -20.96875 L 6.8125 -12.859375 C 6.882812 -12.515625 7.109375 -12.257812 7.484375 -12.09375 L 8.078125 -11.8125 L 10.34375 -20.96875 L 14.15625 -20.96875 L 11.390625 -10.234375 C 11.785156 -10.003906 12.113281 -9.738281 12.375 -9.4375 C 12.632812 -9.132812 12.832031 -8.710938 12.96875 -8.171875 Z M 12.96875 -8.171875 "/></g></g></g><g fill="#61888d" fill-opacity="1"><g transform="translate(426.615001, 293.727924)"><g><path d="M 15.203125 -2.96875 C 15.253906 -1.945312 15.039062 -1.195312 14.5625 -0.71875 C 14.082031 -0.238281 13.296875 0 12.203125 0 L 7.484375 0 L 7.484375 -3 L 10.453125 -3 C 10.847656 -3 11.117188 -3.09375 11.265625 -3.28125 C 11.421875 -3.46875 11.488281 -3.75 11.46875 -4.125 L 10.9375 -15.375 C 10.894531 -16.40625 10.710938 -17.097656 10.390625 -17.453125 C 10.078125 -17.816406 9.617188 -18 9.015625 -18 L 8.3125 -18 C 7.875 -18 7.566406 -17.878906 7.390625 -17.640625 C 7.210938 -17.410156 7.09375 -16.992188 7.03125 -16.390625 L 4.921875 0 L 1.21875 0 L 3.21875 -15.34375 C 3.375 -16.53125 3.6875 -17.40625 4.15625 -17.96875 L 1.8125 -17.96875 L 1.8125 -20.96875 L 10 -20.96875 C 11.320312 -20.96875 12.394531 -20.609375 13.21875 -19.890625 C 14.050781 -19.171875 14.515625 -17.804688 14.609375 -15.796875 Z M 15.203125 -2.96875 "/></g></g></g><g fill="#61888d" fill-opacity="1"><g transform="translate(443.285274, 293.727924)"><g><path d="M 6.015625 -12.15625 C 5.566406 -11.945312 5.285156 -11.679688 5.171875 -11.359375 C 5.054688 -11.035156 5.082031 -10.5 5.25 -9.75 L 6.78125 -3.140625 C 7.039062 -2.210938 7.039062 -1.457031 6.78125 -0.875 C 6.519531 -0.289062 5.960938 0 5.109375 0 L 1.4375 0 L 1.4375 -3 L 2.59375 -3 C 2.957031 -3 3.109375 -3.1875 3.046875 -3.5625 L 1.859375 -9.5 C 1.546875 -10.96875 1.648438 -12.082031 2.171875 -12.84375 C 2.703125 -13.601562 3.4375 -14.226562 4.375 -14.71875 L 4.890625 -15 L 1.609375 -20.96875 L 5.3125 -20.96875 L 10.5625 -11.015625 L 10.875 -11.21875 C 11.269531 -11.476562 11.535156 -11.726562 11.671875 -11.96875 C 11.816406 -12.21875 11.890625 -12.664062 11.890625 -13.3125 L 11.890625 -20.96875 L 15.453125 -20.96875 L 15.453125 -13.03125 C 15.453125 -11.957031 15.253906 -11.097656 14.859375 -10.453125 C 14.460938 -9.816406 13.832031 -9.222656 12.96875 -8.671875 L 12.09375 -8.078125 L 16.1875 0 L 12.484375 0 L 6.328125 -12.296875 Z M 6.015625 -12.15625 "/></g></g></g><g fill="#61888d" fill-opacity="1"><g transform="translate(460.444803, 293.727924)"><g><path d="M 12.375 -3 L 13.59375 -3 L 13.59375 0 L 0.796875 0 L 0.796875 -3 L 8.171875 -3 C 8.109375 -3.144531 8.050781 -3.316406 8 -3.515625 C 7.957031 -3.710938 7.9375 -3.925781 7.9375 -4.15625 L 7.9375 -16.78125 C 7.9375 -17.21875 7.847656 -17.523438 7.671875 -17.703125 C 7.492188 -17.878906 7.1875 -17.96875 6.75 -17.96875 L 1.1875 -17.96875 L 1.1875 -20.96875 L 8.453125 -20.96875 C 9.578125 -20.96875 10.382812 -20.710938 10.875 -20.203125 C 11.363281 -19.691406 11.609375 -18.84375 11.609375 -17.65625 L 11.609375 -3.875 C 11.609375 -3.289062 11.863281 -3 12.375 -3 Z M 12.375 -3 "/></g></g></g><g fill="#61888d" fill-opacity="1"><g transform="translate(474.493959, 293.727924)"><g/></g></g><g fill="#61888d" fill-opacity="1"><g transform="translate(482.042801, 293.727924)"><g><path d="M 12.40625 -20.96875 C 13.570312 -20.96875 14.410156 -20.710938 14.921875 -20.203125 C 15.429688 -19.691406 15.6875 -18.84375 15.6875 -17.65625 L 15.6875 0 L 12.03125 0 L 12.03125 -16.75 C 12.03125 -17.582031 11.617188 -18 10.796875 -18 L 8.359375 -18 C 7.566406 -18 7.015625 -17.757812 6.703125 -17.28125 C 6.398438 -16.800781 6.34375 -15.804688 6.53125 -14.296875 L 7.796875 -4.125 C 8.003906 -2.769531 7.875 -1.742188 7.40625 -1.046875 C 6.945312 -0.347656 6.0625 0 4.75 0 L 1.15625 0 L 1.15625 -3 L 3.25 -3 C 3.570312 -3 3.816406 -3.09375 3.984375 -3.28125 C 4.148438 -3.46875 4.195312 -3.796875 4.125 -4.265625 L 3 -13.59375 C 2.84375 -14.925781 2.835938 -15.914062 2.984375 -16.5625 C 3.140625 -17.21875 3.332031 -17.6875 3.5625 -17.96875 L 1.21875 -17.96875 L 1.21875 -20.96875 Z M 12.40625 -20.96875 "/></g></g></g><g fill="#61888d" fill-opacity="1"><g transform="translate(499.901296, 293.727924)"><g><path d="M 3.703125 0 L 3.703125 -17.203125 C 3.703125 -17.710938 3.4375 -17.96875 2.90625 -17.96875 L 1.328125 -17.96875 L 1.328125 -20.96875 L 5.03125 -20.96875 C 5.875 -20.96875 6.472656 -20.789062 6.828125 -20.4375 C 7.191406 -20.09375 7.375 -19.503906 7.375 -18.671875 L 7.375 0 Z M 3.703125 0 "/></g></g></g><g fill="#61888d" fill-opacity="1"><g transform="translate(509.407207, 293.727924)"><g><path d="M 15.203125 -2.96875 C 15.253906 -1.945312 15.039062 -1.195312 14.5625 -0.71875 C 14.082031 -0.238281 13.296875 0 12.203125 0 L 7.484375 0 L 7.484375 -3 L 10.453125 -3 C 10.847656 -3 11.117188 -3.09375 11.265625 -3.28125 C 11.421875 -3.46875 11.488281 -3.75 11.46875 -4.125 L 10.9375 -15.375 C 10.894531 -16.40625 10.710938 -17.097656 10.390625 -17.453125 C 10.078125 -17.816406 9.617188 -18 9.015625 -18 L 8.3125 -18 C 7.875 -18 7.566406 -17.878906 7.390625 -17.640625 C 7.210938 -17.410156 7.09375 -16.992188 7.03125 -16.390625 L 4.921875 0 L 1.21875 0 L 3.21875 -15.34375 C 3.375 -16.53125 3.6875 -17.40625 4.15625 -17.96875 L 1.8125 -17.96875 L 1.8125 -20.96875 L 10 -20.96875 C 11.320312 -20.96875 12.394531 -20.609375 13.21875 -19.890625 C 14.050781 -19.171875 14.515625 -17.804688 14.609375 -15.796875 Z M 15.203125 -2.96875 "/></g></g></g><g fill="#61888d" fill-opacity="1"><g transform="translate(525.518138, 293.727924)"><g><path d="M 0.703125 -20.96875 L 13.03125 -20.96875 L 13.03125 -17.96875 L 11.984375 -17.96875 C 11.265625 -17.96875 10.90625 -17.488281 10.90625 -16.53125 L 10.90625 0 L 7.40625 0 L 7.40625 -16.046875 C 7.40625 -16.878906 7.535156 -17.519531 7.796875 -17.96875 L 0.703125 -17.96875 Z M 0.703125 -20.96875 "/></g></g></g><g fill="#61888d" fill-opacity="1"><g transform="translate(539.846953, 293.727924)"><g><path d="M 3.703125 0 L 3.703125 -17.203125 C 3.703125 -17.710938 3.4375 -17.96875 2.90625 -17.96875 L 1.328125 -17.96875 L 1.328125 -20.96875 L 5.03125 -20.96875 C 5.875 -20.96875 6.472656 -20.789062 6.828125 -20.4375 C 7.191406 -20.09375 7.375 -19.503906 7.375 -18.671875 L 7.375 0 Z M 3.703125 0 "/></g></g></g><g fill="#61888d" fill-opacity="1"><g transform="translate(549.352864, 293.727924)"><g><path d="M 14.8125 -20.96875 C 15.84375 -20.96875 16.535156 -20.617188 16.890625 -19.921875 C 17.253906 -19.222656 17.3125 -18.363281 17.0625 -17.34375 L 12.890625 0 L 9.15625 0 L 13.171875 -16.875 C 13.265625 -17.269531 13.265625 -17.554688 13.171875 -17.734375 C 13.078125 -17.910156 12.832031 -18 12.4375 -18 L 7.6875 -18 C 7.40625 -18 7.179688 -17.941406 7.015625 -17.828125 C 6.859375 -17.710938 6.78125 -17.421875 6.78125 -16.953125 L 6.78125 1.609375 C 6.78125 1.929688 6.941406 2.09375 7.265625 2.09375 L 7.90625 2.09375 L 7.90625 5.03125 L 5.03125 5.03125 C 3.75 5.03125 3.109375 4.390625 3.109375 3.109375 L 3.109375 -16.53125 C 3.109375 -17.226562 3.238281 -17.707031 3.5 -17.96875 L 1.46875 -17.96875 L 1.46875 -20.96875 Z M 14.8125 -20.96875 "/></g></g></g><g fill="#61888d" fill-opacity="1"><g transform="translate(567.420955, 293.727924)"><g><path d="M 11.25 0 L 11.25 -16.78125 C 11.25 -17.570312 10.863281 -17.96875 10.09375 -17.96875 L 2.03125 -17.96875 L 2.03125 -20.96875 L 11.921875 -20.96875 C 12.992188 -20.96875 13.757812 -20.707031 14.21875 -20.1875 C 14.6875 -19.664062 14.921875 -18.820312 14.921875 -17.65625 L 14.921875 0 Z M 3.8125 0 C 2.625 0 2.03125 -0.601562 2.03125 -1.8125 L 2.03125 -13.078125 L 5.703125 -13.078125 L 5.703125 -3.671875 C 5.703125 -3.222656 5.875 -3 6.21875 -3 L 6.671875 -3 L 6.671875 0 Z M 3.8125 0 "/></g></g></g><g fill="#61888d" fill-opacity="1"><g transform="translate(584.545589, 293.727924)"><g/></g></g><g fill="#61888d" fill-opacity="1"><g transform="translate(592.094386, 293.727924)"><g><path d="M 0.703125 -20.96875 L 13.03125 -20.96875 L 13.03125 -17.96875 L 11.984375 -17.96875 C 11.265625 -17.96875 10.90625 -17.488281 10.90625 -16.53125 L 10.90625 0 L 7.40625 0 L 7.40625 -16.046875 C 7.40625 -16.878906 7.535156 -17.519531 7.796875 -17.96875 L 0.703125 -17.96875 Z M 0.703125 -20.96875 "/></g></g></g><g fill="#61888d" fill-opacity="1"><g transform="translate(606.423155, 293.727924)"><g><path d="M 3.703125 0 L 3.703125 -17.203125 C 3.703125 -17.710938 3.4375 -17.96875 2.90625 -17.96875 L 1.328125 -17.96875 L 1.328125 -20.96875 L 5.03125 -20.96875 C 5.875 -20.96875 6.472656 -20.789062 6.828125 -20.4375 C 7.191406 -20.09375 7.375 -19.503906 7.375 -18.671875 L 7.375 0 Z M 3.703125 0 "/></g></g></g><g fill="#61888d" fill-opacity="1"><g transform="translate(615.929066, 293.727924)"><g><path d="M 15.203125 -2.96875 C 15.253906 -1.945312 15.039062 -1.195312 14.5625 -0.71875 C 14.082031 -0.238281 13.296875 0 12.203125 0 L 7.484375 0 L 7.484375 -3 L 10.453125 -3 C 10.847656 -3 11.117188 -3.09375 11.265625 -3.28125 C 11.421875 -3.46875 11.488281 -3.75 11.46875 -4.125 L 10.9375 -15.375 C 10.894531 -16.40625 10.710938 -17.097656 10.390625 -17.453125 C 10.078125 -17.816406 9.617188 -18 9.015625 -18 L 8.3125 -18 C 7.875 -18 7.566406 -17.878906 7.390625 -17.640625 C 7.210938 -17.410156 7.09375 -16.992188 7.03125 -16.390625 L 4.921875 0 L 1.21875 0 L 3.21875 -15.34375 C 3.375 -16.53125 3.6875 -17.40625 4.15625 -17.96875 L 1.8125 -17.96875 L 1.8125 -20.96875 L 10 -20.96875 C 11.320312 -20.96875 12.394531 -20.609375 13.21875 -19.890625 C 14.050781 -19.171875 14.515625 -17.804688 14.609375 -15.796875 Z M 15.203125 -2.96875 "/></g></g></g><g fill="#61888d" fill-opacity="1"><g transform="translate(631.970117, 293.727924)"><g><path d="M 3.640625 -9.1875 L 3.640625 -17.203125 C 3.640625 -17.710938 3.367188 -17.96875 2.828125 -17.96875 L 1.1875 -17.96875 L 1.1875 -20.96875 L 4.6875 -20.96875 C 5.632812 -20.96875 6.300781 -20.773438 6.6875 -20.390625 C 7.070312 -20.003906 7.265625 -19.335938 7.265625 -18.390625 L 7.265625 -9.1875 Z M 3.640625 -9.1875 "/></g></g></g><g fill="#61888d" fill-opacity="1"><g transform="translate(641.196459, 293.727924)"><g><path d="M 5.796875 0 C 4.679688 0 3.925781 -0.347656 3.53125 -1.046875 C 3.132812 -1.742188 3.144531 -2.710938 3.5625 -3.953125 L 8.140625 -16.703125 C 8.285156 -17.097656 8.285156 -17.40625 8.140625 -17.625 C 8.003906 -17.851562 7.738281 -17.96875 7.34375 -17.96875 L 1.75 -17.96875 C 1.375 -17.96875 1.101562 -18.046875 0.9375 -18.203125 C 0.78125 -18.367188 0.703125 -18.648438 0.703125 -19.046875 L 0.703125 -23.765625 L 4.1875 -23.765625 L 4.1875 -20.96875 L 9.546875 -20.96875 C 10.710938 -20.96875 11.515625 -20.570312 11.953125 -19.78125 C 12.398438 -18.988281 12.398438 -17.988281 11.953125 -16.78125 L 7.3125 -3.921875 C 7.21875 -3.660156 7.195312 -3.441406 7.25 -3.265625 C 7.3125 -3.085938 7.492188 -3 7.796875 -3 L 9.1875 -3 L 9.1875 0 Z M 5.796875 0 "/></g></g></g><g fill="#61888d" fill-opacity="1"><g transform="translate(654.336893, 293.727924)"><g><path d="M 11.25 0 L 11.25 -16.78125 C 11.25 -17.570312 10.863281 -17.96875 10.09375 -17.96875 L 2.03125 -17.96875 L 2.03125 -20.96875 L 11.921875 -20.96875 C 12.992188 -20.96875 13.757812 -20.707031 14.21875 -20.1875 C 14.6875 -19.664062 14.921875 -18.820312 14.921875 -17.65625 L 14.921875 0 Z M 3.8125 0 C 2.625 0 2.03125 -0.601562 2.03125 -1.8125 L 2.03125 -13.078125 L 5.703125 -13.078125 L 5.703125 -3.671875 C 5.703125 -3.222656 5.875 -3 6.21875 -3 L 6.671875 -3 L 6.671875 0 Z M 3.8125 0 "/></g></g></g><g fill="#61888d" fill-opacity="1"><g transform="translate(671.461482, 293.727924)"><g/></g></g><g fill="#61888d" fill-opacity="1"><g transform="translate(679.010324, 293.727924)"><g><path d="M 12.40625 -20.96875 C 13.570312 -20.96875 14.410156 -20.710938 14.921875 -20.203125 C 15.429688 -19.691406 15.6875 -18.84375 15.6875 -17.65625 L 15.6875 0 L 12.03125 0 L 12.03125 -16.75 C 12.03125 -17.582031 11.617188 -18 10.796875 -18 L 8.359375 -18 C 7.566406 -18 7.015625 -17.757812 6.703125 -17.28125 C 6.398438 -16.800781 6.34375 -15.804688 6.53125 -14.296875 L 7.796875 -4.125 C 8.003906 -2.769531 7.875 -1.742188 7.40625 -1.046875 C 6.945312 -0.347656 6.0625 0 4.75 0 L 1.15625 0 L 1.15625 -3 L 3.25 -3 C 3.570312 -3 3.816406 -3.09375 3.984375 -3.28125 C 4.148438 -3.46875 4.195312 -3.796875 4.125 -4.265625 L 3 -13.59375 C 2.84375 -14.925781 2.835938 -15.914062 2.984375 -16.5625 C 3.140625 -17.21875 3.332031 -17.6875 3.5625 -17.96875 L 1.21875 -17.96875 L 1.21875 -20.96875 Z M 12.40625 -20.96875 "/></g></g></g><g fill="#61888d" fill-opacity="1"><g transform="translate(696.868819, 293.727924)"><g><path d="M 3.703125 0 L 3.703125 -17.203125 C 3.703125 -17.710938 3.4375 -17.96875 2.90625 -17.96875 L 1.328125 -17.96875 L 1.328125 -20.96875 L 5.03125 -20.96875 C 5.875 -20.96875 6.472656 -20.789062 6.828125 -20.4375 C 7.191406 -20.09375 7.375 -19.503906 7.375 -18.671875 L 7.375 0 Z M 3.703125 0 "/></g></g></g><g fill="#61888d" fill-opacity="1"><g transform="translate(706.234923, 293.727924)"><g><path d="M 0.703125 -20.96875 L 13.03125 -20.96875 L 13.03125 -17.96875 L 11.984375 -17.96875 C 11.265625 -17.96875 10.90625 -17.488281 10.90625 -16.53125 L 10.90625 0 L 7.40625 0 L 7.40625 -16.046875 C 7.40625 -16.878906 7.535156 -17.519531 7.796875 -17.96875 L 0.703125 -17.96875 Z M 0.703125 -20.96875 "/></g></g></g><g fill="#61888d" fill-opacity="1"><g transform="translate(720.59861, 293.727924)"><g><path d="M 3.640625 -9.1875 L 3.640625 -17.203125 C 3.640625 -17.710938 3.367188 -17.96875 2.828125 -17.96875 L 1.1875 -17.96875 L 1.1875 -20.96875 L 4.6875 -20.96875 C 5.632812 -20.96875 6.300781 -20.773438 6.6875 -20.390625 C 7.070312 -20.003906 7.265625 -19.335938 7.265625 -18.390625 L 7.265625 -9.1875 Z M 3.640625 -9.1875 "/></g></g></g><g fill="#61888d" fill-opacity="1"><g transform="translate(729.61522, 293.727924)"><g><path d="M 18 -20.96875 L 18 -17.96875 L 16.046875 -17.96875 C 16.273438 -17.519531 16.390625 -16.832031 16.390625 -15.90625 L 16.390625 0 L 12.71875 0 L 12.71875 -16.421875 C 12.71875 -17.035156 12.644531 -17.445312 12.5 -17.65625 C 12.363281 -17.863281 12.125 -17.96875 11.78125 -17.96875 L 7.6875 -17.96875 C 7.34375 -17.96875 7.097656 -17.863281 6.953125 -17.65625 C 6.816406 -17.445312 6.75 -17.035156 6.75 -16.421875 L 6.75 0 L 3.078125 0 L 3.078125 -15.90625 C 3.078125 -16.832031 3.191406 -17.519531 3.421875 -17.96875 L 1.46875 -17.96875 L 1.46875 -20.96875 Z M 18 -20.96875 "/></g></g></g><g fill="#61888d" fill-opacity="1"><g transform="translate(749.081334, 293.727924)"><g><path d="M 3.640625 -9.1875 L 3.640625 -17.203125 C 3.640625 -17.710938 3.367188 -17.96875 2.828125 -17.96875 L 1.1875 -17.96875 L 1.1875 -20.96875 L 4.6875 -20.96875 C 5.632812 -20.96875 6.300781 -20.773438 6.6875 -20.390625 C 7.070312 -20.003906 7.265625 -19.335938 7.265625 -18.390625 L 7.265625 -9.1875 Z M 3.640625 -9.1875 "/></g></g></g><g fill="#61888d" fill-opacity="1"><g transform="translate(758.307677, 293.727924)"><g><path d="M 5.796875 0 C 4.679688 0 3.925781 -0.347656 3.53125 -1.046875 C 3.132812 -1.742188 3.144531 -2.710938 3.5625 -3.953125 L 8.140625 -16.703125 C 8.285156 -17.097656 8.285156 -17.40625 8.140625 -17.625 C 8.003906 -17.851562 7.738281 -17.96875 7.34375 -17.96875 L 1.75 -17.96875 C 1.375 -17.96875 1.101562 -18.046875 0.9375 -18.203125 C 0.78125 -18.367188 0.703125 -18.648438 0.703125 -19.046875 L 0.703125 -23.765625 L 4.1875 -23.765625 L 4.1875 -20.96875 L 9.546875 -20.96875 C 10.710938 -20.96875 11.515625 -20.570312 11.953125 -19.78125 C 12.398438 -18.988281 12.398438 -17.988281 11.953125 -16.78125 L 7.3125 -3.921875 C 7.21875 -3.660156 7.195312 -3.441406 7.25 -3.265625 C 7.3125 -3.085938 7.492188 -3 7.796875 -3 L 9.1875 -3 L 9.1875 0 Z M 5.796875 0 "/></g></g></g><g fill="#61888d" fill-opacity="1"><g transform="translate(771.832614, 293.727924)"><g/></g></g><g fill="#61888d" fill-opacity="1"><g transform="translate(779.381411, 293.727924)"><g><path d="M 7.65625 0 L 7.65625 -16.703125 C 7.65625 -17.546875 7.234375 -17.96875 6.390625 -17.96875 L 0.703125 -17.96875 L 0.703125 -20.96875 L 8.140625 -20.96875 C 9.265625 -20.96875 10.078125 -20.71875 10.578125 -20.21875 C 11.078125 -19.71875 11.328125 -18.894531 11.328125 -17.75 L 11.328125 0 Z M 7.65625 0 "/></g></g></g><g fill="#61888d" fill-opacity="1"><g transform="translate(792.871385, 293.727924)"><g><path d="M 3.703125 0 L 3.703125 -17.203125 C 3.703125 -17.710938 3.4375 -17.96875 2.90625 -17.96875 L 1.328125 -17.96875 L 1.328125 -20.96875 L 5.03125 -20.96875 C 5.875 -20.96875 6.472656 -20.789062 6.828125 -20.4375 C 7.191406 -20.09375 7.375 -19.503906 7.375 -18.671875 L 7.375 0 Z M 3.703125 0 "/></g></g></g><g fill="#61888d" fill-opacity="1"><g transform="translate(802.202526, 293.727924)"><g><path d="M 5 -20.96875 L 10.3125 -20.96875 L 10.3125 -17.96875 L 8.765625 -17.96875 C 7.722656 -17.96875 7.25 -17.316406 7.34375 -16.015625 L 8.5625 0 L 4.890625 0 L 3.703125 -15.734375 C 3.628906 -16.679688 3.835938 -17.425781 4.328125 -17.96875 C 3.472656 -17.96875 2.722656 -18.140625 2.078125 -18.484375 C 1.441406 -18.835938 0.898438 -19.421875 0.453125 -20.234375 L 2.65625 -22.296875 C 2.976562 -21.785156 3.289062 -21.4375 3.59375 -21.25 C 3.894531 -21.0625 4.363281 -20.96875 5 -20.96875 Z M 5 -20.96875 "/></g></g></g><g fill="#61888d" fill-opacity="1"><g transform="translate(813.770395, 293.727924)"><g><path d="M 18 -20.96875 L 18 -17.96875 L 16.046875 -17.96875 C 16.273438 -17.519531 16.390625 -16.832031 16.390625 -15.90625 L 16.390625 0 L 12.71875 0 L 12.71875 -16.421875 C 12.71875 -17.035156 12.644531 -17.445312 12.5 -17.65625 C 12.363281 -17.863281 12.125 -17.96875 11.78125 -17.96875 L 7.6875 -17.96875 C 7.34375 -17.96875 7.097656 -17.863281 6.953125 -17.65625 C 6.816406 -17.445312 6.75 -17.035156 6.75 -16.421875 L 6.75 0 L 3.078125 0 L 3.078125 -15.90625 C 3.078125 -16.832031 3.191406 -17.519531 3.421875 -17.96875 L 1.46875 -17.96875 L 1.46875 -20.96875 Z M 18 -20.96875 "/></g></g></g><g fill="#61888d" fill-opacity="1"><g transform="translate(833.341353, 293.727924)"><g><path d="M 5.796875 0 C 4.679688 0 3.925781 -0.347656 3.53125 -1.046875 C 3.132812 -1.742188 3.144531 -2.710938 3.5625 -3.953125 L 8.140625 -16.703125 C 8.285156 -17.097656 8.285156 -17.40625 8.140625 -17.625 C 8.003906 -17.851562 7.738281 -17.96875 7.34375 -17.96875 L 1.75 -17.96875 C 1.375 -17.96875 1.101562 -18.046875 0.9375 -18.203125 C 0.78125 -18.367188 0.703125 -18.648438 0.703125 -19.046875 L 0.703125 -23.765625 L 4.1875 -23.765625 L 4.1875 -20.96875 L 9.546875 -20.96875 C 10.710938 -20.96875 11.515625 -20.570312 11.953125 -19.78125 C 12.398438 -18.988281 12.398438 -17.988281 11.953125 -16.78125 L 7.3125 -3.921875 C 7.21875 -3.660156 7.195312 -3.441406 7.25 -3.265625 C 7.3125 -3.085938 7.492188 -3 7.796875 -3 L 9.1875 -3 L 9.1875 0 Z M 5.796875 0 "/></g></g></g><g fill="#61888d" fill-opacity="1"><g transform="translate(846.866336, 293.727924)"><g/></g></g><g fill="#61888d" fill-opacity="1"><g transform="translate(854.415132, 293.727924)"><g><path d="M 5.796875 0 C 4.679688 0 3.925781 -0.347656 3.53125 -1.046875 C 3.132812 -1.742188 3.144531 -2.710938 3.5625 -3.953125 L 8.140625 -16.703125 C 8.285156 -17.097656 8.285156 -17.40625 8.140625 -17.625 C 8.003906 -17.851562 7.738281 -17.96875 7.34375 -17.96875 L 1.75 -17.96875 C 1.375 -17.96875 1.101562 -18.046875 0.9375 -18.203125 C 0.78125 -18.367188 0.703125 -18.648438 0.703125 -19.046875 L 0.703125 -23.765625 L 4.1875 -23.765625 L 4.1875 -20.96875 L 9.546875 -20.96875 C 10.710938 -20.96875 11.515625 -20.570312 11.953125 -19.78125 C 12.398438 -18.988281 12.398438 -17.988281 11.953125 -16.78125 L 7.3125 -3.921875 C 7.21875 -3.660156 7.195312 -3.441406 7.25 -3.265625 C 7.3125 -3.085938 7.492188 -3 7.796875 -3 L 9.1875 -3 L 9.1875 0 Z M 5.796875 0 "/></g></g></g><g fill="#61888d" fill-opacity="1"><g transform="translate(868.184766, 293.727924)"><g><path d="M 3.703125 0 L 3.703125 -17.203125 C 3.703125 -17.710938 3.4375 -17.96875 2.90625 -17.96875 L 1.328125 -17.96875 L 1.328125 -20.96875 L 5.03125 -20.96875 C 5.875 -20.96875 6.472656 -20.789062 6.828125 -20.4375 C 7.191406 -20.09375 7.375 -19.503906 7.375 -18.671875 L 7.375 0 Z M 3.703125 0 "/></g></g></g><g fill="#61888d" fill-opacity="1"><g transform="translate(877.550779, 293.727924)"><g><path d="M 5.796875 0 C 4.679688 0 3.925781 -0.347656 3.53125 -1.046875 C 3.132812 -1.742188 3.144531 -2.710938 3.5625 -3.953125 L 8.140625 -16.703125 C 8.285156 -17.097656 8.285156 -17.40625 8.140625 -17.625 C 8.003906 -17.851562 7.738281 -17.96875 7.34375 -17.96875 L 1.75 -17.96875 C 1.375 -17.96875 1.101562 -18.046875 0.9375 -18.203125 C 0.78125 -18.367188 0.703125 -18.648438 0.703125 -19.046875 L 0.703125 -23.765625 L 4.1875 -23.765625 L 4.1875 -20.96875 L 9.546875 -20.96875 C 10.710938 -20.96875 11.515625 -20.570312 11.953125 -19.78125 C 12.398438 -18.988281 12.398438 -17.988281 11.953125 -16.78125 L 7.3125 -3.921875 C 7.21875 -3.660156 7.195312 -3.441406 7.25 -3.265625 C 7.3125 -3.085938 7.492188 -3 7.796875 -3 L 9.1875 -3 L 9.1875 0 Z M 5.796875 0 "/></g></g></g><g fill="#61888d" fill-opacity="1"><g transform="translate(891.145734, 293.727924)"><g><path d="M 12.515625 -20.96875 C 13.679688 -20.96875 14.585938 -20.804688 15.234375 -20.484375 C 15.890625 -20.160156 16.335938 -19.59375 16.578125 -18.78125 C 16.828125 -17.976562 16.90625 -16.867188 16.8125 -15.453125 L 16.1875 -5.703125 C 16.113281 -4.535156 15.847656 -3.546875 15.390625 -2.734375 C 14.941406 -1.929688 13.992188 -1.332031 12.546875 -0.9375 L 7.90625 0.109375 C 6.476562 0.484375 5.476562 0.414062 4.90625 -0.09375 C 4.332031 -0.613281 4.003906 -1.421875 3.921875 -2.515625 L 3 -15.90625 C 2.976562 -16.34375 3.019531 -16.742188 3.125 -17.109375 C 3.226562 -17.472656 3.375 -17.769531 3.5625 -18 C 2.9375 -18.09375 2.347656 -18.304688 1.796875 -18.640625 C 1.253906 -18.984375 0.804688 -19.515625 0.453125 -20.234375 L 2.65625 -22.296875 C 2.976562 -21.765625 3.296875 -21.410156 3.609375 -21.234375 C 3.929688 -21.054688 4.382812 -20.96875 4.96875 -20.96875 Z M 13.25 -14.71875 C 13.320312 -15.644531 13.328125 -16.347656 13.265625 -16.828125 C 13.203125 -17.304688 13.023438 -17.625 12.734375 -17.78125 C 12.441406 -17.945312 11.972656 -18.019531 11.328125 -18 L 7.4375 -17.96875 C 6.769531 -17.851562 6.46875 -17.375 6.53125 -16.53125 L 7.4375 -3.921875 C 7.507812 -3.117188 7.941406 -2.828125 8.734375 -3.046875 L 11.15625 -3.78125 C 11.757812 -3.9375 12.164062 -4.179688 12.375 -4.515625 C 12.582031 -4.859375 12.710938 -5.453125 12.765625 -6.296875 Z M 13.25 -14.71875 "/></g></g></g><g fill="#61888d" fill-opacity="1"><g transform="translate(909.38864, 293.727924)"><g><path d="M 15.203125 -2.96875 C 15.253906 -1.945312 15.039062 -1.195312 14.5625 -0.71875 C 14.082031 -0.238281 13.296875 0 12.203125 0 L 7.484375 0 L 7.484375 -3 L 10.453125 -3 C 10.847656 -3 11.117188 -3.09375 11.265625 -3.28125 C 11.421875 -3.46875 11.488281 -3.75 11.46875 -4.125 L 10.9375 -15.375 C 10.894531 -16.40625 10.710938 -17.097656 10.390625 -17.453125 C 10.078125 -17.816406 9.617188 -18 9.015625 -18 L 8.3125 -18 C 7.875 -18 7.566406 -17.878906 7.390625 -17.640625 C 7.210938 -17.410156 7.09375 -16.992188 7.03125 -16.390625 L 4.921875 0 L 1.21875 0 L 3.21875 -15.34375 C 3.375 -16.53125 3.6875 -17.40625 4.15625 -17.96875 L 1.8125 -17.96875 L 1.8125 -20.96875 L 10 -20.96875 C 11.320312 -20.96875 12.394531 -20.609375 13.21875 -19.890625 C 14.050781 -19.171875 14.515625 -17.804688 14.609375 -15.796875 Z M 15.203125 -2.96875 "/></g></g></g><g fill="#61888d" fill-opacity="1"><g transform="translate(925.499572, 293.727924)"><g><path d="M 5.796875 0 C 4.679688 0 3.925781 -0.347656 3.53125 -1.046875 C 3.132812 -1.742188 3.144531 -2.710938 3.5625 -3.953125 L 8.140625 -16.703125 C 8.285156 -17.097656 8.285156 -17.40625 8.140625 -17.625 C 8.003906 -17.851562 7.738281 -17.96875 7.34375 -17.96875 L 1.75 -17.96875 C 1.375 -17.96875 1.101562 -18.046875 0.9375 -18.203125 C 0.78125 -18.367188 0.703125 -18.648438 0.703125 -19.046875 L 0.703125 -23.765625 L 4.1875 -23.765625 L 4.1875 -20.96875 L 9.546875 -20.96875 C 10.710938 -20.96875 11.515625 -20.570312 11.953125 -19.78125 C 12.398438 -18.988281 12.398438 -17.988281 11.953125 -16.78125 L 7.3125 -3.921875 C 7.21875 -3.660156 7.195312 -3.441406 7.25 -3.265625 C 7.3125 -3.085938 7.492188 -3 7.796875 -3 L 9.1875 -3 L 9.1875 0 Z M 5.796875 0 "/></g></g></g><g fill="#61888d" fill-opacity="1"><g transform="translate(939.024509, 293.727924)"><g/></g></g><g fill="#61888d" fill-opacity="1"><g transform="translate(946.573351, 293.727924)"><g><path d="M 12.40625 -20.96875 C 13.570312 -20.96875 14.410156 -20.710938 14.921875 -20.203125 C 15.429688 -19.691406 15.6875 -18.84375 15.6875 -17.65625 L 15.6875 0 L 12.03125 0 L 12.03125 -16.75 C 12.03125 -17.582031 11.617188 -18 10.796875 -18 L 8.359375 -18 C 7.566406 -18 7.015625 -17.757812 6.703125 -17.28125 C 6.398438 -16.800781 6.34375 -15.804688 6.53125 -14.296875 L 7.796875 -4.125 C 8.003906 -2.769531 7.875 -1.742188 7.40625 -1.046875 C 6.945312 -0.347656 6.0625 0 4.75 0 L 1.15625 0 L 1.15625 -3 L 3.25 -3 C 3.570312 -3 3.816406 -3.09375 3.984375 -3.28125 C 4.148438 -3.46875 4.195312 -3.796875 4.125 -4.265625 L 3 -13.59375 C 2.84375 -14.925781 2.835938 -15.914062 2.984375 -16.5625 C 3.140625 -17.21875 3.332031 -17.6875 3.5625 -17.96875 L 1.21875 -17.96875 L 1.21875 -20.96875 Z M 12.40625 -20.96875 "/></g></g></g><g fill="#61888d" fill-opacity="1"><g transform="translate(964.4318, 293.727924)"><g><path d="M 11.046875 -20.96875 L 14.71875 -20.96875 L 14.71875 -9.578125 C 14.71875 -7.878906 14.472656 -6.515625 13.984375 -5.484375 C 13.492188 -4.460938 12.773438 -3.632812 11.828125 -3 C 10.890625 -2.375 9.734375 -1.78125 8.359375 -1.21875 L 2.09375 1.265625 L 1.015625 -1.609375 L 4.96875 -3.140625 C 4.664062 -3.421875 4.40625 -3.773438 4.1875 -4.203125 C 3.976562 -4.640625 3.84375 -5.160156 3.78125 -5.765625 L 1.640625 -20.96875 L 5.3125 -20.96875 L 7.484375 -5.515625 C 7.546875 -5.023438 7.675781 -4.71875 7.875 -4.59375 C 8.070312 -4.46875 8.289062 -4.453125 8.53125 -4.546875 L 8.671875 -4.578125 C 9.441406 -4.929688 10.03125 -5.390625 10.4375 -5.953125 C 10.84375 -6.523438 11.046875 -7.394531 11.046875 -8.5625 Z M 11.046875 -20.96875 "/></g></g></g><g fill="#61888d" fill-opacity="1"><g transform="translate(981.137059, 293.727924)"><g/></g></g><g fill="#61888d" fill-opacity="1"><g transform="translate(988.685902, 293.727924)"><g><path d="M 5.796875 0 C 4.679688 0 3.925781 -0.347656 3.53125 -1.046875 C 3.132812 -1.742188 3.144531 -2.710938 3.5625 -3.953125 L 8.140625 -16.703125 C 8.285156 -17.097656 8.285156 -17.40625 8.140625 -17.625 C 8.003906 -17.851562 7.738281 -17.96875 7.34375 -17.96875 L 1.75 -17.96875 C 1.375 -17.96875 1.101562 -18.046875 0.9375 -18.203125 C 0.78125 -18.367188 0.703125 -18.648438 0.703125 -19.046875 L 0.703125 -23.765625 L 4.1875 -23.765625 L 4.1875 -20.96875 L 9.546875 -20.96875 C 10.710938 -20.96875 11.515625 -20.570312 11.953125 -19.78125 C 12.398438 -18.988281 12.398438 -17.988281 11.953125 -16.78125 L 7.3125 -3.921875 C 7.21875 -3.660156 7.195312 -3.441406 7.25 -3.265625 C 7.3125 -3.085938 7.492188 -3 7.796875 -3 L 9.1875 -3 L 9.1875 0 Z M 5.796875 0 "/></g></g></g><g fill="#61888d" fill-opacity="1"><g transform="translate(1002.210839, 293.727924)"><g><path d="M 0.796875 0 L 0.796875 -3 L 6.75 -3 C 7.1875 -3 7.488281 -3.085938 7.65625 -3.265625 C 7.820312 -3.441406 7.90625 -3.738281 7.90625 -4.15625 L 7.90625 -16.78125 C 7.90625 -17.21875 7.820312 -17.523438 7.65625 -17.703125 C 7.488281 -17.878906 7.1875 -17.96875 6.75 -17.96875 L 1.1875 -17.96875 L 1.1875 -20.96875 L 8.421875 -20.96875 C 9.535156 -20.96875 10.335938 -20.722656 10.828125 -20.234375 C 11.316406 -19.742188 11.5625 -18.929688 11.5625 -17.796875 L 11.5625 -3.140625 C 11.5625 -2.023438 11.316406 -1.222656 10.828125 -0.734375 C 10.335938 -0.242188 9.535156 0 8.421875 0 Z M 0.796875 0 "/></g></g></g><g fill="#61888d" fill-opacity="1"><g transform="translate(1015.630932, 293.727924)"><g><path d="M 12.375 -3 L 13.59375 -3 L 13.59375 0 L 0.796875 0 L 0.796875 -3 L 8.171875 -3 C 8.109375 -3.144531 8.050781 -3.316406 8 -3.515625 C 7.957031 -3.710938 7.9375 -3.925781 7.9375 -4.15625 L 7.9375 -16.78125 C 7.9375 -17.21875 7.847656 -17.523438 7.671875 -17.703125 C 7.492188 -17.878906 7.1875 -17.96875 6.75 -17.96875 L 1.1875 -17.96875 L 1.1875 -20.96875 L 8.453125 -20.96875 C 9.578125 -20.96875 10.382812 -20.710938 10.875 -20.203125 C 11.363281 -19.691406 11.609375 -18.84375 11.609375 -17.65625 L 11.609375 -3.875 C 11.609375 -3.289062 11.863281 -3 12.375 -3 Z M 12.375 -3 "/></g></g></g><g fill="#61888d" fill-opacity="1"><g transform="translate(1029.679997, 293.727924)"><g/></g></g><g fill="#61888d" fill-opacity="1"><g transform="translate(1037.22884, 293.727924)"><g><path d="M 7.65625 0 L 7.65625 -16.703125 C 7.65625 -17.546875 7.234375 -17.96875 6.390625 -17.96875 L 0.703125 -17.96875 L 0.703125 -20.96875 L 8.140625 -20.96875 C 9.265625 -20.96875 10.078125 -20.71875 10.578125 -20.21875 C 11.078125 -19.71875 11.328125 -18.894531 11.328125 -17.75 L 11.328125 0 Z M 7.65625 0 "/></g></g></g><g fill="#61888d" fill-opacity="1"><g transform="translate(1050.718859, 293.727924)"><g><path d="M 3.703125 0 L 3.703125 -17.203125 C 3.703125 -17.710938 3.4375 -17.96875 2.90625 -17.96875 L 1.328125 -17.96875 L 1.328125 -20.96875 L 5.03125 -20.96875 C 5.875 -20.96875 6.472656 -20.789062 6.828125 -20.4375 C 7.191406 -20.09375 7.375 -19.503906 7.375 -18.671875 L 7.375 0 Z M 3.703125 0 "/></g></g></g><g fill="#61888d" fill-opacity="1"><g transform="translate(1060.049955, 293.727924)"><g><path d="M 5 -20.96875 L 10.3125 -20.96875 L 10.3125 -17.96875 L 8.765625 -17.96875 C 7.722656 -17.96875 7.25 -17.316406 7.34375 -16.015625 L 8.5625 0 L 4.890625 0 L 3.703125 -15.734375 C 3.628906 -16.679688 3.835938 -17.425781 4.328125 -17.96875 C 3.472656 -17.96875 2.722656 -18.140625 2.078125 -18.484375 C 1.441406 -18.835938 0.898438 -19.421875 0.453125 -20.234375 L 2.65625 -22.296875 C 2.976562 -21.785156 3.289062 -21.4375 3.59375 -21.25 C 3.894531 -21.0625 4.363281 -20.96875 5 -20.96875 Z M 5 -20.96875 "/></g></g></g><g fill="#61888d" fill-opacity="1"><g transform="translate(1071.617869, 293.727924)"><g><path d="M 18 -20.96875 L 18 -17.96875 L 16.046875 -17.96875 C 16.273438 -17.519531 16.390625 -16.832031 16.390625 -15.90625 L 16.390625 0 L 12.71875 0 L 12.71875 -16.421875 C 12.71875 -17.035156 12.644531 -17.445312 12.5 -17.65625 C 12.363281 -17.863281 12.125 -17.96875 11.78125 -17.96875 L 7.6875 -17.96875 C 7.34375 -17.96875 7.097656 -17.863281 6.953125 -17.65625 C 6.816406 -17.445312 6.75 -17.035156 6.75 -16.421875 L 6.75 0 L 3.078125 0 L 3.078125 -15.90625 C 3.078125 -16.832031 3.191406 -17.519531 3.421875 -17.96875 L 1.46875 -17.96875 L 1.46875 -20.96875 Z M 18 -20.96875 "/></g></g></g><g fill="#61888d" fill-opacity="1"><g transform="translate(1091.188827, 293.727924)"><g><path d="M 5.796875 0 C 4.679688 0 3.925781 -0.347656 3.53125 -1.046875 C 3.132812 -1.742188 3.144531 -2.710938 3.5625 -3.953125 L 8.140625 -16.703125 C 8.285156 -17.097656 8.285156 -17.40625 8.140625 -17.625 C 8.003906 -17.851562 7.738281 -17.96875 7.34375 -17.96875 L 1.75 -17.96875 C 1.375 -17.96875 1.101562 -18.046875 0.9375 -18.203125 C 0.78125 -18.367188 0.703125 -18.648438 0.703125 -19.046875 L 0.703125 -23.765625 L 4.1875 -23.765625 L 4.1875 -20.96875 L 9.546875 -20.96875 C 10.710938 -20.96875 11.515625 -20.570312 11.953125 -19.78125 C 12.398438 -18.988281 12.398438 -17.988281 11.953125 -16.78125 L 7.3125 -3.921875 C 7.21875 -3.660156 7.195312 -3.441406 7.25 -3.265625 C 7.3125 -3.085938 7.492188 -3 7.796875 -3 L 9.1875 -3 L 9.1875 0 Z M 5.796875 0 "/></g></g></g><g fill="#61888d" fill-opacity="1"><g transform="translate(1104.713764, 293.727924)"><g/></g></g><g fill="#61888d" fill-opacity="1"><g transform="translate(1112.262515, 293.727924)"><g><path d="M 3.703125 5.03125 L 3.703125 -17.203125 C 3.703125 -17.710938 3.4375 -17.96875 2.90625 -17.96875 L 1.328125 -17.96875 L 1.328125 -20.96875 L 5.03125 -20.96875 C 5.875 -20.96875 6.472656 -20.789062 6.828125 -20.4375 C 7.191406 -20.09375 7.375 -19.503906 7.375 -18.671875 L 7.375 5.03125 Z M 3.703125 5.03125 "/></g></g></g><g fill="#61888d" fill-opacity="1"><g transform="translate(1121.768472, 293.727924)"><g><path d="M 12.40625 -20.96875 C 13.570312 -20.96875 14.410156 -20.710938 14.921875 -20.203125 C 15.429688 -19.691406 15.6875 -18.84375 15.6875 -17.65625 L 15.6875 0 L 12.03125 0 L 12.03125 -16.75 C 12.03125 -17.582031 11.617188 -18 10.796875 -18 L 8.359375 -18 C 7.566406 -18 7.015625 -17.757812 6.703125 -17.28125 C 6.398438 -16.800781 6.34375 -15.804688 6.53125 -14.296875 L 7.796875 -4.125 C 8.003906 -2.769531 7.875 -1.742188 7.40625 -1.046875 C 6.945312 -0.347656 6.0625 0 4.75 0 L 1.15625 0 L 1.15625 -3 L 3.25 -3 C 3.570312 -3 3.816406 -3.09375 3.984375 -3.28125 C 4.148438 -3.46875 4.195312 -3.796875 4.125 -4.265625 L 3 -13.59375 C 2.84375 -14.925781 2.835938 -15.914062 2.984375 -16.5625 C 3.140625 -17.21875 3.332031 -17.6875 3.5625 -17.96875 L 1.21875 -17.96875 L 1.21875 -20.96875 Z M 12.40625 -20.96875 "/></g></g></g><g fill="#61888d" fill-opacity="1"><g transform="translate(1139.452151, 293.727924)"><g><path d="M 3.640625 -9.1875 L 3.640625 -17.203125 C 3.640625 -17.710938 3.367188 -17.96875 2.828125 -17.96875 L 1.1875 -17.96875 L 1.1875 -20.96875 L 4.6875 -20.96875 C 5.632812 -20.96875 6.300781 -20.773438 6.6875 -20.390625 C 7.070312 -20.003906 7.265625 -19.335938 7.265625 -18.390625 L 7.265625 -9.1875 Z M 3.640625 -9.1875 "/></g></g></g><g fill="#61888d" fill-opacity="1"><g transform="translate(1147.734717, 293.727924)"><g><path d="M 0.3125 0 L 0.3125 -3 L 3.671875 -3 C 4.140625 -3 4.457031 -3.097656 4.625 -3.296875 C 4.800781 -3.492188 4.890625 -3.816406 4.890625 -4.265625 L 4.890625 -16.78125 C 4.890625 -17.21875 4.804688 -17.523438 4.640625 -17.703125 C 4.484375 -17.878906 4.207031 -17.96875 3.8125 -17.96875 L 2.265625 -17.96875 L 2.265625 -20.96875 L 5.515625 -20.96875 C 6.617188 -20.96875 7.398438 -20.722656 7.859375 -20.234375 C 8.328125 -19.742188 8.5625 -18.929688 8.5625 -17.796875 L 8.5625 -3.25 C 8.5625 -2.082031 8.316406 -1.25 7.828125 -0.75 C 7.335938 -0.25 6.546875 0 5.453125 0 Z M 0.3125 0 "/></g></g></g><g fill="#61888d" fill-opacity="1"><g transform="translate(348.600054, 102.085404)"><g><path d="M 29.15625 0 L 29.15625 -41.515625 C 29.15625 -42.617188 28.953125 -43.359375 28.546875 -43.734375 C 28.148438 -44.109375 27.394531 -44.296875 26.28125 -44.296875 L 4.828125 -44.296875 L 4.828125 -55.71875 L 35.09375 -55.71875 C 38.195312 -55.71875 40.378906 -54.988281 41.640625 -53.53125 C 42.910156 -52.070312 43.546875 -49.582031 43.546875 -46.0625 L 43.546875 0 Z M 9.5625 0 C 6.40625 0 4.828125 -1.609375 4.828125 -4.828125 L 4.828125 -34.734375 L 19.21875 -34.734375 L 19.21875 -13.1875 C 19.21875 -12.007812 19.679688 -11.421875 20.609375 -11.421875 L 21.828125 -11.421875 L 21.828125 0 Z M 9.5625 0 "/></g></g></g><g fill="#61888d" fill-opacity="1"><g transform="translate(396.79023, 102.085404)"><g><path d="M 1.296875 -55.71875 L 35.46875 -55.71875 L 35.46875 -44.296875 L 33.609375 -44.296875 C 31.691406 -44.296875 30.734375 -43.023438 30.734375 -40.484375 L 30.734375 0 L 17.171875 0 L 17.171875 -38.34375 C 17.171875 -40.945312 17.578125 -42.929688 18.390625 -44.296875 L 1.296875 -44.296875 Z M 1.296875 -55.71875 "/></g></g></g><g fill="#61888d" fill-opacity="1"><g transform="translate(434.766685, 102.085404)"><g><path d="M 44.671875 -7.890625 C 44.785156 -5.171875 44.207031 -3.175781 42.9375 -1.90625 C 41.675781 -0.632812 39.585938 0 36.671875 0 L 23.03125 0 L 23.03125 -11.421875 L 27.671875 -11.421875 C 28.660156 -11.421875 29.28125 -11.617188 29.53125 -12.015625 C 29.78125 -12.421875 29.875 -13.085938 29.8125 -14.015625 L 28.421875 -39.75 C 28.359375 -41.539062 28.125 -42.804688 27.71875 -43.546875 C 27.3125 -44.296875 26.582031 -44.671875 25.53125 -44.671875 L 25.171875 -44.671875 C 24.359375 -44.671875 23.78125 -44.4375 23.4375 -43.96875 C 23.101562 -43.5 22.84375 -42.554688 22.65625 -41.140625 L 17.171875 0 L 2.5 0 L 7.703125 -35.75 C 8.265625 -39.644531 9.347656 -42.492188 10.953125 -44.296875 L 4.078125 -44.296875 L 4.078125 -55.71875 L 30.546875 -55.71875 C 34.078125 -55.71875 36.925781 -54.753906 39.09375 -52.828125 C 41.257812 -50.910156 42.46875 -47.289062 42.71875 -41.96875 Z M 44.671875 -7.890625 "/></g></g></g><g fill="#61888d" fill-opacity="1"><g transform="translate(480.914109, 102.085404)"><g><path d="M 8.265625 0 L 8.265625 -42.25 C 8.265625 -43.113281 8.125 -43.671875 7.84375 -43.921875 C 7.5625 -44.171875 6.988281 -44.296875 6.125 -44.296875 L 2.78125 -44.296875 L 2.78125 -55.71875 L 16.4375 -55.71875 C 18.726562 -55.71875 20.335938 -55.253906 21.265625 -54.328125 C 22.191406 -53.398438 22.65625 -51.820312 22.65625 -49.59375 L 22.65625 0 Z M 8.265625 0 "/></g></g></g><g fill="#61888d" fill-opacity="1"><g transform="translate(508.305434, 102.085404)"><g><path d="M 14.859375 0 C 11.265625 0 8.847656 -1.128906 7.609375 -3.390625 C 6.367188 -5.648438 6.429688 -8.882812 7.796875 -13.09375 L 16.90625 -41.328125 C 17.519531 -43.304688 16.835938 -44.296875 14.859375 -44.296875 L 4 -44.296875 C 3 -44.296875 2.296875 -44.492188 1.890625 -44.890625 C 1.492188 -45.296875 1.296875 -46.023438 1.296875 -47.078125 L 1.296875 -63.140625 L 14.859375 -63.140625 L 14.859375 -55.71875 L 24.796875 -55.71875 C 28.328125 -55.71875 30.785156 -54.554688 32.171875 -52.234375 C 33.566406 -49.910156 33.644531 -46.832031 32.40625 -43 L 22.5625 -13.84375 C 22.3125 -13.15625 22.265625 -12.578125 22.421875 -12.109375 C 22.578125 -11.648438 23.054688 -11.421875 23.859375 -11.421875 L 27.953125 -11.421875 L 27.953125 0 Z M 14.859375 0 "/></g></g></g><g fill="#61888d" fill-opacity="1"><g transform="translate(544.146291, 102.085404)"><g><path d="M 35.5625 -11.421875 L 38.34375 -11.421875 L 38.34375 0 L 1.671875 0 L 1.671875 -11.421875 L 19.78125 -11.421875 C 19.59375 -11.796875 19.4375 -12.242188 19.3125 -12.765625 C 19.1875 -13.296875 19.125 -13.867188 19.125 -14.484375 L 19.125 -41.515625 C 19.125 -42.617188 18.9375 -43.359375 18.5625 -43.734375 C 18.195312 -44.109375 17.457031 -44.296875 16.34375 -44.296875 L 2.6875 -44.296875 L 2.6875 -55.71875 L 24.609375 -55.71875 C 27.890625 -55.71875 30.191406 -54.988281 31.515625 -53.53125 C 32.847656 -52.070312 33.515625 -49.582031 33.515625 -46.0625 L 33.515625 -13.75 C 33.515625 -12.195312 34.195312 -11.421875 35.5625 -11.421875 Z M 35.5625 -11.421875 "/></g></g></g><g fill="#61888d" fill-opacity="1"><g transform="translate(583.32982, 102.085404)"><g/></g></g><g fill="#61888d" fill-opacity="1"><g transform="translate(602.36447, 102.085404)"><g><path d="M 41.96875 -55.71875 L 55.90625 -55.71875 L 53.203125 -19.78125 C 52.710938 -12.65625 50.875 -7.578125 47.6875 -4.546875 C 44.5 -1.515625 39.5 0 32.6875 0 L 14.109375 0 C 11.703125 0 9.957031 -0.617188 8.875 -1.859375 C 7.789062 -3.097656 7.09375 -4.832031 6.78125 -7.0625 L 5.203125 -18.9375 C 4.703125 -21.976562 5.535156 -24.300781 7.703125 -25.90625 L 3.15625 -55.71875 L 17.171875 -55.71875 L 20.984375 -30.546875 L 21.078125 -30.546875 C 21.941406 -30.859375 22.484375 -31.195312 22.703125 -31.5625 C 22.921875 -31.9375 23.03125 -32.617188 23.03125 -33.609375 L 23.03125 -55.71875 L 36.859375 -55.71875 L 36.859375 -30.828125 C 36.859375 -28.109375 36.425781 -26.144531 35.5625 -24.9375 C 34.695312 -23.726562 33.304688 -22.78125 31.390625 -22.09375 L 21.359375 -18.671875 C 20.304688 -18.234375 19.671875 -17.84375 19.453125 -17.5 C 19.234375 -17.164062 19.1875 -16.5 19.3125 -15.5 L 19.6875 -13.09375 C 19.8125 -12.289062 20.101562 -11.78125 20.5625 -11.5625 C 21.03125 -11.34375 21.726562 -11.234375 22.65625 -11.234375 L 28.875 -11.234375 C 31.476562 -11.234375 33.503906 -11.460938 34.953125 -11.921875 C 36.410156 -12.390625 37.460938 -13.304688 38.109375 -14.671875 C 38.765625 -16.035156 39.1875 -18.015625 39.375 -20.609375 Z M 41.96875 -55.71875 "/></g></g></g><g fill="#61888d" fill-opacity="1"><g transform="translate(661.511162, 102.085404)"><g><path d="M 8.265625 0 L 8.265625 -42.25 C 8.265625 -43.113281 8.125 -43.671875 7.84375 -43.921875 C 7.5625 -44.171875 6.988281 -44.296875 6.125 -44.296875 L 2.78125 -44.296875 L 2.78125 -55.71875 L 16.4375 -55.71875 C 18.726562 -55.71875 20.335938 -55.253906 21.265625 -54.328125 C 22.191406 -53.398438 22.65625 -51.820312 22.65625 -49.59375 L 22.65625 0 Z M 8.265625 0 "/></g></g></g><g fill="#61888d" fill-opacity="1"><g transform="translate(689.273919, 102.085404)"><g><path d="M 44.671875 -7.890625 C 44.785156 -5.171875 44.207031 -3.175781 42.9375 -1.90625 C 41.675781 -0.632812 39.585938 0 36.671875 0 L 23.03125 0 L 23.03125 -11.421875 L 27.671875 -11.421875 C 28.660156 -11.421875 29.28125 -11.617188 29.53125 -12.015625 C 29.78125 -12.421875 29.875 -13.085938 29.8125 -14.015625 L 28.421875 -39.75 C 28.359375 -41.539062 28.125 -42.804688 27.71875 -43.546875 C 27.3125 -44.296875 26.582031 -44.671875 25.53125 -44.671875 L 25.171875 -44.671875 C 24.359375 -44.671875 23.78125 -44.4375 23.4375 -43.96875 C 23.101562 -43.5 22.84375 -42.554688 22.65625 -41.140625 L 17.171875 0 L 2.5 0 L 7.703125 -35.75 C 8.265625 -39.644531 9.347656 -42.492188 10.953125 -44.296875 L 4.078125 -44.296875 L 4.078125 -55.71875 L 30.546875 -55.71875 C 34.078125 -55.71875 36.925781 -54.753906 39.09375 -52.828125 C 41.257812 -50.910156 42.46875 -47.289062 42.71875 -41.96875 Z M 44.671875 -7.890625 "/></g></g></g><g fill="#61888d" fill-opacity="1"><g transform="translate(735.421355, 102.085404)"><g><path d="M 8.171875 -23.59375 L 8.171875 -42.25 C 8.171875 -43.113281 8.03125 -43.671875 7.75 -43.921875 C 7.46875 -44.171875 6.894531 -44.296875 6.03125 -44.296875 L 2.5 -44.296875 L 2.5 -55.71875 L 15.234375 -55.71875 C 17.890625 -55.71875 19.757812 -55.175781 20.84375 -54.09375 C 21.925781 -53.007812 22.46875 -51.132812 22.46875 -48.46875 L 22.46875 -23.59375 Z M 8.171875 -23.59375 "/></g></g></g><g fill="#61888d" fill-opacity="1"><g transform="translate(762.162685, 102.085404)"><g><path d="M 41.96875 -55.71875 L 55.90625 -55.71875 L 53.203125 -19.78125 C 52.710938 -12.65625 50.875 -7.578125 47.6875 -4.546875 C 44.5 -1.515625 39.5 0 32.6875 0 L 14.109375 0 C 11.703125 0 9.957031 -0.617188 8.875 -1.859375 C 7.789062 -3.097656 7.09375 -4.832031 6.78125 -7.0625 L 5.203125 -18.9375 C 4.703125 -21.976562 5.535156 -24.300781 7.703125 -25.90625 L 3.15625 -55.71875 L 17.171875 -55.71875 L 20.984375 -30.546875 L 21.078125 -30.546875 C 21.941406 -30.859375 22.484375 -31.195312 22.703125 -31.5625 C 22.921875 -31.9375 23.03125 -32.617188 23.03125 -33.609375 L 23.03125 -55.71875 L 36.859375 -55.71875 L 36.859375 -30.828125 C 36.859375 -28.109375 36.425781 -26.144531 35.5625 -24.9375 C 34.695312 -23.726562 33.304688 -22.78125 31.390625 -22.09375 L 21.359375 -18.671875 C 20.304688 -18.234375 19.671875 -17.84375 19.453125 -17.5 C 19.234375 -17.164062 19.1875 -16.5 19.3125 -15.5 L 19.6875 -13.09375 C 19.8125 -12.289062 20.101562 -11.78125 20.5625 -11.5625 C 21.03125 -11.34375 21.726562 -11.234375 22.65625 -11.234375 L 28.875 -11.234375 C 31.476562 -11.234375 33.503906 -11.460938 34.953125 -11.921875 C 36.410156 -12.390625 37.460938 -13.304688 38.109375 -14.671875 C 38.765625 -16.035156 39.1875 -18.015625 39.375 -20.609375 Z M 41.96875 -55.71875 "/></g></g></g><g fill="#61888d" fill-opacity="1"><g transform="translate(821.309422, 102.085404)"><g><path d="M 29.15625 0 L 29.15625 -41.515625 C 29.15625 -42.617188 28.953125 -43.359375 28.546875 -43.734375 C 28.148438 -44.109375 27.394531 -44.296875 26.28125 -44.296875 L 4.828125 -44.296875 L 4.828125 -55.71875 L 35.09375 -55.71875 C 38.195312 -55.71875 40.378906 -54.988281 41.640625 -53.53125 C 42.910156 -52.070312 43.546875 -49.582031 43.546875 -46.0625 L 43.546875 0 Z M 9.5625 0 C 6.40625 0 4.828125 -1.609375 4.828125 -4.828125 L 4.828125 -34.734375 L 19.21875 -34.734375 L 19.21875 -13.1875 C 19.21875 -12.007812 19.679688 -11.421875 20.609375 -11.421875 L 21.828125 -11.421875 L 21.828125 0 Z M 9.5625 0 "/></g></g></g></svg>