<svg xmlns="http://www.w3.org/2000/svg" xmlns:xlink="http://www.w3.org/1999/xlink" width="1579" zoomAndPan="magnify" viewBox="0 0 1184.25 282.749989" height="377" preserveAspectRatio="xMidYMid meet" version="1.0"><defs><g/><clipPath id="6eb98989af"><path d="M 765.03125 63.644531 L 775.75 63.644531 L 775.75 74.363281 L 765.03125 74.363281 Z M 765.03125 63.644531 " clip-rule="nonzero"/></clipPath><clipPath id="9b7f6e879e"><path d="M 770.390625 63.644531 C 767.433594 63.644531 765.03125 66.042969 765.03125 69.003906 C 765.03125 71.960938 767.433594 74.363281 770.390625 74.363281 C 773.351562 74.363281 775.75 71.960938 775.75 69.003906 C 775.75 66.042969 773.351562 63.644531 770.390625 63.644531 Z M 770.390625 63.644531 " clip-rule="nonzero"/></clipPath><clipPath id="f4f78df197"><path d="M 0.03125 0.644531 L 10.75 0.644531 L 10.75 11.363281 L 0.03125 11.363281 Z M 0.03125 0.644531 " clip-rule="nonzero"/></clipPath><clipPath id="1edf4b7ee7"><path d="M 5.390625 0.644531 C 2.433594 0.644531 0.03125 3.042969 0.03125 6.003906 C 0.03125 8.960938 2.433594 11.363281 5.390625 11.363281 C 8.351562 11.363281 10.75 8.960938 10.75 6.003906 C 10.75 3.042969 8.351562 0.644531 5.390625 0.644531 Z M 5.390625 0.644531 " clip-rule="nonzero"/></clipPath><clipPath id="5b717ff7fa"><rect x="0" width="11" y="0" height="12"/></clipPath></defs><g clip-path="url(#6eb98989af)"><g clip-path="url(#9b7f6e879e)"><g transform="matrix(1, 0, 0, 1, 765, 63)"><g clip-path="url(#5b717ff7fa)"><g clip-path="url(#f4f78df197)"><g clip-path="url(#1edf4b7ee7)"><path fill="#61888d" d="M 0.03125 0.644531 L 10.75 0.644531 L 10.75 11.363281 L 0.03125 11.363281 Z M 0.03125 0.644531 " fill-opacity="1" fill-rule="nonzero"/></g></g></g></g></g></g><g fill="#61888d" fill-opacity="1"><g transform="translate(402.072404, 102.157891)"><g/></g></g><g fill="#61888d" fill-opacity="1"><g transform="translate(421.121961, 102.157891)"><g><path d="M 8.265625 14.21875 L 8.265625 -42.28125 C 8.265625 -43.144531 8.125 -43.703125 7.84375 -43.953125 C 7.570312 -44.203125 7.003906 -44.328125 6.140625 -44.328125 L 2.78125 -44.328125 L 2.78125 -55.75 L 16.453125 -55.75 C 18.742188 -55.75 20.351562 -55.285156 21.28125 -54.359375 C 22.207031 -53.429688 22.671875 -51.851562 22.671875 -49.625 L 22.671875 14.21875 Z M 8.265625 14.21875 "/></g></g></g><g fill="#61888d" fill-opacity="1"><g transform="translate(448.904409, 102.157891)"><g><path d="M 8.265625 0 L 8.265625 -42.28125 C 8.265625 -43.144531 8.125 -43.703125 7.84375 -43.953125 C 7.570312 -44.203125 7.003906 -44.328125 6.140625 -44.328125 L 2.78125 -44.328125 L 2.78125 -55.75 L 16.453125 -55.75 C 18.742188 -55.75 20.351562 -55.285156 21.28125 -54.359375 C 22.207031 -53.429688 22.671875 -51.851562 22.671875 -49.625 L 22.671875 0 Z M 8.265625 0 "/></g></g></g><g fill="#61888d" fill-opacity="1"><g transform="translate(476.686856, 102.157891)"><g><path d="M 42 -55.75 L 55.9375 -55.75 L 53.25 -19.796875 C 52.75 -12.671875 50.90625 -7.585938 47.71875 -4.546875 C 44.53125 -1.515625 39.523438 0 32.703125 0 L 14.125 0 C 11.707031 0 9.957031 -0.617188 8.875 -1.859375 C 7.789062 -3.097656 7.09375 -4.832031 6.78125 -7.0625 L 5.203125 -18.953125 C 4.703125 -21.992188 5.539062 -24.316406 7.71875 -25.921875 L 3.15625 -55.75 L 17.1875 -55.75 L 21 -30.578125 L 21.09375 -30.578125 C 21.957031 -30.878906 22.5 -31.21875 22.71875 -31.59375 C 22.9375 -31.96875 23.046875 -32.648438 23.046875 -33.640625 L 23.046875 -55.75 L 36.890625 -55.75 L 36.890625 -30.84375 C 36.890625 -28.125 36.453125 -26.160156 35.578125 -24.953125 C 34.710938 -23.742188 33.320312 -22.796875 31.40625 -22.109375 L 21.375 -18.671875 C 20.320312 -18.242188 19.6875 -17.859375 19.46875 -17.515625 C 19.25 -17.171875 19.203125 -16.503906 19.328125 -15.515625 L 19.703125 -13.109375 C 19.828125 -12.296875 20.117188 -11.78125 20.578125 -11.5625 C 21.046875 -11.351562 21.742188 -11.25 22.671875 -11.25 L 28.90625 -11.25 C 31.5 -11.25 33.523438 -11.476562 34.984375 -11.9375 C 36.441406 -12.40625 37.492188 -13.316406 38.140625 -14.671875 C 38.796875 -16.035156 39.21875 -18.019531 39.40625 -20.625 Z M 42 -55.75 "/></g></g></g><g fill="#61888d" fill-opacity="1"><g transform="translate(535.596808, 102.157891)"><g><path d="M 18.578125 -29.171875 C 17.773438 -28.867188 17.3125 -28.4375 17.1875 -27.875 C 17.0625 -27.320312 17.15625 -26.425781 17.46875 -25.1875 L 21.65625 -11.703125 C 22.707031 -8.359375 22.921875 -5.570312 22.296875 -3.34375 C 21.679688 -1.113281 19.796875 0 16.640625 0 L 3.15625 0 L 3.15625 -11.421875 L 6.140625 -11.421875 C 6.941406 -11.421875 7.28125 -11.765625 7.15625 -12.453125 L 4.734375 -24.0625 C 4.117188 -26.976562 4.070312 -29.363281 4.59375 -31.21875 C 5.125 -33.082031 6.023438 -34.628906 7.296875 -35.859375 C 8.566406 -37.097656 9.941406 -38.125 11.421875 -38.9375 L 12.828125 -39.671875 L 3.25 -55.75 L 17.9375 -55.75 L 30.9375 -32.34375 C 31.4375 -32.644531 31.78125 -33.023438 31.96875 -33.484375 C 32.15625 -33.953125 32.25 -34.71875 32.25 -35.78125 L 32.25 -55.75 L 46 -55.75 L 46 -34.65625 C 46 -31.8125 45.425781 -29.410156 44.28125 -27.453125 C 43.132812 -25.503906 41.132812 -23.660156 38.28125 -21.921875 L 36.984375 -21.09375 L 47.859375 0 L 33.359375 0 L 18.671875 -29.171875 Z M 18.578125 -29.171875 "/></g></g></g><g fill="#61888d" fill-opacity="1"><g transform="translate(586.144141, 102.157891)"><g><path d="M 17.75 0 L 17.75 -40.984375 C 17.75 -43.210938 16.632812 -44.328125 14.40625 -44.328125 L 1.296875 -44.328125 L 1.296875 -55.75 L 22.765625 -55.75 C 26.234375 -55.75 28.664062 -55.035156 30.0625 -53.609375 C 31.457031 -52.191406 32.15625 -49.78125 32.15625 -46.375 L 32.15625 0 Z M 17.75 0 "/></g></g></g><g fill="#61888d" fill-opacity="1"><g transform="translate(623.404227, 102.157891)"><g/></g></g><g fill="#61888d" fill-opacity="1"><g transform="translate(642.452371, 102.157891)"><g><path d="M 43.484375 -55.75 C 46.210938 -55.75 48.039062 -54.816406 48.96875 -52.953125 C 49.894531 -51.097656 50.050781 -48.8125 49.4375 -46.09375 L 39.953125 0 L 25.375 0 L 33.546875 -42.09375 C 33.734375 -43.144531 33.765625 -43.84375 33.640625 -44.1875 C 33.515625 -44.53125 32.925781 -44.703125 31.875 -44.703125 L 24.53125 -44.703125 C 23.789062 -44.703125 23.203125 -44.609375 22.765625 -44.421875 C 22.328125 -44.234375 22.109375 -43.519531 22.109375 -42.28125 L 22.109375 2.234375 C 22.109375 2.972656 22.484375 3.34375 23.234375 3.34375 L 25.453125 3.34375 L 25.453125 14.21875 L 12.828125 14.21875 C 9.421875 14.21875 7.71875 12.515625 7.71875 9.109375 L 7.71875 -40.515625 C 7.71875 -42.367188 8.054688 -43.640625 8.734375 -44.328125 L 3.34375 -44.328125 L 3.34375 -55.75 Z M 43.484375 -55.75 "/></g></g></g><g fill="#61888d" fill-opacity="1"><g transform="translate(695.415578, 102.157891)"><g><path d="M 17.75 0 L 17.75 -40.984375 C 17.75 -43.210938 16.632812 -44.328125 14.40625 -44.328125 L 1.296875 -44.328125 L 1.296875 -55.75 L 22.765625 -55.75 C 26.234375 -55.75 28.664062 -55.035156 30.0625 -53.609375 C 31.457031 -52.191406 32.15625 -49.78125 32.15625 -46.375 L 32.15625 0 Z M 17.75 0 "/></g></g></g><g fill="#61888d" fill-opacity="1"><g transform="translate(732.675653, 102.157891)"><g><path d="M 4.28125 0 L 4.28125 -11.421875 L 26.109375 -11.421875 C 28.335938 -11.421875 29.453125 -12.507812 29.453125 -14.6875 L 29.453125 -41.71875 C 29.453125 -42.894531 29.34375 -43.6875 29.125 -44.09375 C 28.914062 -44.5 28.160156 -44.703125 26.859375 -44.703125 L 22.484375 -44.703125 C 21.242188 -44.703125 20.421875 -44.5 20.015625 -44.09375 C 19.617188 -43.6875 19.359375 -42.894531 19.234375 -41.71875 L 18.21875 -33.546875 C 18.15625 -32.679688 18.242188 -32.078125 18.484375 -31.734375 C 18.734375 -31.390625 19.296875 -31.21875 20.171875 -31.21875 L 23.609375 -31.21875 L 23.609375 -20.078125 L 10.5 -20.078125 C 7.707031 -20.078125 5.738281 -20.707031 4.59375 -21.96875 C 3.445312 -23.238281 3.03125 -25.238281 3.34375 -27.96875 L 5.671875 -47.765625 C 5.984375 -50.546875 6.832031 -52.570312 8.21875 -53.84375 C 9.613281 -55.113281 11.675781 -55.75 14.40625 -55.75 L 34.5625 -55.75 C 37.96875 -55.75 40.367188 -55.050781 41.765625 -53.65625 C 43.160156 -52.269531 43.859375 -49.84375 43.859375 -46.375 L 43.859375 -9.296875 C 43.859375 -5.890625 43.160156 -3.488281 41.765625 -2.09375 C 40.367188 -0.695312 37.96875 0 34.5625 0 Z M 4.28125 0 "/></g></g></g><g fill="#61888d" fill-opacity="1"><g transform="translate(358.165916, 231.793261)"><g><path d="M 8.265625 14.21875 L 8.265625 -42.28125 C 8.265625 -43.144531 8.125 -43.703125 7.84375 -43.953125 C 7.570312 -44.203125 7.003906 -44.328125 6.140625 -44.328125 L 2.78125 -44.328125 L 2.78125 -55.75 L 16.453125 -55.75 C 18.742188 -55.75 20.351562 -55.285156 21.28125 -54.359375 C 22.207031 -53.429688 22.671875 -51.851562 22.671875 -49.625 L 22.671875 14.21875 Z M 8.265625 14.21875 "/></g></g></g><g fill="#61888d" fill-opacity="1"><g transform="translate(385.948363, 231.793261)"><g><path d="M 8.265625 0 L 8.265625 -42.28125 C 8.265625 -43.144531 8.125 -43.703125 7.84375 -43.953125 C 7.570312 -44.203125 7.003906 -44.328125 6.140625 -44.328125 L 2.78125 -44.328125 L 2.78125 -55.75 L 16.453125 -55.75 C 18.742188 -55.75 20.351562 -55.285156 21.28125 -54.359375 C 22.207031 -53.429688 22.671875 -51.851562 22.671875 -49.625 L 22.671875 0 Z M 8.265625 0 "/></g></g></g><g fill="#61888d" fill-opacity="1"><g transform="translate(413.730811, 231.793261)"><g><path d="M 0.28125 0 L 0.28125 -11.421875 L 7.984375 -11.421875 C 9.285156 -11.421875 10.15625 -11.640625 10.59375 -12.078125 C 11.03125 -12.515625 11.25 -13.414062 11.25 -14.78125 L 11.25 -41.53125 C 11.25 -42.644531 11.0625 -43.390625 10.6875 -43.765625 C 10.3125 -44.140625 9.597656 -44.328125 8.546875 -44.328125 L 5.296875 -44.328125 L 5.296875 -55.75 L 17.09375 -55.75 C 20.195312 -55.75 22.394531 -55.050781 23.6875 -53.65625 C 24.988281 -52.269531 25.640625 -49.929688 25.640625 -46.640625 L 25.640625 -9.296875 C 25.640625 -5.890625 24.972656 -3.488281 23.640625 -2.09375 C 22.316406 -0.695312 20.070312 0 16.90625 0 Z M 0.28125 0 "/></g></g></g><g fill="#61888d" fill-opacity="1"><g transform="translate(443.371623, 231.793261)"><g><path d="M 1.671875 0 L 1.671875 -11.421875 L 15.984375 -11.421875 C 17.097656 -11.421875 17.851562 -11.609375 18.25 -11.984375 C 18.65625 -12.359375 18.859375 -13.070312 18.859375 -14.125 L 18.859375 -41.53125 C 18.859375 -42.644531 18.65625 -43.390625 18.25 -43.765625 C 17.851562 -44.140625 17.097656 -44.328125 15.984375 -44.328125 L 2.6875 -44.328125 L 2.6875 -55.75 L 24.4375 -55.75 C 27.65625 -55.75 29.929688 -55.082031 31.265625 -53.75 C 32.597656 -52.414062 33.265625 -50.140625 33.265625 -46.921875 L 33.265625 -8.734375 C 33.265625 -5.578125 32.597656 -3.332031 31.265625 -2 C 29.929688 -0.664062 27.65625 0 24.4375 0 Z M 1.671875 0 "/></g></g></g><g fill="#61888d" fill-opacity="1"><g transform="translate(481.28212, 231.793261)"><g><path d="M 36.609375 -55.75 C 40.078125 -55.75 42.539062 -55.019531 44 -53.5625 C 45.457031 -52.113281 46.1875 -49.625 46.1875 -46.09375 L 46.1875 0 L 31.78125 0 L 31.78125 -41.171875 C 31.78125 -42.398438 31.5625 -43.296875 31.125 -43.859375 C 30.695312 -44.421875 29.894531 -44.703125 28.71875 -44.703125 L 26.203125 -44.703125 C 24.097656 -44.703125 22.640625 -44.050781 21.828125 -42.75 C 21.023438 -41.445312 21 -38.71875 21.75 -34.5625 L 25.09375 -15.046875 C 26.019531 -9.972656 25.738281 -6.195312 24.25 -3.71875 C 22.757812 -1.238281 19.753906 0 15.234375 0 L 2.875 0 L 2.875 -11.421875 L 8.359375 -11.421875 C 9.222656 -11.421875 9.890625 -11.671875 10.359375 -12.171875 C 10.828125 -12.671875 10.96875 -13.597656 10.78125 -14.953125 L 7.71875 -32.703125 C 7.09375 -36.171875 6.992188 -38.785156 7.421875 -40.546875 C 7.859375 -42.316406 8.421875 -43.578125 9.109375 -44.328125 L 3.0625 -44.328125 L 3.0625 -55.75 Z M 36.609375 -55.75 "/></g></g></g><g fill="#61888d" fill-opacity="1"><g transform="translate(532.665711, 231.793261)"><g><path d="M 29.171875 0 L 29.171875 -41.53125 C 29.171875 -42.644531 28.96875 -43.390625 28.5625 -43.765625 C 28.164062 -44.140625 27.410156 -44.328125 26.296875 -44.328125 L 4.828125 -44.328125 L 4.828125 -55.75 L 35.125 -55.75 C 38.21875 -55.75 40.398438 -55.019531 41.671875 -53.5625 C 42.941406 -52.113281 43.578125 -49.625 43.578125 -46.09375 L 43.578125 0 Z M 9.578125 0 C 6.410156 0 4.828125 -1.609375 4.828125 -4.828125 L 4.828125 -34.75 L 19.234375 -34.75 L 19.234375 -13.1875 C 19.234375 -12.007812 19.695312 -11.421875 20.625 -11.421875 L 21.84375 -11.421875 L 21.84375 0 Z M 9.578125 0 "/></g></g></g><g fill="#61888d" fill-opacity="1"><g transform="translate(581.354691, 231.793261)"><g/></g></g><g fill="#61888d" fill-opacity="1"><g transform="translate(600.402857, 231.793261)"><g><path d="M 36.609375 -55.75 C 40.078125 -55.75 42.539062 -55.019531 44 -53.5625 C 45.457031 -52.113281 46.1875 -49.625 46.1875 -46.09375 L 46.1875 0 L 31.78125 0 L 31.78125 -41.171875 C 31.78125 -42.398438 31.5625 -43.296875 31.125 -43.859375 C 30.695312 -44.421875 29.894531 -44.703125 28.71875 -44.703125 L 26.203125 -44.703125 C 24.097656 -44.703125 22.640625 -44.050781 21.828125 -42.75 C 21.023438 -41.445312 21 -38.71875 21.75 -34.5625 L 25.09375 -15.046875 C 26.019531 -9.972656 25.738281 -6.195312 24.25 -3.71875 C 22.757812 -1.238281 19.753906 0 15.234375 0 L 2.875 0 L 2.875 -11.421875 L 8.359375 -11.421875 C 9.222656 -11.421875 9.890625 -11.671875 10.359375 -12.171875 C 10.828125 -12.671875 10.96875 -13.597656 10.78125 -14.953125 L 7.71875 -32.703125 C 7.09375 -36.171875 6.992188 -38.785156 7.421875 -40.546875 C 7.859375 -42.316406 8.421875 -43.578125 9.109375 -44.328125 L 3.0625 -44.328125 L 3.0625 -55.75 Z M 36.609375 -55.75 "/></g></g></g><g fill="#61888d" fill-opacity="1"><g transform="translate(651.786437, 231.793261)"><g><path d="M 8.265625 0 L 8.265625 -42.28125 C 8.265625 -43.144531 8.125 -43.703125 7.84375 -43.953125 C 7.570312 -44.203125 7.003906 -44.328125 6.140625 -44.328125 L 2.78125 -44.328125 L 2.78125 -55.75 L 16.453125 -55.75 C 18.742188 -55.75 20.351562 -55.285156 21.28125 -54.359375 C 22.207031 -53.429688 22.671875 -51.851562 22.671875 -49.625 L 22.671875 0 Z M 8.265625 0 "/></g></g></g><g fill="#61888d" fill-opacity="1"><g transform="translate(679.197235, 231.793261)"><g><path d="M 1.296875 -55.75 L 35.5 -55.75 L 35.5 -44.328125 L 33.640625 -44.328125 C 31.710938 -44.328125 30.75 -43.054688 30.75 -40.515625 L 30.75 0 L 17.1875 0 L 17.1875 -38.375 C 17.1875 -40.976562 17.59375 -42.960938 18.40625 -44.328125 L 1.296875 -44.328125 Z M 1.296875 -55.75 "/></g></g></g><g fill="#61888d" fill-opacity="1"><g transform="translate(717.944001, 231.793261)"><g><path d="M 8.265625 0 L 8.265625 -42.28125 C 8.265625 -43.144531 8.125 -43.703125 7.84375 -43.953125 C 7.570312 -44.203125 7.003906 -44.328125 6.140625 -44.328125 L 2.78125 -44.328125 L 2.78125 -55.75 L 16.453125 -55.75 C 18.742188 -55.75 20.351562 -55.285156 21.28125 -54.359375 C 22.207031 -53.429688 22.671875 -51.851562 22.671875 -49.625 L 22.671875 0 Z M 8.265625 0 "/></g></g></g><g fill="#61888d" fill-opacity="1"><g transform="translate(745.261841, 231.793261)"><g><path d="M 37.078125 -55.75 C 40.359375 -55.75 42.925781 -55.300781 44.78125 -54.40625 C 46.644531 -53.507812 47.929688 -51.914062 48.640625 -49.625 C 49.359375 -47.332031 49.5625 -44.078125 49.25 -39.859375 L 47.578125 -14.875 C 47.453125 -12.757812 47.125 -10.832031 46.59375 -9.09375 C 46.070312 -7.363281 45.144531 -5.894531 43.8125 -4.6875 C 42.476562 -3.476562 40.507812 -2.660156 37.90625 -2.234375 L 21.09375 0.5625 C 17.25 1.238281 14.582031 0.972656 13.09375 -0.234375 C 11.613281 -1.441406 10.75 -3.5 10.5 -6.40625 L 8.078125 -38 C 7.953125 -39.425781 8.0625 -40.679688 8.40625 -41.765625 C 8.75 -42.847656 9.226562 -43.765625 9.84375 -44.515625 C 8.113281 -44.753906 6.425781 -45.320312 4.78125 -46.21875 C 3.144531 -47.125 1.800781 -48.472656 0.75 -50.265625 L 8.265625 -58.90625 C 9.140625 -57.550781 10.023438 -56.6875 10.921875 -56.3125 C 11.816406 -55.9375 12.976562 -55.75 14.40625 -55.75 Z M 35.40625 -35.953125 C 35.53125 -38.429688 35.546875 -40.304688 35.453125 -41.578125 C 35.359375 -42.847656 34.984375 -43.695312 34.328125 -44.125 C 33.679688 -44.5625 32.550781 -44.753906 30.9375 -44.703125 L 23.6875 -44.515625 C 22.207031 -44.140625 21.5625 -42.898438 21.75 -40.796875 L 23.875 -14.40625 C 24 -13.226562 24.320312 -12.453125 24.84375 -12.078125 C 25.375 -11.703125 26.140625 -11.578125 27.140625 -11.703125 L 31.21875 -12.546875 C 32.332031 -12.734375 33.117188 -13.195312 33.578125 -13.9375 C 34.046875 -14.675781 34.3125 -15.851562 34.375 -17.46875 Z M 35.40625 -35.953125 "/></g></g></g><g fill="#61888d" fill-opacity="1"><g transform="translate(798.132158, 231.793261)"><g><path d="M 8.171875 -23.609375 L 8.171875 -42.28125 C 8.171875 -43.144531 8.03125 -43.703125 7.75 -43.953125 C 7.476562 -44.203125 6.910156 -44.328125 6.046875 -44.328125 L 2.515625 -44.328125 L 2.515625 -55.75 L 15.234375 -55.75 C 17.898438 -55.75 19.773438 -55.207031 20.859375 -54.125 C 21.941406 -53.039062 22.484375 -51.164062 22.484375 -48.5 L 22.484375 -23.609375 Z M 8.171875 -23.609375 "/></g></g></g></svg>