<svg xmlns="http://www.w3.org/2000/svg" xmlns:xlink="http://www.w3.org/1999/xlink" width="996" zoomAndPan="magnify" viewBox="0 0 747 264.749989" height="353" preserveAspectRatio="xMidYMid meet" version="1.0"><defs><g/><clipPath id="285035b038"><path d="M 523.144531 168.421875 L 548.160156 168.421875 L 548.160156 176.550781 L 523.144531 176.550781 Z M 523.144531 168.421875 " clip-rule="nonzero"/></clipPath><clipPath id="58eceebf17"><path d="M 0.144531 0.421875 L 25.160156 0.421875 L 25.160156 8.550781 L 0.144531 8.550781 Z M 0.144531 0.421875 " clip-rule="nonzero"/></clipPath><clipPath id="00c82aa8d1"><rect x="0" width="26" y="0" height="9"/></clipPath></defs><g clip-path="url(#285035b038)"><g transform="matrix(1, 0, 0, 1, 523, 168)"><g clip-path="url(#00c82aa8d1)"><g clip-path="url(#58eceebf17)"><path fill="#61888d" d="M 0.144531 0.421875 L 25.164062 0.421875 L 25.164062 8.550781 L 0.144531 8.550781 Z M 0.144531 0.421875 " fill-opacity="1" fill-rule="nonzero"/></g></g></g></g><g fill="#61888d" fill-opacity="1"><g transform="translate(237.124395, 95.513187)"><g/></g></g><g fill="#61888d" fill-opacity="1"><g transform="translate(254.943505, 95.513187)"><g><path d="M 7.65625 -22.078125 L 7.65625 -39.546875 C 7.65625 -40.359375 7.519531 -40.878906 7.25 -41.109375 C 6.988281 -41.347656 6.457031 -41.46875 5.65625 -41.46875 L 2.34375 -41.46875 L 2.34375 -52.15625 L 14.25 -52.15625 C 16.75 -52.15625 18.503906 -51.644531 19.515625 -50.625 C 20.523438 -49.613281 21.03125 -47.863281 21.03125 -45.375 L 21.03125 -22.078125 Z M 7.65625 -22.078125 "/></g></g></g><g fill="#61888d" fill-opacity="1"><g transform="translate(278.150395, 95.513187)"><g><path d="M 0.265625 0 L 0.265625 -10.6875 L 7.46875 -10.6875 C 8.6875 -10.6875 9.5 -10.890625 9.90625 -11.296875 C 10.3125 -11.703125 10.515625 -12.546875 10.515625 -13.828125 L 10.515625 -38.859375 C 10.515625 -39.898438 10.335938 -40.59375 9.984375 -40.9375 C 9.640625 -41.289062 8.976562 -41.46875 8 -41.46875 L 4.953125 -41.46875 L 4.953125 -52.15625 L 16 -52.15625 C 18.894531 -52.15625 20.945312 -51.5 22.15625 -50.1875 C 23.375 -48.882812 23.984375 -46.703125 23.984375 -43.640625 L 23.984375 -8.6875 C 23.984375 -5.5 23.359375 -3.253906 22.109375 -1.953125 C 20.867188 -0.648438 18.769531 0 15.8125 0 Z M 0.265625 0 "/></g></g></g><g fill="#61888d" fill-opacity="1"><g transform="translate(306.48562, 95.513187)"><g><path d="M 39.28125 -52.15625 L 52.328125 -52.15625 L 49.8125 -18.515625 C 49.34375 -11.847656 47.613281 -7.09375 44.625 -4.25 C 41.644531 -1.414062 36.96875 0 30.59375 0 L 13.21875 0 C 10.957031 0 9.316406 -0.578125 8.296875 -1.734375 C 7.285156 -2.898438 6.632812 -4.523438 6.34375 -6.609375 L 4.875 -17.734375 C 4.40625 -20.566406 5.1875 -22.738281 7.21875 -24.25 L 2.953125 -52.15625 L 16.078125 -52.15625 L 19.640625 -28.59375 L 19.734375 -28.59375 C 20.546875 -28.882812 21.050781 -29.203125 21.25 -29.546875 C 21.457031 -29.898438 21.5625 -30.539062 21.5625 -31.46875 L 21.5625 -52.15625 L 34.515625 -52.15625 L 34.515625 -28.859375 C 34.515625 -26.304688 34.109375 -24.460938 33.296875 -23.328125 C 32.484375 -22.203125 31.175781 -21.320312 29.375 -20.6875 L 19.984375 -17.46875 C 19.003906 -17.0625 18.410156 -16.695312 18.203125 -16.375 C 18.003906 -16.0625 17.960938 -15.441406 18.078125 -14.515625 L 18.421875 -12.25 C 18.535156 -11.5 18.8125 -11.019531 19.25 -10.8125 C 19.6875 -10.613281 20.335938 -10.515625 21.203125 -10.515625 L 27.03125 -10.515625 C 29.46875 -10.515625 31.363281 -10.734375 32.71875 -11.171875 C 34.082031 -11.609375 35.066406 -12.460938 35.671875 -13.734375 C 36.285156 -15.003906 36.679688 -16.859375 36.859375 -19.296875 Z M 39.28125 -52.15625 "/></g></g></g><g fill="#61888d" fill-opacity="1"><g transform="translate(361.852298, 95.513187)"><g/></g></g><g fill="#61888d" fill-opacity="1"><g transform="translate(379.670459, 95.513187)"><g><path d="M 40.671875 -52.15625 C 43.222656 -52.15625 44.929688 -51.285156 45.796875 -49.546875 C 46.671875 -47.804688 46.820312 -45.660156 46.25 -43.109375 L 37.375 0 L 23.734375 0 L 31.375 -39.375 C 31.550781 -40.363281 31.582031 -41.015625 31.46875 -41.328125 C 31.351562 -41.648438 30.800781 -41.8125 29.8125 -41.8125 L 22.953125 -41.8125 C 22.253906 -41.8125 21.703125 -41.722656 21.296875 -41.546875 C 20.890625 -41.367188 20.6875 -40.703125 20.6875 -39.546875 L 20.6875 2.09375 C 20.6875 2.78125 21.035156 3.125 21.734375 3.125 L 23.8125 3.125 L 23.8125 13.296875 L 12 13.296875 C 8.8125 13.296875 7.21875 11.703125 7.21875 8.515625 L 7.21875 -37.890625 C 7.21875 -39.628906 7.535156 -40.820312 8.171875 -41.46875 L 3.125 -41.46875 L 3.125 -52.15625 Z M 40.671875 -52.15625 "/></g></g></g><g fill="#61888d" fill-opacity="1"><g transform="translate(429.213692, 95.513187)"><g><path d="M 16.609375 0 L 16.609375 -38.328125 C 16.609375 -40.421875 15.5625 -41.46875 13.46875 -41.46875 L 1.21875 -41.46875 L 1.21875 -52.15625 L 21.296875 -52.15625 C 24.535156 -52.15625 26.804688 -51.488281 28.109375 -50.15625 C 29.421875 -48.820312 30.078125 -46.5625 30.078125 -43.375 L 30.078125 0 Z M 16.609375 0 "/></g></g></g><g fill="#61888d" fill-opacity="1"><g transform="translate(464.067747, 95.513187)"><g><path d="M 4 0 L 4 -10.6875 L 24.421875 -10.6875 C 26.503906 -10.6875 27.546875 -11.703125 27.546875 -13.734375 L 27.546875 -39.03125 C 27.546875 -40.125 27.445312 -40.859375 27.25 -41.234375 C 27.050781 -41.617188 26.34375 -41.8125 25.125 -41.8125 L 21.03125 -41.8125 C 19.875 -41.8125 19.109375 -41.617188 18.734375 -41.234375 C 18.359375 -40.859375 18.113281 -40.125 18 -39.03125 L 17.03125 -31.375 C 16.976562 -30.5625 17.066406 -29.992188 17.296875 -29.671875 C 17.523438 -29.359375 18.046875 -29.203125 18.859375 -29.203125 L 22.078125 -29.203125 L 22.078125 -18.78125 L 9.828125 -18.78125 C 7.210938 -18.78125 5.367188 -19.375 4.296875 -20.5625 C 3.222656 -21.75 2.832031 -23.613281 3.125 -26.15625 L 5.296875 -44.671875 C 5.585938 -47.285156 6.382812 -49.1875 7.6875 -50.375 C 8.988281 -51.5625 10.914062 -52.15625 13.46875 -52.15625 L 32.328125 -52.15625 C 35.515625 -52.15625 37.757812 -51.5 39.0625 -50.1875 C 40.375 -48.882812 41.03125 -46.613281 41.03125 -43.375 L 41.03125 -8.6875 C 41.03125 -5.5 40.375 -3.253906 39.0625 -1.953125 C 37.757812 -0.648438 35.515625 0 32.328125 0 Z M 4 0 "/></g></g></g><g fill="#61888d" fill-opacity="1"><g transform="translate(91.094329, 216.898554)"><g/></g></g><g fill="#61888d" fill-opacity="1"><g transform="translate(108.913439, 216.898554)"><g><path d="M 7.65625 -22.078125 L 7.65625 -39.546875 C 7.65625 -40.359375 7.519531 -40.878906 7.25 -41.109375 C 6.988281 -41.347656 6.457031 -41.46875 5.65625 -41.46875 L 2.34375 -41.46875 L 2.34375 -52.15625 L 14.25 -52.15625 C 16.75 -52.15625 18.503906 -51.644531 19.515625 -50.625 C 20.523438 -49.613281 21.03125 -47.863281 21.03125 -45.375 L 21.03125 -22.078125 Z M 7.65625 -22.078125 "/></g></g></g><g fill="#61888d" fill-opacity="1"><g transform="translate(132.120329, 216.898554)"><g><path d="M 0.265625 0 L 0.265625 -10.6875 L 7.46875 -10.6875 C 8.6875 -10.6875 9.5 -10.890625 9.90625 -11.296875 C 10.3125 -11.703125 10.515625 -12.546875 10.515625 -13.828125 L 10.515625 -38.859375 C 10.515625 -39.898438 10.335938 -40.59375 9.984375 -40.9375 C 9.640625 -41.289062 8.976562 -41.46875 8 -41.46875 L 4.953125 -41.46875 L 4.953125 -52.15625 L 16 -52.15625 C 18.894531 -52.15625 20.945312 -51.5 22.15625 -50.1875 C 23.375 -48.882812 23.984375 -46.703125 23.984375 -43.640625 L 23.984375 -8.6875 C 23.984375 -5.5 23.359375 -3.253906 22.109375 -1.953125 C 20.867188 -0.648438 18.769531 0 15.8125 0 Z M 0.265625 0 "/></g></g></g><g fill="#61888d" fill-opacity="1"><g transform="translate(160.455554, 216.898554)"><g><path d="M 7.734375 0 L 7.734375 -39.546875 C 7.734375 -40.359375 7.601562 -40.878906 7.34375 -41.109375 C 7.082031 -41.347656 6.546875 -41.46875 5.734375 -41.46875 L 2.609375 -41.46875 L 2.609375 -52.15625 L 15.390625 -52.15625 C 17.523438 -52.15625 19.023438 -51.71875 19.890625 -50.84375 C 20.765625 -49.976562 21.203125 -48.503906 21.203125 -46.421875 L 21.203125 0 Z M 7.734375 0 "/></g></g></g><g fill="#61888d" fill-opacity="1"><g transform="translate(186.443993, 216.898554)"><g><path d="M 36.078125 -20.25 L 38.421875 -9.125 C 38.992188 -6.457031 38.703125 -4.269531 37.546875 -2.5625 C 36.390625 -0.851562 34.363281 0 31.46875 0 L 2 0 L 2 -10.6875 L 22.171875 -10.6875 C 22.972656 -10.6875 23.535156 -10.90625 23.859375 -11.34375 C 24.179688 -11.78125 24.195312 -12.722656 23.90625 -14.171875 L 23.296875 -16.78125 C 23.117188 -17.757812 22.785156 -18.523438 22.296875 -19.078125 C 21.804688 -19.628906 21.125 -20.109375 20.25 -20.515625 L 11.21875 -24.859375 C 10.164062 -25.328125 9.363281 -25.863281 8.8125 -26.46875 C 8.269531 -27.070312 7.851562 -27.984375 7.5625 -29.203125 L 1.90625 -52.15625 L 15.5625 -52.15625 L 20.25 -33.125 L 24.953125 -52.15625 L 38.765625 -52.15625 L 31.8125 -25.375 C 32.914062 -24.851562 33.84375 -24.203125 34.59375 -23.421875 C 35.34375 -22.640625 35.835938 -21.582031 36.078125 -20.25 Z M 36.078125 -20.25 "/></g></g></g><g fill="#61888d" fill-opacity="1"><g transform="translate(228.338362, 216.898554)"><g><path d="M 7.65625 -22.078125 L 7.65625 -39.546875 C 7.65625 -40.359375 7.519531 -40.878906 7.25 -41.109375 C 6.988281 -41.347656 6.457031 -41.46875 5.65625 -41.46875 L 2.34375 -41.46875 L 2.34375 -52.15625 L 14.25 -52.15625 C 16.75 -52.15625 18.503906 -51.644531 19.515625 -50.625 C 20.523438 -49.613281 21.03125 -47.863281 21.03125 -45.375 L 21.03125 -22.078125 Z M 7.65625 -22.078125 "/></g></g></g><g fill="#61888d" fill-opacity="1"><g transform="translate(252.675285, 216.898554)"><g><path d="M 48.59375 -52.15625 L 48.59375 -41.46875 L 43.640625 -41.46875 C 44.273438 -40.363281 44.59375 -38.273438 44.59375 -35.203125 L 44.59375 0 L 31.125 0 L 31.125 -37.546875 C 31.125 -39.234375 30.988281 -40.304688 30.71875 -40.765625 C 30.457031 -41.234375 29.925781 -41.46875 29.125 -41.46875 L 22.515625 -41.46875 C 21.753906 -41.46875 21.242188 -41.234375 20.984375 -40.765625 C 20.722656 -40.304688 20.59375 -39.234375 20.59375 -37.546875 L 20.59375 0 L 7.125 0 L 7.125 -35.203125 C 7.125 -38.273438 7.441406 -40.363281 8.078125 -41.46875 L 3.125 -41.46875 L 3.125 -52.15625 Z M 48.59375 -52.15625 "/></g></g></g><g fill="#61888d" fill-opacity="1"><g transform="translate(304.391403, 216.898554)"><g/></g></g><g fill="#61888d" fill-opacity="1"><g transform="translate(322.209575, 216.898554)"><g><path d="M 7.734375 13.296875 L 7.734375 -39.546875 C 7.734375 -40.359375 7.601562 -40.878906 7.34375 -41.109375 C 7.082031 -41.347656 6.546875 -41.46875 5.734375 -41.46875 L 2.609375 -41.46875 L 2.609375 -52.15625 L 15.390625 -52.15625 C 17.523438 -52.15625 19.023438 -51.71875 19.890625 -50.84375 C 20.765625 -49.976562 21.203125 -48.503906 21.203125 -46.421875 L 21.203125 13.296875 Z M 7.734375 13.296875 "/></g></g></g><g fill="#61888d" fill-opacity="1"><g transform="translate(348.198025, 216.898554)"><g><path d="M 32.765625 0 L 20.59375 0 L 15.46875 -18.25 C 14.945312 -18.019531 14.597656 -17.757812 14.421875 -17.46875 C 14.253906 -17.175781 14.140625 -16.800781 14.078125 -16.34375 L 12.859375 0 L 0.09375 0 L 2.515625 -19.90625 C 2.753906 -21.757812 3.25 -23.175781 4 -24.15625 C 4.75 -25.144531 5.90625 -25.957031 7.46875 -26.59375 L 12.953125 -28.859375 C 13.878906 -29.265625 14.570312 -29.800781 15.03125 -30.46875 C 15.5 -31.132812 15.734375 -32.101562 15.734375 -33.375 L 15.734375 -39.109375 C 15.734375 -40.097656 15.585938 -40.738281 15.296875 -41.03125 C 15.003906 -41.320312 14.367188 -41.46875 13.390625 -41.46875 L 7.125 -41.46875 L 7.125 -52.15625 L 21.03125 -52.15625 C 23.582031 -52.15625 25.453125 -51.5 26.640625 -50.1875 C 27.828125 -48.882812 28.421875 -46.785156 28.421875 -43.890625 L 28.421875 -27.546875 C 28.421875 -26.222656 28.242188 -25.15625 27.890625 -24.34375 C 27.546875 -23.53125 27.054688 -22.890625 26.421875 -22.421875 Z M 32.765625 0 "/></g></g></g><g fill="#61888d" fill-opacity="1"><g transform="translate(381.052877, 216.898554)"><g><path d="M 7.734375 0 L 7.734375 -39.546875 C 7.734375 -40.359375 7.601562 -40.878906 7.34375 -41.109375 C 7.082031 -41.347656 6.546875 -41.46875 5.734375 -41.46875 L 2.609375 -41.46875 L 2.609375 -52.15625 L 15.390625 -52.15625 C 17.523438 -52.15625 19.023438 -51.71875 19.890625 -50.84375 C 20.765625 -49.976562 21.203125 -48.503906 21.203125 -46.421875 L 21.203125 0 Z M 7.734375 0 "/></g></g></g><g fill="#61888d" fill-opacity="1"><g transform="translate(407.041304, 216.898554)"><g><path d="M 41.8125 -7.390625 C 41.925781 -4.835938 41.390625 -2.96875 40.203125 -1.78125 C 39.015625 -0.59375 37.054688 0 34.328125 0 L 21.5625 0 L 21.5625 -10.6875 L 25.90625 -10.6875 C 26.832031 -10.6875 27.410156 -10.875 27.640625 -11.25 C 27.867188 -11.632812 27.957031 -12.257812 27.90625 -13.125 L 26.59375 -37.203125 C 26.539062 -38.878906 26.320312 -40.066406 25.9375 -40.765625 C 25.5625 -41.460938 24.882812 -41.8125 23.90625 -41.8125 L 23.5625 -41.8125 C 22.800781 -41.8125 22.257812 -41.59375 21.9375 -41.15625 C 21.625 -40.71875 21.378906 -39.832031 21.203125 -38.5 L 16.078125 0 L 2.34375 0 L 7.21875 -33.46875 C 7.738281 -37.113281 8.75 -39.78125 10.25 -41.46875 L 3.828125 -41.46875 L 3.828125 -52.15625 L 28.59375 -52.15625 C 31.894531 -52.15625 34.5625 -51.253906 36.59375 -49.453125 C 38.625 -47.660156 39.753906 -44.269531 39.984375 -39.28125 Z M 41.8125 -7.390625 "/></g></g></g><g fill="#61888d" fill-opacity="1"><g transform="translate(451.977856, 216.898554)"><g/></g></g><g fill="#61888d" fill-opacity="1"><g transform="translate(469.796005, 216.898554)"><g><path d="M 33.296875 -10.6875 L 35.90625 -10.6875 L 35.90625 0 L 1.5625 0 L 1.5625 -10.6875 L 18.515625 -10.6875 C 18.335938 -11.039062 18.191406 -11.460938 18.078125 -11.953125 C 17.960938 -12.441406 17.90625 -12.976562 17.90625 -13.5625 L 17.90625 -38.859375 C 17.90625 -39.898438 17.726562 -40.59375 17.375 -40.9375 C 17.03125 -41.289062 16.335938 -41.46875 15.296875 -41.46875 L 2.515625 -41.46875 L 2.515625 -52.15625 L 23.03125 -52.15625 C 26.101562 -52.15625 28.257812 -51.472656 29.5 -50.109375 C 30.75 -48.742188 31.375 -46.410156 31.375 -43.109375 L 31.375 -12.859375 C 31.375 -11.410156 32.015625 -10.6875 33.296875 -10.6875 Z M 33.296875 -10.6875 "/></g></g></g><g fill="#61888d" fill-opacity="1"><g transform="translate(505.693029, 216.898554)"><g><path d="M 48.59375 -52.15625 L 48.59375 -41.46875 L 43.640625 -41.46875 C 44.273438 -40.363281 44.59375 -38.273438 44.59375 -35.203125 L 44.59375 0 L 31.125 0 L 31.125 -37.546875 C 31.125 -39.234375 30.988281 -40.304688 30.71875 -40.765625 C 30.457031 -41.234375 29.925781 -41.46875 29.125 -41.46875 L 22.515625 -41.46875 C 21.753906 -41.46875 21.242188 -41.234375 20.984375 -40.765625 C 20.722656 -40.304688 20.59375 -39.234375 20.59375 -37.546875 L 20.59375 0 L 7.125 0 L 7.125 -35.203125 C 7.125 -38.273438 7.441406 -40.363281 8.078125 -41.46875 L 3.125 -41.46875 L 3.125 -52.15625 Z M 48.59375 -52.15625 "/></g></g></g><g fill="#61888d" fill-opacity="1"><g transform="translate(557.930699, 216.898554)"><g><path d="M 16.609375 0 L 16.609375 -38.328125 C 16.609375 -40.421875 15.5625 -41.46875 13.46875 -41.46875 L 1.21875 -41.46875 L 1.21875 -52.15625 L 21.296875 -52.15625 C 24.535156 -52.15625 26.804688 -51.488281 28.109375 -50.15625 C 29.421875 -48.820312 30.078125 -46.5625 30.078125 -43.375 L 30.078125 0 Z M 16.609375 0 "/></g></g></g><g fill="#61888d" fill-opacity="1"><g transform="translate(592.784777, 216.898554)"><g><path d="M 41.8125 -7.390625 C 41.925781 -4.835938 41.390625 -2.96875 40.203125 -1.78125 C 39.015625 -0.59375 37.054688 0 34.328125 0 L 21.5625 0 L 21.5625 -10.6875 L 25.90625 -10.6875 C 26.832031 -10.6875 27.410156 -10.875 27.640625 -11.25 C 27.867188 -11.632812 27.957031 -12.257812 27.90625 -13.125 L 26.59375 -37.203125 C 26.539062 -38.878906 26.320312 -40.066406 25.9375 -40.765625 C 25.5625 -41.460938 24.882812 -41.8125 23.90625 -41.8125 L 23.5625 -41.8125 C 22.800781 -41.8125 22.257812 -41.59375 21.9375 -41.15625 C 21.625 -40.71875 21.378906 -39.832031 21.203125 -38.5 L 16.078125 0 L 2.34375 0 L 7.21875 -33.46875 C 7.738281 -37.113281 8.75 -39.78125 10.25 -41.46875 L 3.828125 -41.46875 L 3.828125 -52.15625 L 28.59375 -52.15625 C 31.894531 -52.15625 34.5625 -51.253906 36.59375 -49.453125 C 38.625 -47.660156 39.753906 -44.269531 39.984375 -39.28125 Z M 41.8125 -7.390625 "/></g></g></g><g fill="#61888d" fill-opacity="1"><g transform="translate(637.726544, 216.898554)"><g/></g></g></svg>