<svg xmlns="http://www.w3.org/2000/svg" xmlns:xlink="http://www.w3.org/1999/xlink" width="820" zoomAndPan="magnify" viewBox="0 0 615 192.749996" height="257" preserveAspectRatio="xMidYMid meet" version="1.0"><defs><g/></defs><g fill="#61888d" fill-opacity="1"><g transform="translate(132.32332, 85.467623)"><g/></g></g><g fill="#61888d" fill-opacity="1"><g transform="translate(148.19336, 85.467623)"><g><path d="M 6.8125 -19.65625 L 6.8125 -35.203125 C 6.8125 -35.921875 6.691406 -36.382812 6.453125 -36.59375 C 6.222656 -36.800781 5.75 -36.90625 5.03125 -36.90625 L 2.09375 -36.90625 L 2.09375 -46.421875 L 12.6875 -46.421875 C 14.90625 -46.421875 16.460938 -45.96875 17.359375 -45.0625 C 18.265625 -44.15625 18.71875 -42.59375 18.71875 -40.375 L 18.71875 -19.65625 Z M 6.8125 -19.65625 "/></g></g></g><g fill="#61888d" fill-opacity="1"><g transform="translate(170.473185, 85.467623)"><g><path d="M 34.96875 -46.421875 L 46.578125 -46.421875 L 44.328125 -16.484375 C 43.910156 -10.546875 42.375 -6.3125 39.71875 -3.78125 C 37.0625 -1.257812 32.898438 0 27.234375 0 L 11.765625 0 C 9.742188 0 8.28125 -0.515625 7.375 -1.546875 C 6.476562 -2.578125 5.898438 -4.019531 5.640625 -5.875 L 4.328125 -15.78125 C 3.921875 -18.3125 4.617188 -20.242188 6.421875 -21.578125 L 2.625 -46.421875 L 14.3125 -46.421875 L 17.484375 -25.453125 L 17.5625 -25.453125 C 18.28125 -25.710938 18.726562 -25.992188 18.90625 -26.296875 C 19.09375 -26.609375 19.1875 -27.175781 19.1875 -28 L 19.1875 -46.421875 L 30.71875 -46.421875 L 30.71875 -25.6875 C 30.71875 -23.414062 30.351562 -21.773438 29.625 -20.765625 C 28.90625 -19.765625 27.742188 -18.976562 26.140625 -18.40625 L 17.796875 -15.546875 C 16.921875 -15.179688 16.390625 -14.859375 16.203125 -14.578125 C 16.023438 -14.296875 15.988281 -13.742188 16.09375 -12.921875 L 16.40625 -10.90625 C 16.507812 -10.238281 16.753906 -9.8125 17.140625 -9.625 C 17.523438 -9.445312 18.101562 -9.359375 18.875 -9.359375 L 24.0625 -9.359375 C 26.226562 -9.359375 27.914062 -9.550781 29.125 -9.9375 C 30.332031 -10.320312 31.207031 -11.082031 31.75 -12.21875 C 32.289062 -13.351562 32.640625 -15.003906 32.796875 -17.171875 Z M 34.96875 -46.421875 "/></g></g></g><g fill="#61888d" fill-opacity="1"><g transform="translate(219.751888, 85.467623)"><g><path d="M 6.8125 -19.65625 L 6.8125 -35.203125 C 6.8125 -35.921875 6.691406 -36.382812 6.453125 -36.59375 C 6.222656 -36.800781 5.75 -36.90625 5.03125 -36.90625 L 2.09375 -36.90625 L 2.09375 -46.421875 L 12.6875 -46.421875 C 14.90625 -46.421875 16.460938 -45.96875 17.359375 -45.0625 C 18.265625 -44.15625 18.71875 -42.59375 18.71875 -40.375 L 18.71875 -19.65625 Z M 6.8125 -19.65625 "/></g></g></g><g fill="#61888d" fill-opacity="1"><g transform="translate(241.335407, 85.467623)"><g><path d="M 37.203125 -6.578125 C 37.304688 -4.304688 36.828125 -2.640625 35.765625 -1.578125 C 34.710938 -0.523438 32.976562 0 30.5625 0 L 19.1875 0 L 19.1875 -9.515625 L 23.046875 -9.515625 C 23.878906 -9.515625 24.394531 -9.679688 24.59375 -10.015625 C 24.800781 -10.347656 24.878906 -10.90625 24.828125 -11.6875 L 23.671875 -33.109375 C 23.617188 -34.609375 23.425781 -35.664062 23.09375 -36.28125 C 22.757812 -36.894531 22.15625 -37.203125 21.28125 -37.203125 L 20.96875 -37.203125 C 20.289062 -37.203125 19.8125 -37.007812 19.53125 -36.625 C 19.25 -36.238281 19.03125 -35.453125 18.875 -34.265625 L 14.3125 0 L 2.09375 0 L 6.421875 -29.78125 C 6.878906 -33.03125 7.78125 -35.40625 9.125 -36.90625 L 3.40625 -36.90625 L 3.40625 -46.421875 L 25.453125 -46.421875 C 28.390625 -46.421875 30.757812 -45.617188 32.5625 -44.015625 C 34.375 -42.421875 35.378906 -39.40625 35.578125 -34.96875 Z M 37.203125 -6.578125 "/></g></g></g><g fill="#61888d" fill-opacity="1"><g transform="translate(279.628755, 85.467623)"><g><path d="M 43.25 -46.421875 L 43.25 -36.90625 L 38.828125 -36.90625 C 39.398438 -35.925781 39.6875 -34.066406 39.6875 -31.328125 L 39.6875 0 L 27.6875 0 L 27.6875 -33.421875 C 27.6875 -34.910156 27.570312 -35.863281 27.34375 -36.28125 C 27.113281 -36.695312 26.640625 -36.90625 25.921875 -36.90625 L 20.03125 -36.90625 C 19.363281 -36.90625 18.910156 -36.695312 18.671875 -36.28125 C 18.441406 -35.863281 18.328125 -34.910156 18.328125 -33.421875 L 18.328125 0 L 6.34375 0 L 6.34375 -31.328125 C 6.34375 -34.066406 6.625 -35.925781 7.1875 -36.90625 L 2.78125 -36.90625 L 2.78125 -46.421875 Z M 43.25 -46.421875 "/></g></g></g><g fill="#61888d" fill-opacity="1"><g transform="translate(325.658311, 85.467623)"><g/></g></g><g fill="#61888d" fill-opacity="1"><g transform="translate(341.517219, 85.467623)"><g><path d="M 36.203125 -46.421875 C 38.472656 -46.421875 39.992188 -45.644531 40.765625 -44.09375 C 41.535156 -42.550781 41.664062 -40.644531 41.15625 -38.375 L 33.265625 0 L 21.125 0 L 27.921875 -35.046875 C 28.078125 -35.921875 28.101562 -36.5 28 -36.78125 C 27.894531 -37.0625 27.40625 -37.203125 26.53125 -37.203125 L 20.421875 -37.203125 C 19.804688 -37.203125 19.316406 -37.125 18.953125 -36.96875 C 18.585938 -36.820312 18.40625 -36.234375 18.40625 -35.203125 L 18.40625 1.859375 C 18.40625 2.472656 18.71875 2.78125 19.34375 2.78125 L 21.203125 2.78125 L 21.203125 11.84375 L 10.671875 11.84375 C 7.835938 11.84375 6.421875 10.421875 6.421875 7.578125 L 6.421875 -33.734375 C 6.421875 -35.273438 6.703125 -36.332031 7.265625 -36.90625 L 2.78125 -36.90625 L 2.78125 -46.421875 Z M 36.203125 -46.421875 "/></g></g></g><g fill="#61888d" fill-opacity="1"><g transform="translate(385.612795, 85.467623)"><g><path d="M 14.78125 0 L 14.78125 -34.109375 C 14.78125 -35.972656 13.847656 -36.90625 11.984375 -36.90625 L 1.078125 -36.90625 L 1.078125 -46.421875 L 18.953125 -46.421875 C 21.835938 -46.421875 23.859375 -45.828125 25.015625 -44.640625 C 26.179688 -43.453125 26.765625 -41.441406 26.765625 -38.609375 L 26.765625 0 Z M 14.78125 0 "/></g></g></g><g fill="#61888d" fill-opacity="1"><g transform="translate(416.634409, 85.467623)"><g><path d="M 3.5625 0 L 3.5625 -9.515625 L 21.734375 -9.515625 C 23.585938 -9.515625 24.515625 -10.414062 24.515625 -12.21875 L 24.515625 -34.734375 C 24.515625 -35.710938 24.425781 -36.367188 24.25 -36.703125 C 24.070312 -37.035156 23.441406 -37.203125 22.359375 -37.203125 L 18.71875 -37.203125 C 17.6875 -37.203125 17.003906 -37.035156 16.671875 -36.703125 C 16.335938 -36.367188 16.117188 -35.710938 16.015625 -34.734375 L 15.15625 -27.921875 C 15.101562 -27.203125 15.179688 -26.703125 15.390625 -26.421875 C 15.597656 -26.140625 16.0625 -26 16.78125 -26 L 19.65625 -26 L 19.65625 -16.703125 L 8.734375 -16.703125 C 6.421875 -16.703125 4.785156 -17.226562 3.828125 -18.28125 C 2.867188 -19.34375 2.519531 -21.007812 2.78125 -23.28125 L 4.71875 -39.765625 C 4.976562 -42.085938 5.6875 -43.773438 6.84375 -44.828125 C 8.007812 -45.890625 9.722656 -46.421875 11.984375 -46.421875 L 28.78125 -46.421875 C 31.613281 -46.421875 33.609375 -45.835938 34.765625 -44.671875 C 35.929688 -43.515625 36.515625 -41.492188 36.515625 -38.609375 L 36.515625 -7.734375 C 36.515625 -4.898438 35.929688 -2.898438 34.765625 -1.734375 C 33.609375 -0.578125 31.613281 0 28.78125 0 Z M 3.5625 0 "/></g></g></g><g fill="#61888d" fill-opacity="1"><g transform="translate(110.990037, 161.77371)"><g><path d="M 20.734375 -35.03125 C 22.671875 -35.03125 24.066406 -34.601562 24.921875 -33.75 C 25.785156 -32.894531 26.21875 -31.472656 26.21875 -29.484375 L 26.21875 0 L 20.09375 0 L 20.09375 -27.96875 C 20.09375 -29.375 19.410156 -30.078125 18.046875 -30.078125 L 13.953125 -30.078125 C 12.628906 -30.078125 11.710938 -29.675781 11.203125 -28.875 C 10.703125 -28.070312 10.609375 -26.40625 10.921875 -23.875 L 13.015625 -6.890625 C 13.367188 -4.628906 13.15625 -2.914062 12.375 -1.75 C 11.601562 -0.582031 10.125 0 7.9375 0 L 1.921875 0 L 1.921875 -5.015625 L 5.4375 -5.015625 C 5.976562 -5.015625 6.382812 -5.171875 6.65625 -5.484375 C 6.925781 -5.796875 7.003906 -6.34375 6.890625 -7.125 L 5.015625 -22.71875 C 4.742188 -24.9375 4.734375 -26.585938 4.984375 -27.671875 C 5.242188 -28.765625 5.566406 -29.546875 5.953125 -30.015625 L 2.046875 -30.015625 L 2.046875 -35.03125 Z M 20.734375 -35.03125 "/></g></g></g><g fill="#61888d" fill-opacity="1"><g transform="translate(140.534887, 161.77371)"><g><path d="M 6.078125 -15.359375 L 6.078125 -28.734375 C 6.078125 -29.585938 5.628906 -30.015625 4.734375 -30.015625 L 1.984375 -30.015625 L 1.984375 -35.03125 L 7.828125 -35.03125 C 9.421875 -35.03125 10.535156 -34.707031 11.171875 -34.0625 C 11.816406 -33.425781 12.140625 -32.3125 12.140625 -30.71875 L 12.140625 -15.359375 Z M 6.078125 -15.359375 "/></g></g></g><g fill="#61888d" fill-opacity="1"><g transform="translate(155.774432, 161.77371)"><g><path d="M 20.734375 -35.03125 C 22.671875 -35.03125 24.066406 -34.601562 24.921875 -33.75 C 25.785156 -32.894531 26.21875 -31.472656 26.21875 -29.484375 L 26.21875 0 L 20.09375 0 L 20.09375 -27.96875 C 20.09375 -29.375 19.410156 -30.078125 18.046875 -30.078125 L 13.953125 -30.078125 C 12.628906 -30.078125 11.710938 -29.675781 11.203125 -28.875 C 10.703125 -28.070312 10.609375 -26.40625 10.921875 -23.875 L 13.015625 -6.890625 C 13.367188 -4.628906 13.15625 -2.914062 12.375 -1.75 C 11.601562 -0.582031 10.125 0 7.9375 0 L 1.921875 0 L 1.921875 -5.015625 L 5.4375 -5.015625 C 5.976562 -5.015625 6.382812 -5.171875 6.65625 -5.484375 C 6.925781 -5.796875 7.003906 -6.34375 6.890625 -7.125 L 5.015625 -22.71875 C 4.742188 -24.9375 4.734375 -26.585938 4.984375 -27.671875 C 5.242188 -28.765625 5.566406 -29.546875 5.953125 -30.015625 L 2.046875 -30.015625 L 2.046875 -35.03125 Z M 20.734375 -35.03125 "/></g></g></g><g fill="#61888d" fill-opacity="1"><g transform="translate(185.319281, 161.77371)"><g><path d="M 6.078125 -15.359375 L 6.078125 -28.734375 C 6.078125 -29.585938 5.628906 -30.015625 4.734375 -30.015625 L 1.984375 -30.015625 L 1.984375 -35.03125 L 7.828125 -35.03125 C 9.421875 -35.03125 10.535156 -34.707031 11.171875 -34.0625 C 11.816406 -33.425781 12.140625 -32.3125 12.140625 -30.71875 L 12.140625 -15.359375 Z M 6.078125 -15.359375 "/></g></g></g><g fill="#61888d" fill-opacity="1"><g transform="translate(200.67561, 161.77371)"><g><path d="M 20.671875 -5.015625 L 22.71875 -5.015625 L 22.71875 0 L 1.34375 0 L 1.34375 -5.015625 L 13.65625 -5.015625 C 13.539062 -5.253906 13.441406 -5.535156 13.359375 -5.859375 C 13.285156 -6.191406 13.25 -6.554688 13.25 -6.953125 L 13.25 -28.03125 C 13.25 -28.769531 13.101562 -29.285156 12.8125 -29.578125 C 12.519531 -29.867188 12.003906 -30.015625 11.265625 -30.015625 L 1.984375 -30.015625 L 1.984375 -35.03125 L 14.125 -35.03125 C 16 -35.03125 17.34375 -34.601562 18.15625 -33.75 C 18.976562 -32.894531 19.390625 -31.472656 19.390625 -29.484375 L 19.390625 -6.484375 C 19.390625 -5.503906 19.816406 -5.015625 20.671875 -5.015625 Z M 20.671875 -5.015625 "/></g></g></g><g fill="#61888d" fill-opacity="1"><g transform="translate(224.148022, 161.77371)"><g/></g></g><g fill="#61888d" fill-opacity="1"><g transform="translate(236.760069, 161.77371)"><g><path d="M 6.1875 8.40625 L 6.1875 -28.734375 C 6.1875 -29.585938 5.738281 -30.015625 4.84375 -30.015625 L 2.21875 -30.015625 L 2.21875 -35.03125 L 8.40625 -35.03125 C 9.8125 -35.03125 10.816406 -34.738281 11.421875 -34.15625 C 12.023438 -33.570312 12.328125 -32.582031 12.328125 -31.1875 L 12.328125 8.40625 Z M 6.1875 8.40625 "/></g></g></g><g fill="#61888d" fill-opacity="1"><g transform="translate(252.641905, 161.77371)"><g><path d="M 6.1875 0 L 6.1875 -28.734375 C 6.1875 -29.585938 5.738281 -30.015625 4.84375 -30.015625 L 2.21875 -30.015625 L 2.21875 -35.03125 L 8.40625 -35.03125 C 9.8125 -35.03125 10.816406 -34.738281 11.421875 -34.15625 C 12.023438 -33.570312 12.328125 -32.582031 12.328125 -31.1875 L 12.328125 0 Z M 6.1875 0 "/></g></g></g><g fill="#61888d" fill-opacity="1"><g transform="translate(268.52374, 161.77371)"><g><path d="M 0.53125 0 L 0.53125 -5.015625 L 6.125 -5.015625 C 6.90625 -5.015625 7.441406 -5.179688 7.734375 -5.515625 C 8.023438 -5.847656 8.171875 -6.382812 8.171875 -7.125 L 8.171875 -28.03125 C 8.171875 -28.769531 8.035156 -29.285156 7.765625 -29.578125 C 7.492188 -29.867188 7.023438 -30.015625 6.359375 -30.015625 L 3.796875 -30.015625 L 3.796875 -35.03125 L 9.21875 -35.03125 C 11.050781 -35.03125 12.359375 -34.617188 13.140625 -33.796875 C 13.921875 -32.984375 14.3125 -31.625 14.3125 -29.71875 L 14.3125 -5.4375 C 14.3125 -3.488281 13.898438 -2.09375 13.078125 -1.25 C 12.265625 -0.414062 10.941406 0 9.109375 0 Z M 0.53125 0 "/></g></g></g><g fill="#61888d" fill-opacity="1"><g transform="translate(285.865264, 161.77371)"><g><path d="M 6.078125 -15.359375 L 6.078125 -28.734375 C 6.078125 -29.585938 5.628906 -30.015625 4.734375 -30.015625 L 1.984375 -30.015625 L 1.984375 -35.03125 L 7.828125 -35.03125 C 9.421875 -35.03125 10.535156 -34.707031 11.171875 -34.0625 C 11.816406 -33.425781 12.140625 -32.3125 12.140625 -30.71875 L 12.140625 -15.359375 Z M 6.078125 -15.359375 "/></g></g></g><g fill="#61888d" fill-opacity="1"><g transform="translate(301.221593, 161.77371)"><g><path d="M 20.90625 -35.03125 C 22.851562 -35.03125 24.367188 -34.757812 25.453125 -34.21875 C 26.546875 -33.675781 27.296875 -32.734375 27.703125 -31.390625 C 28.109375 -30.046875 28.234375 -28.1875 28.078125 -25.8125 L 27.03125 -9.515625 C 26.914062 -7.566406 26.476562 -5.921875 25.71875 -4.578125 C 24.957031 -3.234375 23.375 -2.234375 20.96875 -1.578125 L 13.203125 0.171875 C 10.828125 0.796875 9.160156 0.679688 8.203125 -0.171875 C 7.242188 -1.023438 6.691406 -2.367188 6.546875 -4.203125 L 5.015625 -26.5625 C 4.984375 -27.300781 5.050781 -27.972656 5.21875 -28.578125 C 5.394531 -29.179688 5.640625 -29.679688 5.953125 -30.078125 C 4.898438 -30.234375 3.914062 -30.59375 3 -31.15625 C 2.09375 -31.71875 1.347656 -32.601562 0.765625 -33.8125 L 4.4375 -37.25 C 4.976562 -36.351562 5.507812 -35.757812 6.03125 -35.46875 C 6.5625 -35.175781 7.316406 -35.03125 8.296875 -35.03125 Z M 22.125 -24.578125 C 22.25 -26.140625 22.257812 -27.316406 22.15625 -28.109375 C 22.0625 -28.910156 21.769531 -29.445312 21.28125 -29.71875 C 20.789062 -29.988281 20.003906 -30.109375 18.921875 -30.078125 L 12.4375 -30.015625 C 11.3125 -29.816406 10.804688 -29.019531 10.921875 -27.625 L 12.4375 -6.546875 C 12.550781 -5.210938 13.269531 -4.722656 14.59375 -5.078125 L 18.625 -6.3125 C 19.632812 -6.582031 20.316406 -7 20.671875 -7.5625 C 21.023438 -8.125 21.238281 -9.109375 21.3125 -10.515625 Z M 22.125 -24.578125 "/></g></g></g><g fill="#61888d" fill-opacity="1"><g transform="translate(331.87587, 161.77371)"><g/></g></g><g fill="#61888d" fill-opacity="1"><g transform="translate(344.487907, 161.77371)"><g><path d="M 20.734375 -35.03125 C 22.671875 -35.03125 24.066406 -34.601562 24.921875 -33.75 C 25.785156 -32.894531 26.21875 -31.472656 26.21875 -29.484375 L 26.21875 0 L 20.09375 0 L 20.09375 -27.96875 C 20.09375 -29.375 19.410156 -30.078125 18.046875 -30.078125 L 13.953125 -30.078125 C 12.628906 -30.078125 11.710938 -29.675781 11.203125 -28.875 C 10.703125 -28.070312 10.609375 -26.40625 10.921875 -23.875 L 13.015625 -6.890625 C 13.367188 -4.628906 13.15625 -2.914062 12.375 -1.75 C 11.601562 -0.582031 10.125 0 7.9375 0 L 1.921875 0 L 1.921875 -5.015625 L 5.4375 -5.015625 C 5.976562 -5.015625 6.382812 -5.171875 6.65625 -5.484375 C 6.925781 -5.796875 7.003906 -6.34375 6.890625 -7.125 L 5.015625 -22.71875 C 4.742188 -24.9375 4.734375 -26.585938 4.984375 -27.671875 C 5.242188 -28.765625 5.566406 -29.546875 5.953125 -30.015625 L 2.046875 -30.015625 L 2.046875 -35.03125 Z M 20.734375 -35.03125 "/></g></g></g><g fill="#61888d" fill-opacity="1"><g transform="translate(374.32474, 161.77371)"><g><path d="M 1.34375 0 L 1.34375 -5.015625 L 11.265625 -5.015625 C 12.003906 -5.015625 12.507812 -5.160156 12.78125 -5.453125 C 13.0625 -5.742188 13.203125 -6.242188 13.203125 -6.953125 L 13.203125 -28.03125 C 13.203125 -28.769531 13.0625 -29.285156 12.78125 -29.578125 C 12.507812 -29.867188 12.003906 -30.015625 11.265625 -30.015625 L 1.984375 -30.015625 L 1.984375 -35.03125 L 14.078125 -35.03125 C 15.941406 -35.03125 17.28125 -34.617188 18.09375 -33.796875 C 18.914062 -32.984375 19.328125 -31.625 19.328125 -29.71875 L 19.328125 -5.25 C 19.328125 -3.382812 18.914062 -2.039062 18.09375 -1.21875 C 17.28125 -0.40625 15.941406 0 14.078125 0 Z M 1.34375 0 "/></g></g></g><g fill="#61888d" fill-opacity="1"><g transform="translate(396.570939, 161.77371)"><g><path d="M 12.78125 0 L 12.78125 -27.90625 C 12.78125 -29.3125 12.082031 -30.015625 10.6875 -30.015625 L 1.171875 -30.015625 L 1.171875 -35.03125 L 13.609375 -35.03125 C 15.472656 -35.03125 16.820312 -34.613281 17.65625 -33.78125 C 18.5 -32.945312 18.921875 -31.570312 18.921875 -29.65625 L 18.921875 0 Z M 12.78125 0 "/></g></g></g><g fill="#61888d" fill-opacity="1"><g transform="translate(419.109111, 161.77371)"><g><path d="M 18.453125 -35.03125 L 24.578125 -35.03125 L 24.578125 -16 C 24.578125 -13.15625 24.164062 -10.875 23.34375 -9.15625 C 22.53125 -7.445312 21.335938 -6.066406 19.765625 -5.015625 C 18.191406 -3.960938 16.253906 -2.972656 13.953125 -2.046875 L 3.5 2.109375 L 1.6875 -2.6875 L 8.296875 -5.25 C 7.785156 -5.71875 7.351562 -6.3125 7 -7.03125 C 6.65625 -7.75 6.425781 -8.617188 6.3125 -9.640625 L 2.75 -35.03125 L 8.875 -35.03125 L 12.5 -9.21875 C 12.613281 -8.40625 12.832031 -7.890625 13.15625 -7.671875 C 13.488281 -7.460938 13.851562 -7.4375 14.25 -7.59375 L 14.484375 -7.65625 C 15.765625 -8.238281 16.742188 -9.003906 17.421875 -9.953125 C 18.109375 -10.910156 18.453125 -12.363281 18.453125 -14.3125 Z M 18.453125 -35.03125 "/></g></g></g><g fill="#61888d" fill-opacity="1"><g transform="translate(446.843896, 161.77371)"><g><path d="M 25.40625 -4.96875 C 25.476562 -3.25 25.113281 -1.988281 24.3125 -1.1875 C 23.519531 -0.394531 22.207031 0 20.375 0 L 12.5 0 L 12.5 -5.015625 L 17.453125 -5.015625 C 18.117188 -5.015625 18.578125 -5.171875 18.828125 -5.484375 C 19.078125 -5.796875 19.1875 -6.265625 19.15625 -6.890625 L 18.28125 -25.6875 C 18.195312 -27.40625 17.890625 -28.566406 17.359375 -29.171875 C 16.835938 -29.773438 16.070312 -30.078125 15.0625 -30.078125 L 13.890625 -30.078125 C 13.148438 -30.078125 12.632812 -29.878906 12.34375 -29.484375 C 12.050781 -29.097656 11.847656 -28.398438 11.734375 -27.390625 L 8.234375 0 L 2.046875 0 L 5.375 -25.640625 C 5.644531 -27.617188 6.171875 -29.078125 6.953125 -30.015625 L 3.03125 -30.015625 L 3.03125 -35.03125 L 16.703125 -35.03125 C 18.921875 -35.03125 20.71875 -34.425781 22.09375 -33.21875 C 23.476562 -32.019531 24.25 -29.742188 24.40625 -26.390625 Z M 25.40625 -4.96875 "/></g></g></g><g fill="#61888d" fill-opacity="1"><g transform="translate(474.812273, 161.77371)"><g><path d="M 18.796875 0 L 18.796875 -28.03125 C 18.796875 -29.351562 18.15625 -30.015625 16.875 -30.015625 L 3.390625 -30.015625 L 3.390625 -35.03125 L 19.90625 -35.03125 C 21.695312 -35.03125 22.984375 -34.59375 23.765625 -33.71875 C 24.546875 -32.84375 24.9375 -31.429688 24.9375 -29.484375 L 24.9375 0 Z M 6.359375 0 C 4.378906 0 3.390625 -1.007812 3.390625 -3.03125 L 3.390625 -21.84375 L 9.515625 -21.84375 L 9.515625 -6.125 C 9.515625 -5.382812 9.804688 -5.015625 10.390625 -5.015625 L 11.15625 -5.015625 L 11.15625 0 Z M 6.359375 0 "/></g></g></g></svg>