<svg xmlns="http://www.w3.org/2000/svg" xmlns:xlink="http://www.w3.org/1999/xlink" width="664" zoomAndPan="magnify" viewBox="0 0 498 279.749983" height="373" preserveAspectRatio="xMidYMid meet" version="1.0"><defs><g/><clipPath id="3b40bfbc75"><path d="M 325.632812 42.046875 L 329.636719 42.046875 L 329.636719 72.316406 L 325.632812 72.316406 Z M 325.632812 42.046875 " clip-rule="nonzero"/></clipPath><clipPath id="20373d1483"><path d="M 0.632812 0.046875 L 4.636719 0.046875 L 4.636719 30.316406 L 0.632812 30.316406 Z M 0.632812 0.046875 " clip-rule="nonzero"/></clipPath><clipPath id="be4305bd1f"><rect x="0" width="5" y="0" height="31"/></clipPath></defs><g fill="#61888d" fill-opacity="1"><g transform="translate(125.972317, 73.995085)"><g><path d="M 5.984375 -17.265625 L 5.984375 -30.921875 C 5.984375 -31.554688 5.878906 -31.960938 5.671875 -32.140625 C 5.472656 -32.316406 5.054688 -32.40625 4.421875 -32.40625 L 1.828125 -32.40625 L 1.828125 -40.765625 L 11.140625 -40.765625 C 13.085938 -40.765625 14.457031 -40.367188 15.25 -39.578125 C 16.039062 -38.785156 16.4375 -37.414062 16.4375 -35.46875 L 16.4375 -17.265625 Z M 5.984375 -17.265625 "/></g></g></g><g fill="#61888d" fill-opacity="1"><g transform="translate(145.743758, 73.995085)"><g><path d="M 20.859375 -40.765625 L 31.390625 -40.765625 L 31.390625 -20.453125 C 31.390625 -17.460938 31.050781 -15.003906 30.375 -13.078125 C 29.695312 -11.148438 28.710938 -9.5625 27.421875 -8.3125 C 26.128906 -7.070312 24.566406 -6.007812 22.734375 -5.125 C 20.898438 -4.25 18.847656 -3.359375 16.578125 -2.453125 L 4.546875 2.3125 L 1.625 -5.640625 L 8.5625 -8.296875 C 6.84375 -9.921875 5.847656 -12.113281 5.578125 -14.875 L 2.78125 -40.765625 L 13.3125 -40.765625 L 16.375 -13.65625 C 16.46875 -12.84375 16.648438 -12.3125 16.921875 -12.0625 C 17.191406 -11.8125 17.550781 -11.753906 18 -11.890625 L 18.34375 -12.03125 C 19.113281 -12.394531 19.722656 -12.914062 20.171875 -13.59375 C 20.628906 -14.269531 20.859375 -15.289062 20.859375 -16.65625 Z M 20.859375 -40.765625 "/></g></g></g><g fill="#61888d" fill-opacity="1"><g transform="translate(180.46269, 73.995085)"><g><path d="M 5.984375 -17.265625 L 5.984375 -30.921875 C 5.984375 -31.554688 5.878906 -31.960938 5.671875 -32.140625 C 5.472656 -32.316406 5.054688 -32.40625 4.421875 -32.40625 L 1.828125 -32.40625 L 1.828125 -40.765625 L 11.140625 -40.765625 C 13.085938 -40.765625 14.457031 -40.367188 15.25 -39.578125 C 16.039062 -38.785156 16.4375 -37.414062 16.4375 -35.46875 L 16.4375 -17.265625 Z M 5.984375 -17.265625 "/></g></g></g><g fill="#61888d" fill-opacity="1"><g transform="translate(200.234131, 73.995085)"><g><path d="M 26.03125 -8.359375 L 28.0625 -8.359375 L 28.0625 0 L 1.21875 0 L 1.21875 -8.359375 L 14.46875 -8.359375 C 14.332031 -8.628906 14.21875 -8.957031 14.125 -9.34375 C 14.039062 -9.726562 14 -10.144531 14 -10.59375 L 14 -30.375 C 14 -31.1875 13.863281 -31.726562 13.59375 -32 C 13.320312 -32.269531 12.773438 -32.40625 11.953125 -32.40625 L 1.96875 -32.40625 L 1.96875 -40.765625 L 18 -40.765625 C 20.40625 -40.765625 22.09375 -40.234375 23.0625 -39.171875 C 24.039062 -38.109375 24.53125 -36.285156 24.53125 -33.703125 L 24.53125 -10.0625 C 24.53125 -8.925781 25.03125 -8.359375 26.03125 -8.359375 Z M 26.03125 -8.359375 "/></g></g></g><g fill="#61888d" fill-opacity="1"><g transform="translate(228.974073, 73.995085)"><g><path d="M 12.984375 0 L 12.984375 -29.96875 C 12.984375 -31.59375 12.164062 -32.40625 10.53125 -32.40625 L 0.953125 -32.40625 L 0.953125 -40.765625 L 16.65625 -40.765625 C 19.1875 -40.765625 20.960938 -40.242188 21.984375 -39.203125 C 23.003906 -38.160156 23.515625 -36.394531 23.515625 -33.90625 L 23.515625 0 Z M 12.984375 0 "/></g></g></g><g fill="#61888d" fill-opacity="1"><g transform="translate(256.219265, 73.995085)"><g/></g></g><g fill="#61888d" fill-opacity="1"><g transform="translate(270.147598, 73.995085)"><g><path d="M 31.796875 -40.765625 C 33.796875 -40.765625 35.132812 -40.082031 35.8125 -38.71875 C 36.488281 -37.363281 36.601562 -35.691406 36.15625 -33.703125 L 29.21875 0 L 18.546875 0 L 24.53125 -30.78125 C 24.664062 -31.550781 24.6875 -32.0625 24.59375 -32.3125 C 24.507812 -32.5625 24.082031 -32.6875 23.3125 -32.6875 L 17.9375 -32.6875 C 17.394531 -32.6875 16.960938 -32.617188 16.640625 -32.484375 C 16.328125 -32.347656 16.171875 -31.828125 16.171875 -30.921875 L 16.171875 1.625 C 16.171875 2.175781 16.441406 2.453125 16.984375 2.453125 L 18.625 2.453125 L 18.625 10.390625 L 9.375 10.390625 C 6.882812 10.390625 5.640625 9.144531 5.640625 6.65625 L 5.640625 -29.625 C 5.640625 -30.988281 5.890625 -31.914062 6.390625 -32.40625 L 2.453125 -32.40625 L 2.453125 -40.765625 Z M 31.796875 -40.765625 "/></g></g></g><g fill="#61888d" fill-opacity="1"><g transform="translate(308.875211, 73.995085)"><g><path d="M 12.984375 0 L 12.984375 -29.96875 C 12.984375 -31.59375 12.164062 -32.40625 10.53125 -32.40625 L 0.953125 -32.40625 L 0.953125 -40.765625 L 16.65625 -40.765625 C 19.1875 -40.765625 20.960938 -40.242188 21.984375 -39.203125 C 23.003906 -38.160156 23.515625 -36.394531 23.515625 -33.90625 L 23.515625 0 Z M 12.984375 0 "/></g></g></g><g fill="#61888d" fill-opacity="1"><g transform="translate(336.120403, 73.995085)"><g><path d="M 3.125 0 L 3.125 -8.359375 L 19.09375 -8.359375 C 20.726562 -8.359375 21.546875 -9.148438 21.546875 -10.734375 L 21.546875 -30.515625 C 21.546875 -31.367188 21.460938 -31.941406 21.296875 -32.234375 C 21.140625 -32.535156 20.585938 -32.6875 19.640625 -32.6875 L 16.4375 -32.6875 C 15.53125 -32.6875 14.929688 -32.535156 14.640625 -32.234375 C 14.347656 -31.941406 14.15625 -31.367188 14.0625 -30.515625 L 13.3125 -24.53125 C 13.269531 -23.894531 13.335938 -23.453125 13.515625 -23.203125 C 13.703125 -22.953125 14.113281 -22.828125 14.75 -22.828125 L 17.265625 -22.828125 L 17.265625 -14.671875 L 7.671875 -14.671875 C 5.640625 -14.671875 4.203125 -15.132812 3.359375 -16.0625 C 2.523438 -17 2.222656 -18.460938 2.453125 -20.453125 L 4.140625 -34.921875 C 4.367188 -36.960938 4.992188 -38.445312 6.015625 -39.375 C 7.035156 -40.300781 8.539062 -40.765625 10.53125 -40.765625 L 25.28125 -40.765625 C 27.769531 -40.765625 29.523438 -40.253906 30.546875 -39.234375 C 31.566406 -38.222656 32.078125 -36.445312 32.078125 -33.90625 L 32.078125 -6.796875 C 32.078125 -4.304688 31.566406 -2.550781 30.546875 -1.53125 C 29.523438 -0.507812 27.769531 0 25.28125 0 Z M 3.125 0 "/></g></g></g><g fill="#61888d" fill-opacity="1"><g transform="translate(58.5443, 160.168067)"><g><path d="M 6.25 8.484375 L 6.25 -29 C 6.25 -29.863281 5.796875 -30.296875 4.890625 -30.296875 L 2.234375 -30.296875 L 2.234375 -35.375 L 8.484375 -35.375 C 9.898438 -35.375 10.910156 -35.078125 11.515625 -34.484375 C 12.128906 -33.898438 12.4375 -32.898438 12.4375 -31.484375 L 12.4375 8.484375 Z M 6.25 8.484375 "/></g></g></g><g fill="#61888d" fill-opacity="1"><g transform="translate(74.579049, 160.168067)"><g><path d="M 20.28125 0 L 14.4375 0 L 10.609375 -12.859375 L 8.84375 -12.203125 C 8.132812 -11.929688 7.757812 -11.476562 7.71875 -10.84375 L 6.25 0 L 0.296875 0 L 2.1875 -12.4375 C 2.34375 -13.457031 2.664062 -14.257812 3.15625 -14.84375 C 3.644531 -15.4375 4.363281 -15.929688 5.3125 -16.328125 L 9.484375 -17.984375 C 10.160156 -18.210938 10.644531 -18.5625 10.9375 -19.03125 C 11.226562 -19.507812 11.375 -20.179688 11.375 -21.046875 L 11.375 -28.421875 C 11.375 -29.117188 11.234375 -29.601562 10.953125 -29.875 C 10.679688 -30.15625 10.191406 -30.296875 9.484375 -30.296875 L 4.71875 -30.296875 L 4.71875 -35.375 L 12.328125 -35.375 C 14.054688 -35.375 15.320312 -34.953125 16.125 -34.109375 C 16.925781 -33.265625 17.328125 -31.894531 17.328125 -30 L 17.328125 -18.515625 C 17.328125 -17.609375 17.195312 -16.867188 16.9375 -16.296875 C 16.6875 -15.734375 16.304688 -15.289062 15.796875 -14.96875 Z M 20.28125 0 "/></g></g></g><g fill="#61888d" fill-opacity="1"><g transform="translate(95.270848, 160.168067)"><g><path d="M 6.25 0 L 6.25 -29 C 6.25 -29.863281 5.796875 -30.296875 4.890625 -30.296875 L 2.234375 -30.296875 L 2.234375 -35.375 L 8.484375 -35.375 C 9.898438 -35.375 10.910156 -35.078125 11.515625 -34.484375 C 12.128906 -33.898438 12.4375 -32.898438 12.4375 -31.484375 L 12.4375 0 Z M 6.25 0 "/></g></g></g><g fill="#61888d" fill-opacity="1"><g transform="translate(111.305597, 160.168067)"><g><path d="M 25.640625 -5.015625 C 25.722656 -3.285156 25.359375 -2.015625 24.546875 -1.203125 C 23.742188 -0.398438 22.421875 0 20.578125 0 L 12.609375 0 L 12.609375 -5.0625 L 17.625 -5.0625 C 18.289062 -5.0625 18.75 -5.21875 19 -5.53125 C 19.257812 -5.851562 19.375 -6.328125 19.34375 -6.953125 L 18.453125 -25.9375 C 18.367188 -27.664062 18.0625 -28.832031 17.53125 -29.4375 C 17.007812 -30.050781 16.234375 -30.359375 15.203125 -30.359375 L 14.03125 -30.359375 C 13.28125 -30.359375 12.757812 -30.160156 12.46875 -29.765625 C 12.175781 -29.378906 11.96875 -28.675781 11.84375 -27.65625 L 8.3125 0 L 2.0625 0 L 5.421875 -25.875 C 5.703125 -27.882812 6.234375 -29.359375 7.015625 -30.296875 L 3.0625 -30.296875 L 3.0625 -35.375 L 16.859375 -35.375 C 19.097656 -35.375 20.914062 -34.765625 22.3125 -33.546875 C 23.707031 -32.328125 24.484375 -30.023438 24.640625 -26.640625 Z M 25.640625 -5.015625 "/></g></g></g><g fill="#61888d" fill-opacity="1"><g transform="translate(139.543249, 160.168067)"><g><path d="M 18.984375 0 L 18.984375 -28.296875 C 18.984375 -29.628906 18.332031 -30.296875 17.03125 -30.296875 L 3.421875 -30.296875 L 3.421875 -35.375 L 20.109375 -35.375 C 21.910156 -35.375 23.203125 -34.929688 23.984375 -34.046875 C 24.773438 -33.160156 25.171875 -31.734375 25.171875 -29.765625 L 25.171875 0 Z M 6.421875 0 C 4.421875 0 3.421875 -1.019531 3.421875 -3.0625 L 3.421875 -22.046875 L 9.609375 -22.046875 L 9.609375 -6.1875 C 9.609375 -5.4375 9.90625 -5.0625 10.5 -5.0625 L 11.265625 -5.0625 L 11.265625 0 Z M 6.421875 0 "/></g></g></g><g fill="#61888d" fill-opacity="1"><g transform="translate(168.429362, 160.168067)"><g/></g></g><g fill="#61888d" fill-opacity="1"><g transform="translate(181.162832, 160.168067)"><g><path d="M 20.875 -5.0625 L 22.9375 -5.0625 L 22.9375 0 L 1.359375 0 L 1.359375 -5.0625 L 13.796875 -5.0625 C 13.679688 -5.300781 13.582031 -5.585938 13.5 -5.921875 C 13.414062 -6.253906 13.375 -6.617188 13.375 -7.015625 L 13.375 -28.296875 C 13.375 -29.046875 13.226562 -29.566406 12.9375 -29.859375 C 12.644531 -30.148438 12.125 -30.296875 11.375 -30.296875 L 2 -30.296875 L 2 -35.375 L 14.265625 -35.375 C 16.148438 -35.375 17.503906 -34.941406 18.328125 -34.078125 C 19.160156 -33.210938 19.578125 -31.773438 19.578125 -29.765625 L 19.578125 -6.546875 C 19.578125 -5.554688 20.007812 -5.0625 20.875 -5.0625 Z M 20.875 -5.0625 "/></g></g></g><g fill="#61888d" fill-opacity="1"><g transform="translate(204.330624, 160.168067)"><g><path d="M 30.359375 -35.375 L 30.359375 -30.296875 L 27.0625 -30.296875 C 27.457031 -29.554688 27.65625 -28.398438 27.65625 -26.828125 L 27.65625 0 L 21.453125 0 L 21.453125 -27.703125 C 21.453125 -28.722656 21.332031 -29.410156 21.09375 -29.765625 C 20.863281 -30.117188 20.453125 -30.296875 19.859375 -30.296875 L 12.96875 -30.296875 C 12.375 -30.296875 11.957031 -30.117188 11.71875 -29.765625 C 11.488281 -29.410156 11.375 -28.722656 11.375 -27.703125 L 11.375 0 L 5.1875 0 L 5.1875 -26.828125 C 5.1875 -28.398438 5.382812 -29.554688 5.78125 -30.296875 L 2.46875 -30.296875 L 2.46875 -35.375 Z M 30.359375 -35.375 "/></g></g></g><g fill="#61888d" fill-opacity="1"><g transform="translate(237.343348, 160.168067)"><g><path d="M 12.90625 0 L 12.90625 -28.171875 C 12.90625 -29.585938 12.195312 -30.296875 10.78125 -30.296875 L 1.171875 -30.296875 L 1.171875 -35.375 L 13.734375 -35.375 C 15.617188 -35.375 16.984375 -34.953125 17.828125 -34.109375 C 18.671875 -33.265625 19.09375 -31.878906 19.09375 -29.953125 L 19.09375 0 Z M 12.90625 0 "/></g></g></g><g fill="#61888d" fill-opacity="1"><g transform="translate(260.09855, 160.168067)"><g><path d="M 25.640625 -5.015625 C 25.722656 -3.285156 25.359375 -2.015625 24.546875 -1.203125 C 23.742188 -0.398438 22.421875 0 20.578125 0 L 12.609375 0 L 12.609375 -5.0625 L 17.625 -5.0625 C 18.289062 -5.0625 18.75 -5.21875 19 -5.53125 C 19.257812 -5.851562 19.375 -6.328125 19.34375 -6.953125 L 18.453125 -25.9375 C 18.367188 -27.664062 18.0625 -28.832031 17.53125 -29.4375 C 17.007812 -30.050781 16.234375 -30.359375 15.203125 -30.359375 L 14.03125 -30.359375 C 13.28125 -30.359375 12.757812 -30.160156 12.46875 -29.765625 C 12.175781 -29.378906 11.96875 -28.675781 11.84375 -27.65625 L 8.3125 0 L 2.0625 0 L 5.421875 -25.875 C 5.703125 -27.882812 6.234375 -29.359375 7.015625 -30.296875 L 3.0625 -30.296875 L 3.0625 -35.375 L 16.859375 -35.375 C 19.097656 -35.375 20.914062 -34.765625 22.3125 -33.546875 C 23.707031 -32.328125 24.484375 -30.023438 24.640625 -26.640625 Z M 25.640625 -5.015625 "/></g></g></g><g fill="#61888d" fill-opacity="1"><g transform="translate(288.336191, 160.168067)"><g><path d="M 18.984375 0 L 18.984375 -28.296875 C 18.984375 -29.628906 18.332031 -30.296875 17.03125 -30.296875 L 3.421875 -30.296875 L 3.421875 -35.375 L 20.109375 -35.375 C 21.910156 -35.375 23.203125 -34.929688 23.984375 -34.046875 C 24.773438 -33.160156 25.171875 -31.734375 25.171875 -29.765625 L 25.171875 0 Z M 6.421875 0 C 4.421875 0 3.421875 -1.019531 3.421875 -3.0625 L 3.421875 -22.046875 L 9.609375 -22.046875 L 9.609375 -6.1875 C 9.609375 -5.4375 9.90625 -5.0625 10.5 -5.0625 L 11.265625 -5.0625 L 11.265625 0 Z M 6.421875 0 "/></g></g></g><g fill="#61888d" fill-opacity="1"><g transform="translate(317.222315, 160.168067)"><g/></g></g><g fill="#61888d" fill-opacity="1"><g transform="translate(329.955761, 160.168067)"><g><path d="M 20.921875 -35.375 C 22.890625 -35.375 24.304688 -34.941406 25.171875 -34.078125 C 26.035156 -33.210938 26.46875 -31.773438 26.46875 -29.765625 L 26.46875 0 L 20.28125 0 L 20.28125 -28.234375 C 20.28125 -29.648438 19.59375 -30.359375 18.21875 -30.359375 L 14.09375 -30.359375 C 12.75 -30.359375 11.820312 -29.953125 11.3125 -29.140625 C 10.800781 -28.335938 10.707031 -26.660156 11.03125 -24.109375 L 13.140625 -6.953125 C 13.492188 -4.671875 13.273438 -2.941406 12.484375 -1.765625 C 11.703125 -0.585938 10.210938 0 8.015625 0 L 1.953125 0 L 1.953125 -5.0625 L 5.484375 -5.0625 C 6.035156 -5.0625 6.445312 -5.21875 6.71875 -5.53125 C 7 -5.851562 7.078125 -6.40625 6.953125 -7.1875 L 5.0625 -22.9375 C 4.789062 -25.175781 4.78125 -26.84375 5.03125 -27.9375 C 5.289062 -29.039062 5.617188 -29.828125 6.015625 -30.296875 L 2.0625 -30.296875 L 2.0625 -35.375 Z M 20.921875 -35.375 "/></g></g></g><g fill="#61888d" fill-opacity="1"><g transform="translate(359.608184, 160.168067)"><g><path d="M 12.90625 0 L 12.90625 -28.171875 C 12.90625 -29.585938 12.195312 -30.296875 10.78125 -30.296875 L 1.171875 -30.296875 L 1.171875 -35.375 L 13.734375 -35.375 C 15.617188 -35.375 16.984375 -34.953125 17.828125 -34.109375 C 18.671875 -33.265625 19.09375 -31.878906 19.09375 -29.953125 L 19.09375 0 Z M 12.90625 0 "/></g></g></g><g fill="#61888d" fill-opacity="1"><g transform="translate(382.363397, 160.168067)"><g><path d="M 0.53125 0 L 0.53125 -5.0625 L 6.1875 -5.0625 C 6.976562 -5.0625 7.519531 -5.226562 7.8125 -5.5625 C 8.101562 -5.90625 8.25 -6.445312 8.25 -7.1875 L 8.25 -28.296875 C 8.25 -29.046875 8.109375 -29.566406 7.828125 -29.859375 C 7.554688 -30.148438 7.085938 -30.296875 6.421875 -30.296875 L 3.828125 -30.296875 L 3.828125 -35.375 L 9.3125 -35.375 C 11.15625 -35.375 12.46875 -34.957031 13.25 -34.125 C 14.039062 -33.300781 14.4375 -31.925781 14.4375 -30 L 14.4375 -5.484375 C 14.4375 -3.515625 14.023438 -2.109375 13.203125 -1.265625 C 12.378906 -0.421875 11.046875 0 9.203125 0 Z M 0.53125 0 "/></g></g></g><g fill="#61888d" fill-opacity="1"><g transform="translate(400.284597, 160.168067)"><g><path d="M 21.875 -13.796875 L 23.640625 -6.1875 C 24.066406 -4.382812 23.878906 -2.898438 23.078125 -1.734375 C 22.273438 -0.578125 20.890625 0 18.921875 0 L 1.890625 0 L 1.890625 -5.0625 L 15.5 -5.0625 C 16.050781 -5.0625 16.515625 -5.238281 16.890625 -5.59375 C 17.265625 -5.945312 17.332031 -6.617188 17.09375 -7.609375 L 15.96875 -12.140625 C 15.695312 -13.242188 15.03125 -14.070312 13.96875 -14.625 L 8.015625 -17.390625 C 7.304688 -17.703125 6.765625 -18.0625 6.390625 -18.46875 C 6.023438 -18.882812 5.742188 -19.507812 5.546875 -20.34375 L 1.828125 -35.375 L 8.140625 -35.375 L 11.5 -21.6875 C 11.613281 -21.101562 11.984375 -20.671875 12.609375 -20.390625 L 13.625 -19.921875 L 17.453125 -35.375 L 23.875 -35.375 L 19.21875 -17.265625 C 19.882812 -16.878906 20.429688 -16.429688 20.859375 -15.921875 C 21.296875 -15.410156 21.632812 -14.703125 21.875 -13.796875 Z M 21.875 -13.796875 "/></g></g></g><g fill="#61888d" fill-opacity="1"><g transform="translate(426.992341, 160.168067)"><g/></g></g><g fill="#61888d" fill-opacity="1"><g transform="translate(32.750947, 242.594398)"><g/></g></g><g fill="#61888d" fill-opacity="1"><g transform="translate(44.845606, 242.594398)"><g><path d="M 6.25 8.484375 L 6.25 -29 C 6.25 -29.863281 5.796875 -30.296875 4.890625 -30.296875 L 2.234375 -30.296875 L 2.234375 -35.375 L 8.484375 -35.375 C 9.898438 -35.375 10.910156 -35.078125 11.515625 -34.484375 C 12.128906 -33.898438 12.4375 -32.898438 12.4375 -31.484375 L 12.4375 8.484375 Z M 6.25 8.484375 "/></g></g></g><g fill="#61888d" fill-opacity="1"><g transform="translate(60.880354, 242.594398)"><g><path d="M 6.25 0 L 6.25 -29 C 6.25 -29.863281 5.796875 -30.296875 4.890625 -30.296875 L 2.234375 -30.296875 L 2.234375 -35.375 L 8.484375 -35.375 C 9.898438 -35.375 10.910156 -35.078125 11.515625 -34.484375 C 12.128906 -33.898438 12.4375 -32.898438 12.4375 -31.484375 L 12.4375 0 Z M 6.25 0 "/></g></g></g><g fill="#61888d" fill-opacity="1"><g transform="translate(76.915103, 242.594398)"><g><path d="M 0.53125 0 L 0.53125 -5.0625 L 6.1875 -5.0625 C 6.976562 -5.0625 7.519531 -5.226562 7.8125 -5.5625 C 8.101562 -5.90625 8.25 -6.445312 8.25 -7.1875 L 8.25 -28.296875 C 8.25 -29.046875 8.109375 -29.566406 7.828125 -29.859375 C 7.554688 -30.148438 7.085938 -30.296875 6.421875 -30.296875 L 3.828125 -30.296875 L 3.828125 -35.375 L 9.3125 -35.375 C 11.15625 -35.375 12.46875 -34.957031 13.25 -34.125 C 14.039062 -33.300781 14.4375 -31.925781 14.4375 -30 L 14.4375 -5.484375 C 14.4375 -3.515625 14.023438 -2.109375 13.203125 -1.265625 C 12.378906 -0.421875 11.046875 0 9.203125 0 Z M 0.53125 0 "/></g></g></g><g fill="#61888d" fill-opacity="1"><g transform="translate(94.423586, 242.594398)"><g><path d="M 6.125 -15.5 L 6.125 -29 C 6.125 -29.863281 5.675781 -30.296875 4.78125 -30.296875 L 2 -30.296875 L 2 -35.375 L 7.90625 -35.375 C 9.507812 -35.375 10.632812 -35.046875 11.28125 -34.390625 C 11.9375 -33.742188 12.265625 -32.617188 12.265625 -31.015625 L 12.265625 -15.5 Z M 6.125 -15.5 "/></g></g></g><g fill="#61888d" fill-opacity="1"><g transform="translate(109.927769, 242.594398)"><g><path d="M 21.109375 -35.375 C 23.066406 -35.375 24.597656 -35.097656 25.703125 -34.546875 C 26.804688 -33.992188 27.5625 -33.039062 27.96875 -31.6875 C 28.382812 -30.332031 28.515625 -28.457031 28.359375 -26.0625 L 27.296875 -9.609375 C 27.179688 -7.640625 26.738281 -5.976562 25.96875 -4.625 C 25.195312 -3.269531 23.597656 -2.257812 21.171875 -1.59375 L 13.328125 0.171875 C 10.929688 0.804688 9.25 0.691406 8.28125 -0.171875 C 7.320312 -1.035156 6.765625 -2.394531 6.609375 -4.25 L 5.0625 -26.828125 C 5.03125 -27.566406 5.101562 -28.238281 5.28125 -28.84375 C 5.457031 -29.457031 5.703125 -29.960938 6.015625 -30.359375 C 4.953125 -30.515625 3.957031 -30.878906 3.03125 -31.453125 C 2.113281 -32.023438 1.359375 -32.921875 0.765625 -34.140625 L 4.484375 -37.609375 C 5.035156 -36.703125 5.570312 -36.101562 6.09375 -35.8125 C 6.625 -35.519531 7.382812 -35.375 8.375 -35.375 Z M 22.34375 -24.8125 C 22.457031 -26.382812 22.460938 -27.570312 22.359375 -28.375 C 22.265625 -29.1875 21.972656 -29.726562 21.484375 -30 C 20.992188 -30.28125 20.195312 -30.398438 19.09375 -30.359375 L 12.5625 -30.296875 C 11.414062 -30.097656 10.90625 -29.296875 11.03125 -27.890625 L 12.5625 -6.609375 C 12.675781 -5.265625 13.398438 -4.769531 14.734375 -5.125 L 18.8125 -6.359375 C 19.832031 -6.640625 20.519531 -7.0625 20.875 -7.625 C 21.226562 -8.195312 21.441406 -9.191406 21.515625 -10.609375 Z M 22.34375 -24.8125 "/></g></g></g><g fill="#61888d" fill-opacity="1"><g transform="translate(140.877182, 242.594398)"><g><path d="M 6.25 0 L 6.25 -29 C 6.25 -29.863281 5.796875 -30.296875 4.890625 -30.296875 L 2.234375 -30.296875 L 2.234375 -35.375 L 8.484375 -35.375 C 9.898438 -35.375 10.910156 -35.078125 11.515625 -34.484375 C 12.128906 -33.898438 12.4375 -32.898438 12.4375 -31.484375 L 12.4375 0 Z M 6.25 0 "/></g></g></g><g fill="#61888d" fill-opacity="1"><g transform="translate(156.91193, 242.594398)"><g/></g></g><g fill="#61888d" fill-opacity="1"><g transform="translate(169.6454, 242.594398)"><g><path d="M 12.90625 0 L 12.90625 -28.171875 C 12.90625 -29.585938 12.195312 -30.296875 10.78125 -30.296875 L 1.171875 -30.296875 L 1.171875 -35.375 L 13.734375 -35.375 C 15.617188 -35.375 16.984375 -34.953125 17.828125 -34.109375 C 18.671875 -33.265625 19.09375 -31.878906 19.09375 -29.953125 L 19.09375 0 Z M 12.90625 0 "/></g></g></g><g fill="#61888d" fill-opacity="1"><g transform="translate(192.400591, 242.594398)"><g><path d="M 6.25 0 L 6.25 -29 C 6.25 -29.863281 5.796875 -30.296875 4.890625 -30.296875 L 2.234375 -30.296875 L 2.234375 -35.375 L 8.484375 -35.375 C 9.898438 -35.375 10.910156 -35.078125 11.515625 -34.484375 C 12.128906 -33.898438 12.4375 -32.898438 12.4375 -31.484375 L 12.4375 0 Z M 6.25 0 "/></g></g></g><g fill="#61888d" fill-opacity="1"><g transform="translate(208.199516, 242.594398)"><g><path d="M 12.90625 0 L 12.90625 -28.171875 C 12.90625 -29.585938 12.195312 -30.296875 10.78125 -30.296875 L 1.171875 -30.296875 L 1.171875 -35.375 L 13.734375 -35.375 C 15.617188 -35.375 16.984375 -34.953125 17.828125 -34.109375 C 18.671875 -33.265625 19.09375 -31.878906 19.09375 -29.953125 L 19.09375 0 Z M 12.90625 0 "/></g></g></g><g fill="#61888d" fill-opacity="1"><g transform="translate(230.954707, 242.594398)"><g><path d="M 6.25 0 L 6.25 -29 C 6.25 -29.863281 5.796875 -30.296875 4.890625 -30.296875 L 2.234375 -30.296875 L 2.234375 -35.375 L 8.484375 -35.375 C 9.898438 -35.375 10.910156 -35.078125 11.515625 -34.484375 C 12.128906 -33.898438 12.4375 -32.898438 12.4375 -31.484375 L 12.4375 0 Z M 6.25 0 "/></g></g></g><g fill="#61888d" fill-opacity="1"><g transform="translate(246.989456, 242.594398)"><g><path d="M 6.25 0 L 6.25 -29 C 6.25 -29.863281 5.796875 -30.296875 4.890625 -30.296875 L 2.234375 -30.296875 L 2.234375 -35.375 L 8.484375 -35.375 C 9.898438 -35.375 10.910156 -35.078125 11.515625 -34.484375 C 12.128906 -33.898438 12.4375 -32.898438 12.4375 -31.484375 L 12.4375 0 Z M 6.25 0 "/></g></g></g><g fill="#61888d" fill-opacity="1"><g transform="translate(262.847345, 242.594398)"><g><path d="M 10.140625 -20.515625 C 9.390625 -20.160156 8.914062 -19.707031 8.71875 -19.15625 C 8.53125 -18.601562 8.570312 -17.703125 8.84375 -16.453125 L 11.4375 -5.3125 C 11.863281 -3.738281 11.859375 -2.457031 11.421875 -1.46875 C 10.992188 -0.488281 10.054688 0 8.609375 0 L 2.421875 0 L 2.421875 -5.0625 L 4.359375 -5.0625 C 4.992188 -5.0625 5.25 -5.378906 5.125 -6.015625 L 3.125 -16.03125 C 2.613281 -18.507812 2.800781 -20.382812 3.6875 -21.65625 C 4.570312 -22.9375 5.800781 -23.988281 7.375 -24.8125 L 8.25 -25.296875 L 2.71875 -35.375 L 8.953125 -35.375 L 17.796875 -18.5625 L 18.328125 -18.921875 C 19.003906 -19.359375 19.457031 -19.78125 19.6875 -20.1875 C 19.925781 -20.601562 20.046875 -21.363281 20.046875 -22.46875 L 20.046875 -35.375 L 26.0625 -35.375 L 26.0625 -21.984375 C 26.0625 -20.179688 25.722656 -18.738281 25.046875 -17.65625 C 24.378906 -16.570312 23.320312 -15.5625 21.875 -14.625 L 20.390625 -13.625 L 27.296875 0 L 21.046875 0 L 10.671875 -20.75 Z M 10.140625 -20.515625 "/></g></g></g><g fill="#61888d" fill-opacity="1"><g transform="translate(291.792399, 242.594398)"><g/></g></g><g fill="#61888d" fill-opacity="1"><g transform="translate(304.525869, 242.594398)"><g><path d="M 20.921875 -35.375 C 22.890625 -35.375 24.304688 -34.941406 25.171875 -34.078125 C 26.035156 -33.210938 26.46875 -31.773438 26.46875 -29.765625 L 26.46875 0 L 20.28125 0 L 20.28125 -28.234375 C 20.28125 -29.648438 19.59375 -30.359375 18.21875 -30.359375 L 14.09375 -30.359375 C 12.75 -30.359375 11.820312 -29.953125 11.3125 -29.140625 C 10.800781 -28.335938 10.707031 -26.660156 11.03125 -24.109375 L 13.140625 -6.953125 C 13.492188 -4.671875 13.273438 -2.941406 12.484375 -1.765625 C 11.703125 -0.585938 10.210938 0 8.015625 0 L 1.953125 0 L 1.953125 -5.0625 L 5.484375 -5.0625 C 6.035156 -5.0625 6.445312 -5.21875 6.71875 -5.53125 C 7 -5.851562 7.078125 -6.40625 6.953125 -7.1875 L 5.0625 -22.9375 C 4.789062 -25.175781 4.78125 -26.84375 5.03125 -27.9375 C 5.289062 -29.039062 5.617188 -29.828125 6.015625 -30.296875 L 2.0625 -30.296875 L 2.0625 -35.375 Z M 20.921875 -35.375 "/></g></g></g><g fill="#61888d" fill-opacity="1"><g transform="translate(334.649962, 242.594398)"><g><path d="M 6.25 0 L 6.25 -29 C 6.25 -29.863281 5.796875 -30.296875 4.890625 -30.296875 L 2.234375 -30.296875 L 2.234375 -35.375 L 8.484375 -35.375 C 9.898438 -35.375 10.910156 -35.078125 11.515625 -34.484375 C 12.128906 -33.898438 12.4375 -32.898438 12.4375 -31.484375 L 12.4375 0 Z M 6.25 0 "/></g></g></g><g fill="#61888d" fill-opacity="1"><g transform="translate(350.684711, 242.594398)"><g><path d="M 1.359375 0 L 1.359375 -5.0625 L 11.375 -5.0625 C 12.125 -5.0625 12.632812 -5.207031 12.90625 -5.5 C 13.1875 -5.800781 13.328125 -6.304688 13.328125 -7.015625 L 13.328125 -28.296875 C 13.328125 -29.046875 13.1875 -29.566406 12.90625 -29.859375 C 12.632812 -30.148438 12.125 -30.296875 11.375 -30.296875 L 2 -30.296875 L 2 -35.375 L 14.203125 -35.375 C 16.085938 -35.375 17.441406 -34.957031 18.265625 -34.125 C 19.097656 -33.300781 19.515625 -31.925781 19.515625 -30 L 19.515625 -5.3125 C 19.515625 -3.414062 19.097656 -2.054688 18.265625 -1.234375 C 17.441406 -0.410156 16.085938 0 14.203125 0 Z M 1.359375 0 "/></g></g></g><g fill="#61888d" fill-opacity="1"><g transform="translate(373.145067, 242.594398)"><g><path d="M 12.90625 0 L 12.90625 -28.171875 C 12.90625 -29.585938 12.195312 -30.296875 10.78125 -30.296875 L 1.171875 -30.296875 L 1.171875 -35.375 L 13.734375 -35.375 C 15.617188 -35.375 16.984375 -34.953125 17.828125 -34.109375 C 18.671875 -33.265625 19.09375 -31.878906 19.09375 -29.953125 L 19.09375 0 Z M 12.90625 0 "/></g></g></g><g fill="#61888d" fill-opacity="1"><g transform="translate(395.90028, 242.594398)"><g><path d="M 18.625 -35.375 L 24.8125 -35.375 L 24.8125 -16.15625 C 24.8125 -13.28125 24.398438 -10.976562 23.578125 -9.25 C 22.753906 -7.519531 21.546875 -6.125 19.953125 -5.0625 C 18.359375 -4.007812 16.40625 -3.007812 14.09375 -2.0625 L 3.53125 2.125 L 1.703125 -2.71875 L 8.375 -5.3125 C 7.863281 -5.78125 7.429688 -6.375 7.078125 -7.09375 C 6.722656 -7.820312 6.484375 -8.703125 6.359375 -9.734375 L 2.765625 -35.375 L 8.953125 -35.375 L 12.609375 -9.3125 C 12.734375 -8.488281 12.960938 -7.96875 13.296875 -7.75 C 13.628906 -7.53125 13.992188 -7.5 14.390625 -7.65625 L 14.625 -7.71875 C 15.914062 -8.3125 16.90625 -9.085938 17.59375 -10.046875 C 18.28125 -11.015625 18.625 -12.476562 18.625 -14.4375 Z M 18.625 -35.375 "/></g></g></g><g fill="#61888d" fill-opacity="1"><g transform="translate(423.902131, 242.594398)"><g><path d="M 25.640625 -5.015625 C 25.722656 -3.285156 25.359375 -2.015625 24.546875 -1.203125 C 23.742188 -0.398438 22.421875 0 20.578125 0 L 12.609375 0 L 12.609375 -5.0625 L 17.625 -5.0625 C 18.289062 -5.0625 18.75 -5.21875 19 -5.53125 C 19.257812 -5.851562 19.375 -6.328125 19.34375 -6.953125 L 18.453125 -25.9375 C 18.367188 -27.664062 18.0625 -28.832031 17.53125 -29.4375 C 17.007812 -30.050781 16.234375 -30.359375 15.203125 -30.359375 L 14.03125 -30.359375 C 13.28125 -30.359375 12.757812 -30.160156 12.46875 -29.765625 C 12.175781 -29.378906 11.96875 -28.675781 11.84375 -27.65625 L 8.3125 0 L 2.0625 0 L 5.421875 -25.875 C 5.703125 -27.882812 6.234375 -29.359375 7.015625 -30.296875 L 3.0625 -30.296875 L 3.0625 -35.375 L 16.859375 -35.375 C 19.097656 -35.375 20.914062 -34.765625 22.3125 -33.546875 C 23.707031 -32.328125 24.484375 -30.023438 24.640625 -26.640625 Z M 25.640625 -5.015625 "/></g></g></g><g fill="#61888d" fill-opacity="1"><g transform="translate(452.141738, 242.594398)"><g/></g></g><g clip-path="url(#3b40bfbc75)"><g transform="matrix(1, 0, 0, 1, 325, 42)"><g clip-path="url(#be4305bd1f)"><g clip-path="url(#20373d1483)"><path fill="#61888d" d="M 0.632812 0.046875 L 4.636719 0.046875 L 4.636719 30.3125 L 0.632812 30.3125 Z M 0.632812 0.046875 " fill-opacity="1" fill-rule="nonzero"/></g></g></g></g></svg>