<svg xmlns="http://www.w3.org/2000/svg" xmlns:xlink="http://www.w3.org/1999/xlink" width="996" zoomAndPan="magnify" viewBox="0 0 747 264.749989" height="353" preserveAspectRatio="xMidYMid meet" version="1.0"><defs><g/><clipPath id="5f1129c9a0"><path d="M 328.054688 84.992188 L 334.042969 84.992188 L 334.042969 92.988281 L 328.054688 92.988281 Z M 328.054688 84.992188 " clip-rule="nonzero"/></clipPath><clipPath id="891bafc7c7"><path d="M 0.0546875 0.992188 L 6.042969 0.992188 L 6.042969 8.988281 L 0.0546875 8.988281 Z M 0.0546875 0.992188 " clip-rule="nonzero"/></clipPath><clipPath id="c937480d98"><rect x="0" width="7" y="0" height="9"/></clipPath></defs><g clip-path="url(#5f1129c9a0)"><g transform="matrix(1, 0, 0, 1, 328, 84)"><g clip-path="url(#c937480d98)"><g clip-path="url(#891bafc7c7)"><path fill="#61888d" d="M 0.0546875 0.992188 L 6.042969 0.992188 L 6.042969 8.992188 L 0.0546875 8.992188 Z M 0.0546875 0.992188 " fill-opacity="1" fill-rule="nonzero"/></g></g></g></g><g fill="#61888d" fill-opacity="1"><g transform="translate(193.091756, 95.513187)"><g/></g></g><g fill="#61888d" fill-opacity="1"><g transform="translate(210.910866, 95.513187)"><g><path d="M 7.65625 -22.078125 L 7.65625 -39.546875 C 7.65625 -40.359375 7.519531 -40.878906 7.25 -41.109375 C 6.988281 -41.347656 6.457031 -41.46875 5.65625 -41.46875 L 2.34375 -41.46875 L 2.34375 -52.15625 L 14.25 -52.15625 C 16.75 -52.15625 18.503906 -51.644531 19.515625 -50.625 C 20.523438 -49.613281 21.03125 -47.863281 21.03125 -45.375 L 21.03125 -22.078125 Z M 7.65625 -22.078125 "/></g></g></g><g fill="#61888d" fill-opacity="1"><g transform="translate(235.943195, 95.513187)"><g><path d="M 39.28125 -52.15625 L 52.328125 -52.15625 L 49.8125 -18.515625 C 49.34375 -11.847656 47.613281 -7.09375 44.625 -4.25 C 41.644531 -1.414062 36.96875 0 30.59375 0 L 13.21875 0 C 10.957031 0 9.316406 -0.578125 8.296875 -1.734375 C 7.285156 -2.898438 6.632812 -4.523438 6.34375 -6.609375 L 4.875 -17.734375 C 4.40625 -20.566406 5.1875 -22.738281 7.21875 -24.25 L 2.953125 -52.15625 L 16.078125 -52.15625 L 19.640625 -28.59375 L 19.734375 -28.59375 C 20.546875 -28.882812 21.050781 -29.203125 21.25 -29.546875 C 21.457031 -29.898438 21.5625 -30.539062 21.5625 -31.46875 L 21.5625 -52.15625 L 34.515625 -52.15625 L 34.515625 -28.859375 C 34.515625 -26.304688 34.109375 -24.460938 33.296875 -23.328125 C 32.484375 -22.203125 31.175781 -21.320312 29.375 -20.6875 L 19.984375 -17.46875 C 19.003906 -17.0625 18.410156 -16.695312 18.203125 -16.375 C 18.003906 -16.0625 17.960938 -15.441406 18.078125 -14.515625 L 18.421875 -12.25 C 18.535156 -11.5 18.8125 -11.019531 19.25 -10.8125 C 19.6875 -10.613281 20.335938 -10.515625 21.203125 -10.515625 L 27.03125 -10.515625 C 29.46875 -10.515625 31.363281 -10.734375 32.71875 -11.171875 C 34.082031 -11.609375 35.066406 -12.460938 35.671875 -13.734375 C 36.285156 -15.003906 36.679688 -16.859375 36.859375 -19.296875 Z M 39.28125 -52.15625 "/></g></g></g><g fill="#61888d" fill-opacity="1"><g transform="translate(291.309873, 95.513187)"><g><path d="M 7.65625 -22.078125 L 7.65625 -39.546875 C 7.65625 -40.359375 7.519531 -40.878906 7.25 -41.109375 C 6.988281 -41.347656 6.457031 -41.46875 5.65625 -41.46875 L 2.34375 -41.46875 L 2.34375 -52.15625 L 14.25 -52.15625 C 16.75 -52.15625 18.503906 -51.644531 19.515625 -50.625 C 20.523438 -49.613281 21.03125 -47.863281 21.03125 -45.375 L 21.03125 -22.078125 Z M 7.65625 -22.078125 "/></g></g></g><g fill="#61888d" fill-opacity="1"><g transform="translate(316.863744, 95.513187)"><g><path d="M 13.90625 0 C 10.539062 0 8.28125 -1.054688 7.125 -3.171875 C 5.96875 -5.285156 6.023438 -8.3125 7.296875 -12.25 L 15.8125 -38.6875 C 16.394531 -40.539062 15.757812 -41.46875 13.90625 -41.46875 L 3.734375 -41.46875 C 2.804688 -41.46875 2.15625 -41.65625 1.78125 -42.03125 C 1.40625 -42.40625 1.21875 -43.082031 1.21875 -44.0625 L 1.21875 -59.109375 L 13.90625 -59.109375 L 13.90625 -52.15625 L 23.203125 -52.15625 C 26.503906 -52.15625 28.804688 -51.066406 30.109375 -48.890625 C 31.421875 -46.722656 31.492188 -43.84375 30.328125 -40.25 L 21.125 -12.953125 C 20.894531 -12.316406 20.847656 -11.78125 20.984375 -11.34375 C 21.128906 -10.90625 21.582031 -10.6875 22.34375 -10.6875 L 26.15625 -10.6875 L 26.15625 0 Z M 13.90625 0 "/></g></g></g><g fill="#61888d" fill-opacity="1"><g transform="translate(350.500965, 95.513187)"><g><path d="M 39.28125 -52.15625 L 52.328125 -52.15625 L 49.8125 -18.515625 C 49.34375 -11.847656 47.613281 -7.09375 44.625 -4.25 C 41.644531 -1.414062 36.96875 0 30.59375 0 L 13.21875 0 C 10.957031 0 9.316406 -0.578125 8.296875 -1.734375 C 7.285156 -2.898438 6.632812 -4.523438 6.34375 -6.609375 L 4.875 -17.734375 C 4.40625 -20.566406 5.1875 -22.738281 7.21875 -24.25 L 2.953125 -52.15625 L 16.078125 -52.15625 L 19.640625 -28.59375 L 19.734375 -28.59375 C 20.546875 -28.882812 21.050781 -29.203125 21.25 -29.546875 C 21.457031 -29.898438 21.5625 -30.539062 21.5625 -31.46875 L 21.5625 -52.15625 L 34.515625 -52.15625 L 34.515625 -28.859375 C 34.515625 -26.304688 34.109375 -24.460938 33.296875 -23.328125 C 32.484375 -22.203125 31.175781 -21.320312 29.375 -20.6875 L 19.984375 -17.46875 C 19.003906 -17.0625 18.410156 -16.695312 18.203125 -16.375 C 18.003906 -16.0625 17.960938 -15.441406 18.078125 -14.515625 L 18.421875 -12.25 C 18.535156 -11.5 18.8125 -11.019531 19.25 -10.8125 C 19.6875 -10.613281 20.335938 -10.515625 21.203125 -10.515625 L 27.03125 -10.515625 C 29.46875 -10.515625 31.363281 -10.734375 32.71875 -11.171875 C 34.082031 -11.609375 35.066406 -12.460938 35.671875 -13.734375 C 36.285156 -15.003906 36.679688 -16.859375 36.859375 -19.296875 Z M 39.28125 -52.15625 "/></g></g></g><g fill="#61888d" fill-opacity="1"><g transform="translate(405.867655, 95.513187)"><g/></g></g><g fill="#61888d" fill-opacity="1"><g transform="translate(423.685804, 95.513187)"><g><path d="M 40.671875 -52.15625 C 43.222656 -52.15625 44.929688 -51.285156 45.796875 -49.546875 C 46.671875 -47.804688 46.820312 -45.660156 46.25 -43.109375 L 37.375 0 L 23.734375 0 L 31.375 -39.375 C 31.550781 -40.363281 31.582031 -41.015625 31.46875 -41.328125 C 31.351562 -41.648438 30.800781 -41.8125 29.8125 -41.8125 L 22.953125 -41.8125 C 22.253906 -41.8125 21.703125 -41.722656 21.296875 -41.546875 C 20.890625 -41.367188 20.6875 -40.703125 20.6875 -39.546875 L 20.6875 2.09375 C 20.6875 2.78125 21.035156 3.125 21.734375 3.125 L 23.8125 3.125 L 23.8125 13.296875 L 12 13.296875 C 8.8125 13.296875 7.21875 11.703125 7.21875 8.515625 L 7.21875 -37.890625 C 7.21875 -39.628906 7.535156 -40.820312 8.171875 -41.46875 L 3.125 -41.46875 L 3.125 -52.15625 Z M 40.671875 -52.15625 "/></g></g></g><g fill="#61888d" fill-opacity="1"><g transform="translate(473.229013, 95.513187)"><g><path d="M 16.609375 0 L 16.609375 -38.328125 C 16.609375 -40.421875 15.5625 -41.46875 13.46875 -41.46875 L 1.21875 -41.46875 L 1.21875 -52.15625 L 21.296875 -52.15625 C 24.535156 -52.15625 26.804688 -51.488281 28.109375 -50.15625 C 29.421875 -48.820312 30.078125 -46.5625 30.078125 -43.375 L 30.078125 0 Z M 16.609375 0 "/></g></g></g><g fill="#61888d" fill-opacity="1"><g transform="translate(508.083091, 95.513187)"><g><path d="M 4 0 L 4 -10.6875 L 24.421875 -10.6875 C 26.503906 -10.6875 27.546875 -11.703125 27.546875 -13.734375 L 27.546875 -39.03125 C 27.546875 -40.125 27.445312 -40.859375 27.25 -41.234375 C 27.050781 -41.617188 26.34375 -41.8125 25.125 -41.8125 L 21.03125 -41.8125 C 19.875 -41.8125 19.109375 -41.617188 18.734375 -41.234375 C 18.359375 -40.859375 18.113281 -40.125 18 -39.03125 L 17.03125 -31.375 C 16.976562 -30.5625 17.066406 -29.992188 17.296875 -29.671875 C 17.523438 -29.359375 18.046875 -29.203125 18.859375 -29.203125 L 22.078125 -29.203125 L 22.078125 -18.78125 L 9.828125 -18.78125 C 7.210938 -18.78125 5.367188 -19.375 4.296875 -20.5625 C 3.222656 -21.75 2.832031 -23.613281 3.125 -26.15625 L 5.296875 -44.671875 C 5.585938 -47.285156 6.382812 -49.1875 7.6875 -50.375 C 8.988281 -51.5625 10.914062 -52.15625 13.46875 -52.15625 L 32.328125 -52.15625 C 35.515625 -52.15625 37.757812 -51.5 39.0625 -50.1875 C 40.375 -48.882812 41.03125 -46.613281 41.03125 -43.375 L 41.03125 -8.6875 C 41.03125 -5.5 40.375 -3.253906 39.0625 -1.953125 C 37.757812 -0.648438 35.515625 0 32.328125 0 Z M 4 0 "/></g></g></g><g fill="#61888d" fill-opacity="1"><g transform="translate(43.514263, 216.898554)"><g><path d="M 7.734375 13.296875 L 7.734375 -39.546875 C 7.734375 -40.359375 7.601562 -40.878906 7.34375 -41.109375 C 7.082031 -41.347656 6.546875 -41.46875 5.734375 -41.46875 L 2.609375 -41.46875 L 2.609375 -52.15625 L 15.390625 -52.15625 C 17.523438 -52.15625 19.023438 -51.71875 19.890625 -50.84375 C 20.765625 -49.976562 21.203125 -48.503906 21.203125 -46.421875 L 21.203125 13.296875 Z M 7.734375 13.296875 "/></g></g></g><g fill="#61888d" fill-opacity="1"><g transform="translate(69.502701, 216.898554)"><g><path d="M 32.765625 0 L 20.59375 0 L 15.46875 -18.25 C 14.945312 -18.019531 14.597656 -17.757812 14.421875 -17.46875 C 14.253906 -17.175781 14.140625 -16.800781 14.078125 -16.34375 L 12.859375 0 L 0.09375 0 L 2.515625 -19.90625 C 2.753906 -21.757812 3.25 -23.175781 4 -24.15625 C 4.75 -25.144531 5.90625 -25.957031 7.46875 -26.59375 L 12.953125 -28.859375 C 13.878906 -29.265625 14.570312 -29.800781 15.03125 -30.46875 C 15.5 -31.132812 15.734375 -32.101562 15.734375 -33.375 L 15.734375 -39.109375 C 15.734375 -40.097656 15.585938 -40.738281 15.296875 -41.03125 C 15.003906 -41.320312 14.367188 -41.46875 13.390625 -41.46875 L 7.125 -41.46875 L 7.125 -52.15625 L 21.03125 -52.15625 C 23.582031 -52.15625 25.453125 -51.5 26.640625 -50.1875 C 27.828125 -48.882812 28.421875 -46.785156 28.421875 -43.890625 L 28.421875 -27.546875 C 28.421875 -26.222656 28.242188 -25.15625 27.890625 -24.34375 C 27.546875 -23.53125 27.054688 -22.890625 26.421875 -22.421875 Z M 32.765625 0 "/></g></g></g><g fill="#61888d" fill-opacity="1"><g transform="translate(102.357565, 216.898554)"><g><path d="M 7.734375 0 L 7.734375 -39.546875 C 7.734375 -40.359375 7.601562 -40.878906 7.34375 -41.109375 C 7.082031 -41.347656 6.546875 -41.46875 5.734375 -41.46875 L 2.609375 -41.46875 L 2.609375 -52.15625 L 15.390625 -52.15625 C 17.523438 -52.15625 19.023438 -51.71875 19.890625 -50.84375 C 20.765625 -49.976562 21.203125 -48.503906 21.203125 -46.421875 L 21.203125 0 Z M 7.734375 0 "/></g></g></g><g fill="#61888d" fill-opacity="1"><g transform="translate(128.346004, 216.898554)"><g><path d="M 41.8125 -7.390625 C 41.925781 -4.835938 41.390625 -2.96875 40.203125 -1.78125 C 39.015625 -0.59375 37.054688 0 34.328125 0 L 21.5625 0 L 21.5625 -10.6875 L 25.90625 -10.6875 C 26.832031 -10.6875 27.410156 -10.875 27.640625 -11.25 C 27.867188 -11.632812 27.957031 -12.257812 27.90625 -13.125 L 26.59375 -37.203125 C 26.539062 -38.878906 26.320312 -40.066406 25.9375 -40.765625 C 25.5625 -41.460938 24.882812 -41.8125 23.90625 -41.8125 L 23.5625 -41.8125 C 22.800781 -41.8125 22.257812 -41.59375 21.9375 -41.15625 C 21.625 -40.71875 21.378906 -39.832031 21.203125 -38.5 L 16.078125 0 L 2.34375 0 L 7.21875 -33.46875 C 7.738281 -37.113281 8.75 -39.78125 10.25 -41.46875 L 3.828125 -41.46875 L 3.828125 -52.15625 L 28.59375 -52.15625 C 31.894531 -52.15625 34.5625 -51.253906 36.59375 -49.453125 C 38.625 -47.660156 39.753906 -44.269531 39.984375 -39.28125 Z M 41.8125 -7.390625 "/></g></g></g><g fill="#61888d" fill-opacity="1"><g transform="translate(173.282545, 216.898554)"><g><path d="M 27.296875 0 L 27.296875 -38.859375 C 27.296875 -39.898438 27.101562 -40.59375 26.71875 -40.9375 C 26.34375 -41.289062 25.632812 -41.46875 24.59375 -41.46875 L 4.515625 -41.46875 L 4.515625 -52.15625 L 32.859375 -52.15625 C 35.753906 -52.15625 37.796875 -51.472656 38.984375 -50.109375 C 40.171875 -48.742188 40.765625 -46.410156 40.765625 -43.109375 L 40.765625 0 Z M 8.953125 0 C 5.992188 0 4.515625 -1.503906 4.515625 -4.515625 L 4.515625 -32.515625 L 18 -32.515625 L 18 -12.34375 C 18 -11.238281 18.429688 -10.6875 19.296875 -10.6875 L 20.421875 -10.6875 L 20.421875 0 Z M 8.953125 0 "/></g></g></g><g fill="#61888d" fill-opacity="1"><g transform="translate(218.827508, 216.898554)"><g/></g></g><g fill="#61888d" fill-opacity="1"><g transform="translate(236.645657, 216.898554)"><g><path d="M 33.296875 -10.6875 L 35.90625 -10.6875 L 35.90625 0 L 1.5625 0 L 1.5625 -10.6875 L 18.515625 -10.6875 C 18.335938 -11.039062 18.191406 -11.460938 18.078125 -11.953125 C 17.960938 -12.441406 17.90625 -12.976562 17.90625 -13.5625 L 17.90625 -38.859375 C 17.90625 -39.898438 17.726562 -40.59375 17.375 -40.9375 C 17.03125 -41.289062 16.335938 -41.46875 15.296875 -41.46875 L 2.515625 -41.46875 L 2.515625 -52.15625 L 23.03125 -52.15625 C 26.101562 -52.15625 28.257812 -51.472656 29.5 -50.109375 C 30.75 -48.742188 31.375 -46.410156 31.375 -43.109375 L 31.375 -12.859375 C 31.375 -11.410156 32.015625 -10.6875 33.296875 -10.6875 Z M 33.296875 -10.6875 "/></g></g></g><g fill="#61888d" fill-opacity="1"><g transform="translate(272.54268, 216.898554)"><g><path d="M 48.59375 -52.15625 L 48.59375 -41.46875 L 43.640625 -41.46875 C 44.273438 -40.363281 44.59375 -38.273438 44.59375 -35.203125 L 44.59375 0 L 31.125 0 L 31.125 -37.546875 C 31.125 -39.234375 30.988281 -40.304688 30.71875 -40.765625 C 30.457031 -41.234375 29.925781 -41.46875 29.125 -41.46875 L 22.515625 -41.46875 C 21.753906 -41.46875 21.242188 -41.234375 20.984375 -40.765625 C 20.722656 -40.304688 20.59375 -39.234375 20.59375 -37.546875 L 20.59375 0 L 7.125 0 L 7.125 -35.203125 C 7.125 -38.273438 7.441406 -40.363281 8.078125 -41.46875 L 3.125 -41.46875 L 3.125 -52.15625 Z M 48.59375 -52.15625 "/></g></g></g><g fill="#61888d" fill-opacity="1"><g transform="translate(324.780351, 216.898554)"><g><path d="M 16.609375 0 L 16.609375 -38.328125 C 16.609375 -40.421875 15.5625 -41.46875 13.46875 -41.46875 L 1.21875 -41.46875 L 1.21875 -52.15625 L 21.296875 -52.15625 C 24.535156 -52.15625 26.804688 -51.488281 28.109375 -50.15625 C 29.421875 -48.820312 30.078125 -46.5625 30.078125 -43.375 L 30.078125 0 Z M 16.609375 0 "/></g></g></g><g fill="#61888d" fill-opacity="1"><g transform="translate(359.634429, 216.898554)"><g><path d="M 41.8125 -7.390625 C 41.925781 -4.835938 41.390625 -2.96875 40.203125 -1.78125 C 39.015625 -0.59375 37.054688 0 34.328125 0 L 21.5625 0 L 21.5625 -10.6875 L 25.90625 -10.6875 C 26.832031 -10.6875 27.410156 -10.875 27.640625 -11.25 C 27.867188 -11.632812 27.957031 -12.257812 27.90625 -13.125 L 26.59375 -37.203125 C 26.539062 -38.878906 26.320312 -40.066406 25.9375 -40.765625 C 25.5625 -41.460938 24.882812 -41.8125 23.90625 -41.8125 L 23.5625 -41.8125 C 22.800781 -41.8125 22.257812 -41.59375 21.9375 -41.15625 C 21.625 -40.71875 21.378906 -39.832031 21.203125 -38.5 L 16.078125 0 L 2.34375 0 L 7.21875 -33.46875 C 7.738281 -37.113281 8.75 -39.78125 10.25 -41.46875 L 3.828125 -41.46875 L 3.828125 -52.15625 L 28.59375 -52.15625 C 31.894531 -52.15625 34.5625 -51.253906 36.59375 -49.453125 C 38.625 -47.660156 39.753906 -44.269531 39.984375 -39.28125 Z M 41.8125 -7.390625 "/></g></g></g><g fill="#61888d" fill-opacity="1"><g transform="translate(404.570981, 216.898554)"><g><path d="M 27.296875 0 L 27.296875 -38.859375 C 27.296875 -39.898438 27.101562 -40.59375 26.71875 -40.9375 C 26.34375 -41.289062 25.632812 -41.46875 24.59375 -41.46875 L 4.515625 -41.46875 L 4.515625 -52.15625 L 32.859375 -52.15625 C 35.753906 -52.15625 37.796875 -51.472656 38.984375 -50.109375 C 40.171875 -48.742188 40.765625 -46.410156 40.765625 -43.109375 L 40.765625 0 Z M 8.953125 0 C 5.992188 0 4.515625 -1.503906 4.515625 -4.515625 L 4.515625 -32.515625 L 18 -32.515625 L 18 -12.34375 C 18 -11.238281 18.429688 -10.6875 19.296875 -10.6875 L 20.421875 -10.6875 L 20.421875 0 Z M 8.953125 0 "/></g></g></g><g fill="#61888d" fill-opacity="1"><g transform="translate(450.115967, 216.898554)"><g/></g></g><g fill="#61888d" fill-opacity="1"><g transform="translate(467.934116, 216.898554)"><g><path d="M 34.25 -52.15625 C 37.488281 -52.15625 39.789062 -51.472656 41.15625 -50.109375 C 42.519531 -48.742188 43.203125 -46.410156 43.203125 -43.109375 L 43.203125 0 L 29.734375 0 L 29.734375 -38.5 C 29.734375 -39.664062 29.53125 -40.507812 29.125 -41.03125 C 28.71875 -41.550781 27.960938 -41.8125 26.859375 -41.8125 L 24.515625 -41.8125 C 22.546875 -41.8125 21.179688 -41.203125 20.421875 -39.984375 C 19.671875 -38.765625 19.644531 -36.210938 20.34375 -32.328125 L 23.46875 -14.078125 C 24.332031 -9.328125 24.066406 -5.789062 22.671875 -3.46875 C 21.285156 -1.15625 18.476562 0 14.25 0 L 2.6875 0 L 2.6875 -10.6875 L 7.828125 -10.6875 C 8.640625 -10.6875 9.257812 -10.914062 9.6875 -11.375 C 10.125 -11.84375 10.253906 -12.71875 10.078125 -14 L 7.21875 -30.59375 C 6.632812 -33.84375 6.546875 -36.289062 6.953125 -37.9375 C 7.359375 -39.59375 7.878906 -40.769531 8.515625 -41.46875 L 2.875 -41.46875 L 2.875 -52.15625 Z M 34.25 -52.15625 "/></g></g></g><g fill="#61888d" fill-opacity="1"><g transform="translate(515.999686, 216.898554)"><g><path d="M 7.734375 0 L 7.734375 -39.546875 C 7.734375 -40.359375 7.601562 -40.878906 7.34375 -41.109375 C 7.082031 -41.347656 6.546875 -41.46875 5.734375 -41.46875 L 2.609375 -41.46875 L 2.609375 -52.15625 L 15.390625 -52.15625 C 17.523438 -52.15625 19.023438 -51.71875 19.890625 -50.84375 C 20.765625 -49.976562 21.203125 -48.503906 21.203125 -46.421875 L 21.203125 0 Z M 7.734375 0 "/></g></g></g><g fill="#61888d" fill-opacity="1"><g transform="translate(541.640405, 216.898554)"><g><path d="M 16.609375 0 L 16.609375 -38.328125 C 16.609375 -40.421875 15.5625 -41.46875 13.46875 -41.46875 L 1.21875 -41.46875 L 1.21875 -52.15625 L 21.296875 -52.15625 C 24.535156 -52.15625 26.804688 -51.488281 28.109375 -50.15625 C 29.421875 -48.820312 30.078125 -46.5625 30.078125 -43.375 L 30.078125 0 Z M 16.609375 0 "/></g></g></g><g fill="#61888d" fill-opacity="1"><g transform="translate(576.494483, 216.898554)"><g><path d="M 32.765625 0 L 20.59375 0 L 15.46875 -18.25 C 14.945312 -18.019531 14.597656 -17.757812 14.421875 -17.46875 C 14.253906 -17.175781 14.140625 -16.800781 14.078125 -16.34375 L 12.859375 0 L 0.09375 0 L 2.515625 -19.90625 C 2.753906 -21.757812 3.25 -23.175781 4 -24.15625 C 4.75 -25.144531 5.90625 -25.957031 7.46875 -26.59375 L 12.953125 -28.859375 C 13.878906 -29.265625 14.570312 -29.800781 15.03125 -30.46875 C 15.5 -31.132812 15.734375 -32.101562 15.734375 -33.375 L 15.734375 -39.109375 C 15.734375 -40.097656 15.585938 -40.738281 15.296875 -41.03125 C 15.003906 -41.320312 14.367188 -41.46875 13.390625 -41.46875 L 7.125 -41.46875 L 7.125 -52.15625 L 21.03125 -52.15625 C 23.582031 -52.15625 25.453125 -51.5 26.640625 -50.1875 C 27.828125 -48.882812 28.421875 -46.785156 28.421875 -43.890625 L 28.421875 -27.546875 C 28.421875 -26.222656 28.242188 -25.15625 27.890625 -24.34375 C 27.546875 -23.53125 27.054688 -22.890625 26.421875 -22.421875 Z M 32.765625 0 "/></g></g></g><g fill="#61888d" fill-opacity="1"><g transform="translate(609.001671, 216.898554)"><g><path d="M 34.6875 -52.15625 C 37.75 -52.15625 40.148438 -51.734375 41.890625 -50.890625 C 43.628906 -50.046875 44.832031 -48.550781 45.5 -46.40625 C 46.164062 -44.269531 46.351562 -41.234375 46.0625 -37.296875 L 44.5 -13.90625 C 44.382812 -11.9375 44.082031 -10.140625 43.59375 -8.515625 C 43.101562 -6.890625 42.234375 -5.507812 40.984375 -4.375 C 39.734375 -3.25 37.894531 -2.488281 35.46875 -2.09375 L 19.734375 0.515625 C 16.140625 1.160156 13.644531 0.921875 12.25 -0.203125 C 10.863281 -1.335938 10.054688 -3.269531 9.828125 -6 L 7.5625 -35.546875 C 7.445312 -36.878906 7.546875 -38.050781 7.859375 -39.0625 C 8.179688 -40.082031 8.632812 -40.941406 9.21875 -41.640625 C 7.59375 -41.867188 6.007812 -42.398438 4.46875 -43.234375 C 2.9375 -44.078125 1.679688 -45.34375 0.703125 -47.03125 L 7.734375 -55.109375 C 8.546875 -53.835938 9.367188 -53.023438 10.203125 -52.671875 C 11.046875 -52.328125 12.132812 -52.15625 13.46875 -52.15625 Z M 33.125 -33.640625 C 33.238281 -35.953125 33.25 -37.703125 33.15625 -38.890625 C 33.070312 -40.078125 32.722656 -40.875 32.109375 -41.28125 C 31.503906 -41.6875 30.445312 -41.863281 28.9375 -41.8125 L 22.171875 -41.640625 C 20.773438 -41.285156 20.164062 -40.125 20.34375 -38.15625 L 22.34375 -13.46875 C 22.457031 -12.375 22.757812 -11.648438 23.25 -11.296875 C 23.738281 -10.953125 24.445312 -10.835938 25.375 -10.953125 L 29.203125 -11.734375 C 30.242188 -11.910156 30.984375 -12.34375 31.421875 -13.03125 C 31.859375 -13.726562 32.101562 -14.832031 32.15625 -16.34375 Z M 33.125 -33.640625 "/></g></g></g><g fill="#61888d" fill-opacity="1"><g transform="translate(658.197171, 216.898554)"><g><path d="M 41.8125 -7.390625 C 41.925781 -4.835938 41.390625 -2.96875 40.203125 -1.78125 C 39.015625 -0.59375 37.054688 0 34.328125 0 L 21.5625 0 L 21.5625 -10.6875 L 25.90625 -10.6875 C 26.832031 -10.6875 27.410156 -10.875 27.640625 -11.25 C 27.867188 -11.632812 27.957031 -12.257812 27.90625 -13.125 L 26.59375 -37.203125 C 26.539062 -38.878906 26.320312 -40.066406 25.9375 -40.765625 C 25.5625 -41.460938 24.882812 -41.8125 23.90625 -41.8125 L 23.5625 -41.8125 C 22.800781 -41.8125 22.257812 -41.59375 21.9375 -41.15625 C 21.625 -40.71875 21.378906 -39.832031 21.203125 -38.5 L 16.078125 0 L 2.34375 0 L 7.21875 -33.46875 C 7.738281 -37.113281 8.75 -39.78125 10.25 -41.46875 L 3.828125 -41.46875 L 3.828125 -52.15625 L 28.59375 -52.15625 C 31.894531 -52.15625 34.5625 -51.253906 36.59375 -49.453125 C 38.625 -47.660156 39.753906 -44.269531 39.984375 -39.28125 Z M 41.8125 -7.390625 "/></g></g></g></svg>