<svg xmlns="http://www.w3.org/2000/svg" xmlns:xlink="http://www.w3.org/1999/xlink" width="1285" zoomAndPan="magnify" viewBox="0 0 963.75 347.249998" height="463" preserveAspectRatio="xMidYMid meet" version="1.0"><defs><g/><clipPath id="6f061feda7"><path d="M 168.664062 0 L 459.785156 0 L 459.785156 346.5 L 168.664062 346.5 Z M 168.664062 0 " clip-rule="nonzero"/></clipPath><clipPath id="8c40d0341e"><path d="M 0.914062 331 L 213 331 L 213 335 L 0.914062 335 Z M 0.914062 331 " clip-rule="nonzero"/></clipPath></defs><g fill="#61888d" fill-opacity="0.4"><g transform="translate(516.211307, 146.773897)"><g><path d="M 6.65625 -19.234375 L 6.65625 -34.453125 C 6.65625 -35.160156 6.539062 -35.613281 6.3125 -35.8125 C 6.09375 -36.019531 5.628906 -36.125 4.921875 -36.125 L 2.046875 -36.125 L 2.046875 -45.4375 L 12.421875 -45.4375 C 14.585938 -45.4375 16.113281 -44.992188 17 -44.109375 C 17.882812 -43.222656 18.328125 -41.695312 18.328125 -39.53125 L 18.328125 -19.234375 Z M 6.65625 -19.234375 "/></g></g></g><g fill="#61888d" fill-opacity="0.4"><g transform="translate(538.471665, 146.773897)"><g><path d="M 12.109375 0 C 9.179688 0 7.210938 -0.921875 6.203125 -2.765625 C 5.191406 -4.609375 5.242188 -7.242188 6.359375 -10.671875 L 13.78125 -33.6875 C 14.28125 -35.3125 13.722656 -36.125 12.109375 -36.125 L 3.25 -36.125 C 2.445312 -36.125 1.878906 -36.285156 1.546875 -36.609375 C 1.222656 -36.941406 1.0625 -37.535156 1.0625 -38.390625 L 1.0625 -51.484375 L 12.109375 -51.484375 L 12.109375 -45.4375 L 20.21875 -45.4375 C 23.09375 -45.4375 25.097656 -44.488281 26.234375 -42.59375 C 27.367188 -40.695312 27.429688 -38.1875 26.421875 -35.0625 L 18.40625 -11.28125 C 18.195312 -10.726562 18.15625 -10.257812 18.28125 -9.875 C 18.40625 -9.5 18.796875 -9.3125 19.453125 -9.3125 L 22.796875 -9.3125 L 22.796875 0 Z M 12.109375 0 "/></g></g></g><g fill="#61888d" fill-opacity="0.4"><g transform="translate(567.697827, 146.773897)"><g><path d="M 1.359375 0 L 1.359375 -9.3125 L 13.03125 -9.3125 C 13.9375 -9.3125 14.550781 -9.460938 14.875 -9.765625 C 15.207031 -10.066406 15.375 -10.648438 15.375 -11.515625 L 15.375 -33.84375 C 15.375 -34.75 15.207031 -35.351562 14.875 -35.65625 C 14.550781 -35.96875 13.9375 -36.125 13.03125 -36.125 L 2.203125 -36.125 L 2.203125 -45.4375 L 19.90625 -45.4375 C 22.53125 -45.4375 24.382812 -44.890625 25.46875 -43.796875 C 26.5625 -42.710938 27.109375 -40.859375 27.109375 -38.234375 L 27.109375 -7.125 C 27.109375 -4.539062 26.5625 -2.707031 25.46875 -1.625 C 24.382812 -0.539062 22.53125 0 19.90625 0 Z M 1.359375 0 "/></g></g></g><g fill="#61888d" fill-opacity="0.4"><g transform="translate(598.58973, 146.773897)"><g><path d="M 6.65625 -19.234375 L 6.65625 -34.453125 C 6.65625 -35.160156 6.539062 -35.613281 6.3125 -35.8125 C 6.09375 -36.019531 5.628906 -36.125 4.921875 -36.125 L 2.046875 -36.125 L 2.046875 -45.4375 L 12.421875 -45.4375 C 14.585938 -45.4375 16.113281 -44.992188 17 -44.109375 C 17.882812 -43.222656 18.328125 -41.695312 18.328125 -39.53125 L 18.328125 -19.234375 Z M 6.65625 -19.234375 "/></g></g></g><g fill="#61888d" fill-opacity="0.4"><g transform="translate(620.850088, 146.773897)"><g><path d="M 14.46875 0 L 14.46875 -33.390625 C 14.46875 -35.210938 13.554688 -36.125 11.734375 -36.125 L 1.0625 -36.125 L 1.0625 -45.4375 L 18.546875 -45.4375 C 21.378906 -45.4375 23.363281 -44.851562 24.5 -43.6875 C 25.632812 -42.53125 26.203125 -40.5625 26.203125 -37.78125 L 26.203125 0 Z M 14.46875 0 "/></g></g></g><g fill="#61888d" fill-opacity="0.4"><g transform="translate(651.211982, 146.773897)"><g><path d="M 1.0625 -45.4375 L 28.921875 -45.4375 L 28.921875 -36.125 L 27.40625 -36.125 C 25.84375 -36.125 25.0625 -35.085938 25.0625 -33.015625 L 25.0625 0 L 14.015625 0 L 14.015625 -31.265625 C 14.015625 -33.390625 14.34375 -35.007812 15 -36.125 L 1.0625 -36.125 Z M 1.0625 -45.4375 "/></g></g></g><g fill="#61888d" fill-opacity="0.4"><g transform="translate(682.179595, 146.773897)"><g><path d="M 15.140625 -23.78125 C 14.484375 -23.519531 14.101562 -23.160156 14 -22.703125 C 13.90625 -22.253906 13.984375 -21.523438 14.234375 -20.515625 L 17.640625 -9.546875 C 18.492188 -6.816406 18.671875 -4.539062 18.171875 -2.71875 C 17.671875 -0.90625 16.128906 0 13.546875 0 L 2.578125 0 L 2.578125 -9.3125 L 5 -9.3125 C 5.65625 -9.3125 5.929688 -9.585938 5.828125 -10.140625 L 3.859375 -19.609375 C 3.359375 -21.984375 3.320312 -23.925781 3.75 -25.4375 C 4.175781 -26.957031 4.90625 -28.21875 5.9375 -29.21875 C 6.976562 -30.226562 8.101562 -31.0625 9.3125 -31.71875 L 10.453125 -32.328125 L 2.65625 -45.4375 L 14.609375 -45.4375 L 25.21875 -26.34375 C 25.613281 -26.601562 25.890625 -26.921875 26.046875 -27.296875 C 26.203125 -27.671875 26.28125 -28.289062 26.28125 -29.15625 L 26.28125 -45.4375 L 37.484375 -45.4375 L 37.484375 -28.25 C 37.484375 -25.925781 37.015625 -23.96875 36.078125 -22.375 C 35.140625 -20.78125 33.515625 -19.28125 31.203125 -17.875 L 30.140625 -17.1875 L 39 0 L 27.1875 0 L 15.21875 -23.78125 Z M 15.140625 -23.78125 "/></g></g></g><g fill="#61888d" fill-opacity="0.4"><g transform="translate(722.763075, 146.773897)"><g/></g></g><g fill="#61888d" fill-opacity="0.4"><g transform="translate(738.284726, 146.773897)"><g><path d="M 6.734375 11.578125 L 6.734375 -34.453125 C 6.734375 -35.160156 6.617188 -35.613281 6.390625 -35.8125 C 6.171875 -36.019531 5.707031 -36.125 5 -36.125 L 2.265625 -36.125 L 2.265625 -45.4375 L 13.40625 -45.4375 C 15.269531 -45.4375 16.578125 -45.054688 17.328125 -44.296875 C 18.085938 -43.535156 18.46875 -42.25 18.46875 -40.4375 L 18.46875 11.578125 Z M 6.734375 11.578125 "/></g></g></g><g fill="#61888d" fill-opacity="0.4"><g transform="translate(760.923649, 146.773897)"><g><path d="M 6.734375 0 L 6.734375 -34.453125 C 6.734375 -35.160156 6.617188 -35.613281 6.390625 -35.8125 C 6.171875 -36.019531 5.707031 -36.125 5 -36.125 L 2.265625 -36.125 L 2.265625 -45.4375 L 13.40625 -45.4375 C 15.269531 -45.4375 16.578125 -45.054688 17.328125 -44.296875 C 18.085938 -43.535156 18.46875 -42.25 18.46875 -40.4375 L 18.46875 0 Z M 6.734375 0 "/></g></g></g><g fill="#61888d" fill-opacity="0.4"><g transform="translate(783.562572, 146.773897)"><g><path d="M 0.234375 0 L 0.234375 -9.3125 L 6.515625 -9.3125 C 7.578125 -9.3125 8.28125 -9.488281 8.625 -9.84375 C 8.976562 -10.195312 9.15625 -10.929688 9.15625 -12.046875 L 9.15625 -33.84375 C 9.15625 -34.75 9.003906 -35.351562 8.703125 -35.65625 C 8.398438 -35.96875 7.820312 -36.125 6.96875 -36.125 L 4.3125 -36.125 L 4.3125 -45.4375 L 13.9375 -45.4375 C 16.457031 -45.4375 18.242188 -44.867188 19.296875 -43.734375 C 20.359375 -42.597656 20.890625 -40.691406 20.890625 -38.015625 L 20.890625 -7.578125 C 20.890625 -4.796875 20.347656 -2.835938 19.265625 -1.703125 C 18.179688 -0.566406 16.351562 0 13.78125 0 Z M 0.234375 0 "/></g></g></g><g fill="#61888d" fill-opacity="0.4"><g transform="translate(807.715757, 146.773897)"><g><path d="M 1.359375 0 L 1.359375 -9.3125 L 13.03125 -9.3125 C 13.9375 -9.3125 14.550781 -9.460938 14.875 -9.765625 C 15.207031 -10.066406 15.375 -10.648438 15.375 -11.515625 L 15.375 -33.84375 C 15.375 -34.75 15.207031 -35.351562 14.875 -35.65625 C 14.550781 -35.96875 13.9375 -36.125 13.03125 -36.125 L 2.203125 -36.125 L 2.203125 -45.4375 L 19.90625 -45.4375 C 22.53125 -45.4375 24.382812 -44.890625 25.46875 -43.796875 C 26.5625 -42.710938 27.109375 -40.859375 27.109375 -38.234375 L 27.109375 -7.125 C 27.109375 -4.539062 26.5625 -2.707031 25.46875 -1.625 C 24.382812 -0.539062 22.53125 0 19.90625 0 Z M 1.359375 0 "/></g></g></g><g fill="#61888d" fill-opacity="0.4"><g transform="translate(838.607637, 146.773897)"><g><path d="M 29.828125 -45.4375 C 32.660156 -45.4375 34.664062 -44.84375 35.84375 -43.65625 C 37.03125 -42.46875 37.625 -40.4375 37.625 -37.5625 L 37.625 0 L 25.890625 0 L 25.890625 -33.546875 C 25.890625 -34.554688 25.710938 -35.285156 25.359375 -35.734375 C 25.003906 -36.191406 24.347656 -36.421875 23.390625 -36.421875 L 21.359375 -36.421875 C 19.640625 -36.421875 18.453125 -35.890625 17.796875 -34.828125 C 17.140625 -33.765625 17.113281 -31.546875 17.71875 -28.171875 L 20.4375 -12.265625 C 21.195312 -8.128906 20.972656 -5.050781 19.765625 -3.03125 C 18.554688 -1.007812 16.109375 0 12.421875 0 L 2.34375 0 L 2.34375 -9.3125 L 6.8125 -9.3125 C 7.519531 -9.3125 8.0625 -9.515625 8.4375 -9.921875 C 8.820312 -10.328125 8.9375 -11.082031 8.78125 -12.1875 L 6.28125 -26.65625 C 5.78125 -29.476562 5.707031 -31.609375 6.0625 -33.046875 C 6.414062 -34.484375 6.867188 -35.507812 7.421875 -36.125 L 2.5 -36.125 L 2.5 -45.4375 Z M 29.828125 -45.4375 "/></g></g></g><g fill="#61888d" fill-opacity="0.4"><g transform="translate(483.200575, 252.295982)"><g><path d="M 31.5 -45.4375 C 33.71875 -45.4375 35.304688 -44.953125 36.265625 -43.984375 C 37.222656 -43.023438 37.703125 -41.410156 37.703125 -39.140625 L 37.703125 -2.796875 C 37.703125 -1.785156 37.488281 -1.066406 37.0625 -0.640625 C 36.632812 -0.210938 35.914062 0 34.90625 0 L 8.625 0 C 7.625 0 6.90625 -0.210938 6.46875 -0.640625 C 6.039062 -1.066406 5.828125 -1.785156 5.828125 -2.796875 L 5.828125 -31.265625 C 5.828125 -33.535156 6.207031 -35.15625 6.96875 -36.125 L 2.71875 -36.125 L 2.71875 -45.4375 Z M 26.28125 -9.921875 L 26.28125 -33.84375 C 26.28125 -34.851562 26.125 -35.535156 25.8125 -35.890625 C 25.507812 -36.242188 24.90625 -36.421875 24 -36.421875 L 19.453125 -36.421875 C 18.546875 -36.421875 17.953125 -36.191406 17.671875 -35.734375 C 17.398438 -35.285156 17.265625 -34.53125 17.265625 -33.46875 L 17.265625 -9.921875 C 17.265625 -9.566406 17.328125 -9.328125 17.453125 -9.203125 C 17.578125 -9.078125 17.816406 -9.015625 18.171875 -9.015625 L 25.359375 -9.015625 C 25.765625 -9.015625 26.019531 -9.078125 26.125 -9.203125 C 26.226562 -9.328125 26.28125 -9.566406 26.28125 -9.921875 Z M 26.28125 -9.921875 "/></g></g></g><g fill="#61888d" fill-opacity="0.4"><g transform="translate(524.768329, 252.295982)"><g><path d="M 6.65625 -19.234375 L 6.65625 -34.453125 C 6.65625 -35.160156 6.539062 -35.613281 6.3125 -35.8125 C 6.09375 -36.019531 5.628906 -36.125 4.921875 -36.125 L 2.046875 -36.125 L 2.046875 -45.4375 L 12.421875 -45.4375 C 14.585938 -45.4375 16.113281 -44.992188 17 -44.109375 C 17.882812 -43.222656 18.328125 -41.695312 18.328125 -39.53125 L 18.328125 -19.234375 Z M 6.65625 -19.234375 "/></g></g></g><g fill="#61888d" fill-opacity="0.4"><g transform="translate(544.98421, 252.295982)"><g><path d="M 0.234375 0 L 0.234375 -9.3125 L 6.515625 -9.3125 C 7.578125 -9.3125 8.28125 -9.488281 8.625 -9.84375 C 8.976562 -10.195312 9.15625 -10.929688 9.15625 -12.046875 L 9.15625 -33.84375 C 9.15625 -34.75 9.003906 -35.351562 8.703125 -35.65625 C 8.398438 -35.96875 7.820312 -36.125 6.96875 -36.125 L 4.3125 -36.125 L 4.3125 -45.4375 L 13.9375 -45.4375 C 16.457031 -45.4375 18.242188 -44.867188 19.296875 -43.734375 C 20.359375 -42.597656 20.890625 -40.691406 20.890625 -38.015625 L 20.890625 -7.578125 C 20.890625 -4.796875 20.347656 -2.835938 19.265625 -1.703125 C 18.179688 -0.566406 16.351562 0 13.78125 0 Z M 0.234375 0 "/></g></g></g><g fill="#61888d" fill-opacity="0.4"><g transform="translate(569.440273, 252.295982)"><g><path d="M 28.546875 0 L 17.953125 0 L 13.484375 -15.90625 C 13.023438 -15.695312 12.71875 -15.46875 12.5625 -15.21875 C 12.414062 -14.96875 12.316406 -14.640625 12.265625 -14.234375 L 11.203125 0 L 0.078125 0 L 2.203125 -17.34375 C 2.398438 -18.957031 2.828125 -20.191406 3.484375 -21.046875 C 4.140625 -21.910156 5.148438 -22.617188 6.515625 -23.171875 L 11.28125 -25.140625 C 12.09375 -25.492188 12.695312 -25.957031 13.09375 -26.53125 C 13.5 -27.113281 13.703125 -27.960938 13.703125 -29.078125 L 13.703125 -34.078125 C 13.703125 -34.929688 13.578125 -35.484375 13.328125 -35.734375 C 13.078125 -35.992188 12.519531 -36.125 11.65625 -36.125 L 6.203125 -36.125 L 6.203125 -45.4375 L 18.328125 -45.4375 C 20.546875 -45.4375 22.171875 -44.867188 23.203125 -43.734375 C 24.242188 -42.597656 24.765625 -40.765625 24.765625 -38.234375 L 24.765625 -24 C 24.765625 -22.84375 24.609375 -21.910156 24.296875 -21.203125 C 23.992188 -20.492188 23.566406 -19.9375 23.015625 -19.53125 Z M 28.546875 0 "/></g></g></g><g fill="#61888d" fill-opacity="0.4"><g transform="translate(598.060635, 252.295982)"><g><path d="M 6.734375 0 L 6.734375 -34.453125 C 6.734375 -35.160156 6.617188 -35.613281 6.390625 -35.8125 C 6.171875 -36.019531 5.707031 -36.125 5 -36.125 L 2.265625 -36.125 L 2.265625 -45.4375 L 13.40625 -45.4375 C 15.269531 -45.4375 16.578125 -45.054688 17.328125 -44.296875 C 18.085938 -43.535156 18.46875 -42.25 18.46875 -40.4375 L 18.46875 0 Z M 6.734375 0 "/></g></g></g><g fill="#61888d" fill-opacity="0.4"><g transform="translate(620.699547, 252.295982)"><g><path d="M 36.421875 -6.4375 C 36.523438 -4.21875 36.054688 -2.585938 35.015625 -1.546875 C 33.984375 -0.515625 32.28125 0 29.90625 0 L 18.78125 0 L 18.78125 -9.3125 L 22.5625 -9.3125 C 23.375 -9.3125 23.878906 -9.472656 24.078125 -9.796875 C 24.273438 -10.128906 24.351562 -10.675781 24.3125 -11.4375 L 23.171875 -32.40625 C 23.117188 -33.875 22.925781 -34.910156 22.59375 -35.515625 C 22.269531 -36.117188 21.679688 -36.421875 20.828125 -36.421875 L 20.515625 -36.421875 C 19.859375 -36.421875 19.390625 -36.226562 19.109375 -35.84375 C 18.835938 -35.46875 18.625 -34.703125 18.46875 -33.546875 L 14.015625 0 L 2.046875 0 L 6.28125 -29.15625 C 6.738281 -32.332031 7.625 -34.65625 8.9375 -36.125 L 3.328125 -36.125 L 3.328125 -45.4375 L 24.90625 -45.4375 C 27.789062 -45.4375 30.113281 -44.648438 31.875 -43.078125 C 33.644531 -41.515625 34.628906 -38.5625 34.828125 -34.21875 Z M 36.421875 -6.4375 "/></g></g></g><g fill="#61888d" fill-opacity="0.4"><g transform="translate(659.84443, 252.295982)"><g/></g></g><g fill="#61888d" fill-opacity="0.4"><g transform="translate(675.366104, 252.295982)"><g><path d="M 31.5 -45.4375 C 33.71875 -45.4375 35.304688 -44.953125 36.265625 -43.984375 C 37.222656 -43.023438 37.703125 -41.410156 37.703125 -39.140625 L 37.703125 -2.796875 C 37.703125 -1.785156 37.488281 -1.066406 37.0625 -0.640625 C 36.632812 -0.210938 35.914062 0 34.90625 0 L 8.625 0 C 7.625 0 6.90625 -0.210938 6.46875 -0.640625 C 6.039062 -1.066406 5.828125 -1.785156 5.828125 -2.796875 L 5.828125 -31.265625 C 5.828125 -33.535156 6.207031 -35.15625 6.96875 -36.125 L 2.71875 -36.125 L 2.71875 -45.4375 Z M 26.28125 -9.921875 L 26.28125 -33.84375 C 26.28125 -34.851562 26.125 -35.535156 25.8125 -35.890625 C 25.507812 -36.242188 24.90625 -36.421875 24 -36.421875 L 19.453125 -36.421875 C 18.546875 -36.421875 17.953125 -36.191406 17.671875 -35.734375 C 17.398438 -35.285156 17.265625 -34.53125 17.265625 -33.46875 L 17.265625 -9.921875 C 17.265625 -9.566406 17.328125 -9.328125 17.453125 -9.203125 C 17.578125 -9.078125 17.816406 -9.015625 18.171875 -9.015625 L 25.359375 -9.015625 C 25.765625 -9.015625 26.019531 -9.078125 26.125 -9.203125 C 26.226562 -9.328125 26.28125 -9.566406 26.28125 -9.921875 Z M 26.28125 -9.921875 "/></g></g></g><g fill="#61888d" fill-opacity="0.4"><g transform="translate(716.933847, 252.295982)"><g><path d="M 6.65625 -19.234375 L 6.65625 -34.453125 C 6.65625 -35.160156 6.539062 -35.613281 6.3125 -35.8125 C 6.09375 -36.019531 5.628906 -36.125 4.921875 -36.125 L 2.046875 -36.125 L 2.046875 -45.4375 L 12.421875 -45.4375 C 14.585938 -45.4375 16.113281 -44.992188 17 -44.109375 C 17.882812 -43.222656 18.328125 -41.695312 18.328125 -39.53125 L 18.328125 -19.234375 Z M 6.65625 -19.234375 "/></g></g></g><g fill="#61888d" fill-opacity="0.4"><g transform="translate(738.967038, 252.295982)"><g><path d="M 29 -9.3125 L 31.265625 -9.3125 L 31.265625 0 L 1.359375 0 L 1.359375 -9.3125 L 16.125 -9.3125 C 15.976562 -9.613281 15.851562 -9.976562 15.75 -10.40625 C 15.644531 -10.84375 15.59375 -11.3125 15.59375 -11.8125 L 15.59375 -33.84375 C 15.59375 -34.75 15.441406 -35.351562 15.140625 -35.65625 C 14.835938 -35.96875 14.234375 -36.125 13.328125 -36.125 L 2.203125 -36.125 L 2.203125 -45.4375 L 20.0625 -45.4375 C 22.738281 -45.4375 24.617188 -44.84375 25.703125 -43.65625 C 26.785156 -42.46875 27.328125 -40.4375 27.328125 -37.5625 L 27.328125 -11.203125 C 27.328125 -9.941406 27.882812 -9.3125 29 -9.3125 Z M 29 -9.3125 "/></g></g></g><g fill="#61888d" fill-opacity="0.4"><g transform="translate(770.237449, 252.295982)"><g><path d="M 42.328125 -45.4375 L 42.328125 -36.125 L 38.015625 -36.125 C 38.566406 -35.15625 38.84375 -33.335938 38.84375 -30.671875 L 38.84375 0 L 27.109375 0 L 27.109375 -32.703125 C 27.109375 -34.171875 26.992188 -35.109375 26.765625 -35.515625 C 26.535156 -35.921875 26.066406 -36.125 25.359375 -36.125 L 19.609375 -36.125 C 18.953125 -36.125 18.507812 -35.921875 18.28125 -35.515625 C 18.0625 -35.109375 17.953125 -34.171875 17.953125 -32.703125 L 17.953125 0 L 6.203125 0 L 6.203125 -30.671875 C 6.203125 -33.335938 6.484375 -35.15625 7.046875 -36.125 L 2.71875 -36.125 L 2.71875 -45.4375 Z M 42.328125 -45.4375 "/></g></g></g><g fill="#61888d" fill-opacity="0.4"><g transform="translate(815.742496, 252.295982)"><g><path d="M 14.46875 0 L 14.46875 -33.390625 C 14.46875 -35.210938 13.554688 -36.125 11.734375 -36.125 L 1.0625 -36.125 L 1.0625 -45.4375 L 18.546875 -45.4375 C 21.378906 -45.4375 23.363281 -44.851562 24.5 -43.6875 C 25.632812 -42.53125 26.203125 -40.5625 26.203125 -37.78125 L 26.203125 0 Z M 14.46875 0 "/></g></g></g><g fill="#61888d" fill-opacity="0.4"><g transform="translate(846.104378, 252.295982)"><g><path d="M 36.421875 -6.4375 C 36.523438 -4.21875 36.054688 -2.585938 35.015625 -1.546875 C 33.984375 -0.515625 32.28125 0 29.90625 0 L 18.78125 0 L 18.78125 -9.3125 L 22.5625 -9.3125 C 23.375 -9.3125 23.878906 -9.472656 24.078125 -9.796875 C 24.273438 -10.128906 24.351562 -10.675781 24.3125 -11.4375 L 23.171875 -32.40625 C 23.117188 -33.875 22.925781 -34.910156 22.59375 -35.515625 C 22.269531 -36.117188 21.679688 -36.421875 20.828125 -36.421875 L 20.515625 -36.421875 C 19.859375 -36.421875 19.390625 -36.226562 19.109375 -35.84375 C 18.835938 -35.46875 18.625 -34.703125 18.46875 -33.546875 L 14.015625 0 L 2.046875 0 L 6.28125 -29.15625 C 6.738281 -32.332031 7.625 -34.65625 8.9375 -36.125 L 3.328125 -36.125 L 3.328125 -45.4375 L 24.90625 -45.4375 C 27.789062 -45.4375 30.113281 -44.648438 31.875 -43.078125 C 33.644531 -41.515625 34.628906 -38.5625 34.828125 -34.21875 Z M 36.421875 -6.4375 "/></g></g></g><g fill="#61888d" fill-opacity="0.4"><g transform="translate(884.264929, 252.295982)"><g><path d="M 12.109375 0 C 9.179688 0 7.210938 -0.921875 6.203125 -2.765625 C 5.191406 -4.609375 5.242188 -7.242188 6.359375 -10.671875 L 13.78125 -33.6875 C 14.28125 -35.3125 13.722656 -36.125 12.109375 -36.125 L 3.25 -36.125 C 2.445312 -36.125 1.878906 -36.285156 1.546875 -36.609375 C 1.222656 -36.941406 1.0625 -37.535156 1.0625 -38.390625 L 1.0625 -51.484375 L 12.109375 -51.484375 L 12.109375 -45.4375 L 20.21875 -45.4375 C 23.09375 -45.4375 25.097656 -44.488281 26.234375 -42.59375 C 27.367188 -40.695312 27.429688 -38.1875 26.421875 -35.0625 L 18.40625 -11.28125 C 18.195312 -10.726562 18.15625 -10.257812 18.28125 -9.875 C 18.40625 -9.5 18.796875 -9.3125 19.453125 -9.3125 L 22.796875 -9.3125 L 22.796875 0 Z M 12.109375 0 "/></g></g></g><g fill="#61888d" fill-opacity="1"><g transform="translate(512.195493, 142.758082)"><g><path d="M 6.65625 -19.234375 L 6.65625 -34.453125 C 6.65625 -35.160156 6.539062 -35.613281 6.3125 -35.8125 C 6.09375 -36.019531 5.628906 -36.125 4.921875 -36.125 L 2.046875 -36.125 L 2.046875 -45.4375 L 12.421875 -45.4375 C 14.585938 -45.4375 16.113281 -44.992188 17 -44.109375 C 17.882812 -43.222656 18.328125 -41.695312 18.328125 -39.53125 L 18.328125 -19.234375 Z M 6.65625 -19.234375 "/></g></g></g><g fill="#61888d" fill-opacity="1"><g transform="translate(534.45585, 142.758082)"><g><path d="M 12.109375 0 C 9.179688 0 7.210938 -0.921875 6.203125 -2.765625 C 5.191406 -4.609375 5.242188 -7.242188 6.359375 -10.671875 L 13.78125 -33.6875 C 14.28125 -35.3125 13.722656 -36.125 12.109375 -36.125 L 3.25 -36.125 C 2.445312 -36.125 1.878906 -36.285156 1.546875 -36.609375 C 1.222656 -36.941406 1.0625 -37.535156 1.0625 -38.390625 L 1.0625 -51.484375 L 12.109375 -51.484375 L 12.109375 -45.4375 L 20.21875 -45.4375 C 23.09375 -45.4375 25.097656 -44.488281 26.234375 -42.59375 C 27.367188 -40.695312 27.429688 -38.1875 26.421875 -35.0625 L 18.40625 -11.28125 C 18.195312 -10.726562 18.15625 -10.257812 18.28125 -9.875 C 18.40625 -9.5 18.796875 -9.3125 19.453125 -9.3125 L 22.796875 -9.3125 L 22.796875 0 Z M 12.109375 0 "/></g></g></g><g fill="#61888d" fill-opacity="1"><g transform="translate(563.682013, 142.758082)"><g><path d="M 1.359375 0 L 1.359375 -9.3125 L 13.03125 -9.3125 C 13.9375 -9.3125 14.550781 -9.460938 14.875 -9.765625 C 15.207031 -10.066406 15.375 -10.648438 15.375 -11.515625 L 15.375 -33.84375 C 15.375 -34.75 15.207031 -35.351562 14.875 -35.65625 C 14.550781 -35.96875 13.9375 -36.125 13.03125 -36.125 L 2.203125 -36.125 L 2.203125 -45.4375 L 19.90625 -45.4375 C 22.53125 -45.4375 24.382812 -44.890625 25.46875 -43.796875 C 26.5625 -42.710938 27.109375 -40.859375 27.109375 -38.234375 L 27.109375 -7.125 C 27.109375 -4.539062 26.5625 -2.707031 25.46875 -1.625 C 24.382812 -0.539062 22.53125 0 19.90625 0 Z M 1.359375 0 "/></g></g></g><g fill="#61888d" fill-opacity="1"><g transform="translate(594.573916, 142.758082)"><g><path d="M 6.65625 -19.234375 L 6.65625 -34.453125 C 6.65625 -35.160156 6.539062 -35.613281 6.3125 -35.8125 C 6.09375 -36.019531 5.628906 -36.125 4.921875 -36.125 L 2.046875 -36.125 L 2.046875 -45.4375 L 12.421875 -45.4375 C 14.585938 -45.4375 16.113281 -44.992188 17 -44.109375 C 17.882812 -43.222656 18.328125 -41.695312 18.328125 -39.53125 L 18.328125 -19.234375 Z M 6.65625 -19.234375 "/></g></g></g><g fill="#61888d" fill-opacity="1"><g transform="translate(616.834274, 142.758082)"><g><path d="M 14.46875 0 L 14.46875 -33.390625 C 14.46875 -35.210938 13.554688 -36.125 11.734375 -36.125 L 1.0625 -36.125 L 1.0625 -45.4375 L 18.546875 -45.4375 C 21.378906 -45.4375 23.363281 -44.851562 24.5 -43.6875 C 25.632812 -42.53125 26.203125 -40.5625 26.203125 -37.78125 L 26.203125 0 Z M 14.46875 0 "/></g></g></g><g fill="#61888d" fill-opacity="1"><g transform="translate(647.196167, 142.758082)"><g><path d="M 1.0625 -45.4375 L 28.921875 -45.4375 L 28.921875 -36.125 L 27.40625 -36.125 C 25.84375 -36.125 25.0625 -35.085938 25.0625 -33.015625 L 25.0625 0 L 14.015625 0 L 14.015625 -31.265625 C 14.015625 -33.390625 14.34375 -35.007812 15 -36.125 L 1.0625 -36.125 Z M 1.0625 -45.4375 "/></g></g></g><g fill="#61888d" fill-opacity="1"><g transform="translate(678.163781, 142.758082)"><g><path d="M 15.140625 -23.78125 C 14.484375 -23.519531 14.101562 -23.160156 14 -22.703125 C 13.90625 -22.253906 13.984375 -21.523438 14.234375 -20.515625 L 17.640625 -9.546875 C 18.492188 -6.816406 18.671875 -4.539062 18.171875 -2.71875 C 17.671875 -0.90625 16.128906 0 13.546875 0 L 2.578125 0 L 2.578125 -9.3125 L 5 -9.3125 C 5.65625 -9.3125 5.929688 -9.585938 5.828125 -10.140625 L 3.859375 -19.609375 C 3.359375 -21.984375 3.320312 -23.925781 3.75 -25.4375 C 4.175781 -26.957031 4.90625 -28.21875 5.9375 -29.21875 C 6.976562 -30.226562 8.101562 -31.0625 9.3125 -31.71875 L 10.453125 -32.328125 L 2.65625 -45.4375 L 14.609375 -45.4375 L 25.21875 -26.34375 C 25.613281 -26.601562 25.890625 -26.921875 26.046875 -27.296875 C 26.203125 -27.671875 26.28125 -28.289062 26.28125 -29.15625 L 26.28125 -45.4375 L 37.484375 -45.4375 L 37.484375 -28.25 C 37.484375 -25.925781 37.015625 -23.96875 36.078125 -22.375 C 35.140625 -20.78125 33.515625 -19.28125 31.203125 -17.875 L 30.140625 -17.1875 L 39 0 L 27.1875 0 L 15.21875 -23.78125 Z M 15.140625 -23.78125 "/></g></g></g><g fill="#61888d" fill-opacity="1"><g transform="translate(718.747261, 142.758082)"><g/></g></g><g fill="#61888d" fill-opacity="1"><g transform="translate(734.268911, 142.758082)"><g><path d="M 6.734375 11.578125 L 6.734375 -34.453125 C 6.734375 -35.160156 6.617188 -35.613281 6.390625 -35.8125 C 6.171875 -36.019531 5.707031 -36.125 5 -36.125 L 2.265625 -36.125 L 2.265625 -45.4375 L 13.40625 -45.4375 C 15.269531 -45.4375 16.578125 -45.054688 17.328125 -44.296875 C 18.085938 -43.535156 18.46875 -42.25 18.46875 -40.4375 L 18.46875 11.578125 Z M 6.734375 11.578125 "/></g></g></g><g fill="#61888d" fill-opacity="1"><g transform="translate(756.907834, 142.758082)"><g><path d="M 6.734375 0 L 6.734375 -34.453125 C 6.734375 -35.160156 6.617188 -35.613281 6.390625 -35.8125 C 6.171875 -36.019531 5.707031 -36.125 5 -36.125 L 2.265625 -36.125 L 2.265625 -45.4375 L 13.40625 -45.4375 C 15.269531 -45.4375 16.578125 -45.054688 17.328125 -44.296875 C 18.085938 -43.535156 18.46875 -42.25 18.46875 -40.4375 L 18.46875 0 Z M 6.734375 0 "/></g></g></g><g fill="#61888d" fill-opacity="1"><g transform="translate(779.546757, 142.758082)"><g><path d="M 0.234375 0 L 0.234375 -9.3125 L 6.515625 -9.3125 C 7.578125 -9.3125 8.28125 -9.488281 8.625 -9.84375 C 8.976562 -10.195312 9.15625 -10.929688 9.15625 -12.046875 L 9.15625 -33.84375 C 9.15625 -34.75 9.003906 -35.351562 8.703125 -35.65625 C 8.398438 -35.96875 7.820312 -36.125 6.96875 -36.125 L 4.3125 -36.125 L 4.3125 -45.4375 L 13.9375 -45.4375 C 16.457031 -45.4375 18.242188 -44.867188 19.296875 -43.734375 C 20.359375 -42.597656 20.890625 -40.691406 20.890625 -38.015625 L 20.890625 -7.578125 C 20.890625 -4.796875 20.347656 -2.835938 19.265625 -1.703125 C 18.179688 -0.566406 16.351562 0 13.78125 0 Z M 0.234375 0 "/></g></g></g><g fill="#61888d" fill-opacity="1"><g transform="translate(803.699943, 142.758082)"><g><path d="M 1.359375 0 L 1.359375 -9.3125 L 13.03125 -9.3125 C 13.9375 -9.3125 14.550781 -9.460938 14.875 -9.765625 C 15.207031 -10.066406 15.375 -10.648438 15.375 -11.515625 L 15.375 -33.84375 C 15.375 -34.75 15.207031 -35.351562 14.875 -35.65625 C 14.550781 -35.96875 13.9375 -36.125 13.03125 -36.125 L 2.203125 -36.125 L 2.203125 -45.4375 L 19.90625 -45.4375 C 22.53125 -45.4375 24.382812 -44.890625 25.46875 -43.796875 C 26.5625 -42.710938 27.109375 -40.859375 27.109375 -38.234375 L 27.109375 -7.125 C 27.109375 -4.539062 26.5625 -2.707031 25.46875 -1.625 C 24.382812 -0.539062 22.53125 0 19.90625 0 Z M 1.359375 0 "/></g></g></g><g fill="#61888d" fill-opacity="1"><g transform="translate(834.591823, 142.758082)"><g><path d="M 29.828125 -45.4375 C 32.660156 -45.4375 34.664062 -44.84375 35.84375 -43.65625 C 37.03125 -42.46875 37.625 -40.4375 37.625 -37.5625 L 37.625 0 L 25.890625 0 L 25.890625 -33.546875 C 25.890625 -34.554688 25.710938 -35.285156 25.359375 -35.734375 C 25.003906 -36.191406 24.347656 -36.421875 23.390625 -36.421875 L 21.359375 -36.421875 C 19.640625 -36.421875 18.453125 -35.890625 17.796875 -34.828125 C 17.140625 -33.765625 17.113281 -31.546875 17.71875 -28.171875 L 20.4375 -12.265625 C 21.195312 -8.128906 20.972656 -5.050781 19.765625 -3.03125 C 18.554688 -1.007812 16.109375 0 12.421875 0 L 2.34375 0 L 2.34375 -9.3125 L 6.8125 -9.3125 C 7.519531 -9.3125 8.0625 -9.515625 8.4375 -9.921875 C 8.820312 -10.328125 8.9375 -11.082031 8.78125 -12.1875 L 6.28125 -26.65625 C 5.78125 -29.476562 5.707031 -31.609375 6.0625 -33.046875 C 6.414062 -34.484375 6.867188 -35.507812 7.421875 -36.125 L 2.5 -36.125 L 2.5 -45.4375 Z M 29.828125 -45.4375 "/></g></g></g><g fill="#61888d" fill-opacity="1"><g transform="translate(479.18476, 248.280168)"><g><path d="M 31.5 -45.4375 C 33.71875 -45.4375 35.304688 -44.953125 36.265625 -43.984375 C 37.222656 -43.023438 37.703125 -41.410156 37.703125 -39.140625 L 37.703125 -2.796875 C 37.703125 -1.785156 37.488281 -1.066406 37.0625 -0.640625 C 36.632812 -0.210938 35.914062 0 34.90625 0 L 8.625 0 C 7.625 0 6.90625 -0.210938 6.46875 -0.640625 C 6.039062 -1.066406 5.828125 -1.785156 5.828125 -2.796875 L 5.828125 -31.265625 C 5.828125 -33.535156 6.207031 -35.15625 6.96875 -36.125 L 2.71875 -36.125 L 2.71875 -45.4375 Z M 26.28125 -9.921875 L 26.28125 -33.84375 C 26.28125 -34.851562 26.125 -35.535156 25.8125 -35.890625 C 25.507812 -36.242188 24.90625 -36.421875 24 -36.421875 L 19.453125 -36.421875 C 18.546875 -36.421875 17.953125 -36.191406 17.671875 -35.734375 C 17.398438 -35.285156 17.265625 -34.53125 17.265625 -33.46875 L 17.265625 -9.921875 C 17.265625 -9.566406 17.328125 -9.328125 17.453125 -9.203125 C 17.578125 -9.078125 17.816406 -9.015625 18.171875 -9.015625 L 25.359375 -9.015625 C 25.765625 -9.015625 26.019531 -9.078125 26.125 -9.203125 C 26.226562 -9.328125 26.28125 -9.566406 26.28125 -9.921875 Z M 26.28125 -9.921875 "/></g></g></g><g fill="#61888d" fill-opacity="1"><g transform="translate(520.752515, 248.280168)"><g><path d="M 6.65625 -19.234375 L 6.65625 -34.453125 C 6.65625 -35.160156 6.539062 -35.613281 6.3125 -35.8125 C 6.09375 -36.019531 5.628906 -36.125 4.921875 -36.125 L 2.046875 -36.125 L 2.046875 -45.4375 L 12.421875 -45.4375 C 14.585938 -45.4375 16.113281 -44.992188 17 -44.109375 C 17.882812 -43.222656 18.328125 -41.695312 18.328125 -39.53125 L 18.328125 -19.234375 Z M 6.65625 -19.234375 "/></g></g></g><g fill="#61888d" fill-opacity="1"><g transform="translate(540.968396, 248.280168)"><g><path d="M 0.234375 0 L 0.234375 -9.3125 L 6.515625 -9.3125 C 7.578125 -9.3125 8.28125 -9.488281 8.625 -9.84375 C 8.976562 -10.195312 9.15625 -10.929688 9.15625 -12.046875 L 9.15625 -33.84375 C 9.15625 -34.75 9.003906 -35.351562 8.703125 -35.65625 C 8.398438 -35.96875 7.820312 -36.125 6.96875 -36.125 L 4.3125 -36.125 L 4.3125 -45.4375 L 13.9375 -45.4375 C 16.457031 -45.4375 18.242188 -44.867188 19.296875 -43.734375 C 20.359375 -42.597656 20.890625 -40.691406 20.890625 -38.015625 L 20.890625 -7.578125 C 20.890625 -4.796875 20.347656 -2.835938 19.265625 -1.703125 C 18.179688 -0.566406 16.351562 0 13.78125 0 Z M 0.234375 0 "/></g></g></g><g fill="#61888d" fill-opacity="1"><g transform="translate(565.424459, 248.280168)"><g><path d="M 28.546875 0 L 17.953125 0 L 13.484375 -15.90625 C 13.023438 -15.695312 12.71875 -15.46875 12.5625 -15.21875 C 12.414062 -14.96875 12.316406 -14.640625 12.265625 -14.234375 L 11.203125 0 L 0.078125 0 L 2.203125 -17.34375 C 2.398438 -18.957031 2.828125 -20.191406 3.484375 -21.046875 C 4.140625 -21.910156 5.148438 -22.617188 6.515625 -23.171875 L 11.28125 -25.140625 C 12.09375 -25.492188 12.695312 -25.957031 13.09375 -26.53125 C 13.5 -27.113281 13.703125 -27.960938 13.703125 -29.078125 L 13.703125 -34.078125 C 13.703125 -34.929688 13.578125 -35.484375 13.328125 -35.734375 C 13.078125 -35.992188 12.519531 -36.125 11.65625 -36.125 L 6.203125 -36.125 L 6.203125 -45.4375 L 18.328125 -45.4375 C 20.546875 -45.4375 22.171875 -44.867188 23.203125 -43.734375 C 24.242188 -42.597656 24.765625 -40.765625 24.765625 -38.234375 L 24.765625 -24 C 24.765625 -22.84375 24.609375 -21.910156 24.296875 -21.203125 C 23.992188 -20.492188 23.566406 -19.9375 23.015625 -19.53125 Z M 28.546875 0 "/></g></g></g><g fill="#61888d" fill-opacity="1"><g transform="translate(594.044821, 248.280168)"><g><path d="M 6.734375 0 L 6.734375 -34.453125 C 6.734375 -35.160156 6.617188 -35.613281 6.390625 -35.8125 C 6.171875 -36.019531 5.707031 -36.125 5 -36.125 L 2.265625 -36.125 L 2.265625 -45.4375 L 13.40625 -45.4375 C 15.269531 -45.4375 16.578125 -45.054688 17.328125 -44.296875 C 18.085938 -43.535156 18.46875 -42.25 18.46875 -40.4375 L 18.46875 0 Z M 6.734375 0 "/></g></g></g><g fill="#61888d" fill-opacity="1"><g transform="translate(616.683733, 248.280168)"><g><path d="M 36.421875 -6.4375 C 36.523438 -4.21875 36.054688 -2.585938 35.015625 -1.546875 C 33.984375 -0.515625 32.28125 0 29.90625 0 L 18.78125 0 L 18.78125 -9.3125 L 22.5625 -9.3125 C 23.375 -9.3125 23.878906 -9.472656 24.078125 -9.796875 C 24.273438 -10.128906 24.351562 -10.675781 24.3125 -11.4375 L 23.171875 -32.40625 C 23.117188 -33.875 22.925781 -34.910156 22.59375 -35.515625 C 22.269531 -36.117188 21.679688 -36.421875 20.828125 -36.421875 L 20.515625 -36.421875 C 19.859375 -36.421875 19.390625 -36.226562 19.109375 -35.84375 C 18.835938 -35.46875 18.625 -34.703125 18.46875 -33.546875 L 14.015625 0 L 2.046875 0 L 6.28125 -29.15625 C 6.738281 -32.332031 7.625 -34.65625 8.9375 -36.125 L 3.328125 -36.125 L 3.328125 -45.4375 L 24.90625 -45.4375 C 27.789062 -45.4375 30.113281 -44.648438 31.875 -43.078125 C 33.644531 -41.515625 34.628906 -38.5625 34.828125 -34.21875 Z M 36.421875 -6.4375 "/></g></g></g><g fill="#61888d" fill-opacity="1"><g transform="translate(655.828616, 248.280168)"><g/></g></g><g fill="#61888d" fill-opacity="1"><g transform="translate(671.35029, 248.280168)"><g><path d="M 31.5 -45.4375 C 33.71875 -45.4375 35.304688 -44.953125 36.265625 -43.984375 C 37.222656 -43.023438 37.703125 -41.410156 37.703125 -39.140625 L 37.703125 -2.796875 C 37.703125 -1.785156 37.488281 -1.066406 37.0625 -0.640625 C 36.632812 -0.210938 35.914062 0 34.90625 0 L 8.625 0 C 7.625 0 6.90625 -0.210938 6.46875 -0.640625 C 6.039062 -1.066406 5.828125 -1.785156 5.828125 -2.796875 L 5.828125 -31.265625 C 5.828125 -33.535156 6.207031 -35.15625 6.96875 -36.125 L 2.71875 -36.125 L 2.71875 -45.4375 Z M 26.28125 -9.921875 L 26.28125 -33.84375 C 26.28125 -34.851562 26.125 -35.535156 25.8125 -35.890625 C 25.507812 -36.242188 24.90625 -36.421875 24 -36.421875 L 19.453125 -36.421875 C 18.546875 -36.421875 17.953125 -36.191406 17.671875 -35.734375 C 17.398438 -35.285156 17.265625 -34.53125 17.265625 -33.46875 L 17.265625 -9.921875 C 17.265625 -9.566406 17.328125 -9.328125 17.453125 -9.203125 C 17.578125 -9.078125 17.816406 -9.015625 18.171875 -9.015625 L 25.359375 -9.015625 C 25.765625 -9.015625 26.019531 -9.078125 26.125 -9.203125 C 26.226562 -9.328125 26.28125 -9.566406 26.28125 -9.921875 Z M 26.28125 -9.921875 "/></g></g></g><g fill="#61888d" fill-opacity="1"><g transform="translate(712.918032, 248.280168)"><g><path d="M 6.65625 -19.234375 L 6.65625 -34.453125 C 6.65625 -35.160156 6.539062 -35.613281 6.3125 -35.8125 C 6.09375 -36.019531 5.628906 -36.125 4.921875 -36.125 L 2.046875 -36.125 L 2.046875 -45.4375 L 12.421875 -45.4375 C 14.585938 -45.4375 16.113281 -44.992188 17 -44.109375 C 17.882812 -43.222656 18.328125 -41.695312 18.328125 -39.53125 L 18.328125 -19.234375 Z M 6.65625 -19.234375 "/></g></g></g><g fill="#61888d" fill-opacity="1"><g transform="translate(734.951223, 248.280168)"><g><path d="M 29 -9.3125 L 31.265625 -9.3125 L 31.265625 0 L 1.359375 0 L 1.359375 -9.3125 L 16.125 -9.3125 C 15.976562 -9.613281 15.851562 -9.976562 15.75 -10.40625 C 15.644531 -10.84375 15.59375 -11.3125 15.59375 -11.8125 L 15.59375 -33.84375 C 15.59375 -34.75 15.441406 -35.351562 15.140625 -35.65625 C 14.835938 -35.96875 14.234375 -36.125 13.328125 -36.125 L 2.203125 -36.125 L 2.203125 -45.4375 L 20.0625 -45.4375 C 22.738281 -45.4375 24.617188 -44.84375 25.703125 -43.65625 C 26.785156 -42.46875 27.328125 -40.4375 27.328125 -37.5625 L 27.328125 -11.203125 C 27.328125 -9.941406 27.882812 -9.3125 29 -9.3125 Z M 29 -9.3125 "/></g></g></g><g fill="#61888d" fill-opacity="1"><g transform="translate(766.221635, 248.280168)"><g><path d="M 42.328125 -45.4375 L 42.328125 -36.125 L 38.015625 -36.125 C 38.566406 -35.15625 38.84375 -33.335938 38.84375 -30.671875 L 38.84375 0 L 27.109375 0 L 27.109375 -32.703125 C 27.109375 -34.171875 26.992188 -35.109375 26.765625 -35.515625 C 26.535156 -35.921875 26.066406 -36.125 25.359375 -36.125 L 19.609375 -36.125 C 18.953125 -36.125 18.507812 -35.921875 18.28125 -35.515625 C 18.0625 -35.109375 17.953125 -34.171875 17.953125 -32.703125 L 17.953125 0 L 6.203125 0 L 6.203125 -30.671875 C 6.203125 -33.335938 6.484375 -35.15625 7.046875 -36.125 L 2.71875 -36.125 L 2.71875 -45.4375 Z M 42.328125 -45.4375 "/></g></g></g><g fill="#61888d" fill-opacity="1"><g transform="translate(811.726682, 248.280168)"><g><path d="M 14.46875 0 L 14.46875 -33.390625 C 14.46875 -35.210938 13.554688 -36.125 11.734375 -36.125 L 1.0625 -36.125 L 1.0625 -45.4375 L 18.546875 -45.4375 C 21.378906 -45.4375 23.363281 -44.851562 24.5 -43.6875 C 25.632812 -42.53125 26.203125 -40.5625 26.203125 -37.78125 L 26.203125 0 Z M 14.46875 0 "/></g></g></g><g fill="#61888d" fill-opacity="1"><g transform="translate(842.088564, 248.280168)"><g><path d="M 36.421875 -6.4375 C 36.523438 -4.21875 36.054688 -2.585938 35.015625 -1.546875 C 33.984375 -0.515625 32.28125 0 29.90625 0 L 18.78125 0 L 18.78125 -9.3125 L 22.5625 -9.3125 C 23.375 -9.3125 23.878906 -9.472656 24.078125 -9.796875 C 24.273438 -10.128906 24.351562 -10.675781 24.3125 -11.4375 L 23.171875 -32.40625 C 23.117188 -33.875 22.925781 -34.910156 22.59375 -35.515625 C 22.269531 -36.117188 21.679688 -36.421875 20.828125 -36.421875 L 20.515625 -36.421875 C 19.859375 -36.421875 19.390625 -36.226562 19.109375 -35.84375 C 18.835938 -35.46875 18.625 -34.703125 18.46875 -33.546875 L 14.015625 0 L 2.046875 0 L 6.28125 -29.15625 C 6.738281 -32.332031 7.625 -34.65625 8.9375 -36.125 L 3.328125 -36.125 L 3.328125 -45.4375 L 24.90625 -45.4375 C 27.789062 -45.4375 30.113281 -44.648438 31.875 -43.078125 C 33.644531 -41.515625 34.628906 -38.5625 34.828125 -34.21875 Z M 36.421875 -6.4375 "/></g></g></g><g fill="#61888d" fill-opacity="1"><g transform="translate(880.249115, 248.280168)"><g><path d="M 12.109375 0 C 9.179688 0 7.210938 -0.921875 6.203125 -2.765625 C 5.191406 -4.609375 5.242188 -7.242188 6.359375 -10.671875 L 13.78125 -33.6875 C 14.28125 -35.3125 13.722656 -36.125 12.109375 -36.125 L 3.25 -36.125 C 2.445312 -36.125 1.878906 -36.285156 1.546875 -36.609375 C 1.222656 -36.941406 1.0625 -37.535156 1.0625 -38.390625 L 1.0625 -51.484375 L 12.109375 -51.484375 L 12.109375 -45.4375 L 20.21875 -45.4375 C 23.09375 -45.4375 25.097656 -44.488281 26.234375 -42.59375 C 27.367188 -40.695312 27.429688 -38.1875 26.421875 -35.0625 L 18.40625 -11.28125 C 18.195312 -10.726562 18.15625 -10.257812 18.28125 -9.875 C 18.40625 -9.5 18.796875 -9.3125 19.453125 -9.3125 L 22.796875 -9.3125 L 22.796875 0 Z M 12.109375 0 "/></g></g></g><g clip-path="url(#6f061feda7)"><path fill="#61888d" d="M 380.839844 345.519531 C 372.070312 344.78125 359.660156 343.980469 324.597656 341.878906 C 297.457031 340.253906 291.4375 339.777344 256.886719 336.492188 C 239.527344 334.839844 238.542969 334.738281 234.277344 334.140625 C 231.59375 333.765625 230.484375 333.679688 230.328125 333.839844 C 229.910156 334.257812 168.871094 333.964844 168.734375 333.546875 C 168.695312 333.429688 168.792969 333.15625 168.953125 332.9375 C 169.238281 332.546875 169.6875 332.535156 190.730469 332.4375 L 212.21875 332.335938 L 212.320312 167.933594 C 212.414062 14.617188 212.445312 3.511719 212.761719 3.195312 C 212.960938 2.996094 213.242188 2.910156 213.445312 2.984375 C 213.628906 3.058594 244.042969 3.125 281.019531 3.136719 C 317.996094 3.160156 348.117188 3.191406 347.949219 3.234375 C 347.78125 3.277344 345.769531 3.558594 343.480469 3.859375 L 339.320312 4.40625 L 276.585938 4.484375 C 242.082031 4.527344 213.8125 4.601562 213.761719 4.652344 C 213.605469 4.808594 213.761719 332.125 213.921875 332.285156 C 214.003906 332.371094 217.171875 332.417969 220.960938 332.386719 L 227.851562 332.335938 L 227.917969 175.097656 C 227.957031 74.199219 228.050781 17.726562 228.179688 17.488281 C 228.34375 17.179688 228.640625 17.121094 230.09375 17.121094 C 232.082031 17.121094 243.4375 16.007812 251.890625 14.976562 C 265.007812 13.382812 270.726562 12.773438 282.164062 11.742188 C 297.171875 10.386719 307.097656 9.308594 324.191406 7.175781 C 347.261719 4.292969 367.570312 2.160156 384.980469 0.78125 C 387.203125 0.601562 389.1875 0.367188 389.390625 0.257812 C 389.875 0 392.195312 0.574219 393.085938 1.167969 L 393.730469 1.605469 L 393.785156 9 C 393.828125 14.605469 393.898438 16.429688 394.089844 16.550781 C 394.226562 16.640625 397.371094 16.714844 401.066406 16.714844 L 407.796875 16.714844 L 407.957031 17.269531 C 408.046875 17.578125 408.152344 88.617188 408.191406 175.132812 L 408.257812 332.4375 L 415.105469 332.382812 L 421.953125 332.332031 L 421.953125 4.429688 L 395.234375 4.429688 L 395.296875 3.820312 L 395.355469 3.210938 L 408.808594 3.160156 C 422.175781 3.105469 422.257812 3.109375 422.257812 3.515625 C 422.257812 3.875 422.308594 3.894531 422.671875 3.667969 C 423.011719 3.460938 423.117188 3.46875 423.277344 3.71875 C 423.398438 3.910156 423.472656 64.222656 423.472656 168.175781 L 423.472656 332.332031 L 441.085938 332.359375 C 450.773438 332.378906 458.859375 332.398438 459.054688 332.410156 C 459.589844 332.445312 459.488281 333.15625 458.875 333.636719 L 458.339844 334.058594 L 426.195312 334.007812 L 394.054688 333.957031 L 393.992188 338.320312 C 393.960938 340.722656 393.992188 342.714844 394.082031 342.753906 C 394.363281 342.878906 394.242188 343.53125 393.875 343.867188 C 393.675781 344.046875 392.632812 344.609375 391.566406 345.113281 C 389.226562 346.222656 389.25 346.21875 380.835938 345.515625 Z M 389.007812 173.511719 C 389.035156 79.289062 389.007812 2.121094 388.929688 2.027344 C 388.792969 1.84375 386.5625 1.996094 375.867188 2.929688 C 360.71875 4.253906 344.210938 6.027344 326.019531 8.292969 C 307.152344 10.640625 298.894531 11.539062 281.148438 13.164062 C 269.605469 14.230469 267.039062 14.5 254.246094 16.011719 C 244.285156 17.1875 233.296875 18.300781 230.796875 18.390625 L 229.273438 18.441406 L 229.226562 175.316406 L 229.175781 332.1875 L 230.339844 332.324219 C 230.984375 332.402344 233.152344 332.683594 235.164062 332.949219 C 237.171875 333.214844 246.035156 334.121094 254.855469 334.960938 C 292.347656 338.519531 299.011719 339.042969 331.503906 340.96875 C 361.929688 342.773438 381.410156 344.0625 386.523438 344.605469 C 387.363281 344.695312 388.25 344.78125 388.5 344.796875 L 388.945312 344.820312 Z M 382.785156 194.402344 C 382.71875 194.292969 382.277344 194.203125 381.800781 194.203125 C 381.328125 194.203125 379.527344 193.929688 377.792969 193.597656 C 376.0625 193.265625 373.480469 192.832031 372.058594 192.636719 C 370.203125 192.382812 369.46875 192.203125 369.46875 192.007812 C 369.46875 191.855469 369.378906 191.734375 369.265625 191.734375 C 369.132812 191.734375 369.0625 187.703125 369.0625 180.046875 L 369.0625 168.359375 L 370.382812 168.484375 L 370.429688 179.855469 L 370.476562 191.222656 L 372.664062 191.492188 C 373.867188 191.640625 376.585938 192.070312 378.703125 192.445312 C 380.824219 192.820312 382.582031 193.105469 382.609375 193.078125 C 382.636719 193.050781 382.664062 184.035156 382.671875 173.042969 L 382.691406 153.054688 L 381.871094 153.054688 C 381.421875 153.054688 378.628906 153.082031 375.671875 153.105469 L 370.289062 153.148438 L 370.289062 161.675781 L 369.074219 161.675781 L 369.074219 158.070312 C 369.074219 153.6875 369.207031 152.382812 369.679688 152.132812 C 370.089844 151.914062 384.347656 151.820312 385.160156 152.027344 L 385.71875 152.175781 L 385.71875 193.492188 L 384.652344 193.910156 C 384.066406 194.136719 383.433594 194.386719 383.25 194.457031 C 383.070312 194.535156 382.863281 194.503906 382.792969 194.394531 Z M 384.496094 173.042969 C 384.496094 155.5 384.457031 153.15625 384.1875 153.15625 C 383.921875 153.15625 383.886719 155.5 383.886719 173.019531 C 383.886719 183.945312 383.945312 192.941406 384.015625 193.015625 C 384.085938 193.085938 384.226562 193.09375 384.320312 193.035156 C 384.417969 192.976562 384.496094 183.980469 384.496094 173.042969 Z M 375.484375 185.535156 C 375.414062 185.351562 375.359375 184.453125 375.359375 183.539062 C 375.359375 182.125 375.296875 181.824219 374.953125 181.527344 C 374.191406 180.878906 374.585938 179.539062 375.699219 178.964844 C 376.28125 178.671875 377.039062 178.675781 377.347656 178.988281 C 377.652344 179.292969 377.660156 180.261719 377.367188 180.816406 C 377.246094 181.046875 377.128906 181.992188 377.113281 182.917969 C 377.09375 184.285156 377.003906 184.710938 376.65625 185.175781 C 376.15625 185.851562 375.664062 186 375.488281 185.539062 Z M 356.636719 167.492188 C 354.828125 167.363281 353.347656 167.167969 353.21875 167.039062 C 352.898438 166.71875 352.757812 164.648438 352.960938 163.308594 C 353.097656 162.40625 353.226562 162.152344 353.636719 161.960938 C 354.011719 161.785156 355.917969 161.773438 361.042969 161.910156 C 369.269531 162.125 377.5 162.160156 378.710938 161.976562 C 379.558594 161.851562 379.59375 161.867188 379.921875 162.558594 C 380.210938 163.167969 380.226562 163.492188 380.042969 164.828125 C 379.703125 167.253906 379.914062 167.140625 375.546875 167.242188 C 373.488281 167.289062 371.484375 167.425781 371.097656 167.550781 C 370.195312 167.835938 361.027344 167.796875 356.636719 167.492188 Z M 371.515625 166.144531 C 371.839844 165.96875 371.90625 165.710938 371.90625 164.570312 L 371.90625 163.207031 L 368.101562 163.269531 C 366.003906 163.300781 362.054688 163.246094 359.320312 163.152344 C 355.816406 163.027344 354.300781 163.039062 354.195312 163.191406 C 354.011719 163.460938 354.027344 164.847656 354.21875 165.542969 C 354.359375 166.042969 354.390625 166.050781 357.09375 166.160156 C 362.320312 166.371094 371.105469 166.363281 371.515625 166.140625 Z M 378.628906 165.777344 C 378.703125 165.703125 378.808594 165.117188 378.871094 164.476562 L 378.984375 163.308594 L 376.167969 163.308594 C 374.617188 163.308594 373.3125 163.378906 373.265625 163.460938 C 373.21875 163.542969 373.222656 164.164062 373.265625 164.839844 L 373.363281 166.066406 L 375.929688 165.988281 C 377.339844 165.941406 378.554688 165.847656 378.625 165.777344 Z M 391.933594 343.730469 L 392.371094 343.503906 L 392.519531 172.953125 L 392.671875 2.402344 L 391.675781 2.046875 C 391.132812 1.851562 390.605469 1.691406 390.5 1.691406 C 390.386719 1.691406 390.367188 38.890625 390.449219 95.953125 C 390.523438 147.792969 390.585938 224.867188 390.585938 267.226562 L 390.585938 344.238281 L 391.042969 344.097656 C 391.292969 344.023438 391.695312 343.855469 391.933594 343.730469 Z M 391.933594 343.730469 " fill-opacity="1" fill-rule="nonzero"/></g><path stroke-linecap="butt" transform="matrix(0.748384, 0, 0, 0.748384, 396.435486, 330.991009)" fill="none" stroke-linejoin="miter" d="M -0.00252814 2.000675 L 729.940451 2.000675 " stroke="#61888d" stroke-width="4" stroke-opacity="1" stroke-miterlimit="4"/><g clip-path="url(#8c40d0341e)"><path stroke-linecap="butt" transform="matrix(0.748384, 0, 0, 0.748384, 0.913796, 331.787891)" fill="none" stroke-linejoin="miter" d="M 0.00035627 2.000666 L 281.007029 2.000666 " stroke="#61888d" stroke-width="4" stroke-opacity="1" stroke-miterlimit="4"/></g></svg>