<svg xmlns="http://www.w3.org/2000/svg" xmlns:xlink="http://www.w3.org/1999/xlink" width="305" zoomAndPan="magnify" viewBox="0 0 228.75 82.499998" height="110" preserveAspectRatio="xMidYMid meet" version="1.0"><defs><g/><clipPath id="589b397312"><path d="M 0.566406 0 L 224 0 L 224 82 L 0.566406 82 Z M 0.566406 0 " clip-rule="nonzero"/></clipPath><clipPath id="a880bee9c1"><rect x="0" width="105" y="0" height="44"/></clipPath><clipPath id="a7bdfbb39c"><path d="M 40.183594 0 L 109 0 L 109 81.585938 L 40.183594 81.585938 Z M 40.183594 0 " clip-rule="nonzero"/></clipPath><clipPath id="47ab2a0410"><path d="M 93 78 L 223.851562 78 L 223.851562 79 L 93 79 Z M 93 78 " clip-rule="nonzero"/></clipPath><clipPath id="e215d3d655"><path d="M 0.566406 78 L 51 78 L 51 80 L 0.566406 80 Z M 0.566406 78 " clip-rule="nonzero"/></clipPath><clipPath id="537488578c"><rect x="0" width="224" y="0" height="82"/></clipPath></defs><g clip-path="url(#589b397312)"><g transform="matrix(1, 0, 0, 1, 0.000000000000000111, 0)"><g clip-path="url(#537488578c)"><g transform="matrix(1, 0, 0, 1, 112, 18)"><g clip-path="url(#a880bee9c1)"><g fill="#61888d" fill-opacity="0.4"><g transform="translate(10.271252, 16.135806)"><g><path d="M 1.578125 -4.546875 L 1.578125 -8.140625 C 1.578125 -8.304688 1.546875 -8.410156 1.484375 -8.453125 C 1.429688 -8.503906 1.320312 -8.53125 1.15625 -8.53125 L 0.484375 -8.53125 L 0.484375 -10.734375 L 2.9375 -10.734375 C 3.445312 -10.734375 3.804688 -10.628906 4.015625 -10.421875 C 4.222656 -10.210938 4.328125 -9.851562 4.328125 -9.34375 L 4.328125 -4.546875 Z M 1.578125 -4.546875 "/></g></g></g><g fill="#61888d" fill-opacity="0.4"><g transform="translate(15.527982, 16.135806)"><g><path d="M 2.859375 0 C 2.171875 0 1.707031 -0.21875 1.46875 -0.65625 C 1.226562 -1.09375 1.238281 -1.710938 1.5 -2.515625 L 3.25 -7.96875 C 3.375 -8.34375 3.242188 -8.53125 2.859375 -8.53125 L 0.765625 -8.53125 C 0.578125 -8.53125 0.441406 -8.566406 0.359375 -8.640625 C 0.285156 -8.722656 0.25 -8.867188 0.25 -9.078125 L 0.25 -12.171875 L 2.859375 -12.171875 L 2.859375 -10.734375 L 4.78125 -10.734375 C 5.457031 -10.734375 5.929688 -10.507812 6.203125 -10.0625 C 6.472656 -9.613281 6.488281 -9.019531 6.25 -8.28125 L 4.34375 -2.671875 C 4.300781 -2.535156 4.289062 -2.421875 4.3125 -2.328125 C 4.34375 -2.242188 4.4375 -2.203125 4.59375 -2.203125 L 5.390625 -2.203125 L 5.390625 0 Z M 2.859375 0 "/></g></g></g><g fill="#61888d" fill-opacity="0.4"><g transform="translate(22.42965, 16.135806)"><g><path d="M 0.328125 0 L 0.328125 -2.203125 L 3.078125 -2.203125 C 3.296875 -2.203125 3.441406 -2.238281 3.515625 -2.3125 C 3.585938 -2.382812 3.625 -2.519531 3.625 -2.71875 L 3.625 -8 C 3.625 -8.207031 3.585938 -8.347656 3.515625 -8.421875 C 3.441406 -8.492188 3.296875 -8.53125 3.078125 -8.53125 L 0.515625 -8.53125 L 0.515625 -10.734375 L 4.703125 -10.734375 C 5.328125 -10.734375 5.765625 -10.601562 6.015625 -10.34375 C 6.273438 -10.09375 6.40625 -9.65625 6.40625 -9.03125 L 6.40625 -1.6875 C 6.40625 -1.070312 6.273438 -0.632812 6.015625 -0.375 C 5.765625 -0.125 5.328125 0 4.703125 0 Z M 0.328125 0 "/></g></g></g><g fill="#61888d" fill-opacity="0.4"><g transform="translate(29.724671, 16.135806)"><g><path d="M 1.578125 -4.546875 L 1.578125 -8.140625 C 1.578125 -8.304688 1.546875 -8.410156 1.484375 -8.453125 C 1.429688 -8.503906 1.320312 -8.53125 1.15625 -8.53125 L 0.484375 -8.53125 L 0.484375 -10.734375 L 2.9375 -10.734375 C 3.445312 -10.734375 3.804688 -10.628906 4.015625 -10.421875 C 4.222656 -10.210938 4.328125 -9.851562 4.328125 -9.34375 L 4.328125 -4.546875 Z M 1.578125 -4.546875 "/></g></g></g><g fill="#61888d" fill-opacity="0.4"><g transform="translate(34.981401, 16.135806)"><g><path d="M 3.421875 0 L 3.421875 -7.890625 C 3.421875 -8.316406 3.203125 -8.53125 2.765625 -8.53125 L 0.25 -8.53125 L 0.25 -10.734375 L 4.390625 -10.734375 C 5.054688 -10.734375 5.519531 -10.59375 5.78125 -10.3125 C 6.050781 -10.039062 6.1875 -9.578125 6.1875 -8.921875 L 6.1875 0 Z M 3.421875 0 "/></g></g></g><g fill="#61888d" fill-opacity="0.4"><g transform="translate(42.151261, 16.135806)"><g><path d="M 0.25 -10.734375 L 6.828125 -10.734375 L 6.828125 -8.53125 L 6.46875 -8.53125 C 6.101562 -8.53125 5.921875 -8.285156 5.921875 -7.796875 L 5.921875 0 L 3.3125 0 L 3.3125 -7.390625 C 3.3125 -7.890625 3.390625 -8.269531 3.546875 -8.53125 L 0.25 -8.53125 Z M 0.25 -10.734375 "/></g></g></g><g fill="#61888d" fill-opacity="0.4"><g transform="translate(49.464163, 16.135806)"><g><path d="M 3.578125 -5.625 C 3.421875 -5.5625 3.332031 -5.472656 3.3125 -5.359375 C 3.289062 -5.253906 3.304688 -5.082031 3.359375 -4.84375 L 4.171875 -2.25 C 4.367188 -1.601562 4.40625 -1.066406 4.28125 -0.640625 C 4.164062 -0.210938 3.804688 0 3.203125 0 L 0.609375 0 L 0.609375 -2.203125 L 1.1875 -2.203125 C 1.332031 -2.203125 1.394531 -2.265625 1.375 -2.390625 L 0.90625 -4.640625 C 0.789062 -5.191406 0.78125 -5.644531 0.875 -6 C 0.976562 -6.363281 1.148438 -6.664062 1.390625 -6.90625 C 1.640625 -7.144531 1.910156 -7.34375 2.203125 -7.5 L 2.46875 -7.640625 L 0.625 -10.734375 L 3.453125 -10.734375 L 5.953125 -6.21875 C 6.046875 -6.28125 6.109375 -6.351562 6.140625 -6.4375 C 6.179688 -6.53125 6.203125 -6.679688 6.203125 -6.890625 L 6.203125 -10.734375 L 8.859375 -10.734375 L 8.859375 -6.671875 C 8.859375 -6.117188 8.742188 -5.65625 8.515625 -5.28125 C 8.296875 -4.90625 7.914062 -4.550781 7.375 -4.21875 L 7.125 -4.0625 L 9.21875 0 L 6.421875 0 L 3.59375 -5.625 Z M 3.578125 -5.625 "/></g></g></g><g fill="#61888d" fill-opacity="0.4"><g transform="translate(59.047819, 16.135806)"><g/></g></g><g fill="#61888d" fill-opacity="0.4"><g transform="translate(62.713211, 16.135806)"><g><path d="M 1.59375 2.734375 L 1.59375 -8.140625 C 1.59375 -8.304688 1.566406 -8.410156 1.515625 -8.453125 C 1.460938 -8.503906 1.351562 -8.53125 1.1875 -8.53125 L 0.53125 -8.53125 L 0.53125 -10.734375 L 3.171875 -10.734375 C 3.609375 -10.734375 3.914062 -10.644531 4.09375 -10.46875 C 4.269531 -10.289062 4.359375 -9.984375 4.359375 -9.546875 L 4.359375 2.734375 Z M 1.59375 2.734375 "/></g></g></g><g fill="#61888d" fill-opacity="0.4"><g transform="translate(68.059315, 16.135806)"><g><path d="M 1.59375 0 L 1.59375 -8.140625 C 1.59375 -8.304688 1.566406 -8.410156 1.515625 -8.453125 C 1.460938 -8.503906 1.351562 -8.53125 1.1875 -8.53125 L 0.53125 -8.53125 L 0.53125 -10.734375 L 3.171875 -10.734375 C 3.609375 -10.734375 3.914062 -10.644531 4.09375 -10.46875 C 4.269531 -10.289062 4.359375 -9.984375 4.359375 -9.546875 L 4.359375 0 Z M 1.59375 0 "/></g></g></g><g fill="#61888d" fill-opacity="0.4"><g transform="translate(73.40542, 16.135806)"><g><path d="M 0.046875 0 L 0.046875 -2.203125 L 1.53125 -2.203125 C 1.789062 -2.203125 1.960938 -2.242188 2.046875 -2.328125 C 2.128906 -2.410156 2.171875 -2.582031 2.171875 -2.84375 L 2.171875 -8 C 2.171875 -8.207031 2.132812 -8.347656 2.0625 -8.421875 C 1.988281 -8.492188 1.847656 -8.53125 1.640625 -8.53125 L 1.015625 -8.53125 L 1.015625 -10.734375 L 3.296875 -10.734375 C 3.890625 -10.734375 4.3125 -10.597656 4.5625 -10.328125 C 4.8125 -10.054688 4.9375 -9.609375 4.9375 -8.984375 L 4.9375 -1.796875 C 4.9375 -1.140625 4.804688 -0.675781 4.546875 -0.40625 C 4.296875 -0.132812 3.863281 0 3.25 0 Z M 0.046875 0 "/></g></g></g><g fill="#61888d" fill-opacity="0.4"><g transform="translate(79.109103, 16.135806)"><g><path d="M 0.328125 0 L 0.328125 -2.203125 L 3.078125 -2.203125 C 3.296875 -2.203125 3.441406 -2.238281 3.515625 -2.3125 C 3.585938 -2.382812 3.625 -2.519531 3.625 -2.71875 L 3.625 -8 C 3.625 -8.207031 3.585938 -8.347656 3.515625 -8.421875 C 3.441406 -8.492188 3.296875 -8.53125 3.078125 -8.53125 L 0.515625 -8.53125 L 0.515625 -10.734375 L 4.703125 -10.734375 C 5.328125 -10.734375 5.765625 -10.601562 6.015625 -10.34375 C 6.273438 -10.09375 6.40625 -9.65625 6.40625 -9.03125 L 6.40625 -1.6875 C 6.40625 -1.070312 6.273438 -0.632812 6.015625 -0.375 C 5.765625 -0.125 5.328125 0 4.703125 0 Z M 0.328125 0 "/></g></g></g><g fill="#61888d" fill-opacity="0.4"><g transform="translate(86.404123, 16.135806)"><g><path d="M 7.046875 -10.734375 C 7.710938 -10.734375 8.1875 -10.59375 8.46875 -10.3125 C 8.75 -10.03125 8.890625 -9.550781 8.890625 -8.875 L 8.890625 0 L 6.125 0 L 6.125 -7.921875 C 6.125 -8.160156 6.082031 -8.332031 6 -8.4375 C 5.914062 -8.550781 5.757812 -8.609375 5.53125 -8.609375 L 5.046875 -8.609375 C 4.640625 -8.609375 4.359375 -8.484375 4.203125 -8.234375 C 4.046875 -7.984375 4.039062 -7.457031 4.1875 -6.65625 L 4.828125 -2.890625 C 5.003906 -1.921875 4.945312 -1.195312 4.65625 -0.71875 C 4.375 -0.238281 3.800781 0 2.9375 0 L 0.546875 0 L 0.546875 -2.203125 L 1.609375 -2.203125 C 1.773438 -2.203125 1.898438 -2.25 1.984375 -2.34375 C 2.078125 -2.4375 2.109375 -2.613281 2.078125 -2.875 L 1.484375 -6.296875 C 1.367188 -6.960938 1.351562 -7.460938 1.4375 -7.796875 C 1.519531 -8.140625 1.625 -8.382812 1.75 -8.53125 L 0.59375 -8.53125 L 0.59375 -10.734375 Z M 7.046875 -10.734375 "/></g></g></g><g fill="#61888d" fill-opacity="0.4"><g transform="translate(2.466989, 40.736708)"><g><path d="M 7.4375 -10.734375 C 7.96875 -10.734375 8.34375 -10.617188 8.5625 -10.390625 C 8.789062 -10.160156 8.90625 -9.78125 8.90625 -9.25 L 8.90625 -0.65625 C 8.90625 -0.414062 8.851562 -0.242188 8.75 -0.140625 C 8.65625 -0.046875 8.488281 0 8.25 0 L 2.046875 0 C 1.804688 0 1.632812 -0.046875 1.53125 -0.140625 C 1.425781 -0.242188 1.375 -0.414062 1.375 -0.65625 L 1.375 -7.390625 C 1.375 -7.921875 1.460938 -8.300781 1.640625 -8.53125 L 0.640625 -8.53125 L 0.640625 -10.734375 Z M 6.203125 -2.34375 L 6.203125 -8 C 6.203125 -8.238281 6.164062 -8.398438 6.09375 -8.484375 C 6.03125 -8.566406 5.890625 -8.609375 5.671875 -8.609375 L 4.59375 -8.609375 C 4.382812 -8.609375 4.242188 -8.550781 4.171875 -8.4375 C 4.109375 -8.332031 4.078125 -8.15625 4.078125 -7.90625 L 4.078125 -2.34375 C 4.078125 -2.257812 4.09375 -2.203125 4.125 -2.171875 C 4.15625 -2.140625 4.210938 -2.125 4.296875 -2.125 L 6 -2.125 C 6.09375 -2.125 6.148438 -2.140625 6.171875 -2.171875 C 6.191406 -2.203125 6.203125 -2.257812 6.203125 -2.34375 Z M 6.203125 -2.34375 "/></g></g></g><g fill="#61888d" fill-opacity="0.4"><g transform="translate(12.283073, 40.736708)"><g><path d="M 1.578125 -4.546875 L 1.578125 -8.140625 C 1.578125 -8.304688 1.546875 -8.410156 1.484375 -8.453125 C 1.429688 -8.503906 1.320312 -8.53125 1.15625 -8.53125 L 0.484375 -8.53125 L 0.484375 -10.734375 L 2.9375 -10.734375 C 3.445312 -10.734375 3.804688 -10.628906 4.015625 -10.421875 C 4.222656 -10.210938 4.328125 -9.851562 4.328125 -9.34375 L 4.328125 -4.546875 Z M 1.578125 -4.546875 "/></g></g></g><g fill="#61888d" fill-opacity="0.4"><g transform="translate(17.056928, 40.736708)"><g><path d="M 0.046875 0 L 0.046875 -2.203125 L 1.53125 -2.203125 C 1.789062 -2.203125 1.960938 -2.242188 2.046875 -2.328125 C 2.128906 -2.410156 2.171875 -2.582031 2.171875 -2.84375 L 2.171875 -8 C 2.171875 -8.207031 2.132812 -8.347656 2.0625 -8.421875 C 1.988281 -8.492188 1.847656 -8.53125 1.640625 -8.53125 L 1.015625 -8.53125 L 1.015625 -10.734375 L 3.296875 -10.734375 C 3.890625 -10.734375 4.3125 -10.597656 4.5625 -10.328125 C 4.8125 -10.054688 4.9375 -9.609375 4.9375 -8.984375 L 4.9375 -1.796875 C 4.9375 -1.140625 4.804688 -0.675781 4.546875 -0.40625 C 4.296875 -0.132812 3.863281 0 3.25 0 Z M 0.046875 0 "/></g></g></g><g fill="#61888d" fill-opacity="0.4"><g transform="translate(22.832137, 40.736708)"><g><path d="M 6.75 0 L 4.234375 0 L 3.1875 -3.75 C 3.082031 -3.707031 3.007812 -3.65625 2.96875 -3.59375 C 2.9375 -3.53125 2.910156 -3.453125 2.890625 -3.359375 L 2.640625 0 L 0.015625 0 L 0.515625 -4.09375 C 0.566406 -4.476562 0.671875 -4.769531 0.828125 -4.96875 C 0.984375 -5.175781 1.21875 -5.34375 1.53125 -5.46875 L 2.671875 -5.9375 C 2.859375 -6.019531 3 -6.128906 3.09375 -6.265625 C 3.1875 -6.398438 3.234375 -6.601562 3.234375 -6.875 L 3.234375 -8.046875 C 3.234375 -8.253906 3.203125 -8.382812 3.140625 -8.4375 C 3.085938 -8.5 2.957031 -8.53125 2.75 -8.53125 L 1.46875 -8.53125 L 1.46875 -10.734375 L 4.328125 -10.734375 C 4.847656 -10.734375 5.226562 -10.597656 5.46875 -10.328125 C 5.71875 -10.054688 5.84375 -9.625 5.84375 -9.03125 L 5.84375 -5.671875 C 5.84375 -5.398438 5.804688 -5.179688 5.734375 -5.015625 C 5.671875 -4.847656 5.570312 -4.710938 5.4375 -4.609375 Z M 6.75 0 "/></g></g></g><g fill="#61888d" fill-opacity="0.4"><g transform="translate(29.590717, 40.736708)"><g><path d="M 1.59375 0 L 1.59375 -8.140625 C 1.59375 -8.304688 1.566406 -8.410156 1.515625 -8.453125 C 1.460938 -8.503906 1.351562 -8.53125 1.1875 -8.53125 L 0.53125 -8.53125 L 0.53125 -10.734375 L 3.171875 -10.734375 C 3.609375 -10.734375 3.914062 -10.644531 4.09375 -10.46875 C 4.269531 -10.289062 4.359375 -9.984375 4.359375 -9.546875 L 4.359375 0 Z M 1.59375 0 "/></g></g></g><g fill="#61888d" fill-opacity="0.4"><g transform="translate(34.936822, 40.736708)"><g><path d="M 8.609375 -1.515625 C 8.628906 -0.992188 8.515625 -0.609375 8.265625 -0.359375 C 8.023438 -0.117188 7.625 0 7.0625 0 L 4.4375 0 L 4.4375 -2.203125 L 5.328125 -2.203125 C 5.523438 -2.203125 5.644531 -2.238281 5.6875 -2.3125 C 5.738281 -2.394531 5.757812 -2.523438 5.75 -2.703125 L 5.46875 -7.65625 C 5.457031 -8 5.410156 -8.242188 5.328125 -8.390625 C 5.253906 -8.535156 5.117188 -8.609375 4.921875 -8.609375 L 4.84375 -8.609375 C 4.6875 -8.609375 4.578125 -8.5625 4.515625 -8.46875 C 4.453125 -8.382812 4.398438 -8.203125 4.359375 -7.921875 L 3.3125 0 L 0.484375 0 L 1.484375 -6.890625 C 1.585938 -7.640625 1.796875 -8.1875 2.109375 -8.53125 L 0.78125 -8.53125 L 0.78125 -10.734375 L 5.890625 -10.734375 C 6.566406 -10.734375 7.113281 -10.546875 7.53125 -10.171875 C 7.945312 -9.804688 8.179688 -9.113281 8.234375 -8.09375 Z M 8.609375 -1.515625 "/></g></g></g><g fill="#61888d" fill-opacity="0.4"><g transform="translate(44.180758, 40.736708)"><g/></g></g><g fill="#61888d" fill-opacity="0.4"><g transform="translate(47.84615, 40.736708)"><g><path d="M 7.4375 -10.734375 C 7.96875 -10.734375 8.34375 -10.617188 8.5625 -10.390625 C 8.789062 -10.160156 8.90625 -9.78125 8.90625 -9.25 L 8.90625 -0.65625 C 8.90625 -0.414062 8.851562 -0.242188 8.75 -0.140625 C 8.65625 -0.046875 8.488281 0 8.25 0 L 2.046875 0 C 1.804688 0 1.632812 -0.046875 1.53125 -0.140625 C 1.425781 -0.242188 1.375 -0.414062 1.375 -0.65625 L 1.375 -7.390625 C 1.375 -7.921875 1.460938 -8.300781 1.640625 -8.53125 L 0.640625 -8.53125 L 0.640625 -10.734375 Z M 6.203125 -2.34375 L 6.203125 -8 C 6.203125 -8.238281 6.164062 -8.398438 6.09375 -8.484375 C 6.03125 -8.566406 5.890625 -8.609375 5.671875 -8.609375 L 4.59375 -8.609375 C 4.382812 -8.609375 4.242188 -8.550781 4.171875 -8.4375 C 4.109375 -8.332031 4.078125 -8.15625 4.078125 -7.90625 L 4.078125 -2.34375 C 4.078125 -2.257812 4.09375 -2.203125 4.125 -2.171875 C 4.15625 -2.140625 4.210938 -2.125 4.296875 -2.125 L 6 -2.125 C 6.09375 -2.125 6.148438 -2.140625 6.171875 -2.171875 C 6.191406 -2.203125 6.203125 -2.257812 6.203125 -2.34375 Z M 6.203125 -2.34375 "/></g></g></g><g fill="#61888d" fill-opacity="0.4"><g transform="translate(57.662234, 40.736708)"><g><path d="M 1.578125 -4.546875 L 1.578125 -8.140625 C 1.578125 -8.304688 1.546875 -8.410156 1.484375 -8.453125 C 1.429688 -8.503906 1.320312 -8.53125 1.15625 -8.53125 L 0.484375 -8.53125 L 0.484375 -10.734375 L 2.9375 -10.734375 C 3.445312 -10.734375 3.804688 -10.628906 4.015625 -10.421875 C 4.222656 -10.210938 4.328125 -9.851562 4.328125 -9.34375 L 4.328125 -4.546875 Z M 1.578125 -4.546875 "/></g></g></g><g fill="#61888d" fill-opacity="0.4"><g transform="translate(62.865308, 40.736708)"><g><path d="M 6.859375 -2.203125 L 7.390625 -2.203125 L 7.390625 0 L 0.328125 0 L 0.328125 -2.203125 L 3.8125 -2.203125 C 3.769531 -2.273438 3.738281 -2.359375 3.71875 -2.453125 C 3.695312 -2.554688 3.6875 -2.671875 3.6875 -2.796875 L 3.6875 -8 C 3.6875 -8.207031 3.648438 -8.347656 3.578125 -8.421875 C 3.503906 -8.492188 3.363281 -8.53125 3.15625 -8.53125 L 0.515625 -8.53125 L 0.515625 -10.734375 L 4.734375 -10.734375 C 5.367188 -10.734375 5.8125 -10.59375 6.0625 -10.3125 C 6.320312 -10.03125 6.453125 -9.550781 6.453125 -8.875 L 6.453125 -2.640625 C 6.453125 -2.347656 6.585938 -2.203125 6.859375 -2.203125 Z M 6.859375 -2.203125 "/></g></g></g><g fill="#61888d" fill-opacity="0.4"><g transform="translate(70.249692, 40.736708)"><g><path d="M 10 -10.734375 L 10 -8.53125 L 8.984375 -8.53125 C 9.109375 -8.300781 9.171875 -7.875 9.171875 -7.25 L 9.171875 0 L 6.40625 0 L 6.40625 -7.734375 C 6.40625 -8.078125 6.378906 -8.296875 6.328125 -8.390625 C 6.273438 -8.484375 6.164062 -8.53125 6 -8.53125 L 4.640625 -8.53125 C 4.484375 -8.53125 4.375 -8.484375 4.3125 -8.390625 C 4.257812 -8.296875 4.234375 -8.078125 4.234375 -7.734375 L 4.234375 0 L 1.46875 0 L 1.46875 -7.25 C 1.46875 -7.875 1.53125 -8.300781 1.65625 -8.53125 L 0.640625 -8.53125 L 0.640625 -10.734375 Z M 10 -10.734375 "/></g></g></g><g fill="#61888d" fill-opacity="0.4"><g transform="translate(80.995569, 40.736708)"><g><path d="M 3.421875 0 L 3.421875 -7.890625 C 3.421875 -8.316406 3.203125 -8.53125 2.765625 -8.53125 L 0.25 -8.53125 L 0.25 -10.734375 L 4.390625 -10.734375 C 5.054688 -10.734375 5.519531 -10.59375 5.78125 -10.3125 C 6.050781 -10.039062 6.1875 -9.578125 6.1875 -8.921875 L 6.1875 0 Z M 3.421875 0 "/></g></g></g><g fill="#61888d" fill-opacity="0.4"><g transform="translate(88.165429, 40.736708)"><g><path d="M 8.609375 -1.515625 C 8.628906 -0.992188 8.515625 -0.609375 8.265625 -0.359375 C 8.023438 -0.117188 7.625 0 7.0625 0 L 4.4375 0 L 4.4375 -2.203125 L 5.328125 -2.203125 C 5.523438 -2.203125 5.644531 -2.238281 5.6875 -2.3125 C 5.738281 -2.394531 5.757812 -2.523438 5.75 -2.703125 L 5.46875 -7.65625 C 5.457031 -8 5.410156 -8.242188 5.328125 -8.390625 C 5.253906 -8.535156 5.117188 -8.609375 4.921875 -8.609375 L 4.84375 -8.609375 C 4.6875 -8.609375 4.578125 -8.5625 4.515625 -8.46875 C 4.453125 -8.382812 4.398438 -8.203125 4.359375 -7.921875 L 3.3125 0 L 0.484375 0 L 1.484375 -6.890625 C 1.585938 -7.640625 1.796875 -8.1875 2.109375 -8.53125 L 0.78125 -8.53125 L 0.78125 -10.734375 L 5.890625 -10.734375 C 6.566406 -10.734375 7.113281 -10.546875 7.53125 -10.171875 C 7.945312 -9.804688 8.179688 -9.113281 8.234375 -8.09375 Z M 8.609375 -1.515625 "/></g></g></g><g fill="#61888d" fill-opacity="0.4"><g transform="translate(97.176869, 40.736708)"><g><path d="M 2.859375 0 C 2.171875 0 1.707031 -0.21875 1.46875 -0.65625 C 1.226562 -1.09375 1.238281 -1.710938 1.5 -2.515625 L 3.25 -7.96875 C 3.375 -8.34375 3.242188 -8.53125 2.859375 -8.53125 L 0.765625 -8.53125 C 0.578125 -8.53125 0.441406 -8.566406 0.359375 -8.640625 C 0.285156 -8.722656 0.25 -8.867188 0.25 -9.078125 L 0.25 -12.171875 L 2.859375 -12.171875 L 2.859375 -10.734375 L 4.78125 -10.734375 C 5.457031 -10.734375 5.929688 -10.507812 6.203125 -10.0625 C 6.472656 -9.613281 6.488281 -9.019531 6.25 -8.28125 L 4.34375 -2.671875 C 4.300781 -2.535156 4.289062 -2.421875 4.3125 -2.328125 C 4.34375 -2.242188 4.4375 -2.203125 4.59375 -2.203125 L 5.390625 -2.203125 L 5.390625 0 Z M 2.859375 0 "/></g></g></g><g fill="#61888d" fill-opacity="1"><g transform="translate(9.322794, 15.18735)"><g><path d="M 1.578125 -4.546875 L 1.578125 -8.140625 C 1.578125 -8.304688 1.546875 -8.410156 1.484375 -8.453125 C 1.429688 -8.503906 1.320312 -8.53125 1.15625 -8.53125 L 0.484375 -8.53125 L 0.484375 -10.734375 L 2.9375 -10.734375 C 3.445312 -10.734375 3.804688 -10.628906 4.015625 -10.421875 C 4.222656 -10.210938 4.328125 -9.851562 4.328125 -9.34375 L 4.328125 -4.546875 Z M 1.578125 -4.546875 "/></g></g></g><g fill="#61888d" fill-opacity="1"><g transform="translate(14.579524, 15.18735)"><g><path d="M 2.859375 0 C 2.171875 0 1.707031 -0.21875 1.46875 -0.65625 C 1.226562 -1.09375 1.238281 -1.710938 1.5 -2.515625 L 3.25 -7.96875 C 3.375 -8.34375 3.242188 -8.53125 2.859375 -8.53125 L 0.765625 -8.53125 C 0.578125 -8.53125 0.441406 -8.566406 0.359375 -8.640625 C 0.285156 -8.722656 0.25 -8.867188 0.25 -9.078125 L 0.25 -12.171875 L 2.859375 -12.171875 L 2.859375 -10.734375 L 4.78125 -10.734375 C 5.457031 -10.734375 5.929688 -10.507812 6.203125 -10.0625 C 6.472656 -9.613281 6.488281 -9.019531 6.25 -8.28125 L 4.34375 -2.671875 C 4.300781 -2.535156 4.289062 -2.421875 4.3125 -2.328125 C 4.34375 -2.242188 4.4375 -2.203125 4.59375 -2.203125 L 5.390625 -2.203125 L 5.390625 0 Z M 2.859375 0 "/></g></g></g><g fill="#61888d" fill-opacity="1"><g transform="translate(21.481192, 15.18735)"><g><path d="M 0.328125 0 L 0.328125 -2.203125 L 3.078125 -2.203125 C 3.296875 -2.203125 3.441406 -2.238281 3.515625 -2.3125 C 3.585938 -2.382812 3.625 -2.519531 3.625 -2.71875 L 3.625 -8 C 3.625 -8.207031 3.585938 -8.347656 3.515625 -8.421875 C 3.441406 -8.492188 3.296875 -8.53125 3.078125 -8.53125 L 0.515625 -8.53125 L 0.515625 -10.734375 L 4.703125 -10.734375 C 5.328125 -10.734375 5.765625 -10.601562 6.015625 -10.34375 C 6.273438 -10.09375 6.40625 -9.65625 6.40625 -9.03125 L 6.40625 -1.6875 C 6.40625 -1.070312 6.273438 -0.632812 6.015625 -0.375 C 5.765625 -0.125 5.328125 0 4.703125 0 Z M 0.328125 0 "/></g></g></g><g fill="#61888d" fill-opacity="1"><g transform="translate(28.776213, 15.18735)"><g><path d="M 1.578125 -4.546875 L 1.578125 -8.140625 C 1.578125 -8.304688 1.546875 -8.410156 1.484375 -8.453125 C 1.429688 -8.503906 1.320312 -8.53125 1.15625 -8.53125 L 0.484375 -8.53125 L 0.484375 -10.734375 L 2.9375 -10.734375 C 3.445312 -10.734375 3.804688 -10.628906 4.015625 -10.421875 C 4.222656 -10.210938 4.328125 -9.851562 4.328125 -9.34375 L 4.328125 -4.546875 Z M 1.578125 -4.546875 "/></g></g></g><g fill="#61888d" fill-opacity="1"><g transform="translate(34.032943, 15.18735)"><g><path d="M 3.421875 0 L 3.421875 -7.890625 C 3.421875 -8.316406 3.203125 -8.53125 2.765625 -8.53125 L 0.25 -8.53125 L 0.25 -10.734375 L 4.390625 -10.734375 C 5.054688 -10.734375 5.519531 -10.59375 5.78125 -10.3125 C 6.050781 -10.039062 6.1875 -9.578125 6.1875 -8.921875 L 6.1875 0 Z M 3.421875 0 "/></g></g></g><g fill="#61888d" fill-opacity="1"><g transform="translate(41.202803, 15.18735)"><g><path d="M 0.25 -10.734375 L 6.828125 -10.734375 L 6.828125 -8.53125 L 6.46875 -8.53125 C 6.101562 -8.53125 5.921875 -8.285156 5.921875 -7.796875 L 5.921875 0 L 3.3125 0 L 3.3125 -7.390625 C 3.3125 -7.890625 3.390625 -8.269531 3.546875 -8.53125 L 0.25 -8.53125 Z M 0.25 -10.734375 "/></g></g></g><g fill="#61888d" fill-opacity="1"><g transform="translate(48.515705, 15.18735)"><g><path d="M 3.578125 -5.625 C 3.421875 -5.5625 3.332031 -5.472656 3.3125 -5.359375 C 3.289062 -5.253906 3.304688 -5.082031 3.359375 -4.84375 L 4.171875 -2.25 C 4.367188 -1.601562 4.40625 -1.066406 4.28125 -0.640625 C 4.164062 -0.210938 3.804688 0 3.203125 0 L 0.609375 0 L 0.609375 -2.203125 L 1.1875 -2.203125 C 1.332031 -2.203125 1.394531 -2.265625 1.375 -2.390625 L 0.90625 -4.640625 C 0.789062 -5.191406 0.78125 -5.644531 0.875 -6 C 0.976562 -6.363281 1.148438 -6.664062 1.390625 -6.90625 C 1.640625 -7.144531 1.910156 -7.34375 2.203125 -7.5 L 2.46875 -7.640625 L 0.625 -10.734375 L 3.453125 -10.734375 L 5.953125 -6.21875 C 6.046875 -6.28125 6.109375 -6.351562 6.140625 -6.4375 C 6.179688 -6.53125 6.203125 -6.679688 6.203125 -6.890625 L 6.203125 -10.734375 L 8.859375 -10.734375 L 8.859375 -6.671875 C 8.859375 -6.117188 8.742188 -5.65625 8.515625 -5.28125 C 8.296875 -4.90625 7.914062 -4.550781 7.375 -4.21875 L 7.125 -4.0625 L 9.21875 0 L 6.421875 0 L 3.59375 -5.625 Z M 3.578125 -5.625 "/></g></g></g><g fill="#61888d" fill-opacity="1"><g transform="translate(58.099361, 15.18735)"><g/></g></g><g fill="#61888d" fill-opacity="1"><g transform="translate(61.764753, 15.18735)"><g><path d="M 1.59375 2.734375 L 1.59375 -8.140625 C 1.59375 -8.304688 1.566406 -8.410156 1.515625 -8.453125 C 1.460938 -8.503906 1.351562 -8.53125 1.1875 -8.53125 L 0.53125 -8.53125 L 0.53125 -10.734375 L 3.171875 -10.734375 C 3.609375 -10.734375 3.914062 -10.644531 4.09375 -10.46875 C 4.269531 -10.289062 4.359375 -9.984375 4.359375 -9.546875 L 4.359375 2.734375 Z M 1.59375 2.734375 "/></g></g></g><g fill="#61888d" fill-opacity="1"><g transform="translate(67.110857, 15.18735)"><g><path d="M 1.59375 0 L 1.59375 -8.140625 C 1.59375 -8.304688 1.566406 -8.410156 1.515625 -8.453125 C 1.460938 -8.503906 1.351562 -8.53125 1.1875 -8.53125 L 0.53125 -8.53125 L 0.53125 -10.734375 L 3.171875 -10.734375 C 3.609375 -10.734375 3.914062 -10.644531 4.09375 -10.46875 C 4.269531 -10.289062 4.359375 -9.984375 4.359375 -9.546875 L 4.359375 0 Z M 1.59375 0 "/></g></g></g><g fill="#61888d" fill-opacity="1"><g transform="translate(72.456962, 15.18735)"><g><path d="M 0.046875 0 L 0.046875 -2.203125 L 1.53125 -2.203125 C 1.789062 -2.203125 1.960938 -2.242188 2.046875 -2.328125 C 2.128906 -2.410156 2.171875 -2.582031 2.171875 -2.84375 L 2.171875 -8 C 2.171875 -8.207031 2.132812 -8.347656 2.0625 -8.421875 C 1.988281 -8.492188 1.847656 -8.53125 1.640625 -8.53125 L 1.015625 -8.53125 L 1.015625 -10.734375 L 3.296875 -10.734375 C 3.890625 -10.734375 4.3125 -10.597656 4.5625 -10.328125 C 4.8125 -10.054688 4.9375 -9.609375 4.9375 -8.984375 L 4.9375 -1.796875 C 4.9375 -1.140625 4.804688 -0.675781 4.546875 -0.40625 C 4.296875 -0.132812 3.863281 0 3.25 0 Z M 0.046875 0 "/></g></g></g><g fill="#61888d" fill-opacity="1"><g transform="translate(78.160645, 15.18735)"><g><path d="M 0.328125 0 L 0.328125 -2.203125 L 3.078125 -2.203125 C 3.296875 -2.203125 3.441406 -2.238281 3.515625 -2.3125 C 3.585938 -2.382812 3.625 -2.519531 3.625 -2.71875 L 3.625 -8 C 3.625 -8.207031 3.585938 -8.347656 3.515625 -8.421875 C 3.441406 -8.492188 3.296875 -8.53125 3.078125 -8.53125 L 0.515625 -8.53125 L 0.515625 -10.734375 L 4.703125 -10.734375 C 5.328125 -10.734375 5.765625 -10.601562 6.015625 -10.34375 C 6.273438 -10.09375 6.40625 -9.65625 6.40625 -9.03125 L 6.40625 -1.6875 C 6.40625 -1.070312 6.273438 -0.632812 6.015625 -0.375 C 5.765625 -0.125 5.328125 0 4.703125 0 Z M 0.328125 0 "/></g></g></g><g fill="#61888d" fill-opacity="1"><g transform="translate(85.455665, 15.18735)"><g><path d="M 7.046875 -10.734375 C 7.710938 -10.734375 8.1875 -10.59375 8.46875 -10.3125 C 8.75 -10.03125 8.890625 -9.550781 8.890625 -8.875 L 8.890625 0 L 6.125 0 L 6.125 -7.921875 C 6.125 -8.160156 6.082031 -8.332031 6 -8.4375 C 5.914062 -8.550781 5.757812 -8.609375 5.53125 -8.609375 L 5.046875 -8.609375 C 4.640625 -8.609375 4.359375 -8.484375 4.203125 -8.234375 C 4.046875 -7.984375 4.039062 -7.457031 4.1875 -6.65625 L 4.828125 -2.890625 C 5.003906 -1.921875 4.945312 -1.195312 4.65625 -0.71875 C 4.375 -0.238281 3.800781 0 2.9375 0 L 0.546875 0 L 0.546875 -2.203125 L 1.609375 -2.203125 C 1.773438 -2.203125 1.898438 -2.25 1.984375 -2.34375 C 2.078125 -2.4375 2.109375 -2.613281 2.078125 -2.875 L 1.484375 -6.296875 C 1.367188 -6.960938 1.351562 -7.460938 1.4375 -7.796875 C 1.519531 -8.140625 1.625 -8.382812 1.75 -8.53125 L 0.59375 -8.53125 L 0.59375 -10.734375 Z M 7.046875 -10.734375 "/></g></g></g><g fill="#61888d" fill-opacity="1"><g transform="translate(1.518531, 39.788252)"><g><path d="M 7.4375 -10.734375 C 7.96875 -10.734375 8.34375 -10.617188 8.5625 -10.390625 C 8.789062 -10.160156 8.90625 -9.78125 8.90625 -9.25 L 8.90625 -0.65625 C 8.90625 -0.414062 8.851562 -0.242188 8.75 -0.140625 C 8.65625 -0.046875 8.488281 0 8.25 0 L 2.046875 0 C 1.804688 0 1.632812 -0.046875 1.53125 -0.140625 C 1.425781 -0.242188 1.375 -0.414062 1.375 -0.65625 L 1.375 -7.390625 C 1.375 -7.921875 1.460938 -8.300781 1.640625 -8.53125 L 0.640625 -8.53125 L 0.640625 -10.734375 Z M 6.203125 -2.34375 L 6.203125 -8 C 6.203125 -8.238281 6.164062 -8.398438 6.09375 -8.484375 C 6.03125 -8.566406 5.890625 -8.609375 5.671875 -8.609375 L 4.59375 -8.609375 C 4.382812 -8.609375 4.242188 -8.550781 4.171875 -8.4375 C 4.109375 -8.332031 4.078125 -8.15625 4.078125 -7.90625 L 4.078125 -2.34375 C 4.078125 -2.257812 4.09375 -2.203125 4.125 -2.171875 C 4.15625 -2.140625 4.210938 -2.125 4.296875 -2.125 L 6 -2.125 C 6.09375 -2.125 6.148438 -2.140625 6.171875 -2.171875 C 6.191406 -2.203125 6.203125 -2.257812 6.203125 -2.34375 Z M 6.203125 -2.34375 "/></g></g></g><g fill="#61888d" fill-opacity="1"><g transform="translate(11.334615, 39.788252)"><g><path d="M 1.578125 -4.546875 L 1.578125 -8.140625 C 1.578125 -8.304688 1.546875 -8.410156 1.484375 -8.453125 C 1.429688 -8.503906 1.320312 -8.53125 1.15625 -8.53125 L 0.484375 -8.53125 L 0.484375 -10.734375 L 2.9375 -10.734375 C 3.445312 -10.734375 3.804688 -10.628906 4.015625 -10.421875 C 4.222656 -10.210938 4.328125 -9.851562 4.328125 -9.34375 L 4.328125 -4.546875 Z M 1.578125 -4.546875 "/></g></g></g><g fill="#61888d" fill-opacity="1"><g transform="translate(16.10847, 39.788252)"><g><path d="M 0.046875 0 L 0.046875 -2.203125 L 1.53125 -2.203125 C 1.789062 -2.203125 1.960938 -2.242188 2.046875 -2.328125 C 2.128906 -2.410156 2.171875 -2.582031 2.171875 -2.84375 L 2.171875 -8 C 2.171875 -8.207031 2.132812 -8.347656 2.0625 -8.421875 C 1.988281 -8.492188 1.847656 -8.53125 1.640625 -8.53125 L 1.015625 -8.53125 L 1.015625 -10.734375 L 3.296875 -10.734375 C 3.890625 -10.734375 4.3125 -10.597656 4.5625 -10.328125 C 4.8125 -10.054688 4.9375 -9.609375 4.9375 -8.984375 L 4.9375 -1.796875 C 4.9375 -1.140625 4.804688 -0.675781 4.546875 -0.40625 C 4.296875 -0.132812 3.863281 0 3.25 0 Z M 0.046875 0 "/></g></g></g><g fill="#61888d" fill-opacity="1"><g transform="translate(21.883679, 39.788252)"><g><path d="M 6.75 0 L 4.234375 0 L 3.1875 -3.75 C 3.082031 -3.707031 3.007812 -3.65625 2.96875 -3.59375 C 2.9375 -3.53125 2.910156 -3.453125 2.890625 -3.359375 L 2.640625 0 L 0.015625 0 L 0.515625 -4.09375 C 0.566406 -4.476562 0.671875 -4.769531 0.828125 -4.96875 C 0.984375 -5.175781 1.21875 -5.34375 1.53125 -5.46875 L 2.671875 -5.9375 C 2.859375 -6.019531 3 -6.128906 3.09375 -6.265625 C 3.1875 -6.398438 3.234375 -6.601562 3.234375 -6.875 L 3.234375 -8.046875 C 3.234375 -8.253906 3.203125 -8.382812 3.140625 -8.4375 C 3.085938 -8.5 2.957031 -8.53125 2.75 -8.53125 L 1.46875 -8.53125 L 1.46875 -10.734375 L 4.328125 -10.734375 C 4.847656 -10.734375 5.226562 -10.597656 5.46875 -10.328125 C 5.71875 -10.054688 5.84375 -9.625 5.84375 -9.03125 L 5.84375 -5.671875 C 5.84375 -5.398438 5.804688 -5.179688 5.734375 -5.015625 C 5.671875 -4.847656 5.570312 -4.710938 5.4375 -4.609375 Z M 6.75 0 "/></g></g></g><g fill="#61888d" fill-opacity="1"><g transform="translate(28.642259, 39.788252)"><g><path d="M 1.59375 0 L 1.59375 -8.140625 C 1.59375 -8.304688 1.566406 -8.410156 1.515625 -8.453125 C 1.460938 -8.503906 1.351562 -8.53125 1.1875 -8.53125 L 0.53125 -8.53125 L 0.53125 -10.734375 L 3.171875 -10.734375 C 3.609375 -10.734375 3.914062 -10.644531 4.09375 -10.46875 C 4.269531 -10.289062 4.359375 -9.984375 4.359375 -9.546875 L 4.359375 0 Z M 1.59375 0 "/></g></g></g><g fill="#61888d" fill-opacity="1"><g transform="translate(33.988364, 39.788252)"><g><path d="M 8.609375 -1.515625 C 8.628906 -0.992188 8.515625 -0.609375 8.265625 -0.359375 C 8.023438 -0.117188 7.625 0 7.0625 0 L 4.4375 0 L 4.4375 -2.203125 L 5.328125 -2.203125 C 5.523438 -2.203125 5.644531 -2.238281 5.6875 -2.3125 C 5.738281 -2.394531 5.757812 -2.523438 5.75 -2.703125 L 5.46875 -7.65625 C 5.457031 -8 5.410156 -8.242188 5.328125 -8.390625 C 5.253906 -8.535156 5.117188 -8.609375 4.921875 -8.609375 L 4.84375 -8.609375 C 4.6875 -8.609375 4.578125 -8.5625 4.515625 -8.46875 C 4.453125 -8.382812 4.398438 -8.203125 4.359375 -7.921875 L 3.3125 0 L 0.484375 0 L 1.484375 -6.890625 C 1.585938 -7.640625 1.796875 -8.1875 2.109375 -8.53125 L 0.78125 -8.53125 L 0.78125 -10.734375 L 5.890625 -10.734375 C 6.566406 -10.734375 7.113281 -10.546875 7.53125 -10.171875 C 7.945312 -9.804688 8.179688 -9.113281 8.234375 -8.09375 Z M 8.609375 -1.515625 "/></g></g></g><g fill="#61888d" fill-opacity="1"><g transform="translate(43.2323, 39.788252)"><g/></g></g><g fill="#61888d" fill-opacity="1"><g transform="translate(46.897692, 39.788252)"><g><path d="M 7.4375 -10.734375 C 7.96875 -10.734375 8.34375 -10.617188 8.5625 -10.390625 C 8.789062 -10.160156 8.90625 -9.78125 8.90625 -9.25 L 8.90625 -0.65625 C 8.90625 -0.414062 8.851562 -0.242188 8.75 -0.140625 C 8.65625 -0.046875 8.488281 0 8.25 0 L 2.046875 0 C 1.804688 0 1.632812 -0.046875 1.53125 -0.140625 C 1.425781 -0.242188 1.375 -0.414062 1.375 -0.65625 L 1.375 -7.390625 C 1.375 -7.921875 1.460938 -8.300781 1.640625 -8.53125 L 0.640625 -8.53125 L 0.640625 -10.734375 Z M 6.203125 -2.34375 L 6.203125 -8 C 6.203125 -8.238281 6.164062 -8.398438 6.09375 -8.484375 C 6.03125 -8.566406 5.890625 -8.609375 5.671875 -8.609375 L 4.59375 -8.609375 C 4.382812 -8.609375 4.242188 -8.550781 4.171875 -8.4375 C 4.109375 -8.332031 4.078125 -8.15625 4.078125 -7.90625 L 4.078125 -2.34375 C 4.078125 -2.257812 4.09375 -2.203125 4.125 -2.171875 C 4.15625 -2.140625 4.210938 -2.125 4.296875 -2.125 L 6 -2.125 C 6.09375 -2.125 6.148438 -2.140625 6.171875 -2.171875 C 6.191406 -2.203125 6.203125 -2.257812 6.203125 -2.34375 Z M 6.203125 -2.34375 "/></g></g></g><g fill="#61888d" fill-opacity="1"><g transform="translate(56.713776, 39.788252)"><g><path d="M 1.578125 -4.546875 L 1.578125 -8.140625 C 1.578125 -8.304688 1.546875 -8.410156 1.484375 -8.453125 C 1.429688 -8.503906 1.320312 -8.53125 1.15625 -8.53125 L 0.484375 -8.53125 L 0.484375 -10.734375 L 2.9375 -10.734375 C 3.445312 -10.734375 3.804688 -10.628906 4.015625 -10.421875 C 4.222656 -10.210938 4.328125 -9.851562 4.328125 -9.34375 L 4.328125 -4.546875 Z M 1.578125 -4.546875 "/></g></g></g><g fill="#61888d" fill-opacity="1"><g transform="translate(61.91685, 39.788252)"><g><path d="M 6.859375 -2.203125 L 7.390625 -2.203125 L 7.390625 0 L 0.328125 0 L 0.328125 -2.203125 L 3.8125 -2.203125 C 3.769531 -2.273438 3.738281 -2.359375 3.71875 -2.453125 C 3.695312 -2.554688 3.6875 -2.671875 3.6875 -2.796875 L 3.6875 -8 C 3.6875 -8.207031 3.648438 -8.347656 3.578125 -8.421875 C 3.503906 -8.492188 3.363281 -8.53125 3.15625 -8.53125 L 0.515625 -8.53125 L 0.515625 -10.734375 L 4.734375 -10.734375 C 5.367188 -10.734375 5.8125 -10.59375 6.0625 -10.3125 C 6.320312 -10.03125 6.453125 -9.550781 6.453125 -8.875 L 6.453125 -2.640625 C 6.453125 -2.347656 6.585938 -2.203125 6.859375 -2.203125 Z M 6.859375 -2.203125 "/></g></g></g><g fill="#61888d" fill-opacity="1"><g transform="translate(69.301234, 39.788252)"><g><path d="M 10 -10.734375 L 10 -8.53125 L 8.984375 -8.53125 C 9.109375 -8.300781 9.171875 -7.875 9.171875 -7.25 L 9.171875 0 L 6.40625 0 L 6.40625 -7.734375 C 6.40625 -8.078125 6.378906 -8.296875 6.328125 -8.390625 C 6.273438 -8.484375 6.164062 -8.53125 6 -8.53125 L 4.640625 -8.53125 C 4.484375 -8.53125 4.375 -8.484375 4.3125 -8.390625 C 4.257812 -8.296875 4.234375 -8.078125 4.234375 -7.734375 L 4.234375 0 L 1.46875 0 L 1.46875 -7.25 C 1.46875 -7.875 1.53125 -8.300781 1.65625 -8.53125 L 0.640625 -8.53125 L 0.640625 -10.734375 Z M 10 -10.734375 "/></g></g></g><g fill="#61888d" fill-opacity="1"><g transform="translate(80.047111, 39.788252)"><g><path d="M 3.421875 0 L 3.421875 -7.890625 C 3.421875 -8.316406 3.203125 -8.53125 2.765625 -8.53125 L 0.25 -8.53125 L 0.25 -10.734375 L 4.390625 -10.734375 C 5.054688 -10.734375 5.519531 -10.59375 5.78125 -10.3125 C 6.050781 -10.039062 6.1875 -9.578125 6.1875 -8.921875 L 6.1875 0 Z M 3.421875 0 "/></g></g></g><g fill="#61888d" fill-opacity="1"><g transform="translate(87.216971, 39.788252)"><g><path d="M 8.609375 -1.515625 C 8.628906 -0.992188 8.515625 -0.609375 8.265625 -0.359375 C 8.023438 -0.117188 7.625 0 7.0625 0 L 4.4375 0 L 4.4375 -2.203125 L 5.328125 -2.203125 C 5.523438 -2.203125 5.644531 -2.238281 5.6875 -2.3125 C 5.738281 -2.394531 5.757812 -2.523438 5.75 -2.703125 L 5.46875 -7.65625 C 5.457031 -8 5.410156 -8.242188 5.328125 -8.390625 C 5.253906 -8.535156 5.117188 -8.609375 4.921875 -8.609375 L 4.84375 -8.609375 C 4.6875 -8.609375 4.578125 -8.5625 4.515625 -8.46875 C 4.453125 -8.382812 4.398438 -8.203125 4.359375 -7.921875 L 3.3125 0 L 0.484375 0 L 1.484375 -6.890625 C 1.585938 -7.640625 1.796875 -8.1875 2.109375 -8.53125 L 0.78125 -8.53125 L 0.78125 -10.734375 L 5.890625 -10.734375 C 6.566406 -10.734375 7.113281 -10.546875 7.53125 -10.171875 C 7.945312 -9.804688 8.179688 -9.113281 8.234375 -8.09375 Z M 8.609375 -1.515625 "/></g></g></g><g fill="#61888d" fill-opacity="1"><g transform="translate(96.228411, 39.788252)"><g><path d="M 2.859375 0 C 2.171875 0 1.707031 -0.21875 1.46875 -0.65625 C 1.226562 -1.09375 1.238281 -1.710938 1.5 -2.515625 L 3.25 -7.96875 C 3.375 -8.34375 3.242188 -8.53125 2.859375 -8.53125 L 0.765625 -8.53125 C 0.578125 -8.53125 0.441406 -8.566406 0.359375 -8.640625 C 0.285156 -8.722656 0.25 -8.867188 0.25 -9.078125 L 0.25 -12.171875 L 2.859375 -12.171875 L 2.859375 -10.734375 L 4.78125 -10.734375 C 5.457031 -10.734375 5.929688 -10.507812 6.203125 -10.0625 C 6.472656 -9.613281 6.488281 -9.019531 6.25 -8.28125 L 4.34375 -2.671875 C 4.300781 -2.535156 4.289062 -2.421875 4.3125 -2.328125 C 4.34375 -2.242188 4.4375 -2.203125 4.59375 -2.203125 L 5.390625 -2.203125 L 5.390625 0 Z M 2.859375 0 "/></g></g></g></g></g><g clip-path="url(#a7bdfbb39c)"><path fill="#61888d" d="M 90.292969 81.597656 C 88.222656 81.425781 85.292969 81.234375 77.011719 80.738281 C 70.601562 80.355469 69.179688 80.242188 61.019531 79.46875 C 56.921875 79.078125 56.6875 79.050781 55.679688 78.910156 C 55.046875 78.824219 54.785156 78.804688 54.75 78.839844 C 54.652344 78.9375 40.234375 78.871094 40.203125 78.769531 C 40.191406 78.742188 40.214844 78.679688 40.253906 78.628906 C 40.320312 78.535156 40.425781 78.53125 45.398438 78.507812 L 50.472656 78.484375 L 50.496094 39.660156 C 50.519531 3.453125 50.523438 0.828125 50.601562 0.753906 C 50.648438 0.707031 50.714844 0.6875 50.761719 0.707031 C 50.804688 0.722656 57.988281 0.738281 66.71875 0.742188 C 75.453125 0.746094 82.566406 0.753906 82.527344 0.765625 C 82.488281 0.773438 82.011719 0.839844 81.472656 0.910156 L 80.488281 1.039062 L 65.671875 1.058594 C 57.523438 1.070312 50.847656 1.085938 50.835938 1.097656 C 50.800781 1.136719 50.835938 78.433594 50.875 78.472656 C 50.894531 78.492188 51.640625 78.503906 52.535156 78.496094 L 54.164062 78.484375 L 54.179688 41.351562 C 54.1875 17.523438 54.210938 4.1875 54.242188 4.128906 C 54.28125 4.058594 54.351562 4.042969 54.695312 4.042969 C 55.164062 4.042969 57.84375 3.78125 59.839844 3.539062 C 62.9375 3.160156 64.289062 3.015625 66.992188 2.773438 C 70.535156 2.453125 72.878906 2.199219 76.917969 1.695312 C 82.363281 1.015625 87.160156 0.507812 91.273438 0.183594 C 91.796875 0.140625 92.265625 0.0859375 92.3125 0.0625 C 92.425781 0 92.976562 0.136719 93.1875 0.277344 L 93.339844 0.378906 L 93.351562 2.125 C 93.359375 3.449219 93.378906 3.878906 93.421875 3.910156 C 93.457031 3.929688 94.199219 3.945312 95.070312 3.945312 L 96.660156 3.945312 L 96.699219 4.078125 C 96.71875 4.152344 96.746094 20.929688 96.753906 41.359375 L 96.769531 78.507812 L 100.003906 78.484375 L 100.003906 1.046875 L 93.695312 1.046875 L 93.707031 0.902344 L 93.722656 0.757812 L 96.898438 0.746094 C 100.054688 0.734375 100.074219 0.734375 100.074219 0.828125 C 100.074219 0.914062 100.085938 0.917969 100.171875 0.867188 C 100.253906 0.816406 100.277344 0.820312 100.316406 0.878906 C 100.34375 0.925781 100.363281 15.167969 100.363281 39.71875 L 100.363281 78.484375 L 104.523438 78.492188 C 106.808594 78.496094 108.71875 78.5 108.765625 78.503906 C 108.890625 78.511719 108.867188 78.679688 108.722656 78.792969 L 108.597656 78.890625 L 101.003906 78.878906 L 93.414062 78.867188 L 93.398438 79.898438 C 93.394531 80.464844 93.398438 80.9375 93.421875 80.945312 C 93.488281 80.976562 93.457031 81.128906 93.371094 81.207031 C 93.324219 81.25 93.078125 81.382812 92.828125 81.503906 C 92.273438 81.765625 92.28125 81.765625 90.292969 81.597656 Z M 92.222656 40.976562 C 92.230469 18.726562 92.222656 0.5 92.203125 0.480469 C 92.171875 0.433594 91.644531 0.472656 89.121094 0.691406 C 85.542969 1.003906 81.644531 1.421875 77.347656 1.957031 C 72.890625 2.511719 70.941406 2.726562 66.75 3.109375 C 64.023438 3.359375 63.417969 3.425781 60.398438 3.78125 C 58.046875 4.058594 55.449219 4.324219 54.859375 4.34375 L 54.5 4.355469 L 54.476562 78.449219 L 54.753906 78.484375 C 54.902344 78.5 55.414062 78.566406 55.890625 78.628906 C 56.363281 78.695312 58.457031 78.90625 60.542969 79.105469 C 69.394531 79.945312 70.96875 80.070312 78.640625 80.523438 C 85.828125 80.949219 90.429688 81.253906 91.636719 81.382812 C 91.835938 81.40625 92.042969 81.425781 92.101562 81.429688 L 92.207031 81.433594 Z M 90.753906 45.910156 C 90.738281 45.886719 90.632812 45.863281 90.519531 45.863281 C 90.410156 45.863281 89.984375 45.800781 89.574219 45.722656 C 89.167969 45.640625 88.554688 45.539062 88.21875 45.492188 C 87.78125 45.433594 87.609375 45.390625 87.609375 45.34375 C 87.609375 45.308594 87.585938 45.28125 87.5625 45.28125 C 87.527344 45.28125 87.511719 44.328125 87.511719 42.519531 L 87.511719 39.761719 L 87.667969 39.773438 L 87.824219 39.789062 L 87.835938 42.476562 L 87.847656 45.160156 L 88.363281 45.222656 C 88.648438 45.257812 89.289062 45.359375 89.789062 45.449219 C 90.289062 45.539062 90.707031 45.605469 90.710938 45.597656 C 90.71875 45.589844 90.726562 43.460938 90.726562 40.867188 L 90.730469 36.144531 L 90.539062 36.144531 C 90.429688 36.144531 89.773438 36.152344 89.074219 36.15625 L 87.800781 36.167969 L 87.800781 38.179688 L 87.515625 38.179688 L 87.515625 37.332031 C 87.515625 36.296875 87.546875 35.988281 87.660156 35.925781 C 87.753906 35.875 91.121094 35.855469 91.316406 35.902344 L 91.445312 35.9375 L 91.445312 45.695312 L 91.195312 45.792969 C 91.054688 45.847656 90.90625 45.90625 90.863281 45.921875 C 90.820312 45.941406 90.773438 45.933594 90.753906 45.910156 Z M 91.15625 40.867188 C 91.15625 36.722656 91.148438 36.167969 91.085938 36.167969 C 91.023438 36.167969 91.011719 36.722656 91.011719 40.859375 C 91.011719 43.441406 91.027344 45.566406 91.042969 45.582031 C 91.0625 45.601562 91.09375 45.601562 91.117188 45.585938 C 91.140625 45.574219 91.15625 43.449219 91.15625 40.867188 Z M 89.03125 43.816406 C 89.011719 43.773438 89 43.5625 89 43.34375 C 89 43.011719 88.984375 42.941406 88.902344 42.871094 C 88.722656 42.714844 88.816406 42.398438 89.078125 42.265625 C 89.21875 42.195312 89.398438 42.195312 89.46875 42.269531 C 89.542969 42.34375 89.542969 42.570312 89.472656 42.703125 C 89.445312 42.757812 89.417969 42.980469 89.414062 43.199219 C 89.410156 43.519531 89.386719 43.621094 89.304688 43.730469 C 89.1875 43.890625 89.070312 43.925781 89.03125 43.816406 Z M 84.578125 39.554688 C 84.152344 39.523438 83.800781 39.480469 83.769531 39.449219 C 83.695312 39.371094 83.664062 38.882812 83.710938 38.566406 C 83.742188 38.355469 83.773438 38.292969 83.871094 38.25 C 83.957031 38.207031 84.410156 38.203125 85.617188 38.238281 C 87.5625 38.289062 89.503906 38.296875 89.792969 38.253906 C 89.992188 38.222656 90 38.226562 90.078125 38.390625 C 90.144531 38.535156 90.148438 38.609375 90.105469 38.925781 C 90.027344 39.5 90.074219 39.472656 89.042969 39.496094 C 88.558594 39.507812 88.085938 39.539062 87.992188 39.570312 C 87.78125 39.636719 85.617188 39.628906 84.578125 39.554688 Z M 88.089844 39.238281 C 88.167969 39.195312 88.183594 39.132812 88.183594 38.867188 L 88.183594 38.542969 L 87.285156 38.558594 C 86.789062 38.566406 85.859375 38.554688 85.210938 38.53125 C 84.382812 38.5 84.027344 38.503906 84 38.539062 C 83.957031 38.601562 83.960938 38.929688 84.007812 39.09375 C 84.039062 39.214844 84.046875 39.214844 84.6875 39.242188 C 85.921875 39.292969 87.996094 39.289062 88.089844 39.234375 Z M 89.773438 39.148438 C 89.789062 39.132812 89.816406 38.996094 89.828125 38.84375 L 89.855469 38.566406 L 89.191406 38.566406 C 88.824219 38.566406 88.515625 38.582031 88.503906 38.601562 C 88.492188 38.625 88.496094 38.769531 88.503906 38.929688 L 88.527344 39.21875 L 89.132812 39.199219 C 89.46875 39.191406 89.753906 39.167969 89.769531 39.148438 Z M 92.914062 81.175781 L 93.019531 81.121094 L 93.050781 40.84375 L 93.089844 0.566406 L 92.851562 0.484375 C 92.726562 0.4375 92.601562 0.398438 92.574219 0.398438 C 92.550781 0.398438 92.542969 9.183594 92.5625 22.660156 C 92.582031 34.902344 92.59375 53.105469 92.59375 63.109375 L 92.59375 81.296875 L 92.703125 81.261719 C 92.761719 81.246094 92.859375 81.207031 92.914062 81.175781 Z M 92.914062 81.175781 " fill-opacity="1" fill-rule="nonzero"/></g><g clip-path="url(#47ab2a0410)"><path stroke-linecap="butt" transform="matrix(0.632455, 0, 0, 0.632455, 93.979021, 78.210689)" fill="none" stroke-linejoin="miter" d="M 0.0022896 0.500676 L 204.000116 0.500676 " stroke="#61888d" stroke-width="1" stroke-opacity="1" stroke-miterlimit="4"/></g><g clip-path="url(#e215d3d655)"><path stroke-linecap="butt" transform="matrix(0.632455, 0, 0, 0.632455, 0.564762, 78.398901)" fill="none" stroke-linejoin="miter" d="M 0.00259924 0.49955 L 78.534567 0.49955 " stroke="#61888d" stroke-width="1" stroke-opacity="1" stroke-miterlimit="4"/></g></g></g></g></svg>