<svg xmlns="http://www.w3.org/2000/svg" xmlns:xlink="http://www.w3.org/1999/xlink" width="130" zoomAndPan="magnify" viewBox="0 0 97.5 104.999996" height="140" preserveAspectRatio="xMidYMid meet" version="1.0"><defs><clipPath id="b6f9a888b4"><path d="M 7 32 L 70 32 L 70 79 L 7 79 Z M 7 32 " clip-rule="nonzero"/></clipPath><clipPath id="b479cccad9"><path d="M 38.832031 0.269531 L 96.246094 30.566406 L 57.238281 104.476562 L -0.171875 74.179688 Z M 38.832031 0.269531 " clip-rule="nonzero"/></clipPath><clipPath id="8d067b83eb"><path d="M 38.832031 0.269531 L 96.246094 30.566406 L 57.238281 104.476562 L -0.171875 74.179688 Z M 38.832031 0.269531 " clip-rule="nonzero"/></clipPath><clipPath id="faf85dc399"><path d="M 60 17 L 91 17 L 91 47 L 60 47 Z M 60 17 " clip-rule="nonzero"/></clipPath><clipPath id="6c9d7a0091"><path d="M 38.832031 0.269531 L 96.246094 30.566406 L 57.238281 104.476562 L -0.171875 74.179688 Z M 38.832031 0.269531 " clip-rule="nonzero"/></clipPath><clipPath id="684caa49c9"><path d="M 38.832031 0.269531 L 96.246094 30.566406 L 57.238281 104.476562 L -0.171875 74.179688 Z M 38.832031 0.269531 " clip-rule="nonzero"/></clipPath><clipPath id="b18c4e0e2d"><path d="M 63 31 L 88 31 L 88 44 L 63 44 Z M 63 31 " clip-rule="nonzero"/></clipPath><clipPath id="7bda819c46"><path d="M 38.832031 0.269531 L 96.246094 30.566406 L 57.238281 104.476562 L -0.171875 74.179688 Z M 38.832031 0.269531 " clip-rule="nonzero"/></clipPath><clipPath id="d49a9e0eb1"><path d="M 38.832031 0.269531 L 96.246094 30.566406 L 57.238281 104.476562 L -0.171875 74.179688 Z M 38.832031 0.269531 " clip-rule="nonzero"/></clipPath><clipPath id="102c1cb442"><path d="M 61 19 L 85 19 L 85 45 L 61 45 Z M 61 19 " clip-rule="nonzero"/></clipPath><clipPath id="cf7fc4237d"><path d="M 38.832031 0.269531 L 96.246094 30.566406 L 57.238281 104.476562 L -0.171875 74.179688 Z M 38.832031 0.269531 " clip-rule="nonzero"/></clipPath><clipPath id="e272f21418"><path d="M 38.832031 0.269531 L 96.246094 30.566406 L 57.238281 104.476562 L -0.171875 74.179688 Z M 38.832031 0.269531 " clip-rule="nonzero"/></clipPath><clipPath id="de4da360df"><path d="M 68 18 L 73 18 L 73 26 L 68 26 Z M 68 18 " clip-rule="nonzero"/></clipPath><clipPath id="205799db20"><path d="M 38.832031 0.269531 L 96.246094 30.566406 L 57.238281 104.476562 L -0.171875 74.179688 Z M 38.832031 0.269531 " clip-rule="nonzero"/></clipPath><clipPath id="1c1e7deddf"><path d="M 38.832031 0.269531 L 96.246094 30.566406 L 57.238281 104.476562 L -0.171875 74.179688 Z M 38.832031 0.269531 " clip-rule="nonzero"/></clipPath><clipPath id="fc7059f245"><path d="M 44 32 L 69 32 L 69 37 L 44 37 Z M 44 32 " clip-rule="nonzero"/></clipPath><clipPath id="be76d30ec8"><path d="M 38.832031 0.269531 L 96.246094 30.566406 L 57.238281 104.476562 L -0.171875 74.179688 Z M 38.832031 0.269531 " clip-rule="nonzero"/></clipPath><clipPath id="a8ab85a353"><path d="M 38.832031 0.269531 L 96.246094 30.566406 L 57.238281 104.476562 L -0.171875 74.179688 Z M 38.832031 0.269531 " clip-rule="nonzero"/></clipPath><clipPath id="6b1d936e0b"><path d="M 10 33 L 66 33 L 66 75 L 10 75 Z M 10 33 " clip-rule="nonzero"/></clipPath><clipPath id="940573e5ad"><path d="M 38.832031 0.269531 L 96.246094 30.566406 L 57.238281 104.476562 L -0.171875 74.179688 Z M 38.832031 0.269531 " clip-rule="nonzero"/></clipPath><clipPath id="55dc7ba133"><path d="M 38.832031 0.269531 L 96.246094 30.566406 L 57.238281 104.476562 L -0.171875 74.179688 Z M 38.832031 0.269531 " clip-rule="nonzero"/></clipPath><clipPath id="84004496a4"><path d="M 63.597656 27.464844 L 65.710938 27.464844 L 65.710938 29.578125 L 63.597656 29.578125 Z M 63.597656 27.464844 " clip-rule="nonzero"/></clipPath><clipPath id="bc173237d7"><path d="M 64.65625 27.464844 C 64.070312 27.464844 63.597656 27.9375 63.597656 28.523438 C 63.597656 29.105469 64.070312 29.578125 64.65625 29.578125 C 65.238281 29.578125 65.710938 29.105469 65.710938 28.523438 C 65.710938 27.9375 65.238281 27.464844 64.65625 27.464844 Z M 64.65625 27.464844 " clip-rule="nonzero"/></clipPath><clipPath id="fe6673380d"><path d="M 0.597656 0.464844 L 2.710938 0.464844 L 2.710938 2.578125 L 0.597656 2.578125 Z M 0.597656 0.464844 " clip-rule="nonzero"/></clipPath><clipPath id="afd5c92bee"><path d="M 1.65625 0.464844 C 1.070312 0.464844 0.597656 0.9375 0.597656 1.523438 C 0.597656 2.105469 1.070312 2.578125 1.65625 2.578125 C 2.238281 2.578125 2.710938 2.105469 2.710938 1.523438 C 2.710938 0.9375 2.238281 0.464844 1.65625 0.464844 Z M 1.65625 0.464844 " clip-rule="nonzero"/></clipPath><clipPath id="08cb47ef28"><rect x="0" width="3" y="0" height="3"/></clipPath></defs><g clip-path="url(#b6f9a888b4)"><g clip-path="url(#b479cccad9)"><g clip-path="url(#8d067b83eb)"><path fill="#d8cabe" d="M 10.144531 77.863281 C 7.730469 70.699219 7.738281 63.101562 10.917969 56.175781 C 13.882812 49.722656 19.304688 44.703125 25.414062 41.246094 C 29.105469 39.152344 32.761719 38.042969 36.851562 37.148438 C 41.632812 36.097656 46.460938 35.226562 51.300781 34.488281 C 52.636719 34.285156 68.28125 31.828125 68.335938 33.9375 C 68.355469 34.601562 69.382812 34.558594 69.367188 33.890625 C 69.308594 31.746094 64.839844 32.140625 63.570312 32.167969 C 58.933594 32.273438 54.296875 32.976562 49.726562 33.699219 C 41.136719 35.054688 32.15625 36.238281 24.496094 40.582031 C 18.214844 44.140625 12.867188 49.464844 9.839844 56.058594 C 6.621094 63.0625 6.726562 70.953125 9.164062 78.167969 C 9.375 78.796875 10.359375 78.492188 10.144531 77.863281 Z M 10.144531 77.863281 " fill-opacity="1" fill-rule="nonzero"/></g></g></g><g clip-path="url(#faf85dc399)"><g clip-path="url(#6c9d7a0091)"><g clip-path="url(#684caa49c9)"><path fill="#d8cabe" d="M 68.792969 33.089844 C 68.554688 28.082031 69.308594 22.925781 72.015625 18.621094 C 71.703125 18.589844 71.386719 18.5625 71.070312 18.53125 C 73.351562 28.726562 82.484375 34.640625 89.867188 41.074219 C 90.019531 40.78125 90.175781 40.488281 90.328125 40.199219 C 80.066406 38.859375 70.210938 42.097656 60.734375 45.683594 C 60.953125 45.882812 61.167969 46.085938 61.386719 46.285156 C 62.890625 41.28125 64.820312 35.816406 68.101562 31.675781 C 68.511719 31.160156 67.761719 30.453125 67.351562 30.972656 C 63.941406 35.269531 61.945312 40.863281 60.382812 46.066406 C 60.273438 46.425781 60.6875 46.800781 61.035156 46.667969 C 70.324219 43.152344 80.039062 39.890625 90.109375 41.203125 C 90.578125 41.265625 90.984375 40.6875 90.570312 40.324219 C 83.332031 34.015625 74.292969 28.234375 72.054688 18.226562 C 71.945312 17.75 71.324219 17.796875 71.105469 18.140625 C 68.308594 22.589844 67.519531 27.960938 67.761719 33.136719 C 67.792969 33.796875 68.824219 33.753906 68.792969 33.089844 Z M 68.792969 33.089844 " fill-opacity="1" fill-rule="nonzero"/></g></g></g><g clip-path="url(#b18c4e0e2d)"><g clip-path="url(#7bda819c46)"><g clip-path="url(#d49a9e0eb1)"><path fill="#d8cabe" d="M 70.371094 39.707031 C 70.988281 38.070312 74.160156 37.507812 75.621094 37.109375 C 77.925781 36.480469 80.296875 36.046875 82.664062 35.71875 C 82.605469 35.382812 82.546875 35.046875 82.488281 34.710938 C 77.289062 35.625 72.054688 36.390625 67.28125 38.777344 C 66.71875 39.058594 67.171875 39.820312 67.703125 39.707031 C 70.585938 39.101562 73.191406 37.710938 75.867188 36.53125 C 75.726562 36.222656 75.582031 35.910156 75.441406 35.601562 C 72.179688 37.632812 68.601562 39.09375 65.449219 41.304688 C 64.941406 41.65625 65.308594 42.332031 65.871094 42.234375 C 70.210938 41.457031 73.636719 38.605469 77.632812 36.964844 C 77.492188 36.65625 77.351562 36.34375 77.210938 36.035156 C 73.410156 38.921875 68.613281 40.054688 64.4375 42.269531 C 63.898438 42.554688 64.320312 43.335938 64.863281 43.199219 C 69.445312 42.042969 73.421875 39.308594 78.003906 38.15625 C 77.859375 37.847656 77.71875 37.539062 77.578125 37.226562 C 74.851562 38.632812 71.757812 39.332031 68.9375 40.535156 C 68.320312 40.796875 68.59375 41.632812 69.242188 41.519531 C 73.582031 40.761719 77.425781 38.402344 81.765625 37.648438 C 81.664062 37.320312 81.5625 36.992188 81.460938 36.664062 C 78.585938 37.199219 75.652344 37.523438 72.929688 38.648438 C 72.324219 38.898438 72.585938 39.824219 73.234375 39.632812 C 76.855469 38.554688 80.628906 38.257812 84.386719 38.125 C 84.289062 37.808594 84.191406 37.492188 84.09375 37.171875 C 81.632812 38.839844 78.710938 39.125 75.8125 39.082031 C 75.871094 39.414062 75.929688 39.75 75.984375 40.085938 C 79.265625 39.136719 82.765625 39.285156 86.132812 39.546875 C 86.117188 39.203125 86.101562 38.859375 86.089844 38.515625 C 83.71875 38.636719 81.347656 38.636719 78.976562 38.753906 C 78.40625 38.785156 78.300781 39.675781 78.890625 39.773438 C 81.496094 40.195312 84.078125 40.464844 86.652344 39.730469 C 87.085938 39.605469 87.136719 38.984375 86.742188 38.78125 C 83.117188 36.914062 79.195312 35.714844 75.25 34.734375 C 75.222656 35.074219 75.191406 35.414062 75.164062 35.753906 C 76.09375 35.828125 76.980469 36.128906 77.917969 36.207031 C 77.902344 35.863281 77.886719 35.523438 77.871094 35.179688 C 74.429688 34.949219 71.023438 35.601562 67.59375 35.742188 C 67.691406 36.058594 67.789062 36.375 67.890625 36.695312 C 69.6875 35.441406 71.613281 34.707031 73.808594 34.539062 C 73.75 34.203125 73.691406 33.867188 73.632812 33.53125 C 71.488281 34.453125 69.117188 34.238281 66.835938 34.34375 C 66.96875 34.632812 67.101562 34.921875 67.234375 35.210938 C 67.734375 34.777344 68.199219 34.285156 68.746094 33.90625 C 69.488281 33.386719 70.605469 33.394531 71.464844 33.304688 C 72.019531 33.242188 72.160156 32.382812 71.554688 32.285156 C 70.136719 32.054688 68.757812 31.855469 67.347656 32.210938 C 67.449219 32.539062 67.546875 32.867188 67.648438 33.195312 C 69.726562 32.625 71.664062 33.035156 73.695312 33.539062 C 73.644531 33.226562 73.589844 32.914062 73.535156 32.601562 C 70.421875 34.558594 67.136719 36.277344 64.609375 39.003906 C 64.214844 39.425781 64.765625 40.132812 65.253906 39.796875 C 66.269531 39.097656 67.359375 38.542969 68.527344 38.148438 C 68.386719 37.839844 68.246094 37.527344 68.105469 37.21875 C 66.558594 38.367188 65.25 39.734375 63.96875 41.164062 C 63.519531 41.660156 64.234375 42.3125 64.71875 41.867188 C 66.507812 40.21875 67.257812 38.046875 67.9375 35.773438 C 68.082031 35.28125 67.382812 34.933594 67.058594 35.308594 C 65.761719 36.8125 64.832031 38.539062 63.910156 40.289062 C 64.230469 40.40625 64.550781 40.523438 64.867188 40.640625 C 65.328125 39.167969 65.964844 37.742188 67.101562 36.671875 C 68.660156 35.207031 70.410156 36.476562 71.496094 37.808594 C 71.691406 38.050781 72.070312 38.167969 72.308594 37.890625 C 73.949219 35.976562 77.8125 36.792969 79.789062 37.773438 C 80.382812 38.070312 80.863281 37.160156 80.269531 36.863281 C 77.882812 35.679688 73.53125 34.878906 71.558594 37.183594 C 71.828125 37.210938 72.097656 37.238281 72.371094 37.265625 C 71.152344 35.765625 69.5 34.425781 67.488281 35.222656 C 65.464844 36.023438 64.457031 38.511719 63.863281 40.417969 C 63.6875 40.984375 64.554688 41.269531 64.820312 40.769531 C 65.699219 39.105469 66.574219 37.449219 67.808594 36.015625 C 67.515625 35.859375 67.222656 35.707031 66.929688 35.550781 C 66.300781 37.664062 65.632812 39.628906 63.96875 41.164062 C 64.21875 41.398438 64.46875 41.632812 64.71875 41.867188 C 65.941406 40.507812 67.175781 39.191406 68.648438 38.09375 C 69.097656 37.757812 68.808594 36.96875 68.222656 37.164062 C 66.976562 37.585938 65.796875 38.175781 64.710938 38.921875 C 64.925781 39.183594 65.144531 39.449219 65.359375 39.710938 C 67.824219 37.050781 71.042969 35.386719 74.078125 33.476562 C 74.46875 33.230469 74.355469 32.644531 73.917969 32.535156 C 71.699219 31.984375 69.601562 31.59375 67.347656 32.210938 C 66.703125 32.386719 67.011719 33.355469 67.652344 33.195312 C 68.882812 32.882812 70.101562 33.089844 71.332031 33.292969 C 71.363281 32.953125 71.390625 32.613281 71.421875 32.273438 C 70.484375 32.375 69.417969 32.417969 68.554688 32.84375 C 67.757812 33.234375 67.144531 33.933594 66.484375 34.507812 C 66.128906 34.8125 66.460938 35.394531 66.882812 35.375 C 69.25 35.265625 71.707031 35.472656 73.9375 34.515625 C 74.445312 34.300781 74.386719 33.464844 73.761719 33.511719 C 71.402344 33.691406 69.285156 34.46875 67.347656 35.820312 C 66.929688 36.109375 67.105469 36.792969 67.640625 36.773438 C 71.070312 36.628906 74.476562 35.980469 77.917969 36.207031 C 78.582031 36.253906 78.523438 35.234375 77.871094 35.179688 C 76.9375 35.101562 76.054688 34.800781 75.117188 34.726562 C 74.519531 34.675781 74.484375 35.605469 75.03125 35.742188 C 78.890625 36.699219 82.714844 37.867188 86.261719 39.695312 C 86.289062 39.378906 86.320312 39.0625 86.351562 38.746094 C 83.945312 39.433594 81.542969 39.164062 79.109375 38.769531 C 79.082031 39.109375 79.050781 39.445312 79.023438 39.785156 C 81.390625 39.664062 83.765625 39.667969 86.132812 39.546875 C 86.816406 39.511719 86.734375 38.570312 86.089844 38.519531 C 82.628906 38.25 79.050781 38.128906 75.683594 39.105469 C 75.101562 39.273438 75.289062 40.101562 75.855469 40.113281 C 78.925781 40.15625 82.039062 39.8125 84.636719 38.050781 C 85.058594 37.765625 84.871094 37.078125 84.34375 37.097656 C 80.496094 37.234375 76.632812 37.546875 72.929688 38.648438 C 73.03125 38.976562 73.132812 39.304688 73.234375 39.632812 C 75.957031 38.507812 78.890625 38.183594 81.765625 37.648438 C 82.421875 37.527344 82.101562 36.554688 81.460938 36.664062 C 77.121094 37.421875 73.277344 39.78125 68.941406 40.535156 C 69.042969 40.863281 69.140625 41.191406 69.242188 41.519531 C 72.148438 40.28125 75.3125 39.550781 78.121094 38.105469 C 78.667969 37.824219 78.238281 37.039062 77.699219 37.175781 C 73.117188 38.328125 69.140625 41.0625 64.558594 42.21875 C 64.703125 42.527344 64.84375 42.835938 64.984375 43.144531 C 69.15625 40.929688 73.953125 39.800781 77.753906 36.914062 C 78.1875 36.582031 77.910156 35.746094 77.328125 35.984375 C 73.335938 37.621094 69.898438 40.476562 65.566406 41.253906 C 65.710938 41.5625 65.851562 41.871094 65.992188 42.179688 C 69.148438 39.972656 72.726562 38.511719 75.988281 36.480469 C 76.46875 36.179688 76.109375 35.308594 75.5625 35.550781 C 72.886719 36.730469 70.285156 38.117188 67.398438 38.726562 C 67.542969 39.035156 67.683594 39.347656 67.824219 39.65625 C 72.507812 37.3125 77.695312 36.59375 82.792969 35.699219 C 83.367188 35.597656 83.195312 34.613281 82.621094 34.691406 C 79.917969 35.066406 77.226562 35.582031 74.597656 36.328125 C 73.023438 36.773438 70.128906 37.464844 69.460938 39.226562 C 69.226562 39.835938 70.136719 40.324219 70.371094 39.707031 Z M 70.371094 39.707031 " fill-opacity="1" fill-rule="nonzero"/></g></g></g><g clip-path="url(#102c1cb442)"><g clip-path="url(#cf7fc4237d)"><g clip-path="url(#e272f21418)"><path fill="#d8cabe" d="M 75.535156 32.890625 C 73.898438 31.007812 71.988281 29.53125 69.796875 28.34375 C 69.867188 28.574219 69.941406 28.804688 70.011719 29.039062 C 70.082031 28.910156 70.148438 28.777344 70.21875 28.648438 C 70.03125 28.734375 69.839844 28.824219 69.652344 28.910156 C 71.703125 29.160156 74.03125 29.683594 75.386719 31.378906 C 75.566406 31.121094 75.75 30.863281 75.933594 30.605469 C 73.121094 29.992188 71.921875 27.207031 71.121094 24.722656 C 70.792969 24.824219 70.464844 24.925781 70.136719 25.027344 C 70.503906 25.882812 71.152344 26.628906 71.929688 27.140625 C 72.089844 26.835938 72.25 26.53125 72.410156 26.230469 C 70.238281 25.007812 68.703125 22.972656 68.476562 20.449219 C 68.226562 20.609375 67.972656 20.769531 67.722656 20.929688 C 69.9375 22.183594 71.246094 24.261719 72.535156 26.382812 C 72.757812 26.140625 72.984375 25.898438 73.210938 25.65625 C 71.554688 24.777344 70.277344 23.910156 69.050781 22.484375 C 68.855469 22.757812 68.65625 23.035156 68.460938 23.3125 C 70.699219 24.523438 72.398438 26.035156 73.476562 28.375 C 73.660156 28.117188 73.84375 27.859375 74.023438 27.601562 C 71.699219 26.765625 70.667969 25.070312 70.179688 22.726562 C 69.933594 22.929688 69.691406 23.132812 69.445312 23.335938 C 73.78125 26.230469 77.078125 30.722656 79.246094 35.410156 C 79.507812 35.195312 79.769531 34.980469 80.035156 34.765625 C 77.871094 33.121094 75.703125 31.496094 73.308594 30.195312 C 72.808594 29.925781 72.242188 30.675781 72.714844 31.027344 C 74.738281 32.53125 76.960938 33.75 78.9375 35.308594 C 79.09375 35.015625 79.246094 34.722656 79.402344 34.429688 C 75.792969 33.914062 72.539062 32.242188 70.773438 28.9375 C 70.59375 29.195312 70.410156 29.457031 70.226562 29.714844 C 75.476562 30.527344 79.949219 33.804688 84.035156 37 C 84.230469 36.722656 84.429688 36.445312 84.625 36.167969 C 81.710938 35.097656 78.933594 33.695312 76.019531 32.625 C 75.417969 32.402344 74.933594 33.214844 75.539062 33.535156 C 75.929688 33.742188 76.320312 33.949219 76.710938 34.152344 C 77.304688 34.46875 77.738281 33.597656 77.191406 33.242188 C 72.9375 30.5 66.902344 25.777344 68.28125 19.988281 C 67.96875 20.042969 67.65625 20.09375 67.339844 20.148438 C 69.484375 23.742188 68.890625 29.144531 68.203125 33.046875 C 67.574219 36.625 65.945312 43.007812 61.5 43.503906 C 61.632812 43.792969 61.765625 44.082031 61.898438 44.371094 C 64.070312 41.621094 68.097656 41.085938 70.988281 39.328125 C 71.324219 39.125 71.300781 38.617188 70.957031 38.4375 C 70.4375 38.160156 69.917969 37.886719 69.394531 37.613281 C 68.808594 37.300781 68.328125 38.214844 68.914062 38.523438 C 69.4375 38.796875 69.957031 39.070312 70.476562 39.347656 C 70.464844 39.050781 70.457031 38.75 70.445312 38.453125 C 67.472656 40.261719 63.394531 40.820312 61.148438 43.667969 C 60.894531 43.988281 61.054688 44.589844 61.546875 44.535156 C 66.265625 44.003906 68.140625 38.1875 69.011719 34.277344 C 69.621094 31.511719 69.847656 28.636719 69.714844 25.8125 C 69.617188 23.71875 69.308594 21.4375 68.214844 19.605469 C 67.980469 19.210938 67.378906 19.335938 67.273438 19.765625 C 65.773438 26.078125 72.050781 31.152344 76.710938 34.15625 C 76.871094 33.851562 77.03125 33.546875 77.191406 33.242188 C 76.800781 33.039062 76.410156 32.832031 76.019531 32.625 C 75.859375 32.929688 75.699219 33.234375 75.539062 33.535156 C 78.453125 34.609375 81.230469 36.011719 84.144531 37.082031 C 84.636719 37.261719 85.242188 36.644531 84.738281 36.25 C 80.511719 32.941406 75.882812 29.550781 70.449219 28.707031 C 69.996094 28.636719 69.683594 29.082031 69.898438 29.484375 C 71.78125 33.007812 75.320312 34.886719 79.179688 35.4375 C 79.636719 35.503906 80.078125 34.902344 79.644531 34.558594 C 77.664062 33 75.441406 31.78125 73.421875 30.277344 C 73.222656 30.554688 73.027344 30.832031 72.828125 31.109375 C 75.140625 32.363281 77.238281 33.925781 79.328125 35.515625 C 79.808594 35.882812 80.367188 35.402344 80.117188 34.867188 C 77.871094 30.003906 74.414062 25.421875 69.925781 22.425781 C 69.511719 22.148438 69.113281 22.644531 69.195312 23.03125 C 69.769531 25.785156 71.121094 27.644531 73.804688 28.609375 C 74.28125 28.78125 74.511719 28.175781 74.351562 27.832031 C 73.199219 25.335938 71.328125 23.695312 68.941406 22.402344 C 68.394531 22.109375 67.988281 22.816406 68.347656 23.234375 C 69.640625 24.738281 70.984375 25.644531 72.730469 26.566406 C 73.1875 26.808594 73.671875 26.273438 73.410156 25.839844 C 72.019531 23.550781 70.582031 21.371094 68.203125 20.019531 C 67.871094 19.832031 67.414062 20.113281 67.449219 20.496094 C 67.707031 23.382812 69.433594 25.734375 71.929688 27.140625 C 72.515625 27.472656 72.953125 26.589844 72.410156 26.230469 C 71.882812 25.882812 71.367188 25.300781 71.121094 24.722656 C 70.867188 24.125 69.929688 24.382812 70.136719 25.027344 C 71.058594 27.886719 72.515625 30.917969 75.710938 31.613281 C 76.109375 31.699219 76.550781 31.203125 76.257812 30.835938 C 74.710938 28.898438 72.25 28.195312 69.871094 27.90625 C 69.640625 27.878906 69.421875 27.953125 69.308594 28.167969 C 69.238281 28.300781 69.167969 28.429688 69.101562 28.558594 C 68.96875 28.808594 69.070312 29.121094 69.316406 29.253906 C 71.429688 30.402344 73.25 31.828125 74.828125 33.640625 C 75.265625 34.140625 75.96875 33.382812 75.535156 32.890625 Z M 75.535156 32.890625 " fill-opacity="1" fill-rule="nonzero"/></g></g></g><g clip-path="url(#de4da360df)"><g clip-path="url(#205799db20)"><g clip-path="url(#1c1e7deddf)"><path fill="#d8cabe" d="M 70.523438 24.90625 C 69.667969 22.945312 69.878906 20.878906 70.824219 18.988281 C 70.527344 19 70.230469 19.011719 69.933594 19.019531 C 70.847656 20.316406 71.167969 21.359375 71.144531 22.945312 C 71.488281 22.929688 71.832031 22.914062 72.175781 22.898438 C 72.175781 22.570312 72.203125 22.078125 71.902344 21.859375 C 71.6875 21.703125 71.371094 21.648438 71.175781 21.882812 C 70.554688 22.625 70.558594 23.773438 70.175781 24.632812 C 69.902344 25.234375 70.8125 25.71875 71.085938 25.113281 C 71.410156 24.386719 71.425781 23.183594 71.925781 22.589844 C 71.683594 22.597656 71.441406 22.605469 71.199219 22.613281 C 71.074219 22.523438 71.144531 22.871094 71.144531 22.945312 C 71.136719 23.609375 72.164062 23.5625 72.171875 22.898438 C 72.199219 21.140625 71.820312 19.914062 70.804688 18.476562 C 70.589844 18.167969 70.097656 18.140625 69.914062 18.507812 C 68.855469 20.621094 68.578125 23.011719 69.542969 25.210938 C 69.804688 25.8125 70.792969 25.515625 70.523438 24.90625 Z M 70.523438 24.90625 " fill-opacity="1" fill-rule="nonzero"/></g></g></g><g clip-path="url(#fc7059f245)"><g clip-path="url(#be76d30ec8)"><g clip-path="url(#a8ab85a353)"><path fill="#d8cabe" d="M 68.496094 33.644531 C 64.992188 31.890625 60.828125 32.609375 57.160156 33.398438 C 53.253906 34.234375 49.132812 36.007812 45.089844 35.839844 C 44.425781 35.8125 44.472656 36.839844 45.132812 36.867188 C 48.617188 37.011719 52.1875 35.660156 55.523438 34.832031 C 59.414062 33.871094 64.21875 32.65625 68.015625 34.554688 C 68.609375 34.851562 69.089844 33.941406 68.496094 33.644531 Z M 68.496094 33.644531 " fill-opacity="1" fill-rule="nonzero"/></g></g></g><g clip-path="url(#6b1d936e0b)"><g clip-path="url(#940573e5ad)"><g clip-path="url(#55dc7ba133)"><path fill="#d8cabe" d="M 64.996094 34.3125 C 58.523438 33.195312 51.78125 33.648438 45.328125 34.652344 C 38.601562 35.695312 31.800781 37.511719 25.800781 40.804688 C 19.84375 44.078125 15.742188 50.015625 12.628906 55.910156 C 11.453125 58.140625 10.699219 60.132812 10.503906 62.648438 C 10.3125 65.183594 10.460938 67.808594 10.910156 70.308594 C 11.054688 71.128906 11.710938 75.019531 13.382812 73.789062 C 13.917969 73.398438 13.375 72.523438 12.839844 72.917969 C 12.78125 72.960938 12.792969 72.945312 12.617188 72.628906 C 12.421875 72.28125 12.320312 71.875 12.214844 71.496094 C 11.871094 70.277344 11.726562 69.003906 11.609375 67.75 C 11.371094 65.210938 11.3125 62.511719 11.921875 60.019531 C 12.230469 58.753906 12.949219 57.539062 13.542969 56.390625 C 14.433594 54.660156 15.453125 52.996094 16.53125 51.378906 C 18.535156 48.371094 20.910156 45.3125 23.886719 43.207031 C 29.515625 39.226562 36.625 37.300781 43.3125 36.035156 C 50.085938 34.753906 57.28125 34.175781 64.125 35.210938 C 64.339844 35.242188 64.558594 35.28125 64.773438 35.316406 C 65.425781 35.429688 65.652344 34.425781 64.996094 34.3125 Z M 64.996094 34.3125 " fill-opacity="1" fill-rule="nonzero"/></g></g></g><g clip-path="url(#84004496a4)"><g clip-path="url(#bc173237d7)"><g transform="matrix(1, 0, 0, 1, 63, 27)"><g clip-path="url(#08cb47ef28)"><g clip-path="url(#fe6673380d)"><g clip-path="url(#afd5c92bee)"><path fill="#ffffff" d="M 0.597656 0.464844 L 2.710938 0.464844 L 2.710938 2.578125 L 0.597656 2.578125 Z M 0.597656 0.464844 " fill-opacity="1" fill-rule="nonzero"/></g></g></g></g></g></g></svg>