<svg xmlns="http://www.w3.org/2000/svg" xmlns:xlink="http://www.w3.org/1999/xlink" width="721" zoomAndPan="magnify" viewBox="0 0 540.75 45.749998" height="61" preserveAspectRatio="xMidYMid meet" version="1.0"><defs><g/><clipPath id="cef6c979c2"><path d="M 1.34375 0 L 539 0 L 539 45.097656 L 1.34375 45.097656 Z M 1.34375 0 " clip-rule="nonzero"/></clipPath><clipPath id="e2a9592a73"><path d="M 23.894531 0 L 516.332031 0 C 522.3125 0 528.046875 2.375 532.277344 6.605469 C 536.503906 10.832031 538.878906 16.570312 538.878906 22.550781 C 538.878906 28.53125 536.503906 34.265625 532.277344 38.496094 C 528.046875 42.722656 522.3125 45.097656 516.332031 45.097656 L 23.894531 45.097656 C 17.914062 45.097656 12.179688 42.722656 7.949219 38.496094 C 3.722656 34.265625 1.34375 28.53125 1.34375 22.550781 C 1.34375 16.570312 3.722656 10.832031 7.949219 6.605469 C 12.179688 2.375 17.914062 0 23.894531 0 Z M 23.894531 0 " clip-rule="nonzero"/></clipPath><clipPath id="1e7f8e7d9f"><path d="M 0.34375 0 L 537.886719 0 L 537.886719 45.097656 L 0.34375 45.097656 Z M 0.34375 0 " clip-rule="nonzero"/></clipPath><clipPath id="15cea48238"><path d="M 22.894531 0 L 515.332031 0 C 521.3125 0 527.046875 2.375 531.277344 6.605469 C 535.503906 10.832031 537.878906 16.570312 537.878906 22.550781 C 537.878906 28.53125 535.503906 34.265625 531.277344 38.496094 C 527.046875 42.722656 521.3125 45.097656 515.332031 45.097656 L 22.894531 45.097656 C 16.914062 45.097656 11.179688 42.722656 6.949219 38.496094 C 2.722656 34.265625 0.34375 28.53125 0.34375 22.550781 C 0.34375 16.570312 2.722656 10.832031 6.949219 6.605469 C 11.179688 2.375 16.914062 0 22.894531 0 Z M 22.894531 0 " clip-rule="nonzero"/></clipPath><clipPath id="c6261fb576"><rect x="0" width="538" y="0" height="46"/></clipPath></defs><g clip-path="url(#cef6c979c2)"><g clip-path="url(#e2a9592a73)"><g transform="matrix(1, 0, 0, 1, 1, 0)"><g clip-path="url(#c6261fb576)"><g clip-path="url(#1e7f8e7d9f)"><g clip-path="url(#15cea48238)"><path fill="#e6e6e6" d="M 0.34375 0 L 537.839844 0 L 537.839844 45.097656 L 0.34375 45.097656 Z M 0.34375 0 " fill-opacity="1" fill-rule="nonzero"/></g></g></g></g></g></g><g fill="#c6b7aa" fill-opacity="1"><g transform="translate(31.891188, 30.008956)"><g/></g></g><g fill="#c6b7aa" fill-opacity="1"><g transform="translate(37.602167, 30.008956)"><g><path d="M 2.484375 4.265625 L 2.484375 -12.671875 C 2.484375 -12.929688 2.441406 -13.097656 2.359375 -13.171875 C 2.273438 -13.242188 2.101562 -13.28125 1.84375 -13.28125 L 0.828125 -13.28125 L 0.828125 -16.703125 L 4.921875 -16.703125 C 5.609375 -16.703125 6.09375 -16.5625 6.375 -16.28125 C 6.65625 -16.007812 6.796875 -15.539062 6.796875 -14.875 L 6.796875 4.265625 Z M 2.484375 4.265625 "/></g></g></g><g fill="#c6b7aa" fill-opacity="1"><g transform="translate(45.927534, 30.008956)"><g><path d="M 0.5 0 L 0.5 -3.421875 L 4.796875 -3.421875 C 5.128906 -3.421875 5.351562 -3.476562 5.46875 -3.59375 C 5.59375 -3.707031 5.65625 -3.921875 5.65625 -4.234375 L 5.65625 -12.453125 C 5.65625 -12.785156 5.59375 -13.003906 5.46875 -13.109375 C 5.351562 -13.222656 5.128906 -13.28125 4.796875 -13.28125 L 0.8125 -13.28125 L 0.8125 -16.703125 L 7.328125 -16.703125 C 8.285156 -16.703125 8.960938 -16.503906 9.359375 -16.109375 C 9.765625 -15.710938 9.96875 -15.03125 9.96875 -14.0625 L 9.96875 -2.625 C 9.96875 -1.675781 9.765625 -1 9.359375 -0.59375 C 8.960938 -0.195312 8.285156 0 7.328125 0 Z M 0.5 0 "/></g></g></g><g fill="#c6b7aa" fill-opacity="1"><g transform="translate(57.287894, 30.008956)"><g><path d="M 1.34375 -6.65625 L 1.34375 -10.046875 L 8.765625 -10.046875 L 8.765625 -6.65625 Z M 1.34375 -6.65625 "/></g></g></g><g fill="#c6b7aa" fill-opacity="1"><g transform="translate(67.395278, 30.008956)"><g><path d="M 3.421875 -6.40625 C 3.347656 -7.164062 3.410156 -7.898438 3.609375 -8.609375 C 3.816406 -9.328125 4.273438 -10.003906 4.984375 -10.640625 C 5.390625 -10.992188 5.773438 -11.335938 6.140625 -11.671875 C 6.515625 -12.003906 6.820312 -12.410156 7.0625 -12.890625 C 7.3125 -13.367188 7.4375 -14 7.4375 -14.78125 C 7.4375 -15.375 7.347656 -15.78125 7.171875 -16 C 6.992188 -16.226562 6.691406 -16.34375 6.265625 -16.34375 C 5.796875 -16.34375 5.457031 -16.195312 5.25 -15.90625 C 5.050781 -15.625 4.953125 -15.128906 4.953125 -14.421875 L 0.703125 -14.421875 C 0.703125 -16.316406 1.125 -17.65625 1.96875 -18.4375 C 2.8125 -19.226562 4.242188 -19.625 6.265625 -19.625 C 8.253906 -19.625 9.664062 -19.265625 10.5 -18.546875 C 11.332031 -17.835938 11.75 -16.628906 11.75 -14.921875 C 11.75 -13.804688 11.597656 -12.898438 11.296875 -12.203125 C 11.003906 -11.515625 10.617188 -10.929688 10.140625 -10.453125 C 9.671875 -9.984375 9.175781 -9.503906 8.65625 -9.015625 C 8.15625 -8.554688 7.84375 -8.15625 7.71875 -7.8125 C 7.601562 -7.46875 7.523438 -7 7.484375 -6.40625 Z M 3.390625 0 L 3.390625 -4.234375 L 7.625 -4.234375 L 7.625 0 Z M 3.390625 0 "/></g></g></g><g fill="#c6b7aa" fill-opacity="1"><g transform="translate(80.398445, 30.008956)"><g><path d="M 10.96875 -16.703125 C 12.007812 -16.703125 12.75 -16.484375 13.1875 -16.046875 C 13.625 -15.609375 13.84375 -14.863281 13.84375 -13.8125 L 13.84375 0 L 9.515625 0 L 9.515625 -12.328125 C 9.515625 -12.703125 9.445312 -12.972656 9.3125 -13.140625 C 9.1875 -13.304688 8.953125 -13.390625 8.609375 -13.390625 L 7.859375 -13.390625 C 7.222656 -13.390625 6.785156 -13.191406 6.546875 -12.796875 C 6.304688 -12.410156 6.296875 -11.597656 6.515625 -10.359375 L 7.515625 -4.515625 C 7.796875 -2.992188 7.710938 -1.859375 7.265625 -1.109375 C 6.816406 -0.367188 5.914062 0 4.5625 0 L 0.859375 0 L 0.859375 -3.421875 L 2.5 -3.421875 C 2.757812 -3.421875 2.957031 -3.492188 3.09375 -3.640625 C 3.238281 -3.796875 3.285156 -4.078125 3.234375 -4.484375 L 2.3125 -9.796875 C 2.125 -10.835938 2.09375 -11.625 2.21875 -12.15625 C 2.351562 -12.6875 2.523438 -13.0625 2.734375 -13.28125 L 0.921875 -13.28125 L 0.921875 -16.703125 Z M 10.96875 -16.703125 "/></g></g></g><g fill="#c6b7aa" fill-opacity="1"><g transform="translate(95.79619, 30.008956)"><g><path d="M 2.484375 0 L 2.484375 -12.671875 C 2.484375 -12.929688 2.441406 -13.097656 2.359375 -13.171875 C 2.273438 -13.242188 2.101562 -13.28125 1.84375 -13.28125 L 0.828125 -13.28125 L 0.828125 -16.703125 L 4.921875 -16.703125 C 5.609375 -16.703125 6.09375 -16.5625 6.375 -16.28125 C 6.65625 -16.007812 6.796875 -15.539062 6.796875 -14.875 L 6.796875 0 Z M 2.484375 0 "/></g></g></g><g fill="#c6b7aa" fill-opacity="1"><g transform="translate(104.121557, 30.008956)"><g><path d="M 13.390625 -2.359375 C 13.429688 -1.546875 13.257812 -0.945312 12.875 -0.5625 C 12.5 -0.1875 11.875 0 11 0 L 6.90625 0 L 6.90625 -3.421875 L 8.296875 -3.421875 C 8.597656 -3.421875 8.785156 -3.476562 8.859375 -3.59375 C 8.929688 -3.71875 8.957031 -3.921875 8.9375 -4.203125 L 8.515625 -11.921875 C 8.503906 -12.453125 8.4375 -12.828125 8.3125 -13.046875 C 8.1875 -13.273438 7.96875 -13.390625 7.65625 -13.390625 L 7.546875 -13.390625 C 7.304688 -13.390625 7.132812 -13.316406 7.03125 -13.171875 C 6.925781 -13.035156 6.847656 -12.753906 6.796875 -12.328125 L 5.15625 0 L 0.75 0 L 2.3125 -10.71875 C 2.476562 -11.882812 2.800781 -12.738281 3.28125 -13.28125 L 1.21875 -13.28125 L 1.21875 -16.703125 L 9.15625 -16.703125 C 10.21875 -16.703125 11.070312 -16.414062 11.71875 -15.84375 C 12.375 -15.269531 12.738281 -14.179688 12.8125 -12.578125 Z M 13.390625 -2.359375 "/></g></g></g><g fill="#c6b7aa" fill-opacity="1"><g transform="translate(118.154933, 30.008956)"><g><path d="M 0.390625 -16.703125 L 10.640625 -16.703125 L 10.640625 -13.28125 L 10.078125 -13.28125 C 9.503906 -13.28125 9.21875 -12.898438 9.21875 -12.140625 L 9.21875 0 L 5.15625 0 L 5.15625 -11.5 C 5.15625 -12.28125 5.273438 -12.875 5.515625 -13.28125 L 0.390625 -13.28125 Z M 0.390625 -16.703125 "/></g></g></g><g fill="#c6b7aa" fill-opacity="1"><g transform="translate(129.765911, 30.008956)"><g><path d="M 2.484375 0 L 2.484375 -12.671875 C 2.484375 -12.929688 2.441406 -13.097656 2.359375 -13.171875 C 2.273438 -13.242188 2.101562 -13.28125 1.84375 -13.28125 L 0.828125 -13.28125 L 0.828125 -16.703125 L 4.921875 -16.703125 C 5.609375 -16.703125 6.09375 -16.5625 6.375 -16.28125 C 6.65625 -16.007812 6.796875 -15.539062 6.796875 -14.875 L 6.796875 0 Z M 2.484375 0 "/></g></g></g><g fill="#c6b7aa" fill-opacity="1"><g transform="translate(138.091278, 30.008956)"><g><path d="M 13.03125 -16.703125 C 13.84375 -16.703125 14.390625 -16.421875 14.671875 -15.859375 C 14.953125 -15.304688 15 -14.625 14.8125 -13.8125 L 11.96875 0 L 7.59375 0 L 10.046875 -12.609375 C 10.109375 -12.929688 10.117188 -13.140625 10.078125 -13.234375 C 10.046875 -13.335938 9.867188 -13.390625 9.546875 -13.390625 L 7.34375 -13.390625 C 7.125 -13.390625 6.945312 -13.359375 6.8125 -13.296875 C 6.6875 -13.242188 6.625 -13.035156 6.625 -12.671875 L 6.625 0.671875 C 6.625 0.890625 6.734375 1 6.953125 1 L 7.625 1 L 7.625 4.265625 L 3.84375 4.265625 C 2.820312 4.265625 2.3125 3.753906 2.3125 2.734375 L 2.3125 -12.140625 C 2.3125 -12.691406 2.414062 -13.070312 2.625 -13.28125 L 1 -13.28125 L 1 -16.703125 Z M 13.03125 -16.703125 "/></g></g></g><g fill="#c6b7aa" fill-opacity="1"><g transform="translate(153.79531, 30.008956)"><g/></g></g><g fill="#c6b7aa" fill-opacity="1"><g transform="translate(159.503331, 30.008956)"><g><path d="M 0.390625 -16.703125 L 10.640625 -16.703125 L 10.640625 -13.28125 L 10.078125 -13.28125 C 9.503906 -13.28125 9.21875 -12.898438 9.21875 -12.140625 L 9.21875 0 L 5.15625 0 L 5.15625 -11.5 C 5.15625 -12.28125 5.273438 -12.875 5.515625 -13.28125 L 0.390625 -13.28125 Z M 0.390625 -16.703125 "/></g></g></g><g fill="#c6b7aa" fill-opacity="1"><g transform="translate(171.114309, 30.008956)"><g><path d="M 2.484375 0 L 2.484375 -12.671875 C 2.484375 -12.929688 2.441406 -13.097656 2.359375 -13.171875 C 2.273438 -13.242188 2.101562 -13.28125 1.84375 -13.28125 L 0.828125 -13.28125 L 0.828125 -16.703125 L 4.921875 -16.703125 C 5.609375 -16.703125 6.09375 -16.5625 6.375 -16.28125 C 6.65625 -16.007812 6.796875 -15.539062 6.796875 -14.875 L 6.796875 0 Z M 2.484375 0 "/></g></g></g><g fill="#c6b7aa" fill-opacity="1"><g transform="translate(179.439675, 30.008956)"><g><path d="M 13.390625 -2.359375 C 13.429688 -1.546875 13.257812 -0.945312 12.875 -0.5625 C 12.5 -0.1875 11.875 0 11 0 L 6.90625 0 L 6.90625 -3.421875 L 8.296875 -3.421875 C 8.597656 -3.421875 8.785156 -3.476562 8.859375 -3.59375 C 8.929688 -3.71875 8.957031 -3.921875 8.9375 -4.203125 L 8.515625 -11.921875 C 8.503906 -12.453125 8.4375 -12.828125 8.3125 -13.046875 C 8.1875 -13.273438 7.96875 -13.390625 7.65625 -13.390625 L 7.546875 -13.390625 C 7.304688 -13.390625 7.132812 -13.316406 7.03125 -13.171875 C 6.925781 -13.035156 6.847656 -12.753906 6.796875 -12.328125 L 5.15625 0 L 0.75 0 L 2.3125 -10.71875 C 2.476562 -11.882812 2.800781 -12.738281 3.28125 -13.28125 L 1.21875 -13.28125 L 1.21875 -16.703125 L 9.15625 -16.703125 C 10.21875 -16.703125 11.070312 -16.414062 11.71875 -15.84375 C 12.375 -15.269531 12.738281 -14.179688 12.8125 -12.578125 Z M 13.390625 -2.359375 "/></g></g></g><g fill="#c6b7aa" fill-opacity="1"><g transform="translate(193.278136, 30.008956)"><g><path d="M 2.453125 -7.078125 L 2.453125 -12.671875 C 2.453125 -12.929688 2.410156 -13.097656 2.328125 -13.171875 C 2.242188 -13.242188 2.070312 -13.28125 1.8125 -13.28125 L 0.75 -13.28125 L 0.75 -16.703125 L 4.5625 -16.703125 C 5.363281 -16.703125 5.925781 -16.539062 6.25 -16.21875 C 6.570312 -15.894531 6.734375 -15.332031 6.734375 -14.53125 L 6.734375 -7.078125 Z M 2.453125 -7.078125 "/></g></g></g><g fill="#c6b7aa" fill-opacity="1"><g transform="translate(201.46428, 30.008956)"><g><path d="M 4.453125 0 C 3.378906 0 2.65625 -0.335938 2.28125 -1.015625 C 1.90625 -1.691406 1.925781 -2.660156 2.34375 -3.921875 L 5.0625 -12.390625 C 5.25 -12.984375 5.046875 -13.28125 4.453125 -13.28125 L 1.203125 -13.28125 C 0.898438 -13.28125 0.6875 -13.335938 0.5625 -13.453125 C 0.445312 -13.578125 0.390625 -13.796875 0.390625 -14.109375 L 0.390625 -18.9375 L 4.453125 -18.9375 L 4.453125 -16.703125 L 7.4375 -16.703125 C 8.488281 -16.703125 9.222656 -16.351562 9.640625 -15.65625 C 10.066406 -14.96875 10.09375 -14.046875 9.71875 -12.890625 L 6.765625 -4.15625 C 6.691406 -3.945312 6.675781 -3.769531 6.71875 -3.625 C 6.769531 -3.488281 6.914062 -3.421875 7.15625 -3.421875 L 8.375 -3.421875 L 8.375 0 Z M 4.453125 0 "/></g></g></g><g fill="#c6b7aa" fill-opacity="1"><g transform="translate(212.212078, 30.008956)"><g/></g></g><g fill="#c6b7aa" fill-opacity="1"><g transform="translate(217.920098, 30.008956)"><g><path d="M 10.96875 -16.703125 C 12.007812 -16.703125 12.75 -16.484375 13.1875 -16.046875 C 13.625 -15.609375 13.84375 -14.863281 13.84375 -13.8125 L 13.84375 0 L 9.515625 0 L 9.515625 -12.328125 C 9.515625 -12.703125 9.445312 -12.972656 9.3125 -13.140625 C 9.1875 -13.304688 8.953125 -13.390625 8.609375 -13.390625 L 7.859375 -13.390625 C 7.222656 -13.390625 6.785156 -13.191406 6.546875 -12.796875 C 6.304688 -12.410156 6.296875 -11.597656 6.515625 -10.359375 L 7.515625 -4.515625 C 7.796875 -2.992188 7.710938 -1.859375 7.265625 -1.109375 C 6.816406 -0.367188 5.914062 0 4.5625 0 L 0.859375 0 L 0.859375 -3.421875 L 2.5 -3.421875 C 2.757812 -3.421875 2.957031 -3.492188 3.09375 -3.640625 C 3.238281 -3.796875 3.285156 -4.078125 3.234375 -4.484375 L 2.3125 -9.796875 C 2.125 -10.835938 2.09375 -11.625 2.21875 -12.15625 C 2.351562 -12.6875 2.523438 -13.0625 2.734375 -13.28125 L 0.921875 -13.28125 L 0.921875 -16.703125 Z M 10.96875 -16.703125 "/></g></g></g><g fill="#c6b7aa" fill-opacity="1"><g transform="translate(233.317855, 30.008956)"><g><path d="M 2.484375 0 L 2.484375 -12.671875 C 2.484375 -12.929688 2.441406 -13.097656 2.359375 -13.171875 C 2.273438 -13.242188 2.101562 -13.28125 1.84375 -13.28125 L 0.828125 -13.28125 L 0.828125 -16.703125 L 4.921875 -16.703125 C 5.609375 -16.703125 6.09375 -16.5625 6.375 -16.28125 C 6.65625 -16.007812 6.796875 -15.539062 6.796875 -14.875 L 6.796875 0 Z M 2.484375 0 "/></g></g></g><g fill="#c6b7aa" fill-opacity="1"><g transform="translate(241.531827, 30.008956)"><g><path d="M 0.390625 -16.703125 L 10.640625 -16.703125 L 10.640625 -13.28125 L 10.078125 -13.28125 C 9.503906 -13.28125 9.21875 -12.898438 9.21875 -12.140625 L 9.21875 0 L 5.15625 0 L 5.15625 -11.5 C 5.15625 -12.28125 5.273438 -12.875 5.515625 -13.28125 L 0.390625 -13.28125 Z M 0.390625 -16.703125 "/></g></g></g><g fill="#c6b7aa" fill-opacity="1"><g transform="translate(253.226337, 30.008956)"><g><path d="M 2.453125 -7.078125 L 2.453125 -12.671875 C 2.453125 -12.929688 2.410156 -13.097656 2.328125 -13.171875 C 2.242188 -13.242188 2.070312 -13.28125 1.8125 -13.28125 L 0.75 -13.28125 L 0.75 -16.703125 L 4.5625 -16.703125 C 5.363281 -16.703125 5.925781 -16.539062 6.25 -16.21875 C 6.570312 -15.894531 6.734375 -15.332031 6.734375 -14.53125 L 6.734375 -7.078125 Z M 2.453125 -7.078125 "/></g></g></g><g fill="#c6b7aa" fill-opacity="1"><g transform="translate(261.022662, 30.008956)"><g><path d="M 15.5625 -16.703125 L 15.5625 -13.28125 L 13.984375 -13.28125 C 14.179688 -12.925781 14.28125 -12.257812 14.28125 -11.28125 L 14.28125 0 L 9.96875 0 L 9.96875 -12.03125 C 9.96875 -12.570312 9.925781 -12.914062 9.84375 -13.0625 C 9.757812 -13.207031 9.585938 -13.28125 9.328125 -13.28125 L 7.21875 -13.28125 C 6.96875 -13.28125 6.800781 -13.207031 6.71875 -13.0625 C 6.632812 -12.914062 6.59375 -12.570312 6.59375 -12.03125 L 6.59375 0 L 2.28125 0 L 2.28125 -11.28125 C 2.28125 -12.257812 2.382812 -12.925781 2.59375 -13.28125 L 1 -13.28125 L 1 -16.703125 Z M 15.5625 -16.703125 "/></g></g></g><g fill="#c6b7aa" fill-opacity="1"><g transform="translate(277.589852, 30.008956)"><g><path d="M 2.453125 -7.078125 L 2.453125 -12.671875 C 2.453125 -12.929688 2.410156 -13.097656 2.328125 -13.171875 C 2.242188 -13.242188 2.070312 -13.28125 1.8125 -13.28125 L 0.75 -13.28125 L 0.75 -16.703125 L 4.5625 -16.703125 C 5.363281 -16.703125 5.925781 -16.539062 6.25 -16.21875 C 6.570312 -15.894531 6.734375 -15.332031 6.734375 -14.53125 L 6.734375 -7.078125 Z M 2.453125 -7.078125 "/></g></g></g><g fill="#c6b7aa" fill-opacity="1"><g transform="translate(285.776007, 30.008956)"><g><path d="M 4.453125 0 C 3.378906 0 2.65625 -0.335938 2.28125 -1.015625 C 1.90625 -1.691406 1.925781 -2.660156 2.34375 -3.921875 L 5.0625 -12.390625 C 5.25 -12.984375 5.046875 -13.28125 4.453125 -13.28125 L 1.203125 -13.28125 C 0.898438 -13.28125 0.6875 -13.335938 0.5625 -13.453125 C 0.445312 -13.578125 0.390625 -13.796875 0.390625 -14.109375 L 0.390625 -18.9375 L 4.453125 -18.9375 L 4.453125 -16.703125 L 7.4375 -16.703125 C 8.488281 -16.703125 9.222656 -16.351562 9.640625 -15.65625 C 10.066406 -14.96875 10.09375 -14.046875 9.71875 -12.890625 L 6.765625 -4.15625 C 6.691406 -3.945312 6.675781 -3.769531 6.71875 -3.625 C 6.769531 -3.488281 6.914062 -3.421875 7.15625 -3.421875 L 8.375 -3.421875 L 8.375 0 Z M 4.453125 0 "/></g></g></g><g fill="#c6b7aa" fill-opacity="1"><g transform="translate(296.523793, 30.008956)"><g/></g></g><g fill="#c6b7aa" fill-opacity="1"><g transform="translate(302.231814, 30.008956)"><g><path d="M 8.75 0 L 8.75 -12.453125 C 8.75 -12.785156 8.6875 -13.003906 8.5625 -13.109375 C 8.4375 -13.222656 8.207031 -13.28125 7.875 -13.28125 L 1.453125 -13.28125 L 1.453125 -16.703125 L 10.53125 -16.703125 C 11.457031 -16.703125 12.109375 -16.484375 12.484375 -16.046875 C 12.867188 -15.609375 13.0625 -14.863281 13.0625 -13.8125 L 13.0625 0 Z M 2.875 0 C 1.925781 0 1.453125 -0.484375 1.453125 -1.453125 L 1.453125 -10.40625 L 5.765625 -10.40625 L 5.765625 -3.953125 C 5.765625 -3.597656 5.90625 -3.421875 6.1875 -3.421875 L 6.546875 -3.421875 L 6.546875 0 Z M 2.875 0 "/></g></g></g><g fill="#c6b7aa" fill-opacity="1"><g transform="translate(316.682859, 30.008956)"><g><path d="M 5.3125 0 L 5.3125 -12.28125 C 5.3125 -12.945312 4.976562 -13.28125 4.3125 -13.28125 L 0.390625 -13.28125 L 0.390625 -16.703125 L 6.828125 -16.703125 C 7.859375 -16.703125 8.582031 -16.488281 9 -16.0625 C 9.425781 -15.632812 9.640625 -14.910156 9.640625 -13.890625 L 9.640625 0 Z M 5.3125 0 "/></g></g></g><g fill="#c6b7aa" fill-opacity="1"><g transform="translate(327.848316, 30.008956)"><g><path d="M 4.34375 -16.703125 L 9.859375 -16.703125 L 9.859375 -13.28125 L 8.875 -13.28125 C 8.363281 -13.28125 8 -13.132812 7.78125 -12.84375 C 7.570312 -12.5625 7.492188 -12.066406 7.546875 -11.359375 L 8.46875 0 L 4.15625 0 L 3.25 -11.140625 C 3.175781 -12.097656 3.398438 -12.8125 3.921875 -13.28125 L 3.765625 -13.28125 C 3.015625 -13.28125 2.328125 -13.414062 1.703125 -13.6875 C 1.085938 -13.96875 0.59375 -14.425781 0.21875 -15.0625 L 2.484375 -17.65625 C 2.742188 -17.300781 2.992188 -17.050781 3.234375 -16.90625 C 3.472656 -16.769531 3.84375 -16.703125 4.34375 -16.703125 Z M 4.34375 -16.703125 "/></g></g></g><g fill="#c6b7aa" fill-opacity="1"><g transform="translate(338.679646, 30.008956)"><g><path d="M 15.5625 -16.703125 L 15.5625 -13.28125 L 13.984375 -13.28125 C 14.179688 -12.925781 14.28125 -12.257812 14.28125 -11.28125 L 14.28125 0 L 9.96875 0 L 9.96875 -12.03125 C 9.96875 -12.570312 9.925781 -12.914062 9.84375 -13.0625 C 9.757812 -13.207031 9.585938 -13.28125 9.328125 -13.28125 L 7.21875 -13.28125 C 6.96875 -13.28125 6.800781 -13.207031 6.71875 -13.0625 C 6.632812 -12.914062 6.59375 -12.570312 6.59375 -12.03125 L 6.59375 0 L 2.28125 0 L 2.28125 -11.28125 C 2.28125 -12.257812 2.382812 -12.925781 2.59375 -13.28125 L 1 -13.28125 L 1 -16.703125 Z M 15.5625 -16.703125 "/></g></g></g><g fill="#c6b7aa" fill-opacity="1"><g transform="translate(355.246858, 30.008956)"><g><path d="M 8.75 0 L 8.75 -12.453125 C 8.75 -12.785156 8.6875 -13.003906 8.5625 -13.109375 C 8.4375 -13.222656 8.207031 -13.28125 7.875 -13.28125 L 1.453125 -13.28125 L 1.453125 -16.703125 L 10.53125 -16.703125 C 11.457031 -16.703125 12.109375 -16.484375 12.484375 -16.046875 C 12.867188 -15.609375 13.0625 -14.863281 13.0625 -13.8125 L 13.0625 0 Z M 2.875 0 C 1.925781 0 1.453125 -0.484375 1.453125 -1.453125 L 1.453125 -10.40625 L 5.765625 -10.40625 L 5.765625 -3.953125 C 5.765625 -3.597656 5.90625 -3.421875 6.1875 -3.421875 L 6.546875 -3.421875 L 6.546875 0 Z M 2.875 0 "/></g></g></g><g fill="#c6b7aa" fill-opacity="1"><g transform="translate(369.837127, 30.008956)"><g/></g></g><g fill="#c6b7aa" fill-opacity="1"><g transform="translate(375.545148, 30.008956)"><g><path d="M 2.453125 -7.078125 L 2.453125 -12.671875 C 2.453125 -12.929688 2.410156 -13.097656 2.328125 -13.171875 C 2.242188 -13.242188 2.070312 -13.28125 1.8125 -13.28125 L 0.75 -13.28125 L 0.75 -16.703125 L 4.5625 -16.703125 C 5.363281 -16.703125 5.925781 -16.539062 6.25 -16.21875 C 6.570312 -15.894531 6.734375 -15.332031 6.734375 -14.53125 L 6.734375 -7.078125 Z M 2.453125 -7.078125 "/></g></g></g><g fill="#c6b7aa" fill-opacity="1"><g transform="translate(383.647759, 30.008956)"><g><path d="M 8.078125 -0.171875 C 7.460938 0.0351562 6.847656 0.175781 6.234375 0.25 C 5.617188 0.320312 5.050781 0.289062 4.53125 0.15625 C 4.019531 0.03125 3.59375 -0.222656 3.25 -0.609375 C 2.90625 -1.003906 2.703125 -1.570312 2.640625 -2.3125 L 1.921875 -12.671875 C 1.898438 -12.929688 1.859375 -13.097656 1.796875 -13.171875 C 1.742188 -13.242188 1.597656 -13.28125 1.359375 -13.28125 L 0.609375 -13.28125 L 0.609375 -16.703125 L 4.171875 -16.703125 C 4.785156 -16.703125 5.226562 -16.566406 5.5 -16.296875 C 5.769531 -16.035156 5.921875 -15.601562 5.953125 -15 L 6.65625 -4.40625 C 6.6875 -4.03125 6.8125 -3.796875 7.03125 -3.703125 C 7.257812 -3.609375 7.539062 -3.617188 7.875 -3.734375 L 9.296875 -4.203125 C 9.785156 -4.367188 10.066406 -4.703125 10.140625 -5.203125 C 10.210938 -5.703125 10.300781 -6.351562 10.40625 -7.15625 L 11.109375 -12.671875 C 11.148438 -12.984375 11.117188 -13.207031 11.015625 -13.34375 C 10.910156 -13.488281 10.765625 -13.570312 10.578125 -13.59375 C 10.316406 -13.625 10.132812 -13.566406 10.03125 -13.421875 C 9.9375 -13.285156 9.878906 -13.082031 9.859375 -12.8125 L 9.640625 -9.828125 L 6.984375 -9.890625 L 7.125 -13.859375 C 7.164062 -14.878906 7.507812 -15.660156 8.15625 -16.203125 C 8.800781 -16.742188 9.75 -17.015625 11 -17.015625 C 11.78125 -17.015625 12.503906 -16.867188 13.171875 -16.578125 C 13.835938 -16.296875 14.359375 -15.859375 14.734375 -15.265625 C 15.117188 -14.671875 15.253906 -13.890625 15.140625 -12.921875 L 14.25 -4.984375 C 14.15625 -4.015625 13.875 -3.226562 13.40625 -2.625 C 12.945312 -2.019531 12.207031 -1.546875 11.1875 -1.203125 Z M 8.078125 -0.171875 "/></g></g></g><g fill="#c6b7aa" fill-opacity="1"><g transform="translate(399.184706, 30.008956)"><g><path d="M 0.078125 0 L 0.078125 -3.421875 L 2.390625 -3.421875 C 2.785156 -3.421875 3.046875 -3.484375 3.171875 -3.609375 C 3.304688 -3.742188 3.375 -4.015625 3.375 -4.421875 L 3.375 -12.453125 C 3.375 -12.785156 3.316406 -13.003906 3.203125 -13.109375 C 3.085938 -13.222656 2.875 -13.28125 2.5625 -13.28125 L 1.59375 -13.28125 L 1.59375 -16.703125 L 5.125 -16.703125 C 6.050781 -16.703125 6.707031 -16.492188 7.09375 -16.078125 C 7.488281 -15.660156 7.6875 -14.960938 7.6875 -13.984375 L 7.6875 -2.78125 C 7.6875 -1.757812 7.484375 -1.039062 7.078125 -0.625 C 6.679688 -0.207031 6.007812 0 5.0625 0 Z M 0.078125 0 "/></g></g></g><g fill="#c6b7aa" fill-opacity="1"><g transform="translate(408.261858, 30.008956)"><g><path d="M 2.484375 0 L 2.484375 -12.671875 C 2.484375 -12.929688 2.441406 -13.097656 2.359375 -13.171875 C 2.273438 -13.242188 2.101562 -13.28125 1.84375 -13.28125 L 0.828125 -13.28125 L 0.828125 -16.703125 L 4.921875 -16.703125 C 5.609375 -16.703125 6.09375 -16.5625 6.375 -16.28125 C 6.65625 -16.007812 6.796875 -15.539062 6.796875 -14.875 L 6.796875 0 Z M 2.484375 0 "/></g></g></g><g fill="#c6b7aa" fill-opacity="1"><g transform="translate(416.587213, 30.008956)"><g><path d="M 2.484375 0 L 2.484375 -12.671875 C 2.484375 -12.929688 2.441406 -13.097656 2.359375 -13.171875 C 2.273438 -13.242188 2.101562 -13.28125 1.84375 -13.28125 L 0.828125 -13.28125 L 0.828125 -16.703125 L 4.921875 -16.703125 C 5.609375 -16.703125 6.09375 -16.5625 6.375 -16.28125 C 6.65625 -16.007812 6.796875 -15.539062 6.796875 -14.875 L 6.796875 0 Z M 2.484375 0 "/></g></g></g><g fill="#c6b7aa" fill-opacity="1"><g transform="translate(424.801208, 30.008956)"><g><path d="M 4.453125 0 C 3.378906 0 2.65625 -0.335938 2.28125 -1.015625 C 1.90625 -1.691406 1.925781 -2.660156 2.34375 -3.921875 L 5.0625 -12.390625 C 5.25 -12.984375 5.046875 -13.28125 4.453125 -13.28125 L 1.203125 -13.28125 C 0.898438 -13.28125 0.6875 -13.335938 0.5625 -13.453125 C 0.445312 -13.578125 0.390625 -13.796875 0.390625 -14.109375 L 0.390625 -18.9375 L 4.453125 -18.9375 L 4.453125 -16.703125 L 7.4375 -16.703125 C 8.488281 -16.703125 9.222656 -16.351562 9.640625 -15.65625 C 10.066406 -14.96875 10.09375 -14.046875 9.71875 -12.890625 L 6.765625 -4.15625 C 6.691406 -3.945312 6.675781 -3.769531 6.71875 -3.625 C 6.769531 -3.488281 6.914062 -3.421875 7.15625 -3.421875 L 8.375 -3.421875 L 8.375 0 Z M 4.453125 0 "/></g></g></g><g fill="#c6b7aa" fill-opacity="1"><g transform="translate(435.716081, 30.008956)"><g><path d="M 5.3125 0 L 5.3125 -12.28125 C 5.3125 -12.945312 4.976562 -13.28125 4.3125 -13.28125 L 0.390625 -13.28125 L 0.390625 -16.703125 L 6.828125 -16.703125 C 7.859375 -16.703125 8.582031 -16.488281 9 -16.0625 C 9.425781 -15.632812 9.640625 -14.910156 9.640625 -13.890625 L 9.640625 0 Z M 5.3125 0 "/></g></g></g><g fill="#c6b7aa" fill-opacity="1"><g transform="translate(446.881537, 30.008956)"><g/></g></g><g fill="#c6b7aa" fill-opacity="1"><g transform="translate(452.589558, 30.008956)"><g><path d="M 11.578125 -16.703125 C 12.398438 -16.703125 12.984375 -16.523438 13.328125 -16.171875 C 13.679688 -15.816406 13.859375 -15.222656 13.859375 -14.390625 L 13.859375 -1.03125 C 13.859375 -0.65625 13.78125 -0.390625 13.625 -0.234375 C 13.46875 -0.078125 13.207031 0 12.84375 0 L 3.171875 0 C 2.804688 0 2.539062 -0.078125 2.375 -0.234375 C 2.21875 -0.390625 2.140625 -0.65625 2.140625 -1.03125 L 2.140625 -11.5 C 2.140625 -12.332031 2.28125 -12.925781 2.5625 -13.28125 L 1 -13.28125 L 1 -16.703125 Z M 9.65625 -3.640625 L 9.65625 -12.453125 C 9.65625 -12.816406 9.597656 -13.0625 9.484375 -13.1875 C 9.378906 -13.320312 9.160156 -13.390625 8.828125 -13.390625 L 7.15625 -13.390625 C 6.820312 -13.390625 6.601562 -13.304688 6.5 -13.140625 C 6.394531 -12.972656 6.34375 -12.695312 6.34375 -12.3125 L 6.34375 -3.640625 C 6.34375 -3.515625 6.363281 -3.425781 6.40625 -3.375 C 6.457031 -3.332031 6.550781 -3.3125 6.6875 -3.3125 L 9.328125 -3.3125 C 9.472656 -3.3125 9.5625 -3.332031 9.59375 -3.375 C 9.632812 -3.425781 9.65625 -3.515625 9.65625 -3.640625 Z M 9.65625 -3.640625 "/></g></g></g><g fill="#c6b7aa" fill-opacity="1"><g transform="translate(467.987304, 30.008956)"><g><path d="M 5.5625 -8.75 C 5.320312 -8.65625 5.179688 -8.523438 5.140625 -8.359375 C 5.109375 -8.191406 5.140625 -7.921875 5.234375 -7.546875 L 6.484375 -3.515625 C 6.796875 -2.503906 6.859375 -1.664062 6.671875 -1 C 6.492188 -0.332031 5.929688 0 4.984375 0 L 0.953125 0 L 0.953125 -3.421875 L 1.84375 -3.421875 C 2.082031 -3.421875 2.179688 -3.523438 2.140625 -3.734375 L 1.421875 -7.21875 C 1.234375 -8.082031 1.21875 -8.789062 1.375 -9.34375 C 1.53125 -9.90625 1.796875 -10.367188 2.171875 -10.734375 C 2.554688 -11.109375 2.972656 -11.421875 3.421875 -11.671875 L 3.84375 -11.890625 L 0.96875 -16.703125 L 5.375 -16.703125 L 9.265625 -9.6875 C 9.421875 -9.78125 9.523438 -9.894531 9.578125 -10.03125 C 9.628906 -10.175781 9.65625 -10.40625 9.65625 -10.71875 L 9.65625 -16.703125 L 13.78125 -16.703125 L 13.78125 -10.390625 C 13.78125 -9.535156 13.609375 -8.8125 13.265625 -8.21875 C 12.921875 -7.632812 12.320312 -7.085938 11.46875 -6.578125 L 11.078125 -6.328125 L 14.34375 0 L 10 0 L 5.59375 -8.75 Z M 5.5625 -8.75 "/></g></g></g><g fill="#c6b7aa" fill-opacity="1"><g transform="translate(482.9117, 30.008956)"><g><path d="M 8.75 0 L 8.75 -12.453125 C 8.75 -12.785156 8.6875 -13.003906 8.5625 -13.109375 C 8.4375 -13.222656 8.207031 -13.28125 7.875 -13.28125 L 1.453125 -13.28125 L 1.453125 -16.703125 L 10.53125 -16.703125 C 11.457031 -16.703125 12.109375 -16.484375 12.484375 -16.046875 C 12.867188 -15.609375 13.0625 -14.863281 13.0625 -13.8125 L 13.0625 0 Z M 2.875 0 C 1.925781 0 1.453125 -0.484375 1.453125 -1.453125 L 1.453125 -10.40625 L 5.765625 -10.40625 L 5.765625 -3.953125 C 5.765625 -3.597656 5.90625 -3.421875 6.1875 -3.421875 L 6.546875 -3.421875 L 6.546875 0 Z M 2.875 0 "/></g></g></g><g fill="#c6b7aa" fill-opacity="1"><g transform="translate(497.167842, 30.008956)"><g><path d="M 10.40625 -16.125 L 8.6875 -14.5 L 10.40625 -12.859375 L 8.65625 -11.171875 L 6.9375 -12.859375 L 6.796875 -12.71875 L 6.796875 -9.96875 L 4.265625 -9.96875 L 4.265625 -12.71875 L 4.171875 -12.8125 L 2.484375 -11.140625 L 0.71875 -12.84375 L 2.421875 -14.5 L 0.71875 -16.171875 L 2.484375 -17.90625 L 4.171875 -16.234375 L 4.265625 -16.3125 L 4.265625 -19.078125 L 6.796875 -19.078125 L 6.796875 -16.3125 L 6.9375 -16.171875 L 8.65625 -17.875 Z M 10.40625 -16.125 "/></g></g></g></svg>