<svg xmlns="http://www.w3.org/2000/svg" xmlns:xlink="http://www.w3.org/1999/xlink" width="1237" zoomAndPan="magnify" viewBox="0 0 927.75 266.999984" height="356" preserveAspectRatio="xMidYMid meet" version="1.0"><defs><g/><clipPath id="30c9a29af7"><path d="M 728.386719 19.566406 L 732.269531 19.566406 L 732.269531 23.445312 L 728.386719 23.445312 Z M 728.386719 19.566406 " clip-rule="nonzero"/></clipPath><clipPath id="307b1de700"><path d="M 730.328125 19.566406 C 729.257812 19.566406 728.386719 20.433594 728.386719 21.503906 C 728.386719 22.574219 729.257812 23.445312 730.328125 23.445312 C 731.398438 23.445312 732.269531 22.574219 732.269531 21.503906 C 732.269531 20.433594 731.398438 19.566406 730.328125 19.566406 Z M 730.328125 19.566406 " clip-rule="nonzero"/></clipPath><clipPath id="80972078c2"><path d="M 0.386719 0.566406 L 4.269531 0.566406 L 4.269531 4.445312 L 0.386719 4.445312 Z M 0.386719 0.566406 " clip-rule="nonzero"/></clipPath><clipPath id="96596432ca"><path d="M 2.328125 0.566406 C 1.257812 0.566406 0.386719 1.433594 0.386719 2.503906 C 0.386719 3.574219 1.257812 4.445312 2.328125 4.445312 C 3.398438 4.445312 4.269531 3.574219 4.269531 2.503906 C 4.269531 1.433594 3.398438 0.566406 2.328125 0.566406 Z M 2.328125 0.566406 " clip-rule="nonzero"/></clipPath><clipPath id="e197e06739"><rect x="0" width="5" y="0" height="5"/></clipPath></defs><g fill="#61888d" fill-opacity="1"><g transform="translate(705.522859, 40.859882)"><g/></g></g><g fill="#61888d" fill-opacity="1"><g transform="translate(713.313732, 40.859882)"><g><path d="M 2.171875 -13.40625 L 2.171875 -19.828125 L 8.578125 -19.828125 L 8.578125 -13.40625 Z M 2.171875 0 L 2.171875 -6.421875 L 8.578125 -6.421875 L 8.578125 0 Z M 2.171875 0 "/></g></g></g><g fill="#61888d" fill-opacity="1"><g transform="translate(724.062639, 40.859882)"><g><path d="M 17.78125 -22.796875 C 18.894531 -22.796875 19.640625 -22.414062 20.015625 -21.65625 C 20.398438 -20.894531 20.460938 -19.957031 20.203125 -18.84375 L 16.328125 0 L 10.375 0 L 13.71875 -17.203125 C 13.789062 -17.640625 13.800781 -17.925781 13.75 -18.0625 C 13.695312 -18.195312 13.457031 -18.265625 13.03125 -18.265625 L 10.03125 -18.265625 C 9.726562 -18.265625 9.488281 -18.226562 9.3125 -18.15625 C 9.132812 -18.082031 9.046875 -17.789062 9.046875 -17.28125 L 9.046875 0.90625 C 9.046875 1.21875 9.195312 1.375 9.5 1.375 L 10.40625 1.375 L 10.40625 5.8125 L 5.234375 5.8125 C 3.847656 5.8125 3.15625 5.113281 3.15625 3.71875 L 3.15625 -16.5625 C 3.15625 -17.320312 3.296875 -17.84375 3.578125 -18.125 L 1.375 -18.125 L 1.375 -22.796875 Z M 17.78125 -22.796875 "/></g></g></g><g fill="#61888d" fill-opacity="1"><g transform="translate(745.484486, 40.859882)"><g><path d="M 21.234375 -22.796875 L 21.234375 -18.125 L 19.0625 -18.125 C 19.34375 -17.632812 19.484375 -16.722656 19.484375 -15.390625 L 19.484375 0 L 13.59375 0 L 13.59375 -16.40625 C 13.59375 -17.144531 13.535156 -17.613281 13.421875 -17.8125 C 13.304688 -18.019531 13.070312 -18.125 12.71875 -18.125 L 9.84375 -18.125 C 9.507812 -18.125 9.285156 -18.019531 9.171875 -17.8125 C 9.054688 -17.613281 9 -17.144531 9 -16.40625 L 9 0 L 3.109375 0 L 3.109375 -15.390625 C 3.109375 -16.722656 3.25 -17.632812 3.53125 -18.125 L 1.375 -18.125 L 1.375 -22.796875 Z M 21.234375 -22.796875 "/></g></g></g><g fill="#61888d" fill-opacity="1"><g transform="translate(768.083773, 40.859882)"><g><path d="M 17.171875 -22.796875 L 22.859375 -22.796875 L 21.765625 -8.09375 C 21.566406 -5.175781 20.8125 -3.097656 19.5 -1.859375 C 18.195312 -0.617188 16.15625 0 13.375 0 L 5.78125 0 C 4.789062 0 4.070312 -0.25 3.625 -0.75 C 3.1875 -1.257812 2.898438 -1.972656 2.765625 -2.890625 L 2.125 -7.75 C 1.925781 -8.988281 2.269531 -9.9375 3.15625 -10.59375 L 1.296875 -22.796875 L 7.03125 -22.796875 L 8.578125 -12.5 L 8.625 -12.5 C 8.976562 -12.625 9.195312 -12.757812 9.28125 -12.90625 C 9.375 -13.0625 9.421875 -13.34375 9.421875 -13.75 L 9.421875 -22.796875 L 15.078125 -22.796875 L 15.078125 -12.609375 C 15.078125 -11.492188 14.898438 -10.6875 14.546875 -10.1875 C 14.191406 -9.695312 13.625 -9.316406 12.84375 -9.046875 L 8.734375 -7.640625 C 8.304688 -7.460938 8.046875 -7.300781 7.953125 -7.15625 C 7.867188 -7.019531 7.851562 -6.75 7.90625 -6.34375 L 8.046875 -5.359375 C 8.097656 -5.023438 8.21875 -4.8125 8.40625 -4.71875 C 8.601562 -4.632812 8.890625 -4.59375 9.265625 -4.59375 L 11.8125 -4.59375 C 12.875 -4.59375 13.703125 -4.6875 14.296875 -4.875 C 14.890625 -5.070312 15.316406 -5.445312 15.578125 -6 C 15.847656 -6.5625 16.023438 -7.375 16.109375 -8.4375 Z M 17.171875 -22.796875 "/></g></g></g><g fill="#61888d" fill-opacity="1"><g transform="translate(792.278313, 40.859882)"><g><path d="M 18.265625 -3.234375 C 18.316406 -2.117188 18.082031 -1.300781 17.5625 -0.78125 C 17.050781 -0.257812 16.195312 0 15 0 L 9.421875 0 L 9.421875 -4.671875 L 11.3125 -4.671875 C 11.71875 -4.671875 11.972656 -4.753906 12.078125 -4.921875 C 12.179688 -5.085938 12.21875 -5.359375 12.1875 -5.734375 L 11.625 -16.25 C 11.59375 -16.988281 11.492188 -17.507812 11.328125 -17.8125 C 11.171875 -18.113281 10.878906 -18.265625 10.453125 -18.265625 L 10.296875 -18.265625 C 9.960938 -18.265625 9.722656 -18.171875 9.578125 -17.984375 C 9.441406 -17.796875 9.335938 -17.410156 9.265625 -16.828125 L 7.03125 0 L 1.03125 0 L 3.15625 -14.625 C 3.382812 -16.21875 3.828125 -17.382812 4.484375 -18.125 L 1.671875 -18.125 L 1.671875 -22.796875 L 12.5 -22.796875 C 13.9375 -22.796875 15.097656 -22.398438 15.984375 -21.609375 C 16.878906 -20.828125 17.375 -19.347656 17.46875 -17.171875 Z M 18.265625 -3.234375 "/></g></g></g><g fill="#61888d" fill-opacity="1"><g transform="translate(811.915008, 40.859882)"><g/></g></g><g fill="#61888d" fill-opacity="1"><g transform="translate(819.701324, 40.859882)"><g><path d="M 14.96875 -22.796875 C 16.382812 -22.796875 17.390625 -22.492188 17.984375 -21.890625 C 18.578125 -21.296875 18.875 -20.28125 18.875 -18.84375 L 18.875 0 L 12.984375 0 L 12.984375 -16.828125 C 12.984375 -17.335938 12.894531 -17.703125 12.71875 -17.921875 C 12.539062 -18.148438 12.210938 -18.265625 11.734375 -18.265625 L 10.71875 -18.265625 C 9.851562 -18.265625 9.253906 -18 8.921875 -17.46875 C 8.597656 -16.9375 8.585938 -15.820312 8.890625 -14.125 L 10.25 -6.15625 C 10.632812 -4.070312 10.519531 -2.523438 9.90625 -1.515625 C 9.300781 -0.503906 8.078125 0 6.234375 0 L 1.171875 0 L 1.171875 -4.671875 L 3.421875 -4.671875 C 3.773438 -4.671875 4.046875 -4.769531 4.234375 -4.96875 C 4.421875 -5.175781 4.476562 -5.554688 4.40625 -6.109375 L 3.15625 -13.375 C 2.894531 -14.789062 2.851562 -15.859375 3.03125 -16.578125 C 3.207031 -17.296875 3.4375 -17.8125 3.71875 -18.125 L 1.25 -18.125 L 1.25 -22.796875 Z M 14.96875 -22.796875 "/></g></g></g><g fill="#61888d" fill-opacity="1"><g transform="translate(840.705367, 40.859882)"><g><path d="M 3.375 0 L 3.375 -17.28125 C 3.375 -17.632812 3.316406 -17.863281 3.203125 -17.96875 C 3.085938 -18.070312 2.851562 -18.125 2.5 -18.125 L 1.140625 -18.125 L 1.140625 -22.796875 L 6.71875 -22.796875 C 7.65625 -22.796875 8.3125 -22.601562 8.6875 -22.21875 C 9.070312 -21.84375 9.265625 -21.195312 9.265625 -20.28125 L 9.265625 0 Z M 3.375 0 "/></g></g></g><g fill="#61888d" fill-opacity="1"><g transform="translate(852.061986, 40.859882)"><g><path d="M 7.59375 -11.921875 C 7.269531 -11.796875 7.082031 -11.617188 7.03125 -11.390625 C 6.976562 -11.160156 7.015625 -10.796875 7.140625 -10.296875 L 8.84375 -4.78125 C 9.28125 -3.414062 9.367188 -2.273438 9.109375 -1.359375 C 8.859375 -0.453125 8.085938 0 6.796875 0 L 1.296875 0 L 1.296875 -4.671875 L 2.5 -4.671875 C 2.832031 -4.671875 2.972656 -4.8125 2.921875 -5.09375 L 1.9375 -9.84375 C 1.6875 -11.03125 1.664062 -12.003906 1.875 -12.765625 C 2.09375 -13.523438 2.460938 -14.15625 2.984375 -14.65625 C 3.503906 -15.164062 4.066406 -15.585938 4.671875 -15.921875 L 5.234375 -16.21875 L 1.328125 -22.796875 L 7.328125 -22.796875 L 12.65625 -13.21875 C 12.851562 -13.34375 12.988281 -13.5 13.0625 -13.6875 C 13.144531 -13.882812 13.1875 -14.195312 13.1875 -14.625 L 13.1875 -22.796875 L 18.796875 -22.796875 L 18.796875 -14.171875 C 18.796875 -13.003906 18.5625 -12.019531 18.09375 -11.21875 C 17.625 -10.425781 16.8125 -9.675781 15.65625 -8.96875 L 15.125 -8.625 L 19.5625 0 L 13.640625 0 L 7.640625 -11.921875 Z M 7.59375 -11.921875 "/></g></g></g><g fill="#61888d" fill-opacity="1"><g transform="translate(872.420345, 40.859882)"><g><path d="M 7.25 0 L 7.25 -16.75 C 7.25 -17.664062 6.796875 -18.125 5.890625 -18.125 L 0.53125 -18.125 L 0.53125 -22.796875 L 9.3125 -22.796875 C 10.726562 -22.796875 11.71875 -22.503906 12.28125 -21.921875 C 12.851562 -21.335938 13.140625 -20.347656 13.140625 -18.953125 L 13.140625 0 Z M 7.25 0 "/></g></g></g><g fill="#61888d" fill-opacity="1"><g transform="translate(887.65113, 40.859882)"><g><path d="M 3.375 0 L 3.375 -17.28125 C 3.375 -17.632812 3.316406 -17.863281 3.203125 -17.96875 C 3.085938 -18.070312 2.851562 -18.125 2.5 -18.125 L 1.140625 -18.125 L 1.140625 -22.796875 L 6.71875 -22.796875 C 7.65625 -22.796875 8.3125 -22.601562 8.6875 -22.21875 C 9.070312 -21.84375 9.265625 -21.195312 9.265625 -20.28125 L 9.265625 0 Z M 3.375 0 "/></g></g></g><g fill="#61888d" fill-opacity="1"><g transform="translate(899.00775, 40.859882)"><g><path d="M 11.921875 0 L 11.921875 -16.984375 C 11.921875 -17.429688 11.835938 -17.734375 11.671875 -17.890625 C 11.515625 -18.046875 11.207031 -18.125 10.75 -18.125 L 1.96875 -18.125 L 1.96875 -22.796875 L 14.359375 -22.796875 C 15.617188 -22.796875 16.507812 -22.492188 17.03125 -21.890625 C 17.550781 -21.296875 17.8125 -20.28125 17.8125 -18.84375 L 17.8125 0 Z M 3.90625 0 C 2.613281 0 1.96875 -0.65625 1.96875 -1.96875 L 1.96875 -14.203125 L 7.859375 -14.203125 L 7.859375 -5.390625 C 7.859375 -4.910156 8.050781 -4.671875 8.4375 -4.671875 L 8.921875 -4.671875 L 8.921875 0 Z M 3.90625 0 "/></g></g></g><g fill="#61888d" fill-opacity="1"><g transform="translate(105.05188, 93.345737)"><g><path d="M 12.234375 0 L 12.234375 -18.234375 C 12.234375 -19.097656 11.816406 -19.53125 10.984375 -19.53125 L 2.203125 -19.53125 L 2.203125 -22.796875 L 12.953125 -22.796875 C 14.117188 -22.796875 14.953125 -22.507812 15.453125 -21.9375 C 15.960938 -21.363281 16.21875 -20.445312 16.21875 -19.1875 L 16.21875 0 Z M 4.140625 0 C 2.847656 0 2.203125 -0.65625 2.203125 -1.96875 L 2.203125 -14.203125 L 6.1875 -14.203125 L 6.1875 -3.984375 C 6.1875 -3.503906 6.378906 -3.265625 6.765625 -3.265625 L 7.25 -3.265625 L 7.25 0 Z M 4.140625 0 "/></g></g></g><g fill="#61888d" fill-opacity="1"><g transform="translate(123.66306, 93.345737)"><g><path d="M 0.34375 0 L 0.34375 -3.265625 L 3.984375 -3.265625 C 4.492188 -3.265625 4.84375 -3.367188 5.03125 -3.578125 C 5.21875 -3.796875 5.3125 -4.148438 5.3125 -4.640625 L 5.3125 -18.234375 C 5.3125 -18.710938 5.222656 -19.046875 5.046875 -19.234375 C 4.867188 -19.429688 4.566406 -19.53125 4.140625 -19.53125 L 2.46875 -19.53125 L 2.46875 -22.796875 L 6 -22.796875 C 7.1875 -22.796875 8.035156 -22.523438 8.546875 -21.984375 C 9.054688 -21.453125 9.3125 -20.566406 9.3125 -19.328125 L 9.3125 -3.53125 C 9.3125 -2.269531 9.039062 -1.363281 8.5 -0.8125 C 7.96875 -0.269531 7.109375 0 5.921875 0 Z M 0.34375 0 "/></g></g></g><g fill="#61888d" fill-opacity="1"><g transform="translate(135.209589, 93.345737)"><g><path d="M 4.03125 0 L 4.03125 -18.6875 C 4.03125 -19.25 3.738281 -19.53125 3.15625 -19.53125 L 1.4375 -19.53125 L 1.4375 -22.796875 L 5.46875 -22.796875 C 6.382812 -22.796875 7.035156 -22.601562 7.421875 -22.21875 C 7.816406 -21.84375 8.015625 -21.195312 8.015625 -20.28125 L 8.015625 0 Z M 4.03125 0 "/></g></g></g><g fill="#61888d" fill-opacity="1"><g transform="translate(145.540693, 93.345737)"><g><path d="M 0.875 0 L 0.875 -3.265625 L 7.328125 -3.265625 C 7.804688 -3.265625 8.132812 -3.359375 8.3125 -3.546875 C 8.488281 -3.742188 8.578125 -4.066406 8.578125 -4.515625 L 8.578125 -18.234375 C 8.578125 -18.710938 8.488281 -19.046875 8.3125 -19.234375 C 8.132812 -19.429688 7.804688 -19.53125 7.328125 -19.53125 L 1.296875 -19.53125 L 1.296875 -22.796875 L 9.15625 -22.796875 C 10.375 -22.796875 11.25 -22.523438 11.78125 -21.984375 C 12.3125 -21.453125 12.578125 -20.566406 12.578125 -19.328125 L 12.578125 -3.421875 C 12.578125 -2.203125 12.3125 -1.328125 11.78125 -0.796875 C 11.25 -0.265625 10.375 0 9.15625 0 Z M 0.875 0 "/></g></g></g><g fill="#61888d" fill-opacity="1"><g transform="translate(160.353675, 93.345737)"><g><path d="M 0.34375 0 L 0.34375 -3.265625 L 3.984375 -3.265625 C 4.492188 -3.265625 4.84375 -3.367188 5.03125 -3.578125 C 5.21875 -3.796875 5.3125 -4.148438 5.3125 -4.640625 L 5.3125 -18.234375 C 5.3125 -18.710938 5.222656 -19.046875 5.046875 -19.234375 C 4.867188 -19.429688 4.566406 -19.53125 4.140625 -19.53125 L 2.46875 -19.53125 L 2.46875 -22.796875 L 6 -22.796875 C 7.1875 -22.796875 8.035156 -22.523438 8.546875 -21.984375 C 9.054688 -21.453125 9.3125 -20.566406 9.3125 -19.328125 L 9.3125 -3.53125 C 9.3125 -2.269531 9.039062 -1.363281 8.5 -0.8125 C 7.96875 -0.269531 7.109375 0 5.921875 0 Z M 0.34375 0 "/></g></g></g><g fill="#61888d" fill-opacity="1"><g transform="translate(171.900204, 93.345737)"><g><path d="M 12.234375 0 L 12.234375 -18.234375 C 12.234375 -19.097656 11.816406 -19.53125 10.984375 -19.53125 L 2.203125 -19.53125 L 2.203125 -22.796875 L 12.953125 -22.796875 C 14.117188 -22.796875 14.953125 -22.507812 15.453125 -21.9375 C 15.960938 -21.363281 16.21875 -20.445312 16.21875 -19.1875 L 16.21875 0 Z M 4.140625 0 C 2.847656 0 2.203125 -0.65625 2.203125 -1.96875 L 2.203125 -14.203125 L 6.1875 -14.203125 L 6.1875 -3.984375 C 6.1875 -3.503906 6.378906 -3.265625 6.765625 -3.265625 L 7.25 -3.265625 L 7.25 0 Z M 4.140625 0 "/></g></g></g><g fill="#61888d" fill-opacity="1"><g transform="translate(190.511384, 93.345737)"><g/></g></g><g fill="#61888d" fill-opacity="1"><g transform="translate(198.715502, 93.345737)"><g><path d="M 12.234375 0 L 12.234375 -18.234375 C 12.234375 -19.097656 11.816406 -19.53125 10.984375 -19.53125 L 2.203125 -19.53125 L 2.203125 -22.796875 L 12.953125 -22.796875 C 14.117188 -22.796875 14.953125 -22.507812 15.453125 -21.9375 C 15.960938 -21.363281 16.21875 -20.445312 16.21875 -19.1875 L 16.21875 0 Z M 4.140625 0 C 2.847656 0 2.203125 -0.65625 2.203125 -1.96875 L 2.203125 -14.203125 L 6.1875 -14.203125 L 6.1875 -3.984375 C 6.1875 -3.503906 6.378906 -3.265625 6.765625 -3.265625 L 7.25 -3.265625 L 7.25 0 Z M 4.140625 0 "/></g></g></g><g fill="#61888d" fill-opacity="1"><g transform="translate(217.326682, 93.345737)"><g><path d="M 13.453125 -3.265625 L 14.78125 -3.265625 L 14.78125 0 L 0.875 0 L 0.875 -3.265625 L 8.890625 -3.265625 C 8.816406 -3.421875 8.753906 -3.601562 8.703125 -3.8125 C 8.648438 -4.03125 8.625 -4.265625 8.625 -4.515625 L 8.625 -18.234375 C 8.625 -18.710938 8.523438 -19.046875 8.328125 -19.234375 C 8.140625 -19.429688 7.804688 -19.53125 7.328125 -19.53125 L 1.296875 -19.53125 L 1.296875 -22.796875 L 9.1875 -22.796875 C 10.40625 -22.796875 11.28125 -22.515625 11.8125 -21.953125 C 12.34375 -21.398438 12.609375 -20.476562 12.609375 -19.1875 L 12.609375 -4.21875 C 12.609375 -3.582031 12.890625 -3.265625 13.453125 -3.265625 Z M 13.453125 -3.265625 "/></g></g></g><g fill="#61888d" fill-opacity="1"><g transform="translate(232.595451, 93.345737)"><g><path d="M 4.03125 0 L 4.03125 -18.6875 C 4.03125 -19.25 3.738281 -19.53125 3.15625 -19.53125 L 1.4375 -19.53125 L 1.4375 -22.796875 L 5.46875 -22.796875 C 6.382812 -22.796875 7.035156 -22.601562 7.421875 -22.21875 C 7.816406 -21.84375 8.015625 -21.195312 8.015625 -20.28125 L 8.015625 0 Z M 4.03125 0 "/></g></g></g><g fill="#61888d" fill-opacity="1"><g transform="translate(242.926556, 93.345737)"><g><path d="M 16.71875 -22.796875 L 20.625 -22.796875 L 19.53125 -7.9375 C 19.320312 -5.101562 18.585938 -3.070312 17.328125 -1.84375 C 16.078125 -0.613281 14.140625 0 11.515625 0 L 6 0 C 5.007812 0 4.289062 -0.25 3.84375 -0.75 C 3.40625 -1.257812 3.125 -1.972656 3 -2.890625 L 2.359375 -7.75 C 2.148438 -9.007812 2.488281 -9.945312 3.375 -10.5625 L 1.515625 -22.796875 L 5.4375 -22.796875 L 7.0625 -12 L 8.359375 -12.421875 C 8.785156 -12.578125 9.0625 -12.753906 9.1875 -12.953125 C 9.3125 -13.148438 9.375 -13.492188 9.375 -13.984375 L 9.375 -22.796875 L 13.25 -22.796875 L 13.25 -13.296875 C 13.25 -12.253906 13.070312 -11.492188 12.71875 -11.015625 C 12.363281 -10.535156 11.804688 -10.15625 11.046875 -9.875 L 7.140625 -8.46875 C 6.710938 -8.320312 6.445312 -8.144531 6.34375 -7.9375 C 6.238281 -7.738281 6.210938 -7.4375 6.265625 -7.03125 L 6.6875 -4.21875 C 6.757812 -3.8125 6.894531 -3.546875 7.09375 -3.421875 C 7.300781 -3.296875 7.597656 -3.234375 7.984375 -3.234375 L 10.59375 -3.234375 C 12.320312 -3.234375 13.5625 -3.578125 14.3125 -4.265625 C 15.070312 -4.960938 15.519531 -6.238281 15.65625 -8.09375 Z M 16.71875 -22.796875 "/></g></g></g><g fill="#61888d" fill-opacity="1"><g transform="translate(265.29796, 93.345737)"><g><path d="M 13.484375 -22.796875 C 14.753906 -22.796875 15.664062 -22.515625 16.21875 -21.953125 C 16.78125 -21.398438 17.0625 -20.476562 17.0625 -19.1875 L 17.0625 0 L 13.0625 0 L 13.0625 -18.1875 C 13.0625 -19.101562 12.617188 -19.5625 11.734375 -19.5625 L 9.078125 -19.5625 C 8.210938 -19.5625 7.613281 -19.300781 7.28125 -18.78125 C 6.957031 -18.257812 6.898438 -17.175781 7.109375 -15.53125 L 8.46875 -4.484375 C 8.695312 -3.015625 8.554688 -1.898438 8.046875 -1.140625 C 7.546875 -0.378906 6.585938 0 5.171875 0 L 1.25 0 L 1.25 -3.265625 L 3.53125 -3.265625 C 3.882812 -3.265625 4.148438 -3.363281 4.328125 -3.5625 C 4.503906 -3.769531 4.554688 -4.128906 4.484375 -4.640625 L 3.265625 -14.78125 C 3.085938 -16.21875 3.082031 -17.289062 3.25 -18 C 3.414062 -18.707031 3.625 -19.21875 3.875 -19.53125 L 1.328125 -19.53125 L 1.328125 -22.796875 Z M 13.484375 -22.796875 "/></g></g></g><g fill="#61888d" fill-opacity="1"><g transform="translate(284.706761, 93.345737)"><g><path d="M 12.234375 0 L 12.234375 -18.234375 C 12.234375 -19.097656 11.816406 -19.53125 10.984375 -19.53125 L 2.203125 -19.53125 L 2.203125 -22.796875 L 12.953125 -22.796875 C 14.117188 -22.796875 14.953125 -22.507812 15.453125 -21.9375 C 15.960938 -21.363281 16.21875 -20.445312 16.21875 -19.1875 L 16.21875 0 Z M 4.140625 0 C 2.847656 0 2.203125 -0.65625 2.203125 -1.96875 L 2.203125 -14.203125 L 6.1875 -14.203125 L 6.1875 -3.984375 C 6.1875 -3.503906 6.378906 -3.265625 6.765625 -3.265625 L 7.25 -3.265625 L 7.25 0 Z M 4.140625 0 "/></g></g></g><g fill="#61888d" fill-opacity="1"><g transform="translate(303.326568, 93.345737)"><g/></g></g><g fill="#61888d" fill-opacity="1"><g transform="translate(311.530686, 93.345737)"><g><path d="M 13.484375 -22.796875 C 14.753906 -22.796875 15.664062 -22.515625 16.21875 -21.953125 C 16.78125 -21.398438 17.0625 -20.476562 17.0625 -19.1875 L 17.0625 0 L 13.0625 0 L 13.0625 -18.1875 C 13.0625 -19.101562 12.617188 -19.5625 11.734375 -19.5625 L 9.078125 -19.5625 C 8.210938 -19.5625 7.613281 -19.300781 7.28125 -18.78125 C 6.957031 -18.257812 6.898438 -17.175781 7.109375 -15.53125 L 8.46875 -4.484375 C 8.695312 -3.015625 8.554688 -1.898438 8.046875 -1.140625 C 7.546875 -0.378906 6.585938 0 5.171875 0 L 1.25 0 L 1.25 -3.265625 L 3.53125 -3.265625 C 3.882812 -3.265625 4.148438 -3.363281 4.328125 -3.5625 C 4.503906 -3.769531 4.554688 -4.128906 4.484375 -4.640625 L 3.265625 -14.78125 C 3.085938 -16.21875 3.082031 -17.289062 3.25 -18 C 3.414062 -18.707031 3.625 -19.21875 3.875 -19.53125 L 1.328125 -19.53125 L 1.328125 -22.796875 Z M 13.484375 -22.796875 "/></g></g></g><g fill="#61888d" fill-opacity="1"><g transform="translate(330.939487, 93.345737)"><g><path d="M 6.53125 -13.21875 C 6.050781 -12.988281 5.75 -12.695312 5.625 -12.34375 C 5.5 -11.988281 5.523438 -11.40625 5.703125 -10.59375 L 7.375 -3.421875 C 7.644531 -2.410156 7.640625 -1.585938 7.359375 -0.953125 C 7.085938 -0.316406 6.484375 0 5.546875 0 L 1.5625 0 L 1.5625 -3.265625 L 2.8125 -3.265625 C 3.21875 -3.265625 3.378906 -3.46875 3.296875 -3.875 L 2.015625 -10.328125 C 1.679688 -11.921875 1.800781 -13.128906 2.375 -13.953125 C 2.945312 -14.773438 3.738281 -15.453125 4.75 -15.984375 L 5.3125 -16.296875 L 1.75 -22.796875 L 5.78125 -22.796875 L 11.46875 -11.96875 L 11.8125 -12.1875 C 12.238281 -12.46875 12.53125 -12.738281 12.6875 -13 C 12.84375 -13.269531 12.921875 -13.757812 12.921875 -14.46875 L 12.921875 -22.796875 L 16.796875 -22.796875 L 16.796875 -14.171875 C 16.796875 -13.003906 16.578125 -12.070312 16.140625 -11.375 C 15.710938 -10.675781 15.03125 -10.023438 14.09375 -9.421875 L 13.140625 -8.78125 L 17.59375 0 L 13.5625 0 L 6.875 -13.375 Z M 6.53125 -13.21875 "/></g></g></g><g fill="#61888d" fill-opacity="1"><g transform="translate(349.588651, 93.345737)"><g/></g></g><g fill="#61888d" fill-opacity="1"><g transform="translate(357.792769, 93.345737)"><g><path d="M 13.484375 -22.796875 C 14.753906 -22.796875 15.664062 -22.515625 16.21875 -21.953125 C 16.78125 -21.398438 17.0625 -20.476562 17.0625 -19.1875 L 17.0625 0 L 13.0625 0 L 13.0625 -18.1875 C 13.0625 -19.101562 12.617188 -19.5625 11.734375 -19.5625 L 9.078125 -19.5625 C 8.210938 -19.5625 7.613281 -19.300781 7.28125 -18.78125 C 6.957031 -18.257812 6.898438 -17.175781 7.109375 -15.53125 L 8.46875 -4.484375 C 8.695312 -3.015625 8.554688 -1.898438 8.046875 -1.140625 C 7.546875 -0.378906 6.585938 0 5.171875 0 L 1.25 0 L 1.25 -3.265625 L 3.53125 -3.265625 C 3.882812 -3.265625 4.148438 -3.363281 4.328125 -3.5625 C 4.503906 -3.769531 4.554688 -4.128906 4.484375 -4.640625 L 3.265625 -14.78125 C 3.085938 -16.21875 3.082031 -17.289062 3.25 -18 C 3.414062 -18.707031 3.625 -19.21875 3.875 -19.53125 L 1.328125 -19.53125 L 1.328125 -22.796875 Z M 13.484375 -22.796875 "/></g></g></g><g fill="#61888d" fill-opacity="1"><g transform="translate(377.20157, 93.345737)"><g><path d="M 4.03125 0 L 4.03125 -18.6875 C 4.03125 -19.25 3.738281 -19.53125 3.15625 -19.53125 L 1.4375 -19.53125 L 1.4375 -22.796875 L 5.46875 -22.796875 C 6.382812 -22.796875 7.035156 -22.601562 7.421875 -22.21875 C 7.816406 -21.84375 8.015625 -21.195312 8.015625 -20.28125 L 8.015625 0 Z M 4.03125 0 "/></g></g></g><g fill="#61888d" fill-opacity="1"><g transform="translate(387.532675, 93.345737)"><g><path d="M 3.953125 -9.984375 L 3.953125 -18.6875 C 3.953125 -19.25 3.660156 -19.53125 3.078125 -19.53125 L 1.296875 -19.53125 L 1.296875 -22.796875 L 5.09375 -22.796875 C 6.125 -22.796875 6.847656 -22.582031 7.265625 -22.15625 C 7.691406 -21.738281 7.90625 -21.015625 7.90625 -19.984375 L 7.90625 -9.984375 Z M 3.953125 -9.984375 "/></g></g></g><g fill="#61888d" fill-opacity="1"><g transform="translate(397.521945, 93.345737)"><g><path d="M 4.03125 0 L 4.03125 -18.6875 C 4.03125 -19.25 3.738281 -19.53125 3.15625 -19.53125 L 1.4375 -19.53125 L 1.4375 -22.796875 L 5.46875 -22.796875 C 6.382812 -22.796875 7.035156 -22.601562 7.421875 -22.21875 C 7.816406 -21.84375 8.015625 -21.195312 8.015625 -20.28125 L 8.015625 0 Z M 4.03125 0 "/></g></g></g><g fill="#61888d" fill-opacity="1"><g transform="translate(407.85305, 93.345737)"><g><path d="M 8.3125 0 L 8.3125 -18.15625 C 8.3125 -19.070312 7.859375 -19.53125 6.953125 -19.53125 L 0.765625 -19.53125 L 0.765625 -22.796875 L 8.84375 -22.796875 C 10.0625 -22.796875 10.941406 -22.519531 11.484375 -21.96875 C 12.035156 -21.425781 12.3125 -20.535156 12.3125 -19.296875 L 12.3125 0 Z M 8.3125 0 "/></g></g></g><g fill="#61888d" fill-opacity="1"><g transform="translate(422.514107, 93.345737)"><g><path d="M 16.71875 -22.796875 L 20.625 -22.796875 L 19.53125 -7.9375 C 19.320312 -5.101562 18.585938 -3.070312 17.328125 -1.84375 C 16.078125 -0.613281 14.140625 0 11.515625 0 L 6 0 C 5.007812 0 4.289062 -0.25 3.84375 -0.75 C 3.40625 -1.257812 3.125 -1.972656 3 -2.890625 L 2.359375 -7.75 C 2.148438 -9.007812 2.488281 -9.945312 3.375 -10.5625 L 1.515625 -22.796875 L 5.4375 -22.796875 L 7.0625 -12 L 8.359375 -12.421875 C 8.785156 -12.578125 9.0625 -12.753906 9.1875 -12.953125 C 9.3125 -13.148438 9.375 -13.492188 9.375 -13.984375 L 9.375 -22.796875 L 13.25 -22.796875 L 13.25 -13.296875 C 13.25 -12.253906 13.070312 -11.492188 12.71875 -11.015625 C 12.363281 -10.535156 11.804688 -10.15625 11.046875 -9.875 L 7.140625 -8.46875 C 6.710938 -8.320312 6.445312 -8.144531 6.34375 -7.9375 C 6.238281 -7.738281 6.210938 -7.4375 6.265625 -7.03125 L 6.6875 -4.21875 C 6.757812 -3.8125 6.894531 -3.546875 7.09375 -3.421875 C 7.300781 -3.296875 7.597656 -3.234375 7.984375 -3.234375 L 10.59375 -3.234375 C 12.320312 -3.234375 13.5625 -3.578125 14.3125 -4.265625 C 15.070312 -4.960938 15.519531 -6.238281 15.65625 -8.09375 Z M 16.71875 -22.796875 "/></g></g></g><g fill="#61888d" fill-opacity="1"><g transform="translate(444.885512, 93.345737)"><g><path d="M 2.015625 0 L 2.015625 -3.265625 L 10.9375 -3.265625 C 11.851562 -3.265625 12.3125 -3.707031 12.3125 -4.59375 L 12.3125 -18.3125 C 12.3125 -18.789062 12.226562 -19.117188 12.0625 -19.296875 C 11.894531 -19.472656 11.546875 -19.5625 11.015625 -19.5625 L 7.859375 -19.5625 C 7.359375 -19.5625 7 -19.460938 6.78125 -19.265625 C 6.5625 -19.078125 6.425781 -18.757812 6.375 -18.3125 L 5.8125 -13.1875 C 5.757812 -12.75 5.804688 -12.441406 5.953125 -12.265625 C 6.109375 -12.085938 6.414062 -12 6.875 -12 L 8.96875 -12 L 8.96875 -8.78125 L 4.640625 -8.78125 C 3.492188 -8.78125 2.6875 -9.035156 2.21875 -9.546875 C 1.75 -10.066406 1.578125 -10.882812 1.703125 -12 L 2.578125 -19.53125 C 2.703125 -20.664062 3.050781 -21.492188 3.625 -22.015625 C 4.195312 -22.535156 5.039062 -22.796875 6.15625 -22.796875 L 12.71875 -22.796875 C 13.988281 -22.796875 14.898438 -22.519531 15.453125 -21.96875 C 16.015625 -21.425781 16.296875 -20.523438 16.296875 -19.265625 L 16.296875 -3.5 C 16.296875 -2.257812 16.015625 -1.363281 15.453125 -0.8125 C 14.898438 -0.269531 13.988281 0 12.71875 0 Z M 2.015625 0 "/></g></g></g><g fill="#61888d" fill-opacity="1"><g transform="translate(463.38275, 93.345737)"><g><path d="M 6.53125 -13.21875 C 6.050781 -12.988281 5.75 -12.695312 5.625 -12.34375 C 5.5 -11.988281 5.523438 -11.40625 5.703125 -10.59375 L 7.375 -3.421875 C 7.644531 -2.410156 7.640625 -1.585938 7.359375 -0.953125 C 7.085938 -0.316406 6.484375 0 5.546875 0 L 1.5625 0 L 1.5625 -3.265625 L 2.8125 -3.265625 C 3.21875 -3.265625 3.378906 -3.46875 3.296875 -3.875 L 2.015625 -10.328125 C 1.679688 -11.921875 1.800781 -13.128906 2.375 -13.953125 C 2.945312 -14.773438 3.738281 -15.453125 4.75 -15.984375 L 5.3125 -16.296875 L 1.75 -22.796875 L 5.78125 -22.796875 L 11.46875 -11.96875 L 11.8125 -12.1875 C 12.238281 -12.46875 12.53125 -12.738281 12.6875 -13 C 12.84375 -13.269531 12.921875 -13.757812 12.921875 -14.46875 L 12.921875 -22.796875 L 16.796875 -22.796875 L 16.796875 -14.171875 C 16.796875 -13.003906 16.578125 -12.070312 16.140625 -11.375 C 15.710938 -10.675781 15.03125 -10.023438 14.09375 -9.421875 L 13.140625 -8.78125 L 17.59375 0 L 13.5625 0 L 6.875 -13.375 Z M 6.53125 -13.21875 "/></g></g></g><g fill="#61888d" fill-opacity="1"><g transform="translate(482.031914, 93.345737)"><g><path d="M 12.234375 0 L 12.234375 -18.234375 C 12.234375 -19.097656 11.816406 -19.53125 10.984375 -19.53125 L 2.203125 -19.53125 L 2.203125 -22.796875 L 12.953125 -22.796875 C 14.117188 -22.796875 14.953125 -22.507812 15.453125 -21.9375 C 15.960938 -21.363281 16.21875 -20.445312 16.21875 -19.1875 L 16.21875 0 Z M 4.140625 0 C 2.847656 0 2.203125 -0.65625 2.203125 -1.96875 L 2.203125 -14.203125 L 6.1875 -14.203125 L 6.1875 -3.984375 C 6.1875 -3.503906 6.378906 -3.265625 6.765625 -3.265625 L 7.25 -3.265625 L 7.25 0 Z M 4.140625 0 "/></g></g></g><g fill="#61888d" fill-opacity="1"><g transform="translate(500.643094, 93.345737)"><g/></g></g><g fill="#61888d" fill-opacity="1"><g transform="translate(508.847212, 93.345737)"><g><path d="M 4.03125 5.46875 L 4.03125 -18.6875 C 4.03125 -19.25 3.738281 -19.53125 3.15625 -19.53125 L 1.4375 -19.53125 L 1.4375 -22.796875 L 5.46875 -22.796875 C 6.382812 -22.796875 7.035156 -22.601562 7.421875 -22.21875 C 7.816406 -21.84375 8.015625 -21.195312 8.015625 -20.28125 L 8.015625 5.46875 Z M 4.03125 5.46875 "/></g></g></g><g fill="#61888d" fill-opacity="1"><g transform="translate(519.178305, 93.345737)"><g><path d="M 3.953125 -9.984375 L 3.953125 -18.6875 C 3.953125 -19.25 3.660156 -19.53125 3.078125 -19.53125 L 1.296875 -19.53125 L 1.296875 -22.796875 L 5.09375 -22.796875 C 6.125 -22.796875 6.847656 -22.582031 7.265625 -22.15625 C 7.691406 -21.738281 7.90625 -21.015625 7.90625 -19.984375 L 7.90625 -9.984375 Z M 3.953125 -9.984375 "/></g></g></g><g fill="#61888d" fill-opacity="1"><g transform="translate(529.167587, 93.345737)"><g><path d="M 13.453125 -3.265625 L 14.78125 -3.265625 L 14.78125 0 L 0.875 0 L 0.875 -3.265625 L 8.890625 -3.265625 C 8.816406 -3.421875 8.753906 -3.601562 8.703125 -3.8125 C 8.648438 -4.03125 8.625 -4.265625 8.625 -4.515625 L 8.625 -18.234375 C 8.625 -18.710938 8.523438 -19.046875 8.328125 -19.234375 C 8.140625 -19.429688 7.804688 -19.53125 7.328125 -19.53125 L 1.296875 -19.53125 L 1.296875 -22.796875 L 9.1875 -22.796875 C 10.40625 -22.796875 11.28125 -22.515625 11.8125 -21.953125 C 12.34375 -21.398438 12.609375 -20.476562 12.609375 -19.1875 L 12.609375 -4.21875 C 12.609375 -3.582031 12.890625 -3.265625 13.453125 -3.265625 Z M 13.453125 -3.265625 "/></g></g></g><g fill="#61888d" fill-opacity="1"><g transform="translate(544.436345, 93.345737)"><g><path d="M 16.515625 -3.234375 C 16.566406 -2.117188 16.332031 -1.300781 15.8125 -0.78125 C 15.300781 -0.257812 14.445312 0 13.25 0 L 8.125 0 L 8.125 -3.265625 L 11.359375 -3.265625 C 11.785156 -3.265625 12.082031 -3.363281 12.25 -3.5625 C 12.414062 -3.769531 12.484375 -4.078125 12.453125 -4.484375 L 11.890625 -16.71875 C 11.835938 -17.832031 11.640625 -18.582031 11.296875 -18.96875 C 10.953125 -19.363281 10.453125 -19.5625 9.796875 -19.5625 L 9.046875 -19.5625 C 8.554688 -19.5625 8.21875 -19.429688 8.03125 -19.171875 C 7.84375 -18.921875 7.710938 -18.46875 7.640625 -17.8125 L 5.359375 0 L 1.328125 0 L 3.5 -16.671875 C 3.675781 -17.960938 4.015625 -18.914062 4.515625 -19.53125 L 1.96875 -19.53125 L 1.96875 -22.796875 L 10.859375 -22.796875 C 12.304688 -22.796875 13.476562 -22.398438 14.375 -21.609375 C 15.269531 -20.828125 15.769531 -19.347656 15.875 -17.171875 Z M 16.515625 -3.234375 "/></g></g></g><g fill="#61888d" fill-opacity="1"><g transform="translate(562.629745, 93.345737)"><g/></g></g><g fill="#61888d" fill-opacity="1"><g transform="translate(570.833863, 93.345737)"><g><path d="M 4.03125 5.46875 L 4.03125 -18.6875 C 4.03125 -19.25 3.738281 -19.53125 3.15625 -19.53125 L 1.4375 -19.53125 L 1.4375 -22.796875 L 5.46875 -22.796875 C 6.382812 -22.796875 7.035156 -22.601562 7.421875 -22.21875 C 7.816406 -21.84375 8.015625 -21.195312 8.015625 -20.28125 L 8.015625 5.46875 Z M 4.03125 5.46875 "/></g></g></g><g fill="#61888d" fill-opacity="1"><g transform="translate(581.164956, 93.345737)"><g><path d="M 16.515625 -3.234375 C 16.566406 -2.117188 16.332031 -1.300781 15.8125 -0.78125 C 15.300781 -0.257812 14.445312 0 13.25 0 L 8.125 0 L 8.125 -3.265625 L 11.359375 -3.265625 C 11.785156 -3.265625 12.082031 -3.363281 12.25 -3.5625 C 12.414062 -3.769531 12.484375 -4.078125 12.453125 -4.484375 L 11.890625 -16.71875 C 11.835938 -17.832031 11.640625 -18.582031 11.296875 -18.96875 C 10.953125 -19.363281 10.453125 -19.5625 9.796875 -19.5625 L 9.046875 -19.5625 C 8.554688 -19.5625 8.21875 -19.429688 8.03125 -19.171875 C 7.84375 -18.921875 7.710938 -18.46875 7.640625 -17.8125 L 5.359375 0 L 1.328125 0 L 3.5 -16.671875 C 3.675781 -17.960938 4.015625 -18.914062 4.515625 -19.53125 L 1.96875 -19.53125 L 1.96875 -22.796875 L 10.859375 -22.796875 C 12.304688 -22.796875 13.476562 -22.398438 14.375 -21.609375 C 15.269531 -20.828125 15.769531 -19.347656 15.875 -17.171875 Z M 16.515625 -3.234375 "/></g></g></g><g fill="#61888d" fill-opacity="1"><g transform="translate(599.358333, 93.345737)"><g><path d="M 13.59375 -22.796875 C 14.863281 -22.796875 15.851562 -22.617188 16.5625 -22.265625 C 17.269531 -21.910156 17.753906 -21.296875 18.015625 -20.421875 C 18.285156 -19.546875 18.367188 -18.335938 18.265625 -16.796875 L 17.59375 -6.1875 C 17.507812 -4.925781 17.21875 -3.859375 16.71875 -2.984375 C 16.226562 -2.109375 15.203125 -1.457031 13.640625 -1.03125 L 8.578125 0.109375 C 7.035156 0.515625 5.953125 0.441406 5.328125 -0.109375 C 4.710938 -0.671875 4.351562 -1.546875 4.25 -2.734375 L 3.265625 -17.28125 C 3.242188 -17.757812 3.289062 -18.195312 3.40625 -18.59375 C 3.519531 -18.988281 3.675781 -19.3125 3.875 -19.5625 C 3.1875 -19.664062 2.546875 -19.898438 1.953125 -20.265625 C 1.359375 -20.628906 0.875 -21.207031 0.5 -22 L 2.890625 -24.234375 C 3.242188 -23.648438 3.585938 -23.265625 3.921875 -23.078125 C 4.265625 -22.890625 4.753906 -22.796875 5.390625 -22.796875 Z M 14.390625 -15.984375 C 14.472656 -17.003906 14.476562 -17.769531 14.40625 -18.28125 C 14.34375 -18.800781 14.15625 -19.148438 13.84375 -19.328125 C 13.53125 -19.503906 13.019531 -19.582031 12.3125 -19.5625 L 8.09375 -19.53125 C 7.351562 -19.394531 7.023438 -18.875 7.109375 -17.96875 L 8.09375 -4.25 C 8.164062 -3.394531 8.632812 -3.078125 9.5 -3.296875 L 12.109375 -4.109375 C 12.773438 -4.285156 13.21875 -4.554688 13.4375 -4.921875 C 13.664062 -5.285156 13.804688 -5.925781 13.859375 -6.84375 Z M 14.390625 -15.984375 "/></g></g></g><g fill="#61888d" fill-opacity="1"><g transform="translate(619.29889, 93.345737)"><g><path d="M 6.3125 0 C 5.09375 0 4.265625 -0.378906 3.828125 -1.140625 C 3.398438 -1.898438 3.414062 -2.953125 3.875 -4.296875 L 8.84375 -18.15625 C 9 -18.582031 9 -18.914062 8.84375 -19.15625 C 8.695312 -19.40625 8.410156 -19.53125 7.984375 -19.53125 L 1.90625 -19.53125 C 1.5 -19.53125 1.207031 -19.617188 1.03125 -19.796875 C 0.851562 -19.972656 0.765625 -20.273438 0.765625 -20.703125 L 0.765625 -25.828125 L 4.5625 -25.828125 L 4.5625 -22.796875 L 10.375 -22.796875 C 11.632812 -22.796875 12.503906 -22.363281 12.984375 -21.5 C 13.472656 -20.632812 13.472656 -19.546875 12.984375 -18.234375 L 7.9375 -4.25 C 7.832031 -3.976562 7.8125 -3.742188 7.875 -3.546875 C 7.945312 -3.359375 8.144531 -3.265625 8.46875 -3.265625 L 9.984375 -3.265625 L 9.984375 0 Z M 6.3125 0 "/></g></g></g><g fill="#61888d" fill-opacity="1"><g transform="translate(633.997931, 93.345737)"><g><path d="M 4.03125 0 L 4.03125 -18.6875 C 4.03125 -19.25 3.738281 -19.53125 3.15625 -19.53125 L 1.4375 -19.53125 L 1.4375 -22.796875 L 5.46875 -22.796875 C 6.382812 -22.796875 7.035156 -22.601562 7.421875 -22.21875 C 7.816406 -21.84375 8.015625 -21.195312 8.015625 -20.28125 L 8.015625 0 Z M 4.03125 0 "/></g></g></g><g fill="#61888d" fill-opacity="1"><g transform="translate(644.329024, 93.345737)"><g/></g></g><g fill="#61888d" fill-opacity="1"><g transform="translate(652.533142, 93.345737)"><g><path d="M 12.234375 0 L 12.234375 -18.234375 C 12.234375 -19.097656 11.816406 -19.53125 10.984375 -19.53125 L 2.203125 -19.53125 L 2.203125 -22.796875 L 12.953125 -22.796875 C 14.117188 -22.796875 14.953125 -22.507812 15.453125 -21.9375 C 15.960938 -21.363281 16.21875 -20.445312 16.21875 -19.1875 L 16.21875 0 Z M 4.140625 0 C 2.847656 0 2.203125 -0.65625 2.203125 -1.96875 L 2.203125 -14.203125 L 6.1875 -14.203125 L 6.1875 -3.984375 C 6.1875 -3.503906 6.378906 -3.265625 6.765625 -3.265625 L 7.25 -3.265625 L 7.25 0 Z M 4.140625 0 "/></g></g></g><g fill="#61888d" fill-opacity="1"><g transform="translate(671.144322, 93.345737)"><g><path d="M 6.3125 0 C 5.09375 0 4.265625 -0.378906 3.828125 -1.140625 C 3.398438 -1.898438 3.414062 -2.953125 3.875 -4.296875 L 8.84375 -18.15625 C 9 -18.582031 9 -18.914062 8.84375 -19.15625 C 8.695312 -19.40625 8.410156 -19.53125 7.984375 -19.53125 L 1.90625 -19.53125 C 1.5 -19.53125 1.207031 -19.617188 1.03125 -19.796875 C 0.851562 -19.972656 0.765625 -20.273438 0.765625 -20.703125 L 0.765625 -25.828125 L 4.5625 -25.828125 L 4.5625 -22.796875 L 10.375 -22.796875 C 11.632812 -22.796875 12.503906 -22.363281 12.984375 -21.5 C 13.472656 -20.632812 13.472656 -19.546875 12.984375 -18.234375 L 7.9375 -4.25 C 7.832031 -3.976562 7.8125 -3.742188 7.875 -3.546875 C 7.945312 -3.359375 8.144531 -3.265625 8.46875 -3.265625 L 9.984375 -3.265625 L 9.984375 0 Z M 6.3125 0 "/></g></g></g><g fill="#61888d" fill-opacity="1"><g transform="translate(685.843363, 93.345737)"><g><path d="M 6.53125 -13.21875 C 6.050781 -12.988281 5.75 -12.695312 5.625 -12.34375 C 5.5 -11.988281 5.523438 -11.40625 5.703125 -10.59375 L 7.375 -3.421875 C 7.644531 -2.410156 7.640625 -1.585938 7.359375 -0.953125 C 7.085938 -0.316406 6.484375 0 5.546875 0 L 1.5625 0 L 1.5625 -3.265625 L 2.8125 -3.265625 C 3.21875 -3.265625 3.378906 -3.46875 3.296875 -3.875 L 2.015625 -10.328125 C 1.679688 -11.921875 1.800781 -13.128906 2.375 -13.953125 C 2.945312 -14.773438 3.738281 -15.453125 4.75 -15.984375 L 5.3125 -16.296875 L 1.75 -22.796875 L 5.78125 -22.796875 L 11.46875 -11.96875 L 11.8125 -12.1875 C 12.238281 -12.46875 12.53125 -12.738281 12.6875 -13 C 12.84375 -13.269531 12.921875 -13.757812 12.921875 -14.46875 L 12.921875 -22.796875 L 16.796875 -22.796875 L 16.796875 -14.171875 C 16.796875 -13.003906 16.578125 -12.070312 16.140625 -11.375 C 15.710938 -10.675781 15.03125 -10.023438 14.09375 -9.421875 L 13.140625 -8.78125 L 17.59375 0 L 13.5625 0 L 6.875 -13.375 Z M 6.53125 -13.21875 "/></g></g></g><g fill="#61888d" fill-opacity="1"><g transform="translate(704.492527, 93.345737)"><g><path d="M 16.71875 -22.796875 L 20.625 -22.796875 L 19.53125 -7.9375 C 19.320312 -5.101562 18.585938 -3.070312 17.328125 -1.84375 C 16.078125 -0.613281 14.140625 0 11.515625 0 L 6 0 C 5.007812 0 4.289062 -0.25 3.84375 -0.75 C 3.40625 -1.257812 3.125 -1.972656 3 -2.890625 L 2.359375 -7.75 C 2.148438 -9.007812 2.488281 -9.945312 3.375 -10.5625 L 1.515625 -22.796875 L 5.4375 -22.796875 L 7.0625 -12 L 8.359375 -12.421875 C 8.785156 -12.578125 9.0625 -12.753906 9.1875 -12.953125 C 9.3125 -13.148438 9.375 -13.492188 9.375 -13.984375 L 9.375 -22.796875 L 13.25 -22.796875 L 13.25 -13.296875 C 13.25 -12.253906 13.070312 -11.492188 12.71875 -11.015625 C 12.363281 -10.535156 11.804688 -10.15625 11.046875 -9.875 L 7.140625 -8.46875 C 6.710938 -8.320312 6.445312 -8.144531 6.34375 -7.9375 C 6.238281 -7.738281 6.210938 -7.4375 6.265625 -7.03125 L 6.6875 -4.21875 C 6.757812 -3.8125 6.894531 -3.546875 7.09375 -3.421875 C 7.300781 -3.296875 7.597656 -3.234375 7.984375 -3.234375 L 10.59375 -3.234375 C 12.320312 -3.234375 13.5625 -3.578125 14.3125 -4.265625 C 15.070312 -4.960938 15.519531 -6.238281 15.65625 -8.09375 Z M 16.71875 -22.796875 "/></g></g></g><g fill="#61888d" fill-opacity="1"><g transform="translate(726.863909, 93.345737)"><g><path d="M 12.234375 0 L 12.234375 -18.234375 C 12.234375 -19.097656 11.816406 -19.53125 10.984375 -19.53125 L 2.203125 -19.53125 L 2.203125 -22.796875 L 12.953125 -22.796875 C 14.117188 -22.796875 14.953125 -22.507812 15.453125 -21.9375 C 15.960938 -21.363281 16.21875 -20.445312 16.21875 -19.1875 L 16.21875 0 Z M 4.140625 0 C 2.847656 0 2.203125 -0.65625 2.203125 -1.96875 L 2.203125 -14.203125 L 6.1875 -14.203125 L 6.1875 -3.984375 C 6.1875 -3.503906 6.378906 -3.265625 6.765625 -3.265625 L 7.25 -3.265625 L 7.25 0 Z M 4.140625 0 "/></g></g></g><g fill="#61888d" fill-opacity="1"><g transform="translate(745.475088, 93.345737)"><g/></g></g><g fill="#61888d" fill-opacity="1"><g transform="translate(753.679207, 93.345737)"><g><path d="M 13.484375 -22.796875 C 14.753906 -22.796875 15.664062 -22.515625 16.21875 -21.953125 C 16.78125 -21.398438 17.0625 -20.476562 17.0625 -19.1875 L 17.0625 0 L 13.0625 0 L 13.0625 -18.1875 C 13.0625 -19.101562 12.617188 -19.5625 11.734375 -19.5625 L 9.078125 -19.5625 C 8.210938 -19.5625 7.613281 -19.300781 7.28125 -18.78125 C 6.957031 -18.257812 6.898438 -17.175781 7.109375 -15.53125 L 8.46875 -4.484375 C 8.695312 -3.015625 8.554688 -1.898438 8.046875 -1.140625 C 7.546875 -0.378906 6.585938 0 5.171875 0 L 1.25 0 L 1.25 -3.265625 L 3.53125 -3.265625 C 3.882812 -3.265625 4.148438 -3.363281 4.328125 -3.5625 C 4.503906 -3.769531 4.554688 -4.128906 4.484375 -4.640625 L 3.265625 -14.78125 C 3.085938 -16.21875 3.082031 -17.289062 3.25 -18 C 3.414062 -18.707031 3.625 -19.21875 3.875 -19.53125 L 1.328125 -19.53125 L 1.328125 -22.796875 Z M 13.484375 -22.796875 "/></g></g></g><g fill="#61888d" fill-opacity="1"><g transform="translate(773.088008, 93.345737)"><g><path d="M 6.53125 -13.21875 C 6.050781 -12.988281 5.75 -12.695312 5.625 -12.34375 C 5.5 -11.988281 5.523438 -11.40625 5.703125 -10.59375 L 7.375 -3.421875 C 7.644531 -2.410156 7.640625 -1.585938 7.359375 -0.953125 C 7.085938 -0.316406 6.484375 0 5.546875 0 L 1.5625 0 L 1.5625 -3.265625 L 2.8125 -3.265625 C 3.21875 -3.265625 3.378906 -3.46875 3.296875 -3.875 L 2.015625 -10.328125 C 1.679688 -11.921875 1.800781 -13.128906 2.375 -13.953125 C 2.945312 -14.773438 3.738281 -15.453125 4.75 -15.984375 L 5.3125 -16.296875 L 1.75 -22.796875 L 5.78125 -22.796875 L 11.46875 -11.96875 L 11.8125 -12.1875 C 12.238281 -12.46875 12.53125 -12.738281 12.6875 -13 C 12.84375 -13.269531 12.921875 -13.757812 12.921875 -14.46875 L 12.921875 -22.796875 L 16.796875 -22.796875 L 16.796875 -14.171875 C 16.796875 -13.003906 16.578125 -12.070312 16.140625 -11.375 C 15.710938 -10.675781 15.03125 -10.023438 14.09375 -9.421875 L 13.140625 -8.78125 L 17.59375 0 L 13.5625 0 L 6.875 -13.375 Z M 6.53125 -13.21875 "/></g></g></g><g fill="#61888d" fill-opacity="1"><g transform="translate(791.737171, 93.345737)"><g/></g></g><g fill="#61888d" fill-opacity="1"><g transform="translate(799.94129, 93.345737)"><g><path d="M 6.53125 -13.21875 C 6.050781 -12.988281 5.75 -12.695312 5.625 -12.34375 C 5.5 -11.988281 5.523438 -11.40625 5.703125 -10.59375 L 7.375 -3.421875 C 7.644531 -2.410156 7.640625 -1.585938 7.359375 -0.953125 C 7.085938 -0.316406 6.484375 0 5.546875 0 L 1.5625 0 L 1.5625 -3.265625 L 2.8125 -3.265625 C 3.21875 -3.265625 3.378906 -3.46875 3.296875 -3.875 L 2.015625 -10.328125 C 1.679688 -11.921875 1.800781 -13.128906 2.375 -13.953125 C 2.945312 -14.773438 3.738281 -15.453125 4.75 -15.984375 L 5.3125 -16.296875 L 1.75 -22.796875 L 5.78125 -22.796875 L 11.46875 -11.96875 L 11.8125 -12.1875 C 12.238281 -12.46875 12.53125 -12.738281 12.6875 -13 C 12.84375 -13.269531 12.921875 -13.757812 12.921875 -14.46875 L 12.921875 -22.796875 L 16.796875 -22.796875 L 16.796875 -14.171875 C 16.796875 -13.003906 16.578125 -12.070312 16.140625 -11.375 C 15.710938 -10.675781 15.03125 -10.023438 14.09375 -9.421875 L 13.140625 -8.78125 L 17.59375 0 L 13.5625 0 L 6.875 -13.375 Z M 6.53125 -13.21875 "/></g></g></g><g fill="#61888d" fill-opacity="1"><g transform="translate(818.590453, 93.345737)"><g><path d="M 4.03125 0 L 4.03125 -18.6875 C 4.03125 -19.25 3.738281 -19.53125 3.15625 -19.53125 L 1.4375 -19.53125 L 1.4375 -22.796875 L 5.46875 -22.796875 C 6.382812 -22.796875 7.035156 -22.601562 7.421875 -22.21875 C 7.816406 -21.84375 8.015625 -21.195312 8.015625 -20.28125 L 8.015625 0 Z M 4.03125 0 "/></g></g></g><g fill="#61888d" fill-opacity="1"><g transform="translate(828.921546, 93.345737)"><g><path d="M 8.3125 0 L 8.3125 -18.15625 C 8.3125 -19.070312 7.859375 -19.53125 6.953125 -19.53125 L 0.765625 -19.53125 L 0.765625 -22.796875 L 8.84375 -22.796875 C 10.0625 -22.796875 10.941406 -22.519531 11.484375 -21.96875 C 12.035156 -21.425781 12.3125 -20.535156 12.3125 -19.296875 L 12.3125 0 Z M 8.3125 0 "/></g></g></g><g fill="#61888d" fill-opacity="1"><g transform="translate(843.582604, 93.345737)"><g><path d="M 16.109375 -22.796875 C 17.222656 -22.796875 17.972656 -22.414062 18.359375 -21.65625 C 18.753906 -20.894531 18.8125 -19.957031 18.53125 -18.84375 L 14.015625 0 L 9.953125 0 L 14.3125 -18.34375 C 14.414062 -18.769531 14.414062 -19.078125 14.3125 -19.265625 C 14.21875 -19.460938 13.953125 -19.5625 13.515625 -19.5625 L 8.359375 -19.5625 C 8.054688 -19.5625 7.816406 -19.5 7.640625 -19.375 C 7.460938 -19.25 7.375 -18.929688 7.375 -18.421875 L 7.375 1.75 C 7.375 2.101562 7.550781 2.28125 7.90625 2.28125 L 8.578125 2.28125 L 8.578125 5.46875 L 5.46875 5.46875 C 4.070312 5.46875 3.375 4.769531 3.375 3.375 L 3.375 -17.96875 C 3.375 -18.726562 3.515625 -19.25 3.796875 -19.53125 L 1.59375 -19.53125 L 1.59375 -22.796875 Z M 16.109375 -22.796875 "/></g></g></g><g fill="#61888d" fill-opacity="1"><g transform="translate(863.637135, 93.345737)"><g><path d="M 6.3125 0 C 5.09375 0 4.265625 -0.378906 3.828125 -1.140625 C 3.398438 -1.898438 3.414062 -2.953125 3.875 -4.296875 L 8.84375 -18.15625 C 9 -18.582031 9 -18.914062 8.84375 -19.15625 C 8.695312 -19.40625 8.410156 -19.53125 7.984375 -19.53125 L 1.90625 -19.53125 C 1.5 -19.53125 1.207031 -19.617188 1.03125 -19.796875 C 0.851562 -19.972656 0.765625 -20.273438 0.765625 -20.703125 L 0.765625 -25.828125 L 4.5625 -25.828125 L 4.5625 -22.796875 L 10.375 -22.796875 C 11.632812 -22.796875 12.503906 -22.363281 12.984375 -21.5 C 13.472656 -20.632812 13.472656 -19.546875 12.984375 -18.234375 L 7.9375 -4.25 C 7.832031 -3.976562 7.8125 -3.742188 7.875 -3.546875 C 7.945312 -3.359375 8.144531 -3.265625 8.46875 -3.265625 L 9.984375 -3.265625 L 9.984375 0 Z M 6.3125 0 "/></g></g></g><g fill="#61888d" fill-opacity="1"><g transform="translate(878.336177, 93.345737)"><g/></g></g><g fill="#61888d" fill-opacity="1"><g transform="translate(886.540295, 93.345737)"><g><path d="M 16.71875 -22.796875 L 20.625 -22.796875 L 19.53125 -7.9375 C 19.320312 -5.101562 18.585938 -3.070312 17.328125 -1.84375 C 16.078125 -0.613281 14.140625 0 11.515625 0 L 6 0 C 5.007812 0 4.289062 -0.25 3.84375 -0.75 C 3.40625 -1.257812 3.125 -1.972656 3 -2.890625 L 2.359375 -7.75 C 2.148438 -9.007812 2.488281 -9.945312 3.375 -10.5625 L 1.515625 -22.796875 L 5.4375 -22.796875 L 7.0625 -12 L 8.359375 -12.421875 C 8.785156 -12.578125 9.0625 -12.753906 9.1875 -12.953125 C 9.3125 -13.148438 9.375 -13.492188 9.375 -13.984375 L 9.375 -22.796875 L 13.25 -22.796875 L 13.25 -13.296875 C 13.25 -12.253906 13.070312 -11.492188 12.71875 -11.015625 C 12.363281 -10.535156 11.804688 -10.15625 11.046875 -9.875 L 7.140625 -8.46875 C 6.710938 -8.320312 6.445312 -8.144531 6.34375 -7.9375 C 6.238281 -7.738281 6.210938 -7.4375 6.265625 -7.03125 L 6.6875 -4.21875 C 6.757812 -3.8125 6.894531 -3.546875 7.09375 -3.421875 C 7.300781 -3.296875 7.597656 -3.234375 7.984375 -3.234375 L 10.59375 -3.234375 C 12.320312 -3.234375 13.5625 -3.578125 14.3125 -4.265625 C 15.070312 -4.960938 15.519531 -6.238281 15.65625 -8.09375 Z M 16.71875 -22.796875 "/></g></g></g><g fill="#61888d" fill-opacity="1"><g transform="translate(908.911677, 93.345737)"><g><path d="M 3.953125 -9.984375 L 3.953125 -18.6875 C 3.953125 -19.25 3.660156 -19.53125 3.078125 -19.53125 L 1.296875 -19.53125 L 1.296875 -22.796875 L 5.09375 -22.796875 C 6.125 -22.796875 6.847656 -22.582031 7.265625 -22.15625 C 7.691406 -21.738281 7.90625 -21.015625 7.90625 -19.984375 L 7.90625 -9.984375 Z M 3.953125 -9.984375 "/></g></g></g><g fill="#61888d" fill-opacity="1"><g transform="translate(542.090344, 145.831591)"><g><path d="M 12.234375 0 L 12.234375 -18.234375 C 12.234375 -19.097656 11.816406 -19.53125 10.984375 -19.53125 L 2.203125 -19.53125 L 2.203125 -22.796875 L 12.953125 -22.796875 C 14.117188 -22.796875 14.953125 -22.507812 15.453125 -21.9375 C 15.960938 -21.363281 16.21875 -20.445312 16.21875 -19.1875 L 16.21875 0 Z M 4.140625 0 C 2.847656 0 2.203125 -0.65625 2.203125 -1.96875 L 2.203125 -14.203125 L 6.1875 -14.203125 L 6.1875 -3.984375 C 6.1875 -3.503906 6.378906 -3.265625 6.765625 -3.265625 L 7.25 -3.265625 L 7.25 0 Z M 4.140625 0 "/></g></g></g><g fill="#61888d" fill-opacity="1"><g transform="translate(560.701523, 145.831591)"><g><path d="M 0.34375 0 L 0.34375 -3.265625 L 3.984375 -3.265625 C 4.492188 -3.265625 4.84375 -3.367188 5.03125 -3.578125 C 5.21875 -3.796875 5.3125 -4.148438 5.3125 -4.640625 L 5.3125 -18.234375 C 5.3125 -18.710938 5.222656 -19.046875 5.046875 -19.234375 C 4.867188 -19.429688 4.566406 -19.53125 4.140625 -19.53125 L 2.46875 -19.53125 L 2.46875 -22.796875 L 6 -22.796875 C 7.1875 -22.796875 8.035156 -22.523438 8.546875 -21.984375 C 9.054688 -21.453125 9.3125 -20.566406 9.3125 -19.328125 L 9.3125 -3.53125 C 9.3125 -2.269531 9.039062 -1.363281 8.5 -0.8125 C 7.96875 -0.269531 7.109375 0 5.921875 0 Z M 0.34375 0 "/></g></g></g><g fill="#61888d" fill-opacity="1"><g transform="translate(572.248052, 145.831591)"><g><path d="M 4.03125 0 L 4.03125 -18.6875 C 4.03125 -19.25 3.738281 -19.53125 3.15625 -19.53125 L 1.4375 -19.53125 L 1.4375 -22.796875 L 5.46875 -22.796875 C 6.382812 -22.796875 7.035156 -22.601562 7.421875 -22.21875 C 7.816406 -21.84375 8.015625 -21.195312 8.015625 -20.28125 L 8.015625 0 Z M 4.03125 0 "/></g></g></g><g fill="#61888d" fill-opacity="1"><g transform="translate(582.579157, 145.831591)"><g><path d="M 0.875 0 L 0.875 -3.265625 L 7.328125 -3.265625 C 7.804688 -3.265625 8.132812 -3.359375 8.3125 -3.546875 C 8.488281 -3.742188 8.578125 -4.066406 8.578125 -4.515625 L 8.578125 -18.234375 C 8.578125 -18.710938 8.488281 -19.046875 8.3125 -19.234375 C 8.132812 -19.429688 7.804688 -19.53125 7.328125 -19.53125 L 1.296875 -19.53125 L 1.296875 -22.796875 L 9.15625 -22.796875 C 10.375 -22.796875 11.25 -22.523438 11.78125 -21.984375 C 12.3125 -21.453125 12.578125 -20.566406 12.578125 -19.328125 L 12.578125 -3.421875 C 12.578125 -2.203125 12.3125 -1.328125 11.78125 -0.796875 C 11.25 -0.265625 10.375 0 9.15625 0 Z M 0.875 0 "/></g></g></g><g fill="#61888d" fill-opacity="1"><g transform="translate(597.392139, 145.831591)"><g><path d="M 0.34375 0 L 0.34375 -3.265625 L 3.984375 -3.265625 C 4.492188 -3.265625 4.84375 -3.367188 5.03125 -3.578125 C 5.21875 -3.796875 5.3125 -4.148438 5.3125 -4.640625 L 5.3125 -18.234375 C 5.3125 -18.710938 5.222656 -19.046875 5.046875 -19.234375 C 4.867188 -19.429688 4.566406 -19.53125 4.140625 -19.53125 L 2.46875 -19.53125 L 2.46875 -22.796875 L 6 -22.796875 C 7.1875 -22.796875 8.035156 -22.523438 8.546875 -21.984375 C 9.054688 -21.453125 9.3125 -20.566406 9.3125 -19.328125 L 9.3125 -3.53125 C 9.3125 -2.269531 9.039062 -1.363281 8.5 -0.8125 C 7.96875 -0.269531 7.109375 0 5.921875 0 Z M 0.34375 0 "/></g></g></g><g fill="#61888d" fill-opacity="1"><g transform="translate(608.938668, 145.831591)"><g/></g></g><g fill="#61888d" fill-opacity="1"><g transform="translate(617.142786, 145.831591)"><g><path d="M 12.234375 0 L 12.234375 -18.234375 C 12.234375 -19.097656 11.816406 -19.53125 10.984375 -19.53125 L 2.203125 -19.53125 L 2.203125 -22.796875 L 12.953125 -22.796875 C 14.117188 -22.796875 14.953125 -22.507812 15.453125 -21.9375 C 15.960938 -21.363281 16.21875 -20.445312 16.21875 -19.1875 L 16.21875 0 Z M 4.140625 0 C 2.847656 0 2.203125 -0.65625 2.203125 -1.96875 L 2.203125 -14.203125 L 6.1875 -14.203125 L 6.1875 -3.984375 C 6.1875 -3.503906 6.378906 -3.265625 6.765625 -3.265625 L 7.25 -3.265625 L 7.25 0 Z M 4.140625 0 "/></g></g></g><g fill="#61888d" fill-opacity="1"><g transform="translate(635.753965, 145.831591)"><g><path d="M 13.453125 -3.265625 L 14.78125 -3.265625 L 14.78125 0 L 0.875 0 L 0.875 -3.265625 L 8.890625 -3.265625 C 8.816406 -3.421875 8.753906 -3.601562 8.703125 -3.8125 C 8.648438 -4.03125 8.625 -4.265625 8.625 -4.515625 L 8.625 -18.234375 C 8.625 -18.710938 8.523438 -19.046875 8.328125 -19.234375 C 8.140625 -19.429688 7.804688 -19.53125 7.328125 -19.53125 L 1.296875 -19.53125 L 1.296875 -22.796875 L 9.1875 -22.796875 C 10.40625 -22.796875 11.28125 -22.515625 11.8125 -21.953125 C 12.34375 -21.398438 12.609375 -20.476562 12.609375 -19.1875 L 12.609375 -4.21875 C 12.609375 -3.582031 12.890625 -3.265625 13.453125 -3.265625 Z M 13.453125 -3.265625 "/></g></g></g><g fill="#61888d" fill-opacity="1"><g transform="translate(651.022735, 145.831591)"><g><path d="M 4.03125 0 L 4.03125 -18.6875 C 4.03125 -19.25 3.738281 -19.53125 3.15625 -19.53125 L 1.4375 -19.53125 L 1.4375 -22.796875 L 5.46875 -22.796875 C 6.382812 -22.796875 7.035156 -22.601562 7.421875 -22.21875 C 7.816406 -21.84375 8.015625 -21.195312 8.015625 -20.28125 L 8.015625 0 Z M 4.03125 0 "/></g></g></g><g fill="#61888d" fill-opacity="1"><g transform="translate(661.35384, 145.831591)"><g><path d="M 16.71875 -22.796875 L 20.625 -22.796875 L 19.53125 -7.9375 C 19.320312 -5.101562 18.585938 -3.070312 17.328125 -1.84375 C 16.078125 -0.613281 14.140625 0 11.515625 0 L 6 0 C 5.007812 0 4.289062 -0.25 3.84375 -0.75 C 3.40625 -1.257812 3.125 -1.972656 3 -2.890625 L 2.359375 -7.75 C 2.148438 -9.007812 2.488281 -9.945312 3.375 -10.5625 L 1.515625 -22.796875 L 5.4375 -22.796875 L 7.0625 -12 L 8.359375 -12.421875 C 8.785156 -12.578125 9.0625 -12.753906 9.1875 -12.953125 C 9.3125 -13.148438 9.375 -13.492188 9.375 -13.984375 L 9.375 -22.796875 L 13.25 -22.796875 L 13.25 -13.296875 C 13.25 -12.253906 13.070312 -11.492188 12.71875 -11.015625 C 12.363281 -10.535156 11.804688 -10.15625 11.046875 -9.875 L 7.140625 -8.46875 C 6.710938 -8.320312 6.445312 -8.144531 6.34375 -7.9375 C 6.238281 -7.738281 6.210938 -7.4375 6.265625 -7.03125 L 6.6875 -4.21875 C 6.757812 -3.8125 6.894531 -3.546875 7.09375 -3.421875 C 7.300781 -3.296875 7.597656 -3.234375 7.984375 -3.234375 L 10.59375 -3.234375 C 12.320312 -3.234375 13.5625 -3.578125 14.3125 -4.265625 C 15.070312 -4.960938 15.519531 -6.238281 15.65625 -8.09375 Z M 16.71875 -22.796875 "/></g></g></g><g fill="#61888d" fill-opacity="1"><g transform="translate(683.725244, 145.831591)"><g><path d="M 13.484375 -22.796875 C 14.753906 -22.796875 15.664062 -22.515625 16.21875 -21.953125 C 16.78125 -21.398438 17.0625 -20.476562 17.0625 -19.1875 L 17.0625 0 L 13.0625 0 L 13.0625 -18.1875 C 13.0625 -19.101562 12.617188 -19.5625 11.734375 -19.5625 L 9.078125 -19.5625 C 8.210938 -19.5625 7.613281 -19.300781 7.28125 -18.78125 C 6.957031 -18.257812 6.898438 -17.175781 7.109375 -15.53125 L 8.46875 -4.484375 C 8.695312 -3.015625 8.554688 -1.898438 8.046875 -1.140625 C 7.546875 -0.378906 6.585938 0 5.171875 0 L 1.25 0 L 1.25 -3.265625 L 3.53125 -3.265625 C 3.882812 -3.265625 4.148438 -3.363281 4.328125 -3.5625 C 4.503906 -3.769531 4.554688 -4.128906 4.484375 -4.640625 L 3.265625 -14.78125 C 3.085938 -16.21875 3.082031 -17.289062 3.25 -18 C 3.414062 -18.707031 3.625 -19.21875 3.875 -19.53125 L 1.328125 -19.53125 L 1.328125 -22.796875 Z M 13.484375 -22.796875 "/></g></g></g><g fill="#61888d" fill-opacity="1"><g transform="translate(703.134045, 145.831591)"><g/></g></g><g fill="#61888d" fill-opacity="1"><g transform="translate(711.338163, 145.831591)"><g><path d="M 12 -22.796875 L 15.984375 -22.796875 L 15.984375 -10.40625 C 15.984375 -8.5625 15.71875 -7.082031 15.1875 -5.96875 C 14.65625 -4.851562 13.875 -3.953125 12.84375 -3.265625 C 11.820312 -2.578125 10.566406 -1.929688 9.078125 -1.328125 L 2.28125 1.375 L 1.09375 -1.75 L 5.390625 -3.421875 C 5.066406 -3.722656 4.789062 -4.109375 4.5625 -4.578125 C 4.332031 -5.046875 4.179688 -5.609375 4.109375 -6.265625 L 1.78125 -22.796875 L 5.78125 -22.796875 L 8.125 -6 C 8.207031 -5.46875 8.351562 -5.128906 8.5625 -4.984375 C 8.78125 -4.847656 9.015625 -4.832031 9.265625 -4.9375 L 9.421875 -4.96875 C 10.253906 -5.351562 10.890625 -5.851562 11.328125 -6.46875 C 11.773438 -7.09375 12 -8.039062 12 -9.3125 Z M 12 -22.796875 "/></g></g></g><g fill="#61888d" fill-opacity="1"><g transform="translate(729.493556, 145.831591)"><g><path d="M 3.953125 -9.984375 L 3.953125 -18.6875 C 3.953125 -19.25 3.660156 -19.53125 3.078125 -19.53125 L 1.296875 -19.53125 L 1.296875 -22.796875 L 5.09375 -22.796875 C 6.125 -22.796875 6.847656 -22.582031 7.265625 -22.15625 C 7.691406 -21.738281 7.90625 -21.015625 7.90625 -19.984375 L 7.90625 -9.984375 Z M 3.953125 -9.984375 "/></g></g></g><g fill="#61888d" fill-opacity="1"><g transform="translate(739.482838, 145.831591)"><g><path d="M 2.015625 0 L 2.015625 -3.265625 L 10.9375 -3.265625 C 11.851562 -3.265625 12.3125 -3.707031 12.3125 -4.59375 L 12.3125 -18.3125 C 12.3125 -18.789062 12.226562 -19.117188 12.0625 -19.296875 C 11.894531 -19.472656 11.546875 -19.5625 11.015625 -19.5625 L 7.859375 -19.5625 C 7.359375 -19.5625 7 -19.460938 6.78125 -19.265625 C 6.5625 -19.078125 6.425781 -18.757812 6.375 -18.3125 L 5.8125 -13.1875 C 5.757812 -12.75 5.804688 -12.441406 5.953125 -12.265625 C 6.109375 -12.085938 6.414062 -12 6.875 -12 L 8.96875 -12 L 8.96875 -8.78125 L 4.640625 -8.78125 C 3.492188 -8.78125 2.6875 -9.035156 2.21875 -9.546875 C 1.75 -10.066406 1.578125 -10.882812 1.703125 -12 L 2.578125 -19.53125 C 2.703125 -20.664062 3.050781 -21.492188 3.625 -22.015625 C 4.195312 -22.535156 5.039062 -22.796875 6.15625 -22.796875 L 12.71875 -22.796875 C 13.988281 -22.796875 14.898438 -22.519531 15.453125 -21.96875 C 16.015625 -21.425781 16.296875 -20.523438 16.296875 -19.265625 L 16.296875 -3.5 C 16.296875 -2.257812 16.015625 -1.363281 15.453125 -0.8125 C 14.898438 -0.269531 13.988281 0 12.71875 0 Z M 2.015625 0 "/></g></g></g><g fill="#61888d" fill-opacity="1"><g transform="translate(757.980065, 145.831591)"><g><path d="M 4.03125 0 L 4.03125 -18.6875 C 4.03125 -19.25 3.738281 -19.53125 3.15625 -19.53125 L 1.4375 -19.53125 L 1.4375 -22.796875 L 5.46875 -22.796875 C 6.382812 -22.796875 7.035156 -22.601562 7.421875 -22.21875 C 7.816406 -21.84375 8.015625 -21.195312 8.015625 -20.28125 L 8.015625 0 Z M 4.03125 0 "/></g></g></g><g fill="#61888d" fill-opacity="1"><g transform="translate(768.311159, 145.831591)"><g><path d="M 3.953125 -9.984375 L 3.953125 -18.6875 C 3.953125 -19.25 3.660156 -19.53125 3.078125 -19.53125 L 1.296875 -19.53125 L 1.296875 -22.796875 L 5.09375 -22.796875 C 6.125 -22.796875 6.847656 -22.582031 7.265625 -22.15625 C 7.691406 -21.738281 7.90625 -21.015625 7.90625 -19.984375 L 7.90625 -9.984375 Z M 3.953125 -9.984375 "/></g></g></g><g fill="#61888d" fill-opacity="1"><g transform="translate(778.30044, 145.831591)"><g/></g></g><g fill="#61888d" fill-opacity="1"><g transform="translate(786.504559, 145.831591)"><g><path d="M 1.828125 -9.765625 L 1.828125 -13.03125 L 11.96875 -13.03125 L 11.96875 -9.765625 Z M 1.828125 -9.765625 "/></g></g></g><g fill="#61888d" fill-opacity="1"><g transform="translate(800.292026, 145.831591)"><g><path d="M 13.484375 -22.796875 C 14.753906 -22.796875 15.664062 -22.515625 16.21875 -21.953125 C 16.78125 -21.398438 17.0625 -20.476562 17.0625 -19.1875 L 17.0625 0 L 13.0625 0 L 13.0625 -18.1875 C 13.0625 -19.101562 12.617188 -19.5625 11.734375 -19.5625 L 9.078125 -19.5625 C 8.210938 -19.5625 7.613281 -19.300781 7.28125 -18.78125 C 6.957031 -18.257812 6.898438 -17.175781 7.109375 -15.53125 L 8.46875 -4.484375 C 8.695312 -3.015625 8.554688 -1.898438 8.046875 -1.140625 C 7.546875 -0.378906 6.585938 0 5.171875 0 L 1.25 0 L 1.25 -3.265625 L 3.53125 -3.265625 C 3.882812 -3.265625 4.148438 -3.363281 4.328125 -3.5625 C 4.503906 -3.769531 4.554688 -4.128906 4.484375 -4.640625 L 3.265625 -14.78125 C 3.085938 -16.21875 3.082031 -17.289062 3.25 -18 C 3.414062 -18.707031 3.625 -19.21875 3.875 -19.53125 L 1.328125 -19.53125 L 1.328125 -22.796875 Z M 13.484375 -22.796875 "/></g></g></g><g fill="#61888d" fill-opacity="1"><g transform="translate(819.700828, 145.831591)"><g><path d="M 16.109375 -22.796875 C 17.222656 -22.796875 17.972656 -22.414062 18.359375 -21.65625 C 18.753906 -20.894531 18.8125 -19.957031 18.53125 -18.84375 L 14.015625 0 L 9.953125 0 L 14.3125 -18.34375 C 14.414062 -18.769531 14.414062 -19.078125 14.3125 -19.265625 C 14.21875 -19.460938 13.953125 -19.5625 13.515625 -19.5625 L 8.359375 -19.5625 C 8.054688 -19.5625 7.816406 -19.5 7.640625 -19.375 C 7.460938 -19.25 7.375 -18.929688 7.375 -18.421875 L 7.375 1.75 C 7.375 2.101562 7.550781 2.28125 7.90625 2.28125 L 8.578125 2.28125 L 8.578125 5.46875 L 5.46875 5.46875 C 4.070312 5.46875 3.375 4.769531 3.375 3.375 L 3.375 -17.96875 C 3.375 -18.726562 3.515625 -19.25 3.796875 -19.53125 L 1.59375 -19.53125 L 1.59375 -22.796875 Z M 16.109375 -22.796875 "/></g></g></g><g fill="#61888d" fill-opacity="1"><g transform="translate(839.755313, 145.831591)"><g><path d="M 0.765625 -22.796875 L 14.171875 -22.796875 L 14.171875 -19.53125 L 13.03125 -19.53125 C 12.238281 -19.53125 11.84375 -19.007812 11.84375 -17.96875 L 11.84375 0 L 8.046875 0 L 8.046875 -17.4375 C 8.046875 -18.34375 8.1875 -19.039062 8.46875 -19.53125 L 0.765625 -19.53125 Z M 0.765625 -22.796875 "/></g></g></g><g fill="#61888d" fill-opacity="1"><g transform="translate(855.176008, 145.831591)"><g><path d="M 14.09375 -8.890625 L 15.234375 -3.984375 C 15.515625 -2.816406 15.394531 -1.859375 14.875 -1.109375 C 14.351562 -0.367188 13.457031 0 12.1875 0 L 1.21875 0 L 1.21875 -3.265625 L 9.984375 -3.265625 C 10.335938 -3.265625 10.632812 -3.378906 10.875 -3.609375 C 11.125 -3.835938 11.171875 -4.269531 11.015625 -4.90625 L 10.296875 -7.828125 C 10.117188 -8.535156 9.6875 -9.066406 9 -9.421875 L 5.171875 -11.203125 C 4.710938 -11.410156 4.363281 -11.644531 4.125 -11.90625 C 3.882812 -12.175781 3.703125 -12.578125 3.578125 -13.109375 L 1.171875 -22.796875 L 5.234375 -22.796875 L 7.40625 -13.984375 C 7.476562 -13.597656 7.71875 -13.316406 8.125 -13.140625 L 8.78125 -12.84375 L 11.25 -22.796875 L 15.390625 -22.796875 L 12.390625 -11.125 C 12.816406 -10.875 13.164062 -10.582031 13.4375 -10.25 C 13.71875 -9.925781 13.9375 -9.472656 14.09375 -8.890625 Z M 14.09375 -8.890625 "/></g></g></g><g fill="#61888d" fill-opacity="1"><g transform="translate(872.381866, 145.831591)"><g/></g></g><g fill="#61888d" fill-opacity="1"><g transform="translate(880.585984, 145.831591)"><g><path d="M 14.203125 -22.796875 C 15.316406 -22.796875 16.113281 -22.550781 16.59375 -22.0625 C 17.082031 -21.582031 17.328125 -20.773438 17.328125 -19.640625 L 17.328125 -1.40625 C 17.328125 -0.46875 16.859375 0 15.921875 0 L 4.5625 0 C 3.625 0 3.15625 -0.46875 3.15625 -1.40625 L 3.15625 -17.328125 C 3.15625 -18.304688 3.34375 -19.039062 3.71875 -19.53125 L 1.59375 -19.53125 L 1.59375 -22.796875 Z M 13.40625 -3.6875 L 13.40625 -18.1875 C 13.40625 -18.695312 13.3125 -19.050781 13.125 -19.25 C 12.9375 -19.457031 12.613281 -19.5625 12.15625 -19.5625 L 8.28125 -19.5625 C 7.820312 -19.5625 7.503906 -19.445312 7.328125 -19.21875 C 7.148438 -18.988281 7.0625 -18.609375 7.0625 -18.078125 L 7.0625 -3.6875 C 7.0625 -3.382812 7.210938 -3.234375 7.515625 -3.234375 L 12.953125 -3.234375 C 13.253906 -3.234375 13.40625 -3.382812 13.40625 -3.6875 Z M 13.40625 -3.6875 "/></g></g></g><g fill="#61888d" fill-opacity="1"><g transform="translate(900.260674, 145.831591)"><g><path d="M 6.53125 -13.21875 C 6.050781 -12.988281 5.75 -12.695312 5.625 -12.34375 C 5.5 -11.988281 5.523438 -11.40625 5.703125 -10.59375 L 7.375 -3.421875 C 7.644531 -2.410156 7.640625 -1.585938 7.359375 -0.953125 C 7.085938 -0.316406 6.484375 0 5.546875 0 L 1.5625 0 L 1.5625 -3.265625 L 2.8125 -3.265625 C 3.21875 -3.265625 3.378906 -3.46875 3.296875 -3.875 L 2.015625 -10.328125 C 1.679688 -11.921875 1.800781 -13.128906 2.375 -13.953125 C 2.945312 -14.773438 3.738281 -15.453125 4.75 -15.984375 L 5.3125 -16.296875 L 1.75 -22.796875 L 5.78125 -22.796875 L 11.46875 -11.96875 L 11.8125 -12.1875 C 12.238281 -12.46875 12.53125 -12.738281 12.6875 -13 C 12.84375 -13.269531 12.921875 -13.757812 12.921875 -14.46875 L 12.921875 -22.796875 L 16.796875 -22.796875 L 16.796875 -14.171875 C 16.796875 -13.003906 16.578125 -12.070312 16.140625 -11.375 C 15.710938 -10.675781 15.03125 -10.023438 14.09375 -9.421875 L 13.140625 -8.78125 L 17.59375 0 L 13.5625 0 L 6.875 -13.375 Z M 6.53125 -13.21875 "/></g></g></g><g fill="#61888d" fill-opacity="1"><g transform="translate(390.806901, 198.317446)"><g><path d="M 12.234375 0 L 12.234375 -18.234375 C 12.234375 -19.097656 11.816406 -19.53125 10.984375 -19.53125 L 2.203125 -19.53125 L 2.203125 -22.796875 L 12.953125 -22.796875 C 14.117188 -22.796875 14.953125 -22.507812 15.453125 -21.9375 C 15.960938 -21.363281 16.21875 -20.445312 16.21875 -19.1875 L 16.21875 0 Z M 4.140625 0 C 2.847656 0 2.203125 -0.65625 2.203125 -1.96875 L 2.203125 -14.203125 L 6.1875 -14.203125 L 6.1875 -3.984375 C 6.1875 -3.503906 6.378906 -3.265625 6.765625 -3.265625 L 7.25 -3.265625 L 7.25 0 Z M 4.140625 0 "/></g></g></g><g fill="#61888d" fill-opacity="1"><g transform="translate(409.418081, 198.317446)"><g><path d="M 0.34375 0 L 0.34375 -3.265625 L 3.984375 -3.265625 C 4.492188 -3.265625 4.84375 -3.367188 5.03125 -3.578125 C 5.21875 -3.796875 5.3125 -4.148438 5.3125 -4.640625 L 5.3125 -18.234375 C 5.3125 -18.710938 5.222656 -19.046875 5.046875 -19.234375 C 4.867188 -19.429688 4.566406 -19.53125 4.140625 -19.53125 L 2.46875 -19.53125 L 2.46875 -22.796875 L 6 -22.796875 C 7.1875 -22.796875 8.035156 -22.523438 8.546875 -21.984375 C 9.054688 -21.453125 9.3125 -20.566406 9.3125 -19.328125 L 9.3125 -3.53125 C 9.3125 -2.269531 9.039062 -1.363281 8.5 -0.8125 C 7.96875 -0.269531 7.109375 0 5.921875 0 Z M 0.34375 0 "/></g></g></g><g fill="#61888d" fill-opacity="1"><g transform="translate(420.964609, 198.317446)"><g><path d="M 4.03125 0 L 4.03125 -18.6875 C 4.03125 -19.25 3.738281 -19.53125 3.15625 -19.53125 L 1.4375 -19.53125 L 1.4375 -22.796875 L 5.46875 -22.796875 C 6.382812 -22.796875 7.035156 -22.601562 7.421875 -22.21875 C 7.816406 -21.84375 8.015625 -21.195312 8.015625 -20.28125 L 8.015625 0 Z M 4.03125 0 "/></g></g></g><g fill="#61888d" fill-opacity="1"><g transform="translate(431.295714, 198.317446)"><g><path d="M 0.875 0 L 0.875 -3.265625 L 7.328125 -3.265625 C 7.804688 -3.265625 8.132812 -3.359375 8.3125 -3.546875 C 8.488281 -3.742188 8.578125 -4.066406 8.578125 -4.515625 L 8.578125 -18.234375 C 8.578125 -18.710938 8.488281 -19.046875 8.3125 -19.234375 C 8.132812 -19.429688 7.804688 -19.53125 7.328125 -19.53125 L 1.296875 -19.53125 L 1.296875 -22.796875 L 9.15625 -22.796875 C 10.375 -22.796875 11.25 -22.523438 11.78125 -21.984375 C 12.3125 -21.453125 12.578125 -20.566406 12.578125 -19.328125 L 12.578125 -3.421875 C 12.578125 -2.203125 12.3125 -1.328125 11.78125 -0.796875 C 11.25 -0.265625 10.375 0 9.15625 0 Z M 0.875 0 "/></g></g></g><g fill="#61888d" fill-opacity="1"><g transform="translate(446.108696, 198.317446)"><g><path d="M 0.34375 0 L 0.34375 -3.265625 L 3.984375 -3.265625 C 4.492188 -3.265625 4.84375 -3.367188 5.03125 -3.578125 C 5.21875 -3.796875 5.3125 -4.148438 5.3125 -4.640625 L 5.3125 -18.234375 C 5.3125 -18.710938 5.222656 -19.046875 5.046875 -19.234375 C 4.867188 -19.429688 4.566406 -19.53125 4.140625 -19.53125 L 2.46875 -19.53125 L 2.46875 -22.796875 L 6 -22.796875 C 7.1875 -22.796875 8.035156 -22.523438 8.546875 -21.984375 C 9.054688 -21.453125 9.3125 -20.566406 9.3125 -19.328125 L 9.3125 -3.53125 C 9.3125 -2.269531 9.039062 -1.363281 8.5 -0.8125 C 7.96875 -0.269531 7.109375 0 5.921875 0 Z M 0.34375 0 "/></g></g></g><g fill="#61888d" fill-opacity="1"><g transform="translate(457.655225, 198.317446)"><g><path d="M 12.234375 0 L 12.234375 -18.234375 C 12.234375 -19.097656 11.816406 -19.53125 10.984375 -19.53125 L 2.203125 -19.53125 L 2.203125 -22.796875 L 12.953125 -22.796875 C 14.117188 -22.796875 14.953125 -22.507812 15.453125 -21.9375 C 15.960938 -21.363281 16.21875 -20.445312 16.21875 -19.1875 L 16.21875 0 Z M 4.140625 0 C 2.847656 0 2.203125 -0.65625 2.203125 -1.96875 L 2.203125 -14.203125 L 6.1875 -14.203125 L 6.1875 -3.984375 C 6.1875 -3.503906 6.378906 -3.265625 6.765625 -3.265625 L 7.25 -3.265625 L 7.25 0 Z M 4.140625 0 "/></g></g></g><g fill="#61888d" fill-opacity="1"><g transform="translate(476.266405, 198.317446)"><g/></g></g><g fill="#61888d" fill-opacity="1"><g transform="translate(484.470523, 198.317446)"><g><path d="M 12.234375 0 L 12.234375 -18.234375 C 12.234375 -19.097656 11.816406 -19.53125 10.984375 -19.53125 L 2.203125 -19.53125 L 2.203125 -22.796875 L 12.953125 -22.796875 C 14.117188 -22.796875 14.953125 -22.507812 15.453125 -21.9375 C 15.960938 -21.363281 16.21875 -20.445312 16.21875 -19.1875 L 16.21875 0 Z M 4.140625 0 C 2.847656 0 2.203125 -0.65625 2.203125 -1.96875 L 2.203125 -14.203125 L 6.1875 -14.203125 L 6.1875 -3.984375 C 6.1875 -3.503906 6.378906 -3.265625 6.765625 -3.265625 L 7.25 -3.265625 L 7.25 0 Z M 4.140625 0 "/></g></g></g><g fill="#61888d" fill-opacity="1"><g transform="translate(503.081703, 198.317446)"><g><path d="M 13.453125 -3.265625 L 14.78125 -3.265625 L 14.78125 0 L 0.875 0 L 0.875 -3.265625 L 8.890625 -3.265625 C 8.816406 -3.421875 8.753906 -3.601562 8.703125 -3.8125 C 8.648438 -4.03125 8.625 -4.265625 8.625 -4.515625 L 8.625 -18.234375 C 8.625 -18.710938 8.523438 -19.046875 8.328125 -19.234375 C 8.140625 -19.429688 7.804688 -19.53125 7.328125 -19.53125 L 1.296875 -19.53125 L 1.296875 -22.796875 L 9.1875 -22.796875 C 10.40625 -22.796875 11.28125 -22.515625 11.8125 -21.953125 C 12.34375 -21.398438 12.609375 -20.476562 12.609375 -19.1875 L 12.609375 -4.21875 C 12.609375 -3.582031 12.890625 -3.265625 13.453125 -3.265625 Z M 13.453125 -3.265625 "/></g></g></g><g fill="#61888d" fill-opacity="1"><g transform="translate(518.350472, 198.317446)"><g><path d="M 4.03125 0 L 4.03125 -18.6875 C 4.03125 -19.25 3.738281 -19.53125 3.15625 -19.53125 L 1.4375 -19.53125 L 1.4375 -22.796875 L 5.46875 -22.796875 C 6.382812 -22.796875 7.035156 -22.601562 7.421875 -22.21875 C 7.816406 -21.84375 8.015625 -21.195312 8.015625 -20.28125 L 8.015625 0 Z M 4.03125 0 "/></g></g></g><g fill="#61888d" fill-opacity="1"><g transform="translate(528.681577, 198.317446)"><g><path d="M 16.71875 -22.796875 L 20.625 -22.796875 L 19.53125 -7.9375 C 19.320312 -5.101562 18.585938 -3.070312 17.328125 -1.84375 C 16.078125 -0.613281 14.140625 0 11.515625 0 L 6 0 C 5.007812 0 4.289062 -0.25 3.84375 -0.75 C 3.40625 -1.257812 3.125 -1.972656 3 -2.890625 L 2.359375 -7.75 C 2.148438 -9.007812 2.488281 -9.945312 3.375 -10.5625 L 1.515625 -22.796875 L 5.4375 -22.796875 L 7.0625 -12 L 8.359375 -12.421875 C 8.785156 -12.578125 9.0625 -12.753906 9.1875 -12.953125 C 9.3125 -13.148438 9.375 -13.492188 9.375 -13.984375 L 9.375 -22.796875 L 13.25 -22.796875 L 13.25 -13.296875 C 13.25 -12.253906 13.070312 -11.492188 12.71875 -11.015625 C 12.363281 -10.535156 11.804688 -10.15625 11.046875 -9.875 L 7.140625 -8.46875 C 6.710938 -8.320312 6.445312 -8.144531 6.34375 -7.9375 C 6.238281 -7.738281 6.210938 -7.4375 6.265625 -7.03125 L 6.6875 -4.21875 C 6.757812 -3.8125 6.894531 -3.546875 7.09375 -3.421875 C 7.300781 -3.296875 7.597656 -3.234375 7.984375 -3.234375 L 10.59375 -3.234375 C 12.320312 -3.234375 13.5625 -3.578125 14.3125 -4.265625 C 15.070312 -4.960938 15.519531 -6.238281 15.65625 -8.09375 Z M 16.71875 -22.796875 "/></g></g></g><g fill="#61888d" fill-opacity="1"><g transform="translate(551.052981, 198.317446)"><g><path d="M 13.484375 -22.796875 C 14.753906 -22.796875 15.664062 -22.515625 16.21875 -21.953125 C 16.78125 -21.398438 17.0625 -20.476562 17.0625 -19.1875 L 17.0625 0 L 13.0625 0 L 13.0625 -18.1875 C 13.0625 -19.101562 12.617188 -19.5625 11.734375 -19.5625 L 9.078125 -19.5625 C 8.210938 -19.5625 7.613281 -19.300781 7.28125 -18.78125 C 6.957031 -18.257812 6.898438 -17.175781 7.109375 -15.53125 L 8.46875 -4.484375 C 8.695312 -3.015625 8.554688 -1.898438 8.046875 -1.140625 C 7.546875 -0.378906 6.585938 0 5.171875 0 L 1.25 0 L 1.25 -3.265625 L 3.53125 -3.265625 C 3.882812 -3.265625 4.148438 -3.363281 4.328125 -3.5625 C 4.503906 -3.769531 4.554688 -4.128906 4.484375 -4.640625 L 3.265625 -14.78125 C 3.085938 -16.21875 3.082031 -17.289062 3.25 -18 C 3.414062 -18.707031 3.625 -19.21875 3.875 -19.53125 L 1.328125 -19.53125 L 1.328125 -22.796875 Z M 13.484375 -22.796875 "/></g></g></g><g fill="#61888d" fill-opacity="1"><g transform="translate(570.461782, 198.317446)"><g><path d="M 12.234375 0 L 12.234375 -18.234375 C 12.234375 -19.097656 11.816406 -19.53125 10.984375 -19.53125 L 2.203125 -19.53125 L 2.203125 -22.796875 L 12.953125 -22.796875 C 14.117188 -22.796875 14.953125 -22.507812 15.453125 -21.9375 C 15.960938 -21.363281 16.21875 -20.445312 16.21875 -19.1875 L 16.21875 0 Z M 4.140625 0 C 2.847656 0 2.203125 -0.65625 2.203125 -1.96875 L 2.203125 -14.203125 L 6.1875 -14.203125 L 6.1875 -3.984375 C 6.1875 -3.503906 6.378906 -3.265625 6.765625 -3.265625 L 7.25 -3.265625 L 7.25 0 Z M 4.140625 0 "/></g></g></g><g fill="#61888d" fill-opacity="1"><g transform="translate(589.072962, 198.317446)"><g/></g></g><g fill="#61888d" fill-opacity="1"><g transform="translate(597.27708, 198.317446)"><g><path d="M 12.234375 0 L 12.234375 -18.234375 C 12.234375 -19.097656 11.816406 -19.53125 10.984375 -19.53125 L 2.203125 -19.53125 L 2.203125 -22.796875 L 12.953125 -22.796875 C 14.117188 -22.796875 14.953125 -22.507812 15.453125 -21.9375 C 15.960938 -21.363281 16.21875 -20.445312 16.21875 -19.1875 L 16.21875 0 Z M 4.140625 0 C 2.847656 0 2.203125 -0.65625 2.203125 -1.96875 L 2.203125 -14.203125 L 6.1875 -14.203125 L 6.1875 -3.984375 C 6.1875 -3.503906 6.378906 -3.265625 6.765625 -3.265625 L 7.25 -3.265625 L 7.25 0 Z M 4.140625 0 "/></g></g></g><g fill="#61888d" fill-opacity="1"><g transform="translate(615.888259, 198.317446)"><g><path d="M 16.515625 -3.234375 C 16.566406 -2.117188 16.332031 -1.300781 15.8125 -0.78125 C 15.300781 -0.257812 14.445312 0 13.25 0 L 8.125 0 L 8.125 -3.265625 L 11.359375 -3.265625 C 11.785156 -3.265625 12.082031 -3.363281 12.25 -3.5625 C 12.414062 -3.769531 12.484375 -4.078125 12.453125 -4.484375 L 11.890625 -16.71875 C 11.835938 -17.832031 11.640625 -18.582031 11.296875 -18.96875 C 10.953125 -19.363281 10.453125 -19.5625 9.796875 -19.5625 L 9.046875 -19.5625 C 8.554688 -19.5625 8.21875 -19.429688 8.03125 -19.171875 C 7.84375 -18.921875 7.710938 -18.46875 7.640625 -17.8125 L 5.359375 0 L 1.328125 0 L 3.5 -16.671875 C 3.675781 -17.960938 4.015625 -18.914062 4.515625 -19.53125 L 1.96875 -19.53125 L 1.96875 -22.796875 L 10.859375 -22.796875 C 12.304688 -22.796875 13.476562 -22.398438 14.375 -21.609375 C 15.269531 -20.828125 15.769531 -19.347656 15.875 -17.171875 Z M 16.515625 -3.234375 "/></g></g></g><g fill="#61888d" fill-opacity="1"><g transform="translate(634.081637, 198.317446)"><g/></g></g><g fill="#61888d" fill-opacity="1"><g transform="translate(642.285755, 198.317446)"><g><path d="M 8.3125 0 L 8.3125 -18.15625 C 8.3125 -19.070312 7.859375 -19.53125 6.953125 -19.53125 L 0.765625 -19.53125 L 0.765625 -22.796875 L 8.84375 -22.796875 C 10.0625 -22.796875 10.941406 -22.519531 11.484375 -21.96875 C 12.035156 -21.425781 12.3125 -20.535156 12.3125 -19.296875 L 12.3125 0 Z M 8.3125 0 "/></g></g></g><g fill="#61888d" fill-opacity="1"><g transform="translate(656.946812, 198.317446)"><g><path d="M 13.453125 -3.265625 L 14.78125 -3.265625 L 14.78125 0 L 0.875 0 L 0.875 -3.265625 L 8.890625 -3.265625 C 8.816406 -3.421875 8.753906 -3.601562 8.703125 -3.8125 C 8.648438 -4.03125 8.625 -4.265625 8.625 -4.515625 L 8.625 -18.234375 C 8.625 -18.710938 8.523438 -19.046875 8.328125 -19.234375 C 8.140625 -19.429688 7.804688 -19.53125 7.328125 -19.53125 L 1.296875 -19.53125 L 1.296875 -22.796875 L 9.1875 -22.796875 C 10.40625 -22.796875 11.28125 -22.515625 11.8125 -21.953125 C 12.34375 -21.398438 12.609375 -20.476562 12.609375 -19.1875 L 12.609375 -4.21875 C 12.609375 -3.582031 12.890625 -3.265625 13.453125 -3.265625 Z M 13.453125 -3.265625 "/></g></g></g><g fill="#61888d" fill-opacity="1"><g transform="translate(672.21557, 198.317446)"><g><path d="M 13.59375 -22.796875 C 14.863281 -22.796875 15.851562 -22.617188 16.5625 -22.265625 C 17.269531 -21.910156 17.753906 -21.296875 18.015625 -20.421875 C 18.285156 -19.546875 18.367188 -18.335938 18.265625 -16.796875 L 17.59375 -6.1875 C 17.507812 -4.925781 17.21875 -3.859375 16.71875 -2.984375 C 16.226562 -2.109375 15.203125 -1.457031 13.640625 -1.03125 L 8.578125 0.109375 C 7.035156 0.515625 5.953125 0.441406 5.328125 -0.109375 C 4.710938 -0.671875 4.351562 -1.546875 4.25 -2.734375 L 3.265625 -17.28125 C 3.242188 -17.757812 3.289062 -18.195312 3.40625 -18.59375 C 3.519531 -18.988281 3.675781 -19.3125 3.875 -19.5625 C 3.1875 -19.664062 2.546875 -19.898438 1.953125 -20.265625 C 1.359375 -20.628906 0.875 -21.207031 0.5 -22 L 2.890625 -24.234375 C 3.242188 -23.648438 3.585938 -23.265625 3.921875 -23.078125 C 4.265625 -22.890625 4.753906 -22.796875 5.390625 -22.796875 Z M 14.390625 -15.984375 C 14.472656 -17.003906 14.476562 -17.769531 14.40625 -18.28125 C 14.34375 -18.800781 14.15625 -19.148438 13.84375 -19.328125 C 13.53125 -19.503906 13.019531 -19.582031 12.3125 -19.5625 L 8.09375 -19.53125 C 7.351562 -19.394531 7.023438 -18.875 7.109375 -17.96875 L 8.09375 -4.25 C 8.164062 -3.394531 8.632812 -3.078125 9.5 -3.296875 L 12.109375 -4.109375 C 12.773438 -4.285156 13.21875 -4.554688 13.4375 -4.921875 C 13.664062 -5.285156 13.804688 -5.925781 13.859375 -6.84375 Z M 14.390625 -15.984375 "/></g></g></g><g fill="#61888d" fill-opacity="1"><g transform="translate(692.156149, 198.317446)"><g><path d="M 12.234375 0 L 12.234375 -18.234375 C 12.234375 -19.097656 11.816406 -19.53125 10.984375 -19.53125 L 2.203125 -19.53125 L 2.203125 -22.796875 L 12.953125 -22.796875 C 14.117188 -22.796875 14.953125 -22.507812 15.453125 -21.9375 C 15.960938 -21.363281 16.21875 -20.445312 16.21875 -19.1875 L 16.21875 0 Z M 4.140625 0 C 2.847656 0 2.203125 -0.65625 2.203125 -1.96875 L 2.203125 -14.203125 L 6.1875 -14.203125 L 6.1875 -3.984375 C 6.1875 -3.503906 6.378906 -3.265625 6.765625 -3.265625 L 7.25 -3.265625 L 7.25 0 Z M 4.140625 0 "/></g></g></g><g fill="#61888d" fill-opacity="1"><g transform="translate(710.767329, 198.317446)"><g/></g></g><g fill="#61888d" fill-opacity="1"><g transform="translate(718.971447, 198.317446)"><g><path d="M 12 -22.796875 L 15.984375 -22.796875 L 15.984375 -10.40625 C 15.984375 -8.5625 15.71875 -7.082031 15.1875 -5.96875 C 14.65625 -4.851562 13.875 -3.953125 12.84375 -3.265625 C 11.820312 -2.578125 10.566406 -1.929688 9.078125 -1.328125 L 2.28125 1.375 L 1.09375 -1.75 L 5.390625 -3.421875 C 5.066406 -3.722656 4.789062 -4.109375 4.5625 -4.578125 C 4.332031 -5.046875 4.179688 -5.609375 4.109375 -6.265625 L 1.78125 -22.796875 L 5.78125 -22.796875 L 8.125 -6 C 8.207031 -5.46875 8.351562 -5.128906 8.5625 -4.984375 C 8.78125 -4.847656 9.015625 -4.832031 9.265625 -4.9375 L 9.421875 -4.96875 C 10.253906 -5.351562 10.890625 -5.851562 11.328125 -6.46875 C 11.773438 -7.09375 12 -8.039062 12 -9.3125 Z M 12 -22.796875 "/></g></g></g><g fill="#61888d" fill-opacity="1"><g transform="translate(737.126817, 198.317446)"><g><path d="M 3.953125 -9.984375 L 3.953125 -18.6875 C 3.953125 -19.25 3.660156 -19.53125 3.078125 -19.53125 L 1.296875 -19.53125 L 1.296875 -22.796875 L 5.09375 -22.796875 C 6.125 -22.796875 6.847656 -22.582031 7.265625 -22.15625 C 7.691406 -21.738281 7.90625 -21.015625 7.90625 -19.984375 L 7.90625 -9.984375 Z M 3.953125 -9.984375 "/></g></g></g><g fill="#61888d" fill-opacity="1"><g transform="translate(747.116099, 198.317446)"><g><path d="M 2.015625 0 L 2.015625 -3.265625 L 10.9375 -3.265625 C 11.851562 -3.265625 12.3125 -3.707031 12.3125 -4.59375 L 12.3125 -18.3125 C 12.3125 -18.789062 12.226562 -19.117188 12.0625 -19.296875 C 11.894531 -19.472656 11.546875 -19.5625 11.015625 -19.5625 L 7.859375 -19.5625 C 7.359375 -19.5625 7 -19.460938 6.78125 -19.265625 C 6.5625 -19.078125 6.425781 -18.757812 6.375 -18.3125 L 5.8125 -13.1875 C 5.757812 -12.75 5.804688 -12.441406 5.953125 -12.265625 C 6.109375 -12.085938 6.414062 -12 6.875 -12 L 8.96875 -12 L 8.96875 -8.78125 L 4.640625 -8.78125 C 3.492188 -8.78125 2.6875 -9.035156 2.21875 -9.546875 C 1.75 -10.066406 1.578125 -10.882812 1.703125 -12 L 2.578125 -19.53125 C 2.703125 -20.664062 3.050781 -21.492188 3.625 -22.015625 C 4.195312 -22.535156 5.039062 -22.796875 6.15625 -22.796875 L 12.71875 -22.796875 C 13.988281 -22.796875 14.898438 -22.519531 15.453125 -21.96875 C 16.015625 -21.425781 16.296875 -20.523438 16.296875 -19.265625 L 16.296875 -3.5 C 16.296875 -2.257812 16.015625 -1.363281 15.453125 -0.8125 C 14.898438 -0.269531 13.988281 0 12.71875 0 Z M 2.015625 0 "/></g></g></g><g fill="#61888d" fill-opacity="1"><g transform="translate(765.613326, 198.317446)"><g><path d="M 4.03125 0 L 4.03125 -18.6875 C 4.03125 -19.25 3.738281 -19.53125 3.15625 -19.53125 L 1.4375 -19.53125 L 1.4375 -22.796875 L 5.46875 -22.796875 C 6.382812 -22.796875 7.035156 -22.601562 7.421875 -22.21875 C 7.816406 -21.84375 8.015625 -21.195312 8.015625 -20.28125 L 8.015625 0 Z M 4.03125 0 "/></g></g></g><g fill="#61888d" fill-opacity="1"><g transform="translate(775.944465, 198.317446)"><g><path d="M 3.953125 -9.984375 L 3.953125 -18.6875 C 3.953125 -19.25 3.660156 -19.53125 3.078125 -19.53125 L 1.296875 -19.53125 L 1.296875 -22.796875 L 5.09375 -22.796875 C 6.125 -22.796875 6.847656 -22.582031 7.265625 -22.15625 C 7.691406 -21.738281 7.90625 -21.015625 7.90625 -19.984375 L 7.90625 -9.984375 Z M 3.953125 -9.984375 "/></g></g></g><g fill="#61888d" fill-opacity="1"><g transform="translate(785.933701, 198.317446)"><g/></g></g><g fill="#61888d" fill-opacity="1"><g transform="translate(794.137819, 198.317446)"><g><path d="M 13.484375 -22.796875 C 14.753906 -22.796875 15.664062 -22.515625 16.21875 -21.953125 C 16.78125 -21.398438 17.0625 -20.476562 17.0625 -19.1875 L 17.0625 0 L 13.0625 0 L 13.0625 -18.1875 C 13.0625 -19.101562 12.617188 -19.5625 11.734375 -19.5625 L 9.078125 -19.5625 C 8.210938 -19.5625 7.613281 -19.300781 7.28125 -18.78125 C 6.957031 -18.257812 6.898438 -17.175781 7.109375 -15.53125 L 8.46875 -4.484375 C 8.695312 -3.015625 8.554688 -1.898438 8.046875 -1.140625 C 7.546875 -0.378906 6.585938 0 5.171875 0 L 1.25 0 L 1.25 -3.265625 L 3.53125 -3.265625 C 3.882812 -3.265625 4.148438 -3.363281 4.328125 -3.5625 C 4.503906 -3.769531 4.554688 -4.128906 4.484375 -4.640625 L 3.265625 -14.78125 C 3.085938 -16.21875 3.082031 -17.289062 3.25 -18 C 3.414062 -18.707031 3.625 -19.21875 3.875 -19.53125 L 1.328125 -19.53125 L 1.328125 -22.796875 Z M 13.484375 -22.796875 "/></g></g></g><g fill="#61888d" fill-opacity="1"><g transform="translate(813.546621, 198.317446)"><g><path d="M 3.953125 -9.984375 L 3.953125 -18.6875 C 3.953125 -19.25 3.660156 -19.53125 3.078125 -19.53125 L 1.296875 -19.53125 L 1.296875 -22.796875 L 5.09375 -22.796875 C 6.125 -22.796875 6.847656 -22.582031 7.265625 -22.15625 C 7.691406 -21.738281 7.90625 -21.015625 7.90625 -19.984375 L 7.90625 -9.984375 Z M 3.953125 -9.984375 "/></g></g></g><g fill="#61888d" fill-opacity="1"><g transform="translate(823.535902, 198.317446)"><g><path d="M 12 -22.796875 L 15.984375 -22.796875 L 15.984375 -10.40625 C 15.984375 -8.5625 15.71875 -7.082031 15.1875 -5.96875 C 14.65625 -4.851562 13.875 -3.953125 12.84375 -3.265625 C 11.820312 -2.578125 10.566406 -1.929688 9.078125 -1.328125 L 2.28125 1.375 L 1.09375 -1.75 L 5.390625 -3.421875 C 5.066406 -3.722656 4.789062 -4.109375 4.5625 -4.578125 C 4.332031 -5.046875 4.179688 -5.609375 4.109375 -6.265625 L 1.78125 -22.796875 L 5.78125 -22.796875 L 8.125 -6 C 8.207031 -5.46875 8.351562 -5.128906 8.5625 -4.984375 C 8.78125 -4.847656 9.015625 -4.832031 9.265625 -4.9375 L 9.421875 -4.96875 C 10.253906 -5.351562 10.890625 -5.851562 11.328125 -6.46875 C 11.773438 -7.09375 12 -8.039062 12 -9.3125 Z M 12 -22.796875 "/></g></g></g><g fill="#61888d" fill-opacity="1"><g transform="translate(841.691272, 198.317446)"><g><path d="M 9.6875 -0.234375 C 8.75 0.0976562 7.847656 0.25 6.984375 0.21875 C 6.128906 0.195312 5.414062 -0.0703125 4.84375 -0.59375 C 4.269531 -1.113281 3.945312 -1.925781 3.875 -3.03125 L 2.921875 -18.5 C 2.898438 -18.90625 2.832031 -19.175781 2.71875 -19.3125 C 2.601562 -19.457031 2.367188 -19.53125 2.015625 -19.53125 L 0.953125 -19.53125 L 0.953125 -22.796875 L 4.25 -22.796875 C 5.082031 -22.796875 5.679688 -22.609375 6.046875 -22.234375 C 6.421875 -21.867188 6.632812 -21.28125 6.6875 -20.46875 L 7.671875 -4.5625 C 7.722656 -4.03125 7.898438 -3.691406 8.203125 -3.546875 C 8.503906 -3.410156 8.882812 -3.429688 9.34375 -3.609375 L 12.1875 -4.671875 C 12.851562 -4.921875 13.316406 -5.332031 13.578125 -5.90625 C 13.847656 -6.476562 14.03125 -7.304688 14.125 -8.390625 L 15.046875 -17.890625 C 15.117188 -18.578125 15.039062 -19.078125 14.8125 -19.390625 C 14.582031 -19.703125 14.253906 -19.859375 13.828125 -19.859375 C 12.867188 -19.890625 12.347656 -19.296875 12.265625 -18.078125 L 11.96875 -13.40625 L 9.234375 -13.484375 L 9.453125 -18.921875 C 9.503906 -20.304688 9.9375 -21.351562 10.75 -22.0625 C 11.5625 -22.769531 12.6875 -23.125 14.125 -23.125 C 15.0625 -23.125 15.910156 -22.941406 16.671875 -22.578125 C 17.429688 -22.210938 18.019531 -21.660156 18.4375 -20.921875 C 18.851562 -20.191406 19 -19.257812 18.875 -18.125 L 17.8125 -6.796875 C 17.707031 -5.484375 17.332031 -4.425781 16.6875 -3.625 C 16.039062 -2.832031 15.023438 -2.179688 13.640625 -1.671875 Z M 9.6875 -0.234375 "/></g></g></g><g fill="#61888d" fill-opacity="1"><g transform="translate(862.049677, 198.317446)"><g/></g></g><g fill="#61888d" fill-opacity="1"><g transform="translate(870.253795, 198.317446)"><g><path d="M 14.203125 -22.796875 C 15.316406 -22.796875 16.113281 -22.550781 16.59375 -22.0625 C 17.082031 -21.582031 17.328125 -20.773438 17.328125 -19.640625 L 17.328125 -1.40625 C 17.328125 -0.46875 16.859375 0 15.921875 0 L 4.5625 0 C 3.625 0 3.15625 -0.46875 3.15625 -1.40625 L 3.15625 -17.328125 C 3.15625 -18.304688 3.34375 -19.039062 3.71875 -19.53125 L 1.59375 -19.53125 L 1.59375 -22.796875 Z M 13.40625 -3.6875 L 13.40625 -18.1875 C 13.40625 -18.695312 13.3125 -19.050781 13.125 -19.25 C 12.9375 -19.457031 12.613281 -19.5625 12.15625 -19.5625 L 8.28125 -19.5625 C 7.820312 -19.5625 7.503906 -19.445312 7.328125 -19.21875 C 7.148438 -18.988281 7.0625 -18.609375 7.0625 -18.078125 L 7.0625 -3.6875 C 7.0625 -3.382812 7.210938 -3.234375 7.515625 -3.234375 L 12.953125 -3.234375 C 13.253906 -3.234375 13.40625 -3.382812 13.40625 -3.6875 Z M 13.40625 -3.6875 "/></g></g></g><g fill="#61888d" fill-opacity="1"><g transform="translate(889.928439, 198.317446)"><g><path d="M 6.53125 -13.21875 C 6.050781 -12.988281 5.75 -12.695312 5.625 -12.34375 C 5.5 -11.988281 5.523438 -11.40625 5.703125 -10.59375 L 7.375 -3.421875 C 7.644531 -2.410156 7.640625 -1.585938 7.359375 -0.953125 C 7.085938 -0.316406 6.484375 0 5.546875 0 L 1.5625 0 L 1.5625 -3.265625 L 2.8125 -3.265625 C 3.21875 -3.265625 3.378906 -3.46875 3.296875 -3.875 L 2.015625 -10.328125 C 1.679688 -11.921875 1.800781 -13.128906 2.375 -13.953125 C 2.945312 -14.773438 3.738281 -15.453125 4.75 -15.984375 L 5.3125 -16.296875 L 1.75 -22.796875 L 5.78125 -22.796875 L 11.46875 -11.96875 L 11.8125 -12.1875 C 12.238281 -12.46875 12.53125 -12.738281 12.6875 -13 C 12.84375 -13.269531 12.921875 -13.757812 12.921875 -14.46875 L 12.921875 -22.796875 L 16.796875 -22.796875 L 16.796875 -14.171875 C 16.796875 -13.003906 16.578125 -12.070312 16.140625 -11.375 C 15.710938 -10.675781 15.03125 -10.023438 14.09375 -9.421875 L 13.140625 -8.78125 L 17.59375 0 L 13.5625 0 L 6.875 -13.375 Z M 6.53125 -13.21875 "/></g></g></g><g fill="#61888d" fill-opacity="1"><g transform="translate(908.577603, 198.317446)"><g><path d="M 4.03125 0 L 4.03125 -18.6875 C 4.03125 -19.25 3.738281 -19.53125 3.15625 -19.53125 L 1.4375 -19.53125 L 1.4375 -22.796875 L 5.46875 -22.796875 C 6.382812 -22.796875 7.035156 -22.601562 7.421875 -22.21875 C 7.816406 -21.84375 8.015625 -21.195312 8.015625 -20.28125 L 8.015625 0 Z M 4.03125 0 "/></g></g></g><g clip-path="url(#30c9a29af7)"><g clip-path="url(#307b1de700)"><g transform="matrix(1, 0, 0, 1, 728, 19)"><g clip-path="url(#e197e06739)"><g clip-path="url(#80972078c2)"><g clip-path="url(#96596432ca)"><path fill="#61888d" d="M 0.386719 0.566406 L 4.269531 0.566406 L 4.269531 4.445312 L 0.386719 4.445312 Z M 0.386719 0.566406 " fill-opacity="1" fill-rule="nonzero"/></g></g></g></g></g></g></svg>