<svg xmlns="http://www.w3.org/2000/svg" xmlns:xlink="http://www.w3.org/1999/xlink" width="130" zoomAndPan="magnify" viewBox="0 0 97.5 104.999996" height="140" preserveAspectRatio="xMidYMid meet" version="1.0"><defs><clipPath id="ec59928b4a"><path d="M 0 0.269531 L 97 0.269531 L 97 104.730469 L 0 104.730469 Z M 0 0.269531 " clip-rule="nonzero"/></clipPath><clipPath id="f755146277"><path d="M 0 30.699219 L 57.363281 0.308594 L 96.488281 74.15625 L 39.125 104.546875 Z M 0 30.699219 " clip-rule="nonzero"/></clipPath><clipPath id="2c66f8ef95"><path d="M 26 32 L 90 32 L 90 79 L 26 79 Z M 26 32 " clip-rule="nonzero"/></clipPath><clipPath id="b4f3304e05"><path d="M 0 30.699219 L 57.363281 0.308594 L 96.488281 74.15625 L 39.125 104.546875 Z M 0 30.699219 " clip-rule="nonzero"/></clipPath><clipPath id="b71bc37925"><path d="M 57.4375 0.269531 L 0.0742188 30.660156 L 39.199219 104.507812 L 96.5625 74.117188 Z M 57.4375 0.269531 " clip-rule="nonzero"/></clipPath><clipPath id="209381a714"><path d="M 5 17 L 36 17 L 36 47 L 5 47 Z M 5 17 " clip-rule="nonzero"/></clipPath><clipPath id="f50dde9224"><path d="M 0 30.699219 L 57.363281 0.308594 L 96.488281 74.15625 L 39.125 104.546875 Z M 0 30.699219 " clip-rule="nonzero"/></clipPath><clipPath id="1e7b7a5d93"><path d="M 57.4375 0.269531 L 0.0742188 30.660156 L 39.199219 104.507812 L 96.5625 74.117188 Z M 57.4375 0.269531 " clip-rule="nonzero"/></clipPath><clipPath id="1a76ae5de4"><path d="M 9 31 L 33 31 L 33 44 L 9 44 Z M 9 31 " clip-rule="nonzero"/></clipPath><clipPath id="94621641a3"><path d="M 0 30.699219 L 57.363281 0.308594 L 96.488281 74.15625 L 39.125 104.546875 Z M 0 30.699219 " clip-rule="nonzero"/></clipPath><clipPath id="37c5dac9d0"><path d="M 57.4375 0.269531 L 0.0742188 30.660156 L 39.199219 104.507812 L 96.5625 74.117188 Z M 57.4375 0.269531 " clip-rule="nonzero"/></clipPath><clipPath id="23ac013220"><path d="M 11 19 L 36 19 L 36 45 L 11 45 Z M 11 19 " clip-rule="nonzero"/></clipPath><clipPath id="21de49a11c"><path d="M 0 30.699219 L 57.363281 0.308594 L 96.488281 74.15625 L 39.125 104.546875 Z M 0 30.699219 " clip-rule="nonzero"/></clipPath><clipPath id="241b3a106f"><path d="M 57.4375 0.269531 L 0.0742188 30.660156 L 39.199219 104.507812 L 96.5625 74.117188 Z M 57.4375 0.269531 " clip-rule="nonzero"/></clipPath><clipPath id="72e0a3309b"><path d="M 24 18 L 28 18 L 28 26 L 24 26 Z M 24 18 " clip-rule="nonzero"/></clipPath><clipPath id="7acf21040f"><path d="M 0 30.699219 L 57.363281 0.308594 L 96.488281 74.15625 L 39.125 104.546875 Z M 0 30.699219 " clip-rule="nonzero"/></clipPath><clipPath id="5c53400447"><path d="M 57.4375 0.269531 L 0.0742188 30.660156 L 39.199219 104.507812 L 96.5625 74.117188 Z M 57.4375 0.269531 " clip-rule="nonzero"/></clipPath><clipPath id="f5c0cfc408"><path d="M 27 32 L 52 32 L 52 37 L 27 37 Z M 27 32 " clip-rule="nonzero"/></clipPath><clipPath id="1fb1a648fc"><path d="M 0 30.699219 L 57.363281 0.308594 L 96.488281 74.15625 L 39.125 104.546875 Z M 0 30.699219 " clip-rule="nonzero"/></clipPath><clipPath id="52052206bb"><path d="M 57.4375 0.269531 L 0.0742188 30.660156 L 39.199219 104.507812 L 96.5625 74.117188 Z M 57.4375 0.269531 " clip-rule="nonzero"/></clipPath><clipPath id="ae20c9ac70"><path d="M 30 33 L 86 33 L 86 74 L 30 74 Z M 30 33 " clip-rule="nonzero"/></clipPath><clipPath id="a940de31d4"><path d="M 0 30.699219 L 57.363281 0.308594 L 96.488281 74.15625 L 39.125 104.546875 Z M 0 30.699219 " clip-rule="nonzero"/></clipPath><clipPath id="7fb4ed184d"><path d="M 57.4375 0.269531 L 0.0742188 30.660156 L 39.199219 104.507812 L 96.5625 74.117188 Z M 57.4375 0.269531 " clip-rule="nonzero"/></clipPath><clipPath id="2c7d42a1e8"><rect x="0" width="97" y="0" height="105"/></clipPath><clipPath id="d0570eef17"><path d="M 34.8125 17.660156 L 36.847656 17.660156 L 36.847656 19.078125 L 34.8125 19.078125 Z M 34.8125 17.660156 " clip-rule="nonzero"/></clipPath><clipPath id="a65f0da3c8"><path d="M 35.828125 17.660156 C 35.265625 17.660156 34.8125 17.976562 34.8125 18.371094 C 34.8125 18.761719 35.265625 19.078125 35.828125 19.078125 C 36.390625 19.078125 36.84375 18.761719 36.84375 18.371094 C 36.84375 17.976562 36.390625 17.660156 35.828125 17.660156 Z M 35.828125 17.660156 " clip-rule="nonzero"/></clipPath><clipPath id="6cdfedf339"><path d="M 0.8125 0.660156 L 2.847656 0.660156 L 2.847656 2.078125 L 0.8125 2.078125 Z M 0.8125 0.660156 " clip-rule="nonzero"/></clipPath><clipPath id="b6a46eb729"><path d="M 1.828125 0.660156 C 1.265625 0.660156 0.8125 0.976562 0.8125 1.371094 C 0.8125 1.761719 1.265625 2.078125 1.828125 2.078125 C 2.390625 2.078125 2.84375 1.761719 2.84375 1.371094 C 2.84375 0.976562 2.390625 0.660156 1.828125 0.660156 Z M 1.828125 0.660156 " clip-rule="nonzero"/></clipPath><clipPath id="8f3478629b"><rect x="0" width="3" y="0" height="3"/></clipPath></defs><g clip-path="url(#ec59928b4a)"><g clip-path="url(#f755146277)"><g transform="matrix(1, 0, 0, 1, 0, -0.000000000000014433)"><g clip-path="url(#2c7d42a1e8)"><g clip-path="url(#2c66f8ef95)"><g clip-path="url(#b4f3304e05)"><g clip-path="url(#b71bc37925)"><path fill="#d8cabe" d="M 86.25 77.816406 C 88.652344 70.652344 88.632812 63.050781 85.441406 56.132812 C 82.464844 49.679688 77.035156 44.671875 70.921875 41.222656 C 67.226562 39.136719 63.566406 38.035156 59.480469 37.144531 C 54.695312 36.101562 49.867188 35.238281 45.023438 34.507812 C 43.6875 34.308594 28.039062 31.875 27.988281 33.984375 C 27.96875 34.648438 26.941406 34.605469 26.957031 33.941406 C 27.011719 31.796875 31.480469 32.183594 32.75 32.207031 C 37.386719 32.304688 42.027344 33 46.597656 33.714844 C 55.1875 35.058594 64.167969 36.226562 71.839844 40.558594 C 78.125 44.105469 83.480469 49.425781 86.519531 56.011719 C 89.75 63.007812 89.65625 70.898438 87.234375 78.117188 C 87.023438 78.746094 86.039062 78.445312 86.25 77.816406 Z M 86.25 77.816406 " fill-opacity="1" fill-rule="nonzero"/></g></g></g><g clip-path="url(#209381a714)"><g clip-path="url(#f50dde9224)"><g clip-path="url(#1e7b7a5d93)"><path fill="#d8cabe" d="M 27.53125 33.136719 C 27.757812 28.132812 26.996094 22.972656 24.28125 18.675781 C 24.597656 18.644531 24.914062 18.613281 25.230469 18.585938 C 22.964844 28.785156 13.839844 34.710938 6.46875 41.15625 C 6.316406 40.863281 6.160156 40.574219 6.003906 40.28125 C 16.265625 38.925781 26.128906 42.148438 35.609375 45.71875 C 35.390625 45.917969 35.175781 46.121094 34.957031 46.320312 C 33.445312 41.320312 31.507812 35.859375 28.21875 31.722656 C 27.808594 31.207031 28.558594 30.496094 28.96875 31.015625 C 32.382812 35.3125 34.390625 40.898438 35.960938 46.097656 C 36.070312 46.460938 35.65625 46.835938 35.308594 46.703125 C 26.015625 43.203125 16.292969 39.957031 6.226562 41.285156 C 5.757812 41.347656 5.351562 40.769531 5.761719 40.410156 C 12.992188 34.085938 22.023438 28.289062 24.246094 18.28125 C 24.351562 17.804688 24.976562 17.847656 25.191406 18.191406 C 27.996094 22.636719 28.796875 28.007812 28.558594 33.179688 C 28.53125 33.84375 27.5 33.804688 27.53125 33.136719 Z M 27.53125 33.136719 " fill-opacity="1" fill-rule="nonzero"/></g></g></g><g clip-path="url(#1a76ae5de4)"><g clip-path="url(#94621641a3)"><g clip-path="url(#37c5dac9d0)"><path fill="#d8cabe" d="M 25.964844 39.757812 C 25.339844 38.121094 22.167969 37.566406 20.710938 37.167969 C 18.402344 36.542969 16.03125 36.113281 13.664062 35.789062 C 13.722656 35.453125 13.777344 35.117188 13.835938 34.78125 C 19.039062 35.6875 24.273438 36.441406 29.050781 38.824219 C 29.613281 39.101562 29.160156 39.863281 28.628906 39.753906 C 25.746094 39.152344 23.140625 37.765625 20.460938 36.589844 C 20.601562 36.28125 20.742188 35.972656 20.882812 35.660156 C 24.148438 37.6875 27.730469 39.140625 30.886719 41.347656 C 31.394531 41.699219 31.027344 42.375 30.464844 42.277344 C 26.125 41.507812 22.695312 38.660156 18.695312 37.027344 C 18.835938 36.71875 18.976562 36.40625 19.117188 36.097656 C 22.921875 38.980469 27.71875 40.101562 31.898438 42.308594 C 32.4375 42.59375 32.019531 43.375 31.476562 43.238281 C 26.894531 42.09375 22.910156 39.367188 18.328125 38.21875 C 18.46875 37.910156 18.609375 37.601562 18.75 37.289062 C 21.480469 38.691406 24.574219 39.382812 27.394531 40.582031 C 28.015625 40.84375 27.746094 41.679688 27.09375 41.566406 C 22.753906 40.816406 18.90625 38.464844 14.566406 37.714844 C 14.667969 37.386719 14.769531 37.058594 14.867188 36.730469 C 17.742188 37.261719 20.679688 37.582031 23.402344 38.703125 C 24.007812 38.949219 23.75 39.878906 23.101562 39.6875 C 19.476562 38.613281 15.703125 38.328125 11.941406 38.199219 C 12.039062 37.882812 12.136719 37.5625 12.234375 37.246094 C 14.699219 38.910156 17.621094 39.1875 20.519531 39.140625 C 20.464844 39.476562 20.40625 39.8125 20.347656 40.144531 C 17.070312 39.203125 13.566406 39.355469 10.199219 39.621094 C 10.214844 39.277344 10.230469 38.933594 10.242188 38.59375 C 12.613281 38.710938 14.984375 38.703125 17.355469 38.820312 C 17.925781 38.847656 18.035156 39.742188 17.445312 39.835938 C 14.839844 40.261719 12.257812 40.535156 9.679688 39.804688 C 9.246094 39.683594 9.195312 39.0625 9.589844 38.859375 C 13.210938 36.984375 17.128906 35.777344 21.074219 34.792969 C 21.105469 35.132812 21.132812 35.472656 21.164062 35.8125 C 20.230469 35.890625 19.347656 36.191406 18.410156 36.269531 C 18.425781 35.925781 18.441406 35.585938 18.453125 35.242188 C 21.894531 35.007812 25.300781 35.652344 28.734375 35.789062 C 28.636719 36.105469 28.539062 36.421875 28.441406 36.742188 C 26.636719 35.492188 24.710938 34.757812 22.519531 34.59375 C 22.574219 34.257812 22.632812 33.921875 22.691406 33.589844 C 24.839844 34.503906 27.207031 34.289062 29.488281 34.390625 C 29.355469 34.679688 29.226562 34.96875 29.09375 35.257812 C 28.589844 34.824219 28.125 34.332031 27.578125 33.953125 C 26.835938 33.4375 25.71875 33.445312 24.855469 33.355469 C 24.300781 33.296875 24.164062 32.4375 24.765625 32.339844 C 26.183594 32.105469 27.5625 31.902344 28.976562 32.253906 C 28.875 32.582031 28.773438 32.910156 28.671875 33.238281 C 26.597656 32.675781 24.660156 33.089844 22.628906 33.597656 C 22.679688 33.285156 22.734375 32.96875 22.785156 32.65625 C 25.902344 34.609375 29.191406 36.324219 31.722656 39.046875 C 32.117188 39.46875 31.570312 40.171875 31.078125 39.839844 C 30.0625 39.144531 28.972656 38.589844 27.800781 38.195312 C 27.945312 37.886719 28.085938 37.574219 28.226562 37.265625 C 29.773438 38.414062 31.082031 39.773438 32.367188 41.203125 C 32.816406 41.703125 32.101562 42.355469 31.617188 41.910156 C 29.824219 40.265625 29.070312 38.09375 28.390625 35.820312 C 28.246094 35.328125 28.945312 34.976562 29.269531 35.355469 C 30.566406 36.855469 31.5 38.582031 32.425781 40.328125 C 32.105469 40.445312 31.785156 40.5625 31.464844 40.679688 C 31.007812 39.210938 30.363281 37.789062 29.226562 36.71875 C 27.667969 35.253906 25.917969 36.527344 24.835938 37.859375 C 24.636719 38.105469 24.261719 38.21875 24.023438 37.941406 C 22.378906 36.03125 18.515625 36.855469 16.539062 37.839844 C 15.949219 38.136719 15.464844 37.226562 16.058594 36.929688 C 18.441406 35.742188 22.792969 34.9375 24.773438 37.238281 C 24.5 37.265625 24.230469 37.292969 23.960938 37.320312 C 25.175781 35.816406 26.828125 34.476562 28.835938 35.269531 C 30.859375 36.066406 31.875 38.550781 32.472656 40.457031 C 32.648438 41.023438 31.78125 41.3125 31.515625 40.8125 C 30.632812 39.148438 29.757812 37.492188 28.519531 36.0625 C 28.8125 35.90625 29.105469 35.75 29.398438 35.597656 C 30.03125 37.710938 30.699219 39.671875 32.367188 41.203125 C 32.117188 41.4375 31.867188 41.675781 31.617188 41.910156 C 30.394531 40.550781 29.160156 39.234375 27.683594 38.140625 C 27.234375 37.808594 27.519531 37.015625 28.105469 37.210938 C 29.355469 37.632812 30.53125 38.21875 31.621094 38.960938 C 31.40625 39.226562 31.191406 39.488281 30.976562 39.753906 C 28.503906 37.097656 25.28125 35.4375 22.242188 33.53125 C 21.855469 33.289062 21.96875 32.699219 22.402344 32.589844 C 24.621094 32.035156 26.71875 31.644531 28.976562 32.257812 C 29.617188 32.429688 29.3125 33.402344 28.671875 33.242188 C 27.441406 32.933594 26.21875 33.140625 24.988281 33.34375 C 24.960938 33.003906 24.929688 32.667969 24.898438 32.328125 C 25.835938 32.425781 26.90625 32.46875 27.769531 32.890625 C 28.5625 33.28125 29.179688 33.980469 29.839844 34.550781 C 30.195312 34.859375 29.863281 35.4375 29.445312 35.417969 C 27.074219 35.3125 24.617188 35.527344 22.386719 34.574219 C 21.882812 34.355469 21.9375 33.519531 22.558594 33.566406 C 24.921875 33.742188 27.039062 34.519531 28.980469 35.867188 C 29.394531 36.152344 29.222656 36.839844 28.6875 36.820312 C 25.257812 36.679688 21.851562 36.035156 18.410156 36.273438 C 17.746094 36.316406 17.804688 35.296875 18.453125 35.242188 C 19.386719 35.164062 20.273438 34.863281 21.207031 34.78125 C 21.808594 34.730469 21.839844 35.664062 21.296875 35.800781 C 17.4375 36.765625 13.613281 37.9375 10.070312 39.769531 C 10.042969 39.453125 10.011719 39.140625 9.980469 38.824219 C 12.386719 39.503906 14.792969 39.230469 17.222656 38.832031 C 17.25 39.171875 17.28125 39.511719 17.3125 39.851562 C 14.941406 39.734375 12.570312 39.742188 10.199219 39.625 C 9.519531 39.589844 9.597656 38.644531 10.242188 38.59375 C 13.703125 38.320312 17.28125 38.195312 20.648438 39.164062 C 21.234375 39.332031 21.046875 40.160156 20.476562 40.171875 C 17.40625 40.222656 14.296875 39.878906 11.691406 38.125 C 11.269531 37.839844 11.457031 37.152344 11.984375 37.171875 C 15.832031 37.300781 19.695312 37.609375 23.402344 38.703125 C 23.300781 39.03125 23.199219 39.359375 23.101562 39.6875 C 20.375 38.566406 17.441406 38.25 14.566406 37.71875 C 13.910156 37.597656 14.226562 36.625 14.867188 36.734375 C 19.207031 37.484375 23.054688 39.835938 27.394531 40.585938 C 27.292969 40.914062 27.195312 41.242188 27.09375 41.570312 C 24.1875 40.335938 21.019531 39.609375 18.207031 38.167969 C 17.664062 37.886719 18.089844 37.101562 18.628906 37.238281 C 23.214844 38.382812 27.195312 41.113281 31.777344 42.257812 C 31.636719 42.566406 31.496094 42.878906 31.355469 43.1875 C 27.175781 40.980469 22.382812 39.859375 18.574219 36.976562 C 18.140625 36.648438 18.417969 35.808594 18.996094 36.046875 C 22.992188 37.675781 26.4375 40.527344 30.769531 41.292969 C 30.628906 41.605469 30.484375 41.914062 30.34375 42.226562 C 27.1875 40.019531 23.605469 38.566406 20.339844 36.539062 C 19.855469 36.238281 20.21875 35.367188 20.765625 35.609375 C 23.441406 36.785156 26.046875 38.167969 28.933594 38.773438 C 28.789062 39.082031 28.648438 39.390625 28.507812 39.703125 C 23.824219 37.367188 18.632812 36.65625 13.53125 35.769531 C 12.957031 35.667969 13.128906 34.683594 13.707031 34.761719 C 16.410156 35.132812 19.101562 35.644531 21.730469 36.386719 C 23.304688 36.828125 26.203125 37.515625 26.871094 39.277344 C 27.105469 39.886719 26.199219 40.375 25.964844 39.757812 Z M 25.964844 39.757812 " fill-opacity="1" fill-rule="nonzero"/></g></g></g><g clip-path="url(#23ac013220)"><g clip-path="url(#21de49a11c)"><g clip-path="url(#241b3a106f)"><path fill="#d8cabe" d="M 20.785156 32.949219 C 22.421875 31.0625 24.332031 29.582031 26.519531 28.390625 C 26.445312 28.625 26.375 28.855469 26.304688 29.089844 C 26.234375 28.957031 26.167969 28.828125 26.097656 28.699219 C 26.285156 28.785156 26.476562 28.871094 26.664062 28.960938 C 24.613281 29.214844 22.285156 29.738281 20.933594 31.4375 C 20.753906 31.179688 20.570312 30.921875 20.386719 30.664062 C 23.195312 30.046875 24.394531 27.257812 25.1875 24.773438 C 25.515625 24.875 25.84375 24.976562 26.171875 25.078125 C 25.808594 25.933594 25.160156 26.679688 24.386719 27.191406 C 24.222656 26.890625 24.0625 26.585938 23.902344 26.28125 C 26.070312 25.058594 27.605469 23.019531 27.824219 20.5 C 28.078125 20.65625 28.328125 20.816406 28.582031 20.976562 C 26.371094 22.234375 25.0625 24.3125 23.777344 26.4375 C 23.550781 26.195312 23.324219 25.953125 23.101562 25.710938 C 24.753906 24.832031 26.027344 23.960938 27.253906 22.53125 C 27.453125 22.808594 27.648438 23.085938 27.847656 23.359375 C 25.609375 24.578125 23.914062 26.089844 22.839844 28.433594 C 22.65625 28.175781 22.472656 27.917969 22.289062 27.65625 C 24.613281 26.816406 25.640625 25.121094 26.128906 22.777344 C 26.371094 22.980469 26.617188 23.183594 26.859375 23.382812 C 22.53125 26.285156 19.238281 30.78125 17.082031 35.476562 C 16.820312 35.261719 16.554688 35.046875 16.289062 34.832031 C 18.449219 33.183594 20.617188 31.554688 23.007812 30.253906 C 23.507812 29.980469 24.078125 30.726562 23.601562 31.082031 C 21.585938 32.589844 19.363281 33.8125 17.386719 35.375 C 17.234375 35.082031 17.078125 34.789062 16.921875 34.496094 C 20.53125 33.972656 23.785156 32.296875 25.542969 28.988281 C 25.726562 29.246094 25.90625 29.507812 26.089844 29.765625 C 20.84375 30.585938 16.375 33.871094 12.296875 37.074219 C 12.097656 36.796875 11.898438 36.519531 11.699219 36.242188 C 14.613281 35.167969 17.390625 33.761719 20.304688 32.683594 C 20.90625 32.460938 21.390625 33.273438 20.785156 33.59375 C 20.394531 33.800781 20.003906 34.007812 19.613281 34.214844 C 19.019531 34.53125 18.585938 33.660156 19.132812 33.304688 C 23.378906 30.554688 29.410156 25.820312 28.019531 20.035156 C 28.332031 20.089844 28.648438 20.140625 28.960938 20.195312 C 26.824219 23.792969 27.425781 29.191406 28.117188 33.09375 C 28.753906 36.671875 30.394531 43.050781 34.835938 43.539062 C 34.707031 43.832031 34.574219 44.121094 34.441406 44.410156 C 32.265625 41.664062 28.238281 41.132812 25.34375 39.378906 C 25.007812 39.175781 25.03125 38.667969 25.375 38.488281 C 25.894531 38.210938 26.414062 37.9375 26.933594 37.660156 C 27.519531 37.351562 28.003906 38.261719 27.417969 38.570312 C 26.894531 38.847656 26.375 39.121094 25.855469 39.398438 C 25.867188 39.101562 25.875 38.800781 25.886719 38.503906 C 28.859375 40.308594 32.9375 40.859375 35.191406 43.703125 C 35.445312 44.023438 35.285156 44.625 34.792969 44.570312 C 30.074219 44.050781 28.1875 38.234375 27.316406 34.324219 C 26.699219 31.5625 26.46875 28.6875 26.59375 25.863281 C 26.691406 23.769531 26.996094 21.484375 28.085938 19.652344 C 28.320312 19.257812 28.921875 19.382812 29.027344 19.8125 C 30.539062 26.121094 24.265625 31.203125 19.617188 34.214844 C 19.453125 33.910156 19.292969 33.609375 19.132812 33.304688 C 19.523438 33.097656 19.914062 32.890625 20.304688 32.6875 C 20.464844 32.988281 20.625 33.292969 20.785156 33.59375 C 17.871094 34.671875 15.097656 36.078125 12.183594 37.152344 C 11.691406 37.335938 11.085938 36.71875 11.589844 36.324219 C 15.8125 33.011719 20.4375 29.609375 25.867188 28.757812 C 26.320312 28.6875 26.632812 29.128906 26.417969 29.535156 C 24.542969 33.058594 21.003906 34.945312 17.144531 35.503906 C 16.6875 35.570312 16.246094 34.96875 16.679688 34.625 C 18.660156 33.0625 20.878906 31.839844 22.898438 30.332031 C 23.09375 30.609375 23.292969 30.886719 23.492188 31.164062 C 21.179688 32.421875 19.085938 33.988281 17 35.582031 C 16.519531 35.945312 15.960938 35.46875 16.207031 34.933594 C 18.445312 30.066406 21.894531 25.480469 26.378906 22.476562 C 26.792969 22.199219 27.191406 22.695312 27.113281 23.082031 C 26.542969 25.835938 25.191406 27.695312 22.511719 28.664062 C 22.035156 28.835938 21.804688 28.234375 21.960938 27.890625 C 23.109375 25.390625 24.980469 23.746094 27.363281 22.453125 C 27.910156 22.15625 28.320312 22.863281 27.960938 23.28125 C 26.667969 24.789062 25.324219 25.695312 23.582031 26.621094 C 23.125 26.863281 22.640625 26.332031 22.902344 25.894531 C 24.289062 23.605469 25.71875 21.421875 28.097656 20.066406 C 28.429688 19.878906 28.886719 20.15625 28.855469 20.542969 C 28.601562 23.429688 26.878906 25.785156 24.382812 27.195312 C 23.796875 27.527344 23.359375 26.644531 23.902344 26.285156 C 24.429688 25.9375 24.941406 25.351562 25.1875 24.777344 C 25.441406 24.179688 26.378906 24.433594 26.171875 25.078125 C 25.257812 27.941406 23.804688 30.972656 20.609375 31.671875 C 20.210938 31.757812 19.769531 31.261719 20.058594 30.898438 C 21.601562 28.957031 24.066406 28.25 26.441406 27.957031 C 26.671875 27.929688 26.894531 28 27.007812 28.21875 C 27.078125 28.347656 27.144531 28.476562 27.214844 28.609375 C 27.347656 28.859375 27.246094 29.171875 27 29.304688 C 24.886719 30.453125 23.070312 31.882812 21.492188 33.699219 C 21.058594 34.199219 20.355469 33.445312 20.785156 32.949219 Z M 20.785156 32.949219 " fill-opacity="1" fill-rule="nonzero"/></g></g></g><g clip-path="url(#72e0a3309b)"><g clip-path="url(#7acf21040f)"><g clip-path="url(#5c53400447)"><path fill="#d8cabe" d="M 25.785156 24.957031 C 26.640625 22.992188 26.425781 20.929688 25.476562 19.039062 C 25.773438 19.050781 26.070312 19.0625 26.367188 19.070312 C 25.457031 20.367188 25.132812 21.410156 25.160156 22.996094 C 24.816406 22.980469 24.476562 22.96875 24.132812 22.953125 C 24.128906 22.621094 24.101562 22.132812 24.402344 21.914062 C 24.617188 21.757812 24.933594 21.699219 25.128906 21.933594 C 25.75 22.675781 25.746094 23.824219 26.136719 24.683594 C 26.40625 25.285156 25.496094 25.773438 25.226562 25.164062 C 24.898438 24.4375 24.878906 23.238281 24.378906 22.640625 C 24.625 22.648438 24.867188 22.65625 25.109375 22.664062 C 25.230469 22.574219 25.160156 22.921875 25.160156 22.996094 C 25.171875 23.660156 24.144531 23.617188 24.132812 22.953125 C 24.101562 21.195312 24.480469 19.96875 25.492188 18.527344 C 25.710938 18.21875 26.203125 18.191406 26.386719 18.558594 C 27.445312 20.667969 27.726562 23.058594 26.769531 25.257812 C 26.507812 25.863281 25.519531 25.566406 25.785156 24.957031 Z M 25.785156 24.957031 " fill-opacity="1" fill-rule="nonzero"/></g></g></g><g clip-path="url(#f5c0cfc408)"><g clip-path="url(#1fb1a648fc)"><g clip-path="url(#52052206bb)"><path fill="#d8cabe" d="M 27.828125 33.691406 C 31.328125 31.933594 35.496094 32.644531 39.164062 33.425781 C 43.070312 34.257812 47.195312 36.023438 51.238281 35.851562 C 51.902344 35.820312 51.855469 36.851562 51.195312 36.878906 C 47.710938 37.027344 44.140625 35.679688 40.804688 34.859375 C 36.910156 33.902344 32.105469 32.695312 28.308594 34.601562 C 27.71875 34.898438 27.234375 33.988281 27.828125 33.691406 Z M 27.828125 33.691406 " fill-opacity="1" fill-rule="nonzero"/></g></g></g><g clip-path="url(#ae20c9ac70)"><g clip-path="url(#a940de31d4)"><g clip-path="url(#7fb4ed184d)"><path fill="#d8cabe" d="M 31.328125 34.355469 C 37.800781 33.226562 44.539062 33.667969 50.996094 34.660156 C 57.726562 35.695312 64.53125 37.5 70.53125 40.785156 C 76.496094 44.046875 80.609375 49.980469 83.730469 55.867188 C 84.910156 58.097656 85.667969 60.085938 85.863281 62.605469 C 86.0625 65.136719 85.917969 67.761719 85.472656 70.261719 C 85.328125 71.082031 84.679688 74.976562 83.003906 73.75 C 82.46875 73.359375 83.011719 72.484375 83.546875 72.875 C 83.605469 72.917969 83.59375 72.90625 83.769531 72.585938 C 83.964844 72.242188 84.066406 71.832031 84.171875 71.453125 C 84.511719 70.234375 84.652344 68.960938 84.769531 67.707031 C 85.003906 65.167969 85.054688 62.46875 84.441406 59.972656 C 84.132812 58.710938 83.414062 57.496094 82.820312 56.351562 C 81.921875 54.621094 80.902344 52.960938 79.820312 51.34375 C 77.8125 48.339844 75.429688 45.285156 72.453125 43.183594 C 66.816406 39.210938 59.703125 37.296875 53.015625 36.042969 C 46.242188 34.769531 39.042969 34.203125 32.199219 35.25 C 31.984375 35.285156 31.769531 35.320312 31.550781 35.359375 C 30.902344 35.472656 30.671875 34.46875 31.328125 34.355469 Z M 31.328125 34.355469 " fill-opacity="1" fill-rule="nonzero"/></g></g></g></g></g></g></g><g clip-path="url(#d0570eef17)"><g clip-path="url(#a65f0da3c8)"><g transform="matrix(1, 0, 0, 1, 34, 17)"><g clip-path="url(#8f3478629b)"><g clip-path="url(#6cdfedf339)"><g clip-path="url(#b6a46eb729)"><path fill="#ffffff" d="M 0.8125 0.660156 L 2.84375 0.660156 L 2.84375 2.078125 L 0.8125 2.078125 Z M 0.8125 0.660156 " fill-opacity="1" fill-rule="nonzero"/></g></g></g></g></g></g></svg>