<svg xmlns="http://www.w3.org/2000/svg" xmlns:xlink="http://www.w3.org/1999/xlink" width="1923" zoomAndPan="magnify" viewBox="0 0 1442.25 351.749992" height="469" preserveAspectRatio="xMidYMid meet" version="1.0"><defs><g/><clipPath id="b99f63d0d1"><path d="M 0.136719 346 L 1441.363281 346 L 1441.363281 351.5 L 0.136719 351.5 Z M 0.136719 346 " clip-rule="nonzero"/></clipPath></defs><g fill="#61888d" fill-opacity="1"><g transform="translate(402.24349, 85.575302)"><g><path d="M 2.96875 -36.171875 L 4.28125 -53.015625 L 13.640625 -53.015625 L 10.375 -36.171875 Z M 14.890625 -36.171875 L 16.21875 -53.015625 L 25.5625 -53.015625 L 22.296875 -36.171875 Z M 14.890625 -36.171875 "/></g></g></g><g fill="#61888d" fill-opacity="1"><g transform="translate(429.056454, 85.575302)"><g><path d="M 9.59375 -17.921875 C 9.382812 -20.054688 9.5625 -22.125 10.125 -24.125 C 10.695312 -26.125 11.972656 -28.007812 13.953125 -29.78125 C 15.097656 -30.769531 16.1875 -31.726562 17.21875 -32.65625 C 18.257812 -33.59375 19.117188 -34.738281 19.796875 -36.09375 C 20.472656 -37.445312 20.8125 -39.210938 20.8125 -41.390625 C 20.8125 -43.054688 20.5625 -44.203125 20.0625 -44.828125 C 19.570312 -45.453125 18.734375 -45.765625 17.546875 -45.765625 C 16.242188 -45.765625 15.304688 -45.359375 14.734375 -44.546875 C 14.160156 -43.742188 13.875 -42.351562 13.875 -40.375 L 1.953125 -40.375 C 1.953125 -45.675781 3.132812 -49.429688 5.5 -51.640625 C 7.863281 -53.847656 11.878906 -54.953125 17.546875 -54.953125 C 23.097656 -54.953125 27.039062 -53.953125 29.375 -51.953125 C 31.71875 -49.953125 32.890625 -46.5625 32.890625 -41.78125 C 32.890625 -38.664062 32.472656 -36.132812 31.640625 -34.1875 C 30.816406 -32.238281 29.738281 -30.597656 28.40625 -29.265625 C 27.082031 -27.941406 25.695312 -26.601562 24.25 -25.25 C 22.84375 -23.957031 21.96875 -22.828125 21.625 -21.859375 C 21.289062 -20.898438 21.070312 -19.585938 20.96875 -17.921875 Z M 9.515625 0 L 9.515625 -11.84375 L 21.359375 -11.84375 L 21.359375 0 Z M 9.515625 0 "/></g></g></g><g fill="#61888d" fill-opacity="1"><g transform="translate(465.45661, 85.575302)"><g><path d="M 6.859375 -19.796875 L 6.859375 -35.46875 C 6.859375 -36.195312 6.738281 -36.664062 6.5 -36.875 C 6.269531 -37.082031 5.789062 -37.1875 5.0625 -37.1875 L 2.109375 -37.1875 L 2.109375 -46.765625 L 12.78125 -46.765625 C 15.019531 -46.765625 16.59375 -46.3125 17.5 -45.40625 C 18.40625 -44.5 18.859375 -42.925781 18.859375 -40.6875 L 18.859375 -19.796875 Z M 6.859375 -19.796875 "/></g></g></g><g fill="#61888d" fill-opacity="1"><g transform="translate(487.203078, 85.575302)"><g><path d="M 37.5 -6.625 C 37.601562 -4.34375 37.117188 -2.664062 36.046875 -1.59375 C 34.984375 -0.53125 33.234375 0 30.796875 0 L 19.328125 0 L 19.328125 -9.59375 L 23.234375 -9.59375 C 24.066406 -9.59375 24.582031 -9.757812 24.78125 -10.09375 C 24.988281 -10.4375 25.066406 -10.992188 25.015625 -11.765625 L 23.859375 -33.359375 C 23.804688 -34.867188 23.609375 -35.9375 23.265625 -36.5625 C 22.929688 -37.1875 22.320312 -37.5 21.4375 -37.5 L 21.125 -37.5 C 20.445312 -37.5 19.960938 -37.300781 19.671875 -36.90625 C 19.390625 -36.519531 19.171875 -35.726562 19.015625 -34.53125 L 14.421875 0 L 2.109375 0 L 6.46875 -30.015625 C 6.9375 -33.285156 7.847656 -35.675781 9.203125 -37.1875 L 3.4375 -37.1875 L 3.4375 -46.765625 L 25.640625 -46.765625 C 28.609375 -46.765625 31 -45.957031 32.8125 -44.34375 C 34.632812 -42.738281 35.648438 -39.703125 35.859375 -35.234375 Z M 37.5 -6.625 "/></g></g></g><g fill="#61888d" fill-opacity="1"><g transform="translate(526.487098, 85.575302)"><g><path d="M 12.46875 0 C 9.457031 0 7.429688 -0.945312 6.390625 -2.84375 C 5.347656 -4.738281 5.398438 -7.453125 6.546875 -10.984375 L 14.1875 -34.6875 C 14.707031 -36.351562 14.132812 -37.1875 12.46875 -37.1875 L 3.359375 -37.1875 C 2.523438 -37.1875 1.9375 -37.351562 1.59375 -37.6875 C 1.257812 -38.03125 1.09375 -38.640625 1.09375 -39.515625 L 1.09375 -53.015625 L 12.46875 -53.015625 L 12.46875 -46.765625 L 20.8125 -46.765625 C 23.769531 -46.765625 25.832031 -45.789062 27 -43.84375 C 28.175781 -41.894531 28.242188 -39.3125 27.203125 -36.09375 L 18.9375 -11.609375 C 18.726562 -11.035156 18.6875 -10.554688 18.8125 -10.171875 C 18.945312 -9.785156 19.351562 -9.59375 20.03125 -9.59375 L 23.46875 -9.59375 L 23.46875 0 Z M 12.46875 0 "/></g></g></g><g fill="#61888d" fill-opacity="1"><g transform="translate(556.573745, 85.575302)"><g/></g></g><g fill="#61888d" fill-opacity="1"><g transform="translate(572.552404, 85.575302)"><g><path d="M 32.421875 -46.765625 C 34.710938 -46.765625 36.351562 -46.269531 37.34375 -45.28125 C 38.332031 -44.300781 38.828125 -42.640625 38.828125 -40.296875 L 38.828125 -2.890625 C 38.828125 -1.847656 38.601562 -1.101562 38.15625 -0.65625 C 37.71875 -0.21875 36.976562 0 35.9375 0 L 8.890625 0 C 7.847656 0 7.101562 -0.21875 6.65625 -0.65625 C 6.21875 -1.101562 6 -1.847656 6 -2.890625 L 6 -32.1875 C 6 -34.53125 6.390625 -36.195312 7.171875 -37.1875 L 2.8125 -37.1875 L 2.8125 -46.765625 Z M 27.046875 -10.21875 L 27.046875 -34.84375 C 27.046875 -35.882812 26.890625 -36.585938 26.578125 -36.953125 C 26.265625 -37.316406 25.644531 -37.5 24.71875 -37.5 L 20.03125 -37.5 C 19.09375 -37.5 18.476562 -37.265625 18.1875 -36.796875 C 17.90625 -36.328125 17.765625 -35.546875 17.765625 -34.453125 L 17.765625 -10.21875 C 17.765625 -9.851562 17.828125 -9.601562 17.953125 -9.46875 C 18.085938 -9.34375 18.335938 -9.28125 18.703125 -9.28125 L 26.109375 -9.28125 C 26.523438 -9.28125 26.785156 -9.34375 26.890625 -9.46875 C 26.992188 -9.601562 27.046875 -9.851562 27.046875 -10.21875 Z M 27.046875 -10.21875 "/></g></g></g><g fill="#61888d" fill-opacity="1"><g transform="translate(615.343994, 85.575302)"><g><path d="M 6.859375 -19.796875 L 6.859375 -35.46875 C 6.859375 -36.195312 6.738281 -36.664062 6.5 -36.875 C 6.269531 -37.082031 5.789062 -37.1875 5.0625 -37.1875 L 2.109375 -37.1875 L 2.109375 -46.765625 L 12.78125 -46.765625 C 15.019531 -46.765625 16.59375 -46.3125 17.5 -45.40625 C 18.40625 -44.5 18.859375 -42.925781 18.859375 -40.6875 L 18.859375 -19.796875 Z M 6.859375 -19.796875 "/></g></g></g><g fill="#61888d" fill-opacity="1"><g transform="translate(637.869983, 85.575302)"><g><path d="M 15.59375 -24.484375 C 14.914062 -24.222656 14.523438 -23.859375 14.421875 -23.390625 C 14.316406 -22.921875 14.394531 -22.164062 14.65625 -21.125 L 18.15625 -9.828125 C 19.039062 -7.015625 19.222656 -4.671875 18.703125 -2.796875 C 18.179688 -0.929688 16.597656 0 13.953125 0 L 2.65625 0 L 2.65625 -9.59375 L 5.140625 -9.59375 C 5.816406 -9.59375 6.101562 -9.878906 6 -10.453125 L 3.96875 -20.1875 C 3.457031 -22.632812 3.421875 -24.632812 3.859375 -26.1875 C 4.296875 -27.75 5.046875 -29.050781 6.109375 -30.09375 C 7.179688 -31.132812 8.34375 -31.988281 9.59375 -32.65625 L 10.75 -33.28125 L 2.734375 -46.765625 L 15.046875 -46.765625 L 25.953125 -27.125 C 26.367188 -27.382812 26.65625 -27.707031 26.8125 -28.09375 C 26.96875 -28.488281 27.046875 -29.128906 27.046875 -30.015625 L 27.046875 -46.765625 L 38.59375 -46.765625 L 38.59375 -29.078125 C 38.59375 -26.679688 38.109375 -24.664062 37.140625 -23.03125 C 36.179688 -21.394531 34.503906 -19.847656 32.109375 -18.390625 L 31.03125 -17.703125 L 40.140625 0 L 27.984375 0 L 15.671875 -24.484375 Z M 15.59375 -24.484375 "/></g></g></g><g fill="#61888d" fill-opacity="1"><g transform="translate(679.648324, 85.575302)"><g><path d="M 30.71875 -46.765625 C 33.625 -46.765625 35.6875 -46.15625 36.90625 -44.9375 C 38.132812 -43.71875 38.75 -41.628906 38.75 -38.671875 L 38.75 0 L 26.65625 0 L 26.65625 -34.53125 C 26.65625 -35.570312 26.472656 -36.328125 26.109375 -36.796875 C 25.742188 -37.265625 25.070312 -37.5 24.09375 -37.5 L 21.984375 -37.5 C 20.210938 -37.5 18.988281 -36.953125 18.3125 -35.859375 C 17.644531 -34.765625 17.617188 -32.476562 18.234375 -29 L 21.046875 -12.625 C 21.828125 -8.363281 21.59375 -5.191406 20.34375 -3.109375 C 19.09375 -1.035156 16.570312 0 12.78125 0 L 2.421875 0 L 2.421875 -9.59375 L 7.015625 -9.59375 C 7.742188 -9.59375 8.300781 -9.796875 8.6875 -10.203125 C 9.082031 -10.617188 9.203125 -11.398438 9.046875 -12.546875 L 6.46875 -27.4375 C 5.945312 -30.351562 5.867188 -32.550781 6.234375 -34.03125 C 6.597656 -35.507812 7.066406 -36.5625 7.640625 -37.1875 L 2.578125 -37.1875 L 2.578125 -46.765625 Z M 30.71875 -46.765625 "/></g></g></g><g fill="#61888d" fill-opacity="1"><g transform="translate(722.751726, 85.575302)"><g><path d="M 37.5 -6.625 C 37.601562 -4.34375 37.117188 -2.664062 36.046875 -1.59375 C 34.984375 -0.53125 33.234375 0 30.796875 0 L 19.328125 0 L 19.328125 -9.59375 L 23.234375 -9.59375 C 24.066406 -9.59375 24.582031 -9.757812 24.78125 -10.09375 C 24.988281 -10.4375 25.066406 -10.992188 25.015625 -11.765625 L 23.859375 -33.359375 C 23.804688 -34.867188 23.609375 -35.9375 23.265625 -36.5625 C 22.929688 -37.1875 22.320312 -37.5 21.4375 -37.5 L 21.125 -37.5 C 20.445312 -37.5 19.960938 -37.300781 19.671875 -36.90625 C 19.390625 -36.519531 19.171875 -35.726562 19.015625 -34.53125 L 14.421875 0 L 2.109375 0 L 6.46875 -30.015625 C 6.9375 -33.285156 7.847656 -35.675781 9.203125 -37.1875 L 3.4375 -37.1875 L 3.4375 -46.765625 L 25.640625 -46.765625 C 28.609375 -46.765625 31 -45.957031 32.8125 -44.34375 C 34.632812 -42.738281 35.648438 -39.703125 35.859375 -35.234375 Z M 37.5 -6.625 "/></g></g></g><g fill="#61888d" fill-opacity="1"><g transform="translate(763.049133, 85.575302)"><g/></g></g><g fill="#61888d" fill-opacity="1"><g transform="translate(779.02778, 85.575302)"><g><path d="M 6.859375 -19.796875 L 6.859375 -35.46875 C 6.859375 -36.195312 6.738281 -36.664062 6.5 -36.875 C 6.269531 -37.082031 5.789062 -37.1875 5.0625 -37.1875 L 2.109375 -37.1875 L 2.109375 -46.765625 L 12.78125 -46.765625 C 15.019531 -46.765625 16.59375 -46.3125 17.5 -45.40625 C 18.40625 -44.5 18.859375 -42.925781 18.859375 -40.6875 L 18.859375 -19.796875 Z M 6.859375 -19.796875 "/></g></g></g><g fill="#61888d" fill-opacity="1"><g transform="translate(800.77427, 85.575302)"><g><path d="M 37.5 -6.625 C 37.601562 -4.34375 37.117188 -2.664062 36.046875 -1.59375 C 34.984375 -0.53125 33.234375 0 30.796875 0 L 19.328125 0 L 19.328125 -9.59375 L 23.234375 -9.59375 C 24.066406 -9.59375 24.582031 -9.757812 24.78125 -10.09375 C 24.988281 -10.4375 25.066406 -10.992188 25.015625 -11.765625 L 23.859375 -33.359375 C 23.804688 -34.867188 23.609375 -35.9375 23.265625 -36.5625 C 22.929688 -37.1875 22.320312 -37.5 21.4375 -37.5 L 21.125 -37.5 C 20.445312 -37.5 19.960938 -37.300781 19.671875 -36.90625 C 19.390625 -36.519531 19.171875 -35.726562 19.015625 -34.53125 L 14.421875 0 L 2.109375 0 L 6.46875 -30.015625 C 6.9375 -33.285156 7.847656 -35.675781 9.203125 -37.1875 L 3.4375 -37.1875 L 3.4375 -46.765625 L 25.640625 -46.765625 C 28.609375 -46.765625 31 -45.957031 32.8125 -44.34375 C 34.632812 -42.738281 35.648438 -39.703125 35.859375 -35.234375 Z M 37.5 -6.625 "/></g></g></g><g fill="#61888d" fill-opacity="1"><g transform="translate(839.668484, 85.575302)"><g><path d="M 2.96875 -36.171875 L 4.28125 -53.015625 L 13.640625 -53.015625 L 10.375 -36.171875 Z M 14.890625 -36.171875 L 16.21875 -53.015625 L 25.5625 -53.015625 L 22.296875 -36.171875 Z M 14.890625 -36.171875 "/></g></g></g><g fill="#61888d" fill-opacity="1"><g transform="translate(866.481472, 85.575302)"><g/></g></g><g fill="#61888d" fill-opacity="1"><g transform="translate(882.46012, 85.575302)"><g><path d="M 3.734375 -18.625 L 3.734375 -28.140625 L 33.046875 -28.140625 L 33.046875 -18.625 Z M 3.734375 -18.625 "/></g></g></g><g fill="#61888d" fill-opacity="1"><g transform="translate(919.250025, 85.575302)"><g/></g></g><g fill="#61888d" fill-opacity="1"><g transform="translate(935.228673, 85.575302)"><g><path d="M 36.484375 -46.765625 C 38.765625 -46.765625 40.296875 -45.984375 41.078125 -44.421875 C 41.859375 -42.867188 41.988281 -40.953125 41.46875 -38.671875 L 33.515625 0 L 21.28125 0 L 28.140625 -35.3125 C 28.296875 -36.195312 28.320312 -36.78125 28.21875 -37.0625 C 28.113281 -37.351562 27.617188 -37.5 26.734375 -37.5 L 20.578125 -37.5 C 19.953125 -37.5 19.457031 -37.421875 19.09375 -37.265625 C 18.726562 -37.109375 18.546875 -36.507812 18.546875 -35.46875 L 18.546875 1.875 C 18.546875 2.5 18.859375 2.8125 19.484375 2.8125 L 21.359375 2.8125 L 21.359375 11.921875 L 10.75 11.921875 C 7.894531 11.921875 6.46875 10.492188 6.46875 7.640625 L 6.46875 -33.984375 C 6.46875 -35.546875 6.753906 -36.613281 7.328125 -37.1875 L 2.8125 -37.1875 L 2.8125 -46.765625 Z M 36.484375 -46.765625 "/></g></g></g><g fill="#61888d" fill-opacity="1"><g transform="translate(980.046944, 85.575302)"><g><path d="M 43.578125 -46.765625 L 43.578125 -37.1875 L 39.125 -37.1875 C 39.695312 -36.195312 39.984375 -34.328125 39.984375 -31.578125 L 39.984375 0 L 27.90625 0 L 27.90625 -33.671875 C 27.90625 -35.179688 27.785156 -36.144531 27.546875 -36.5625 C 27.316406 -36.976562 26.835938 -37.1875 26.109375 -37.1875 L 20.1875 -37.1875 C 19.507812 -37.1875 19.050781 -36.976562 18.8125 -36.5625 C 18.582031 -36.144531 18.46875 -35.179688 18.46875 -33.671875 L 18.46875 0 L 6.390625 0 L 6.390625 -31.578125 C 6.390625 -34.328125 6.675781 -36.195312 7.25 -37.1875 L 2.8125 -37.1875 L 2.8125 -46.765625 Z M 43.578125 -46.765625 "/></g></g></g><g fill="#61888d" fill-opacity="1"><g transform="translate(1026.424029, 85.575302)"><g><path d="M 35.234375 -46.765625 L 46.921875 -46.765625 L 44.671875 -16.609375 C 44.253906 -10.628906 42.707031 -6.363281 40.03125 -3.8125 C 37.351562 -1.269531 33.15625 0 27.4375 0 L 11.84375 0 C 9.820312 0 8.351562 -0.519531 7.4375 -1.5625 C 6.53125 -2.601562 5.945312 -4.054688 5.6875 -5.921875 L 4.359375 -15.90625 C 3.941406 -18.445312 4.644531 -20.394531 6.46875 -21.75 L 2.65625 -46.765625 L 14.421875 -46.765625 L 17.625 -25.640625 L 17.703125 -25.640625 C 18.421875 -25.898438 18.867188 -26.1875 19.046875 -26.5 C 19.234375 -26.8125 19.328125 -27.382812 19.328125 -28.21875 L 19.328125 -46.765625 L 30.953125 -46.765625 L 30.953125 -25.875 C 30.953125 -23.59375 30.585938 -21.941406 29.859375 -20.921875 C 29.128906 -19.910156 27.957031 -19.117188 26.34375 -18.546875 L 17.921875 -15.671875 C 17.046875 -15.304688 16.515625 -14.976562 16.328125 -14.6875 C 16.148438 -14.40625 16.113281 -13.847656 16.21875 -13.015625 L 16.53125 -10.984375 C 16.632812 -10.316406 16.878906 -9.890625 17.265625 -9.703125 C 17.648438 -9.523438 18.234375 -9.4375 19.015625 -9.4375 L 24.25 -9.4375 C 26.425781 -9.4375 28.125 -9.628906 29.34375 -10.015625 C 30.570312 -10.410156 31.457031 -11.175781 32 -12.3125 C 32.539062 -13.457031 32.890625 -15.125 33.046875 -17.3125 Z M 35.234375 -46.765625 "/></g></g></g><g fill="#61888d" fill-opacity="1"><g transform="translate(1076.074773, 85.575302)"><g><path d="M 37.5 -6.625 C 37.601562 -4.34375 37.117188 -2.664062 36.046875 -1.59375 C 34.984375 -0.53125 33.234375 0 30.796875 0 L 19.328125 0 L 19.328125 -9.59375 L 23.234375 -9.59375 C 24.066406 -9.59375 24.582031 -9.757812 24.78125 -10.09375 C 24.988281 -10.4375 25.066406 -10.992188 25.015625 -11.765625 L 23.859375 -33.359375 C 23.804688 -34.867188 23.609375 -35.9375 23.265625 -36.5625 C 22.929688 -37.1875 22.320312 -37.5 21.4375 -37.5 L 21.125 -37.5 C 20.445312 -37.5 19.960938 -37.300781 19.671875 -36.90625 C 19.390625 -36.519531 19.171875 -35.726562 19.015625 -34.53125 L 14.421875 0 L 2.109375 0 L 6.46875 -30.015625 C 6.9375 -33.285156 7.847656 -35.675781 9.203125 -37.1875 L 3.4375 -37.1875 L 3.4375 -46.765625 L 25.640625 -46.765625 C 28.609375 -46.765625 31 -45.957031 32.8125 -44.34375 C 34.632812 -42.738281 35.648438 -39.703125 35.859375 -35.234375 Z M 37.5 -6.625 "/></g></g></g><g clip-path="url(#b99f63d0d1)"><path stroke-linecap="butt" transform="matrix(0.749467, -0.000000000000000093, 0.000000000000000093, 0.749467, 0.137446, 346.742208)" fill="none" stroke-linejoin="miter" d="M -0.000970889 3.002106 L 1922.354048 3.002106 " stroke="#61888d" stroke-width="6" stroke-opacity="1" stroke-miterlimit="4"/></g></svg>