<svg xmlns="http://www.w3.org/2000/svg" xmlns:xlink="http://www.w3.org/1999/xlink" width="56" zoomAndPan="magnify" viewBox="0 0 42 36.750001" height="49" preserveAspectRatio="xMidYMid meet" version="1.0"><defs><clipPath id="83e80a432f"><path d="M 0.140625 0 L 41.855469 0 L 41.855469 36.5 L 0.140625 36.5 Z M 0.140625 0 " clip-rule="nonzero"/></clipPath><clipPath id="895a62935b"><path d="M 13.132812 25.25 L 16.859375 25.25 L 16.859375 29.179688 L 13.132812 29.179688 Z M 13.132812 25.25 " clip-rule="nonzero"/></clipPath><clipPath id="a5882e914e"><path d="M 0.132812 0.25 L 3.859375 0.25 L 3.859375 4.179688 L 0.132812 4.179688 Z M 0.132812 0.25 " clip-rule="nonzero"/></clipPath><clipPath id="16cdbe70cc"><rect x="0" width="4" y="0" height="5"/></clipPath></defs><g clip-path="url(#83e80a432f)"><path fill="#44863f" d="M 0.140625 14.03125 C 0.140625 14.03125 9.457031 20.414062 15.945312 36.324219 C 20.574219 24.046875 29.871094 10.144531 41.484375 0.00390625 C 29.449219 4.503906 20.492188 14.371094 15.574219 23.371094 C 12.539062 19.5 8.515625 15.078125 0.140625 14.03125 Z M 0.140625 14.03125 " fill-opacity="1" fill-rule="nonzero"/></g><g clip-path="url(#895a62935b)"><g transform="matrix(1, 0, 0, 1, 13, 25)"><g clip-path="url(#16cdbe70cc)"><g clip-path="url(#a5882e914e)"><path fill="#44863f" d="M 0.132812 0.25 L 3.859375 0.25 L 3.859375 4.175781 L 0.132812 4.175781 Z M 0.132812 0.25 " fill-opacity="1" fill-rule="nonzero"/></g></g></g></g></svg>